<?xml version="1.0" encoding="utf-8"?>
<!-- Generator: Adobe Illustrator 27.2.0, SVG Export Plug-In . SVG Version: 6.00 Build 0)  -->
<svg version="1.1" xmlns="http://www.w3.org/2000/svg" xmlns:xlink="http://www.w3.org/1999/xlink" x="0px" y="0px"
	 viewBox="0 0 1470 807" style="enable-background:new 0 0 1470 807;" xml:space="preserve">
<style type="text/css">
	.st0{fill:#B6D5D0;}
	.st1{fill:#E9928B;}
	.st2{fill:#DE6667;}
	.st3{fill:#EDF6F5;}
	.st4{fill:#DCECEB;}
	.st5{fill:#B2E5E0;}
	.st6{fill:#3FB8A9;}
	.st7{fill:#FFFFFF;}
	.st8{fill:#FFAB40;}
	.st9{fill:#0C1B3C;}
	.st10{fill:#408C91;}
	.st11{fill:#376F92;}
	.st12{fill:#1B5175;}
	.st13{fill:#ADCCC7;}
	.st14{fill:#6EAB9C;}
	.st15{opacity:0.4;}
	.st16{opacity:0.4;fill:#F4D7C9;enable-background:new    ;}
	.st17{fill:#EB908B;}
	.st18{fill:#AECBC7;}
	.st19{fill:#93405E;}
	.st20{fill:#67A4C3;}
	.st21{fill:#4F91B3;}
	.st22{fill:#F0D1AA;}
	.st23{fill:#EDBF84;}
	.st24{fill:#F4C8AF;}
	.st25{fill:#F7DFD3;}
	.st26{fill:#F2D6C8;}
	.st27{fill:#F5B89B;}
	.st28{opacity:0.52;}
	.st29{opacity:0.52;fill:#1B5175;enable-background:new    ;}
	.st30{fill:#FFAC95;}
	.st31{fill:#F5911F;}
	.st32{fill:#5F6386;}
	.st33{fill:#4A4E73;}
	.st34{fill:#FFAA3F;}
	.st35{fill:#B2D3E4;}
	.st36{fill:#7DC4BE;}
	.st37{opacity:0.65;}
	.st38{opacity:0.65;fill:#379690;enable-background:new    ;}
	.st39{fill:#8FB9CF;}
	.st40{fill:#7A9DB0;}
	.st41{opacity:0.15;fill:#FFFFFF;enable-background:new    ;}
	.st42{fill:#00ADEE;}
</style>
<g id="Layer_2">
</g>
<g id="Layer_1">
	<path class="st0" d="M533.1,630.4v-50.7c0-15.8-12.8-28.6-28.6-28.6h-36.2v240.9h46.3h18.4h57.2V687.6c0-15.8-12.8-28.6-28.6-28.6
		C545.9,659,533.1,646.2,533.1,630.4z"/>
	<path class="st1" d="M843.8,731.8l-23.1,22.5l-7.8-11.5l-12.4-18.4l29.7-13.8l8.1,12.7L843.8,731.8z"/>
	<path class="st2" d="M838.4,723.3c-11.9,6.1-21,14.9-25.4,19.5l-12.4-18.4l29.7-13.8L838.4,723.3z"/>
	<path class="st3" d="M911.9,56H422.2v255.4h489.7V56z"/>
	<path class="st4" d="M527.9,78.9H449v72.7h78.9V78.9z"/>
	<path class="st0" d="M863.3,144.7h-3v-4.4h-4.4v-3h7.4V144.7z"/>
	<path class="st0" d="M843.8,140.3h-12.1v-3h12.1V140.3z M819.6,140.3h-12.1v-3h12.1V140.3z M795.4,140.3h-12.1v-3h12.1V140.3z
		 M771.2,140.3h-12.1v-3h12.1V140.3z M747,140.3h-12.1v-3H747V140.3z M722.8,140.3h-12.1v-3h12.1V140.3z M698.6,140.3h-12.1v-3h12.1
		V140.3z M674.4,140.3h-12.1v-3h12.1V140.3z M650.2,140.3h-12.1v-3h12.1V140.3z"/>
	<path class="st0" d="M621.6,144.7h-3v-7.4h7.4v3h-4.4V144.7z"/>
	<path class="st0" d="M621.6,265.6h-3v-12.1h3V265.6z M621.6,241.4h-3v-12.1h3V241.4z M621.6,217.2h-3v-12.1h3V217.2z M621.6,193.1
		h-3V181h3V193.1z M621.6,168.9h-3v-12.1h3V168.9z"/>
	<path class="st0" d="M626,285h-7.4v-7.4h3v4.4h4.4V285z"/>
	<path class="st0" d="M843.8,285h-12.1v-3h12.1V285z M819.6,285h-12.1v-3h12.1V285z M795.4,285h-12.1v-3h12.1V285z M771.2,285h-12.1
		v-3h12.1V285z M747,285h-12.1v-3H747V285z M722.8,285h-12.1v-3h12.1V285z M698.6,285h-12.1v-3h12.1V285z M674.4,285h-12.1v-3h12.1
		V285z M650.2,285h-12.1v-3h12.1V285z"/>
	<path class="st0" d="M863.3,285h-7.4v-3h4.4v-4.4h3V285z"/>
	<path class="st0" d="M863.3,265.6h-3v-12.1h3V265.6z M863.3,241.4h-3v-12.1h3V241.4z M863.3,217.2h-3v-12.1h3V217.2z M863.3,193.1
		h-3V181h3V193.1z M863.3,168.9h-3v-12.1h3V168.9z"/>
	<path class="st5" d="M634.9,325.1H377c-4,0-7.3-3.3-7.3-7.3V191.1c0-4,3.3-7.3,7.3-7.3h257.9c4,0,7.3,3.3,7.3,7.3v126.7
		C642.3,321.8,639,325.1,634.9,325.1z"/>
	<path class="st6" d="M643.8,334H385.9c-4,0-7.3-3.3-7.3-7.3V200c0-4,3.3-7.3,7.3-7.3h257.9c4,0,7.3,3.3,7.3,7.3v126.7
		C651.1,330.7,647.9,334,643.8,334z"/>
	<path class="st7" d="M537.2,86.3h-78.9v72.7h78.9V86.3z"/>
	<path class="st8" d="M527.9,118.5l-28.7,13l-28.7-13v19.4h57.4V118.5z"/>
	<path class="st8" d="M527.9,109.8h-57.4v5.2l28.7,12.7l28.7-12.7V109.8z"/>
	<path class="st7" d="M775.2,133H616.5v-7.4h158.7V133z M617.5,132h156.7v-5.4H617.5V132z"/>
	<path class="st7" d="M775.2,102.4H616.5V95h158.7V102.4z M617.5,101.5h156.7V96H617.5V101.5z"/>
	<path class="st7" d="M775.2,71.9H616.5v-7.4h158.7V71.9z M617.5,70.9h156.7v-5.4H617.5V70.9z"/>
	<path class="st4" d="M1082.5,186.2H960.6v44.3h121.9V186.2z"/>
	<path class="st1" d="M921.3,729.9l-25.4,23.7l-6.3-28.3l-2.5-11l30.3-7.7l1.7,10.7L921.3,729.9z"/>
	<path class="st2" d="M919.2,717.2c0,0-6.5-0.7-12.5,0.8c-4.4,1.1-17.1,7.2-17.1,7.2l-2.5-11l30.3-7.7L919.2,717.2z"/>
	<path class="st9" d="M914.7,727.3c-12.8-0.2-17.4,10.3-21.8,20.1c-4.3,9.8-9.5,32.6-17,34.9c-7.5,2.3-11.5,6.3-11.5,10.9h27
		c0,0,16.9-18.6,25.6-25.9c8.7-7.3,10.8-12,10.8-12s-3.3-18-6.6-25.5C921.3,729.9,919,727.4,914.7,727.3z"/>
	<path class="st10" d="M916.8,746.1c-9.4,1.9-12.8,12-18.6,28.7c-5.8,16.7-17.2,18.5-17.2,18.5H913c0,0,1.8-6.1,5.6-13.9
		c2.8-5.8,7.6-12.3,8.9-18.3C930.3,746.9,919.1,745.6,916.8,746.1z"/>
	<path class="st11" d="M919.1,709.1c-20,2.2-34.1,8.9-34.1,8.9s-6.8,2.2-16.7-18.5c-9.9-20.8-44.5-85.7-44.5-85.7l39.9,1.3l30.1,1
		c0,0,16.3,41.2,24.2,58.7C925.9,692.1,919.1,709.1,919.1,709.1z"/>
	<path class="st12" d="M885.1,681.1c-12.1,14.5-8,31.3,0,36.9c0,0-6.8,2.2-16.7-18.5c-9.9-20.8-44.5-85.7-44.5-85.7l39.9,1.3
		l26,11.5c0,0-25.6,3.3-31.4,16.8C852.6,656.8,897.1,666.6,885.1,681.1z"/>
	<path class="st13" d="M1481.1,796.5c0,0,0.1-72.7-79.5-37.3c0,0-17.5-62.6-63.3-59.6c-45.8,3-50.3,62.2-50.3,62.2
		s-62.8-31.9-96.5,32.8L1481.1,796.5z"/>
	<path class="st14" d="M1347,793.9l-1.9-0.3c5.3-37.9-15.1-65-15.3-65.3l1.6-1.2C1331.5,727.4,1352.4,755.2,1347,793.9z"/>
	<path class="st14" d="M1347.7,770.7l-1.6-1.2c0.2-0.3,18.8-25.9,22-42l1.9,0.4C1366.8,744.5,1348.5,769.6,1347.7,770.7z"/>
	<path class="st14" d="M1346.8,784.1c-14.5-0.9-27.4-18.1-27.9-18.8l1.6-1.2c0.1,0.2,12.8,17.2,26.5,18L1346.8,784.1z"/>
	<path class="st14" d="M1393.5,793.7l2.7-1.9c0.2-0.2,25.5-18,52.4-19.3l0.1,2c-21.1,1-41.2,12.4-48.5,17l26.2-0.9l0.1,2
		L1393.5,793.7z"/>
	<path class="st14" d="M1414.2,783.4l-1.9-0.6c4.1-12.1,12.9-23.5,13.2-24l1.6,1.2C1427.1,760.1,1418.2,771.7,1414.2,783.4z"/>
	<path class="st14" d="M1287.5,793.3c-0.2-0.2-19.7-16.6-41.6-24.2l0.7-1.9c22.2,7.8,42,24.4,42.2,24.6L1287.5,793.3z"/>
	<path class="st14" d="M1236.7,787.6l-0.9-1.8c0.6-0.3,14.3-7.2,39.7-3.7l-0.3,2C1250.6,780.7,1236.8,787.5,1236.7,787.6z"/>
	<g class="st15">
		<path class="st16" d="M776.8,636.9l-4.4-2.5c-2.8-1.6-4.6-4.5-4.5-7.8c0-0.4,0-0.7,0-1.1s0-0.7,0-1.1c-0.1-3.2,1.7-6.2,4.5-7.8
			l4.4-2.5c3.5-2,5.2-6,4.2-9.9c0,0,0-0.1,0-0.1c-1-3.9-4.6-6.6-8.6-6.5l-5.1,0.1c-3.3,0.1-6.2-1.7-7.8-4.6c-0.3-0.6-0.6-1.1-1-1.7
			c-1.7-2.8-1.7-6.3-0.1-9.1l2.6-4.3c2.1-3.5,1.5-7.9-1.3-10.7c0,0-0.1-0.1-0.1-0.1c-2.8-2.8-7.3-3.4-10.7-1.3l-4.3,2.6
			c-2.8,1.7-6.3,1.6-9.1-0.1c-0.5-0.3-1.1-0.6-1.7-1c-2.8-1.6-4.6-4.6-4.6-7.8l0.1-5.1c0.1-4-2.6-7.6-6.5-8.6c0,0-0.1,0-0.1,0
			c-3.9-1-8,0.7-9.9,4.2l-2.5,4.4c-1.6,2.8-4.5,4.6-7.8,4.5c-0.4,0-0.7,0-1.1,0c-0.4,0-0.7,0-1.1,0c-3.2,0.1-6.2-1.7-7.8-4.5
			l-2.5-4.4c-2-3.5-6-5.2-9.9-4.2c0,0-0.1,0-0.1,0c-3.9,1-6.6,4.6-6.5,8.6l0.1,5.1c0.1,3.3-1.7,6.2-4.6,7.8c-0.6,0.3-1.1,0.6-1.7,1
			c-2.8,1.7-6.3,1.7-9.1,0.1l-4.3-2.6c-3.5-2.1-7.9-1.5-10.7,1.3c0,0-0.1,0.1-0.1,0.1c-2.8,2.8-3.4,7.3-1.3,10.7l2.6,4.3
			c1.7,2.8,1.6,6.3-0.1,9.1c-0.3,0.6-0.6,1.1-1,1.7c-1.6,2.8-4.6,4.6-7.8,4.6l-5.1-0.1c-4-0.1-7.6,2.6-8.6,6.5c0,0,0,0.1,0,0.1
			c-1,3.9,0.7,8,4.2,9.9l4.4,2.5c2.8,1.6,4.6,4.5,4.5,7.8c0,0.4,0,0.7,0,1.1s0,0.7,0,1.1c0.1,3.2-1.7,6.2-4.5,7.8l-4.4,2.5
			c-3.5,2-5.2,6-4.2,9.9c0,0,0,0.1,0,0.1c1,3.9,4.6,6.6,8.6,6.5l5.1-0.1c3.3-0.1,6.2,1.7,7.8,4.6c0.3,0.6,0.6,1.1,1,1.7
			c1.7,2.8,1.7,6.3,0.1,9.1l-2.6,4.3c-2.1,3.5-1.5,7.9,1.3,10.7c0,0,0.1,0.1,0.1,0.1c2.8,2.8,7.3,3.4,10.7,1.3l4.3-2.6
			c2.8-1.7,6.3-1.6,9.1,0.1c0.6,0.3,1.1,0.6,1.7,1c2.8,1.6,4.6,4.6,4.6,7.8l-0.1,5.1c-0.1,4,2.6,7.6,6.5,8.6c0,0,0.1,0,0.1,0
			c3.9,1,8-0.7,9.9-4.2l2.5-4.4c1.6-2.8,4.5-4.6,7.8-4.5c0.4,0,0.7,0,1.1,0c0.4,0,0.7,0,1.1,0c3.2-0.1,6.2,1.7,7.8,4.5l2.5,4.4
			c2,3.5,6,5.2,9.9,4.2c0,0,0.1,0,0.1,0c3.9-1,6.6-4.6,6.5-8.6l-0.1-5.1c-0.1-3.3,1.7-6.2,4.6-7.8c0.6-0.3,1.1-0.6,1.7-1
			c2.8-1.7,6.3-1.7,9.1-0.1l4.3,2.6c3.5,2.1,7.9,1.5,10.7-1.3c0,0,0.1-0.1,0.1-0.1c2.8-2.8,3.4-7.3,1.3-10.7l-2.6-4.3
			c-1.7-2.8-1.6-6.3,0.1-9.1c0.3-0.6,0.6-1.1,1-1.7c1.6-2.8,4.6-4.6,7.8-4.6l5.1,0.1c4,0.1,7.6-2.6,8.6-6.5c0,0,0-0.1,0-0.1
			C782,642.9,780.3,638.8,776.8,636.9z M701.4,674.9c-27.3,0-49.4-22.1-49.4-49.4c0-27.3,22.1-49.4,49.4-49.4
			c27.3,0,49.4,22.1,49.4,49.4C750.8,652.8,728.7,674.9,701.4,674.9z"/>
		<path class="st16" d="M723,631.8c3.3-11.9-3.7-24.1-15.6-27.4c-11.9-3.3-24.1,3.7-27.4,15.6c-3.3,11.9,3.7,24.1,15.6,27.4
			C707.5,650.6,719.7,643.6,723,631.8z"/>
	</g>
	<g class="st15">
		<path class="st16" d="M1069.7,736.1l-2.6-1.4c-1.6-0.9-2.7-2.7-2.6-4.5c0-0.2,0-0.4,0-0.6s0-0.4,0-0.6c0-1.9,1-3.6,2.6-4.5
			l2.6-1.4c2-1.1,3.1-3.5,2.5-5.8c0,0,0-0.1,0-0.1c-0.6-2.3-2.7-3.8-5-3.8l-3,0c-1.9,0-3.7-1-4.6-2.7c-0.2-0.3-0.4-0.7-0.6-1
			c-1-1.6-1-3.7,0-5.3l1.5-2.5c1.2-2,0.9-4.6-0.8-6.3c0,0,0,0-0.1-0.1c-1.7-1.7-4.2-2-6.2-0.8l-2.5,1.5c-1.6,1-3.7,1-5.3,0
			c-0.3-0.2-0.7-0.4-1-0.6c-1.7-0.9-2.7-2.7-2.7-4.6l0-3c0-2.3-1.5-4.4-3.8-5c0,0-0.1,0-0.1,0c-2.3-0.6-4.7,0.4-5.8,2.5l-1.4,2.6
			c-0.9,1.6-2.7,2.7-4.5,2.6c-0.2,0-0.4,0-0.6,0c-0.2,0-0.4,0-0.6,0c-1.9,0-3.6-1-4.5-2.6l-1.5-2.6c-1.1-2.1-3.5-3.1-5.8-2.5
			c0,0,0,0-0.1,0c-2.3,0.6-3.8,2.7-3.8,5l0,3c0,1.9-1,3.6-2.7,4.6c-0.3,0.2-0.7,0.4-1,0.6c-1.6,1-3.7,1-5.3,0l-2.5-1.5
			c-2-1.2-4.6-0.9-6.2,0.8c0,0,0,0-0.1,0.1c-1.7,1.7-2,4.2-0.8,6.3l1.5,2.5c1,1.6,0.9,3.7,0,5.3c-0.2,0.3-0.4,0.6-0.6,1
			c-0.9,1.7-2.7,2.7-4.6,2.7l-3,0c-2.3,0-4.4,1.5-5,3.8c0,0,0,0.1,0,0.1c-0.6,2.3,0.4,4.7,2.5,5.8l2.6,1.4c1.6,0.9,2.7,2.7,2.6,4.5
			c0,0.2,0,0.4,0,0.6s0,0.4,0,0.6c0,1.9-1,3.6-2.6,4.5l-2.6,1.4c-2.1,1.1-3.1,3.5-2.5,5.8c0,0,0,0.1,0,0.1c0.6,2.3,2.7,3.8,5,3.8
			l3,0c1.9,0,3.6,1,4.6,2.7c0.2,0.3,0.4,0.7,0.6,1c1,1.6,1,3.7,0,5.3l-1.5,2.5c-1.2,2-0.9,4.6,0.8,6.2c0,0,0,0,0.1,0.1
			c1.7,1.7,4.2,2,6.2,0.8l2.5-1.5c1.6-1,3.7-0.9,5.3,0c0.3,0.2,0.6,0.4,1,0.6c1.7,0.9,2.7,2.7,2.7,4.6l0,3c0,2.3,1.5,4.4,3.8,5
			c0,0,0,0,0.1,0c2.3,0.6,4.7-0.4,5.8-2.5l1.5-2.6c0.9-1.6,2.7-2.7,4.5-2.6c0.2,0,0.4,0,0.6,0c0.2,0,0.4,0,0.6,0
			c1.9,0,3.6,1,4.5,2.6l1.4,2.6c1.1,2.1,3.5,3.1,5.8,2.5c0,0,0.1,0,0.1,0c2.3-0.6,3.8-2.7,3.8-5l0-3c0-1.9,1-3.6,2.7-4.6
			c0.3-0.2,0.7-0.4,1-0.6c1.6-1,3.7-1,5.3,0l2.5,1.5c2,1.2,4.6,0.9,6.2-0.8c0,0,0,0,0.1-0.1c1.7-1.7,2-4.2,0.8-6.2l-1.5-2.5
			c-1-1.6-0.9-3.7,0-5.3c0.2-0.3,0.4-0.6,0.6-1c0.9-1.7,2.7-2.7,4.6-2.7l3,0c2.3,0,4.4-1.5,5-3.8c0,0,0-0.1,0-0.1
			C1072.7,739.6,1071.7,737.2,1069.7,736.1z M1025.7,758.3c-15.9,0-28.8-12.9-28.8-28.8c0-15.9,12.9-28.8,28.8-28.8
			c15.9,0,28.8,12.9,28.8,28.8C1054.5,745.4,1041.6,758.3,1025.7,758.3z"/>
	</g>
	<path class="st17" d="M1077.6,109.8h130.7v45H1185l12.2,28.6l-43.4-28.6h-76.1V109.8z"/>
	<path class="st18" d="M1481.1,792.2H-5.8v13.8h1486.9V792.2z"/>
	<path class="st0" d="M935.8,495.5V480l-13.9-3.6l-10.7-12.7l2.8-7.6l-85.1-97.3H473.3c-3.5,0-6.3,2.8-6.3,6.3v11l0.1,0.1
		c0.2,1.8,0.9,3.6,2.3,5.1l94.3,112.4c6.9,8.2,17,12.9,27.6,12.9H926c5.5,0,9.3-4.1,9.9-8.8C935.9,497,935.9,496.3,935.8,495.5z"/>
	<path class="st7" d="M926,491.1H591.2c-10.7,0-20.8-4.7-27.6-12.9l-94.3-112.4c-5.4-6.4-0.8-16.3,7.6-16.3h334.7
		c10.7,0,20.8,4.7,27.6,12.9l94.3,112.4C939,481.3,934.4,491.1,926,491.1z"/>
	<path class="st5" d="M884.3,466.4c-0.7,0-1.3-0.3-1.7-0.8l-65-77.3c-1.2-1.4-0.2-3.6,1.7-3.6c0.7,0,1.3,0.3,1.7,0.8l65,77.3
		C887.2,464.2,886.2,466.4,884.3,466.4z"/>
	<path class="st4" d="M629.9,434.2h-75.3c-1.8,0-3.5-0.8-4.6-2.1l-36.9-44.3c-1.3-1.5-0.2-3.8,1.8-3.8h75.3c1.8,0,3.5,0.8,4.6,2.1
		l36.9,44.3C632.9,431.9,631.8,434.2,629.9,434.2z"/>
	<path class="st5" d="M593.3,467.1h-11.1c-1.8,0-3.4-0.8-4.6-2.1L564,448.7c-1.3-1.5-0.2-3.8,1.8-3.8h11.1c1.8,0,3.4,0.8,4.6,2.1
		l13.6,16.3C596.3,464.9,595.3,467.1,593.3,467.1z"/>
	<path class="st5" d="M625.4,467.1h-11.1c-1.8,0-3.4-0.8-4.6-2.1l-13.6-16.3c-1.3-1.5-0.2-3.8,1.8-3.8H609c1.8,0,3.4,0.8,4.6,2.1
		l13.6,16.3C628.4,464.9,627.4,467.1,625.4,467.1z"/>
	<path class="st5" d="M657.5,467.1h-11.1c-1.8,0-3.4-0.8-4.6-2.1l-13.6-16.3c-1.3-1.5-0.2-3.8,1.8-3.8H641c1.8,0,3.4,0.8,4.6,2.1
		l13.6,16.3C660.5,464.9,659.5,467.1,657.5,467.1z"/>
	<path class="st4" d="M717.1,405.1h-85c-1.8,0-3.4-0.8-4.6-2.1l-12.7-15.2c-1.3-1.5-0.2-3.8,1.8-3.8h85c1.8,0,3.4,0.8,4.6,2.1
		l12.7,15.2C720.1,402.8,719.1,405.1,717.1,405.1z"/>
	<path class="st4" d="M743.2,436.1h-85c-1.8,0-3.4-0.8-4.6-2.1l-12.7-15.2c-1.3-1.5-0.2-3.8,1.8-3.8h85c1.8,0,3.4,0.8,4.6,2.1
		l12.7,15.2C746.2,433.8,745.1,436.1,743.2,436.1z"/>
	<path class="st4" d="M769.2,467.1h-85c-1.8,0-3.4-0.8-4.6-2.1l-12.7-15.2c-1.3-1.5-0.2-3.8,1.8-3.8h85c1.8,0,3.4,0.8,4.6,2.1
		l12.7,15.2C772.2,464.9,771.2,467.1,769.2,467.1z"/>
	<path class="st5" d="M806.7,466.4c-0.7,0-1.3-0.3-1.7-0.8l-65-77.3c-1.2-1.4-0.2-3.6,1.7-3.6c0.7,0,1.3,0.3,1.7,0.8l65,77.3
		C809.6,464.2,808.6,466.4,806.7,466.4z"/>
	<path class="st5" d="M758.6,401.3h-9.3c-1.3,0-3.3-1.1-4.4-2.4l-3.4-4c-1.1-1.3-1-2.4,0.4-2.4h9.3c1.3,0,3.3,1.1,4.4,2.4l3.4,4
		C760.1,400.3,760,401.3,758.6,401.3z"/>
	<path class="st4" d="M759.3,399.2H750c-1.3,0-3.3-1.1-4.4-2.4l-3.4-4c-1.1-1.3-1-2.4,0.4-2.4h9.3c1.3,0,3.3,1.1,4.4,2.4l3.4,4
		C760.8,398.1,760.6,399.2,759.3,399.2z"/>
	<path class="st5" d="M852.8,421.4h-9.3c-1.3,0-3.3-1.1-4.4-2.4l-3.4-4c-1.1-1.3-0.9-2.4,0.4-2.4h9.3c1.3,0,3.3,1.1,4.4,2.4l3.4,4
		C854.3,420.3,854.1,421.4,852.8,421.4z"/>
	<path class="st4" d="M853.4,419.3h-9.3c-1.3,0-3.3-1.1-4.4-2.4l-3.4-4c-1.1-1.3-1-2.4,0.4-2.4h9.3c1.3,0,3.3,1.1,4.4,2.4l3.4,4
		C854.9,418.2,854.8,419.3,853.4,419.3z"/>
	<path class="st5" d="M845.8,466.4c-0.7,0-1.3-0.3-1.7-0.8l-65-77.3c-1.2-1.4-0.2-3.6,1.7-3.6c0.7,0,1.3,0.3,1.7,0.8l65,77.3
		C848.8,464.2,847.7,466.4,845.8,466.4z"/>
	<path class="st5" d="M836.6,447.6h-9.3c-1.3,0-3.3-1.1-4.4-2.4l-3.4-4c-1.1-1.3-0.9-2.4,0.4-2.4h9.3c1.3,0,3.3,1.1,4.4,2.4l3.4,4
		C838.1,446.5,837.9,447.6,836.6,447.6z"/>
	<path class="st4" d="M837.2,445.4h-9.3c-1.3,0-3.3-1.1-4.4-2.4l-3.4-4c-1.1-1.3-1-2.4,0.4-2.4h9.3c1.3,0,3.3,1.1,4.4,2.4l3.4,4
		C838.7,444.4,838.5,445.4,837.2,445.4z"/>
	<path class="st11" d="M946.7,564.5c0,0-5.4,16.6-24.5,31.2c-9.3,7.1-21.7,13.7-38.4,17.7c-51,12.3-91.9,7.9-94.9,8.4
		c-2.6,0.4,22.8,40.7,37.1,64.8c1.8,3,3.4,5.7,4.8,8.1c0.2,0.3,0.3,0.6,0.5,0.9c11.7,21,5.4,26.2,5.4,26.2
		c-11.8,1.5-28.1,14.8-28.1,14.8c-24.6,6.4-39.4-32-53.2-48.3s-49.3-64.6-33.5-90.7c15.8-26.1,156-59.7,156-59.7l14,5.4l26.4,10.2
		L946.7,564.5z"/>
	<path class="st12" d="M830.9,694.7c0.2,0.3,0.3,0.6,0.5,0.9C831.1,695.3,831,695,830.9,694.7z"/>
	<path class="st12" d="M931.9,582.2c-0.1,0.2-3.8,5.4-9.7,13.5c-9.3,7.1-21.7,13.7-38.4,17.7c-51,12.3-91.9,7.9-94.9,8.4
		c-2.6,0.4,22.8,40.7,37.1,64.8c-8.6-10.3-22.2-11.7-32.3-32.4c-12.3-25.1-41.4,1-46.7-19.8c-5.3-20.7,15.2-19.2,45.2-32.5
		c30.1-13.3,35-7.9,62.3-13.3c27.3-5.4,23-38.9,23-38.9l14.4-6.3l20-2.6c0,0,2.8,5.6,6.4,12.8C924.2,565.4,932.1,581.5,931.9,582.2z
		"/>
	<path class="st9" d="M843.8,731.8c0,0,14.2,11.9,14.5,20.9c0.3,9-29.9,39.5-29.9,39.5h-38.3c0,0-4.1-6.3,6.5-10.8
		c10.6-4.5,11.7-4.8,15.6-9c4-4.2,7.4-15.6,13.8-27.6C832.4,732.9,843.8,731.8,843.8,731.8z"/>
	<path class="st1" d="M857.9,267.3c0,0-9-5.5-12-11.7c-3-6.2-10.6-19.8-11-23c-0.5-3.2,6,0.2,9.7,6.7c0,0-2.5-6.9-7.1-15.9
		c-4.6-9-12-14.5-10.1-18.9c1.8-4.4,15.2,12.2,16.8,15c1.6,2.8,4.8-0.2,9,1.8c4.1,2.1,4.1-0.2,8.3,2.3c4.1,2.5,7.7,7.7,12,30.3
		L857.9,267.3z"/>
	<path class="st1" d="M752.2,439.6c0,0-4.9-1.7-13.1-9.6c-8.2-7.9-13.1-10.8-15.8-12c-2.7-1.2-7.1-2.6-11.7-2.3
		c-4.6,0.3-7-1.8-5.9-3.3c1.1-1.5,5.3-2.6,5.3-2.6s-8.4,0.8-6.2-3c2.1-3.8,14.1-2.3,14.1-2.3s2.3-2.9,5.5-2.9c3.2,0,2.9-2.6,9.3-1.8
		c6.4,0.8,9.7,4.6,16.4,6.1s12.2,15.4,12.2,15.4L752.2,439.6z"/>
	<path class="st19" d="M762.2,419.7c0,0-10.7,9.5-14,19.5l-1.2,3l6.2,8.7l14.5-27.6L762.2,419.7z"/>
	<path class="st19" d="M856.7,275.9l-5.2-8.1c0,0,10.1-11.8,23.2-15.3l3.2,5.7L856.7,275.9z"/>
	<path class="st20" d="M1011.6,380.9l-39.3,20.9l-5.8,3.1c0,0-2.1-1-5.5-2.8c-11.1-5.9-36.4-19.6-49.3-30.7
		c-6-5.1-15.8-17.5-26.1-31.2c-18.6-24.9-38.5-54.5-38.5-54.5c14.3-22.2,30.8-29.6,30.8-29.6s44.5,62.6,51.4,68.5
		c4,3.5,31.5,22.2,53.5,37.1C998.6,372.2,1011.6,380.9,1011.6,380.9z"/>
	<path class="st21" d="M1011.6,380.9l-39.3,20.9c-3.5,0.1-7.3,0.2-11.3,0.3c-11.1-5.9-36.4-19.6-49.3-30.7
		c-6-5.1-15.8-17.5-26.1-31.2c8.2,4.3,16.2,8,20.9,12c10.2,8.8,7.2-2,52.6,4.3c9,1.2,16.9,3.1,23.8,5.2
		C998.6,372.2,1011.6,380.9,1011.6,380.9z"/>
	<path class="st1" d="M980.2,374.6c0,0-34,20.9-34.1,7.7c0-4.4-0.8-8.2-1.9-11.3c-2.1-6.2-5.1-9.6-5.1-9.6s0,0,0,0
		c-12.1,12.9-17.6,8.8-19,6.4c-1.5-2.5-11.5-23.2-10-30.1c1.5-6.9,1.2-11-1-15.3c-2.1-4.3,1-14.6,1-14.6l28.9-6.1
		c0,0,26.8,27.3,29.1,36.5C970.4,347.5,980.2,374.6,980.2,374.6z"/>
	<path class="st20" d="M1018.7,464c-8.9,26.6-57.1,115.5-82.4,118.1c-10.3,1-23.6-5.7-35.7-14c-17.6-12.1-32.7-27.6-32.7-27.6
		c22.2-15.7,19.2-65.3,19.2-65.3s0,0,0,0c-0.5,0.4-31.7,26.3-52.6,28.8c-21.1,2.5-89.3-44.9-89.3-44.9s15.3-38.5,22.7-37
		c7.4,1.5,56.2,33,64.6,33.5c8.4,0.5,55.7-41.9,67.5-53.7c11.8-11.8,58.2-30.1,90.7-30.6c0,0,21.2,3.5,28.6,19.2
		C1026.6,406.3,1027.6,437.4,1018.7,464z"/>
	<path class="st9" d="M924.2,278.6c-15.4,1.9-30.1,13.3-25.4,24.8c4.7,11.5,14,12.8,19.9,12.9c5.9,0.1,7.9,3.6,10,6.8
		c2.1,3.2,3,1.2,5.6-4c2.6-5.2,8.6-1.5,8.7,5.5s-1.1,24,11.5,24.3s15-4.9,15.4-4.9c0.5,0,10.7-20.9,9.9-39.3c0,0,13-6.7,10.5-17.4
		c-2.4-10.7-16.5-12.8-24.9-4.2c0,0-7,0.4-13.6-4c-6.6-4.4-15.4-6.6-19.6-4C928.1,277.7,928,278.2,924.2,278.6z"/>
	<path class="st22" d="M935.2,631.1H922v150h13.2V631.1z"/>
	<path class="st23" d="M935.2,781.1h-6.6v-150l6.6-0.4V781.1z"/>
	<path class="st23" d="M980.8,792.2H876.3c0-3.1,1.2-5.8,3.2-7.8s4.8-3.2,7.8-3.2h82.3C975.9,781.1,980.8,786.1,980.8,792.2z"/>
	<path class="st22" d="M947.5,792.2h-71.2c0-3.1,1.2-5.8,3.2-7.8s4.8-3.2,7.8-3.2h41.2L947.5,792.2z"/>
	<path class="st24" d="M1058.3,473.7c-0.9,0.4-1.9,0.9-2.8,1.4c-0.3,0.2-0.6,0.3-0.9,0.5c-0.3,0.2-0.6,0.3-0.8,0.5
		c-0.3,0.2-0.6,0.3-0.8,0.5c-0.3,0.2-0.5,0.3-0.8,0.5c-0.3,0.2-0.6,0.4-0.9,0.6c-0.3,0.2-0.5,0.4-0.8,0.6c-0.3,0.2-0.5,0.4-0.8,0.6
		c-0.9,0.7-1.8,1.3-2.6,2.1c-0.3,0.3-0.6,0.5-0.9,0.8c-1.1,0.9-2.1,1.9-3.1,3l0,0c-0.4,0.4-0.8,0.9-1.2,1.3
		c-0.1,0.1-0.1,0.1-0.2,0.2c-0.4,0.4-0.8,0.9-1.2,1.3c-0.4,0.5-0.8,1-1.3,1.5c0,0-0.1,0.1-0.1,0.1c-0.4,0.5-0.8,1-1.1,1.4
		c-0.4,0.5-0.8,1-1.2,1.6c0,0,0,0.1-0.1,0.1c-0.4,0.5-0.7,1-1.1,1.6c-0.4,0.5-0.8,1.1-1.1,1.7c0,0,0,0,0,0c-0.3,0.5-0.6,1-0.9,1.5
		c-0.1,0.1-0.2,0.3-0.3,0.4c-0.1,0.1-0.2,0.2-0.2,0.4c-0.6,1-1.1,1.9-1.7,2.9c-0.7,1.2-1.3,2.4-2,3.6c-0.3,0.6-0.6,1.2-0.9,1.9
		c-0.3,0.6-0.6,1.3-0.9,1.9c-0.6,1.3-1.2,2.6-1.7,3.9c-0.3,0.6-0.6,1.3-0.8,2c-0.3,0.7-0.6,1.3-0.8,2c-0.2,0.6-0.4,1.1-0.7,1.7
		c-0.3,0.8-0.6,1.5-0.9,2.3c-0.3,0.7-0.5,1.3-0.8,2c0,0.1-0.1,0.2-0.1,0.2c-0.2,0.6-0.4,1.2-0.6,1.8c-0.5,1.4-1,2.8-1.4,4.2
		c-0.2,0.7-0.4,1.3-0.6,2c-0.2,0.7-0.4,1.4-0.7,2.1c-0.4,1.3-0.8,2.6-1.2,4c0,0.1,0,0.2-0.1,0.2c-0.2,0.7-0.4,1.4-0.6,2.1
		c0,0,0,0,0,0c-0.2,0.7-0.4,1.4-0.6,2.1c-0.3,0.9-0.5,1.8-0.7,2.7c-0.1,0.5-0.3,1-0.4,1.5c-0.1,0.3-0.2,0.6-0.2,0.9
		c-0.5,1.8-1,3.6-1.5,5.5c-0.5,1.8-0.9,3.5-1.4,5.3c-0.2,0.7-0.4,1.5-0.6,2.2c-0.6,2.3-1.2,4.6-1.8,6.9c-0.2,0.7-0.3,1.3-0.5,2
		c-0.3,1.2-0.6,2.4-1,3.6c-0.2,0.7-0.4,1.5-0.6,2.2c-0.7,2.6-1.4,5.1-2.2,7.5c-0.2,0.5-0.3,1.1-0.5,1.6c-0.1,0.4-0.2,0.8-0.4,1.2
		c-0.1,0.3-0.2,0.7-0.3,1c-0.3,1.1-0.7,2.1-1.1,3.1c-0.4,1.1-0.8,2.2-1.2,3.2c0,0.1,0,0.1-0.1,0.2c-0.2,0.5-0.4,0.9-0.5,1.4
		c-0.2,0.4-0.3,0.8-0.5,1.2c0,0.1-0.1,0.2-0.1,0.3c-0.2,0.5-0.4,0.9-0.6,1.3c0,0,0,0.1-0.1,0.1c-0.2,0.5-0.4,1-0.6,1.4
		s-0.4,0.9-0.7,1.4c-0.2,0.3-0.3,0.7-0.5,1c-0.1,0.2-0.2,0.3-0.2,0.4c-0.2,0.4-0.4,0.8-0.6,1.1c-0.1,0.2-0.2,0.4-0.3,0.5
		c-0.1,0.2-0.3,0.5-0.4,0.7c-18.5,30.2-71.2,29.1-71.2,29.1h-77.4c-18.2,0-18.5-18.5,2.2-20c20.7-1.5,61.1-25.4,79.2-78.1
		c8.8-25.5,19.1-40.8,27.3-49.6c7-7.6,16.9-11.8,27.2-11.8h74C1059,471.6,1059.4,473.2,1058.3,473.7z"/>
	<path class="st25" d="M1055.5,475.1c-0.3,0.2-0.6,0.3-0.9,0.5c-0.3,0.2-0.6,0.3-0.8,0.5c-0.3,0.2-0.6,0.3-0.8,0.5
		c-0.3,0.2-0.5,0.3-0.8,0.5c-0.3,0.2-0.6,0.4-0.9,0.6c-0.3,0.2-0.5,0.4-0.8,0.6c-0.3,0.2-0.5,0.4-0.8,0.6c-0.9,0.7-1.8,1.3-2.6,2.1
		c-0.3,0.3-0.6,0.5-0.9,0.8c-1.1,0.9-2.1,1.9-3.1,3l0,0c-0.4,0.4-0.8,0.9-1.2,1.3c-0.1,0.1-0.1,0.1-0.2,0.2
		c-0.4,0.4-0.8,0.9-1.2,1.3c-0.4,0.5-0.8,1-1.3,1.5c0,0-0.1,0.1-0.1,0.1c-0.4,0.5-0.8,1-1.1,1.4c-0.4,0.5-0.8,1-1.2,1.6
		c0,0,0,0.1-0.1,0.1c-0.4,0.5-0.7,1-1.1,1.6c-0.4,0.6-0.7,1.1-1.1,1.7c0,0,0,0,0,0c-0.3,0.5-0.6,1-0.9,1.5c-0.1,0.1-0.2,0.3-0.3,0.4
		c-0.1,0.1-0.2,0.2-0.2,0.4h0c-0.6,0.9-1.1,1.9-1.7,2.9c-0.7,1.2-1.3,2.4-2,3.6c-0.3,0.6-0.6,1.2-0.9,1.9c-0.3,0.6-0.6,1.3-0.9,1.9
		c-0.6,1.3-1.2,2.6-1.7,3.9c-0.3,0.6-0.6,1.3-0.8,2c-0.3,0.7-0.6,1.3-0.8,2c-0.2,0.6-0.4,1.1-0.7,1.7c-0.3,0.8-0.6,1.5-0.9,2.3
		c-0.2,0.7-0.5,1.3-0.8,2c0,0.1-0.1,0.2-0.1,0.2c-0.2,0.6-0.4,1.2-0.6,1.8c-0.5,1.4-1,2.8-1.4,4.2c-0.2,0.7-0.4,1.3-0.6,2
		c-0.2,0.7-0.4,1.4-0.6,2.1c-0.4,1.3-0.8,2.7-1.2,4c0,0.1,0,0.2-0.1,0.2c-0.2,0.7-0.4,1.4-0.6,2.1c0,0,0,0,0,0
		c-0.2,0.7-0.4,1.4-0.6,2.1c-0.3,0.9-0.5,1.8-0.7,2.7c-0.1,0.5-0.3,1-0.4,1.5c-0.1,0.3-0.2,0.6-0.2,0.9c-0.5,1.8-1,3.6-1.5,5.5
		c-0.5,1.8-0.9,3.5-1.4,5.3c-0.2,0.7-0.4,1.5-0.6,2.2c-0.6,2.3-1.2,4.6-1.8,6.9c-0.2,0.7-0.3,1.3-0.5,2c-0.3,1.2-0.6,2.4-1,3.6
		c-0.2,0.7-0.4,1.5-0.6,2.2c-0.7,2.6-1.4,5.1-2.2,7.5c-0.2,0.6-0.3,1.1-0.5,1.6c-0.1,0.4-0.2,0.8-0.4,1.2c-0.1,0.3-0.2,0.7-0.3,1
		c-0.3,1.1-0.7,2.1-1.1,3.1c-0.4,1.1-0.8,2.2-1.2,3.2c0,0.1,0,0.1-0.1,0.2c-0.2,0.5-0.4,0.9-0.5,1.4c-0.2,0.4-0.3,0.8-0.5,1.2
		c0,0.1-0.1,0.2-0.1,0.3c-0.2,0.5-0.4,0.9-0.6,1.3c0,0,0,0.1-0.1,0.1c-0.2,0.5-0.4,1-0.6,1.4c-0.2,0.5-0.4,0.9-0.7,1.4
		c-0.2,0.3-0.3,0.7-0.5,1c-0.1,0.2-0.2,0.3-0.2,0.4c-0.2,0.4-0.4,0.8-0.6,1.1c-0.2,0.4-0.5,0.8-0.7,1.2
		c-18.5,30.2-71.2,29.1-71.2,29.1h-72.5c-5.2-4-2.7-10.2,11.1-11.2c20.7-1.5,65.5-30.7,83.6-83.4c8.8-25.5,19.1-40.8,27.3-49.6
		c7-7.6,16.9-11.8,27.2-11.8H1055.5L1055.5,475.1z"/>
	<path class="st24" d="M1033.1,497.8c-0.6,0.9-1.1,1.9-1.7,2.9c-0.7,1.2-1.3,2.4-1.9,3.6c-0.3,0.6-0.6,1.2-0.9,1.9
		c-0.3,0.6-0.6,1.3-0.9,1.9c-0.6,1.3-1.2,2.6-1.7,3.9c-0.3,0.6-0.6,1.3-0.8,2c-0.3,0.7-0.6,1.3-0.8,2c-0.2,0.6-0.4,1.1-0.7,1.7
		c-0.3,0.8-0.6,1.5-0.9,2.3c-0.2,0.7-0.5,1.3-0.8,2c0,0.1,0,0.2-0.1,0.2c-0.2,0.6-0.4,1.2-0.6,1.8c-0.5,1.4-1,2.8-1.4,4.2
		c-0.2,0.7-0.4,1.3-0.6,2c-0.2,0.7-0.4,1.4-0.7,2.1c-0.4,1.3-0.8,2.7-1.2,4c0,0.1,0,0.2-0.1,0.2c-0.2,0.7-0.4,1.4-0.6,2.1
		c0,0,0,0,0,0c-0.2,0.7-0.4,1.4-0.6,2.1c-0.3,0.9-0.5,1.8-0.7,2.7c-0.1,0.5-0.3,1-0.4,1.5c-0.1,0.3-0.1,0.6-0.2,0.9
		c-0.5,1.8-1,3.6-1.5,5.5c-0.5,1.8-0.9,3.5-1.4,5.3c-0.2,0.7-0.4,1.5-0.6,2.2c-0.6,2.3-1.2,4.6-1.8,6.9c-0.2,0.7-0.3,1.3-0.5,2
		c-0.3,1.2-0.6,2.4-0.9,3.6c-0.2,0.7-0.4,1.5-0.6,2.2c-0.7,2.6-1.4,5.1-2.2,7.5c-0.2,0.5-0.3,1.1-0.5,1.6c-0.1,0.4-0.2,0.8-0.4,1.2
		c-0.1,0.3-0.2,0.7-0.3,1c-0.3,1.1-0.7,2.1-1.1,3.1c-0.4,1.1-0.8,2.2-1.2,3.2c0,0.1,0,0.1-0.1,0.2c-0.2,0.5-0.4,0.9-0.6,1.4
		c-0.2,0.4-0.3,0.8-0.5,1.2c0,0.1-0.1,0.2-0.1,0.3c-0.2,0.5-0.4,0.9-0.6,1.3c0,0,0,0.1-0.1,0.1c-0.2,0.5-0.4,1-0.6,1.4
		s-0.4,0.9-0.7,1.4c-0.2,0.3-0.3,0.7-0.5,1c-0.1,0.2-0.2,0.3-0.2,0.4c-0.2,0.4-0.4,0.8-0.6,1.1c-0.1,0.2-0.2,0.4-0.3,0.5
		c-0.1,0.2-0.3,0.5-0.4,0.7c-18.5,30.2-71.2,29.1-71.2,29.1h-25.5c2.7-0.2,52.2-2.5,69.8-76.5C981.6,504.6,1014,501.7,1033.1,497.8z
		"/>
	<path class="st4" d="M499.6,630.4v-50.7c0-15.8-12.8-28.6-28.6-28.6h-36.2v240.9h46.3h18.4h57.2V687.6c0-15.8-12.8-28.6-28.6-28.6
		C512.4,659,499.6,646.2,499.6,630.4z"/>
	<path class="st26" d="M491.9,730.9c-11-21-24.3-36.1-46-53.1c-21.6-17-50-17.1-61.5-22.5c-11.6-5.5-11.9,9.7-8.3,23.9
		c3.6,14.2-7.3,79.9,58.4,100.7C500.2,800.8,500,746.4,491.9,730.9z"/>
	<path class="st27" d="M450.4,745.1c-0.5,0-0.9-0.4-1-0.9c-3.2-23.2,8.4-46.2,8.5-46.4c0.2-0.5,0.8-0.7,1.3-0.4
		c0.5,0.2,0.7,0.8,0.4,1.3c-0.1,0.2-11.3,22.6-8.3,45.2c0.1,0.5-0.3,1-0.8,1.1C450.5,745.1,450.4,745.1,450.4,745.1z"/>
	<path class="st27" d="M450.5,747.7c-0.2,0-0.3,0-0.5-0.1c-19.6-10.3-53.6-6.6-54-6.6c-0.5,0.1-1-0.3-1.1-0.9
		c-0.1-0.5,0.3-1,0.9-1.1c1.4-0.2,35-3.8,55.1,6.8c0.5,0.2,0.7,0.9,0.4,1.3C451.2,747.5,450.9,747.7,450.5,747.7z"/>
	<path class="st27" d="M456.7,766.6c-0.4,0-0.9-0.3-1-0.8c-14.1-58.3-70-99.5-70.6-99.9c-0.4-0.3-0.5-0.9-0.2-1.4
		c0.3-0.4,0.9-0.5,1.4-0.2c0.6,0.4,57.1,42,71.4,101c0.1,0.5-0.2,1.1-0.7,1.2C456.9,766.5,456.8,766.6,456.7,766.6z"/>
	<path class="st27" d="M430.3,711.9c-0.2,0-0.4-0.1-0.6-0.2c-12.8-10.2-43.6-7.6-43.9-7.5c-0.6,0.1-1-0.4-1.1-0.9
		c-0.1-0.5,0.3-1,0.9-1.1c1.3-0.1,32-2.8,45.4,7.9c0.4,0.3,0.5,1,0.2,1.4C430.9,711.8,430.6,711.9,430.3,711.9z"/>
	<path class="st27" d="M420,698.9c-0.4,0-0.7-0.2-0.9-0.6c-4-9.5-1.9-25.6-1.8-26.3c0.1-0.5,0.6-0.9,1.1-0.8
		c0.5,0.1,0.9,0.6,0.8,1.1c0,0.2-2.1,16.2,1.7,25.3c0.2,0.5,0,1.1-0.5,1.3C420.3,698.9,420.2,698.9,420,698.9z"/>
	<path class="st9" d="M1432.2,376.5c-1,1.3-2.2,2.3-3.5,3c-10.7,5.9-29.8-6.9-38.5-6.5c-9.8,0.5-14.5,13.3-37.6,4.2
		c-23.1-9.1-17.7-45-16.3-58.6c1.4-13.5-7-20.3-21.5-19.8c-14.5,0.5-29.7-7.5-23.1-30.3c6.6-22.9-12-34.8-23-30.8
		c-11.1,4.1-5.1-15.4-5.1-15.4s9.5-13.5,28.2-11.5c5.9,0.6,10.1,2.5,13.3,5.2c0,0,0,0,0,0c0.7,0.6,1.4,1.3,2.1,2c0,0,0,0,0,0.1
		c5.4,5.9,7.5,14.1,10.9,20.3c5.6,10.3,14.9,9.6,29.4,5.1c14.5-4.4,43.6-2.4,49.9,21.8c6.3,24.2-10.5,52.4,19.6,59.4
		C1447.1,331.7,1441.5,364.4,1432.2,376.5z"/>
	<path class="st6" d="M1264.6,220.4c0,0,8.7,5.8,7.7,17.4c0,0,0,3.4-3.8,1.6c-3.8-1.7-7-14.4-6.6-17.1
		C1262.3,219.7,1263.7,220.1,1264.6,220.4z"/>
	<path class="st9" d="M1260.9,272.5c-13.4,11.7-19.9,10.8-23.8,5.1c-1.5-2.1-5.5-7.4-10-13.2c-7.6-9.7-16.4-20.9-16.4-20.9
		s-14-0.9-14.3-11.7c-0.1-2.1,0.3-4.1,1.2-6.2c3.5-8.5,14.4-15.9,29.6-17.1c18.8-1.6,35.9,7.8,40.9,20.8
		C1273.1,242.5,1274.3,260.8,1260.9,272.5z"/>
	<g class="st28">
		<path class="st29" d="M1227.1,264.4c-7.6-9.7-16.4-20.9-16.4-20.9s-14-0.9-14.3-11.7c-0.1-2.1,0.3-4.1,1.2-6.2
			c2.8-4.4,8-8.1,17.8-6.9c21,2.6,11.2,37.7,16.4,41.4C1233.7,261.6,1231.2,263.1,1227.1,264.4z"/>
	</g>
	<path class="st30" d="M1152.7,480.3c0,0-7.4,2.2-11.1,4.9c-3.7,2.8-12.5,7-12.7,8.5c-0.2,1.4,7.5-0.8,10.5-2c3-1.2,2.5,1.7-1.2,5.2
		c-3.7,3.5-5.2,5.1-9.5,8.4c-4.3,3.3-4.8,4.8-3.2,5.3c1.7,0.6,3.2-0.5,3.2-0.5s-3.9,2.9-2.3,4.6s6.3-1.8,6.3-1.8s-1.3,2.4,1.9,2.3
		c3.3-0.1,4.4-1.5,8.2-2.7c3.8-1.1,15.5-13.4,18.2-17.6c2.7-4.3,4.1-8,4.1-8L1152.7,480.3z"/>
	<path class="st31" d="M1232.8,379.5c0,0,7.1,35.5-10.3,55.4c-17.4,19.9-57,56.3-57,56.3l-14.6-11.4c0,0,35.7-47.2,40.6-65.4
		c1.1-3.9,2-11.3,2-11.3L1232.8,379.5z"/>
	<path class="st30" d="M1182.4,475.1c0,0-1.1-4.1,0.5-7.7c1.6-3.6,9.4,7.2,9.4,7.2l2.1,9L1182.4,475.1z"/>
	<path class="st12" d="M1375,719.1c6.7,7.2,20.8,34.2,20.8,34.2l-10.5,7.6c0,0-12-18-14.5-16.9c-2.5,1.1,0,27.5-3.4,29.9
		c-3.3,2.4-25.5,18.5-25.5,18.5s-0.9-9.3,3.4-17.9c3.8-7.6,7.8-23.3-2.2-46.9c-1.3-3.1-2.8-6.3-4.6-9.6l23-21.4
		c0,0,2.8,6.4,6.6,12.8C1370.2,712.9,1372.6,716.5,1375,719.1z"/>
	<path class="st1" d="M1338.5,717.9l23-21.4c0,0,2.8,6.4,6.6,12.8l-25,18.2C1341.8,724.5,1340.3,721.3,1338.5,717.9z"/>
	<path class="st32" d="M1380.1,691.4l-51,34.8c0,0-26.7-32.8-50.3-63c-15.8-20.1-30.2-39.1-34.4-46.3c-8.5-14.6-20.7-72.2-25.1-93.8
		c-1-5.1-1.6-8.2-1.6-8.2l6.2-17.5l12.1-34.1l0.9-2.5c0,0,8.8-4.5,18.5-6.9c2.6-0.6,5.3-1.1,7.8-1.4c8-0.7,15.2,1.2,17.5,9.3
		c0.1,0.5,0.2,1,0.3,1.5c0.4,2.4,0.9,5.5,1.5,9.1c4.4,30.6,10.6,98.1,12.5,105.7C1297.2,586.6,1380.1,691.4,1380.1,691.4z"/>
	<path class="st33" d="M1278.8,663.2c-15.8-20.1-30.2-39.1-34.4-46.3c-8.5-14.6-20.7-72.2-25.1-93.8c1.2-4.8,2.1-8,2.6-8.7
		c2.6-3.9,60.7-42,60.7-42s2.4,34.1-9.1,55.8c-11.5,21.7-21.4,37.7-12.2,61.1c9.2,23.4-10.5,36.9,5.3,50
		C1275.6,646.9,1278.2,656.5,1278.8,663.2z"/>
	<path class="st12" d="M1180.1,752.5c1.2,9.7-3.2,39.9-3.2,39.9h-13c0,0,0.9-21.6-1.8-22.2c-2.6-0.6-16.2,22.2-20.3,22.2
		c-4.1,0-31.5,0-31.5,0s4.7-8.1,13.2-12.5c7.5-3.9,19.9-14.3,25.8-39.3c0.8-3.2,1.4-6.7,1.9-10.5l31.2-3.8c0,0-1.5,6.8-2.2,14.3
		C1179.8,744.7,1179.6,749,1180.1,752.5z"/>
	<path class="st1" d="M1151.2,730.1l31.2-3.8c0,0-1.5,6.8-2.2,14.3h-30.9C1150.1,737.3,1150.7,733.8,1151.2,730.1z"/>
	<path class="st32" d="M1209.5,446.5c0,0-44.8,105.1-57.8,148.7c-13.1,43.5-33,137.5-33,137.5h68.4c0,0,26.7-127.5,38.6-148.1
		c11.8-20.5,56-95.2,49.1-121.9C1267.9,435.9,1209.5,446.5,1209.5,446.5z"/>
	<path class="st33" d="M1282.5,472.4l-20.8,53.9l-67.3-42.7l41.5-20.2l19.4-9.5l5.4-2.7l2.4,1.3l17.5,9.3c0.1,0.5,0.2,1,0.3,1.5
		C1281.5,465.7,1282,468.8,1282.5,472.4z"/>
	<path class="st8" d="M1247.4,304.7c0,0-16.2,6.8-29.9,25.5c-13.7,18.7-29.9,53.4-31.1,60c-1.2,6.6,10.7,59,10.6,72.5
		c0,13.5,63.7,8.5,81.7-0.2c0,0-7.1-49.6-7.1-56.4s0.6-52.9-3.1-74C1264.8,310.9,1247.4,304.7,1247.4,304.7z"/>
	<path class="st31" d="M1243.6,353.5c0,0-2.6,17,0,29.8c2.6,12.8-17.4,5-24.4,31.1c-6.9,26.1,52.4,13.4,52.4,13.4
		s16.3-25.1,16.5-29.4C1288.2,394.2,1243.6,353.5,1243.6,353.5z"/>
	<path class="st30" d="M1247.4,304.7c0,0-31.3,32.1-28.5,23.7c1.5-4.7-1.1-15.8-3.8-24.9c-2.2-7.4-4.4-13.4-4.4-13.4
		s6-6.1,12.3-11.3c6.7-5.5,13.6-10,14.1-5.2C1238,283.1,1247.4,304.7,1247.4,304.7z"/>
	<path class="st6" d="M1166.5,369.4l-35.2,75.9l130.9,60.8l35.2-75.9L1166.5,369.4z"/>
	<path class="st7" d="M1170.7,381l-27.9,60l115.1,53.4l27.9-60L1170.7,381z"/>
	<path class="st6" d="M1154.7,447.6l47.2-33.2l5.1,57.5L1154.7,447.6z"/>
	<path class="st6" d="M1204.6,470.9l36.5-25.7l4,44.5L1204.6,470.9z"/>
	<path class="st6" d="M1232.9,428.2c2.1-4.2,0.5-9.4-3.8-11.5c-4.2-2.1-9.4-0.5-11.5,3.8c-2.1,4.2-0.5,9.4,3.8,11.5
		C1225.6,434.2,1230.8,432.5,1232.9,428.2z"/>
	<path class="st30" d="M1206.7,458.6c0,0-6.1,0.9-10.4,2c-4.3,1.1-12.8,0.5-13.8,2.5c-1,2,9.5,3.7,12.1,3.9c2.6,0.2-4,3.8-7.7,4.9
		c-3.7,1-6.6,2.5-2.8,5.9c3.8,3.4,9.7,8.6,12.2,9c2.5,0.4,14.5-8.7,21.1-15.5S1206.7,458.6,1206.7,458.6z"/>
	<path class="st8" d="M1248,316.2c-11.7,9-7.2,32-1.2,47c5.9,14.9,22.7,42.3,21.5,44.8c-1.2,2.5-63.5,49.7-63.5,49.7l12.8,16.1
		c0,0,59.1-29.7,73.7-40.3c14.6-10.6,15.8-22.1,11.5-37C1298.4,381.5,1273.2,296.9,1248,316.2z"/>
	<path class="st33" d="M1162.8,732.9l-2.9-0.5c0.9-5.4,23.1-131.7,26.9-143.6c3.9-11.8,34.3-88.7,35.6-92l2.8,1.1
		c-0.3,0.8-31.7,80.1-35.6,91.8C1185.8,601.4,1163,731.6,1162.8,732.9z"/>
	<path class="st33" d="M1357.6,706.8c-0.5-0.6-46.6-58.4-70.7-88.3c-24.4-30.2-33.4-72.5-33.5-72.9l2.9-0.6
		c0.1,0.4,9,42.1,32.9,71.7c24.2,29.9,70.3,87.7,70.7,88.3L1357.6,706.8z"/>
	<g class="st28">
		<path class="st29" d="M1432.2,376.5c-1,1.3-2.2,2.3-3.5,3c10.4-12.3,2.8-28.7-23.9-28.4c-26.6,0.3-33.8-22.7-18.1-60.8
			s-24-41.1-40.8-32.5c-16.8,8.5-33.9,0.7-33.2-17.8c0.5-12.4-3.2-18.9-5.7-21.9c5.4,5.9,7.5,14.1,10.9,20.3
			c5.6,10.3,14.9,9.6,29.4,5.1c14.5-4.4,43.6-2.4,49.9,21.8c6.3,24.2-10.5,52.4,19.6,59.4C1447.1,331.7,1441.5,364.4,1432.2,376.5z"
			/>
	</g>
	<path class="st1" d="M1231.9,277.3c0,0-4.7,17.2-16.8,26.2c-2.2-7.4-4.4-13.5-4.4-13.5s6-6.1,12.3-11.3L1231.9,277.3z"/>
	<path class="st30" d="M1211.7,232.8c0,0-8.4,20.8-16.3,24.9c-7.9,4-2.6,5,0,9.5c2.7,4.5-7.5,18.5,1.2,24.9
		c8.7,6.4,28.9-4,35.3-14.8c0,0,11,0.5,13.7-7.9c2.6-8.4-5.9-13.7-10.9-10c-5,3.7-5.6-4-7.8-15.7
		C1224.7,232.1,1212.7,230.4,1211.7,232.8z"/>
	<path class="st13" d="M320,791.8c-1.9-19.7,16-49.3,73.2-30.1c0,0,14.5-45.2,54.2-43.7c39.8,1.5,52.4,38.7,52.4,38.7
		s53.4-6.5,61.1,38.7C560.9,795.5,322.7,820.2,320,791.8z"/>
	<path class="st14" d="M438.8,795.2l-1.9-0.3c5.2-32-14.7-55-14.9-55.2l1.5-1.3C423.6,738.6,444.1,762.3,438.8,795.2z"/>
	<path class="st14" d="M439.4,775.6l-1.5-1.3c0.2-0.2,18.3-21.9,21.4-35.5l1.9,0.4C458.1,753.3,440.2,774.7,439.4,775.6z"/>
	<path class="st14" d="M438.6,787c-14.2-0.8-26.7-15.4-27.2-16l1.5-1.3c0.1,0.2,12.5,14.6,25.8,15.3L438.6,787z"/>
	<path class="st14" d="M483.3,796.2l-1.3-1.5c1-0.9,25.2-21.7,37.8-22l0.1,2C508,775,483.5,796,483.3,796.2z"/>
	<path class="st14" d="M530.6,792.2c-0.2,0-19.5-1.2-35.1-5.2l0.5-1.9c15.4,4,34.5,5.1,34.7,5.2L530.6,792.2z"/>
	<path class="st14" d="M386.9,795.1c-12.7-10.6-39.6-19.1-39.9-19.2l0.6-1.9c1.1,0.3,27.5,8.7,40.6,19.5L386.9,795.1z"/>
	<path class="st14" d="M376.9,786.9l-2-0.1c0.3-10.8-4.4-19.2-4.4-19.3l1.7-1C372.5,766.9,377.3,775.5,376.9,786.9z"/>
	<path class="st0" d="M953.1,150.3l-347,5.9l-6.9-5.9v-114h353.9l6.9,5.9L953.1,150.3z"/>
	<path class="st0" d="M953.1,25.6l-347,5.9l-6.9-5.9V0h353.9l6.9,5.9L953.1,25.6z"/>
	<path class="st4" d="M960,42.1H606v114H960V42.1z"/>
	<path class="st3" d="M960,5.9H606v25.6H960V5.9z"/>
	<path class="st20" d="M673.8,23.5c2.6,0,4.8-2.1,4.8-4.8c0-2.6-2.1-4.8-4.8-4.8s-4.8,2.1-4.8,4.8C669,21.4,671.1,23.5,673.8,23.5z"
		/>
	<path class="st17" d="M656,18.7c0,2.6-2.1,4.8-4.8,4.8c-2.6,0-4.8-2.1-4.8-4.8c0-2.6,2.1-4.8,4.8-4.8C653.9,13.9,656,16.1,656,18.7
		z"/>
	<path class="st34" d="M628.7,23.5c2.6,0,4.8-2.1,4.8-4.8c0-2.6-2.1-4.8-4.8-4.8c-2.6,0-4.8,2.1-4.8,4.8
		C623.9,21.4,626,23.5,628.7,23.5z"/>
	<path class="st31" d="M1246.1,300.7c0,0-10.7,12.1-27.4,18.8l-2.2,12.4c0,0,15.6-4.8,31-27.1L1246.1,300.7z"/>
	<path class="st10" d="M837.2,792.2h-18.7c0,0,15.1-7.6,20-23.1c3.6-11.2,9.4-21.9,16.6-19.3c7.2,2.7,1.3,15-2.6,21.9
		C847.1,781.7,837.2,792.2,837.2,792.2z"/>
	<path class="st6" d="M473.5,551.2h-3V431.4c0-10.2,8.3-18.5,18.5-18.5h12.2v3H489c-8.6,0-15.5,7-15.5,15.5V551.2z"/>
	<path class="st6" d="M485.5,552.4h-3V432.6c0-4.7,3.9-8.6,8.6-8.6h21.5v3h-21.5c-3.1,0-5.6,2.5-5.6,5.6V552.4z"/>
	<path class="st21" d="M899.8,564.5c0.4,1.2,0.7,2.4,0.7,3.6c-17.6-12.1-32.7-27.6-32.7-27.6c22.2-15.7,19.2-65.3,19.2-65.3
		s25-21.9,28.5-16.6c3.5,5.3-8.9,35.6,0,48C924.4,519,892.5,544.3,899.8,564.5z"/>
	<path class="st2" d="M944.3,371c-2.1-6.2-5.1-9.6-5.1-9.6s4.5-5.6,5.1-12.5C944.3,349,950.3,362.8,944.3,371z"/>
	<path class="st7" d="M839.8,172H728.9v7.2h110.9V172z"/>
	<path class="st7" d="M839.8,193.2H728.9v7.2h110.9V193.2z"/>
	<path class="st7" d="M790.2,214.2h-61.4v7.2h61.4V214.2z"/>
	<path class="st17" d="M425.5,478.3h-78.9v41.4h78.9V478.3z"/>
	<path class="st35" d="M353.9,566h-98v45h98V566z"/>
	<path class="st0" d="M485.1,619.8c0,2.6-2.1,4.7-4.7,4.7s-4.7-2.1-4.7-4.7c0-2.6,2.1-4.7,4.7-4.7
		C483,615.1,485.1,617.2,485.1,619.8z"/>
	<path class="st0" d="M480.4,602.4c2.6,0,4.7-2.1,4.7-4.7c0-2.6-2.1-4.7-4.7-4.7c-2.6,0-4.7,2.1-4.7,4.7
		C475.7,600.3,477.8,602.4,480.4,602.4z"/>
	<path class="st0" d="M480.4,580.3c2.6,0,4.7-2.1,4.7-4.7c0-2.6-2.1-4.7-4.7-4.7c-2.6,0-4.7,2.1-4.7,4.7
		C475.7,578.2,477.8,580.3,480.4,580.3z"/>
	<path class="st3" d="M214,689.5h-201c0,0,13.8-30.9,45.7-18.1c0,0,11.7-31.9,39.4-28.2c27.7,3.7,33,23,33,23s29.8-11.8,58.5,12.1
		C189.5,678.3,212.9,675.7,214,689.5z"/>
	<path class="st19" d="M944.3,380c0,0,0.7-4.1,4.3-6.6c3.6-2.5,27-12.8,33.3-1.6L944.3,380z"/>
	<g>
		<path class="st9" d="M148,277.1l-14.2-2.2c0,0-7.6-3.2-11-12.2c-3.4-9-14.4-17-12.2-29.2c2.2-12.2,14.8-12.6,14.8-12.6
			c7.8-46,43.4-43,51.8-30.4c8.4,12.6-6.4,28.2-6.4,28.2l-8,19L148,277.1z"/>
		<path class="st1" d="M76.6,493.3H64.3c0,0-1.1,29.8,1.3,34.4c2.4,4.6,9.1,15.8,11.7,15.6c2.6-0.2,0.3-8.8,0.3-13.6
			c0-4.8,0.4-18,3.2-14.4c2.8,3.6,6.8,10.8,8.4,9.4c1.6-1.4-0.2-3.6-2.2-10.8C85,506.7,76.6,493.3,76.6,493.3L76.6,493.3z"/>
		<path class="st8" d="M77.1,765.7c-2.1,3.9-6.3,5.4-20.4,9.8c-14.1,4.4-21,14.3-21,14.3h71c2.1-6.7-2.4-24.1-2.4-24.1l-6-4.5
			C98.3,761.2,79.2,761.8,77.1,765.7z"/>
		<path class="st8" d="M232.6,765.7c0,0,8.7,5.4,18.6,9.8c9.9,4.4,10.8,14.3,10.8,14.3h-59.3c-2.7-8.8,3.6-24.1,3.6-24.1l5.1-6.9
			L232.6,765.7z"/>
		<path class="st7" d="M35.7,796.9h71v-7h-71V796.9z"/>
		<path class="st7" d="M202.6,796.9H262v-7h-59.3V796.9z"/>
		<path class="st1" d="M77.9,753l1.2-17.5l29.1,4.2l-2,13.4l-1.9,12.7H77.1L77.9,753z"/>
		<path class="st1" d="M229.3,740.3l1.6,12.7l1.7,12.7h-26.4l-1.8-12.7l-1.8-12.7H229.3z"/>
		<path class="st2" d="M230.9,753h-26.5l-1.8-12.7h26.7L230.9,753z"/>
		<path class="st2" d="M79.2,735.5l29.1,4.2l-2,13.4H77.9L79.2,735.5z"/>
		<path class="st32" d="M91,609.2c7.9-43.5,16.6-92.2,20.2-112.8c1.1-6.4,1.8-10.1,1.8-10.1s95.3-34.8,103.1-18.6
			c1.6,3.3,3.2,10.4,4.8,20c6.5,38,12.9,114.4,14.1,138.3c1.6,30,0,120.5,0,120.5h-37.5l-32-188.1c0,0-12.4,37-16,53.8
			C146,629,113,746.6,113,746.6H70.5C70.5,746.6,80.7,666.2,91,609.2z"/>
		<path class="st33" d="M184.7,670.9c11.7-15-5.7-33.4,6.4-57.5c12.1-24.1-5-32.4-0.8-55c4.2-22.6-10.5-50.6-10.5-50.6l-14.3,50.6
			L184.7,670.9z"/>
		<path class="st33" d="M113,486.3c0,0,95.3-34.8,103.1-18.6c1.6,3.3,3.2,10.4,4.8,20c-9.6-2.5-29.8-4.1-67.8,6.5
			c-16.8,4.7-30.6,4.7-41.9,2.2C112.4,490,113,486.3,113,486.3z"/>
		<path class="st1" d="M233.7,264.7c-4.3-8.4,4-17.4,4-17.4s12.8-10,18.2-3.6c5.4,6.4,3,18.8,3,18.8S238,273.2,233.7,264.7z"/>
		<path class="st36" d="M97.2,309.4c8.5-6.4,19.9-10.1,30-12.2c12.6-2.7,23.1-3,23.1-3c7.1-0.7,15.5-0.7,23.6,0.1
			c10.3,1.1,20.1,3.6,25.9,7.9c10.4,7.6,32,27.2,34,26.8c2-0.4-1.2-55.2-1.2-55.2l22.8-3.2c0,0,19.2,70.3,9.1,99.4
			c-1.2,3.6-2.9,6.5-5.1,8.7c-15.3,14.7-45-8-46.2-8.9c0,0,0,0,0,0s-2.5,24.4-0.1,45.6c2.4,21.2,10,61.6,10,61.6s-11.4,0.5-26.1,2.4
			c-13.7,1.7-30.3,4.6-43.4,9.2c-27.2,9.6-52.3,5.2-50.8,0c1.6-5.2,2.8-15.6,4.8-43.6c1.1-15-7.5-48.7-12.7-78.9
			C90.4,339.8,88.3,316.1,97.2,309.4z"/>
		<g class="st37">
			<path class="st38" d="M107.6,444.9c1.1-15-7.5-48.7-12.7-78.9l16.3-13.6c0,0,2.1,44.6,27.2,59.2c25.1,14.6-16.7,36.9,27.1,49.8
				c17.8,5.3,26.4,11.6,31.5,17.9c-13.7,1.7-30.3,4.6-43.4,9.2c-27.2,9.6-52.3,5.2-50.8,0C104.4,483.3,105.6,472.9,107.6,444.9z"/>
		</g>
		<path class="st7" d="M150.4,294.2c7.1-0.7,15.5-0.7,23.6,0.1c0.5,7.4,1.1,26-4.3,41.7c0,0-31.4-18.1-42.5-38.9
			C139.9,294.5,150.4,294.2,150.4,294.2z"/>
		<path class="st36" d="M112.4,348.6c-6.8,22.4-23.2,63.6-24,68.8c-0.8,5.2-6,81.9-6,81.9l-20.4,1.6c-7.6-23.2-11.2-76.7-8.8-92.3
			c2.4-15.6,14.4-60.8,28.4-81.1c14-20.4,25.3-25.7,30.8-19.6C119.6,315.8,119.2,326.2,112.4,348.6z"/>
		<path class="st1" d="M133.8,274.9c0,0,8.4-2,8.2-13.2c-0.2-11.2,23.2,10.6,23.2,10.6s-0.1,7.4,0.8,14.3c0.5,4.1,1.5,8,3,9.9
			c4,5.2-9.2,13-20,11c-10.8-2-15.2-7.2-15.2-10.2C133.8,294.2,136.6,287.2,133.8,274.9z"/>
		<path class="st2" d="M165.2,272.3c0,0-0.1,7.4,0.8,14.3c-8-2.6-17.8-9.1-24-24.9C141.8,250.5,165.2,272.3,165.2,272.3z"/>
		<path class="st39" d="M242.4,239.1l35.1,45.1c4.8,6.2,3.7,15-2.5,19.8c-0.7,0.6-1.7,0.8-2.5,0.7c-0.9-0.1-1.7-0.6-2.3-1.3
			l-41.6-53.6L242.4,239.1z"/>
		<path class="st40" d="M236.4,243.8l35.1,45.1c3.6,4.7,3.9,11,1,15.8c-0.9-0.1-1.7-0.6-2.3-1.3l-41.6-53.6L236.4,243.8z"/>
		<path class="st39" d="M202.6,228.9c2.1-1.6,8.7,3.5,14.8,11.4c6.1,7.9,9.4,15.6,7.3,17.2c-2.1,1.6-8.7-3.5-14.8-11.4
			C203.8,238.2,200.5,230.5,202.6,228.9z"/>
		<path class="st39" d="M202.6,228.9l22.2,28.6l25.8-20.1l-22.2-28.6L202.6,228.9z"/>
		<path class="st40" d="M213.7,243.2c-0.7-0.8-0.5-2.1,0.3-2.7l15.1-11.7c0.8-0.7,2.1-0.5,2.7,0.3c0.7,0.8,0.5,2.1-0.3,2.7
			l-15.1,11.7C215.5,244.2,214.3,244,213.7,243.2z"/>
		<path class="st40" d="M208.1,234.7c-0.7-0.8-0.5-2.1,0.3-2.7l15.1-11.7c0.8-0.7,2.1-0.5,2.7,0.3c0.7,0.8,0.5,2.1-0.3,2.7
			l-15.1,11.7C210,235.7,208.7,235.6,208.1,234.7z"/>
		<path class="st40" d="M220.4,250.6c-0.7-0.8-0.5-2.1,0.3-2.7l15.1-11.7c0.8-0.7,2.1-0.5,2.7,0.3c0.7,0.8,0.5,2.1-0.3,2.7
			l-15.1,11.7C222.2,251.5,221,251.4,220.4,250.6z"/>
		<path class="st35" d="M233.3,222.7c-0.7-1-1.3-2-1.9-3c-0.6-0.9-1-1.8-1.5-2.7c-2.1-4.1-2.7-7.2-1.5-8.2l0-0.1l67-97.1l65.8,84.8
			l-110.6,41l0-0.1c-1.4,1.1-5-1-9.1-4.9c-1-1-2-2-3-3.2c-0.9-1-1.8-2.1-2.7-3.2l0,0C234.9,224.9,234,223.8,233.3,222.7z"/>
		<path class="st41" d="M233.3,222.7l81.5-78.8l11.2,14.4l-90.2,67.8l0,0C234.9,224.9,234,223.8,233.3,222.7z"/>
		<path class="st41" d="M330.9,167.1l16.5,11.9l-106,53.5c-1-1-2-2-3-3.2L330.9,167.1z"/>
		<path class="st41" d="M229.9,217l75.5-87.7l5.3,4.8l-79.3,85.6C230.8,218.8,230.3,217.9,229.9,217z"/>
		<path class="st39" d="M304,143.5c-9.2-15.6-13-28.3-8.6-31.8c6.2-4.8,25.9,10.3,44.1,33.7c18.2,23.4,27.9,46.2,21.8,51
			c-4.4,3.4-15.8-3.4-28.7-16.2h0c-5-5-10.3-10.9-15.4-17.5C312,156.2,307.6,149.6,304,143.5z"/>
		<path class="st39" d="M294.9,204.8l-1.2-1.1c-4-4-8-8.5-11.8-13.4c-3.8-5-7.2-9.9-10.1-14.8c-3.8-6.4-12-21.8-6-26.4
			c0.8-0.6,1.9-0.5,2.6,0.3c0.6,0.8,0.5,1.9-0.3,2.6c-1.6,1.2-1.1,8.2,6.9,21.7c2.8,4.7,6.1,9.6,9.9,14.4c3.5,4.5,7,8.5,10.6,12.2
			l0.9,0.9c11.1,11.1,17.7,13.3,19.3,12.1c0.8-0.6,1.9-0.5,2.6,0.3c0.6,0.8,0.5,1.9-0.3,2.6C312.4,220.3,300.7,210.4,294.9,204.8z"
			/>
		<path class="st40" d="M304,143.5c9.8-4.2,21.7-1.5,28.5,7.3c6.9,8.9,6.6,21,0,29.5h0c-5-5-10.3-10.9-15.4-17.5
			C312,156.2,307.6,149.6,304,143.5z"/>
		<path class="st41" d="M318.7,150.4c1.6-1.2,4.4-0.3,6.2,2c1.8,2.4,2,5.2,0.4,6.5c-1.6,1.2-4.4,0.3-6.2-2
			C317.3,154.5,317.1,151.6,318.7,150.4z"/>
		<path class="st1" d="M245.7,272c-3.7-7.8,0.1-16,1-20.7c0.8-4.7-3.3-5.7-8.3,0c-4.9,5.7-5.7,22.6-5.7,22.6L245.7,272z"/>
		<path class="st33" d="M192.8,731.6l3.8,16.6h41.9v-16.6H192.8z"/>
		<path class="st33" d="M119.9,731.6h-51l-1.4,16.6h47.4L119.9,731.6z"/>
		<path class="st7" d="M75.3,768.4l0.4-1.1c8.1,3,9.4,6.8,9.5,6.9l-1.2,0.4C84,774.5,82.7,771.1,75.3,768.4z"/>
		<path class="st7" d="M67.4,772l0.3-1.2c6.7,1.9,8.3,7.7,8.4,8l-1.2,0.3C74.9,778.9,73.4,773.7,67.4,772z"/>
		<path class="st7" d="M61.6,773.9l0.9-0.8c2.2,2.3,2.5,5.7,2.5,5.9l-1.2,0.1C63.8,779,63.5,775.9,61.6,773.9z"/>
		<path class="st7" d="M223,769.3c6.3-2.5,12.5-2.3,12.8-2.3l0,1.2c-0.1,0-6.3-0.2-12.3,2.2L223,769.3z"/>
		<path class="st7" d="M229.9,773.8c6.8-3,11.8-3.3,12-3.4l0.1,1.2c0,0-5,0.3-11.6,3.3L229.9,773.8z"/>
		<path class="st7" d="M240.2,776.2c2.1-1.9,7.4-2.7,7.6-2.8l0.2,1.2c-0.1,0-5.1,0.8-7,2.5L240.2,776.2z"/>
		<g class="st37">
			<path class="st38" d="M238.9,369.8c10,10.3,17.3,1.4,25.7,0.3c-1.2,3.6-2.9,6.5-5.1,8.7c-15.3,14.7-45-8-46.2-8.9c0,0,0,0,0,0
				s-1.4-20.4-5.6-31.3C207.7,338.5,223.3,353.7,238.9,369.8z"/>
		</g>
		<path class="st1" d="M145,229.7c-5.4-1.2-7-0.8-4.2,7.8c2.8,8.6-1.4,12-5,9.8c-3.6-2.2-11.6,0.8-7,7.8c4.6,7,13.2,6.6,13.2,6.6
			s20.2,21,32.8,11.8c12.6-9.2-4-54.8-4-54.8C170.2,221.1,150.4,230.9,145,229.7z"/>
		<path class="st33" d="M75.2,731.3c17.7-132.1,47-232.9,47.3-233.9l3.5,1c-0.3,1-29.5,101.5-47.2,233.3L75.2,731.3z"/>
	</g>
	<g>
		<g>
			<path class="st7" d="M409.5,250.8c-1.3-0.8-2.3-1.9-2.9-3.3c-0.6-1.4-0.9-2.9-0.9-4.5c0-1.1,0.1-2.2,0.3-3.4
				c0.2-1.2,0.5-2.3,0.9-3.4l2.5,1c-0.3,1-0.6,1.9-0.8,3c-0.2,1-0.3,2-0.3,2.9c0,1.1,0.2,2.2,0.6,3.1c0.4,0.9,1.1,1.7,2,2.2
				c0.9,0.6,2.2,0.8,3.9,0.8c1.1,0,2.1-0.1,3.1-0.3c0.9-0.2,1.8-0.5,2.5-0.9c0.7-0.4,1.2-0.8,1.6-1.2c0.4-0.5,0.6-0.9,0.6-1.4
				c0-0.3-0.1-0.6-0.3-0.9c-0.2-0.3-0.6-0.4-1.1-0.4h-2.5c-0.8,0-1.4-0.1-2-0.3c-0.5-0.2-1-0.5-1.3-0.8c-0.3-0.4-0.6-0.8-0.7-1.3
				c-0.1-0.5-0.2-1.1-0.2-1.8c0-1,0.2-2,0.5-2.9c0.3-0.9,0.8-1.7,1.4-2.4c0.6-0.7,1.3-1.3,2.2-1.6c0.9-0.4,1.8-0.6,2.9-0.6
				c0.5,0,1.1,0.1,1.7,0.2c0.6,0.1,1.2,0.4,1.8,0.8l-0.9,2.4c-0.4-0.2-0.9-0.4-1.3-0.5c-0.4-0.1-0.9-0.1-1.3-0.1
				c-0.9,0-1.6,0.2-2.3,0.6c-0.6,0.4-1.1,1-1.4,1.7c-0.3,0.7-0.5,1.5-0.5,2.4c0,0.5,0.1,0.8,0.3,1.1c0.2,0.2,0.6,0.3,1.2,0.3h2.6
				c1,0,1.7,0.2,2.2,0.5c0.5,0.4,0.9,0.8,1.1,1.5c0.2,0.6,0.3,1.3,0.3,2.1c0,0.9-0.2,1.7-0.7,2.5c-0.4,0.8-1.1,1.5-2,2.2
				c-0.9,0.6-1.9,1.1-3.2,1.5c-1.3,0.4-2.7,0.6-4.4,0.6C412.6,252.1,410.8,251.7,409.5,250.8z"/>
			<path class="st7" d="M435.1,241c0.9-0.2,1.5-0.6,2-1c0.4-0.5,0.7-1,0.7-1.7c0-0.7-0.2-1.3-0.7-2c-0.4-0.7-1.1-1.4-2.1-2.2
				c-0.9-0.8-2.2-1.6-3.7-2.4l1.2-2.5c1.3,0.7,2.5,1.4,3.5,2.1c1,0.7,1.8,1.5,2.5,2.2c0.7,0.8,1.1,1.5,1.5,2.3
				c0.3,0.8,0.5,1.6,0.5,2.4c0,1.3-0.3,2.4-0.9,3.3c-0.6,0.9-1.5,1.5-2.8,2c-1.2,0.4-2.8,0.7-4.8,0.7c-0.7,0-1.3,0-2-0.1
				s-1.2-0.2-1.8-0.3v-2.8c0.7,0.1,1.3,0.2,1.9,0.3c0.6,0.1,1.1,0.1,1.6,0.1C433.1,241.4,434.3,241.3,435.1,241z"/>
			<path class="st7" d="M447,244.2h-2.6v-21.5h2.6V244.2z"/>
			<path class="st7" d="M449.2,250.1c1.7-0.4,3.1-0.9,4.1-1.7c1-0.7,1.7-1.6,2.2-2.7c0.5-1,0.7-2.2,0.7-3.5c0-0.9-0.1-1.8-0.3-2.8
				c-0.2-1-0.5-2-0.8-3l2.6-0.9c0.4,1,0.6,2.1,0.8,3.1c0.2,1,0.3,2.1,0.3,3c0,1.7-0.3,3.4-0.9,4.8s-1.6,2.7-2.8,3.8
				c-1.3,1-2.9,1.7-4.9,2.1L449.2,250.1z M458.1,230.4l-2.3,2.3l-2.3-2.3l2.3-2.3L458.1,230.4z"/>
			<path class="st7" d="M466.1,220.8c0.2,0,0.4-0.1,0.6-0.2c0.2-0.2,0.5-0.4,0.9-0.8l0.8-0.7l1.4,1.3l-0.9,0.8
				c-0.6,0.5-1,0.9-1.4,1.1c-0.4,0.2-0.8,0.4-1.2,0.4c-0.4,0-0.9-0.1-1.4-0.4l-2-0.9c-0.1-0.1-0.3-0.1-0.4-0.2
				c-0.1,0-0.2-0.1-0.4-0.1c-0.2,0-0.5,0.1-0.8,0.3c-0.3,0.2-0.7,0.5-1.2,1l-0.9,0.9l-1.4-1.3l0.9-0.9c0.7-0.7,1.3-1.2,1.7-1.5
				c0.5-0.3,0.9-0.4,1.4-0.4c0.3,0,0.6,0,0.9,0.1c0.3,0.1,0.6,0.2,0.9,0.4l2,0.9C465.8,220.8,465.9,220.8,466.1,220.8z M465.4,244.2
				h-2.6v-19.5h2.6V244.2z"/>
			<path class="st7" d="M482.2,244.2v2.4h-14.3v-2.4H482.2z"/>
			<path class="st7" d="M487.6,251c-1.3-0.8-2.3-1.9-2.9-3.3c-0.6-1.4-0.9-2.9-0.9-4.5c0-0.7,0.1-1.5,0.2-2.5c0.1-0.9,0.4-2,0.8-3.2
				l2.5,0.9c-0.3,1-0.5,2-0.6,2.8c-0.1,0.8-0.1,1.5-0.1,2c0,1.1,0.2,2.2,0.6,3.1c0.4,0.9,1.1,1.7,2,2.2c1,0.6,2.3,0.8,3.9,0.8
				c1.6,0,2.9-0.2,4-0.6c1.1-0.4,2-0.8,2.6-1.4c0.6-0.5,0.9-1,0.9-1.5c0-0.5-0.2-0.9-0.6-1.3c-0.4-0.4-1.1-0.5-2.1-0.5h-2.3
				c-0.2,0-0.4-0.1-0.5-0.3c-0.1-0.2-0.2-0.4-0.3-0.7l-0.4-1.5c0-0.1,0-0.2,0.1-0.2c0.1-0.1,0.1-0.1,0.3-0.1h8.7v2.8h-0.6
				c0.2,0.3,0.3,0.6,0.3,0.9s0.1,0.6,0.1,0.9c0,0.7-0.2,1.4-0.6,2.1c-0.4,0.7-1,1.4-1.8,2s-1.9,1.1-3.1,1.5
				c-1.3,0.4-2.8,0.6-4.5,0.6C490.7,252.2,488.9,251.8,487.6,251z"/>
			<path class="st7" d="M508.7,230.6c0.8,0.6,1.5,1.1,2.3,1.7c0.7,0.6,1.4,1.2,2,1.9c0.6,0.7,1.1,1.4,1.4,2.1
				c0.3,0.7,0.5,1.5,0.5,2.3c0,1.3-0.3,2.3-0.9,3.1c-0.6,0.8-1.5,1.4-2.7,1.8c-1.2,0.4-2.8,0.6-4.8,0.6h-3.8v-2.8h3.8
				c1.4,0,2.4-0.1,3.3-0.2c0.8-0.2,1.4-0.4,1.8-0.8c0.4-0.4,0.6-0.9,0.6-1.6c0-0.6-0.2-1.1-0.5-1.6c-0.3-0.5-0.7-1.1-1.3-1.6
				c-0.5-0.5-1.1-1-1.8-1.5s-1.3-1-2-1.5c-0.7-0.5-1.3-1-2-1.5c-0.3-0.3-0.6-0.6-0.8-1c-0.2-0.4-0.3-0.7-0.3-1.1
				c0-0.4,0.1-0.8,0.4-1.2c0.2-0.4,0.6-0.7,1.1-0.9l11.2-4.6v2.8l-9.8,4C507.2,229.5,507.9,230.1,508.7,230.6z M504.3,223.5
				l11.9-4.8v1.7l-11.9,4.8V223.5z"/>
			<path class="st7" d="M527.6,237.4c-0.1-0.4-0.3-0.8-0.4-1.2l-2.8-6.3l2.4-1.1l3.5,8.3c0.5,1.1,0.9,2,1.3,2.6
				c0.4,0.6,0.7,1,1.1,1.2c0.3,0.2,0.7,0.3,1.2,0.3h0.7v2.8h-0.7c-0.8,0-1.5-0.1-2-0.3c-0.5-0.2-1-0.5-1.3-0.9
				c-0.4-0.4-0.8-0.9-1.1-1.5c-0.5,0.6-1.1,1.1-1.7,1.5c-0.7,0.4-1.4,0.7-2.3,0.9c-0.9,0.2-1.9,0.3-3,0.3c-0.7,0-1.4,0-2-0.1
				c-0.6-0.1-1.1-0.2-1.7-0.3v-2.8c0.6,0.1,1.2,0.3,1.8,0.3c0.5,0.1,1.1,0.1,1.6,0.1c1.3,0,2.3-0.1,3.1-0.3s1.4-0.5,1.9-1
				c0.4-0.4,0.6-1,0.6-1.6C527.7,238.2,527.7,237.9,527.6,237.4z"/>
			<path class="st7" d="M533.9,244.2v-2.8h2.5c1,0,1.7-0.3,2.1-0.9c0.4-0.6,0.6-1.4,0.6-2.3c0-0.7-0.1-1.4-0.2-2.2
				c-0.1-0.8-0.3-1.5-0.4-2.3l2.7-0.7c0.2,0.8,0.3,1.7,0.4,2.5c0.1,0.8,0.2,1.6,0.2,2.3c0,1.2-0.2,2.4-0.5,3.3
				c-0.3,1-0.9,1.7-1.7,2.3c-0.8,0.6-1.8,0.8-3.1,0.8H533.9z M540.6,228l-2.3,2.3l-2.3-2.3l2.3-2.3L540.6,228z"/>
			<path class="st7" d="M543.2,250.1c1.7-0.4,3.1-0.9,4.1-1.7c1-0.7,1.7-1.6,2.2-2.7c0.5-1,0.7-2.2,0.7-3.5c0-0.9-0.1-1.8-0.3-2.8
				c-0.2-1-0.5-2-0.8-3l2.6-0.9c0.4,1,0.6,2.1,0.8,3.1c0.2,1,0.3,2.1,0.3,3c0,1.7-0.3,3.4-0.9,4.8s-1.6,2.7-2.8,3.8
				c-1.3,1-2.9,1.7-4.9,2.1L543.2,250.1z M552.1,230.4l-2.3,2.3l-2.3-2.3l2.3-2.3L552.1,230.4z"/>
			<path class="st7" d="M568.7,244.2v2.4h-14.3v-2.4H568.7z"/>
			<path class="st7" d="M583.5,247.4c1-0.6,1.6-1.3,2-2.2c0.4-0.9,0.6-1.9,0.6-3c0-1.2-0.2-2.5-0.5-3.7c-0.3-1.2-0.6-2.2-0.9-3
				l2.7-1.1c0.5,1.3,0.9,2.6,1.1,3.9c0.3,1.3,0.4,2.5,0.4,3.6c0,1.8-0.3,3.3-1,4.7c-0.7,1.4-1.7,2.4-3,3.2c-1.4,0.8-3.2,1.2-5.3,1.2
				c-2.2,0-4-0.4-5.4-1.2c-1.3-0.8-2.3-1.9-2.9-3.3c-0.6-1.4-0.9-2.9-0.9-4.5c0-1.1,0.1-2.2,0.3-3.4c0.2-1.2,0.5-2.3,0.9-3.4l2.5,1
				c-0.3,1-0.6,1.9-0.8,3c-0.2,1-0.3,2-0.3,2.9c0,1.1,0.2,2.2,0.6,3.1c0.4,0.9,1.1,1.7,2,2.2c0.9,0.6,2.2,0.8,3.9,0.8
				C581.2,248.3,582.6,248,583.5,247.4z M581.6,233.2l-2.3,2.3l-2.3-2.3l2.3-2.3L581.6,233.2z"/>
			<path class="st7" d="M590.2,250.1c1.7-0.4,3.1-0.9,4.1-1.7c1-0.7,1.7-1.6,2.2-2.7c0.5-1,0.7-2.2,0.7-3.5c0-0.9-0.1-1.8-0.3-2.8
				c-0.2-1-0.5-2-0.8-3l2.6-0.9c0.4,1,0.6,2.1,0.8,3.1c0.2,1,0.3,2.1,0.3,3c0,1.7-0.3,3.4-0.9,4.8s-1.6,2.7-2.8,3.8
				c-1.3,1-2.9,1.7-4.9,2.1L590.2,250.1z M599.1,230.4l-2.3,2.3l-2.3-2.3l2.3-2.3L599.1,230.4z"/>
			<path class="st7" d="M619.5,237.8h-16.3v-2.2h16.3V237.8z M620.6,230.1h-16.2v-2.2h16.2V230.1z M605.7,244.2l4.4-22.8h2.2
				l-4.4,22.8H605.7z M612.1,244.2l4.4-22.8h2.2l-4.4,22.8H612.1z"/>
		</g>
	</g>
	<g>
		<g>
			<path class="st7" d="M405.9,288h-12.7v-1.7h12.7V288z M406.8,282h-12.7v-1.7h12.7V282z M395.1,293l3.5-17.8h1.8l-3.5,17.8H395.1z
				 M400.1,293l3.5-17.8h1.7l-3.5,17.8H400.1z"/>
			<path class="st7" d="M410.2,275.2l2.8,12.2l0.8,5.6h-1.7l-4.3-17.8H410.2z M413.8,287.6l3.5-12.4h1.7l-1,4.8l-3.8,13h-1.7
				L413.8,287.6z M419.3,275.2l3.4,12.4l1.2,5.4h-1.7l-3.7-13l-1-4.8H419.3z M423.6,287.4l2.7-12.1h2.4l-4.3,17.8h-1.7L423.6,287.4z
				"/>
			<path class="st7" d="M430.4,286.6v-0.3c0-1.3,0.2-2.4,0.7-3.4c0.5-1,1.2-1.8,2.1-2.4c0.9-0.6,2-0.9,3.2-0.9
				c1.2,0,2.3,0.3,3.2,0.9c0.9,0.6,1.6,1.4,2.1,2.4c0.5,1,0.7,2.2,0.7,3.4v0.3c0,1.3-0.2,2.4-0.7,3.4c-0.5,1-1.2,1.8-2.1,2.4
				c-0.9,0.6-2,0.9-3.2,0.9c-1.2,0-2.3-0.3-3.2-0.9c-0.9-0.6-1.6-1.4-2.1-2.4C430.6,289,430.4,287.8,430.4,286.6z M432.7,286.3v0.3
				c0,0.9,0.1,1.7,0.4,2.4c0.3,0.7,0.7,1.3,1.3,1.8c0.6,0.4,1.3,0.7,2.1,0.7c0.8,0,1.5-0.2,2.1-0.7c0.6-0.4,1-1,1.2-1.8
				c0.3-0.7,0.4-1.5,0.4-2.4v-0.3c0-0.9-0.1-1.7-0.4-2.4c-0.3-0.7-0.7-1.3-1.3-1.8c-0.6-0.5-1.2-0.7-2.1-0.7c-0.8,0-1.5,0.2-2.1,0.7
				c-0.6,0.5-1,1-1.2,1.8C432.8,284.6,432.7,285.4,432.7,286.3z"/>
			<path class="st7" d="M447.5,282.4V293h-2.3v-13.2h2.1L447.5,282.4z M447,285.9l-1,0c0-1.2,0.2-2.3,0.6-3.2c0.4-0.9,1-1.7,1.8-2.2
				c0.8-0.5,1.8-0.8,3-0.8c1.2,0,2.3,0.4,3.1,1.1c0.8,0.7,1.2,1.9,1.2,3.6v8.8h-2.3v-8.7c0-0.7-0.1-1.2-0.3-1.7
				c-0.2-0.4-0.6-0.7-1-0.9c-0.4-0.2-0.9-0.3-1.5-0.3c-0.7,0-1.2,0.1-1.7,0.4c-0.4,0.2-0.8,0.6-1.1,1s-0.5,0.9-0.6,1.4
				C447.1,284.8,447,285.3,447,285.9z M455.6,284.7l-1.5,0.5c0-1,0.2-1.9,0.6-2.7c0.4-0.8,1-1.5,1.8-2.1c0.8-0.5,1.7-0.8,2.9-0.8
				c0.9,0,1.7,0.2,2.4,0.5c0.7,0.3,1.2,0.9,1.5,1.6c0.3,0.7,0.5,1.6,0.5,2.7v8.7h-2.3v-8.7c0-0.7-0.1-1.3-0.3-1.7
				c-0.2-0.4-0.6-0.7-1-0.9c-0.4-0.2-0.9-0.2-1.5-0.2c-0.5,0-0.9,0.1-1.3,0.3c-0.4,0.2-0.7,0.4-1,0.7c-0.3,0.3-0.5,0.6-0.6,1
				C455.7,283.8,455.6,284.2,455.6,284.7z"/>
			<path class="st7" d="M475.4,285l0,1.6h-2.3c-1.3,0-2.3,0.2-3,0.6c-0.7,0.4-1,1-1,1.8c0,0.6,0.2,1.2,0.6,1.6
				c0.4,0.4,1.1,0.7,1.9,0.7c0.7,0,1.3-0.1,1.8-0.4c0.5-0.3,1-0.7,1.3-1.1c0.3-0.4,0.5-0.8,0.5-1.2l1,1.1c-0.1,0.3-0.2,0.7-0.5,1.1
				c-0.3,0.4-0.6,0.8-1,1.2c-0.4,0.4-0.9,0.7-1.5,0.9c-0.6,0.2-1.2,0.4-1.9,0.4c-0.9,0-1.7-0.2-2.4-0.5c-0.7-0.3-1.2-0.8-1.6-1.4
				c-0.4-0.6-0.6-1.3-0.6-2c0-1.4,0.5-2.5,1.6-3.2c1.1-0.7,2.5-1.1,4.3-1.1H475.4z M475,290.8V284c0-0.8-0.2-1.4-0.7-1.9
				c-0.5-0.5-1.2-0.7-2.1-0.7c-0.6,0-1.1,0.1-1.5,0.3c-0.4,0.2-0.8,0.5-1,0.8c-0.2,0.3-0.4,0.7-0.4,1h-2.3c0-0.6,0.2-1.3,0.6-1.8
				c0.4-0.6,1-1.1,1.8-1.5c0.8-0.4,1.7-0.6,2.8-0.6c1,0,1.8,0.2,2.5,0.5c0.7,0.3,1.3,0.8,1.7,1.5c0.4,0.7,0.6,1.5,0.6,2.5v6.2
				c0,0.4,0,0.9,0.1,1.4c0.1,0.5,0.2,0.9,0.3,1.3v0.2h-2.4c-0.1-0.3-0.2-0.6-0.3-1C475,291.5,475,291.1,475,290.8z"/>
			<path class="st7" d="M483,282.6V293h-2.3v-13.2h2.1L483,282.6z M482.5,285.9l-0.9,0c0-1.2,0.2-2.3,0.7-3.2
				c0.4-0.9,1.1-1.7,1.9-2.2c0.8-0.5,1.7-0.8,2.8-0.8c0.9,0,1.6,0.2,2.3,0.5c0.6,0.3,1.1,0.8,1.5,1.5c0.3,0.7,0.5,1.6,0.5,2.8v8.7
				h-2.3v-8.7c0-0.7-0.1-1.2-0.3-1.7c-0.2-0.4-0.5-0.7-0.9-0.9c-0.4-0.2-0.9-0.3-1.4-0.3c-0.6,0-1.1,0.1-1.5,0.4
				c-0.5,0.2-0.9,0.6-1.2,1c-0.3,0.4-0.6,0.9-0.8,1.4C482.6,284.8,482.5,285.3,482.5,285.9z"/>
			<path class="st7" d="M497.3,275.2V293h-2.4v-17.8H497.3z M505.7,291.1v1.9h-8.9v-1.9H505.7z"/>
			<path class="st7" d="M508.1,276.3c0-0.4,0.1-0.7,0.3-0.9c0.2-0.3,0.6-0.4,1-0.4c0.4,0,0.8,0.1,1,0.4c0.2,0.3,0.3,0.6,0.3,0.9
				c0,0.4-0.1,0.6-0.3,0.9c-0.2,0.2-0.6,0.4-1,0.4c-0.4,0-0.8-0.1-1-0.4C508.2,277,508.1,276.7,508.1,276.3z M510.5,279.8V293h-2.3
				v-13.2H510.5z"/>
			<path class="st7" d="M520.3,279.8v1.7h-7.2v-1.7H520.3z M517.5,293h-2.3v-14.6c0-1.4,0.4-2.5,1.2-3.3c0.8-0.8,1.8-1.1,3.2-1.1
				c0.3,0,0.5,0,0.8,0c0.3,0,0.5,0.1,0.8,0.1L521,276c-0.2,0-0.4-0.1-0.6-0.1c-0.2,0-0.4,0-0.6,0c-0.7,0-1.3,0.2-1.7,0.6
				c-0.4,0.4-0.6,1-0.6,1.8V293z"/>
			<path class="st7" d="M528.3,293.3c-1.2,0-2.3-0.3-3.2-0.8c-0.9-0.5-1.6-1.3-2.1-2.3c-0.5-1-0.8-2.1-0.8-3.3v-0.5
				c0-1.4,0.3-2.7,0.8-3.7c0.5-1,1.3-1.8,2.1-2.3c0.9-0.5,1.8-0.8,2.8-0.8c1.3,0,2.3,0.3,3.1,0.8c0.8,0.6,1.4,1.3,1.8,2.3
				c0.4,1,0.6,2.1,0.6,3.3v1h-9.9v-1.8h7.6V285c0-0.6-0.2-1.2-0.4-1.7c-0.2-0.6-0.5-1-1-1.4c-0.4-0.4-1.1-0.5-1.8-0.5
				c-0.7,0-1.3,0.2-1.8,0.6c-0.5,0.4-0.9,0.9-1.2,1.7c-0.3,0.7-0.4,1.6-0.4,2.7v0.5c0,0.8,0.2,1.6,0.5,2.3c0.3,0.7,0.8,1.2,1.3,1.6
				c0.6,0.4,1.3,0.6,2.1,0.6c0.8,0,1.5-0.2,2-0.5c0.6-0.3,1-0.8,1.5-1.3l1.4,1.1c-0.4,0.7-1,1.2-1.8,1.8
				C530.7,293,529.6,293.3,528.3,293.3z"/>
			<path class="st7" d="M538.8,275.2V293h-2.4v-17.8H538.8z M547.4,275.2v1.9h-9.2v-1.9H547.4z M546.2,283.2v1.9h-8v-1.9H546.2z"/>
			<path class="st7" d="M552.2,281.9V293h-2.3v-13.2h2.2L552.2,281.9z M556.3,279.7l0,2.1c-0.2,0-0.4-0.1-0.5-0.1
				c-0.2,0-0.4,0-0.6,0c-0.7,0-1.3,0.1-1.8,0.4c-0.5,0.3-0.8,0.7-1.1,1.2c-0.3,0.5-0.4,1.1-0.5,1.7l-0.6,0.4c0-1.1,0.1-2,0.4-2.9
				c0.3-0.9,0.7-1.6,1.3-2.1c0.6-0.5,1.4-0.8,2.3-0.8c0.2,0,0.3,0,0.6,0.1C556.1,279.7,556.2,279.7,556.3,279.7z"/>
			<path class="st7" d="M563.9,293.3c-1.2,0-2.3-0.3-3.2-0.8c-0.9-0.5-1.6-1.3-2.1-2.3c-0.5-1-0.8-2.1-0.8-3.3v-0.5
				c0-1.4,0.3-2.7,0.8-3.7c0.5-1,1.3-1.8,2.1-2.3c0.9-0.5,1.8-0.8,2.8-0.8c1.3,0,2.3,0.3,3.1,0.8c0.8,0.6,1.4,1.3,1.8,2.3
				c0.4,1,0.6,2.1,0.6,3.3v1h-9.9v-1.8h7.6V285c0-0.6-0.2-1.2-0.4-1.7c-0.2-0.6-0.5-1-1-1.4c-0.4-0.4-1.1-0.5-1.8-0.5
				c-0.7,0-1.3,0.2-1.8,0.6c-0.5,0.4-0.9,0.9-1.2,1.7c-0.3,0.7-0.4,1.6-0.4,2.7v0.5c0,0.8,0.2,1.6,0.5,2.3c0.3,0.7,0.8,1.2,1.3,1.6
				c0.6,0.4,1.3,0.6,2.1,0.6c0.8,0,1.5-0.2,2-0.5c0.6-0.3,1-0.8,1.5-1.3l1.4,1.1c-0.4,0.7-1,1.2-1.8,1.8
				C566.2,293,565.2,293.3,563.9,293.3z"/>
			<path class="st7" d="M577.1,293.3c-1.2,0-2.3-0.3-3.2-0.8c-0.9-0.5-1.6-1.3-2.1-2.3c-0.5-1-0.8-2.1-0.8-3.3v-0.5
				c0-1.4,0.3-2.7,0.8-3.7c0.5-1,1.3-1.8,2.1-2.3c0.9-0.5,1.8-0.8,2.8-0.8c1.3,0,2.3,0.3,3.1,0.8c0.8,0.6,1.4,1.3,1.8,2.3
				c0.4,1,0.6,2.1,0.6,3.3v1h-9.9v-1.8h7.6V285c0-0.6-0.2-1.2-0.4-1.7c-0.2-0.6-0.5-1-1-1.4c-0.4-0.4-1.1-0.5-1.8-0.5
				c-0.7,0-1.3,0.2-1.8,0.6c-0.5,0.4-0.9,0.9-1.2,1.7c-0.3,0.7-0.4,1.6-0.4,2.7v0.5c0,0.8,0.2,1.6,0.5,2.3c0.3,0.7,0.8,1.2,1.3,1.6
				c0.6,0.4,1.3,0.6,2.1,0.6c0.8,0,1.5-0.2,2-0.5c0.6-0.3,1-0.8,1.5-1.3l1.4,1.1c-0.4,0.7-1,1.2-1.8,1.8
				C579.5,293,578.4,293.3,577.1,293.3z"/>
			<path class="st7" d="M584.3,286.6v-0.3c0-1.3,0.2-2.5,0.7-3.5c0.4-1,1-1.8,1.8-2.4s1.7-0.8,2.7-0.8c1.1,0,2,0.3,2.8,0.8
				c0.7,0.5,1.3,1.2,1.7,2.2c0.4,0.9,0.7,2.1,0.8,3.4v1.1c-0.1,1.3-0.4,2.4-0.8,3.3c-0.4,0.9-1,1.7-1.7,2.2
				c-0.7,0.5-1.7,0.8-2.8,0.8c-1,0-1.9-0.3-2.7-0.9c-0.8-0.6-1.4-1.4-1.8-2.4C584.5,289,584.3,287.8,584.3,286.6z M586.6,286.3v0.3
				c0,0.9,0.1,1.7,0.4,2.4c0.2,0.7,0.6,1.3,1.1,1.7c0.5,0.4,1.2,0.6,2,0.6c0.7,0,1.4-0.2,1.8-0.5c0.5-0.3,0.9-0.7,1.2-1.3
				c0.3-0.5,0.5-1.1,0.7-1.7V285c-0.1-0.4-0.2-0.9-0.4-1.3c-0.2-0.4-0.4-0.8-0.7-1.1c-0.3-0.3-0.6-0.6-1.1-0.8
				c-0.4-0.2-0.9-0.3-1.5-0.3c-0.8,0-1.5,0.2-2,0.7c-0.5,0.4-0.9,1-1.1,1.8S586.6,285.4,586.6,286.3z M593.2,290.5v-16.2h2.3V293
				h-2.1L593.2,290.5z"/>
			<path class="st7" d="M598.4,286.6v-0.3c0-1.3,0.2-2.4,0.7-3.4c0.5-1,1.2-1.8,2.1-2.4c0.9-0.6,2-0.9,3.2-0.9
				c1.2,0,2.3,0.3,3.2,0.9c0.9,0.6,1.6,1.4,2.1,2.4c0.5,1,0.7,2.2,0.7,3.4v0.3c0,1.3-0.2,2.4-0.7,3.4c-0.5,1-1.2,1.8-2.1,2.4
				c-0.9,0.6-2,0.9-3.2,0.9c-1.2,0-2.3-0.3-3.2-0.9c-0.9-0.6-1.6-1.4-2.1-2.4C598.6,289,598.4,287.8,598.4,286.6z M600.6,286.3v0.3
				c0,0.9,0.1,1.7,0.4,2.4c0.3,0.7,0.7,1.3,1.3,1.8c0.6,0.4,1.3,0.7,2.1,0.7c0.8,0,1.5-0.2,2.1-0.7c0.6-0.4,1-1,1.2-1.8
				c0.3-0.7,0.4-1.5,0.4-2.4v-0.3c0-0.9-0.1-1.7-0.4-2.4c-0.3-0.7-0.7-1.3-1.3-1.8c-0.6-0.5-1.2-0.7-2.1-0.7c-0.8,0-1.5,0.2-2.1,0.7
				c-0.6,0.5-1,1-1.2,1.8C600.8,284.6,600.6,285.4,600.6,286.3z"/>
			<path class="st7" d="M615.5,282.4V293h-2.3v-13.2h2.1L615.5,282.4z M615,285.9l-1,0c0-1.2,0.2-2.3,0.6-3.2c0.4-0.9,1-1.7,1.8-2.2
				c0.8-0.5,1.8-0.8,3-0.8c1.2,0,2.3,0.4,3.1,1.1c0.8,0.7,1.2,1.9,1.2,3.6v8.8h-2.3v-8.7c0-0.7-0.1-1.2-0.3-1.7
				c-0.2-0.4-0.6-0.7-1-0.9c-0.4-0.2-0.9-0.3-1.5-0.3c-0.7,0-1.2,0.1-1.7,0.4c-0.4,0.2-0.8,0.6-1.1,1s-0.5,0.9-0.6,1.4
				C615.1,284.8,615,285.3,615,285.9z M623.6,284.7l-1.5,0.5c0-1,0.2-1.9,0.6-2.7c0.4-0.8,1-1.5,1.8-2.1c0.8-0.5,1.7-0.8,2.9-0.8
				c0.9,0,1.7,0.2,2.4,0.5c0.7,0.3,1.2,0.9,1.5,1.6c0.3,0.7,0.5,1.6,0.5,2.7v8.7h-2.3v-8.7c0-0.7-0.1-1.3-0.3-1.7
				c-0.2-0.4-0.6-0.7-1-0.9c-0.4-0.2-0.9-0.2-1.5-0.2c-0.5,0-0.9,0.1-1.3,0.3c-0.4,0.2-0.7,0.4-1,0.7c-0.3,0.3-0.5,0.6-0.6,1
				C623.6,283.8,623.6,284.2,623.6,284.7z"/>
		</g>
	</g>
	<g>
		<g>
			<path class="st6" d="M634.7,84.3c0-0.3-0.1-0.6-0.2-0.9c-0.1-0.3-0.4-0.5-0.8-0.7s-1-0.5-1.8-0.7c-0.9-0.3-1.7-0.6-2.4-1
				s-1.3-0.8-1.7-1.4c-0.4-0.6-0.6-1.2-0.6-2.1c0-0.8,0.2-1.5,0.7-2.1c0.5-0.6,1.1-1.1,1.9-1.4s1.7-0.5,2.7-0.5c1,0,2,0.2,2.7,0.6
				s1.4,0.9,1.8,1.6c0.4,0.7,0.6,1.4,0.6,2.3h-2.9c0-0.4-0.1-0.8-0.3-1.1c-0.2-0.3-0.4-0.6-0.8-0.7c-0.3-0.2-0.8-0.3-1.3-0.3
				c-0.5,0-0.9,0.1-1.3,0.2c-0.3,0.2-0.6,0.4-0.8,0.6c-0.2,0.3-0.3,0.5-0.3,0.9s0.1,0.6,0.3,0.8s0.5,0.5,1,0.7s0.9,0.4,1.6,0.6
				c1,0.3,1.9,0.7,2.6,1.1c0.7,0.4,1.2,0.9,1.6,1.5c0.4,0.6,0.5,1.2,0.5,2c0,0.8-0.2,1.5-0.6,2.1c-0.4,0.6-1,1-1.8,1.3
				s-1.7,0.5-2.7,0.5c-0.7,0-1.4-0.1-2.1-0.3s-1.3-0.5-1.9-0.8s-1-0.9-1.3-1.4s-0.5-1.3-0.5-2.1h2.9c0,0.4,0.1,0.8,0.2,1.1
				s0.3,0.6,0.6,0.7c0.2,0.2,0.5,0.3,0.9,0.4c0.3,0.1,0.7,0.1,1.1,0.1c0.5,0,0.9-0.1,1.3-0.2c0.3-0.1,0.6-0.3,0.7-0.6
				C634.6,84.9,634.7,84.7,634.7,84.3z"/>
			<path class="st6" d="M644.6,77.5v2h-6.2v-2H644.6z M639.9,74.9h2.8v10c0,0.3,0,0.5,0.1,0.7c0.1,0.2,0.2,0.3,0.4,0.3
				c0.2,0.1,0.4,0.1,0.6,0.1c0.2,0,0.3,0,0.5,0c0.1,0,0.3,0,0.4-0.1l0,2.1c-0.2,0.1-0.5,0.1-0.8,0.2c-0.3,0-0.6,0.1-0.9,0.1
				c-0.6,0-1.2-0.1-1.6-0.3s-0.8-0.5-1.1-1c-0.2-0.5-0.4-1.1-0.4-1.8V74.9z"/>
			<path class="st6" d="M652.7,83.4l0.8,0c0,0.9-0.1,1.8-0.4,2.5c-0.3,0.7-0.7,1.3-1.3,1.8c-0.6,0.4-1.3,0.6-2.2,0.6
				c-1,0-1.9-0.3-2.5-0.9s-1-1.6-1-3v-6.8h2.8v6.8c0,0.4,0.1,0.7,0.2,1c0.1,0.3,0.3,0.4,0.5,0.5c0.2,0.1,0.5,0.2,0.8,0.2
				c0.6,0,1-0.1,1.4-0.4c0.3-0.2,0.6-0.6,0.7-1C652.7,84.3,652.7,83.9,652.7,83.4z M652.4,85.5v-8h2.8v10.6h-2.6L652.4,85.5z"/>
			<path class="st6" d="M656.9,82.9v-0.2c0-1.1,0.2-2,0.5-2.8c0.3-0.8,0.8-1.4,1.4-1.9c0.6-0.5,1.4-0.7,2.2-0.7
				c0.8,0,1.5,0.2,2.1,0.7c0.6,0.5,1,1.1,1.3,1.9s0.5,1.7,0.7,2.7v0.4c-0.1,1-0.3,1.9-0.7,2.6s-0.8,1.4-1.3,1.9s-1.3,0.7-2.1,0.7
				c-0.9,0-1.6-0.2-2.2-0.7s-1.1-1.1-1.4-1.9C657.1,84.8,656.9,83.9,656.9,82.9z M659.7,82.7v0.2c0,0.6,0.1,1.1,0.2,1.6
				c0.1,0.5,0.3,0.9,0.6,1.1s0.7,0.4,1.2,0.4c0.5,0,0.9-0.1,1.2-0.3s0.6-0.5,0.7-0.9s0.3-0.8,0.3-1.3v-1.3c0-0.4-0.1-0.8-0.2-1.1
				c-0.1-0.3-0.2-0.6-0.4-0.8c-0.2-0.2-0.4-0.4-0.7-0.5s-0.6-0.2-0.9-0.2c-0.5,0-0.9,0.1-1.2,0.4c-0.3,0.3-0.5,0.7-0.6,1.1
				S659.7,82.1,659.7,82.7z M663.6,85.8V73.1h2.8v15h-2.5L663.6,85.8z"/>
			<path class="st6" d="M673.5,88.3c-1.1,0-2-0.2-2.8-0.7c-0.8-0.5-1.4-1.1-1.8-1.9s-0.6-1.6-0.6-2.6v-0.4c0-1.1,0.2-2,0.6-2.8
				c0.4-0.8,1-1.5,1.7-1.9s1.6-0.7,2.6-0.7c1,0,1.8,0.2,2.5,0.6c0.7,0.4,1.2,1,1.6,1.8c0.4,0.8,0.5,1.7,0.5,2.7v1.2h-8.4v-1.9h5.6
				v-0.2c0-0.4-0.1-0.7-0.2-1c-0.1-0.3-0.4-0.6-0.6-0.7c-0.3-0.2-0.6-0.3-1.1-0.3c-0.5,0-0.9,0.1-1.2,0.4s-0.5,0.7-0.7,1.2
				c-0.1,0.5-0.2,1-0.2,1.7v0.4c0,0.6,0.1,1.1,0.3,1.5c0.2,0.4,0.5,0.8,0.9,1s0.9,0.4,1.4,0.4c0.5,0,1-0.1,1.4-0.3s0.8-0.5,1.1-0.9
				l1.4,1.5c-0.3,0.5-0.8,0.9-1.5,1.3C675.4,88.1,674.5,88.3,673.5,88.3z"/>
			<path class="st6" d="M682.2,79.8v8.3h-2.8V77.5h2.6L682.2,79.8z M681.8,82.4H681c0-1,0.2-1.9,0.5-2.7c0.3-0.8,0.8-1.4,1.5-1.8
				c0.6-0.4,1.3-0.6,2.2-0.6c0.7,0,1.2,0.1,1.7,0.4c0.5,0.3,0.9,0.7,1.2,1.3c0.3,0.6,0.4,1.4,0.4,2.4v6.7h-2.8v-6.7
				c0-0.5-0.1-0.8-0.2-1.1c-0.1-0.3-0.3-0.4-0.6-0.6c-0.3-0.1-0.6-0.2-0.9-0.2c-0.4,0-0.7,0.1-1,0.2c-0.3,0.1-0.5,0.4-0.7,0.6
				c-0.2,0.3-0.3,0.6-0.4,0.9C681.8,81.6,681.8,82,681.8,82.4z"/>
			<path class="st6" d="M695.8,77.5v2h-6.2v-2H695.8z M691.2,74.9h2.8v10c0,0.3,0,0.5,0.1,0.7c0.1,0.2,0.2,0.3,0.4,0.3
				c0.2,0.1,0.4,0.1,0.6,0.1c0.2,0,0.3,0,0.5,0c0.1,0,0.3,0,0.4-0.1l0,2.1c-0.2,0.1-0.5,0.1-0.8,0.2c-0.3,0-0.6,0.1-0.9,0.1
				c-0.6,0-1.2-0.1-1.6-0.3s-0.8-0.5-1.1-1c-0.2-0.5-0.4-1.1-0.4-1.8V74.9z"/>
			<path class="st6" d="M703.1,85.1c0-0.2-0.1-0.4-0.2-0.5s-0.3-0.3-0.6-0.5c-0.3-0.1-0.8-0.3-1.4-0.4c-0.7-0.2-1.4-0.4-1.9-0.6
				s-1-0.6-1.3-1c-0.3-0.4-0.5-0.9-0.5-1.5c0-0.6,0.2-1.1,0.5-1.6c0.3-0.5,0.8-0.9,1.5-1.2c0.6-0.3,1.4-0.4,2.3-0.4
				c0.9,0,1.7,0.1,2.4,0.4c0.7,0.3,1.2,0.7,1.5,1.2c0.4,0.5,0.5,1.1,0.5,1.7H703c0-0.4-0.1-0.8-0.4-1c-0.3-0.3-0.7-0.4-1.2-0.4
				c-0.3,0-0.6,0.1-0.8,0.2c-0.2,0.1-0.4,0.3-0.5,0.4c-0.1,0.2-0.2,0.4-0.2,0.6s0.1,0.4,0.2,0.6s0.3,0.3,0.6,0.4
				c0.3,0.1,0.7,0.2,1.2,0.3c0.8,0.2,1.4,0.4,2,0.6c0.6,0.3,1.1,0.6,1.4,1s0.5,1,0.5,1.7c0,0.6-0.2,1.2-0.5,1.7
				c-0.4,0.5-0.9,0.9-1.5,1.1s-1.4,0.4-2.4,0.4c-1,0-1.8-0.2-2.5-0.5c-0.7-0.4-1.2-0.8-1.5-1.3c-0.3-0.5-0.5-1.1-0.5-1.7h2.7
				c0,0.4,0.1,0.7,0.3,0.9s0.4,0.4,0.7,0.5c0.3,0.1,0.6,0.2,0.9,0.2c0.4,0,0.7-0.1,0.9-0.2c0.2-0.1,0.4-0.2,0.6-0.4
				S703.1,85.4,703.1,85.1z"/>
			<path class="st6" d="M712.3,82.9v-0.2c0-1,0.2-1.9,0.6-2.8s1-1.5,1.7-1.9s1.6-0.7,2.7-0.7c1.1,0,2,0.2,2.7,0.7
				c0.7,0.5,1.3,1.1,1.7,1.9s0.6,1.7,0.6,2.8v0.2c0,1-0.2,1.9-0.6,2.8s-1,1.4-1.7,1.9c-0.7,0.5-1.6,0.7-2.7,0.7
				c-1.1,0-2-0.2-2.7-0.7c-0.7-0.5-1.3-1.1-1.7-1.9S712.3,83.9,712.3,82.9z M715.1,82.7v0.2c0,0.6,0.1,1.1,0.2,1.6
				c0.1,0.5,0.4,0.9,0.7,1.1c0.3,0.3,0.7,0.4,1.3,0.4c0.5,0,1-0.1,1.3-0.4c0.3-0.3,0.5-0.7,0.7-1.1c0.1-0.5,0.2-1,0.2-1.6v-0.2
				c0-0.6-0.1-1.1-0.2-1.6c-0.1-0.5-0.4-0.9-0.7-1.2c-0.3-0.3-0.7-0.4-1.3-0.4c-0.5,0-1,0.1-1.3,0.4c-0.3,0.3-0.6,0.7-0.7,1.2
				C715.1,81.6,715.1,82.1,715.1,82.7z"/>
			<path class="st6" d="M729.7,77.5v2h-6.5v-2H729.7z M727.6,88.1h-2.8V76.6c0-1.2,0.3-2.1,1-2.7c0.7-0.6,1.6-1,2.8-1
				c0.3,0,0.5,0,0.8,0.1c0.2,0,0.5,0.1,0.7,0.1l0,2.1c-0.1,0-0.3-0.1-0.4-0.1s-0.3,0-0.5,0c-0.5,0-0.9,0.1-1.2,0.4
				c-0.3,0.3-0.4,0.6-0.4,1.1V88.1z"/>
			<path class="st6" d="M747.1,73.8v2.3h-11.6v-2.3H747.1z M742.7,73.8v14.2h-2.9V73.8H742.7z"/>
			<path class="st6" d="M756.6,73.8h2.9v9.4c0,1.1-0.2,2-0.7,2.8c-0.5,0.7-1.1,1.3-1.9,1.7c-0.8,0.4-1.8,0.6-2.8,0.6
				c-1.1,0-2-0.2-2.8-0.6c-0.8-0.4-1.5-0.9-1.9-1.7c-0.5-0.7-0.7-1.7-0.7-2.8v-9.4h2.9v9.4c0,0.6,0.1,1.2,0.3,1.6
				c0.2,0.4,0.5,0.7,0.9,0.9s0.8,0.3,1.4,0.3c0.5,0,1-0.1,1.4-0.3c0.4-0.2,0.7-0.5,0.9-0.9c0.2-0.4,0.3-0.9,0.3-1.6V73.8z"/>
			<path class="st6" d="M769.9,73.8v14.2H767V73.8H769.9z M771.4,88.1h-3.1l0-2.3h3.1c0.8,0,1.4-0.2,1.9-0.5s0.9-0.9,1.2-1.5
				c0.3-0.7,0.4-1.5,0.4-2.4v-0.7c0-1-0.1-1.8-0.4-2.5s-0.7-1.2-1.2-1.5c-0.5-0.3-1.2-0.5-1.9-0.5h-3.2v-2.3h3.2
				c1.3,0,2.4,0.3,3.4,0.8s1.7,1.4,2.3,2.4c0.5,1,0.8,2.2,0.8,3.6v0.7c0,1.4-0.3,2.5-0.8,3.5c-0.6,1-1.3,1.8-2.3,2.4
				C773.8,87.8,772.6,88.1,771.4,88.1z"/>
			<path class="st6" d="M784.7,88.3c-1.1,0-2-0.2-2.8-0.7c-0.8-0.5-1.4-1.1-1.8-1.9s-0.6-1.6-0.6-2.6v-0.4c0-1.1,0.2-2,0.6-2.8
				c0.4-0.8,1-1.5,1.7-1.9s1.6-0.7,2.6-0.7c1,0,1.8,0.2,2.5,0.6c0.7,0.4,1.2,1,1.6,1.8c0.4,0.8,0.5,1.7,0.5,2.7v1.2h-8.4v-1.9h5.6
				v-0.2c0-0.4-0.1-0.7-0.2-1c-0.1-0.3-0.4-0.6-0.6-0.7c-0.3-0.2-0.6-0.3-1.1-0.3c-0.5,0-0.9,0.1-1.2,0.4s-0.5,0.7-0.7,1.2
				c-0.1,0.5-0.2,1-0.2,1.7v0.4c0,0.6,0.1,1.1,0.3,1.5c0.2,0.4,0.5,0.8,0.9,1s0.9,0.4,1.4,0.4c0.5,0,1-0.1,1.4-0.3s0.8-0.5,1.1-0.9
				l1.4,1.5c-0.3,0.5-0.8,0.9-1.5,1.3C786.6,88.1,785.7,88.3,784.7,88.3z"/>
			<path class="st6" d="M793.6,73.1v15h-2.8v-15H793.6z"/>
			<path class="st6" d="M801.6,77.5v2h-6.5v-2H801.6z M799.5,88.1h-2.8V76.6c0-1.2,0.3-2.1,1-2.7c0.7-0.6,1.6-1,2.8-1
				c0.3,0,0.5,0,0.8,0.1c0.2,0,0.5,0.1,0.7,0.1l0,2.1c-0.1,0-0.3-0.1-0.4-0.1s-0.3,0-0.5,0c-0.5,0-0.9,0.1-1.2,0.4
				c-0.3,0.3-0.4,0.6-0.4,1.1V88.1z"/>
			<path class="st6" d="M808.2,77.5v2h-6.2v-2H808.2z M803.6,74.9h2.8v10c0,0.3,0,0.5,0.1,0.7c0.1,0.2,0.2,0.3,0.4,0.3
				c0.2,0.1,0.4,0.1,0.6,0.1c0.2,0,0.3,0,0.5,0c0.1,0,0.3,0,0.4-0.1l0,2.1c-0.2,0.1-0.5,0.1-0.8,0.2c-0.3,0-0.6,0.1-0.9,0.1
				c-0.6,0-1.2-0.1-1.6-0.3s-0.8-0.5-1.1-1c-0.2-0.5-0.4-1.1-0.4-1.8V74.9z"/>
			<path class="st6" d="M632.8,106.5v2h-6.5v-2H632.8z M630.7,117.1h-2.8v-11.5c0-1.2,0.3-2.1,1-2.7c0.7-0.6,1.6-1,2.8-1
				c0.3,0,0.5,0,0.8,0.1c0.2,0,0.5,0.1,0.7,0.1l0,2.1c-0.1,0-0.3-0.1-0.4-0.1s-0.3,0-0.5,0c-0.5,0-0.9,0.1-1.2,0.4
				c-0.3,0.3-0.4,0.6-0.4,1.1V117.1z"/>
			<path class="st6" d="M633.8,111.9v-0.2c0-1,0.2-1.9,0.6-2.8s1-1.5,1.7-1.9s1.6-0.7,2.7-0.7c1.1,0,2,0.2,2.7,0.7
				c0.7,0.5,1.3,1.1,1.7,1.9s0.6,1.7,0.6,2.8v0.2c0,1-0.2,1.9-0.6,2.8s-1,1.4-1.7,1.9c-0.7,0.5-1.6,0.7-2.7,0.7
				c-1.1,0-2-0.2-2.7-0.7c-0.7-0.5-1.3-1.1-1.7-1.9S633.8,112.9,633.8,111.9z M636.6,111.7v0.2c0,0.6,0.1,1.1,0.2,1.6
				c0.1,0.5,0.4,0.9,0.7,1.1c0.3,0.3,0.7,0.4,1.3,0.4c0.5,0,1-0.1,1.3-0.4c0.3-0.3,0.5-0.7,0.7-1.1c0.1-0.5,0.2-1,0.2-1.6v-0.2
				c0-0.6-0.1-1.1-0.2-1.6c-0.1-0.5-0.4-0.9-0.7-1.2c-0.3-0.3-0.7-0.4-1.3-0.4c-0.5,0-1,0.1-1.3,0.4c-0.3,0.3-0.6,0.7-0.7,1.2
				C636.7,110.6,636.6,111.1,636.6,111.7z"/>
			<path class="st6" d="M648.3,108.8v8.3h-2.8v-10.6h2.6L648.3,108.8z M651.5,106.4l0,2.6c-0.1,0-0.3,0-0.5-0.1c-0.2,0-0.4,0-0.5,0
				c-0.5,0-1,0.1-1.3,0.3s-0.6,0.4-0.8,0.8c-0.2,0.3-0.3,0.7-0.3,1.2l-0.6-0.2c0-0.9,0.1-1.7,0.4-2.4c0.2-0.7,0.6-1.3,1-1.7
				s1-0.6,1.7-0.6c0.2,0,0.3,0,0.5,0C651.3,106.4,651.4,106.4,651.5,106.4z"/>
			<path class="st6" d="M664,110.6l0,1.6h-1.6c-0.7,0-1.3,0.2-1.6,0.5s-0.5,0.7-0.5,1.2c0,0.4,0.1,0.7,0.4,0.9
				c0.2,0.2,0.6,0.4,1,0.4c0.4,0,0.8-0.1,1.1-0.3s0.6-0.4,0.7-0.6c0.2-0.2,0.3-0.5,0.3-0.7l0.7,1.2c-0.1,0.3-0.2,0.5-0.4,0.8
				c-0.2,0.3-0.4,0.6-0.7,0.8s-0.6,0.5-1,0.6c-0.4,0.2-0.8,0.2-1.4,0.2c-0.7,0-1.3-0.1-1.8-0.4c-0.5-0.3-1-0.6-1.3-1.1
				c-0.3-0.5-0.5-1-0.5-1.6c0-1.1,0.4-2,1.2-2.6s2-0.9,3.7-0.9H664z M663.6,114.7V110c0-0.5-0.1-0.9-0.4-1.2
				c-0.3-0.3-0.6-0.4-1.2-0.4c-0.3,0-0.6,0.1-0.8,0.2c-0.2,0.1-0.4,0.3-0.5,0.5c-0.1,0.2-0.2,0.4-0.2,0.7h-2.8
				c0-0.6,0.2-1.2,0.6-1.7c0.4-0.5,0.9-0.9,1.6-1.2s1.5-0.5,2.4-0.5c0.8,0,1.5,0.1,2.2,0.4c0.6,0.3,1.1,0.7,1.5,1.2
				c0.4,0.5,0.6,1.2,0.6,2.1v4.5c0,0.6,0,1.1,0.1,1.4c0.1,0.4,0.2,0.7,0.3,1v0.2H664c-0.1-0.3-0.2-0.6-0.3-1.1
				S663.6,115.1,663.6,114.7z"/>
			<path class="st6" d="M679.3,114.1c0-0.2-0.1-0.4-0.2-0.5s-0.3-0.3-0.6-0.5c-0.3-0.1-0.8-0.3-1.4-0.4c-0.7-0.2-1.4-0.4-1.9-0.6
				s-1-0.6-1.3-1c-0.3-0.4-0.5-0.9-0.5-1.5c0-0.6,0.2-1.1,0.5-1.6c0.3-0.5,0.8-0.9,1.5-1.2c0.6-0.3,1.4-0.4,2.3-0.4
				c0.9,0,1.7,0.1,2.4,0.4c0.7,0.3,1.2,0.7,1.5,1.2c0.4,0.5,0.5,1.1,0.5,1.7h-2.8c0-0.4-0.1-0.8-0.4-1c-0.3-0.3-0.7-0.4-1.2-0.4
				c-0.3,0-0.6,0.1-0.8,0.2c-0.2,0.1-0.4,0.3-0.5,0.4c-0.1,0.2-0.2,0.4-0.2,0.6s0.1,0.4,0.2,0.6s0.3,0.3,0.6,0.4
				c0.3,0.1,0.7,0.2,1.2,0.3c0.8,0.2,1.4,0.4,2,0.6c0.6,0.3,1.1,0.6,1.4,1s0.5,1,0.5,1.7c0,0.6-0.2,1.2-0.5,1.7
				c-0.4,0.5-0.9,0.9-1.5,1.1s-1.4,0.4-2.4,0.4c-1,0-1.8-0.2-2.5-0.5c-0.7-0.4-1.2-0.8-1.5-1.3c-0.3-0.5-0.5-1.1-0.5-1.7h2.7
				c0,0.4,0.1,0.7,0.3,0.9s0.4,0.4,0.7,0.5c0.3,0.1,0.6,0.2,0.9,0.2c0.4,0,0.7-0.1,0.9-0.2c0.2-0.1,0.4-0.2,0.6-0.4
				S679.3,114.4,679.3,114.1z"/>
			<path class="st6" d="M689.1,106.5v2h-6.2v-2H689.1z M684.4,103.9h2.8v10c0,0.3,0,0.5,0.1,0.7c0.1,0.2,0.2,0.3,0.4,0.3
				c0.2,0.1,0.4,0.1,0.6,0.1c0.2,0,0.3,0,0.5,0c0.1,0,0.3,0,0.4-0.1l0,2.1c-0.2,0.1-0.5,0.1-0.8,0.2c-0.3,0-0.6,0.1-0.9,0.1
				c-0.6,0-1.2-0.1-1.6-0.3s-0.8-0.5-1.1-1c-0.2-0.5-0.4-1.1-0.4-1.8V103.9z"/>
			<path class="st6" d="M693.5,108.8v8.3h-2.8v-10.6h2.6L693.5,108.8z M696.7,106.4l0,2.6c-0.1,0-0.3,0-0.5-0.1c-0.2,0-0.4,0-0.5,0
				c-0.5,0-1,0.1-1.3,0.3s-0.6,0.4-0.8,0.8c-0.2,0.3-0.3,0.7-0.3,1.2l-0.6-0.2c0-0.9,0.1-1.7,0.4-2.4c0.2-0.7,0.6-1.3,1-1.7
				s1-0.6,1.7-0.6c0.2,0,0.3,0,0.5,0C696.4,106.4,696.6,106.4,696.7,106.4z"/>
			<path class="st6" d="M697.5,111.9v-0.2c0-1,0.2-1.9,0.6-2.8s1-1.5,1.7-1.9s1.6-0.7,2.7-0.7c1.1,0,2,0.2,2.7,0.7
				c0.7,0.5,1.3,1.1,1.7,1.9s0.6,1.7,0.6,2.8v0.2c0,1-0.2,1.9-0.6,2.8s-1,1.4-1.7,1.9c-0.7,0.5-1.6,0.7-2.7,0.7
				c-1.1,0-2-0.2-2.7-0.7c-0.7-0.5-1.3-1.1-1.7-1.9S697.5,112.9,697.5,111.9z M700.4,111.7v0.2c0,0.6,0.1,1.1,0.2,1.6
				c0.1,0.5,0.4,0.9,0.7,1.1c0.3,0.3,0.7,0.4,1.3,0.4c0.5,0,1-0.1,1.3-0.4c0.3-0.3,0.5-0.7,0.7-1.1c0.1-0.5,0.2-1,0.2-1.6v-0.2
				c0-0.6-0.1-1.1-0.2-1.6c-0.1-0.5-0.4-0.9-0.7-1.2c-0.3-0.3-0.7-0.4-1.3-0.4c-0.5,0-1,0.1-1.3,0.4c-0.3,0.3-0.6,0.7-0.7,1.2
				C700.4,110.6,700.4,111.1,700.4,111.7z"/>
			<path class="st6" d="M712,108.8v8.3h-2.8v-10.6h2.6L712,108.8z M711.6,111.4h-0.8c0-1,0.2-1.9,0.5-2.7c0.3-0.8,0.8-1.4,1.5-1.8
				c0.6-0.4,1.3-0.6,2.2-0.6c0.7,0,1.2,0.1,1.7,0.4c0.5,0.3,0.9,0.7,1.2,1.3c0.3,0.6,0.4,1.4,0.4,2.4v6.7h-2.8v-6.7
				c0-0.5-0.1-0.8-0.2-1.1c-0.1-0.3-0.3-0.4-0.6-0.6c-0.3-0.1-0.6-0.2-0.9-0.2c-0.4,0-0.7,0.1-1,0.2c-0.3,0.1-0.5,0.4-0.7,0.6
				c-0.2,0.3-0.3,0.6-0.4,0.9C711.7,110.6,711.6,111,711.6,111.4z"/>
			<path class="st6" d="M720.1,111.9v-0.2c0-1.1,0.2-2,0.5-2.8c0.3-0.8,0.8-1.4,1.5-1.9c0.6-0.5,1.4-0.7,2.3-0.7
				c0.7,0,1.3,0.1,1.8,0.4c0.5,0.3,0.9,0.6,1.2,1.1c0.3,0.5,0.5,1,0.7,1.7c0.2,0.6,0.3,1.4,0.4,2.1v0.4c-0.1,1-0.3,1.9-0.7,2.6
				s-0.7,1.4-1.3,1.9c-0.6,0.5-1.3,0.7-2.1,0.7c-0.9,0-1.6-0.2-2.3-0.7c-0.6-0.5-1.1-1.1-1.5-1.9
				C720.2,113.8,720.1,112.9,720.1,111.9z M727.2,106.5h2.5v10.2c0,1-0.2,1.8-0.6,2.5c-0.4,0.7-1,1.2-1.8,1.5s-1.6,0.5-2.7,0.5
				c-0.4,0-0.9-0.1-1.4-0.2c-0.5-0.1-1-0.3-1.4-0.5c-0.4-0.2-0.8-0.6-1.1-0.9l1.2-1.7c0.3,0.4,0.7,0.7,1.1,0.9s0.9,0.3,1.4,0.3
				c0.8,0,1.3-0.2,1.8-0.6c0.4-0.4,0.6-1,0.6-1.8v-7.8L727.2,106.5z M722.9,111.7v0.2c0,0.6,0.1,1.1,0.2,1.6s0.4,0.9,0.7,1.1
				c0.3,0.3,0.7,0.4,1.2,0.4c0.5,0,0.9-0.1,1.3-0.3c0.3-0.2,0.6-0.5,0.7-0.9c0.2-0.4,0.3-0.8,0.3-1.3v-1.3c0-0.4-0.1-0.8-0.2-1.1
				s-0.2-0.6-0.4-0.8s-0.4-0.4-0.7-0.5c-0.3-0.1-0.6-0.2-1-0.2c-0.5,0-0.9,0.1-1.2,0.4s-0.6,0.7-0.7,1.1
				C723,110.6,722.9,111.1,722.9,111.7z"/>
			<path class="st6" d="M741.3,115.1c0.3,0,0.7-0.1,0.9-0.2c0.3-0.1,0.5-0.3,0.6-0.6c0.2-0.2,0.2-0.5,0.2-0.9h2.6
				c0,0.7-0.2,1.4-0.6,2s-0.9,1-1.6,1.4c-0.7,0.3-1.4,0.5-2.2,0.5c-1.1,0-2-0.2-2.7-0.7c-0.7-0.5-1.3-1.1-1.6-1.9
				c-0.4-0.8-0.5-1.7-0.5-2.7v-0.3c0-1,0.2-1.9,0.5-2.7c0.4-0.8,0.9-1.4,1.6-1.9c0.7-0.5,1.6-0.7,2.7-0.7c0.9,0,1.6,0.2,2.3,0.5
				s1.2,0.8,1.5,1.4c0.4,0.6,0.6,1.3,0.6,2.2h-2.6c0-0.4-0.1-0.7-0.2-1c-0.1-0.3-0.3-0.5-0.6-0.7s-0.6-0.3-1-0.3
				c-0.5,0-1,0.1-1.2,0.4c-0.3,0.3-0.5,0.7-0.6,1.2c-0.1,0.5-0.2,1-0.2,1.5v0.3c0,0.6,0.1,1.1,0.2,1.5c0.1,0.5,0.3,0.9,0.6,1.2
				C740.4,114.9,740.8,115.1,741.3,115.1z"/>
			<path class="st6" d="M746.9,111.9v-0.2c0-1,0.2-1.9,0.6-2.8s1-1.5,1.7-1.9s1.6-0.7,2.7-0.7c1.1,0,2,0.2,2.7,0.7
				c0.7,0.5,1.3,1.1,1.7,1.9s0.6,1.7,0.6,2.8v0.2c0,1-0.2,1.9-0.6,2.8s-1,1.4-1.7,1.9c-0.7,0.5-1.6,0.7-2.7,0.7
				c-1.1,0-2-0.2-2.7-0.7c-0.7-0.5-1.3-1.1-1.7-1.9S746.9,112.9,746.9,111.9z M749.7,111.7v0.2c0,0.6,0.1,1.1,0.2,1.6
				c0.1,0.5,0.4,0.9,0.7,1.1c0.3,0.3,0.7,0.4,1.3,0.4c0.5,0,1-0.1,1.3-0.4c0.3-0.3,0.5-0.7,0.7-1.1c0.1-0.5,0.2-1,0.2-1.6v-0.2
				c0-0.6-0.1-1.1-0.2-1.6c-0.1-0.5-0.4-0.9-0.7-1.2c-0.3-0.3-0.7-0.4-1.3-0.4c-0.5,0-1,0.1-1.3,0.4c-0.3,0.3-0.6,0.7-0.7,1.2
				C749.8,110.6,749.7,111.1,749.7,111.7z"/>
			<path class="st6" d="M761.5,108.7v8.4h-2.8v-10.6h2.6L761.5,108.7z M761.1,111.4h-0.8c0-1,0.2-1.9,0.5-2.6
				c0.3-0.8,0.8-1.4,1.4-1.8c0.6-0.4,1.4-0.7,2.3-0.7c0.9,0,1.7,0.3,2.3,0.9c0.6,0.6,0.9,1.5,0.9,2.8v7.1h-2.8v-6.7
				c0-0.5-0.1-0.9-0.2-1.1c-0.1-0.3-0.3-0.4-0.6-0.5c-0.2-0.1-0.5-0.2-0.9-0.2c-0.4,0-0.7,0.1-1,0.2c-0.3,0.1-0.5,0.4-0.7,0.6
				s-0.3,0.6-0.4,0.9C761.1,110.6,761.1,111,761.1,111.4z M767.4,111.1l-1,0.1c0-0.9,0.2-1.7,0.5-2.5c0.3-0.7,0.8-1.3,1.4-1.8
				c0.6-0.4,1.3-0.7,2.2-0.7c0.7,0,1.3,0.1,1.8,0.4c0.5,0.3,0.9,0.7,1.2,1.3c0.3,0.6,0.4,1.4,0.4,2.3v6.7H771v-6.7
				c0-0.5-0.1-0.9-0.2-1.1s-0.3-0.4-0.5-0.5c-0.2-0.1-0.5-0.2-0.8-0.2c-0.3,0-0.6,0.1-0.9,0.2s-0.5,0.3-0.6,0.6
				c-0.2,0.2-0.3,0.5-0.4,0.8C767.4,110.4,767.4,110.7,767.4,111.1z"/>
			<path class="st6" d="M778.8,108.7v8.4H776v-10.6h2.6L778.8,108.7z M778.4,111.4h-0.8c0-1,0.2-1.9,0.5-2.6
				c0.3-0.8,0.8-1.4,1.4-1.8c0.6-0.4,1.4-0.7,2.3-0.7c0.9,0,1.7,0.3,2.3,0.9c0.6,0.6,0.9,1.5,0.9,2.8v7.1h-2.8v-6.7
				c0-0.5-0.1-0.9-0.2-1.1c-0.1-0.3-0.3-0.4-0.6-0.5c-0.2-0.1-0.5-0.2-0.9-0.2c-0.4,0-0.7,0.1-1,0.2c-0.3,0.1-0.5,0.4-0.7,0.6
				s-0.3,0.6-0.4,0.9C778.5,110.6,778.4,111,778.4,111.4z M784.7,111.1l-1,0.1c0-0.9,0.2-1.7,0.5-2.5c0.3-0.7,0.8-1.3,1.4-1.8
				c0.6-0.4,1.3-0.7,2.2-0.7c0.7,0,1.3,0.1,1.8,0.4c0.5,0.3,0.9,0.7,1.2,1.3c0.3,0.6,0.4,1.4,0.4,2.3v6.7h-2.8v-6.7
				c0-0.5-0.1-0.9-0.2-1.1s-0.3-0.4-0.5-0.5c-0.2-0.1-0.5-0.2-0.8-0.2c-0.3,0-0.6,0.1-0.9,0.2s-0.5,0.3-0.6,0.6
				c-0.2,0.2-0.3,0.5-0.4,0.8C784.7,110.4,784.7,110.7,784.7,111.1z"/>
			<path class="st6" d="M799.9,112.4l0.8,0c0,0.9-0.1,1.8-0.4,2.5c-0.3,0.7-0.7,1.3-1.3,1.8c-0.6,0.4-1.3,0.6-2.2,0.6
				c-1,0-1.9-0.3-2.5-0.9s-1-1.6-1-3v-6.8h2.8v6.8c0,0.4,0.1,0.7,0.2,1c0.1,0.3,0.3,0.4,0.5,0.5c0.2,0.1,0.5,0.2,0.8,0.2
				c0.6,0,1-0.1,1.4-0.4c0.3-0.2,0.6-0.6,0.7-1C799.8,113.3,799.9,112.9,799.9,112.4z M799.6,114.5v-8h2.8v10.6h-2.6L799.6,114.5z"
				/>
			<path class="st6" d="M807.3,108.8v8.3h-2.8v-10.6h2.6L807.3,108.8z M806.9,111.4h-0.8c0-1,0.2-1.9,0.5-2.7
				c0.3-0.8,0.8-1.4,1.5-1.8c0.6-0.4,1.3-0.6,2.2-0.6c0.7,0,1.2,0.1,1.7,0.4c0.5,0.3,0.9,0.7,1.2,1.3c0.3,0.6,0.4,1.4,0.4,2.4v6.7
				h-2.8v-6.7c0-0.5-0.1-0.8-0.2-1.1c-0.1-0.3-0.3-0.4-0.6-0.6c-0.3-0.1-0.6-0.2-0.9-0.2c-0.4,0-0.7,0.1-1,0.2
				c-0.3,0.1-0.5,0.4-0.7,0.6c-0.2,0.3-0.3,0.6-0.4,0.9C806.9,110.6,806.9,111,806.9,111.4z"/>
			<path class="st6" d="M815.7,103.7c0-0.4,0.1-0.7,0.4-1c0.3-0.3,0.7-0.4,1.2-0.4c0.5,0,0.9,0.1,1.1,0.4c0.3,0.3,0.4,0.6,0.4,1
				s-0.1,0.7-0.4,1c-0.3,0.3-0.7,0.4-1.1,0.4c-0.5,0-0.9-0.1-1.2-0.4C815.8,104.5,815.7,104.2,815.7,103.7z M818.7,106.5v10.6h-2.8
				v-10.6H818.7z"/>
			<path class="st6" d="M826.2,106.5v2H820v-2H826.2z M821.6,103.9h2.8v10c0,0.3,0,0.5,0.1,0.7c0.1,0.2,0.2,0.3,0.4,0.3
				c0.2,0.1,0.4,0.1,0.6,0.1c0.2,0,0.3,0,0.5,0c0.1,0,0.3,0,0.4-0.1l0,2.1c-0.2,0.1-0.5,0.1-0.8,0.2c-0.3,0-0.6,0.1-0.9,0.1
				c-0.6,0-1.2-0.1-1.6-0.3s-0.8-0.5-1.1-1c-0.2-0.5-0.4-1.1-0.4-1.8V103.9z"/>
			<path class="st6" d="M829.8,106.5l2.3,7.7l0.4,3l-1.9,0.2l-3.8-10.8H829.8z M830.9,115.9l2.8-9.4h3l-4.2,12.2
				c-0.1,0.3-0.2,0.6-0.4,0.9c-0.2,0.3-0.4,0.6-0.6,0.9c-0.3,0.3-0.6,0.5-1,0.7c-0.4,0.2-0.9,0.3-1.4,0.3c-0.3,0-0.5,0-0.7,0
				c-0.2,0-0.4-0.1-0.6-0.1v-2.1c0.1,0,0.1,0,0.2,0s0.2,0,0.2,0c0.6,0,1-0.1,1.2-0.3c0.3-0.2,0.5-0.5,0.6-0.9L830.9,115.9z"/>
		</g>
	</g>
	<g>
		<g>
			<path class="st7" d="M1121.3,130.4v7c-0.3,0.3-0.7,0.7-1.3,1.1c-0.6,0.4-1.3,0.7-2.2,1c-0.9,0.3-2,0.4-3.3,0.4
				c-1.5,0-2.9-0.3-4-1c-1.2-0.7-2.1-1.6-2.7-2.9c-0.6-1.3-1-2.8-1-4.6v-1.1c0-1.8,0.3-3.4,0.9-4.7c0.6-1.3,1.5-2.3,2.6-2.9
				c1.1-0.7,2.4-1,3.9-1c1.5,0,2.8,0.3,3.8,0.8c1,0.5,1.8,1.2,2.3,2.1c0.5,0.9,0.8,1.9,1,3h-3.6c-0.1-0.6-0.3-1.1-0.5-1.6
				c-0.3-0.4-0.6-0.8-1.1-1c-0.5-0.3-1.1-0.4-1.8-0.4c-0.8,0-1.5,0.2-2.1,0.7c-0.6,0.4-1,1.1-1.3,1.9c-0.3,0.8-0.5,1.9-0.5,3.1v1.1
				c0,1.2,0.2,2.3,0.5,3.1c0.3,0.9,0.8,1.5,1.4,1.9c0.6,0.4,1.4,0.7,2.3,0.7c0.6,0,1.1,0,1.4-0.1c0.4-0.1,0.7-0.2,0.9-0.4
				c0.2-0.1,0.4-0.3,0.6-0.4V133h-3.3v-2.6H1121.3z"/>
			<path class="st7" d="M1131.6,131.7l0,2h-2c-0.9,0-1.6,0.2-2,0.6c-0.4,0.4-0.6,0.9-0.6,1.5c0,0.5,0.2,0.8,0.5,1.1
				c0.3,0.3,0.7,0.4,1.3,0.4c0.5,0,1-0.1,1.4-0.3c0.4-0.2,0.7-0.5,0.9-0.8c0.2-0.3,0.3-0.6,0.3-0.9l0.9,1.5c-0.1,0.3-0.3,0.7-0.5,1
				c-0.2,0.4-0.5,0.7-0.8,1c-0.3,0.3-0.8,0.6-1.2,0.8c-0.5,0.2-1,0.3-1.7,0.3c-0.8,0-1.6-0.2-2.3-0.5c-0.7-0.3-1.2-0.8-1.6-1.4
				c-0.4-0.6-0.6-1.3-0.6-2c0-1.4,0.5-2.4,1.5-3.2s2.6-1.1,4.6-1.1H1131.6z M1131.1,136.7v-5.9c0-0.6-0.2-1.1-0.5-1.5
				c-0.3-0.4-0.8-0.6-1.5-0.6c-0.4,0-0.7,0.1-1,0.2c-0.3,0.1-0.5,0.3-0.7,0.6c-0.2,0.2-0.2,0.5-0.2,0.9h-3.5c0-0.8,0.2-1.5,0.7-2.1
				c0.5-0.6,1.1-1.1,2-1.5c0.8-0.4,1.8-0.6,3-0.6c1,0,1.9,0.2,2.7,0.5s1.4,0.9,1.9,1.5c0.5,0.7,0.7,1.5,0.7,2.6v5.7
				c0,0.7,0,1.3,0.1,1.8c0.1,0.5,0.2,0.9,0.4,1.2v0.2h-3.6c-0.2-0.4-0.3-0.8-0.4-1.3C1131.2,137.8,1131.1,137.3,1131.1,136.7z"/>
			<path class="st7" d="M1140.9,129.2v10.5h-3.5v-13.2h3.3L1140.9,129.2z M1140.4,132.7h-1c0-1.2,0.2-2.3,0.6-3.3
				c0.4-1,1-1.7,1.7-2.3c0.8-0.6,1.7-0.8,2.8-0.8c1.2,0,2.1,0.4,2.9,1.1c0.7,0.7,1.1,1.9,1.1,3.6v8.8h-3.5v-8.4
				c0-0.6-0.1-1.1-0.2-1.4c-0.2-0.3-0.4-0.6-0.7-0.7c-0.3-0.1-0.7-0.2-1.1-0.2c-0.5,0-0.9,0.1-1.2,0.3c-0.3,0.2-0.6,0.4-0.8,0.8
				c-0.2,0.3-0.4,0.7-0.5,1.2S1140.4,132.1,1140.4,132.7z M1148.3,132.2l-1.3,0.2c0-1.1,0.2-2.2,0.6-3.1c0.4-0.9,1-1.7,1.7-2.2
				c0.8-0.5,1.7-0.8,2.8-0.8c0.9,0,1.6,0.2,2.2,0.5c0.6,0.3,1.1,0.9,1.5,1.6c0.3,0.7,0.5,1.7,0.5,2.9v8.4h-3.5v-8.4
				c0-0.6-0.1-1.1-0.2-1.4c-0.2-0.3-0.4-0.5-0.7-0.7c-0.3-0.1-0.6-0.2-1.1-0.2c-0.4,0-0.8,0.1-1.1,0.2c-0.3,0.2-0.6,0.4-0.8,0.7
				c-0.2,0.3-0.4,0.6-0.5,1C1148.3,131.4,1148.3,131.8,1148.3,132.2z"/>
			<path class="st7" d="M1165.1,140c-1.4,0-2.5-0.3-3.5-0.9c-1-0.6-1.7-1.3-2.3-2.3c-0.5-1-0.8-2-0.8-3.2v-0.5
				c0-1.3,0.2-2.5,0.7-3.5c0.5-1,1.2-1.8,2.1-2.4c0.9-0.6,2-0.9,3.3-0.9c1.3,0,2.3,0.3,3.2,0.8c0.9,0.5,1.5,1.3,2,2.3
				c0.4,1,0.7,2.1,0.7,3.4v1.5H1160v-2.3h7v-0.3c0-0.5-0.1-0.9-0.3-1.3c-0.2-0.4-0.4-0.7-0.8-0.9c-0.3-0.2-0.8-0.3-1.3-0.3
				c-0.6,0-1.1,0.2-1.5,0.5c-0.4,0.4-0.7,0.8-0.8,1.4c-0.2,0.6-0.3,1.3-0.3,2.1v0.5c0,0.7,0.1,1.3,0.4,1.9c0.3,0.5,0.6,1,1.1,1.3
				c0.5,0.3,1.1,0.5,1.8,0.5c0.6,0,1.2-0.1,1.8-0.4c0.5-0.2,1-0.6,1.4-1.1l1.7,1.9c-0.4,0.6-1.1,1.2-1.9,1.6
				C1167.5,139.7,1166.4,140,1165.1,140z"/>
			<path class="st7" d="M1179.7,136.1c0-0.3-0.1-0.5-0.2-0.7c-0.1-0.2-0.4-0.4-0.8-0.6c-0.4-0.2-1-0.3-1.7-0.5
				c-0.9-0.2-1.7-0.5-2.4-0.8c-0.7-0.3-1.3-0.8-1.7-1.3c-0.4-0.5-0.6-1.2-0.6-1.9c0-0.7,0.2-1.4,0.6-2c0.4-0.6,1-1.1,1.8-1.5
				c0.8-0.4,1.7-0.6,2.8-0.6c1.1,0,2.1,0.2,3,0.5c0.8,0.4,1.5,0.9,1.9,1.5c0.4,0.6,0.7,1.4,0.7,2.2h-3.5c0-0.5-0.2-0.9-0.5-1.3
				c-0.3-0.3-0.8-0.5-1.5-0.5c-0.4,0-0.7,0.1-1,0.2c-0.3,0.1-0.5,0.3-0.7,0.5c-0.2,0.2-0.2,0.5-0.2,0.7s0.1,0.5,0.2,0.7
				c0.2,0.2,0.4,0.4,0.8,0.5c0.4,0.2,0.8,0.3,1.5,0.4c1,0.2,1.8,0.4,2.6,0.8c0.7,0.3,1.3,0.7,1.8,1.3c0.4,0.5,0.7,1.2,0.7,2.1
				c0,0.8-0.2,1.5-0.7,2.1s-1.1,1.1-1.9,1.4c-0.8,0.3-1.8,0.5-2.9,0.5c-1.2,0-2.3-0.2-3.1-0.7s-1.5-1-1.9-1.7
				c-0.4-0.7-0.7-1.4-0.7-2.1h3.3c0,0.5,0.1,0.9,0.4,1.2c0.2,0.3,0.5,0.5,0.9,0.6c0.4,0.1,0.8,0.2,1.2,0.2c0.5,0,0.8-0.1,1.1-0.2
				c0.3-0.1,0.5-0.3,0.7-0.5C1179.6,136.6,1179.7,136.4,1179.7,136.1z"/>
		</g>
	</g>
	<g>
		<g>
			<path class="st7" d="M988.3,199.8v16.4h-3.4l-6.6-11v11h-3.4v-16.4h3.4l6.6,11v-11H988.3z"/>
			<path class="st7" d="M1004.6,207.6v0.8c0,1.7-0.3,3.1-0.9,4.3c-0.6,1.2-1.4,2.1-2.4,2.8c-1,0.6-2.3,1-3.6,1c-1.4,0-2.6-0.3-3.6-1
				c-1-0.6-1.9-1.6-2.5-2.8c-0.6-1.2-0.9-2.6-0.9-4.3v-0.8c0-1.7,0.3-3.1,0.9-4.3c0.6-1.2,1.4-2.1,2.5-2.8c1-0.6,2.2-1,3.6-1
				c1.4,0,2.6,0.3,3.6,1s1.9,1.6,2.5,2.8C1004.3,204.5,1004.6,205.9,1004.6,207.6z M1001.2,208.4v-0.8c0-1.2-0.1-2.1-0.4-2.9
				c-0.3-0.8-0.7-1.4-1.2-1.8c-0.5-0.4-1.2-0.6-1.9-0.6c-0.8,0-1.4,0.2-1.9,0.6c-0.5,0.4-0.9,1-1.2,1.8c-0.3,0.8-0.4,1.8-0.4,2.9
				v0.8c0,1.1,0.1,2.1,0.4,2.9c0.3,0.8,0.7,1.4,1.2,1.8c0.5,0.4,1.2,0.6,1.9,0.6c0.8,0,1.4-0.2,1.9-0.6c0.5-0.4,0.9-1,1.2-1.8
				C1001.1,210.5,1001.2,209.5,1001.2,208.4z"/>
			<path class="st7" d="M1009.3,199.8l2.7,13.8l-0.2,2.6h-2.2l-3.6-16.4H1009.3z M1011,213.6l3.3-13.8h1.8l0.4,2.3l-3.5,14.1h-2
				L1011,213.6z M1017.1,199.8l3.3,13.8l-0.1,2.5h-2l-3.5-14.1l0.4-2.3H1017.1z M1019.3,213.5l2.7-13.7h3.3l-3.6,16.4h-2.2
				L1019.3,213.5z"/>
			<path class="st7" d="M1027.2,199.8h6.1c1.2,0,2.3,0.2,3.2,0.6s1.6,0.9,2.1,1.7c0.5,0.7,0.7,1.6,0.7,2.7c0,0.9-0.1,1.6-0.4,2.3
				c-0.3,0.6-0.7,1.1-1.2,1.6c-0.5,0.4-1.2,0.7-1.9,1l-1.1,0.6h-5.3l0-2.6h3.9c0.6,0,1.1-0.1,1.5-0.3c0.4-0.2,0.7-0.5,0.9-0.9
				s0.3-0.8,0.3-1.3c0-0.8-0.2-1.4-0.7-1.9c-0.4-0.5-1.1-0.7-2-0.7h-2.7v13.7h-3.4V199.8z M1036.3,216.2l-3.7-7.3l3.6,0l3.8,7.2v0.2
				H1036.3z"/>
			<path class="st7" d="M1050.9,199.8h3.4v10.8c0,1.3-0.3,2.3-0.8,3.2c-0.5,0.9-1.3,1.5-2.2,1.9s-2,0.7-3.2,0.7
				c-1.2,0-2.3-0.2-3.3-0.7s-1.7-1.1-2.2-1.9s-0.8-1.9-0.8-3.2v-10.8h3.4v10.8c0,0.7,0.1,1.3,0.3,1.8c0.2,0.5,0.6,0.8,1,1
				c0.4,0.2,1,0.3,1.6,0.3c0.6,0,1.1-0.1,1.6-0.3c0.4-0.2,0.8-0.6,1-1c0.2-0.5,0.3-1.1,0.3-1.8V199.8z"/>
			<path class="st7" d="M1068.7,201.7l-9.9,14.5h-2.4v-1.9l10-14.4h2.3V201.7z M1067.6,199.8v2.6h-11.1v-2.6H1067.6z M1068.9,213.5
				v2.6h-11.6v-2.6H1068.9z"/>
		</g>
	</g>
	<g>
		<g>
			<path class="st7" d="M314.1,423.5v7c-0.3,0.3-0.7,0.7-1.3,1.1c-0.6,0.4-1.3,0.7-2.2,1c-0.9,0.3-2,0.4-3.3,0.4c-1.5,0-2.9-0.3-4-1
				c-1.2-0.7-2.1-1.6-2.7-2.9c-0.6-1.3-1-2.8-1-4.6v-1.1c0-1.8,0.3-3.4,0.9-4.7c0.6-1.3,1.5-2.3,2.6-2.9c1.1-0.7,2.4-1,3.9-1
				c1.5,0,2.8,0.2,3.8,0.8c1,0.5,1.8,1.2,2.3,2.1c0.5,0.9,0.8,1.9,1,3h-3.6c-0.1-0.6-0.3-1.1-0.5-1.6c-0.3-0.4-0.6-0.8-1.1-1
				c-0.5-0.3-1.1-0.4-1.8-0.4c-0.8,0-1.5,0.2-2.1,0.7c-0.6,0.4-1,1.1-1.3,1.9c-0.3,0.8-0.5,1.9-0.5,3.1v1.1c0,1.2,0.2,2.3,0.5,3.1
				c0.3,0.9,0.8,1.5,1.4,1.9c0.6,0.4,1.4,0.7,2.3,0.7c0.6,0,1.1,0,1.4-0.1c0.4-0.1,0.7-0.2,0.9-0.4c0.2-0.1,0.4-0.3,0.6-0.4v-3.1
				H307v-2.6H314.1z"/>
			<path class="st7" d="M324.4,424.8l0,2h-2c-0.9,0-1.6,0.2-2,0.6c-0.4,0.4-0.6,0.9-0.6,1.5c0,0.5,0.2,0.8,0.5,1.1
				c0.3,0.3,0.7,0.4,1.3,0.4c0.5,0,1-0.1,1.4-0.3s0.7-0.5,0.9-0.8c0.2-0.3,0.3-0.6,0.3-0.9l0.9,1.5c-0.1,0.3-0.3,0.7-0.5,1
				c-0.2,0.4-0.5,0.7-0.8,1c-0.3,0.3-0.8,0.6-1.2,0.8c-0.5,0.2-1,0.3-1.7,0.3c-0.8,0-1.6-0.2-2.3-0.5c-0.7-0.3-1.2-0.8-1.6-1.4
				c-0.4-0.6-0.6-1.3-0.6-2c0-1.4,0.5-2.4,1.5-3.2s2.6-1.1,4.6-1.1H324.4z M323.9,429.8v-5.9c0-0.6-0.2-1.1-0.5-1.5
				c-0.3-0.4-0.8-0.6-1.5-0.6c-0.4,0-0.7,0.1-1,0.2c-0.3,0.1-0.5,0.3-0.7,0.6c-0.2,0.2-0.2,0.5-0.2,0.9h-3.5c0-0.8,0.2-1.5,0.7-2.1
				c0.5-0.6,1.1-1.1,2-1.5c0.8-0.4,1.8-0.6,3-0.6c1,0,1.9,0.2,2.7,0.5c0.8,0.3,1.4,0.9,1.9,1.5c0.5,0.7,0.7,1.5,0.7,2.6v5.7
				c0,0.7,0,1.3,0.1,1.8c0.1,0.5,0.2,0.9,0.4,1.2v0.2h-3.6c-0.2-0.4-0.3-0.8-0.4-1.3C324,430.9,323.9,430.4,323.9,429.8z"/>
			<path class="st7" d="M333.7,422.3v10.5h-3.5v-13.2h3.3L333.7,422.3z M333.2,425.7h-1c0-1.2,0.2-2.3,0.6-3.3c0.4-1,1-1.7,1.7-2.3
				c0.8-0.6,1.7-0.8,2.8-0.8c1.2,0,2.1,0.4,2.9,1.1c0.7,0.7,1.1,1.9,1.1,3.6v8.8h-3.5v-8.4c0-0.6-0.1-1.1-0.2-1.4
				c-0.2-0.3-0.4-0.6-0.7-0.7c-0.3-0.1-0.7-0.2-1.1-0.2c-0.5,0-0.9,0.1-1.2,0.3c-0.3,0.2-0.6,0.4-0.8,0.8c-0.2,0.3-0.4,0.7-0.5,1.2
				C333.2,424.8,333.2,425.2,333.2,425.7z M341.1,425.3l-1.3,0.2c0-1.1,0.2-2.2,0.6-3.1c0.4-0.9,1-1.7,1.7-2.2
				c0.8-0.5,1.7-0.8,2.8-0.8c0.9,0,1.6,0.2,2.2,0.5c0.6,0.3,1.1,0.9,1.5,1.6c0.3,0.7,0.5,1.7,0.5,2.9v8.4h-3.5v-8.4
				c0-0.6-0.1-1.1-0.2-1.4c-0.2-0.3-0.4-0.5-0.7-0.7c-0.3-0.1-0.6-0.2-1.1-0.2c-0.4,0-0.8,0.1-1.1,0.2c-0.3,0.2-0.6,0.4-0.8,0.7
				c-0.2,0.3-0.4,0.6-0.5,1C341.1,424.4,341.1,424.9,341.1,425.3z"/>
			<path class="st7" d="M357.9,433c-1.4,0-2.5-0.3-3.5-0.9c-1-0.6-1.7-1.3-2.3-2.3c-0.5-1-0.8-2-0.8-3.2v-0.5c0-1.3,0.2-2.5,0.7-3.5
				c0.5-1,1.2-1.8,2.1-2.4s2-0.9,3.3-0.9c1.3,0,2.3,0.3,3.2,0.8c0.9,0.5,1.5,1.3,2,2.3c0.4,1,0.7,2.1,0.7,3.4v1.5h-10.5v-2.3h7v-0.3
				c0-0.5-0.1-0.9-0.3-1.3c-0.2-0.4-0.4-0.7-0.8-0.9c-0.4-0.2-0.8-0.3-1.3-0.3c-0.6,0-1.1,0.2-1.5,0.5c-0.4,0.4-0.7,0.8-0.8,1.4
				c-0.2,0.6-0.3,1.3-0.3,2.1v0.5c0,0.7,0.1,1.3,0.4,1.9c0.3,0.5,0.6,1,1.1,1.3c0.5,0.3,1.1,0.5,1.8,0.5c0.6,0,1.2-0.1,1.8-0.4
				c0.5-0.2,1-0.6,1.4-1.1l1.7,1.9c-0.4,0.6-1.1,1.2-1.9,1.6C360.2,432.8,359.2,433,357.9,433z"/>
			<path class="st7" d="M372.5,429.1c0-0.3-0.1-0.5-0.2-0.7s-0.4-0.4-0.8-0.6c-0.4-0.2-1-0.3-1.7-0.5c-0.9-0.2-1.7-0.5-2.4-0.8
				c-0.7-0.3-1.3-0.8-1.7-1.3c-0.4-0.5-0.6-1.2-0.6-1.9c0-0.7,0.2-1.4,0.6-2c0.4-0.6,1-1.1,1.8-1.5c0.8-0.4,1.7-0.6,2.8-0.6
				c1.1,0,2.1,0.2,3,0.5c0.8,0.4,1.5,0.9,1.9,1.5c0.4,0.6,0.7,1.4,0.7,2.2h-3.5c0-0.5-0.2-0.9-0.5-1.3c-0.3-0.3-0.8-0.5-1.5-0.5
				c-0.4,0-0.7,0.1-1,0.2c-0.3,0.1-0.5,0.3-0.7,0.5c-0.2,0.2-0.2,0.5-0.2,0.7s0.1,0.5,0.2,0.7c0.2,0.2,0.4,0.4,0.8,0.5
				c0.4,0.2,0.8,0.3,1.5,0.4c1,0.2,1.8,0.5,2.6,0.8c0.7,0.3,1.3,0.7,1.8,1.3c0.4,0.5,0.7,1.2,0.7,2.1c0,0.8-0.2,1.5-0.7,2.1
				c-0.5,0.6-1.1,1.1-1.9,1.4s-1.8,0.5-2.9,0.5c-1.2,0-2.3-0.2-3.1-0.7c-0.9-0.4-1.5-1-1.9-1.7c-0.4-0.7-0.7-1.4-0.7-2.1h3.3
				c0,0.5,0.1,0.9,0.4,1.2c0.2,0.3,0.5,0.5,0.9,0.6c0.4,0.1,0.8,0.2,1.2,0.2c0.5,0,0.8-0.1,1.1-0.2c0.3-0.1,0.5-0.3,0.7-0.5
				C372.4,429.7,372.5,429.4,372.5,429.1z"/>
		</g>
	</g>
	<g>
		<g>
			<path class="st7" d="M267.9,578.4v16.4h-3.4v-16.4H267.9z M275.1,592.1v2.6h-8.2v-2.6H275.1z"/>
			<path class="st7" d="M290,586.2v6.5c-0.3,0.3-0.6,0.6-1.2,1s-1.2,0.7-2.1,0.9c-0.8,0.3-1.9,0.4-3,0.4c-1.4,0-2.6-0.3-3.7-0.9
				c-1.1-0.6-1.9-1.5-2.5-2.7c-0.6-1.2-0.9-2.6-0.9-4.3v-1c0-1.7,0.3-3.1,0.9-4.3c0.6-1.2,1.4-2.1,2.4-2.7c1-0.6,2.2-0.9,3.6-0.9
				c1.4,0,2.6,0.2,3.5,0.7c0.9,0.5,1.6,1.1,2.1,1.9c0.5,0.8,0.8,1.7,0.9,2.8h-3.3c-0.1-0.6-0.2-1-0.5-1.4c-0.2-0.4-0.6-0.7-1-1
				c-0.4-0.2-1-0.3-1.7-0.3c-0.7,0-1.4,0.2-1.9,0.6s-0.9,1-1.2,1.8c-0.3,0.8-0.4,1.7-0.4,2.9v1c0,1.1,0.1,2.1,0.4,2.9
				s0.7,1.4,1.3,1.8c0.6,0.4,1.3,0.6,2.1,0.6c0.5,0,1,0,1.3-0.1c0.4-0.1,0.6-0.2,0.9-0.3c0.2-0.1,0.4-0.3,0.5-0.4v-2.9h-3.1v-2.4
				H290z"/>
			<path class="st7" d="M299.1,587.6h-4.2l0-2.3h3.5c0.9,0,1.6-0.2,2-0.5c0.4-0.4,0.7-0.9,0.7-1.6c0-0.8-0.2-1.3-0.7-1.6
				c-0.4-0.3-1.1-0.5-2.1-0.5h-2.3v13.7h-3.4v-16.4h5.7c1.9,0,3.4,0.4,4.5,1.1c1.1,0.7,1.6,1.8,1.6,3.4c0,0.7-0.2,1.3-0.5,1.9
				c-0.3,0.6-0.8,1-1.4,1.4c-0.6,0.4-1.5,0.6-2.5,0.6L299.1,587.6z M298.9,594.7h-5l1.3-2.6h3.7c0.9,0,1.5-0.2,1.9-0.6
				c0.4-0.4,0.6-0.9,0.6-1.6c0-0.5-0.1-0.9-0.2-1.2c-0.2-0.4-0.4-0.6-0.8-0.8c-0.4-0.2-0.8-0.3-1.4-0.3h-3.2l0-2.3h4l0.8,0.9
				c1,0,1.8,0.2,2.4,0.5c0.6,0.4,1.1,0.8,1.3,1.4c0.3,0.6,0.4,1.2,0.4,1.9c0,1.6-0.5,2.8-1.5,3.6
				C302.3,594.3,300.8,594.7,298.9,594.7z"/>
			<path class="st7" d="M319.7,578.4v2.6h-13.3v-2.6H319.7z M314.7,578.4v16.4h-3.4v-16.4H314.7z"/>
			<path class="st7" d="M335,586.2v0.8c0,1.7-0.3,3.1-0.9,4.3c-0.6,1.2-1.4,2.1-2.4,2.8c-1,0.6-2.3,1-3.6,1c-1.4,0-2.6-0.3-3.6-1
				c-1.1-0.6-1.9-1.6-2.5-2.8c-0.6-1.2-0.9-2.6-0.9-4.3v-0.8c0-1.7,0.3-3.1,0.9-4.3c0.6-1.2,1.4-2.1,2.5-2.8c1-0.6,2.3-1,3.6-1
				c1.4,0,2.6,0.3,3.6,1c1,0.6,1.9,1.6,2.5,2.8C334.7,583.1,335,584.5,335,586.2z M331.6,587v-0.8c0-1.2-0.1-2.1-0.4-2.9
				c-0.3-0.8-0.7-1.4-1.2-1.8c-0.5-0.4-1.2-0.6-1.9-0.6c-0.8,0-1.4,0.2-1.9,0.6c-0.5,0.4-0.9,1-1.2,1.8c-0.3,0.8-0.4,1.8-0.4,2.9
				v0.8c0,1.1,0.1,2.1,0.4,2.9c0.3,0.8,0.7,1.4,1.2,1.8c0.5,0.4,1.2,0.6,1.9,0.6c0.8,0,1.4-0.2,1.9-0.6c0.5-0.4,0.9-1,1.2-1.8
				C331.5,589.1,331.6,588.1,331.6,587z M330.5,592.3l4.4,3.5l-2.1,1.8l-4.4-3.5L330.5,592.3z"/>
			<path class="st7" d="M343.6,594.3h-2.5v-4.2h-3.7v-2.5h3.7v-3.9h2.5v3.9h3.7v2.5h-3.7V594.3z"/>
		</g>
	</g>
	<g>
		<g>
			<path class="st7" d="M364.6,492.7l2.6,8.8l0.5,3.4l-2.2,0.2l-4.4-12.5H364.6z M365.9,503.4l3.2-10.8h3.5l-4.9,14
				c-0.1,0.3-0.2,0.6-0.4,1c-0.2,0.4-0.4,0.7-0.7,1c-0.3,0.3-0.7,0.6-1.1,0.8c-0.4,0.2-1,0.3-1.6,0.3c-0.3,0-0.6,0-0.8-0.1
				c-0.2,0-0.4-0.1-0.7-0.2v-2.4c0.1,0,0.2,0,0.3,0s0.2,0,0.3,0c0.6,0,1.1-0.1,1.4-0.3c0.3-0.2,0.5-0.6,0.7-1L365.9,503.4z"/>
			<path class="st7" d="M373.4,498.9v-0.2c0-1.2,0.2-2.2,0.7-3.2c0.4-0.9,1.1-1.7,2-2.2s1.9-0.8,3.1-0.8c1.2,0,2.3,0.3,3.1,0.8
				s1.5,1.3,2,2.2c0.4,0.9,0.7,2,0.7,3.2v0.2c0,1.2-0.2,2.2-0.7,3.2c-0.4,0.9-1.1,1.7-2,2.2c-0.9,0.5-1.9,0.8-3.1,0.8
				c-1.2,0-2.3-0.3-3.1-0.8c-0.9-0.5-1.5-1.3-2-2.2C373.6,501.1,373.4,500,373.4,498.9z M376.6,498.6v0.2c0,0.7,0.1,1.3,0.2,1.8
				c0.2,0.6,0.4,1,0.8,1.3c0.4,0.3,0.9,0.5,1.5,0.5c0.6,0,1.1-0.2,1.5-0.5c0.4-0.3,0.6-0.8,0.8-1.3c0.2-0.6,0.2-1.2,0.2-1.8v-0.2
				c0-0.7-0.1-1.3-0.2-1.8c-0.2-0.6-0.4-1-0.8-1.3s-0.9-0.5-1.5-0.5c-0.6,0-1.1,0.2-1.5,0.5s-0.6,0.8-0.8,1.3
				C376.7,497.4,376.6,498,376.6,498.6z"/>
			<path class="st7" d="M386.4,498.9v-0.2c0-1.2,0.2-2.3,0.6-3.3c0.4-0.9,1-1.7,1.7-2.2c0.7-0.5,1.6-0.8,2.6-0.8
				c0.8,0,1.5,0.1,2,0.4c0.5,0.3,1,0.7,1.3,1.3c0.4,0.6,0.6,1.2,0.8,1.9c0.2,0.7,0.4,1.6,0.5,2.4v0.5c-0.1,1.1-0.4,2.1-0.8,3
				c-0.4,0.9-0.9,1.6-1.5,2.1c-0.6,0.5-1.5,0.8-2.4,0.8c-1,0-1.9-0.3-2.6-0.8c-0.7-0.5-1.3-1.3-1.7-2.2
				C386.6,501.1,386.4,500.1,386.4,498.9z M394.6,492.7h2.9v11.7c0,1.1-0.2,2-0.7,2.8c-0.5,0.8-1.2,1.4-2,1.8
				c-0.9,0.4-1.9,0.6-3.1,0.6c-0.5,0-1-0.1-1.6-0.2c-0.6-0.1-1.1-0.3-1.6-0.6c-0.5-0.3-0.9-0.6-1.3-1.1l1.4-1.9
				c0.4,0.4,0.8,0.8,1.3,1c0.5,0.2,1,0.4,1.6,0.4c0.9,0,1.5-0.2,2-0.7s0.7-1.1,0.7-2v-9L394.6,492.7z M389.6,498.7v0.2
				c0,0.7,0.1,1.3,0.3,1.8c0.2,0.5,0.5,1,0.8,1.3c0.4,0.3,0.8,0.5,1.4,0.5c0.6,0,1.1-0.1,1.4-0.4s0.7-0.6,0.8-1
				c0.2-0.4,0.3-1,0.3-1.5v-1.5c0-0.5-0.1-0.9-0.2-1.3c-0.1-0.4-0.3-0.7-0.5-1s-0.5-0.5-0.8-0.6c-0.3-0.2-0.7-0.2-1.1-0.2
				c-0.6,0-1,0.2-1.4,0.5c-0.4,0.3-0.6,0.8-0.8,1.3C389.7,497.3,389.6,498,389.6,498.7z"/>
			<path class="st7" d="M407,497.4l0,1.8h-1.8c-0.9,0-1.5,0.2-1.9,0.5c-0.4,0.4-0.6,0.8-0.6,1.4c0,0.4,0.1,0.8,0.4,1
				c0.3,0.3,0.7,0.4,1.2,0.4s0.9-0.1,1.3-0.3c0.4-0.2,0.6-0.4,0.8-0.7c0.2-0.3,0.3-0.6,0.3-0.8l0.9,1.4c-0.1,0.3-0.3,0.6-0.5,1
				c-0.2,0.3-0.5,0.6-0.8,0.9c-0.3,0.3-0.7,0.5-1.1,0.7s-1,0.3-1.6,0.3c-0.8,0-1.5-0.2-2.1-0.5c-0.6-0.3-1.1-0.7-1.5-1.3
				c-0.4-0.5-0.5-1.2-0.5-1.9c0-1.3,0.5-2.2,1.4-2.9s2.3-1,4.2-1H407z M406.6,502.1v-5.4c0-0.6-0.1-1-0.4-1.4
				c-0.3-0.3-0.7-0.5-1.4-0.5c-0.4,0-0.7,0.1-0.9,0.2c-0.3,0.1-0.5,0.3-0.6,0.5c-0.1,0.2-0.2,0.5-0.2,0.8h-3.2
				c0-0.7,0.2-1.3,0.6-1.9c0.4-0.6,1-1,1.8-1.4c0.8-0.4,1.7-0.5,2.7-0.5c0.9,0,1.8,0.2,2.5,0.5s1.3,0.8,1.7,1.4
				c0.4,0.6,0.6,1.4,0.6,2.4v5.2c0,0.7,0,1.2,0.1,1.6c0.1,0.4,0.2,0.8,0.4,1.1v0.2h-3.3c-0.2-0.3-0.3-0.7-0.4-1.2
				C406.6,503.1,406.6,502.6,406.6,502.1z"/>
		</g>
	</g>
	<path class="st42" d="M1624.6,37.8c2.5,0,3.8-1.7,3.8-4V22h5.3v12.1c-0.1,5.3-4.3,7.4-9.1,7.4c-4.8,0-9.1-2.1-9.1-7.4V22h5.3v11.8
		C1620.7,36.2,1622.1,37.8,1624.6,37.8z"/>
	<polygon points="1601.7,41.1 1607,41.1 1607,25.7 1612.9,25.7 1612.9,22 1595.8,22 1595.8,25.7 1601.7,25.7 	"/>
	<path class="st8" d="M916,99.1c-6.2,1.9-12.6,0.4-12.6-7.9c0-12.6,29.7-23.2,33.8-34.3c1-2.8,1.1-5-0.2-4.9
		c-0.9,0.1-0.2,1.4-2.3,3.5c-12.3,12.3-32.9,12.3-48.7,19.4c-10.4,4.7-40.7,18.9-33.7,50.8c0.3,1.5,1.2,6.6,2.2,6.6
		c1.1,0,1.1-3,1-6.7c-0.2-19,22.2-24.3,29.6-36.7c0.9-1.5,2.4-3.6,2.7-2.6c0.2,0.5,0.1,1.2-0.2,2.5c-2.3,10.2-12.9,16.7-9.9,24
		c3.9,9.5,15.2,2.4,18.7-3.7c0.9-1.7,1.5-2.7,2.1-2.5c0.5,0.2,0.4,2.1,0.2,3.8c-1.9,11-4.4,17.1-12.4,23.4c-2.6,2-6.6,2.4-6.1,4
		c0.1,0.4,1.9,0.4,3.3,0.2c21.4-1.4,39.3-26.6,44-43c0.5-1.2,0.6-2.2,0.1-2.7c-0.6-0.5-1.6,0.6-2.5,1.5
		C922.4,95.9,919.1,98.2,916,99.1z"/>
	<path d="M1659.7,33.2c0-2.1,1.3-4,3.4-4c2.4,0,3.4,1.7,3.4,4H1659.7z M1669.1,34.9v-1.2c0-3.7-2.1-6.3-5.9-6.3
		c-4.2,0-6.2,3.3-6.2,7.2c0,3.9,1.7,6.9,6,6.9c3.2,0,5.5-1.5,5.9-4.5h-2.7c-0.3,1.9-1.3,2.7-3.2,2.7c-2.6,0-3.4-2.3-3.4-4.7H1669.1z
		"/>
	<rect x="1672.2" y="22" width="2.5" height="19.1"/>
	<path d="M1682.6,41.1V29.6h3.1v-1.8h-3.1v-2.1c0-1.5,0.7-1.8,2.2-1.8c0.4,0,0.8,0.1,1.3,0.1v-2.1c-0.6-0.1-1.2-0.3-1.8-0.3
		c-2.4,0-4.2,1.2-4.2,3.7v2.5h-2.6v1.8h2.6v11.6H1682.6z"/>
	<path d="M1687.1,27.8v1.8h2.3V38c0,1.8,0,3.5,3.8,3.5c0.6,0,1.1-0.1,1.7-0.2v-1.9c-0.4,0.1-0.9,0.2-1.3,0.2c-0.9,0-1.6-0.5-1.6-1.4
		v-8.6h3.1v-1.8h-3.1v-3.6l-2.5,0.8v2.8L1687.1,27.8z"/>
	<path d="M1639,41.1h6.6c8.2,0,9-6.9,9-9.6c0-2.6-0.9-9.6-9-9.6h-6.6V41.1z M1641.7,24.3h3.9c4.4,0,6.3,3.3,6.3,7.3
		c0,4-1.8,7.3-6.3,7.3h-3.9V24.3z"/>
	
		<image style="overflow:visible;" width="3420" height="3328" xlink:href="../Desktop/ALBORZ/LOGO/LOGO_ALBORZ_white_bg.png"  transform="matrix(1.720768e-02 0 0 1.720768e-02 660.5768 168.1454)">
	</image>
</g>
</svg>
