<?xml version="1.0" encoding="utf-8"?>
<!-- Generator: Adobe Illustrator 27.2.0, SVG Export Plug-In . SVG Version: 6.00 Build 0)  -->
<svg version="1.1" id="Layer_1" xmlns="http://www.w3.org/2000/svg" xmlns:xlink="http://www.w3.org/1999/xlink" x="0px" y="0px"
	 viewBox="0 0 1232.5 807" style="enable-background:new 0 0 1232.5 807;" xml:space="preserve">
<style type="text/css">
	.st0{opacity:0.4;}
	.st1{opacity:0.4;fill:#F4D7C9;enable-background:new    ;}
	.st2{fill:#ADCCC7;}
	.st3{fill:#6EAB9C;}
	.st4{fill:#AECBC7;}
	.st5{fill:#1B5175;}
	.st6{fill:#E9928B;}
	.st7{fill:#EB908B;}
	.st8{fill:#C46116;}
	.st9{fill:#AF0022;}
	.st10{opacity:0.52;enable-background:new    ;}
	.st11{opacity:0.52;fill:#A04A10;enable-background:new    ;}
	.st12{fill:#FFAC95;}
	.st13{fill:#6A5E84;}
	.st14{fill:#5F537F;}
	.st15{fill:#9B0428;}
	.st16{fill:#3FB8A9;}
	.st17{fill:#FFFFFF;}
	.st18{fill:#F2D6C8;}
	.st19{fill:#F5B89B;}
	.st20{fill:#B2E5E0;}
	.st21{fill:#EDF6F5;}
	.st22{fill:#FFAB40;}
</style>
<g class="st0">
	<path class="st1" d="M789.4,385.6l-3.5-2c-2.3-1.3-3.6-3.6-3.6-6.2c0-0.3,0-0.6,0-0.9s0-0.6,0-0.9c0-2.6,1.3-4.9,3.6-6.2l3.5-2
		c2.8-1.6,4.2-4.8,3.4-7.9v-0.1c-0.8-3.1-3.7-5.2-6.9-5.2l-4.1,0.1c-2.6,0-5-1.4-6.3-3.6c-0.3-0.4-0.5-0.9-0.8-1.3
		c-1.3-2.2-1.4-5,0-7.3l2.1-3.5c1.7-2.7,1.2-6.3-1-8.5l-0.1-0.1c-2.3-2.3-5.8-2.7-8.5-1l-3.5,2.1c-2.2,1.3-5,1.3-7.3,0
		c-0.4-0.3-0.9-0.5-1.3-0.8c-2.3-1.3-3.7-3.6-3.6-6.2l0.1-4.1c0-3.2-2.1-6-5.2-6.9h-0.1c-3.1-0.8-6.4,0.6-7.9,3.4l-2,3.5
		c-1.3,2.3-3.6,3.6-6.2,3.6c-0.3,0-0.6,0-0.9,0c-0.3,0-0.6,0-0.9,0c-2.6,0-4.9-1.3-6.2-3.6l-2-3.5c-1.6-2.8-4.8-4.2-7.9-3.4h-0.1
		c-3.1,0.8-5.2,3.7-5.2,6.9l0.1,4.1c0,2.6-1.4,5-3.6,6.2c-0.4,0.3-0.9,0.5-1.3,0.8c-2.2,1.3-5,1.4-7.3,0l-3.5-2.1
		c-2.7-1.7-6.3-1.2-8.5,1l-0.1,0.1c-2.3,2.3-2.7,5.8-1,8.5l2.1,3.5c1.3,2.2,1.3,5,0,7.3c-0.3,0.4-0.5,0.9-0.8,1.3
		c-1.3,2.3-3.6,3.7-6.3,3.6l-4.1-0.1c-3.2,0-6,2.1-6.9,5.2v0.1c-0.8,3.1,0.6,6.4,3.4,7.9l3.5,2c2.3,1.3,3.6,3.6,3.6,6.2
		c0,0.3,0,0.6,0,0.9s0,0.6,0,0.9c0,2.6-1.3,4.9-3.6,6.2l-3.5,2c-2.8,1.6-4.2,4.8-3.4,7.9v0.1c0.8,3.1,3.7,5.2,6.9,5.2l4.1-0.1
		c2.6,0,5,1.4,6.3,3.6c0.3,0.4,0.5,0.9,0.8,1.3c1.3,2.2,1.4,5,0,7.3l-2.1,3.5c-1.7,2.7-1.2,6.3,1,8.5l0.1,0.1c2.3,2.3,5.8,2.7,8.5,1
		l3.5-2.1c2.2-1.3,5-1.3,7.3,0c0.4,0.3,0.9,0.5,1.3,0.8c2.3,1.3,3.7,3.6,3.6,6.2L707,433c0,3.2,2.1,6,5.2,6.9h0.1
		c3.1,0.8,6.4-0.6,7.9-3.4l2-3.5c1.2-2.3,3.6-3.6,6.2-3.6c0.3,0,0.6,0,0.9,0c0.3,0,0.6,0,0.9,0c2.6,0,4.9,1.3,6.2,3.6l2,3.5
		c1.6,2.8,4.8,4.2,7.9,3.4h0.1c3.1-0.8,5.2-3.7,5.2-6.9l-0.1-4.1c0-2.6,1.4-5,3.6-6.2c0.4-0.3,0.9-0.5,1.3-0.8c2.2-1.3,5-1.4,7.3,0
		l3.5,2.1c2.7,1.7,6.3,1.2,8.5-1l0.1-0.1c2.3-2.3,2.7-5.8,1-8.5l-2.1-3.5c-1.3-2.2-1.3-5,0-7.3c0.3-0.4,0.5-0.9,0.8-1.3
		c1.3-2.3,3.6-3.7,6.3-3.6l4.1,0.1c3.2,0,6-2.1,6.9-5.2v-0.1C793.6,390.4,792.2,387.2,789.4,385.6z M729.3,416
		c-21.8,0-39.4-17.6-39.4-39.4s17.6-39.4,39.4-39.4c21.8,0,39.4,17.6,39.4,39.4C768.7,398.3,751.1,416,729.3,416z"/>
</g>
<g id="Layer_2_00000041999559371277330950000009057528216574199203_">
</g>
<g>
	<path class="st2" d="M1209.4,788.7c0,0,0.1-72.7-79.5-37.3c0,0-17.5-62.6-63.3-59.6c-45.8,3-50.3,62.2-50.3,62.2
		s-62.8-31.9-96.5,32.8L1209.4,788.7z"/>
	<path class="st3" d="M1075.3,786.1l-1.9-0.3c5.3-37.9-15.1-65-15.3-65.3l1.6-1.2C1059.8,719.6,1080.7,747.4,1075.3,786.1z"/>
	<path class="st3" d="M1076,762.9l-1.6-1.2c0.2-0.3,18.8-25.9,22-42l1.9,0.4C1095,736.7,1076.8,761.8,1076,762.9z"/>
	<path class="st3" d="M1075.1,776.3c-14.5-0.9-27.4-18.1-27.9-18.8l1.6-1.2c0.1,0.2,12.8,17.2,26.5,18L1075.1,776.3z"/>
	<path class="st3" d="M1121.7,785.9l2.7-1.9c0.2-0.2,25.5-18,52.4-19.3l0.1,2c-21.1,1-41.2,12.4-48.5,17l26.2-0.9l0.1,2
		L1121.7,785.9z"/>
	<path class="st3" d="M1142.5,775.6l-1.9-0.6c4.1-12.1,12.9-23.5,13.2-24l1.6,1.2C1155.3,752.3,1146.5,763.9,1142.5,775.6z"/>
	<path class="st3" d="M1015.8,785.5c-0.2-0.2-19.7-16.6-41.6-24.2l0.7-1.9c22.2,7.8,42,24.4,42.2,24.6L1015.8,785.5z"/>
	<path class="st3" d="M965,779.8l-0.9-1.8c0.6-0.3,14.3-7.2,39.7-3.7l-0.3,2C978.8,772.9,965.1,779.7,965,779.8z"/>
</g>
<path class="st4" d="M1246.3,776.2H-10.8v56.5h1257.3L1246.3,776.2L1246.3,776.2z"/>
<g>
	<path class="st5" d="M944.3,702.4c6.7,7.2,19.3,31.8,19.3,31.8l-16.1,11.7c0,0-1.4-5.5-3.9-4.4s-1.1,7.9-4.5,10.3
		c-3.3,2.4-36,26.2-36,26.2s-10.2-9.6-5.9-18.2c3.8-7.6,21.5-26.2,11.5-49.8c-1.3-3.1-2.8-6.3-4.6-9.6l23-21.4c0,0,2.8,6.4,6.6,12.9
		C936,695.3,941.9,699.8,944.3,702.4z"/>
	<path class="st6" d="M904.3,700.3l23-21.4c0,0,2.8,6.4,6.6,12.9l-25,18.2C907.6,706.9,906.1,703.7,904.3,700.3z"/>
</g>
<path class="st7" d="M217.4,160.7h250v56.8H438l15.4,36.1l-54.8-36.1H217.4V160.7z"/>
<path class="st8" d="M996.4,359.5c-1,1.3-2.2,2.3-3.5,3c-10.7,5.9-29.8-6.9-38.5-6.5c-9.8,0.5-14.5,13.3-37.6,4.2
	c-23.1-9.1-17.7-45-16.3-58.6c1.4-13.5-7-20.3-21.5-19.8s-29.7-7.5-23.1-30.3c6.6-22.9-12-34.8-23-30.8c-11.1,4.1-5.1-15.4-5.1-15.4
	s9.5-13.5,28.2-11.5c5.9,0.6,10.1,2.5,13.3,5.2l0,0c0.7,0.6,1.4,1.3,2.1,2c0,0,0,0,0,0.1c5.4,5.9,7.5,14.1,10.9,20.3
	c5.6,10.3,14.9,9.6,29.4,5.1c14.5-4.4,43.6-2.4,49.9,21.8s-10.5,52.4,19.6,59.4C1011.3,314.7,1005.7,347.4,996.4,359.5z"/>
<path class="st9" d="M828.8,203.4c0,0,8.7,5.8,7.7,17.4c0,0,0,3.4-3.8,1.6c-3.8-1.7-7-14.4-6.6-17.1
	C826.5,202.7,827.9,203.1,828.8,203.4z"/>
<path class="st8" d="M825.2,255.5c-13.4,11.7-19.9,10.8-23.8,5.1c-1.5-2.1-5.5-7.4-10-13.2c-7.6-9.7-16.4-20.9-16.4-20.9
	s-14-0.9-14.3-11.7c-0.1-2.1,0.3-4.1,1.2-6.2c3.5-8.5,14.4-15.9,29.6-17.1c18.8-1.6,35.9,7.8,40.9,20.8
	C837.3,225.5,838.5,243.8,825.2,255.5z"/>
<g class="st10">
	<path class="st11" d="M791.3,247.4c-7.6-9.7-16.4-20.9-16.4-20.9s-14-0.9-14.3-11.7c-0.1-2.1,0.3-4.1,1.2-6.2
		c2.8-4.4,8-8.1,17.8-6.9c21,2.6,11.2,37.7,16.4,41.4C797.9,244.6,795.4,246.1,791.3,247.4z"/>
</g>
<path class="st12" d="M716.9,463.3c0,0-7.4,2.2-11.1,4.9c-3.7,2.8-12.5,7-12.7,8.5c-0.2,1.4,7.5-0.8,10.5-2s2.5,1.7-1.2,5.2
	s-5.2,5.1-9.5,8.4s-4.8,4.8-3.2,5.3c1.7,0.6,3.2-0.5,3.2-0.5s-3.9,2.9-2.3,4.6s6.3-1.8,6.3-1.8s-1.3,2.4,1.9,2.3
	c3.3-0.1,4.4-1.5,8.2-2.7c3.8-1.1,15.5-13.4,18.2-17.6c2.7-4.3,4.1-8,4.1-8L716.9,463.3z"/>
<path class="st9" d="M797,362.5c0,0,7.1,35.5-10.3,55.4c-17.4,19.9-57,56.3-57,56.3l-14.6-11.4c0,0,35.7-47.2,40.6-65.4
	c1.1-3.9,2-11.3,2-11.3L797,362.5z"/>
<path class="st12" d="M746.6,458.1c0,0-1.1-4.1,0.5-7.7s9.4,7.2,9.4,7.2l2.1,9L746.6,458.1z"/>
<path class="st13" d="M944.3,674.4l-51,34.8c0,0-26.7-32.8-50.3-63c-15.8-20.1-30.2-39.1-34.5-46.3c-8.5-14.6-20.7-72.2-25.1-93.8
	c-1-5.1-1.6-8.2-1.6-8.2l6.2-17.5l12.1-34.1l0.9-2.5c0,0,8.8-4.5,18.5-6.9c2.6-0.6,5.3-1.1,7.8-1.4c8-0.7,15.2,1.2,17.5,9.3
	c0.1,0.5,0.2,1,0.3,1.5c0.4,2.4,0.9,5.5,1.5,9.1c4.4,30.6,10.6,98.1,12.5,105.7C861.4,569.6,944.3,674.4,944.3,674.4z"/>
<path class="st14" d="M843,646.2c-15.8-20.1-30.2-39.1-34.5-46.3c-8.5-14.6-20.7-72.2-25.1-93.8c1.2-4.8,2.1-8,2.6-8.7
	c2.6-3.9,60.7-42,60.7-42s2.4,34.1-9.1,55.8s-21.4,37.7-12.2,61.1c9.2,23.4-10.5,36.9,5.3,50C839.8,629.9,842.4,639.5,843,646.2z"/>
<g>
	<path class="st5" d="M746.6,738.3c1.2,9.7-3,37.1-3,37.1h-19.9c0,0,2.1-5.3-0.5-5.8c-2.6-0.6-5.6,5.8-9.7,5.8c-4.1,0-44.5,0-44.5,0
		s-2.6-13.7,5.9-18.1c7.5-3.9,32.8-8.5,38.6-33.5c0.8-3.2,1.4-6.7,1.9-10.5l31.2-3.8c0,0-1.5,6.8-2.2,14.3
		C744,727.7,746.2,734.8,746.6,738.3z"/>
	<path class="st6" d="M715.4,713.1l31.2-3.8c0,0-1.5,6.8-2.2,14.3h-30.9C714.3,720.3,714.9,716.8,715.4,713.1z"/>
</g>
<path class="st13" d="M773.7,429.5c0,0-44.8,105.1-57.8,148.7c-13.1,43.5-33,137.5-33,137.5h68.4c0,0,26.7-127.5,38.6-148.1
	c11.8-20.5,56-95.2,49.1-121.9C832.2,418.9,773.7,429.5,773.7,429.5z"/>
<path class="st14" d="M846.7,455.4l-20.8,53.9l-67.3-42.7l41.5-20.2l19.4-9.5l5.4-2.7l2.4,1.3l17.5,9.3c0.1,0.5,0.2,1,0.3,1.5
	C845.7,448.7,846.2,451.8,846.7,455.4z"/>
<path class="st9" d="M811.6,287.7c0,0-16.2,6.8-29.9,25.5s-29.9,53.4-31.1,60c-1.2,6.6,10.7,59,10.6,72.5c0,13.5,63.7,8.5,81.7-0.2
	c0,0-7.1-49.6-7.1-56.4s0.6-52.9-3.1-74C829.1,293.9,811.6,287.7,811.6,287.7z"/>
<path class="st15" d="M807.8,336.5c0,0-2.6,17,0,29.8s-17.4,5-24.4,31.1c-6.9,26.1,52.4,13.4,52.4,13.4s16.3-25.1,16.5-29.4
	C852.4,377.2,807.8,336.5,807.8,336.5z"/>
<path class="st12" d="M811.6,287.7c0,0-31.3,32.1-28.5,23.7c1.5-4.7-1.1-15.8-3.8-24.9c-2.2-7.4-4.4-13.4-4.4-13.4s6-6.1,12.3-11.3
	c6.7-5.5,13.6-10,14.1-5.2C802.2,266.1,811.6,287.7,811.6,287.7z"/>
<path class="st16" d="M730.7,352.4l-35.2,75.9l130.9,60.8l35.2-75.9L730.7,352.4z"/>
<path class="st17" d="M735,364l-27.9,60l115.1,53.4l27.9-60L735,364z"/>
<path class="st16" d="M718.9,430.6l47.2-33.2l5.1,57.5L718.9,430.6z"/>
<path class="st16" d="M768.8,453.9l36.5-25.7l4,44.5L768.8,453.9z"/>
<path class="st16" d="M797.2,411.2c2.1-4.2,0.5-9.4-3.8-11.5c-4.2-2.1-9.4-0.5-11.5,3.8c-2.1,4.2-0.5,9.4,3.8,11.5
	C789.9,417.2,795,415.5,797.2,411.2z"/>
<path class="st12" d="M771,441.6c0,0-6.1,0.9-10.4,2c-4.3,1.1-12.8,0.5-13.8,2.5s9.5,3.7,12.1,3.9c2.6,0.2-4,3.8-7.7,4.9
	c-3.7,1-6.6,2.5-2.8,5.9s9.7,8.6,12.2,9s14.5-8.7,21.1-15.5S771,441.6,771,441.6z"/>
<path class="st9" d="M812.3,299.2c-11.7,9-7.2,32-1.2,47c5.9,14.9,22.7,42.3,21.5,44.8s-63.5,49.7-63.5,49.7l12.8,16.1
	c0,0,59.1-29.7,73.7-40.3c14.6-10.6,15.8-22.1,11.5-37C862.6,364.5,837.5,279.9,812.3,299.2z"/>
<g>
	<path class="st11" d="M996.4,359.5c-1,1.3-2.2,2.3-3.5,3c10.4-12.3,2.8-28.7-23.9-28.4c-26.6,0.3-33.8-22.7-18.1-60.8
		s-24-41.1-40.8-32.5c-16.8,8.5-33.9,0.7-33.2-17.8c0.5-12.4-3.2-18.9-5.7-21.9c5.4,5.9,7.5,14.1,10.9,20.3
		c5.6,10.3,14.9,9.6,29.4,5.1c14.5-4.4,43.6-2.4,49.9,21.8s-10.5,52.4,19.6,59.4C1011.3,314.7,1005.7,347.4,996.4,359.5z"/>
</g>
<path class="st6" d="M796.1,260.3c0,0-4.7,17.2-16.8,26.2c-2.2-7.4-4.4-13.5-4.4-13.5s6-6.1,12.3-11.3L796.1,260.3z"/>
<path class="st12" d="M775.9,215.8c0,0-8.4,20.8-16.3,24.9c-7.9,4-2.6,5,0,9.5c2.7,4.5-7.5,18.5,1.2,24.9s28.9-4,35.3-14.8
	c0,0,11,0.5,13.7-7.9c2.6-8.4-5.9-13.7-10.9-10s-5.6-4-7.8-15.7C788.9,215.1,776.9,213.4,775.9,215.8z"/>
<g>
	<path class="st18" d="M302.4,713.9c-11-21-24.3-36.1-46-53.1c-21.6-17-50-17.1-61.5-22.5c-11.6-5.5-11.9,9.7-8.3,23.9
		c3.6,14.2-7.3,79.9,58.4,100.7C310.8,783.8,310.6,729.4,302.4,713.9z"/>
	<path class="st19" d="M260.9,728.1c-0.5,0-0.9-0.4-1-0.9c-3.2-23.2,8.4-46.2,8.5-46.4c0.2-0.5,0.8-0.7,1.3-0.4
		c0.5,0.2,0.7,0.8,0.4,1.3c-0.1,0.2-11.3,22.6-8.3,45.2c0.1,0.5-0.3,1-0.8,1.1C261,728.1,261,728.1,260.9,728.1z"/>
	<path class="st19" d="M261.1,730.7c-0.2,0-0.3,0-0.5-0.1c-19.6-10.3-53.6-6.6-54-6.6c-0.5,0.1-1-0.3-1.1-0.9
		c-0.1-0.5,0.3-1,0.9-1.1c1.4-0.2,35-3.8,55.1,6.8c0.5,0.2,0.7,0.9,0.4,1.3C261.8,730.5,261.4,730.7,261.1,730.7z"/>
	<path class="st19" d="M267.2,749.6c-0.4,0-0.9-0.3-1-0.8c-14.1-58.3-70-99.5-70.6-99.9c-0.4-0.3-0.5-0.9-0.2-1.4s0.9-0.5,1.4-0.2
		c0.6,0.4,57.1,42,71.4,101c0.1,0.5-0.2,1.1-0.7,1.2C267.4,749.5,267.3,749.6,267.2,749.6z"/>
	<path class="st19" d="M240.8,694.9c-0.2,0-0.4-0.1-0.6-0.2c-12.8-10.2-43.6-7.6-43.9-7.5c-0.6,0.1-1-0.4-1.1-0.9s0.3-1,0.9-1.1
		c1.3-0.1,32-2.8,45.3,7.9c0.4,0.3,0.5,1,0.2,1.4C241.4,694.8,241.1,694.9,240.8,694.9z"/>
	<path class="st19" d="M230.6,681.9c-0.4,0-0.7-0.2-0.9-0.6c-4-9.5-1.9-25.6-1.8-26.3c0.1-0.5,0.6-0.9,1.1-0.8
		c0.5,0.1,0.9,0.6,0.8,1.1c0,0.2-2.1,16.2,1.7,25.3c0.2,0.5,0,1.1-0.5,1.3C230.8,681.9,230.7,681.9,230.6,681.9z"/>
	<path class="st2" d="M130.6,774.8c-1.9-19.7,16-49.3,73.2-30.1c0,0,14.5-45.2,54.2-43.7c39.8,1.5,52.4,38.7,52.4,38.7
		s53.4-6.5,61.1,38.7C371.5,778.5,133.3,803.2,130.6,774.8z"/>
	<path class="st3" d="M249.3,778.2l-1.9-0.3c5.2-32-14.7-55-14.9-55.2l1.5-1.3C234.2,721.6,254.6,745.3,249.3,778.2z"/>
	<path class="st3" d="M250,758.6l-1.5-1.3c0.2-0.2,18.3-21.9,21.4-35.5l1.9,0.4C268.6,736.3,250.7,757.7,250,758.6z"/>
	<path class="st3" d="M249.7,769.7c-14.2-0.8-26.7-15.4-27.2-16l1.5-1.3c0.1,0.2,12.5,14.6,25.8,15.3L249.7,769.7z"/>
	<path class="st3" d="M294.4,779l-1.3-1.5c1-0.9,25.2-21.7,37.8-22l0.1,2C319.1,757.8,294.6,778.8,294.4,779z"/>
	<path class="st3" d="M341.7,774.9c-0.2,0-19.5-1.2-35.1-5.2l0.5-1.9c15.4,4,34.5,5.1,34.7,5.2L341.7,774.9z"/>
	<path class="st3" d="M198,777.8c-12.7-10.6-39.6-19.1-39.9-19.2l0.6-1.9c1.1,0.3,27.5,8.7,40.6,19.5L198,777.8z"/>
	<path class="st3" d="M188.1,769.6l-2-0.1c0.3-10.8-4.4-19.2-4.4-19.3l1.7-1C183.6,749.7,188.4,758.3,188.1,769.6z"/>
</g>
<path class="st15" d="M810.3,283.7c0,0-10.7,12.1-27.4,18.8l-2.2,12.4c0,0,15.6-4.8,31-27.1L810.3,283.7z"/>
<g>
	<g>
		<path class="st17" d="M249,191c0-0.5-0.1-0.9-0.3-1.3c-0.3-0.4-0.6-0.6-1.1-1c-0.5-0.3-1.4-0.6-2.4-1c-1.3-0.4-2.3-0.9-3.3-1.4
			c-1-0.5-1.8-1.1-2.4-1.9c-0.6-0.8-0.9-1.8-0.9-2.9c0-1.1,0.3-2,0.9-2.9c0.6-0.9,1.5-1.5,2.7-1.9c1.1-0.5,2.4-0.6,3.8-0.6
			c1.5,0,2.8,0.3,3.8,0.8c1.1,0.5,1.9,1.3,2.5,2.1c0.6,0.9,0.9,2,0.9,3.2h-4c0-0.6-0.1-1.1-0.4-1.5c-0.3-0.4-0.6-0.8-1.1-1
			c-0.5-0.3-1.1-0.4-1.8-0.4c-0.8,0-1.3,0.1-1.8,0.4c-0.5,0.3-0.9,0.5-1,0.9c-0.3,0.4-0.4,0.8-0.4,1.3c0,0.5,0.1,0.9,0.5,1.1
			c0.3,0.4,0.8,0.6,1.3,0.9c0.5,0.3,1.3,0.5,2.1,0.8c1.4,0.4,2.7,0.9,3.7,1.5c1,0.6,1.8,1.3,2.1,2c0.5,0.8,0.8,1.8,0.8,2.8
			c0,1.1-0.3,2.1-0.9,2.9c-0.6,0.8-1.4,1.4-2.5,1.9c-1.1,0.5-2.3,0.6-3.8,0.6c-1,0-1.9-0.1-2.9-0.4c-1-0.3-1.8-0.6-2.5-1.1
			s-1.4-1.1-1.9-2c-0.5-0.9-0.6-1.8-0.6-2.9h4c0,0.6,0.1,1.1,0.3,1.5c0.3,0.4,0.5,0.8,0.8,1c0.4,0.3,0.8,0.5,1.3,0.6
			c0.5,0.1,1,0.1,1.6,0.1c0.8,0,1.3-0.1,1.8-0.3c0.5-0.3,0.8-0.5,1-0.9C248.9,191.9,249,191.6,249,191z"/>
		<path class="st17" d="M254.9,189v-0.3c0-1.4,0.3-2.7,0.8-3.8c0.5-1.1,1.4-2,2.4-2.7s2.3-1,3.8-1s2.8,0.4,3.8,1s1.9,1.5,2.4,2.7
			c0.5,1.1,0.8,2.4,0.8,3.8v0.3c0,1.4-0.3,2.7-0.8,3.8c-0.5,1.1-1.4,2-2.4,2.7c-1,0.6-2.3,1-3.8,1s-2.8-0.4-3.8-1
			c-1-0.6-1.8-1.5-2.4-2.7C255.1,191.7,254.9,190.4,254.9,189z M258.9,188.8v0.3c0,0.8,0.1,1.5,0.3,2.3c0.3,0.6,0.5,1.3,1,1.6
			c0.5,0.4,1,0.6,1.8,0.6c0.8,0,1.3-0.3,1.8-0.6s0.8-0.9,1-1.6c0.3-0.6,0.3-1.4,0.3-2.3v-0.3c0-0.8-0.1-1.5-0.3-2.1
			c-0.3-0.6-0.5-1.3-1-1.6s-1-0.6-1.8-0.6c-0.8,0-1.3,0.3-1.8,0.6s-0.8,0.9-1,1.6C259,187.3,258.9,187.9,258.9,188.8z"/>
		<path class="st17" d="M275.4,175.4v20.8h-3.9v-20.8H275.4z"/>
		<path class="st17" d="M278.6,177.7c0-0.6,0.3-1,0.6-1.4c0.4-0.4,0.9-0.5,1.6-0.5c0.6,0,1.1,0.1,1.6,0.5c0.4,0.4,0.6,0.9,0.6,1.4
			s-0.3,1-0.6,1.4c-0.4,0.4-0.9,0.5-1.6,0.5c-0.6,0-1.3-0.1-1.6-0.5C278.8,178.8,278.6,178.3,278.6,177.7z M282.7,181.6v14.7h-3.9
			v-14.7H282.7z"/>
		<path class="st17" d="M285.4,189v-0.3c0-1.5,0.3-2.8,0.6-3.9c0.5-1.1,1.1-2,1.9-2.7c0.9-0.6,1.9-0.9,3.2-0.9c1.1,0,2.1,0.4,2.9,1
			s1.4,1.5,1.8,2.7c0.5,1.1,0.8,2.4,0.9,3.8v0.6c-0.1,1.4-0.5,2.5-0.9,3.7c-0.5,1.1-1,1.9-1.9,2.7c-0.9,0.8-1.8,1-2.9,1
			c-1.3,0-2.3-0.4-3.2-1s-1.5-1.5-1.9-2.7C285.6,191.8,285.4,190.4,285.4,189z M289.3,188.8v0.3c0,0.8,0.1,1.5,0.3,2.1
			c0.1,0.6,0.5,1.1,0.9,1.5c0.4,0.4,1,0.6,1.6,0.6c0.6,0,1.3-0.1,1.6-0.5c0.4-0.3,0.8-0.8,1-1.3s0.4-1.1,0.4-1.9v-1.8
			c0-0.6-0.1-1.1-0.3-1.5c-0.1-0.5-0.4-0.9-0.6-1.1c-0.3-0.4-0.5-0.6-0.9-0.8c-0.4-0.1-0.8-0.3-1.3-0.3c-0.6,0-1.3,0.3-1.6,0.6
			c-0.4,0.4-0.8,0.9-0.9,1.6C289.4,187.1,289.3,187.9,289.3,188.8z M294.7,193.1v-17.7h3.9v20.8h-3.5L294.7,193.1z"/>
		<path class="st17" d="M312.9,176.5v19.7h-4v-19.7H312.9z M321.8,176.5v3.2h-10v-3.2H321.8z M320.9,184.9v3.2h-9v-3.2H320.9z"/>
		<path class="st17" d="M323.3,189v-0.3c0-1.4,0.3-2.7,0.8-3.8c0.5-1.1,1.4-2,2.4-2.7c1-0.6,2.3-1,3.8-1s2.8,0.4,3.8,1
			c1,0.6,1.9,1.5,2.4,2.7c0.5,1.1,0.8,2.4,0.8,3.8v0.3c0,1.4-0.3,2.7-0.8,3.8c-0.5,1.1-1.4,2-2.4,2.7c-1,0.6-2.3,1-3.8,1
			s-2.8-0.4-3.8-1c-1-0.6-1.8-1.5-2.4-2.7C323.4,191.7,323.3,190.4,323.3,189z M327.2,188.8v0.3c0,0.8,0.1,1.5,0.3,2.3
			c0.3,0.6,0.5,1.3,1,1.6s1,0.6,1.8,0.6s1.3-0.3,1.8-0.6c0.5-0.4,0.8-0.9,1-1.6c0.3-0.6,0.3-1.4,0.3-2.3v-0.3c0-0.8-0.1-1.5-0.3-2.1
			c-0.3-0.6-0.5-1.3-1-1.6c-0.5-0.4-1-0.6-1.8-0.6s-1.3,0.3-1.8,0.6s-0.8,0.9-1,1.6C327.3,187.3,327.2,187.9,327.2,188.8z"/>
		<path class="st17" d="M348.7,189.7h1.1c0,1.3-0.3,2.5-0.6,3.5c-0.4,1-1,1.9-1.8,2.4c-0.8,0.6-1.9,0.9-3,0.9
			c-1.4,0-2.7-0.4-3.5-1.3c-0.9-0.9-1.4-2.3-1.4-4.2v-9.5h3.9v9.5c0,0.6,0.1,1,0.3,1.4c0.1,0.4,0.4,0.6,0.8,0.8
			c0.4,0.1,0.6,0.3,1.1,0.3c0.8,0,1.4-0.1,1.9-0.5c0.5-0.4,0.8-0.8,1-1.4C348.7,191,348.7,190.4,348.7,189.7z M348.3,192.7v-11.1
			h3.9v14.7h-3.7L348.3,192.7z"/>
		<path class="st17" d="M359,184.7v11.5h-3.9v-14.7h3.7L359,184.7z M358.4,188.4h-1c0-1.4,0.3-2.7,0.8-3.8c0.5-1,1.1-1.9,2-2.4
			c0.9-0.6,1.9-0.9,3-0.9c0.9,0,1.8,0.1,2.4,0.5c0.8,0.4,1.3,0.9,1.6,1.8c0.4,0.8,0.6,1.9,0.6,3.3v9.3H364v-9.3
			c0-0.6-0.1-1.1-0.3-1.5c-0.1-0.4-0.5-0.6-0.8-0.8c-0.4-0.1-0.8-0.3-1.3-0.3c-0.5,0-1,0.1-1.4,0.3c-0.4,0.3-0.8,0.5-1,0.9
			c-0.3,0.4-0.4,0.8-0.5,1.3C358.5,187.3,358.4,187.8,358.4,188.4z"/>
		<path class="st17" d="M370.1,189v-0.3c0-1.5,0.3-2.8,0.6-3.9c0.5-1.1,1.1-2,1.9-2.7c0.9-0.6,1.9-0.9,3.2-0.9c1.1,0,2.1,0.4,2.9,1
			c0.8,0.6,1.4,1.5,1.8,2.7c0.5,1.1,0.8,2.4,0.9,3.8v0.6c-0.1,1.4-0.5,2.5-0.9,3.7c-0.5,1.1-1,1.9-1.9,2.7s-1.8,1-2.9,1
			c-1.3,0-2.3-0.4-3.2-1c-0.9-0.6-1.5-1.5-1.9-2.7C370.4,191.8,370.1,190.4,370.1,189z M374.1,188.8v0.3c0,0.8,0.1,1.5,0.3,2.1
			c0.1,0.6,0.5,1.1,0.9,1.5c0.4,0.4,1,0.6,1.6,0.6s1.3-0.1,1.6-0.5c0.4-0.3,0.8-0.8,1-1.3c0.3-0.5,0.4-1.1,0.4-1.9v-1.8
			c0-0.6-0.1-1.1-0.3-1.5c-0.1-0.5-0.4-0.9-0.6-1.1c-0.3-0.4-0.5-0.6-0.9-0.8s-0.8-0.3-1.3-0.3c-0.6,0-1.3,0.3-1.6,0.6
			c-0.4,0.4-0.8,0.9-0.9,1.6C374.1,187.1,374.1,187.9,374.1,188.8z M379.4,193.1v-17.7h3.9v20.8h-3.5L379.4,193.1z"/>
		<path class="st17" d="M394.8,187.3v2.3h-2.1c-1,0-1.8,0.3-2.3,0.6s-0.8,1-0.8,1.6c0,0.5,0.1,0.9,0.5,1.3c0.4,0.4,0.8,0.5,1.4,0.5
			s1.1-0.1,1.5-0.4c0.4-0.3,0.8-0.5,1-0.9c0.3-0.4,0.4-0.6,0.4-1l1,1.6c-0.1,0.4-0.4,0.8-0.6,1.1s-0.5,0.8-0.9,1.1
			c-0.4,0.4-0.9,0.6-1.4,0.9c-0.5,0.3-1.1,0.4-1.9,0.4c-0.9,0-1.8-0.1-2.5-0.5c-0.8-0.4-1.4-0.9-1.8-1.5c-0.4-0.6-0.6-1.4-0.6-2.3
			c0-1.5,0.6-2.7,1.8-3.5c1.1-0.9,2.8-1.3,5.1-1.3L394.8,187.3L394.8,187.3z M394.3,192.9v-6.6c0-0.8-0.1-1.3-0.5-1.6
			c-0.4-0.4-0.9-0.6-1.6-0.6c-0.4,0-0.8,0.1-1.1,0.3c-0.4,0.1-0.5,0.4-0.8,0.6c-0.1,0.3-0.3,0.6-0.3,1h-3.9c0-0.9,0.3-1.6,0.8-2.3
			c0.5-0.8,1.3-1.3,2.1-1.6c0.9-0.4,2-0.6,3.3-0.6c1.1,0,2.1,0.3,3,0.6s1.6,1,2.1,1.8c0.5,0.8,0.8,1.8,0.8,2.9v6.3
			c0,0.8,0,1.5,0.1,2c0.1,0.5,0.3,1,0.4,1.4v0.3h-3.9c-0.3-0.4-0.4-0.9-0.4-1.5C394.4,194.1,394.3,193.6,394.3,192.9z"/>
		<path class="st17" d="M408.4,181.6v2.8h-8.6v-2.8H408.4z M402,177.9h3.9v13.9c0,0.4,0,0.8,0.1,1c0.1,0.3,0.3,0.4,0.5,0.5
			c0.3,0.1,0.5,0.1,0.9,0.1c0.3,0,0.5,0,0.6,0c0.3,0,0.4,0,0.5-0.1v2.9c-0.4,0.1-0.8,0.3-1.1,0.3s-0.8,0.1-1.3,0.1
			c-0.9,0-1.6-0.1-2.3-0.4s-1.1-0.8-1.5-1.4c-0.4-0.6-0.5-1.5-0.5-2.5v-14.4H402z"/>
		<path class="st17" d="M410.6,177.7c0-0.6,0.3-1,0.6-1.4s0.9-0.5,1.6-0.5c0.6,0,1.1,0.1,1.6,0.5c0.4,0.4,0.6,0.9,0.6,1.4
			s-0.3,1-0.6,1.4c-0.4,0.4-0.9,0.5-1.6,0.5c-0.6,0-1.3-0.1-1.6-0.5C410.8,178.8,410.6,178.3,410.6,177.7z M414.7,181.6v14.7h-3.9
			v-14.7H414.7z"/>
		<path class="st17" d="M417.4,189v-0.3c0-1.4,0.3-2.7,0.8-3.8c0.5-1.1,1.4-2,2.4-2.7c1-0.6,2.3-1,3.8-1c1.5,0,2.8,0.4,3.8,1
			c1,0.6,1.9,1.5,2.4,2.7c0.5,1.1,0.8,2.4,0.8,3.8v0.3c0,1.4-0.3,2.7-0.8,3.8c-0.5,1.1-1.4,2-2.4,2.7c-1,0.6-2.3,1-3.8,1
			c-1.5,0-2.8-0.4-3.8-1c-1-0.6-1.8-1.5-2.4-2.7C417.5,191.7,417.4,190.4,417.4,189z M421.3,188.8v0.3c0,0.8,0.1,1.5,0.3,2.3
			c0.3,0.6,0.5,1.3,1,1.6s1,0.6,1.8,0.6c0.8,0,1.3-0.3,1.8-0.6s0.8-0.9,1-1.6c0.3-0.6,0.3-1.4,0.3-2.3v-0.3c0-0.8-0.1-1.5-0.3-2.1
			c-0.3-0.6-0.5-1.3-1-1.6s-1-0.6-1.8-0.6c-0.8,0-1.3,0.3-1.8,0.6s-0.8,0.9-1,1.6C421.4,187.3,421.3,187.9,421.3,188.8z"/>
		<path class="st17" d="M437.5,184.7v11.5h-3.9v-14.7h3.7L437.5,184.7z M437,188.4h-1c0-1.4,0.3-2.7,0.8-3.8c0.5-1,1.1-1.9,2-2.4
			c0.9-0.6,1.9-0.9,3-0.9c0.9,0,1.8,0.1,2.4,0.5c0.8,0.4,1.3,0.9,1.6,1.8c0.4,0.8,0.6,1.9,0.6,3.3v9.3h-3.9v-9.3
			c0-0.6-0.1-1.1-0.3-1.5c-0.1-0.4-0.5-0.6-0.8-0.8c-0.4-0.1-0.8-0.3-1.3-0.3s-1,0.1-1.4,0.3c-0.4,0.3-0.8,0.5-1,0.9
			s-0.4,0.8-0.5,1.3C437,187.3,437,187.8,437,188.4z"/>
	</g>
</g>
<path class="st7" d="M320.1,416.2h173.1l52.4-34.5l-14.7,34.5H559v54.4H320.1V416.2z"/>
<path class="st7" d="M339.8,85.4h391.5v52.8H704l14.3,33.5l-50.9-33.5H339.8V85.4z"/>
<path class="st7" d="M138.5,342.5h112.4l52.2-34.4l-14.7,34.4h28v54.2H138.4v-54.2H138.5z"/>
<g>
	<g>
		<path class="st17" d="M366.4,430.9v18.8h-3.9v-18.8H366.4z M368.3,449.7h-4.1v-3h4.1c1,0,1.9-0.2,2.5-0.7c0.7-0.5,1.2-1.1,1.6-2.1
			c0.4-0.8,0.5-1.9,0.5-3.3v-1c0-1.3-0.2-2.4-0.6-3.3c-0.4-0.8-0.8-1.6-1.6-2.1c-0.7-0.5-1.6-0.7-2.5-0.7h-4.2v-3h4.2
			c1.7,0,3.1,0.4,4.5,1.1c1.3,0.7,2.3,1.8,3,3.1c0.7,1.3,1.1,2.9,1.1,4.7v0.8c0,1.8-0.4,3.4-1.1,4.7c-0.7,1.3-1.7,2.4-3,3.1
			C371.4,449.3,370,449.7,368.3,449.7z"/>
		<path class="st17" d="M385.9,449.9c-1.4,0-2.7-0.4-3.7-1c-1.1-0.6-1.8-1.4-2.4-2.4c-0.6-1-0.8-2.2-0.8-3.4v-0.5
			c0-1.4,0.2-2.7,0.8-3.7c0.5-1.1,1.3-1.9,2.3-2.5c1-0.6,2.2-1,3.5-1c1.3,0,2.4,0.2,3.4,0.8c1,0.6,1.6,1.3,2.1,2.4
			c0.5,1.1,0.7,2.2,0.7,3.6v1.6h-11.1v-2.5h7.5v-0.2c0-0.5-0.1-1-0.2-1.4c-0.2-0.4-0.5-0.7-0.8-1c-0.4-0.2-0.8-0.4-1.4-0.4
			c-0.6,0-1.2,0.2-1.6,0.6c-0.4,0.4-0.7,0.8-0.8,1.6c-0.2,0.6-0.2,1.4-0.2,2.2v0.5c0,0.7,0.1,1.4,0.4,2.1s0.7,1.1,1.2,1.3
			c0.5,0.4,1.1,0.5,1.8,0.5c0.7,0,1.3-0.1,1.9-0.4c0.6-0.2,1.1-0.6,1.6-1.2l1.8,1.9c-0.5,0.6-1.1,1.2-2.1,1.8
			C388.5,449.7,387.4,449.9,385.9,449.9z"/>
		<path class="st17" d="M396.4,435.7l3.1,11.4l0.1,2.7h-2.4l-4.7-14H396.4z M398.6,447l3.1-11.4h3.9l-4.7,14h-2.4L398.6,447z"/>
		<path class="st17" d="M413.8,449.9c-1.4,0-2.7-0.4-3.7-1c-1.1-0.6-1.8-1.4-2.4-2.4c-0.6-1-0.8-2.2-0.8-3.4v-0.5
			c0-1.4,0.2-2.7,0.8-3.7c0.5-1.1,1.3-1.9,2.3-2.5c1-0.6,2.2-1,3.5-1s2.4,0.2,3.4,0.8c1,0.6,1.6,1.3,2.1,2.4
			c0.5,1.1,0.7,2.2,0.7,3.6v1.6h-11.1v-2.5h7.5v-0.2c0-0.5-0.1-1-0.2-1.4c-0.2-0.4-0.5-0.7-0.8-1c-0.4-0.2-0.8-0.4-1.4-0.4
			s-1.2,0.2-1.6,0.6c-0.4,0.4-0.7,0.8-0.8,1.6c-0.2,0.6-0.2,1.4-0.2,2.2v0.5c0,0.7,0.1,1.4,0.4,2.1s0.7,1.1,1.2,1.3
			c0.5,0.4,1.1,0.5,1.8,0.5c0.7,0,1.3-0.1,1.9-0.4c0.6-0.2,1.1-0.6,1.6-1.2l1.8,1.9c-0.5,0.6-1.1,1.2-2.1,1.8
			C416.2,449.7,415.2,449.9,413.8,449.9z"/>
		<path class="st17" d="M425.7,429.8v19.9h-3.9v-19.9H425.7z"/>
		<path class="st17" d="M428.1,442.8v-0.2c0-1.3,0.2-2.5,0.7-3.6c0.5-1.1,1.3-1.9,2.3-2.5c1-0.6,2.2-1,3.6-1s2.7,0.4,3.6,1
			c1,0.6,1.8,1.4,2.3,2.5c0.5,1.1,0.7,2.3,0.7,3.6v0.2c0,1.3-0.2,2.5-0.7,3.6c-0.5,1.1-1.3,1.9-2.3,2.5c-1,0.6-2.2,1-3.6,1
			s-2.7-0.4-3.6-1c-1-0.6-1.7-1.4-2.3-2.5C428.2,445.4,428.1,444.3,428.1,442.8z M431.8,442.6v0.2c0,0.7,0.1,1.4,0.2,2.2
			c0.2,0.6,0.5,1.2,1,1.6c0.5,0.4,1,0.6,1.7,0.6c0.7,0,1.2-0.2,1.7-0.6c0.5-0.4,0.7-0.8,1-1.6c0.2-0.6,0.2-1.3,0.2-2.2v-0.2
			c0-0.7-0.1-1.4-0.2-2.1c-0.2-0.6-0.5-1.2-1-1.6s-1-0.6-1.7-0.6c-0.7,0-1.2,0.2-1.7,0.6s-0.7,0.8-1,1.6
			C431.9,441.1,431.8,441.9,431.8,442.6z"/>
		<path class="st17" d="M447.4,438.3v16.8h-3.7v-19.4h3.5L447.4,438.3z M456.3,442.6v0.2c0,1.3-0.2,2.5-0.6,3.6
			c-0.4,1.1-1.1,1.9-1.8,2.5c-0.8,0.6-1.8,1-3,1s-2.1-0.4-2.8-1c-0.7-0.6-1.3-1.4-1.7-2.4c-0.4-1.1-0.7-2.2-0.8-3.5v-0.7
			c0.1-1.3,0.5-2.5,0.8-3.6c0.4-1.1,1-1.9,1.7-2.5c0.7-0.6,1.7-0.8,2.8-0.8c1.2,0,2.2,0.2,3,0.8c0.8,0.6,1.4,1.4,1.8,2.5
			C456.1,439.9,456.3,441.1,456.3,442.6z M452.6,442.8v-0.2c0-0.8-0.1-1.4-0.2-2.2c-0.1-0.6-0.5-1.1-0.8-1.4c-0.4-0.4-1-0.6-1.6-0.6
			c-0.5,0-1,0.1-1.3,0.2s-0.6,0.4-0.8,0.7c-0.2,0.4-0.4,0.7-0.5,1.1c-0.1,0.5-0.2,1-0.2,1.4v1.8c0,0.6,0.1,1.2,0.4,1.7s0.5,1,1,1.2
			c0.5,0.2,1,0.5,1.7,0.5c0.6,0,1.2-0.2,1.6-0.6s0.7-0.8,0.8-1.6C452.6,444.1,452.6,443.7,452.6,442.8z"/>
		<path class="st17" d="M462.4,438.6v11.1h-3.7v-14h3.5L462.4,438.6z M461.9,442.2h-1.1c0-1.3,0.2-2.4,0.6-3.5
			c0.4-1,1.1-1.8,1.8-2.4c0.8-0.6,1.8-0.8,3-0.8c1.2,0,2.3,0.4,3,1.2c0.8,0.7,1.2,2.1,1.2,3.7v9.4h-3.7v-8.9c0-0.6-0.1-1.1-0.2-1.4
			c-0.1-0.4-0.4-0.6-0.7-0.7c-0.4-0.1-0.7-0.2-1.1-0.2c-0.5,0-1,0.1-1.2,0.2c-0.4,0.2-0.6,0.5-0.8,0.8c-0.2,0.4-0.4,0.7-0.5,1.2
			C461.9,441.1,461.9,441.7,461.9,442.2z M470.2,441.9l-1.3,0.1c0-1.2,0.2-2.3,0.6-3.3c0.4-1,1-1.8,1.8-2.3c0.8-0.5,1.8-0.8,3-0.8
			c1,0,1.7,0.1,2.4,0.5c0.7,0.4,1.2,1,1.6,1.7c0.4,0.7,0.6,1.8,0.6,3.1v8.9h-3.7v-8.9c0-0.6-0.1-1.1-0.2-1.4
			c-0.1-0.4-0.4-0.6-0.7-0.7c-0.4-0.1-0.7-0.2-1.1-0.2c-0.5,0-0.8,0.1-1.2,0.2c-0.4,0.1-0.6,0.4-0.8,0.7c-0.2,0.4-0.4,0.7-0.5,1.1
			C470.2,440.9,470.2,441.4,470.2,441.9z"/>
		<path class="st17" d="M488.1,449.9c-1.4,0-2.7-0.4-3.7-1c-1.1-0.6-1.8-1.4-2.4-2.4c-0.6-1-0.8-2.2-0.8-3.4v-0.5
			c0-1.4,0.2-2.7,0.8-3.7c0.5-1.1,1.3-1.9,2.3-2.5c1-0.6,2.2-1,3.5-1c1.3,0,2.4,0.2,3.4,0.8c1,0.6,1.6,1.3,2.1,2.4
			c0.5,1.1,0.7,2.2,0.7,3.6v1.6h-11.1v-2.5h7.5v-0.2c0-0.5-0.1-1-0.2-1.4c-0.2-0.4-0.5-0.7-0.8-1c-0.4-0.2-0.8-0.4-1.4-0.4
			c-0.6,0-1.2,0.2-1.6,0.6c-0.4,0.4-0.7,0.8-0.8,1.6c-0.2,0.6-0.2,1.4-0.2,2.2v0.5c0,0.7,0.1,1.4,0.4,2.1s0.7,1.1,1.2,1.3
			c0.5,0.4,1.1,0.5,1.8,0.5c0.7,0,1.3-0.1,1.9-0.4c0.6-0.2,1.1-0.6,1.6-1.2l1.8,1.9c-0.5,0.6-1.1,1.2-2.1,1.8
			C490.6,449.7,489.4,449.9,488.1,449.9z"/>
		<path class="st17" d="M499.7,438.7v11H496v-14h3.5L499.7,438.7z M499.1,442.2h-1c0-1.3,0.2-2.5,0.7-3.6c0.5-1,1.1-1.8,1.9-2.3
			c0.8-0.5,1.8-0.8,2.9-0.8c0.8,0,1.7,0.1,2.3,0.5c0.7,0.4,1.2,0.8,1.6,1.7c0.4,0.7,0.6,1.8,0.6,3.1v8.9h-3.7v-8.9
			c0-0.6-0.1-1.1-0.2-1.4c-0.1-0.4-0.5-0.6-0.7-0.7c-0.2-0.1-0.7-0.2-1.2-0.2c-0.5,0-1,0.1-1.3,0.2s-0.7,0.5-1,0.8
			c-0.2,0.4-0.4,0.7-0.5,1.2C499.2,441.1,499.1,441.7,499.1,442.2z"/>
		<path class="st17" d="M517.8,435.7v2.7h-8.2v-2.7H517.8z M511.7,432.2h3.7v13.3c0,0.4,0,0.7,0.1,1s0.2,0.4,0.5,0.5
			c0.2,0.1,0.5,0.1,0.8,0.1c0.2,0,0.5,0,0.6,0c0.2,0,0.4,0,0.5-0.1v2.8c-0.4,0.1-0.7,0.2-1.1,0.2c-0.4,0-0.7,0.1-1.2,0.1
			c-0.8,0-1.6-0.1-2.2-0.4c-0.6-0.2-1.1-0.7-1.4-1.3c-0.4-0.6-0.5-1.4-0.5-2.4v-13.8H511.7z"/>
	</g>
</g>
<g>
	<g>
		<path class="st17" d="M169.4,356.9h3.3l0.6,13.5v5.3h-3.9V356.9z M171.2,356.9h3.3l4.8,13.8l4.8-13.8h3.3l-6.9,18.8h-2.6
			L171.2,356.9z M185.9,356.9h3.3v18.8h-3.9v-5.3L185.9,356.9z"/>
		<path class="st17" d="M198.8,376c-1.4,0-2.6-0.4-3.7-1c-1.1-0.6-1.8-1.4-2.4-2.4c-0.6-1.1-0.8-2.2-0.8-3.4v-0.6
			c0-1.4,0.2-2.6,0.8-3.7c0.5-1.1,1.3-1.9,2.3-2.5s2.2-1,3.5-1c1.3,0,2.4,0.2,3.4,0.8c1,0.6,1.6,1.3,2,2.4c0.5,1.1,0.7,2.2,0.7,3.6
			v1.6h-11.1v-2.5h7.5v-0.2c0-0.5-0.1-1-0.2-1.4c-0.2-0.4-0.5-0.7-0.8-1s-0.8-0.4-1.4-0.4c-0.6,0-1.2,0.2-1.6,0.6s-0.7,0.8-0.8,1.6
			c-0.2,0.6-0.2,1.4-0.2,2.2v0.5c0,0.7,0.1,1.4,0.4,2c0.2,0.6,0.7,1.1,1.2,1.3c0.5,0.4,1.1,0.5,1.8,0.5s1.3-0.1,1.9-0.4
			c0.6-0.2,1.1-0.6,1.6-1.2l1.8,1.9c-0.5,0.6-1.1,1.2-2,1.8C201.3,375.8,200.1,376,198.8,376z"/>
		<path class="st17" d="M210.4,364.7v11h-3.7v-14h3.5L210.4,364.7z M209.8,368.2h-1c0-1.3,0.2-2.5,0.7-3.6c0.5-1,1.1-1.8,1.9-2.3
			c0.8-0.6,1.8-0.8,2.9-0.8c0.8,0,1.7,0.1,2.3,0.5c0.7,0.4,1.2,0.8,1.6,1.7c0.4,0.7,0.6,1.8,0.6,3.1v8.9h-3.7v-8.9
			c0-0.6-0.1-1.1-0.2-1.4c-0.1-0.4-0.5-0.6-0.7-0.7c-0.4-0.1-0.7-0.2-1.2-0.2c-0.5,0-1,0.1-1.3,0.2c-0.4,0.2-0.7,0.5-1,0.8
			c-0.2,0.4-0.4,0.7-0.5,1.2C209.9,367.2,209.8,367.7,209.8,368.2z"/>
		<path class="st17" d="M228.4,361.7v2.6h-8.2v-2.6H228.4z M222.3,358.3h3.7v13.2c0,0.4,0,0.7,0.1,1c0.1,0.2,0.2,0.4,0.5,0.5
			c0.2,0.1,0.5,0.1,0.8,0.1c0.2,0,0.5,0,0.6,0c0.2,0,0.4,0,0.5-0.1v2.8c-0.4,0.1-0.7,0.2-1.1,0.2c-0.4,0-0.7,0.1-1.2,0.1
			c-0.8,0-1.6-0.1-2.2-0.4c-0.6-0.2-1.1-0.7-1.4-1.3s-0.5-1.4-0.5-2.4v-13.7H222.3z"/>
		<path class="st17" d="M229.9,368.9v-0.2c0-1.3,0.2-2.5,0.7-3.6c0.5-1.1,1.3-1.9,2.3-2.5c1-0.6,2.2-1,3.6-1c1.4,0,2.6,0.4,3.6,1
			c1,0.6,1.8,1.4,2.3,2.5c0.5,1.1,0.7,2.3,0.7,3.6v0.2c0,1.3-0.2,2.5-0.7,3.6c-0.5,1.1-1.3,1.9-2.3,2.5c-1,0.6-2.2,1-3.6,1
			c-1.4,0-2.6-0.4-3.6-1c-1-0.6-1.7-1.4-2.3-2.5C230,371.4,229.9,370.2,229.9,368.9z M233.6,368.5v0.2c0,0.7,0.1,1.4,0.2,2.2
			c0.2,0.6,0.5,1.2,1,1.6c0.5,0.4,1,0.6,1.7,0.6c0.7,0,1.2-0.2,1.7-0.6c0.5-0.4,0.7-0.8,1-1.6c0.2-0.6,0.2-1.3,0.2-2.2v-0.2
			c0-0.7-0.1-1.4-0.2-2c-0.2-0.6-0.5-1.2-1-1.6s-1-0.6-1.7-0.6c-0.7,0-1.2,0.2-1.7,0.6c-0.5,0.4-0.7,0.8-1,1.6
			C233.7,367.1,233.6,367.8,233.6,368.5z"/>
		<path class="st17" d="M249.1,364.8v11h-3.7v-14h3.5L249.1,364.8z M253.3,361.7v3.4c-0.2,0-0.4,0-0.6-0.1c-0.2,0-0.5,0-0.7,0
			c-0.7,0-1.3,0.1-1.7,0.4c-0.5,0.2-0.8,0.6-1,1c-0.2,0.5-0.4,1-0.4,1.6l-0.7-0.2c0-1.2,0.1-2.3,0.5-3.3c0.4-1,0.7-1.7,1.4-2.3
			s1.3-0.8,2.3-0.8c0.2,0,0.4,0,0.6,0C253.1,361.5,253.2,361.5,253.3,361.7z"/>
		<path class="st17" d="M255,358.1c0-0.6,0.2-1,0.6-1.3c0.4-0.4,0.8-0.5,1.6-0.5c0.6,0,1.1,0.1,1.6,0.5c0.4,0.4,0.6,0.8,0.6,1.3
			s-0.2,1-0.6,1.3s-0.8,0.5-1.6,0.5c-0.6,0-1.2-0.1-1.6-0.5S255,358.7,255,358.1z M259,361.7v14h-3.7v-14H259z"/>
		<path class="st17" d="M265.7,364.7v11H262v-14h3.5L265.7,364.7z M265.3,368.2h-1.1c0-1.3,0.2-2.5,0.7-3.6c0.5-1,1.1-1.8,1.9-2.3
			c0.8-0.6,1.8-0.8,2.9-0.8c0.8,0,1.7,0.1,2.3,0.5c0.7,0.4,1.2,0.8,1.6,1.7c0.4,0.7,0.6,1.8,0.6,3.1v8.9h-3.7v-8.9
			c0-0.6-0.1-1.1-0.2-1.4c-0.1-0.4-0.5-0.6-0.7-0.7c-0.4-0.1-0.7-0.2-1.2-0.2c-0.5,0-1,0.1-1.3,0.2c-0.4,0.2-0.7,0.5-1,0.8
			s-0.4,0.7-0.5,1.2C265.3,367.2,265.3,367.7,265.3,368.2z"/>
		<path class="st17" d="M276.5,368.9v-0.2c0-1.4,0.2-2.6,0.7-3.7c0.5-1.1,1.1-1.9,1.9-2.5s1.8-0.8,3-0.8c1,0,1.7,0.1,2.3,0.5
			s1.2,0.8,1.6,1.4c0.4,0.6,0.7,1.3,1,2.3c0.2,0.8,0.4,1.8,0.5,2.8v0.6c-0.1,1.3-0.5,2.4-0.8,3.5c-0.4,1.1-1,1.8-1.7,2.5
			c-0.7,0.6-1.7,1-2.8,1c-1.2,0-2.2-0.4-3-1c-0.8-0.6-1.4-1.4-1.9-2.5C276.7,371.4,276.5,370.2,276.5,368.9z M285.8,361.7h3.4v13.5
			c0,1.3-0.2,2.4-0.8,3.3s-1.3,1.6-2.4,2c-1,0.5-2.2,0.7-3.5,0.7c-0.6,0-1.2-0.1-1.8-0.2c-0.6-0.1-1.3-0.4-1.8-0.7
			c-0.6-0.4-1.1-0.7-1.4-1.2l1.7-2.2c0.5,0.5,1,0.8,1.4,1.2c0.6,0.2,1.2,0.4,1.9,0.4c1,0,1.8-0.2,2.3-0.8c0.6-0.6,0.8-1.3,0.8-2.3
			v-10.4L285.8,361.7z M280.2,368.7v0.2c0,0.7,0.1,1.4,0.4,2c0.2,0.6,0.5,1.1,1,1.4c0.4,0.4,1,0.6,1.6,0.6c0.7,0,1.2-0.1,1.7-0.5
			c0.5-0.2,0.7-0.7,1-1.2c0.2-0.5,0.4-1.1,0.4-1.8v-1.7c0-0.6-0.1-1.1-0.2-1.4c-0.1-0.5-0.4-0.8-0.6-1.1c-0.2-0.2-0.5-0.6-1-0.7
			c-0.4-0.1-0.8-0.2-1.3-0.2c-0.6,0-1.2,0.2-1.6,0.6c-0.4,0.4-0.7,0.8-1,1.6C280.3,367.1,280.2,367.8,280.2,368.7z"/>
	</g>
</g>
<g>
	<g>
		<path class="st17" d="M370.2,113.7c0-0.5-0.1-0.8-0.2-1.2c-0.2-0.4-0.6-0.6-1.1-0.9c-0.5-0.2-1.3-0.6-2.2-0.9
			c-1.2-0.4-2.1-0.8-3-1.3c-0.9-0.5-1.6-1.1-2.2-1.8s-0.8-1.6-0.8-2.7c0-1.1,0.2-1.9,0.8-2.7s1.4-1.4,2.5-1.8
			c1.1-0.5,2.2-0.6,3.5-0.6c1.4,0,2.6,0.2,3.5,0.7c1.1,0.5,1.8,1.2,2.3,2c0.6,0.8,0.8,1.9,0.8,2.9h-3.8c0-0.6-0.1-1.1-0.4-1.4
			c-0.2-0.4-0.6-0.7-1.1-0.9c-0.5-0.2-1.1-0.4-1.6-0.4c-0.7,0-1.2,0.1-1.6,0.4c-0.5,0.2-0.8,0.5-0.9,0.8c-0.2,0.4-0.4,0.7-0.4,1.2
			s0.1,0.8,0.5,1.1c0.2,0.4,0.7,0.6,1.2,0.8c0.5,0.2,1.2,0.5,2,0.7c1.3,0.4,2.5,0.8,3.4,1.4c0.9,0.6,1.6,1.2,2,1.9
			c0.5,0.7,0.7,1.6,0.7,2.6c0,1.1-0.2,2-0.8,2.7c-0.6,0.7-1.3,1.3-2.3,1.8s-2.1,0.6-3.5,0.6c-0.9,0-1.8-0.1-2.7-0.4
			c-0.9-0.2-1.6-0.6-2.3-1.1c-0.7-0.5-1.3-1.1-1.8-1.9c-0.5-0.8-0.6-1.6-0.6-2.7h3.8c0,0.6,0.1,1.1,0.2,1.4c0.2,0.4,0.5,0.7,0.7,0.9
			c0.4,0.2,0.7,0.5,1.2,0.6c0.5,0.1,0.9,0.1,1.5,0.1c0.7,0,1.2-0.1,1.6-0.2c0.5-0.2,0.7-0.5,0.9-0.8
			C370.2,114.2,370.2,114,370.2,113.7z"/>
		<path class="st17" d="M383.1,104.7v2.6h-8v-2.6H383.1z M377.1,101.5h3.6v12.9c0,0.4,0,0.7,0.1,0.9c0.1,0.2,0.2,0.4,0.5,0.5
			c0.2,0.1,0.5,0.1,0.8,0.1c0.2,0,0.5,0,0.6,0c0.2,0,0.4,0,0.5-0.1v2.7c-0.4,0.1-0.7,0.2-1.1,0.2c-0.4,0-0.7,0.1-1.2,0.1
			c-0.8,0-1.5-0.1-2.1-0.4c-0.6-0.2-1.1-0.7-1.4-1.3c-0.4-0.6-0.5-1.4-0.5-2.3v-13.4H377.1z"/>
		<path class="st17" d="M388.7,107.8v10.7h-3.6v-13.6h3.4L388.7,107.8z M392.8,104.6l-0.1,3.4c-0.2,0-0.4,0-0.6-0.1
			c-0.2,0-0.5,0-0.7,0c-0.7,0-1.3,0.1-1.6,0.4c-0.5,0.2-0.8,0.6-0.9,0.9c-0.2,0.5-0.4,0.9-0.4,1.5l-0.7-0.2c0-1.2,0.1-2.2,0.5-3.2
			c0.4-0.9,0.7-1.6,1.4-2.2c0.7-0.6,1.3-0.8,2.2-0.8c0.2,0,0.4,0,0.6,0C392.5,104.6,392.7,104.6,392.8,104.6z"/>
		<path class="st17" d="M400.8,118.7c-1.4,0-2.6-0.4-3.6-0.9c-1.1-0.6-1.8-1.4-2.3-2.3c-0.6-1.1-0.8-2.1-0.8-3.3v-0.5
			c0-1.4,0.2-2.6,0.8-3.6c0.5-1.1,1.3-1.9,2.2-2.5c0.9-0.6,2.1-0.9,3.4-0.9c1.3,0,2.3,0.2,3.3,0.8c0.9,0.6,1.5,1.3,2,2.3
			c0.5,1.1,0.7,2.1,0.7,3.5v1.5h-10.8v-2.5h7.3v-0.2c0-0.5-0.1-0.9-0.2-1.4c-0.2-0.4-0.5-0.7-0.8-0.9s-0.8-0.4-1.4-0.4
			c-0.6,0-1.2,0.2-1.5,0.6s-0.7,0.8-0.8,1.5c-0.2,0.6-0.2,1.4-0.2,2.1v0.5c0,0.7,0.1,1.4,0.4,2c0.2,0.6,0.7,1.1,1.2,1.3
			c0.5,0.4,1.1,0.5,1.8,0.5c0.7,0,1.3-0.1,1.9-0.4c0.6-0.2,1.1-0.6,1.5-1.2l1.8,1.9c-0.5,0.6-1.1,1.2-2,1.8
			C403.3,118.3,402.1,118.7,400.8,118.7z"/>
		<path class="st17" d="M412.1,107.7v10.7h-3.6v-13.6h3.4L412.1,107.7z M411.5,111.1h-0.9c0-1.3,0.2-2.5,0.7-3.5
			c0.5-0.9,1.1-1.8,1.9-2.2c0.8-0.6,1.8-0.8,2.8-0.8c0.8,0,1.6,0.1,2.2,0.5c0.7,0.4,1.2,0.8,1.5,1.6c0.4,0.7,0.6,1.8,0.6,3v8.7h-3.6
			v-8.7c0-0.6-0.1-1.1-0.2-1.4c-0.1-0.4-0.5-0.6-0.7-0.7c-0.2-0.1-0.7-0.2-1.2-0.2c-0.5,0-0.9,0.1-1.3,0.2c-0.4,0.2-0.7,0.5-0.9,0.8
			c-0.2,0.4-0.4,0.7-0.5,1.2C411.6,110.1,411.5,110.6,411.5,111.1z"/>
		<path class="st17" d="M422.4,111.8v-0.2c0-1.4,0.2-2.6,0.7-3.6c0.5-1.1,1.1-1.9,1.9-2.5c0.8-0.6,1.8-0.8,2.9-0.8
			c0.9,0,1.6,0.1,2.2,0.5s1.2,0.8,1.5,1.4c0.4,0.6,0.7,1.3,0.9,2.2c0.2,0.8,0.4,1.8,0.5,2.7v0.6c-0.1,1.3-0.5,2.3-0.8,3.4
			c-0.4,1.1-0.9,1.8-1.6,2.5c-0.7,0.6-1.6,0.9-2.7,0.9c-1.2,0-2.1-0.4-2.9-0.9c-0.8-0.6-1.4-1.4-1.9-2.5
			C422.6,114.2,422.4,113.1,422.4,111.8z M431.5,104.7h3.3v13.1c0,1.3-0.2,2.3-0.8,3.2c-0.6,0.8-1.3,1.5-2.3,2
			c-0.9,0.5-2.1,0.7-3.4,0.7c-0.6,0-1.2-0.1-1.8-0.2c-0.6-0.1-1.3-0.4-1.8-0.7c-0.6-0.4-1.1-0.7-1.4-1.2l1.6-2.1
			c0.5,0.5,0.9,0.8,1.4,1.2c0.6,0.2,1.2,0.4,1.9,0.4c0.9,0,1.8-0.2,2.2-0.8c0.6-0.6,0.8-1.3,0.8-2.2v-10.1L431.5,104.7z M426,111.4
			v0.2c0,0.7,0.1,1.4,0.4,2c0.2,0.6,0.5,1.1,0.9,1.4c0.4,0.4,0.9,0.6,1.5,0.6c0.7,0,1.2-0.1,1.6-0.5c0.5-0.2,0.7-0.7,0.9-1.2
			c0.2-0.5,0.4-1.1,0.4-1.8v-1.6c0-0.6-0.1-1.1-0.2-1.4c-0.1-0.5-0.4-0.8-0.6-1.1c-0.2-0.2-0.5-0.6-0.9-0.7
			c-0.4-0.1-0.8-0.2-1.3-0.2c-0.6,0-1.2,0.2-1.5,0.6c-0.4,0.4-0.7,0.8-0.9,1.5C426.1,110,426,110.7,426,111.4z"/>
		<path class="st17" d="M444.3,104.7v2.6h-8v-2.6H444.3z M438.3,101.5h3.6v12.9c0,0.4,0,0.7,0.1,0.9c0.1,0.2,0.2,0.4,0.5,0.5
			c0.2,0.1,0.5,0.1,0.8,0.1c0.2,0,0.5,0,0.6,0c0.2,0,0.4,0,0.5-0.1v2.7c-0.4,0.1-0.7,0.2-1.1,0.2c-0.4,0-0.7,0.1-1.2,0.1
			c-0.8,0-1.5-0.1-2.1-0.4c-0.6-0.2-1.1-0.7-1.4-1.3c-0.4-0.6-0.5-1.4-0.5-2.3v-13.4H438.3z"/>
		<path class="st17" d="M449.9,99v19.3h-3.6V99H449.9z M449.5,111.1h-0.9c0-1.3,0.2-2.3,0.7-3.4c0.5-0.9,1.1-1.8,1.8-2.3
			c0.8-0.6,1.6-0.8,2.7-0.8c0.9,0,1.6,0.1,2.3,0.5c0.7,0.4,1.2,0.9,1.5,1.6c0.4,0.8,0.6,1.8,0.6,3v8.6h-3.6v-8.7
			c0-0.6-0.1-1.1-0.2-1.4c-0.1-0.4-0.5-0.6-0.7-0.7c-0.4-0.1-0.7-0.2-1.2-0.2c-0.5,0-0.9,0.1-1.3,0.2c-0.4,0.2-0.7,0.5-0.8,0.8
			c-0.2,0.4-0.4,0.7-0.5,1.2C449.7,109.9,449.5,110.6,449.5,111.1z"/>
		<path class="st17" d="M467.2,118.7c-1.4,0-2.6-0.4-3.6-0.9c-1.1-0.6-1.8-1.4-2.3-2.3c-0.6-1.1-0.8-2.1-0.8-3.3v-0.5
			c0-1.4,0.2-2.6,0.8-3.6c0.5-1.1,1.3-1.9,2.2-2.5c0.9-0.6,2.1-0.9,3.4-0.9c1.3,0,2.3,0.2,3.3,0.8c0.9,0.6,1.5,1.3,2,2.3
			c0.5,1.1,0.7,2.1,0.7,3.5v1.5H462v-2.5h7.3v-0.2c0-0.5-0.1-0.9-0.2-1.4c-0.2-0.4-0.5-0.7-0.8-0.9c-0.4-0.2-0.8-0.4-1.4-0.4
			c-0.6,0-1.2,0.2-1.5,0.6s-0.7,0.8-0.8,1.5c-0.2,0.6-0.2,1.4-0.2,2.1v0.5c0,0.7,0.1,1.4,0.4,2c0.2,0.6,0.7,1.1,1.2,1.3
			c0.5,0.4,1.1,0.5,1.8,0.5s1.3-0.1,1.9-0.4c0.6-0.2,1.1-0.6,1.5-1.2l1.8,1.9c-0.5,0.6-1.1,1.2-2,1.8
			C469.5,118.3,468.5,118.7,467.2,118.7z"/>
		<path class="st17" d="M478.3,107.7v10.7h-3.6v-13.6h3.4L478.3,107.7z M477.8,111.1h-0.9c0-1.3,0.2-2.5,0.7-3.5
			c0.5-0.9,1.1-1.8,1.9-2.2c0.8-0.6,1.8-0.8,2.8-0.8c0.8,0,1.6,0.1,2.2,0.5c0.7,0.4,1.2,0.8,1.5,1.6c0.4,0.7,0.6,1.8,0.6,3v8.7h-3.9
			v-8.7c0-0.6-0.1-1.1-0.2-1.4c-0.1-0.4-0.5-0.6-0.7-0.7c-0.2-0.1-0.7-0.2-1.2-0.2s-0.9,0.1-1.3,0.2c-0.4,0.2-0.7,0.5-0.9,0.8
			s-0.4,0.7-0.5,1.2C477.8,110.1,477.8,110.6,477.8,111.1z"/>
		<path class="st17" d="M489.2,101.2c0-0.6,0.2-0.9,0.6-1.3c0.4-0.4,0.8-0.5,1.5-0.5c0.6,0,1.1,0.1,1.5,0.5c0.4,0.4,0.6,0.8,0.6,1.3
			s-0.2,0.9-0.6,1.3c-0.4,0.4-0.8,0.5-1.5,0.5c-0.6,0-1.2-0.1-1.5-0.5C489.3,102.2,489.2,101.7,489.2,101.2z M493.1,104.7v13.6h-3.6
			v-13.6H493.1z"/>
		<path class="st17" d="M499.6,107.7v10.7H496v-13.6h3.4L499.6,107.7z M499.1,111.1h-0.9c0-1.3,0.2-2.5,0.7-3.5
			c0.5-0.9,1.1-1.8,1.9-2.2c0.8-0.6,1.8-0.8,2.8-0.8c0.8,0,1.6,0.1,2.2,0.5c0.7,0.4,1.2,0.8,1.5,1.6c0.4,0.7,0.6,1.8,0.6,3v8.7h-3.6
			v-8.7c0-0.6-0.1-1.1-0.2-1.4c-0.1-0.4-0.5-0.6-0.7-0.7c-0.2-0.1-0.7-0.2-1.2-0.2s-0.9,0.1-1.3,0.2c-0.4,0.2-0.7,0.5-0.9,0.8
			s-0.4,0.7-0.5,1.2C499.2,110.1,499.1,110.6,499.1,111.1z"/>
		<path class="st17" d="M510,111.8v-0.2c0-1.4,0.2-2.6,0.7-3.6c0.5-1.1,1.1-1.9,1.9-2.5c0.8-0.6,1.8-0.8,2.9-0.8
			c0.9,0,1.6,0.1,2.2,0.5c0.6,0.4,1.2,0.8,1.5,1.4c0.4,0.6,0.7,1.3,0.9,2.2c0.2,0.8,0.4,1.8,0.5,2.7v0.6c-0.1,1.3-0.5,2.3-0.8,3.4
			c-0.4,1.1-0.9,1.8-1.6,2.5c-0.7,0.6-1.6,0.9-2.7,0.9c-1.2,0-2.1-0.4-2.9-0.9c-0.8-0.6-1.4-1.4-1.9-2.5
			C510.2,114.2,510,113.1,510,111.8z M519.1,104.7h3.3v13.1c0,1.3-0.2,2.3-0.8,3.2c-0.6,0.8-1.3,1.5-2.3,2c-0.9,0.5-2.1,0.7-3.4,0.7
			c-0.6,0-1.2-0.1-1.8-0.2c-0.6-0.1-1.3-0.4-1.8-0.7c-0.6-0.4-1.1-0.7-1.4-1.2l1.6-2.1c0.5,0.5,0.9,0.8,1.4,1.2
			c0.6,0.2,1.2,0.4,1.9,0.4c0.9,0,1.8-0.2,2.2-0.8c0.6-0.6,0.8-1.3,0.8-2.2v-10.1L519.1,104.7z M513.6,111.4v0.2
			c0,0.7,0.1,1.4,0.4,2c0.2,0.6,0.5,1.1,0.9,1.4c0.4,0.4,0.9,0.6,1.5,0.6c0.7,0,1.2-0.1,1.6-0.5c0.5-0.2,0.7-0.7,0.9-1.2
			c0.2-0.5,0.4-1.1,0.4-1.8v-1.6c0-0.6-0.1-1.1-0.2-1.4c-0.1-0.5-0.4-0.8-0.6-1.1c-0.2-0.2-0.5-0.6-0.9-0.7
			c-0.4-0.1-0.8-0.2-1.3-0.2c-0.6,0-1.2,0.2-1.5,0.6c-0.4,0.4-0.7,0.8-0.9,1.5C513.7,110,513.6,110.7,513.6,111.4z"/>
		<path class="st17" d="M538.5,104.7v2.6h-8v-2.6H538.5z M532.5,101.5h3.6v12.9c0,0.4,0,0.7,0.1,0.9c0.1,0.2,0.2,0.4,0.5,0.5
			c0.2,0.1,0.5,0.1,0.8,0.1c0.2,0,0.5,0,0.6,0c0.2,0,0.4,0,0.5-0.1v2.7c-0.4,0.1-0.7,0.2-1.1,0.2c-0.4,0-0.7,0.1-1.2,0.1
			c-0.8,0-1.5-0.1-2.1-0.4c-0.6-0.2-1.1-0.7-1.4-1.3c-0.4-0.6-0.5-1.4-0.5-2.3v-13.4H532.5z"/>
		<path class="st17" d="M544,99v19.3h-3.6V99H544z M543.5,111.1h-0.9c0-1.3,0.2-2.3,0.7-3.4c0.5-0.9,1.1-1.8,1.8-2.3
			c0.8-0.6,1.6-0.8,2.7-0.8c0.9,0,1.6,0.1,2.3,0.5s1.2,0.9,1.5,1.6c0.4,0.8,0.6,1.8,0.6,3v8.6h-3.6v-8.7c0-0.6-0.1-1.1-0.2-1.4
			c-0.1-0.4-0.5-0.6-0.7-0.7c-0.4-0.1-0.7-0.2-1.2-0.2s-0.9,0.1-1.3,0.2c-0.4,0.2-0.7,0.5-0.8,0.8c-0.2,0.4-0.4,0.7-0.5,1.2
			C543.7,109.9,543.5,110.6,543.5,111.1z"/>
		<path class="st17" d="M561.2,118.7c-1.4,0-2.6-0.4-3.6-0.9c-1.1-0.6-1.8-1.4-2.3-2.3c-0.6-1.1-0.8-2.1-0.8-3.3v-0.5
			c0-1.4,0.2-2.6,0.8-3.6c0.5-1.1,1.3-1.9,2.2-2.5c0.9-0.6,2.1-0.9,3.4-0.9c1.3,0,2.3,0.2,3.3,0.8c0.9,0.6,1.5,1.3,2,2.3
			c0.5,1.1,0.7,2.1,0.7,3.5v1.5H556v-2.5h7.3v-0.2c0-0.5-0.1-0.9-0.2-1.4c-0.2-0.4-0.5-0.7-0.8-0.9c-0.4-0.2-0.8-0.4-1.4-0.4
			c-0.6,0-1.2,0.2-1.5,0.6s-0.7,0.8-0.8,1.5c-0.2,0.6-0.2,1.4-0.2,2.1v0.5c0,0.7,0.1,1.4,0.4,2c0.2,0.6,0.7,1.1,1.2,1.3
			c0.5,0.4,1.1,0.5,1.8,0.5s1.3-0.1,1.9-0.4c0.6-0.2,1.1-0.6,1.5-1.2l1.8,1.9c-0.5,0.6-1.1,1.2-2,1.8
			C563.7,118.3,562.5,118.7,561.2,118.7z"/>
		<path class="st17" d="M586.2,112.4h3.8c-0.1,1.3-0.5,2.3-1.1,3.3c-0.6,0.9-1.4,1.8-2.5,2.2c-1.1,0.6-2.3,0.8-3.9,0.8
			c-1.5,0-2.9-0.4-4-1.1c-1.2-0.7-2-1.8-2.6-3c-0.6-1.3-0.9-2.8-0.9-4.7v-1.3c0-1.8,0.4-3.4,0.9-4.7c0.6-1.3,1.5-2.3,2.7-3
			c1.2-0.7,2.5-1.1,4-1.1c1.5,0,2.8,0.2,3.9,0.8c1.1,0.6,1.9,1.3,2.5,2.3c0.6,0.9,0.9,2.1,1.1,3.3h-3.8c-0.1-1.1-0.4-2-0.9-2.6
			c-0.6-0.6-1.4-0.9-2.7-0.9c-0.8,0-1.5,0.2-2.1,0.6c-0.6,0.5-0.9,1.1-1.3,1.9s-0.5,2-0.5,3.3v1.3c0,1.3,0.1,2.3,0.4,3.2
			c0.2,0.8,0.7,1.5,1.2,2c0.5,0.5,1.3,0.7,2.1,0.7c0.8,0,1.4-0.1,2-0.4c0.5-0.2,0.9-0.6,1.2-1.2
			C586.1,113.7,586.2,113.1,586.2,112.4z"/>
		<path class="st17" d="M591.7,111.8v-0.2c0-1.3,0.2-2.5,0.7-3.5s1.3-1.9,2.2-2.5c0.9-0.6,2.1-0.9,3.5-0.9c1.4,0,2.6,0.4,3.5,0.9
			c0.9,0.6,1.8,1.4,2.2,2.5s0.7,2.2,0.7,3.5v0.2c0,1.3-0.2,2.5-0.7,3.5c-0.5,1.1-1.3,1.9-2.2,2.5c-0.9,0.6-2.1,0.9-3.5,0.9
			c-1.4,0-2.6-0.4-3.5-0.9c-0.9-0.6-1.6-1.4-2.2-2.5C591.8,114.2,591.7,113.1,591.7,111.8z M595.3,111.4v0.2c0,0.7,0.1,1.4,0.2,2.1
			c0.2,0.6,0.5,1.2,0.9,1.5s0.9,0.6,1.6,0.6c0.7,0,1.2-0.2,1.6-0.6s0.7-0.8,0.9-1.5c0.2-0.6,0.2-1.3,0.2-2.1v-0.2
			c0-0.7-0.1-1.4-0.2-2c-0.2-0.6-0.5-1.2-0.9-1.5s-0.9-0.6-1.6-0.6c-0.7,0-1.2,0.2-1.6,0.6s-0.7,0.8-0.9,1.5
			C595.3,110,595.3,110.7,595.3,111.4z"/>
		<path class="st17" d="M610.5,107.6v10.8h-3.6v-13.6h3.4L610.5,107.6z M609.9,111.1h-1.1c0-1.3,0.2-2.3,0.6-3.4
			c0.4-0.9,1.1-1.8,1.8-2.3c0.8-0.6,1.8-0.8,2.9-0.8s2.2,0.4,2.9,1.2c0.8,0.7,1.2,2,1.2,3.6v9.1h-3.6v-8.7c0-0.6-0.1-1.1-0.2-1.4
			c-0.1-0.4-0.4-0.6-0.7-0.7s-0.7-0.2-1.1-0.2c-0.5,0-0.9,0.1-1.2,0.2c-0.4,0.2-0.6,0.5-0.8,0.8s-0.4,0.7-0.5,1.2
			C610,110.1,609.9,110.6,609.9,111.1z M618.1,110.7l-1.3,0.1c0-1.2,0.2-2.2,0.6-3.2c0.4-0.9,0.9-1.8,1.8-2.2
			c0.8-0.6,1.8-0.8,2.9-0.8c0.9,0,1.6,0.1,2.3,0.5c0.7,0.4,1.2,0.9,1.5,1.6c0.4,0.7,0.6,1.8,0.6,3v8.7h-3.6v-8.7
			c0-0.6-0.1-1.1-0.2-1.4c-0.1-0.4-0.4-0.6-0.7-0.7c-0.4-0.1-0.7-0.2-1.1-0.2c-0.5,0-0.8,0.1-1.2,0.2c-0.4,0.1-0.6,0.4-0.8,0.7
			c-0.2,0.4-0.4,0.7-0.5,1.1C618.1,109.8,618.1,110.3,618.1,110.7z"/>
		<path class="st17" d="M632.7,107.6v10.8h-3.6v-13.6h3.4L632.7,107.6z M632.3,111.1h-1.1c0-1.3,0.2-2.3,0.6-3.4
			c0.4-0.9,1.1-1.8,1.8-2.3c0.8-0.6,1.8-0.8,2.9-0.8s2.2,0.4,2.9,1.2c0.8,0.7,1.2,2,1.2,3.6v9.1H637v-8.7c0-0.6-0.1-1.1-0.2-1.4
			c-0.1-0.4-0.4-0.6-0.7-0.7c-0.4-0.1-0.7-0.2-1.1-0.2c-0.5,0-0.9,0.1-1.2,0.2c-0.4,0.2-0.6,0.5-0.8,0.8c-0.2,0.4-0.4,0.7-0.5,1.2
			C632.4,110.1,632.3,110.6,632.3,111.1z M640.4,110.7l-1.3,0.1c0-1.2,0.2-2.2,0.6-3.2c0.4-0.9,0.9-1.8,1.8-2.2
			c0.8-0.6,1.8-0.8,2.9-0.8c0.9,0,1.6,0.1,2.3,0.5c0.7,0.4,1.2,0.9,1.5,1.6c0.4,0.7,0.6,1.8,0.6,3v8.7h-3.6v-8.7
			c0-0.6-0.1-1.1-0.2-1.4c-0.1-0.4-0.4-0.6-0.7-0.7s-0.7-0.2-1.1-0.2c-0.5,0-0.8,0.1-1.2,0.2s-0.6,0.4-0.8,0.7
			c-0.2,0.4-0.4,0.7-0.5,1.1C640.5,109.8,640.4,110.3,640.4,110.7z"/>
		<path class="st17" d="M659.9,112.4h1.1c0,1.2-0.2,2.3-0.6,3.3c-0.4,0.9-0.9,1.8-1.6,2.2c-0.7,0.6-1.8,0.8-2.8,0.8
			c-1.3,0-2.5-0.4-3.3-1.2s-1.3-2.1-1.3-3.9v-8.8h3.6v8.8c0,0.6,0.1,0.9,0.2,1.3c0.1,0.4,0.4,0.6,0.7,0.7c0.4,0.1,0.6,0.2,1.1,0.2
			c0.7,0,1.3-0.1,1.8-0.5c0.5-0.4,0.7-0.7,0.9-1.3C659.8,113.5,659.9,113,659.9,112.4z M659.6,115.2v-10.3h3.6v13.6h-3.4
			L659.6,115.2z"/>
		<path class="st17" d="M669.4,107.7v10.7h-3.6v-13.6h3.4L669.4,107.7z M669,111.1H668c0-1.3,0.2-2.5,0.7-3.5
			c0.5-0.9,1.1-1.8,1.9-2.2c0.8-0.6,1.8-0.8,2.8-0.8c0.8,0,1.6,0.1,2.2,0.5c0.7,0.4,1.2,0.8,1.5,1.6c0.4,0.7,0.6,1.8,0.6,3v8.7h-3.6
			v-8.7c0-0.6-0.1-1.1-0.2-1.4c-0.1-0.4-0.5-0.6-0.7-0.7c-0.2-0.1-0.7-0.2-1.2-0.2s-0.9,0.1-1.3,0.2c-0.4,0.2-0.7,0.5-0.9,0.8
			c-0.2,0.4-0.4,0.7-0.5,1.2C669,110.1,669,110.6,669,111.1z"/>
		<path class="st17" d="M680.3,101.2c0-0.6,0.2-0.9,0.6-1.3c0.4-0.4,0.8-0.5,1.5-0.5c0.6,0,1.1,0.1,1.5,0.5c0.4,0.4,0.6,0.8,0.6,1.3
			s-0.2,0.9-0.6,1.3c-0.4,0.4-0.8,0.5-1.5,0.5c-0.6,0-1.2-0.1-1.5-0.5S680.3,101.7,680.3,101.2z M684.2,104.7v13.6h-3.6v-13.6H684.2
			z"/>
		<path class="st17" d="M693.9,104.7v2.6h-8v-2.6H693.9z M688,101.5h3.6v12.9c0,0.4,0,0.7,0.1,0.9c0.1,0.2,0.2,0.4,0.5,0.5
			c0.2,0.1,0.5,0.1,0.8,0.1c0.2,0,0.5,0,0.6,0c0.2,0,0.4,0,0.5-0.1v2.7c-0.4,0.1-0.7,0.2-1.1,0.2c-0.4,0-0.7,0.1-1.2,0.1
			c-0.8,0-1.5-0.1-2.1-0.4c-0.6-0.2-1.1-0.7-1.4-1.3c-0.4-0.6-0.5-1.4-0.5-2.3v-13.4H688z"/>
		<path class="st17" d="M698.5,104.7l2.9,9.8l0.5,3.9l-2.5,0.2l-4.9-14H698.5z M700,116.8l3.6-12.1h3.9l-5.5,15.7
			c-0.1,0.4-0.2,0.7-0.5,1.1c-0.2,0.4-0.5,0.8-0.8,1.2c-0.4,0.4-0.7,0.7-1.3,0.8c-0.6,0.1-1.1,0.4-1.9,0.4c-0.4,0-0.6,0-0.8-0.1
			c-0.2,0-0.5-0.1-0.8-0.2v-2.7c0.1,0,0.2,0,0.2,0c0.1,0,0.2,0,0.2,0c0.7,0,1.3-0.1,1.5-0.4c0.4-0.2,0.6-0.6,0.8-1.2L700,116.8z"/>
	</g>
</g>
<path class="st7" d="M366.7,267.9h290.5V322h-28l14.7,34.4L591.6,322H366.7V267.9z"/>
<g>
	<g>
		<path class="st17" d="M396.5,283v18.8h-3.9V283H396.5z M398.4,301.9h-4.1v-3h4.1c1,0,1.9-0.2,2.5-0.7c0.7-0.5,1.2-1.1,1.6-2
			c0.4-0.8,0.5-1.9,0.5-3.3v-1c0-1.3-0.2-2.4-0.6-3.3c-0.4-0.8-0.8-1.6-1.6-2c-0.7-0.5-1.6-0.7-2.5-0.7h-4.2v-3h4.2
			c1.7,0,3.1,0.4,4.5,1.1s2.3,1.8,3,3.1s1.1,2.9,1.1,4.7v0.8c0,1.8-0.4,3.4-1.1,4.7s-1.7,2.4-3,3.1
			C401.7,301.6,400.1,301.9,398.4,301.9z"/>
		<path class="st17" d="M409.6,284.2c0-0.6,0.2-1,0.6-1.3c0.4-0.4,0.8-0.5,1.6-0.5c0.6,0,1.1,0.1,1.6,0.5c0.4,0.4,0.6,0.8,0.6,1.3
			c0,0.5-0.2,1-0.6,1.3c-0.4,0.4-0.8,0.5-1.6,0.5c-0.6,0-1.2-0.1-1.6-0.5C409.8,285.2,409.6,284.8,409.6,284.2z M413.6,287.9v14
			h-3.7v-14H413.6z"/>
		<path class="st17" d="M419.2,287.9l3.1,11.3l0.1,2.6h-2.4l-4.7-14H419.2z M421.4,299.2l3.1-11.3h3.9l-4.7,14h-2.4L421.4,299.2z"/>
		<path class="st17" d="M436.4,302.2c-1.4,0-2.6-0.4-3.7-1c-1.1-0.6-1.8-1.4-2.4-2.4c-0.6-1.1-0.8-2.2-0.8-3.4V295
			c0-1.4,0.2-2.6,0.8-3.7c0.5-1.1,1.3-1.9,2.3-2.5s2.2-1,3.5-1s2.4,0.2,3.4,0.8c1,0.6,1.6,1.3,2,2.4c0.5,1.1,0.7,2.2,0.7,3.6v1.6
			h-11.1v-2.5h7.5v-0.2c0-0.5-0.1-1-0.2-1.4c-0.2-0.4-0.5-0.7-0.8-1c-0.4-0.2-0.8-0.4-1.4-0.4s-1.2,0.2-1.6,0.6
			c-0.4,0.4-0.7,0.8-0.8,1.6c-0.2,0.6-0.2,1.4-0.2,2.2v0.5c0,0.7,0.1,1.4,0.4,2c0.2,0.6,0.7,1.1,1.2,1.3c0.5,0.4,1.1,0.5,1.8,0.5
			c0.7,0,1.3-0.1,1.9-0.4c0.6-0.2,1.1-0.6,1.6-1.2l1.8,1.9c-0.5,0.6-1.1,1.2-2,1.8C439,301.9,437.9,302.2,436.4,302.2z"/>
		<path class="st17" d="M448.1,291v11h-3.7v-14h3.5L448.1,291z M452.3,287.9l-0.1,3.5c-0.2,0-0.4,0-0.6-0.1c-0.2,0-0.5,0-0.7,0
			c-0.7,0-1.3,0.1-1.7,0.4c-0.5,0.2-0.8,0.6-1,1c-0.2,0.5-0.4,1-0.4,1.6l-0.7-0.2c0-1.2,0.1-2.3,0.5-3.3c0.4-1,0.7-1.7,1.4-2.3
			s1.3-0.8,2.3-0.8c0.2,0,0.4,0,0.6,0C452,287.7,452.1,287.7,452.3,287.9z"/>
		<path class="st17" d="M461.6,298.1c0-0.2-0.1-0.5-0.2-0.7c-0.1-0.2-0.5-0.4-0.8-0.6c-0.4-0.2-1-0.4-1.8-0.5
			c-1-0.2-1.8-0.5-2.5-0.8c-0.7-0.4-1.3-0.8-1.8-1.3c-0.5-0.6-0.6-1.2-0.6-2c0-0.7,0.2-1.4,0.7-2.2c0.5-0.6,1.1-1.2,1.9-1.6
			c0.8-0.4,1.8-0.6,3-0.6s2.3,0.2,3.1,0.6c0.8,0.4,1.6,1,2,1.6c0.5,0.7,0.7,1.4,0.7,2.3h-3.7c0-0.6-0.1-1-0.5-1.3
			c-0.4-0.4-0.8-0.6-1.7-0.6c-0.4,0-0.7,0.1-1.1,0.2s-0.5,0.4-0.7,0.6c-0.1,0.2-0.2,0.5-0.2,0.7s0.1,0.5,0.2,0.7s0.5,0.4,0.8,0.6
			c0.4,0.1,0.8,0.4,1.6,0.5c1,0.2,1.9,0.5,2.6,0.8c0.8,0.4,1.4,0.7,1.9,1.3c0.5,0.6,0.7,1.3,0.7,2.2c0,0.8-0.2,1.6-0.7,2.2
			s-1.2,1.2-2,1.6c-0.8,0.4-1.9,0.6-3.1,0.6c-1.3,0-2.4-0.2-3.3-0.7s-1.6-1.1-2-1.8c-0.5-0.7-0.7-1.4-0.7-2.2h3.5
			c0,0.5,0.1,1,0.4,1.2c0.2,0.2,0.6,0.5,1,0.7c0.4,0.1,0.8,0.2,1.2,0.2c0.5,0,0.8-0.1,1.2-0.2c0.4-0.1,0.6-0.4,0.7-0.6
			C461.5,298.6,461.6,298.3,461.6,298.1z"/>
		<path class="st17" d="M467.6,284.2c0-0.6,0.2-1,0.6-1.3c0.4-0.4,0.8-0.5,1.6-0.5c0.6,0,1.1,0.1,1.6,0.5c0.4,0.4,0.6,0.8,0.6,1.3
			c0,0.5-0.2,1-0.6,1.3c-0.4,0.4-0.8,0.5-1.6,0.5c-0.6,0-1.2-0.1-1.6-0.5C467.9,285.2,467.6,284.8,467.6,284.2z M471.6,287.9v14
			h-3.7v-14H471.6z"/>
		<path class="st17" d="M481.5,287.9v2.6h-8.2v-2.6H481.5z M475.3,284.5h3.7v13.2c0,0.4,0,0.7,0.1,1c0.1,0.2,0.2,0.4,0.5,0.5
			c0.2,0.1,0.5,0.1,0.8,0.1c0.2,0,0.5,0,0.6,0c0.2,0,0.4,0,0.5-0.1v2.8c-0.4,0.1-0.7,0.2-1.1,0.2c-0.4,0-0.7,0.1-1.2,0.1
			c-0.8,0-1.6-0.1-2.2-0.4c-0.6-0.2-1.1-0.7-1.4-1.3c-0.4-0.6-0.5-1.4-0.5-2.4v-13.7H475.3z"/>
		<path class="st17" d="M486.3,287.9l3,10.1l0.5,4l-2.5,0.2l-5.1-14.3H486.3z M487.7,300.4l3.7-12.4h4l-5.7,16.1
			c-0.1,0.4-0.2,0.7-0.5,1.1c-0.2,0.4-0.5,0.8-0.8,1.2c-0.4,0.4-0.7,0.7-1.3,0.8c-0.5,0.2-1.1,0.4-1.9,0.4c-0.4,0-0.6,0-0.8-0.1
			c-0.2,0-0.5-0.1-0.8-0.2v-2.8c0.1,0,0.2,0,0.2,0c0.1,0,0.2,0,0.2,0c0.7,0,1.3-0.1,1.6-0.4c0.4-0.2,0.6-0.6,0.8-1.2L487.7,300.4z"
			/>
		<path class="st17" d="M506.6,291.8l3.6-2.3c0.5-0.4,0.8-0.7,1.1-1c0.2-0.4,0.2-0.7,0.2-1.1c0-0.4-0.1-0.7-0.5-1.1
			c-0.4-0.4-0.7-0.5-1.3-0.5c-0.6,0-1.1,0.2-1.3,0.6c-0.4,0.4-0.5,0.8-0.5,1.3c0,0.6,0.2,1.2,0.7,1.8s1,1.3,1.7,2l8.9,10.4h-4.2
			l-7.2-8.4c-1-1.1-1.7-2.2-2.2-3c-0.6-0.8-0.8-1.8-0.8-2.8c0-1,0.2-1.8,0.6-2.5c0.4-0.7,1-1.3,1.8-1.7c0.7-0.4,1.7-0.6,2.6-0.6
			c1,0,1.8,0.2,2.5,0.6c0.7,0.4,1.3,1,1.7,1.6c0.4,0.6,0.6,1.3,0.6,2.2c0,0.6-0.1,1.1-0.4,1.6c-0.2,0.5-0.5,1-0.8,1.3
			c-0.4,0.4-0.8,0.8-1.3,1.2l-4.1,2.9c-0.4,0.2-0.6,0.6-0.7,0.8s-0.2,0.6-0.4,0.8c0,0.2-0.1,0.5-0.1,0.7c0,0.5,0.1,1,0.4,1.3
			c0.2,0.4,0.5,0.7,1,1c0.4,0.2,0.8,0.4,1.3,0.4c0.7,0,1.4-0.1,2-0.5c0.6-0.4,1.2-0.7,1.8-1.3c0.6-0.6,1-1.3,1.2-2s0.5-1.7,0.5-2.6
			h3.1c0,1.4-0.2,2.8-0.6,4c-0.5,1.2-1.2,2.3-2.3,3.1c0,0-0.1,0.1-0.2,0.2c-0.1,0.1-0.1,0.1-0.2,0.2c-0.8,0.7-1.7,1.2-2.5,1.4
			c-0.8,0.2-1.9,0.5-3,0.5c-1.2,0-2.3-0.2-3.3-0.7c-1-0.5-1.7-1.1-2.2-1.9s-0.7-1.7-0.7-2.8c0-0.7,0.1-1.4,0.5-1.9
			c0.2-0.6,0.7-1.1,1.2-1.6C505.3,292.8,505.9,292.3,506.6,291.8z"/>
		<path class="st17" d="M532,283v18.8h-3.9V283H532z"/>
		<path class="st17" d="M539.1,290.9v11h-3.7v-14h3.5L539.1,290.9z M538.5,294.4h-1c0-1.3,0.2-2.5,0.7-3.6c0.5-1,1.1-1.8,1.9-2.3
			c0.8-0.6,1.8-0.8,2.9-0.8c0.8,0,1.7,0.1,2.3,0.5c0.7,0.4,1.2,0.8,1.6,1.7c0.4,0.7,0.6,1.8,0.6,3.1v8.9h-3.7v-8.9
			c0-0.6-0.1-1.1-0.2-1.4c-0.1-0.4-0.5-0.6-0.7-0.7c-0.4-0.1-0.7-0.2-1.2-0.2c-0.5,0-1,0.1-1.3,0.2c-0.4,0.2-0.7,0.5-1,0.8
			c-0.2,0.4-0.4,0.7-0.5,1.2C538.8,293.3,538.5,293.9,538.5,294.4z"/>
		<path class="st17" d="M556.1,299.3c0.5,0,0.8-0.1,1.2-0.2s0.6-0.5,0.8-0.7c0.2-0.4,0.4-0.7,0.4-1.2h3.5c0,1-0.2,1.8-0.8,2.6
			c-0.6,0.8-1.2,1.3-2,1.8s-1.8,0.6-2.9,0.6c-1.4,0-2.6-0.4-3.6-1s-1.7-1.4-2.2-2.5c-0.5-1.1-0.7-2.3-0.7-3.6v-0.4
			c0-1.3,0.2-2.5,0.7-3.6c0.5-1.1,1.2-1.9,2.2-2.5s2.2-1,3.6-1c1.2,0,2.2,0.2,3,0.6c0.8,0.4,1.6,1.1,2,1.9s0.7,1.8,0.7,2.9h-3.5
			c0-0.5-0.1-0.8-0.2-1.3c-0.2-0.4-0.5-0.7-0.8-1c-0.4-0.2-0.7-0.4-1.3-0.4c-0.7,0-1.3,0.2-1.7,0.6c-0.4,0.4-0.6,1-0.7,1.6
			c-0.1,0.6-0.2,1.3-0.2,2v0.4c0,0.7,0.1,1.4,0.2,2c0.1,0.6,0.4,1.1,0.8,1.6C554.8,299.1,555.4,299.3,556.1,299.3z"/>
		<path class="st17" d="M568,282.1v19.9h-3.7v-19.9H568z"/>
		<path class="st17" d="M579.8,295.7h1.1c0,1.2-0.2,2.4-0.6,3.4c-0.4,1-1,1.8-1.7,2.3c-0.7,0.6-1.8,0.8-2.9,0.8
			c-1.3,0-2.5-0.4-3.4-1.2c-0.8-0.8-1.3-2.2-1.3-4v-9h3.7v9c0,0.6,0.1,1,0.2,1.3c0.1,0.4,0.4,0.6,0.7,0.7c0.4,0.1,0.6,0.2,1.1,0.2
			c0.7,0,1.3-0.1,1.8-0.5c0.5-0.4,0.7-0.7,1-1.3C579.7,297,579.8,296.4,579.8,295.7z M579.3,298.6V288h3.7v14h-3.5L579.3,298.6z"/>
		<path class="st17" d="M593.5,298.1c0-0.2-0.1-0.5-0.2-0.7c-0.1-0.2-0.5-0.4-0.8-0.6s-1-0.4-1.8-0.5c-1-0.2-1.8-0.5-2.5-0.8
			c-0.7-0.4-1.3-0.8-1.8-1.3c-0.5-0.6-0.6-1.2-0.6-2c0-0.7,0.2-1.4,0.7-2.2c0.5-0.6,1.1-1.2,1.9-1.6c0.8-0.4,1.8-0.6,3-0.6
			s2.3,0.2,3.1,0.6c0.8,0.4,1.6,1,2,1.6c0.5,0.7,0.7,1.4,0.7,2.3h-3.7c0-0.6-0.1-1-0.5-1.3c-0.4-0.4-0.8-0.6-1.7-0.6
			c-0.4,0-0.7,0.1-1.1,0.2s-0.5,0.4-0.7,0.6c-0.1,0.2-0.2,0.5-0.2,0.7s0.1,0.5,0.2,0.7c0.1,0.2,0.5,0.4,0.8,0.6
			c0.4,0.1,0.8,0.4,1.6,0.5c1,0.2,1.9,0.5,2.6,0.8c0.8,0.4,1.4,0.7,1.9,1.3c0.5,0.6,0.7,1.3,0.7,2.2c0,0.8-0.2,1.6-0.7,2.2
			s-1.2,1.2-2,1.6c-0.8,0.4-1.9,0.6-3.1,0.6c-1.3,0-2.4-0.2-3.3-0.7c-0.8-0.5-1.6-1.1-2-1.8c-0.5-0.7-0.7-1.4-0.7-2.2h3.5
			c0,0.5,0.1,1,0.4,1.2c0.2,0.2,0.6,0.5,1,0.7c0.4,0.1,0.8,0.2,1.2,0.2c0.5,0,0.8-0.1,1.2-0.2c0.4-0.1,0.6-0.4,0.7-0.6
			C593.4,298.6,593.5,298.3,593.5,298.1z"/>
		<path class="st17" d="M599.6,284.2c0-0.6,0.2-1,0.6-1.3c0.4-0.4,0.8-0.5,1.6-0.5c0.6,0,1.1,0.1,1.6,0.5c0.4,0.4,0.6,0.8,0.6,1.3
			c0,0.5-0.2,1-0.6,1.3s-0.8,0.5-1.6,0.5c-0.6,0-1.2-0.1-1.6-0.5C599.7,285.2,599.6,284.8,599.6,284.2z M603.5,287.9v14h-3.7v-14
			H603.5z"/>
		<path class="st17" d="M605.9,295.1v-0.2c0-1.3,0.2-2.5,0.7-3.6s1.3-1.9,2.3-2.5s2.2-1,3.6-1s2.6,0.4,3.6,1s1.8,1.4,2.3,2.5
			s0.7,2.3,0.7,3.6v0.2c0,1.3-0.2,2.5-0.7,3.6c-0.5,1.1-1.3,1.9-2.3,2.5s-2.2,1-3.6,1s-2.6-0.4-3.6-1s-1.7-1.4-2.3-2.5
			C606.1,297.6,605.9,296.4,605.9,295.1z M609.7,294.8v0.2c0,0.7,0.1,1.4,0.2,2.2c0.2,0.6,0.5,1.2,1,1.6c0.5,0.4,1,0.6,1.7,0.6
			s1.2-0.2,1.7-0.6c0.5-0.4,0.7-0.8,1-1.6c0.2-0.6,0.2-1.3,0.2-2.2v-0.2c0-0.7-0.1-1.4-0.2-2c-0.2-0.6-0.5-1.2-1-1.6
			c-0.5-0.4-1-0.6-1.7-0.6s-1.2,0.2-1.7,0.6c-0.5,0.4-0.7,0.8-1,1.6C609.8,293.3,609.7,294,609.7,294.8z"/>
		<path class="st17" d="M625.2,290.9v11h-3.7v-14h3.5L625.2,290.9z M624.6,294.4h-1c0-1.3,0.2-2.5,0.7-3.6c0.5-1,1.1-1.8,1.9-2.3
			c0.8-0.6,1.8-0.8,2.9-0.8c0.8,0,1.7,0.1,2.3,0.5c0.7,0.4,1.2,0.8,1.6,1.7c0.4,0.7,0.6,1.8,0.6,3.1v8.9h-3.9v-8.9
			c0-0.6-0.1-1.1-0.2-1.4s-0.5-0.6-0.7-0.7c-0.4-0.1-0.7-0.2-1.2-0.2c-0.5,0-1,0.1-1.3,0.2c-0.4,0.2-0.7,0.5-1,0.8
			c-0.2,0.4-0.4,0.7-0.5,1.2C624.7,293.3,624.6,293.9,624.6,294.4z"/>
	</g>
</g>
<path class="st20" d="M651.6,218.2c12.3-0.2,22.1-10.3,22-22.6c-0.2-12.3-10.3-22.1-22.6-22c-12.3,0.2-22.1,10.3-22,22.6
	C629.2,208.6,639.3,218.4,651.6,218.2z"/>
<path class="st20" d="M660.2,188.3c-5.8-3.1-9,4.9-9,4.9s-3.2-8-9-4.8c-6.5,3.6-0.7,15.1,9,20.1C661,203.4,666.7,191.8,660.2,188.3z
	"/>
<path class="st17" d="M656.6,221.8c12.3,0,22.3-10,22.3-22.3s-10-22.3-22.3-22.3s-22.3,10-22.3,22.3
	C634.4,211.8,644.3,221.8,656.6,221.8z"/>
<path class="st7" d="M665.6,191.8c-5.8-3.1-9,4.9-9,4.9s-3.2-8-9-4.8c-6.5,3.6-0.7,15.1,9,20.1C666.4,206.9,672.1,195.3,665.6,191.8
	z"/>
<path class="st21" d="M1105.3,181.9H892.9c0,0,14.6-30.3,48.3-17.8c0,0,12.4-31.3,41.5-27.7c29.2,3.7,34.8,22.6,34.8,22.6
	s31.5-11.6,61.8,11.9C1079.4,170.9,1104.1,168.3,1105.3,181.9z"/>
<path class="st21" d="M665.3,594.6h-195c0,0,13.4-30.5,44.4-17.9c0,0,11.4-31.6,38.2-27.9c26.8,3.7,32,22.7,32,22.7
	s28.9-11.7,56.8,12C641.6,583.6,664.3,580.9,665.3,594.6z"/>
<path class="st20" d="M937.5,436.7c13.4,0,24.2-10.8,24.2-24.2c0-13.4-10.8-24.2-24.2-24.2s-24.2,10.8-24.2,24.2
	C913.3,425.9,924.1,436.7,937.5,436.7z"/>
<path class="st21" d="M944,441.6c13.4,0,24.2-10.8,24.2-24.2c0-13.4-10.8-24.2-24.2-24.2s-24.2,10.8-24.2,24.2
	C919.8,430.8,930.6,441.6,944,441.6z"/>
<path class="st22" d="M944,409l8.3-4.4l-1.6,9.2l6.7,6.5l-9.3,1.4l-4.1,8.4l-4.1-8.4l-9.3-1.4l6.7-6.5l-1.6-9.2L944,409z"/>
<path class="st20" d="M183.4,273.2c7.9,0,14.3-6.4,14.3-14.3s-6.4-14.3-14.3-14.3c-7.9,0-14.3,6.4-14.3,14.3
	C169.1,266.8,175.5,273.2,183.4,273.2z"/>
<path class="st21" d="M187.3,276.1c7.9,0,14.3-6.4,14.3-14.3s-6.4-14.3-14.3-14.3c-7.9,0-14.3,6.4-14.3,14.3
	C172.9,269.7,179.3,276.1,187.3,276.1z"/>
<path class="st22" d="M187.3,256.8l4.9-2.6l-0.9,5.5l4,3.9l-5.5,0.8l-2.5,5l-2.5-5l-5.5-0.8l4-3.9l-0.9-5.5L187.3,256.8z"/>
<g class="st0">
	<path class="st1" d="M273.9,499.7l-2.4-1.3c-1.5-0.8-2.4-2.4-2.4-4.1c0-0.2,0-0.4,0-0.6s0-0.4,0-0.6c0-1.7,0.9-3.3,2.4-4.1l2.4-1.3
		c1.9-1,2.8-3.2,2.2-5.3v-0.1c-0.6-2.1-2.5-3.5-4.6-3.5h-2.7c-1.7,0-3.3-0.9-4.2-2.4c-0.2-0.3-0.3-0.6-0.5-0.9
		c-0.9-1.5-0.9-3.4,0-4.9l1.4-2.3c1.1-1.8,0.8-4.2-0.7-5.7c0,0,0,0-0.1-0.1c-1.5-1.5-3.9-1.8-5.7-0.7l-2.3,1.4
		c-1.5,0.9-3.4,0.9-4.9,0c-0.3-0.2-0.6-0.3-0.9-0.5c-1.5-0.8-2.5-2.4-2.4-4.2v-2.7c0-2.1-1.4-4-3.5-4.6h-0.1
		c-2.1-0.5-4.3,0.4-5.3,2.3l-1.3,2.4c-0.8,1.5-2.4,2.4-4.1,2.4c-0.2,0-0.4,0-0.6,0s-0.4,0-0.6,0c-1.7,0-3.3-0.9-4.1-2.4l-1.3-2.4
		c-1-1.9-3.2-2.8-5.3-2.3h-0.1c-2.1,0.6-3.5,2.4-3.5,4.6v2.7c0,1.7-0.9,3.3-2.4,4.2c-0.3,0.2-0.6,0.3-0.9,0.5
		c-1.5,0.9-3.4,0.9-4.9,0l-2.3-1.4c-1.8-1.1-4.2-0.8-5.7,0.7c0,0,0,0-0.1,0.1c-1.5,1.5-1.8,3.9-0.7,5.7l1.4,2.3
		c0.9,1.5,0.9,3.4,0,4.9c-0.2,0.3-0.3,0.6-0.5,0.9c-0.8,1.5-2.4,2.5-4.2,2.4h-2.7c-2.1,0-4,1.4-4.6,3.5v0.1
		c-0.5,2.1,0.4,4.3,2.3,5.3l2.4,1.3c1.5,0.8,2.4,2.4,2.4,4.1c0,0.2,0,0.4,0,0.6s0,0.4,0,0.6c0,1.7-0.9,3.3-2.4,4.1l-2.4,1.3
		c-1.9,1-2.8,3.2-2.3,5.3v0.1c0.6,2.1,2.4,3.5,4.6,3.5h2.7c1.7,0,3.3,0.9,4.2,2.4c0.2,0.3,0.3,0.6,0.5,0.9c0.9,1.5,0.9,3.4,0,4.9
		l-1.4,2.3c-1.1,1.8-0.8,4.2,0.7,5.7c0,0,0,0,0.1,0.1c1.5,1.5,3.9,1.8,5.7,0.7l2.3-1.4c1.5-0.9,3.4-0.9,4.9,0
		c0.3,0.2,0.6,0.3,0.9,0.5c1.5,0.8,2.5,2.4,2.4,4.2v2.7c0,2.1,1.4,4,3.5,4.6h0.1c2.1,0.5,4.3-0.4,5.3-2.3l1.3-2.4
		c0.8-1.5,2.4-2.4,4.1-2.4c0.2,0,0.4,0,0.6,0s0.4,0,0.6,0c1.7,0,3.3,0.9,4.1,2.4l1.3,2.4c1,1.9,3.2,2.8,5.3,2.3h0.1
		c2.1-0.6,3.5-2.4,3.5-4.6v-2.7c0-1.7,0.9-3.3,2.4-4.2c0.3-0.2,0.6-0.3,0.9-0.5c1.5-0.9,3.4-0.9,4.9,0l2.3,1.4
		c1.8,1.1,4.2,0.8,5.7-0.7c0,0,0,0,0.1-0.1c1.5-1.5,1.8-3.9,0.7-5.7l-1.4-2.3c-0.9-1.5-0.9-3.4,0-4.9c0.2-0.3,0.3-0.6,0.5-0.9
		c0.8-1.5,2.4-2.5,4.2-2.4h2.7c2.1,0,4-1.4,4.6-3.5V505C276.7,503,275.8,500.8,273.9,499.7z M233.7,520.1
		c-14.6,0-26.4-11.8-26.4-26.4s11.8-26.4,26.4-26.4s26.4,11.8,26.4,26.4S248.3,520.1,233.7,520.1z"/>
</g>
</svg>
