<?xml version="1.0" encoding="utf-8"?>
<!-- Generator: Adobe Illustrator 27.8.0, SVG Export Plug-In . SVG Version: 6.00 Build 0)  -->
<svg version="1.1" id="Layer_1" xmlns="http://www.w3.org/2000/svg" xmlns:xlink="http://www.w3.org/1999/xlink" x="0px" y="0px"
	 viewBox="0 0 411.4 260.1" style="enable-background:new 0 0 411.4 260.1;" xml:space="preserve">
<style type="text/css">
	.st0{fill:#EDF6F5;}
	.st1{fill:#B2E5E0;}
	.st2{fill:#3FB8A9;}
	.st3{fill:#F2D6C8;}
	.st4{fill:#F5B89B;}
	.st5{fill:#ADCCC7;}
	.st6{fill:#6EAB9C;}
	.st7{fill:#FFB500;}
	.st8{opacity:0.4;}
	.st9{opacity:0.4;fill:#F4D7C9;enable-background:new    ;}
	.st10{fill:#91415C;}
	.st11{fill:#75354A;}
	.st12{fill:#FDAB3F;}
	.st13{fill:#FFFFFF;}
	.st14{fill:#DCECEB;}
	.st15{fill:#489DA2;}
	.st16{fill:#408C91;}
	.st17{fill:#F5911F;}
	.st18{fill:#040707;}
	.st19{fill:#FFAB40;}
	.st20{fill:#0C1B3C;}
	.st21{fill:none;}
	.st22{fill:#EB908B;}
	.st23{opacity:0.67;enable-background:new    ;}
	.st24{font-family:'ArialMT';}
	.st25{font-size:3.6912px;}
	.st26{font-size:1.9366px;}
</style>
<g id="Layer_1_00000145750288328966055550000004010824371391953036_">
	<path class="st0" d="M246.8,222.5h-93.6c0,0,6.4-14.3,21.2-8.4c0,0,5.4-14.8,18.3-13.1c12.8,1.7,15.3,10.7,15.3,10.7
		s13.8-5.6,27.3,5.7C235.4,217.3,246.3,216.1,246.8,222.5z"/>
	<path class="st0" d="M406.9,68h-70.4c0,0,4.8-11.9,16.1-6.9c0,0,4.1-12.2,13.8-10.7c9.6,1.5,11.6,8.8,11.6,8.8s10.4-4.6,20.5,4.7
		C398.4,63.7,406.5,62.7,406.9,68z"/>
	<g>
		<polygon class="st1" points="21.6,146.2 21.6,146.2 32.1,155.5 21.6,156.6 21.6,258.7 41.1,259.5 42.2,154.4 33.6,155.3 23.1,146 
			42.2,143.4 42.2,136.8 21.6,139.7 		"/>
		<polygon class="st1" points="43.5,208.8 91.9,223.5 91.9,216.6 43.5,192 		"/>
		<polygon class="st1" points="43.5,191.3 91.9,216 91.9,207.6 43.5,172.4 		"/>
		<polygon class="st1" points="43.5,246.9 91.9,248.6 91.9,240.8 43.5,236.4 		"/>
		<polygon class="st1" points="43.5,235.8 91.9,240.3 91.9,232.2 43.5,223.9 		"/>
		<polygon class="st1" points="43.5,259.5 91.9,259.5 91.9,249.2 43.5,247.5 		"/>
		<polygon class="st1" points="43.5,223.3 91.9,231.6 91.9,224.1 43.5,209.3 		"/>
		<polygon class="st1" points="91.9,187.8 42.9,136.8 42.9,143.4 87,189.2 87,196.1 43.5,154.4 43.5,171.6 91.9,207 91.9,200.9 
			88.2,197.2 88.1,190.4 91.9,194.4 		"/>
	</g>
	<path class="st2" d="M371.1,254.8L371.1,254.8c-29-12-77.8-26.4-95.4-35.2c-21.9-10.9-55.8-1.1-73.5,5.8c-10,4-17.2,5.4-16.4,7.2
		c0.1,0.5,1,0.5,2.3,0.2l1.9,23.6c0.1,0.9,0.7,1.5,1.5,1.5h179.7c0.7,0,1.5-0.7,1.5-1.6C372.5,255.5,371.9,254.8,371.1,254.8z
		 M191,232.3c5.2-1.4,13.2-4.1,19.1-5.3c9.1-1.9,74.9,21.2,95.5,27.8H192.8L191,232.3z"/>
	<path class="st1" d="M269,210.2L269,210.2l-11.2-34.1l0,0c0,0,0,0,0-0.1l0,0l0,0c0,0,0,0-0.1,0l0,0l0,0l0,0l0,0l0,0l0,0l0,0l0,0
		l0,0l0,0c0,0,0,0,0,0.1l0,0L246,210.2l0,0l-5.3,15.6c11.7,7.8,35.6,4.8,35.6,4.8L269,210.2z M256.6,181.4l-3.6,28.8h-3.7
		L256.6,181.4z M248.5,210.2h-2.3l9-26.3L248.5,210.2z M257.4,179.7l2.1,30.5h-5.9L257.4,179.7z M258.2,180.5l6.5,29.6h-4.6
		L258.2,180.5z M259.3,182.6l9,27.5h-3L259.3,182.6z"/>
	<g>
		<path class="st2" d="M28.2,164.2c0.1,0.1,0.2,0.2,0.4,0.2s0.1,0,0.2,0c0.2-0.1,0.2-0.4,0.1-0.6l-1.2-2.2c-0.1-0.2-0.4-0.2-0.6-0.1
			s-0.2,0.4-0.1,0.6L28.2,164.2z"/>
		<path class="st2" d="M24.1,165.2l2.2,1.2c0.1,0,0.1,0,0.2,0s0.4-0.1,0.4-0.2c0.1-0.2,0-0.5-0.1-0.6l-2.2-1.2
			c-0.2-0.1-0.5,0-0.6,0.1S23.8,165.1,24.1,165.2z"/>
		<path class="st2" d="M26.3,169.1c0-0.2-0.2-0.5-0.5-0.5h-2.6c-0.2,0-0.5,0.2-0.5,0.5s0.2,0.5,0.5,0.5h2.6
			C26.1,169.5,26.3,169.3,26.3,169.1z"/>
		<path class="st2" d="M27.2,171.6c-0.1-0.2-0.4-0.2-0.6-0.1l-2.2,1.2c-0.2,0.1-0.2,0.4-0.1,0.6c0.1,0.1,0.2,0.2,0.4,0.2
			s0.1,0,0.2,0l2.2-1.2C27.2,172.1,27.3,171.9,27.2,171.6z"/>
		<path class="st2" d="M29.2,173.5c-0.2-0.1-0.5,0-0.6,0.1l-1.2,2.2c-0.1,0.2,0,0.5,0.1,0.6c0.1,0,0.1,0,0.2,0s0.4-0.1,0.4-0.2
			l1.2-2.2C29.4,174,29.4,173.6,29.2,173.5z"/>
		<path class="st2" d="M31.7,174.2c-0.2,0-0.5,0.2-0.5,0.5v2.6c0,0.2,0.2,0.5,0.5,0.5c0.2,0,0.5-0.2,0.5-0.5v-2.6
			C32.2,174.4,32.1,174.2,31.7,174.2z"/>
		<path class="st2" d="M35.1,173.5c-0.1-0.2-0.4-0.2-0.6-0.1c-0.2,0.1-0.2,0.4-0.1,0.6l1.2,2.2c0.1,0.1,0.2,0.2,0.4,0.2
			c0.1,0,0.1,0,0.2,0c0.2-0.1,0.2-0.4,0.1-0.6L35.1,173.5z"/>
		<path class="st2" d="M39.2,172.5l-2.2-1.2c-0.2-0.1-0.5,0-0.6,0.1c-0.1,0.2,0,0.5,0.1,0.6l2.2,1.2c0.1,0,0.1,0,0.2,0
			s0.4-0.1,0.4-0.2C39.5,172.9,39.4,172.6,39.2,172.5z"/>
		<path class="st2" d="M40,168.2h-2.6c-0.2,0-0.5,0.2-0.5,0.5s0.2,0.5,0.5,0.5H40c0.2,0,0.5-0.2,0.5-0.5S40.3,168.2,40,168.2z"/>
		<path class="st2" d="M36.2,166.1c0.1,0.1,0.2,0.2,0.4,0.2c0.1,0,0.1,0,0.2,0l2.2-1.2c0.2-0.1,0.2-0.4,0.1-0.6s-0.4-0.2-0.6-0.1
			l-2.2,1.2C36.1,165.6,36.1,165.8,36.2,166.1z"/>
		<path class="st2" d="M34.7,164l1.2-2.2c0.1-0.2,0-0.5-0.1-0.6c-0.2-0.1-0.5,0-0.6,0.1l-1.2,2.2c-0.1,0.2,0,0.5,0.1,0.6
			c0.1,0,0.1,0,0.2,0C34.5,164.2,34.7,164.1,34.7,164z"/>
		<path class="st2" d="M26.8,168.6c-0.2,0-0.5,0.2-0.5,0.5s0.2,0.5,0.5,0.5h4.6c0.2,0,0.5-0.2,0.5-0.5v-5.9v-1v-1.6
			c0-0.2-0.2-0.5-0.5-0.5c-0.2,0-0.5,0.2-0.5,0.5v1.6v1v5.4H26.8L26.8,168.6z"/>
	</g>
	<g>
		<path class="st3" d="M167.3,243.2c-2.2-4.3-4.9-7.3-9.4-10.7s-10.1-3.5-12.5-4.6c-2.3-1.1-2.5,2-1.7,4.8
			c0.7,2.8-1.5,16.3,11.9,20.5C168.9,257.4,168.9,246.3,167.3,243.2z"/>
		<path class="st4" d="M158.7,246c-0.1,0-0.1-0.1-0.2-0.1c-0.6-4.7,1.7-9.4,1.7-9.4c0-0.1,0.1-0.1,0.2-0.1s0.1,0.1,0.1,0.2
			c0,0-2.3,4.6-1.7,9.3C159,245.9,158.9,246,158.7,246L158.7,246z"/>
		<path class="st4" d="M158.7,246.5L158.7,246.5c-4.1-2.1-11-1.4-11.1-1.4s-0.2-0.1-0.2-0.1c0-0.1,0.1-0.2,0.1-0.2
			c0.2,0,7.2-0.7,11.2,1.4c0.1,0,0.1,0.1,0.1,0.2C159,246.5,158.9,246.5,158.7,246.5z"/>
		<path class="st4" d="M160.1,250.3c-0.1,0-0.1,0-0.2-0.1c-2.8-11.9-14.2-20.3-14.3-20.4c-0.1-0.1-0.1-0.2,0-0.2
			c0.1-0.1,0.2-0.1,0.2,0c0.1,0.1,11.6,8.5,14.6,20.5C160.2,250.2,160.2,250.3,160.1,250.3L160.1,250.3z"/>
		<path class="st4" d="M154.7,239.2h-0.1c-2.6-2.1-8.9-1.5-8.9-1.5c-0.1,0-0.2-0.1-0.2-0.1c0-0.1,0.1-0.2,0.1-0.2
			c0.2,0,6.5-0.6,9.3,1.6c0.1,0.1,0.1,0.2,0,0.2S154.8,239.2,154.7,239.2z"/>
		<path class="st4" d="M152.6,236.6c-0.1,0-0.1,0-0.1-0.1c-0.9-2-0.4-5.2-0.4-5.3s0.1-0.2,0.2-0.1c0.1,0,0.2,0.1,0.1,0.2
			c0,0-0.5,3.3,0.4,5.2C152.8,236.4,152.8,236.5,152.6,236.6C152.7,236.6,152.6,236.6,152.6,236.6z"/>
		<path class="st5" d="M132.2,255.5c-0.4-4,3.2-10,14.9-6.2c0,0,3-9.1,11-8.9c8.2,0.2,10.6,7.9,10.6,7.9s10.9-1.4,12.5,7.9
			C181.2,256.3,132.8,261.3,132.2,255.5z"/>
		<path class="st6" d="M156.4,256.3l-0.4-0.1c1.1-6.5-3-11.2-3.1-11.2l0.2-0.2C153.3,244.6,157.5,249.5,156.4,256.3z"/>
		<path class="st6" d="M156.5,252.2l-0.2-0.2c0,0,3.7-4.4,4.3-7.3l0.4,0.1C160.3,247.7,156.6,252.1,156.5,252.2z"/>
		<path class="st6" d="M156.4,254.5c-2.8-0.1-5.4-3.1-5.6-3.2l0.2-0.2c0,0,2.6,3,5.3,3.1v0.3H156.4z"/>
		<path class="st6" d="M165.4,256.4l-0.2-0.2c0.2-0.1,5.2-4.4,7.7-4.4v0.4C170.5,252.1,165.5,256.4,165.4,256.4z"/>
		<path class="st6" d="M175,255.6c0,0-4-0.2-7.2-1.1l0.1-0.4c3.1,0.9,7,1,7,1.1L175,255.6L175,255.6z"/>
		<path class="st6" d="M145.9,256.1c-2.6-2.1-8-3.8-8.2-4l0.1-0.4c0.2,0.1,5.6,1.7,8.3,4L145.9,256.1z"/>
		<path class="st6" d="M143.8,254.5h-0.4c0.1-2.2-0.9-4-0.9-4l0.4-0.2C142.9,250.5,143.9,252.2,143.8,254.5z"/>
	</g>
	<g>
		<path class="st7" d="M259.9,124.6c-0.6-2.8-1.1-7.5-0.2-11.6c1.2-5.8,4.1-10.9,7.5-15.6c3-4.2,6.1-8.4,9.4-12.4
			c10.5-13.1,18.2-23,24.1-38.5c3.8-9.8,2.8-23.7,2.2-29.8c0-0.5,1.5-4.6,2.1-4.9c1,4.2,2.7,9.3,3.5,12.7c2.3,10.7,3,21.5-2.8,32.2
			c-3.1,5.7-16.7,26.6-29.9,39.5c-4.9,4.8-9.9,9-12.5,15.4c-1.5,3.6-2.3,8.2-2.5,14.8C260.9,126.4,260.1,125.9,259.9,124.6z"/>
		<path class="st7" d="M316.1,49.5c0.5,2.5,0.6,6.7,0,9c-5.2,18.2-16.4,31.7-32.2,42c-2.6,1.7-5.1,3.5-7.5,5.3
			c-6.7,5.1-12.6,10.4-12.8,20.6c-0.5,0-0.6-0.6-0.7-1.5c-0.4-1.5-0.4-2.3-0.2-3.7c0.5-6.5,3.3-12.1,8.2-16.4
			c4.7-4.3,9.8-8.2,14.6-12.2c12.7-10.9,21.9-24.2,28.8-39.7c0.4-0.9,0.6-1.6,1.1-2.5C315.5,49.5,315.9,49.4,316.1,49.5z"/>
		<path class="st7" d="M264.8,126.1c-0.5-0.1-0.6-0.7-0.6-1.4c-0.1-3,2.2-7.8,4.8-10.3c4.8-4.6,9.1-6.8,14-10.3
			c4.9-3.6,10.4-6.4,15.2-10c9-6.5,15.4-14.5,18.7-25.3c0.1-0.7,1.9-2.7,2.1-2.6c0.2,3.6-0.1,8.3-1.1,11.4
			c-3.7,11.2-13.7,19.6-23.5,25.7c-6.5,4-13.3,7.3-19.9,11.2C270,117.3,266.3,120.8,264.8,126.1z"/>
		<path class="st7" d="M266.4,126.1c-0.6-1.6,1.1-3.8,1.7-4.6c3.3-4.2,7-5.7,11.7-8c4.2-2.1,11.9-4.1,16.8-6.7
			c6.1-3.1,9.4-5.3,12.2-7.3c1.5-1,3.5-3.1,3.5-3.1c-1.2,3.2-0.4,6.9-10.6,13.3c-7.4,4.7-19,7.8-24.6,9.3
			C270.1,120.9,268.3,123.3,266.4,126.1z"/>
		<path class="st7" d="M299.8,118.2c-1.1,1.1-3.8,3.3-6.1,4.4c-3.7,2-8.8,2.5-13,2c-4.4-0.4-8.9-1-13,1.7c1.2-3,3.3-4.6,6.2-5.1
			c2.3-0.4,4.7-0.5,7-0.6c5.9-0.2,12-1.2,17-3.7c1.6-0.7,2.6-1.2,2.6-1.2S300.9,117,299.8,118.2z"/>
	</g>
	<g class="st8">
		<path class="st9" d="M358,258.9c-7.8,0-14.2-6.3-14.2-14.2c0-7.8,6.3-14.2,14.2-14.2c7.8,0,14.2,6.3,14.2,14.2
			C372.2,252.4,365.9,258.9,358,258.9z"/>
	</g>
</g>
<g id="Layer_2_00000151514033299670604020000016702382936923885474_">
	<path class="st0" d="M105.8,99H29.2c0,0,5.3-11.7,17.4-6.9c0,0,4.4-12.1,14.9-10.7s12.6,8.8,12.6,8.8s11.4-4.4,22.2,4.6
		C96.5,94.7,105.4,93.7,105.8,99z"/>
	<path class="st10" d="M134.8,61.4c0,0-1.9-6.2-1.9-8.2s1.9-7.5,2.8-7.7c1-0.1,3,10.7,3.8,12.2c0.9,1.5-0.7,3.6-0.7,3.6h-4V61.4z"/>
	<path class="st10" d="M42.6,198.2l-6.5-7.3l2.5-2.6l5.1-5.2L50,190l-4.9,5.4L42.6,198.2z"/>
	<path class="st11" d="M45.1,195.5l-6.4-7.2l5.1-5.2l6.3,6.9L45.1,195.5z"/>
	<path class="st12" d="M36.1,191l6.5,7.3c0,0-0.4,6.3,2.5,10.1c2.8,3.8,3.6,6.5,2.2,9.4l-19.5-21.7L36.1,191z"/>
	<path class="st13" d="M42.5,200.8c-1.5-1.1-5.1-2.1-5.1-2.1l0.1-0.4c0.1,0,3.7,1,5.2,2.1L42.5,200.8z"/>
	<path class="st13" d="M42.9,202.9c-1.9-0.7-4.6-0.5-4.7-0.5V202c0.1,0,3-0.4,4.8,0.5L42.9,202.9z"/>
	<path class="st13" d="M39.8,205.7l-0.1-0.4c0.1,0,2-0.7,3.7-0.9v0.4C41.7,205,39.8,205.7,39.8,205.7z"/>
	<path class="st14" d="M27.8,196.1l-1.6,1.4L45.7,219l1.6-1.4L27.8,196.1z"/>
	<path class="st15" d="M92.4,133.8c0,0-0.1,0.6-0.4,1.9c-0.5,2.5-1.5,7.2-2.6,12.1c-1.6,6.4-3.6,13.3-5.7,16.9
		c-2.3,4.1-12.2,12.8-20.9,20c-7.3,6.1-13.6,11-13.6,11L36,182.1c0,0,27.4-24.7,28.2-25.7c0.7-1,4-15.3,5.2-26.7
		c0.5-4.9,2.1-10.1,3.6-14.6c2-5.7,4.1-9.9,4.1-9.9L90,110l0.1,1.2l1.2,12.1L92.4,133.8z"/>
	<path class="st16" d="M92.1,135.7c-0.5,2.5-1.5,7.2-2.6,12.1c-1.6,6.4-3.6,13.3-5.7,16.9c-2.3,4.1-12.2,12.8-20.9,20
		c2.1-11.1,15.3-10.1,13.3-18.4c-2-8.5,6.4-11.9,3.1-23s2.1-18.5,2.1-18.5S86.5,129.9,92.1,135.7z"/>
	<path class="st10" d="M119.1,47c0,0-2.2,1.7-3.8,5.3c-0.6,1.4-1.1,3.1-1.4,5.1c-1,7-13.1-0.5-13.1-0.5l5.9-12.4l4.8-2.6l3.8,2.6
		L119.1,47z"/>
	<path class="st17" d="M100.7,55c0,0,1-3,2.3-3.1s11.4,1.4,11.9,3.7s0,3.8,0,3.8L100.7,55z"/>
	<path class="st17" d="M138.6,65.8l1-4.6c0,0-4.6-1.2-6.3-1s-3.3,5.6-3.3,5.6H138.6z"/>
	<path class="st17" d="M112.9,89.5c0,0,6.4,1.7,19.9-10.4s-11.2-7.3-11.2-7.3L112.9,89.5z"/>
	<path class="st18" d="M136.3,201.5H95v1.2h41.3V201.5z"/>
	<path class="st18" d="M111.1,246.7L98.5,189L86,246.7l-1.1-0.2L98,186.1c0-0.2,0.2-0.5,0.6-0.5c0.2,0,0.5,0.2,0.6,0.5l13.1,60.4
		L111.1,246.7z"/>
	<path class="st10" d="M111.5,212.6h-9.8l-0.2-3.6l-0.5-7.3h9.4l0.7,7.3L111.5,212.6z"/>
	<path class="st11" d="M111.1,208.9h-9.6l-0.5-7.3h9.4L111.1,208.9z"/>
	<path class="st12" d="M101.6,212.6h9.8c0,0,4.3,4.4,9.1,4.9c4.7,0.5,7.2,1.7,8.4,4.6h-29L101.6,212.6z"/>
	<path class="st13" d="M108.2,216.7l-0.2-0.4c0.1-0.1,3.2-2,5.1-2.5l0.1,0.4C111.5,214.7,108.2,216.7,108.2,216.7z"/>
	<path class="st13" d="M111.6,218.7l-0.4-0.2c0.1-0.1,1.7-2.3,3.6-3.2l0.1,0.4C113.2,216.3,111.6,218.7,111.6,218.7z"/>
	<path class="st13" d="M115.2,219.7l-0.4-0.1c0-0.1,0.7-2,1.9-3.3l0.2,0.2C115.8,217.8,115.2,219.7,115.2,219.7z"/>
	<path class="st14" d="M128.9,222.2h-29v2.1h29V222.2z"/>
	<path class="st18" d="M152.5,246.7L139.9,189l-12.6,57.7l-1.1-0.2l13.1-60.4c0-0.2,0.2-0.5,0.6-0.5c0.2,0,0.5,0.2,0.6,0.5
		l13.1,60.4L152.5,246.7z"/>
	<path class="st18" d="M131.6,223.6H90.2v1.2h41.4V223.6z"/>
	<path class="st15" d="M117.3,207.5h-20c0,0,0.4-33.4,0.4-39.3c0-4.2-4-11.1-8.2-20.4c-1.7-3.7-3.5-7.9-4.9-12.4
		c-2.1-6.2-3.3-11.6-4.1-15.8c-1.1-6.2-1.1-9.8-1.1-9.8l10.7,1.2l15.7,1.7c0,0,1.7,6.1,3.8,14c3.5,12.5,7.9,29.5,8,33.5
		C117.9,166.7,117.3,207.5,117.3,207.5z"/>
	<path class="st16" d="M109.6,126.8c-4.3-1.9-8.8-3.6-13.2-3.3c-1.7,0.1-3.5,0-5.1-0.2c-4.1-0.6-7.8-2-10.9-3.5
		c-3.2-1.6-5.8-3.3-7.4-4.6c2-5.7,4.1-9.9,4.1-9.9L90,110l0.1,1.2l15.7,1.7C105.8,112.8,107.5,119,109.6,126.8z"/>
	<path class="st19" d="M171.9,64.5c0,0-16.7,16.3-21.5,17.4s-22.6-4.6-25.6-4.4c-1.4,0.1-4.2,9.5-6.8,19.8
		c-3.2,12.5-6.3,26.2-6.3,26.2s-8.3-3.3-21.9-4.2c-2-0.1-3.8-0.4-5.4-0.9c-9.4-2.3-13-8.4-13-8.4c13.3-19,13.5-35.7,16.3-46.1
		c2.7-10.4,13.8-11.1,22.2-8.5c3.7,1.1,11.6,2.6,15.3,3.8c3.7,1.2,22.7,8.6,24.1,8.6c1.2,0,17-8.9,17-8.9
		C171.5,59,171.9,64.5,171.9,64.5z"/>
	<path class="st10" d="M166.8,60.2c0,0,3.2-2.8,5.9-4c2.7-1.1,6.4-3.3,6.4-2.2c0,1.2-3.3,2.8-3.3,2.8l10.1-0.9c0,0-4.4,4.6-8,5.4
		s-8.2,2.5-8.2,2.5L166.8,60.2z"/>
	<path class="st2" d="M196.1,19.4l-61,5.1l3,35.5l61.1-5.1L196.1,19.4z"/>
	<path class="st13" d="M192.7,23.4L139,27.8l2.3,28l53.7-4.4L192.7,23.4z"/>
	<path class="st16" d="M112.2,207.6H111c0-0.4,0-35.8-0.1-44.3c-0.2-8.4-14.9-42.6-15.1-43l1.1-0.5c0.6,1.4,14.9,34.7,15.2,43.4
		C112.3,171.8,112.2,207.2,112.2,207.6z"/>
	<path class="st17" d="M118,97.3c-3.2,12.5-6.3,26.2-6.3,26.2s-8.3-3.3-21.9-4.2c-2-0.1-3.8-0.4-5.4-0.9c0.4-0.4,0.6-0.7,1-1
		c11.1-10,15.3-3.3,20.8-10.5C110.2,101.3,114.2,101.1,118,97.3z"/>
	<path class="st20" d="M124.1,29.9l2-2.1c0,0,0.2-3.8-3.6-8.8s-6.1-3.1-4.3,0s-3.5,1.5-8,0.9c-4.6-0.6-8.4,0-6.2,3.1
		c2.3,3,0.4,3.1-5.3,5.4c-5.7,2.3-4.8,5.8,0,6.2c4.8,0.4,1.6,3.2-2.1,7.2s-0.9,6.2,3.2,4s4.9,0.2,3.6,3.7c-1.4,3.5,3.5,0.5,5.7-2
		s1.6,1.9,4.9-3.6C117.3,38.5,124.1,29.9,124.1,29.9z"/>
	<path class="st11" d="M119.1,47c0,0-2.2,1.7-3.8,5.3c-2.7-2.8-1.1-7.8-1.1-7.8l1.1-0.1L119.1,47z"/>
	<path class="st10" d="M126,27.8c0,0-0.6,6.3,0.5,9.5s2.3,3.3,1,4.6c-1.4,1.2-2.3,1-2.6,2.5c-0.2,1.4,0.4,6.3-3.2,6.2
		s-7.4-5.2-7.8-6.5c0,0-3.7-1.2-3.8-4.3c-0.1-3.1,3-4.2,4.2-2.7s2.6-0.4,2.6-2.7c0.1-2.3,1.6-5.7,4.1-5.4
		C123.6,28.7,124.7,26.1,126,27.8z"/>
	<g>
		<rect x="316.9" y="210.9" class="st21" width="96.2" height="59.4"/>
		<path class="st18" d="M346.6,245.3c2,0,2.9-1.3,2.9-3.1v-9h4v9.3c0,4-3.5,5.7-7,5.7c-3.5,0-7-1.6-7-5.7v-9.3h4v9
			C343.6,243.9,344.7,245.3,346.6,245.3z"/>
		<polygon class="st18" points="328.8,247.7 333,247.7 333,235.8 337.8,235.8 337.8,233.1 324.4,233.1 324.4,235.8 328.8,235.8 		
			"/>
		<path class="st18" d="M338.9,225.9c-0.9,0.2-2,0-2-1.3c0-2,4.8-3.8,5.5-5.5c0.2-0.4,0.2-0.9,0-0.9s0,0.2-0.4,0.7
			c-2,2-5.1,2-7.9,3.1c-1.6,0.7-6.6,3.1-5.5,8.1c0,0.2,0.2,1.1,0.4,1.1s0.2-0.4,0.2-1.1c0-3.1,3.7-3.8,4.8-5.9
			c0.2-0.2,0.4-0.7,0.4-0.4c0,0,0,0.2,0,0.4c-0.4,1.6-2,2.7-1.6,3.8c0.7,1.6,2.6,0.4,2.9-0.7c0.2-0.2,0.2-0.4,0.2-0.4s0,0.2,0,0.7
			c-0.2,1.8-0.7,2.7-2,3.8c-0.4,0.2-1.1,0.4-0.9,0.7c0,0,0.2,0,0.4,0c3.5-0.2,6.4-4.2,7-7c0-0.2,0-0.4,0-0.4s-0.2,0-0.4,0.2
			C339.8,225.4,339.2,225.6,338.9,225.9z"/>
		<path class="st18" d="M373.7,241.7c0-1.6,0.9-2.9,2.7-2.9s2.7,1.3,2.7,2.9H373.7z M381.2,243v-0.9c0-2.9-1.6-4.8-4.6-4.8
			c-3.1,0-4.8,2.6-4.8,5.5s1.3,5.5,4.6,5.5c2.6,0,4.2-1.1,4.6-3.5h-2c-0.2,1.6-0.9,2-2.6,2c-2,0-2.7-1.8-2.7-3.7h7.5V243z"/>
		<rect x="383.4" y="233.1" class="st18" width="2" height="14.7"/>
		<path class="st18" d="M391.6,247.7v-8.8h2.2v-1.3h-2.2V236c0-1.1,0.7-1.3,1.6-1.3c0.2,0,0.7,0,0.9,0v-1.6c-0.4,0-0.9-0.2-1.3-0.2
			c-1.8,0-3.1,0.9-3.1,2.9v1.8h-2v1.3h2v8.8L391.6,247.7L391.6,247.7z"/>
		<path class="st18" d="M394.9,237.7v1.3h1.8v6.6c0,1.3,0,2.7,2.9,2.7c0.4,0,0.9,0,1.3-0.2v-1.6c-0.2,0-0.7,0.2-1.1,0.2
			c-0.7,0-1.3-0.4-1.3-1.1v-6.6h2.6v-1.3h-2.6v-2.7l-2,0.7v2.2L394.9,237.7z"/>
		<path class="st18" d="M357.8,247.7h4.9c6.4,0,7-5.5,7-7.5s-0.7-7.5-7-7.5h-4.9V247.7z M359.9,234.7h2.9c3.5,0,4.8,2.6,4.8,5.7
			c0,3.1-1.3,5.7-4.8,5.7h-2.9V234.7z"/>
	</g>
	<path class="st22" d="M311.2,122.5l87.6,4.9l-0.6,19.4l-12.1-0.7l5.4,15.3l-21.7-16.3l-59.2-3.2L311.2,122.5z"/>
	<path class="st1" d="M271.7,157.2L149,178.1c-2,0.4-3.7-1-4.1-2.8L134.6,115c-0.4-2,1-3.7,2.8-4.1L260.2,90c2-0.4,3.7,1,4.1,2.8
		l10.3,60.3C274.9,155.1,273.6,156.9,271.7,157.2z"/>
	<path class="st2" d="M276.6,160.8l-122.7,20.9c-2,0.4-3.7-1-4.1-2.8l-10.3-60.3c-0.4-2,1-3.7,2.8-4.1l122.8-20.9
		c2-0.4,3.7,1,4.1,2.8l10.3,60.3C279.8,158.5,278.6,160.4,276.6,160.8z"/>
	<g class="st23">
		<path class="st13" d="M155.3,133.8l1.6,9.3l-1.6,0.2l-1.6-9.3L155.3,133.8z"/>
		<path class="st13" d="M159.4,136.9l1,5.6l-1.5,0.2l-1.1-6.9l1.5-0.2L159.4,136.9z M161.2,135.2l0.2,1.5c-0.1,0-0.2,0-0.4,0
			s-0.2,0-0.4,0c-0.4,0-0.6,0.1-0.9,0.4c-0.2,0.1-0.4,0.4-0.5,0.6s-0.1,0.5-0.1,0.9l-0.4,0.1c-0.1-0.6-0.1-1.1,0-1.6
			s0.2-0.9,0.5-1.2c0.2-0.4,0.6-0.5,1.1-0.6c0.1,0,0.2,0,0.2,0C161.1,135.2,161.2,135.2,161.2,135.2z"/>
		<path class="st13" d="M166.5,137.2l0.1,1l-1.1,0.1c-0.6,0.1-1,0.2-1.2,0.5c-0.2,0.2-0.4,0.6-0.2,1c0,0.2,0.1,0.5,0.4,0.6
			c0.2,0.1,0.5,0.2,0.9,0.1c0.4,0,0.6-0.1,0.7-0.4c0.2-0.1,0.4-0.4,0.5-0.6s0.1-0.4,0.1-0.6l0.6,0.6c0,0.1-0.1,0.4-0.1,0.6
			c-0.1,0.2-0.2,0.5-0.4,0.6c-0.1,0.2-0.4,0.4-0.6,0.6c-0.2,0.1-0.6,0.2-0.9,0.4c-0.5,0.1-0.9,0-1.2-0.1c-0.4-0.1-0.7-0.4-1-0.6
			c-0.2-0.2-0.4-0.6-0.5-1c-0.1-0.7,0-1.4,0.5-1.9s1.2-0.9,2.2-1L166.5,137.2L166.5,137.2z M166.8,140l-0.5-3.3
			c0-0.4-0.2-0.6-0.5-0.9c-0.2-0.1-0.6-0.2-1-0.1c-0.2,0-0.5,0.1-0.6,0.2s-0.2,0.2-0.4,0.4c-0.1,0.1-0.1,0.4-0.1,0.5l-1.5,0.2
			c0-0.4,0-0.7,0.1-1.1s0.5-0.7,0.9-1s0.9-0.5,1.5-0.5c0.5-0.1,1-0.1,1.5,0s0.7,0.4,1.1,0.6c0.2,0.4,0.5,0.7,0.6,1.2l0.5,3.1
			c0,0.4,0.1,0.6,0.2,0.9s0.2,0.5,0.2,0.6v0.1l-1.6,0.2c-0.1-0.1-0.2-0.4-0.2-0.6C166.9,140.5,166.8,140.3,166.8,140z"/>
		<path class="st13" d="M170.7,135.2l0.9,5.4l-1.5,0.2L169,134l1.5-0.2L170.7,135.2z M170.7,137l-0.5,0.1c-0.1-0.6-0.1-1.2,0.1-1.9
			c0.1-0.5,0.4-1,0.7-1.4c0.4-0.4,0.9-0.6,1.4-0.6c0.5-0.1,0.9,0,1.2,0c0.4,0.1,0.6,0.4,0.9,0.7c0.2,0.4,0.4,0.9,0.5,1.5l0.7,4.4
			l-1.6,0.2l-0.7-4.4c0-0.4-0.1-0.6-0.2-0.7c-0.1-0.1-0.2-0.2-0.5-0.4c-0.2,0-0.4,0-0.7,0c-0.2,0-0.5,0.1-0.7,0.2s-0.4,0.4-0.5,0.5
			c-0.1,0.2-0.1,0.5-0.2,0.7C170.7,136.4,170.7,136.7,170.7,137z"/>
		<path class="st13" d="M176.1,131c0-0.2,0-0.5,0.1-0.6s0.4-0.2,0.6-0.4c0.2,0,0.5,0,0.7,0.1c0.1,0.1,0.2,0.4,0.4,0.5
			c0,0.2,0,0.5-0.1,0.6s-0.4,0.2-0.6,0.4c-0.2,0-0.5,0-0.7-0.1C176.2,131.4,176.1,131.2,176.1,131z M177.9,132.5l1.1,6.9l-1.6,0.2
			l-1.1-6.9L177.9,132.5z"/>
		<path class="st13" d="M184.2,134.2l0.1,1l-1.1,0.1c-0.6,0.1-1,0.2-1.2,0.5c-0.2,0.2-0.4,0.6-0.2,1c0,0.2,0.1,0.5,0.4,0.6
			c0.2,0.1,0.5,0.2,0.9,0.1c0.4,0,0.6-0.1,0.7-0.4c0.2-0.1,0.4-0.4,0.5-0.6c0.1-0.2,0.1-0.4,0.1-0.6l0.6,0.6c0,0.1-0.1,0.4-0.1,0.6
			c-0.1,0.2-0.2,0.5-0.4,0.6c-0.1,0.1-0.4,0.4-0.6,0.6c-0.2,0.1-0.6,0.2-0.9,0.4c-0.5,0.1-0.9,0-1.2-0.1c-0.4-0.1-0.7-0.4-1-0.6
			c-0.2-0.2-0.4-0.6-0.5-1c-0.1-0.7,0-1.4,0.5-1.9s1.2-0.9,2.2-1L184.2,134.2L184.2,134.2z M184.5,137l-0.5-3.3
			c0-0.4-0.2-0.6-0.5-0.9c-0.2-0.1-0.6-0.2-1-0.1c-0.2,0-0.5,0.1-0.6,0.2c-0.1,0.1-0.2,0.2-0.4,0.4c-0.1,0.1-0.1,0.4-0.1,0.5
			l-1.5,0.2c0-0.4,0-0.7,0.1-1.1c0.1-0.4,0.5-0.7,0.9-1c0.4-0.2,0.9-0.5,1.5-0.5c0.5-0.1,1-0.1,1.5,0c0.4,0.1,0.7,0.4,1.1,0.6
			c0.2,0.4,0.5,0.7,0.6,1.2l0.5,3.1c0,0.4,0.1,0.6,0.2,0.9c0.1,0.2,0.2,0.5,0.2,0.6v0.1l-1.6,0.2c-0.1-0.1-0.2-0.4-0.2-0.6
			C184.6,137.5,184.5,137.3,184.5,137z"/>
		<path class="st13" d="M188.5,132.2l0.9,5.4l-1.5,0.2l-1.1-6.9l1.5-0.2L188.5,132.2z M188.5,134.1l-0.5,0.1
			c-0.1-0.6-0.1-1.2,0.1-1.9c0.2-0.6,0.4-1,0.7-1.4c0.4-0.4,0.9-0.6,1.4-0.6c0.5-0.1,0.9,0,1.2,0c0.4,0.1,0.6,0.4,0.9,0.7
			s0.4,0.9,0.5,1.5l0.7,4.4l-1.6,0.2l-0.7-4.4c0-0.4-0.1-0.6-0.2-0.7c-0.1-0.1-0.2-0.2-0.5-0.4c-0.2,0-0.4,0-0.7,0
			c-0.2,0-0.5,0.1-0.7,0.2s-0.4,0.4-0.5,0.5c-0.1,0.2-0.1,0.5-0.2,0.7C188.4,133.5,188.4,133.7,188.5,134.1z"/>
		<path class="st13" d="M201.3,134.6c0.2,0,0.5-0.1,0.6-0.2c0.2-0.1,0.4-0.2,0.4-0.5c0.1-0.2,0.1-0.4,0.1-0.6l1.5-0.2
			c0.1,0.5,0,0.9-0.2,1.2s-0.5,0.7-0.9,1c-0.4,0.2-0.9,0.5-1.4,0.6c-0.7,0.1-1.4,0-1.9-0.1c-0.5-0.2-1-0.6-1.2-1.1
			c-0.4-0.5-0.5-1.1-0.6-1.7v-0.2c-0.1-0.6-0.1-1.2,0-1.9c0.1-0.6,0.4-1,0.9-1.5c0.4-0.4,1-0.6,1.7-0.7c0.5-0.1,1.1-0.1,1.5,0.1
			c0.4,0.2,0.9,0.4,1.1,0.7c0.2,0.4,0.5,0.7,0.6,1.4L202,131c0-0.2-0.1-0.5-0.2-0.6c-0.1-0.2-0.4-0.4-0.6-0.4
			c-0.2-0.1-0.5-0.1-0.7-0.1c-0.4,0.1-0.7,0.2-0.9,0.5c-0.1,0.2-0.2,0.6-0.4,0.9c-0.1,0.2,0,0.7,0,1.1v0.2c0.1,0.4,0.1,0.7,0.4,1.1
			c0.1,0.4,0.4,0.6,0.6,0.7C200.4,134.6,200.8,134.7,201.3,134.6z"/>
		<path class="st13" d="M204.6,131.7v-0.1c-0.1-0.6-0.1-1.2,0.1-1.9c0.1-0.6,0.5-1.1,0.9-1.5c0.4-0.4,1-0.6,1.6-0.7s1.2,0,1.9,0.1
			c0.5,0.2,1,0.6,1.4,1.1s0.6,1.1,0.7,1.7v0.1c0.1,0.6,0.1,1.2-0.1,1.9c-0.2,0.6-0.5,1.1-0.9,1.5s-1,0.6-1.6,0.7s-1.2,0-1.9-0.1
			c-0.5-0.2-1-0.6-1.4-1.1C204.8,133,204.7,132.3,204.6,131.7z M206.1,131.2v0.1c0.1,0.4,0.2,0.7,0.4,1.1c0.1,0.4,0.4,0.6,0.7,0.7
			s0.6,0.2,1,0.1s0.7-0.2,0.9-0.5c0.2-0.2,0.4-0.6,0.4-0.9c0-0.4,0-0.7,0-1.1v-0.1c-0.1-0.4-0.2-0.7-0.4-1.1s-0.4-0.6-0.7-0.7
			c-0.2-0.1-0.6-0.2-1-0.1c-0.4,0.1-0.7,0.2-0.9,0.5c-0.2,0.2-0.4,0.6-0.4,1C205.9,130.5,205.9,130.9,206.1,131.2z"/>
		<path class="st13" d="M213.5,128l0.9,5.6l-1.5,0.2l-1.2-6.9l1.5-0.2L213.5,128z M213.5,129.9L213,130c-0.1-0.6-0.1-1.2,0-1.7
			s0.4-1,0.7-1.4s0.9-0.6,1.5-0.7s1.2,0,1.6,0.4c0.5,0.4,0.7,0.9,0.9,1.7l0.7,4.6l-1.5,0.2l-0.7-4.4c0-0.4-0.1-0.6-0.2-0.7
			c-0.1-0.1-0.2-0.2-0.5-0.4c-0.2-0.1-0.4,0-0.7,0c-0.2,0-0.5,0.1-0.7,0.2s-0.4,0.4-0.4,0.5s-0.1,0.5-0.1,0.7
			C213.5,129.3,213.5,129.6,213.5,129.9z M217.7,128.8L217,129c-0.1-0.6-0.1-1.1,0-1.6s0.4-0.9,0.7-1.2s0.9-0.6,1.4-0.6
			c0.5-0.1,0.9,0,1.2,0c0.4,0.1,0.6,0.4,0.9,0.7c0.2,0.4,0.4,0.9,0.5,1.5l0.7,4.4l-1.6,0.2L220,128c0-0.4-0.1-0.6-0.2-0.7
			c-0.1-0.1-0.2-0.2-0.5-0.4c-0.2,0-0.4,0-0.6,0s-0.5,0.1-0.6,0.2s-0.2,0.2-0.4,0.5c-0.1,0.2-0.1,0.4-0.2,0.6
			C217.7,128.3,217.7,128.5,217.7,128.8z"/>
		<path class="st13" d="M224.8,126.2l0.9,5.6l-1.5,0.2l-1.1-6.9l1.5-0.2L224.8,126.2z M225,127.9l-0.5,0.1c-0.1-0.6-0.1-1.2,0-1.7
			s0.4-1,0.7-1.4c0.4-0.4,0.9-0.6,1.5-0.7s1.2,0,1.6,0.4c0.5,0.4,0.7,0.9,0.9,1.7l0.7,4.6l-1.5,0.2l-0.7-4.4c0-0.4-0.1-0.6-0.2-0.7
			c-0.1-0.1-0.2-0.2-0.5-0.4c-0.2-0.1-0.4,0-0.7,0c-0.2,0-0.5,0.1-0.7,0.2s-0.4,0.4-0.4,0.5s-0.1,0.5-0.1,0.7
			C224.8,127.4,224.8,127.7,225,127.9z M229.2,126.8l-0.7,0.2c-0.1-0.6-0.1-1.1,0-1.6s0.4-0.9,0.7-1.2c0.4-0.4,0.9-0.6,1.4-0.6
			c0.5-0.1,0.9,0,1.2,0c0.4,0.1,0.6,0.4,0.9,0.7c0.2,0.4,0.4,0.9,0.5,1.5l0.7,4.4l-1.6,0.2l-0.7-4.4c0-0.4-0.1-0.6-0.2-0.7
			c-0.1-0.1-0.2-0.2-0.5-0.4c-0.2,0-0.4,0-0.6,0s-0.5,0.1-0.6,0.2s-0.2,0.2-0.4,0.5c-0.1,0.1-0.1,0.4-0.2,0.6
			C229,126.4,229.2,126.5,229.2,126.8z"/>
		<path class="st13" d="M239.5,126.2l0.5-0.1c0.1,0.6,0.1,1.2,0,1.7c-0.1,0.5-0.4,1-0.6,1.2c-0.4,0.4-0.9,0.6-1.5,0.6
			c-0.6,0.1-1.2,0-1.7-0.4s-0.9-1-1-1.9l-0.7-4.4l1.5-0.2l0.7,4.4c0,0.4,0.1,0.6,0.2,0.7c0.1,0.1,0.2,0.2,0.5,0.4c0.1,0,0.4,0,0.6,0
			c0.5-0.1,0.7-0.2,1-0.5c0.2-0.2,0.4-0.5,0.4-0.7C239.5,126.9,239.5,126.5,239.5,126.2z M239.5,127.7l-0.9-5.3l1.6-0.2l1.1,6.9
			l-1.5,0.2L239.5,127.7z"/>
		<path class="st13" d="M243.6,123.1l0.9,5.4l-1.5,0.2l-1.1-6.9l1.5-0.2L243.6,123.1z M243.6,124.8l-0.5,0.1
			c-0.1-0.6-0.1-1.2,0.1-1.9c0.1-0.5,0.4-1,0.7-1.4c0.4-0.4,0.9-0.6,1.4-0.6c0.5-0.1,0.9,0,1.2,0c0.4,0.1,0.6,0.4,0.9,0.7
			c0.2,0.4,0.4,0.9,0.5,1.5l0.7,4.4l-1.6,0.2l-0.7-4.4c0-0.4-0.1-0.6-0.2-0.7c-0.1-0.1-0.2-0.2-0.5-0.4c-0.2-0.1-0.4,0-0.7,0
			c-0.2,0-0.5,0.1-0.7,0.2s-0.4,0.4-0.5,0.5c-0.1,0.2-0.1,0.5-0.2,0.7C243.5,124.3,243.5,124.6,243.6,124.8z"/>
		<path class="st13" d="M248.8,118.8c0-0.2,0-0.5,0.1-0.6s0.4-0.2,0.6-0.4c0.2,0,0.5,0,0.7,0.1c0.1,0.1,0.2,0.4,0.4,0.5
			c0,0.2,0,0.5-0.1,0.6s-0.4,0.2-0.6,0.4c-0.2,0-0.5,0-0.7-0.1C248.9,119.3,248.8,119,248.8,118.8z M250.8,120.4l1.1,6.9l-1.6,0.2
			l-1.1-6.9L250.8,120.4z"/>
		<path class="st13" d="M255.6,119.5l0.2,1.1l-4,0.6l-0.2-1.1L255.6,119.5z M252.5,118.3l1.5-0.2l1.1,6.7c0,0.2,0.1,0.4,0.1,0.5
			c0.1,0.1,0.1,0.1,0.2,0.1c0.1,0,0.2,0,0.4,0c0.1,0,0.2,0,0.2-0.1s0.1,0,0.2-0.1l0.2,1.2c-0.1,0-0.2,0.1-0.4,0.1s-0.4,0.1-0.6,0.1
			c-0.4,0-0.6,0-1,0c-0.2-0.1-0.5-0.2-0.7-0.5c-0.2-0.2-0.4-0.6-0.4-1.1L252.5,118.3z"/>
		<path class="st13" d="M257.7,119.1l2.5,4.9l0.5,1.6l-1,0.5l-3.7-6.7L257.7,119.1z M259.8,125.2l0.9-6.4l1.6-0.2l-1.5,8.4
			c0,0.1-0.1,0.4-0.1,0.6s-0.1,0.4-0.2,0.6s-0.4,0.4-0.5,0.5c-0.2,0.1-0.5,0.2-0.9,0.4c-0.1,0-0.2,0-0.4,0c-0.1,0-0.2,0-0.4,0
			l-0.2-1.2h0.1c0.1,0,0.1,0,0.1,0c0.4-0.1,0.6-0.1,0.9-0.4c0.1-0.1,0.2-0.5,0.4-0.9L259.8,125.2z"/>
		<path class="st13" d="M180,146.4c0-0.2,0-0.5,0.1-0.6s0.4-0.2,0.6-0.4c0.2,0,0.5,0,0.7,0.1c0.1,0.1,0.2,0.4,0.4,0.5
			c0,0.2,0,0.5-0.1,0.6s-0.4,0.2-0.6,0.4c-0.2,0-0.5,0-0.7-0.1C180.1,146.8,180.1,146.7,180,146.4z M182,148l1.1,6.9l-1.6,0.2
			l-1.1-6.9L182,148z"/>
		<path class="st13" d="M185.4,148.9l0.9,5.4l-1.5,0.2l-1.1-6.9l1.5-0.2L185.4,148.9z M185.4,150.8l-0.5,0.1
			c-0.1-0.6-0.1-1.2,0.1-1.9c0.1-0.5,0.4-1,0.7-1.4c0.4-0.4,0.9-0.6,1.4-0.6c0.5-0.1,0.9,0,1.2,0s0.6,0.4,0.9,0.7
			c0.2,0.4,0.4,0.9,0.5,1.5l0.7,4.4l-1.6,0.2l-0.7-4.4c0-0.4-0.1-0.6-0.2-0.7s-0.2-0.2-0.5-0.4c-0.2,0-0.4,0-0.7,0
			c-0.2,0-0.5,0.1-0.7,0.2c-0.2,0.1-0.4,0.4-0.5,0.5c-0.1,0.2-0.1,0.5-0.2,0.7C185.4,150.1,185.4,150.4,185.4,150.8z"/>
		<path class="st13" d="M200.6,142.5l0.2,1.2l-7.4,1.2l-0.2-1.2L200.6,142.5z M197.7,142.8l1.6,9.3l-1.6,0.2l-1.6-9.3L197.7,142.8z"
			/>
		<path class="st13" d="M207.1,141.4l1.6-0.2l1,6.2c0.1,0.7,0.1,1.4-0.1,1.9c-0.2,0.5-0.6,1-1.1,1.2s-1.1,0.5-1.7,0.6
			s-1.2,0.1-1.9-0.1c-0.6-0.1-1-0.5-1.4-0.9s-0.6-1-0.7-1.7l-1-6.2l1.6-0.2l1,6.2c0.1,0.5,0.2,0.9,0.4,1.1c0.2,0.2,0.5,0.5,0.7,0.5
			s0.6,0.1,1,0s0.7-0.2,1-0.4c0.2-0.1,0.5-0.4,0.5-0.7c0.1-0.4,0.1-0.7,0-1.1L207.1,141.4z"/>
		<path class="st13" d="M215.5,140l1.6,9.3l-1.6,0.2l-1.6-9.3L215.5,140z M218.1,149l-2,0.4l-0.2-1.2l2-0.4c0.6-0.1,1-0.2,1.4-0.6
			c0.4-0.4,0.6-0.7,0.7-1.2s0.1-1.1,0-1.7l-0.1-0.5c-0.1-0.6-0.2-1.2-0.6-1.6c-0.2-0.4-0.6-0.7-1.1-0.9s-0.9-0.2-1.5-0.1l-2.1,0.4
			l-0.2-1.2l2.1-0.4c0.9-0.1,1.6-0.1,2.2,0.1c0.7,0.2,1.2,0.7,1.7,1.2c0.5,0.6,0.7,1.4,0.9,2.2l0.1,0.5c0.1,0.9,0.1,1.7-0.1,2.5
			c-0.2,0.7-0.6,1.4-1.2,1.7C219.7,148.7,218.9,148.9,218.1,149z"/>
		<path class="st13" d="M226.8,147.8c-0.7,0.1-1.4,0.1-1.9-0.1c-0.5-0.2-1-0.5-1.4-1s-0.6-1-0.7-1.6v-0.2c-0.1-0.7-0.1-1.4,0.1-2
			c0.1-0.6,0.5-1.1,0.9-1.5s1-0.6,1.5-0.7c0.6-0.1,1.2,0,1.7,0.1s0.9,0.6,1.2,1c0.2,0.5,0.5,1,0.6,1.7l0.1,0.6l-5.3,0.9l-0.1-1.1
			l3.8-0.6v-0.1c0-0.2-0.1-0.5-0.2-0.7c-0.1-0.2-0.4-0.4-0.5-0.5c-0.2-0.1-0.5-0.1-0.9-0.1s-0.6,0.2-0.9,0.4
			c-0.2,0.1-0.4,0.5-0.4,0.9c-0.1,0.4,0,0.7,0,1.2v0.2c0.1,0.4,0.2,0.7,0.4,1c0.2,0.2,0.5,0.5,0.7,0.6s0.6,0.1,1.1,0.1
			c0.4-0.1,0.7-0.2,1-0.4c0.2-0.1,0.5-0.5,0.6-0.7l1,0.6c-0.1,0.4-0.5,0.7-0.9,1.1C228.1,147.4,227.6,147.7,226.8,147.8z"/>
		<path class="st13" d="M230.8,136.9l1.6,9.9l-1.6,0.2l-1.6-9.9L230.8,136.9z"/>
		<path class="st13" d="M236.5,138.9l0.2,1.1l-4.1,0.6l-0.2-1.1L236.5,138.9z M236.2,146.1l-1.5,0.2l-1.2-7.5
			c-0.1-0.7,0-1.4,0.4-1.9s0.9-0.7,1.6-0.9c0.1,0,0.2,0,0.5,0c0.1,0,0.2,0,0.5,0l0.1,1.2c-0.1,0-0.1,0-0.2,0c-0.1,0-0.2,0-0.4,0
			c-0.4,0-0.6,0.2-0.7,0.4c-0.1,0.1-0.2,0.5-0.1,0.9L236.2,146.1z"/>
		<path class="st13" d="M240.8,138.2l0.2,1.1l-4,0.6l-0.2-1.1L240.8,138.2z M237.7,136.9l1.5-0.2l1.1,6.7c0,0.2,0.1,0.4,0.1,0.5
			c0.1,0.1,0.1,0.1,0.2,0.1c0.1,0,0.2,0,0.4,0s0.2,0,0.2-0.1s0.1,0,0.2-0.1l0.2,1.2c-0.1,0-0.2,0.1-0.4,0.1c-0.1,0-0.4,0.1-0.6,0.1
			c-0.4,0-0.6,0-1,0c-0.2-0.1-0.5-0.2-0.7-0.5c-0.2-0.2-0.4-0.6-0.4-1.1L237.7,136.9z"/>
	</g>
	<path class="st1" d="M238.3,76c10.4-0.1,18.5-8.6,18.5-19c-0.1-10.4-8.6-18.5-19-18.5c-10.4,0.1-18.5,8.6-18.5,19
		C219.5,68,228.1,76.1,238.3,76z"/>
	<path class="st1" d="M245.6,50.8c-4.8-2.6-7.5,4.1-7.5,4.1s-2.7-6.7-7.5-4.1c-5.4,3.1-0.6,12.7,7.5,16.9
		C246.2,63.5,251,53.8,245.6,50.8z"/>
	<path class="st13" d="M242.5,79c10.4,0,18.8-8.4,18.8-18.8s-8.4-18.8-18.8-18.8c-10.4,0-18.8,8.4-18.8,18.8
		C223.9,70.6,232.3,79,242.5,79z"/>
	<path class="st22" d="M250.2,53.8c-4.8-2.6-7.5,4.1-7.5,4.1s-2.7-6.7-7.5-4.1c-5.4,3.1-0.6,12.7,7.5,16.9
		C250.8,66.5,255.6,56.8,250.2,53.8z"/>
	<path class="st1" d="M335.6,193.5c9.3,0,16.7-7.4,16.7-16.7s-7.4-16.7-16.7-16.7s-16.7,7.4-16.7,16.7
		C318.8,186,326.4,193.5,335.6,193.5z"/>
	<path class="st0" d="M340.1,196.8c9.3,0,16.7-7.4,16.7-16.7s-7.4-16.7-16.7-16.7c-9.3,0-16.7,7.4-16.7,16.7
		C323.4,189.4,330.8,196.8,340.1,196.8z"/>
	<path class="st19" d="M340.1,174.3l5.7-3.1l-1.1,6.3l4.6,4.4l-6.4,1l-2.8,5.8l-2.8-5.8l-6.4-1l4.6-4.4l-1.1-6.3L340.1,174.3z"/>
	<g>
		<path class="st13" d="M318,129.5l0.7,4.4v1.4h-0.6l-1-5.8L318,129.5L318,129.5z M318.6,134l1.4-4.4h0.6l-0.1,1.1l-1.5,4.6h-0.6
			L318.6,134z M320.8,129.6l0.9,4.6l0.1,1.2h-0.6l-1-4.7v-1.1H320.8z M321.7,134.1l1.1-4.3h1l-1.6,5.7h-0.6L321.7,134.1z"/>
		<path class="st13" d="M323.9,133.5L323.9,133.5c0-0.5,0.1-0.9,0.2-1.2c0.1-0.4,0.4-0.6,0.7-0.7c0.2-0.1,0.6-0.2,1.1-0.2
			c0.4,0,0.7,0.1,1.1,0.4c0.2,0.2,0.5,0.5,0.6,0.9s0.2,0.7,0.1,1.1v0.1c0,0.4-0.1,0.7-0.2,1.1c-0.1,0.4-0.4,0.6-0.7,0.7
			c-0.2,0.1-0.6,0.2-1.1,0.2c-0.4,0-0.7-0.1-1.1-0.4c-0.2-0.2-0.5-0.5-0.6-0.9C324,134.2,323.9,133.8,323.9,133.5z M324.9,133.5
			L324.9,133.5c0,0.4,0,0.6,0.1,0.7c0,0.2,0.1,0.4,0.4,0.5c0.1,0.1,0.4,0.2,0.6,0.2s0.5,0,0.6-0.1s0.2-0.2,0.4-0.5s0.1-0.5,0.1-0.7
			v-0.1c0-0.2,0-0.5-0.1-0.7s-0.1-0.4-0.4-0.5c-0.1-0.1-0.4-0.2-0.6-0.2s-0.5,0-0.6,0.1s-0.2,0.2-0.4,0.5
			C324.9,133,324.9,133.2,324.9,133.5z"/>
		<path class="st13" d="M329.7,132.5l-0.1,3.5h-1l0.2-4.3h0.9V132.5z M329.5,133.6h-0.4c0-0.4,0.1-0.7,0.2-1
			c0.1-0.2,0.4-0.5,0.6-0.7c0.2-0.1,0.6-0.2,1-0.2s0.7,0.1,1,0.4c0.2,0.2,0.4,0.6,0.4,1.1l-0.1,2.8h-1l0.1-2.7c0-0.2,0-0.4-0.1-0.5
			c0-0.1-0.1-0.2-0.2-0.2s-0.2-0.1-0.4-0.1c-0.1,0-0.4,0-0.5,0.1s-0.2,0.1-0.4,0.2c-0.1,0.1-0.1,0.2-0.2,0.4
			C329.6,133.2,329.5,133.3,329.5,133.6z M332.2,133.5l-0.5,0.1c0-0.4,0.1-0.6,0.2-1c0.1-0.2,0.4-0.5,0.6-0.6s0.6-0.2,0.9-0.2
			c0.2,0,0.5,0.1,0.7,0.2c0.2,0.1,0.4,0.2,0.5,0.5c0.1,0.2,0.1,0.5,0.1,1l-0.1,2.7h-1l0.1-2.7c0-0.2,0-0.4-0.1-0.5
			c0-0.1-0.1-0.2-0.2-0.2s-0.2-0.1-0.4-0.1c-0.1,0-0.2,0-0.4,0c-0.1,0-0.2,0.1-0.2,0.2c-0.1,0.1-0.1,0.2-0.2,0.4
			C332.2,133.2,332.2,133.3,332.2,133.5z"/>
		<path class="st13" d="M338.4,133.7v0.6h-0.7c-0.4,0-0.6,0-0.9,0.1s-0.2,0.2-0.2,0.5c0,0.1,0,0.4,0.1,0.5s0.2,0.2,0.5,0.2
			c0.2,0,0.4,0,0.5-0.1s0.2-0.1,0.4-0.2s0.1-0.2,0.1-0.4l0.2,0.5c0,0.1-0.1,0.2-0.1,0.4c-0.1,0.1-0.2,0.2-0.4,0.4
			c-0.1,0.1-0.2,0.2-0.5,0.2c-0.1,0.1-0.4,0.1-0.6,0.1s-0.5-0.1-0.7-0.2c-0.2-0.1-0.4-0.2-0.5-0.5c-0.1-0.2-0.1-0.4-0.1-0.6
			c0-0.5,0.2-0.7,0.6-1c0.4-0.2,0.9-0.4,1.5-0.2L338.4,133.7z M338.1,135.4l0.1-2.1c0-0.2,0-0.4-0.1-0.5s-0.2-0.2-0.6-0.2
			c-0.1,0-0.2,0-0.4,0s-0.2,0.1-0.2,0.2c-0.1,0.1-0.1,0.2-0.1,0.2h-1c0-0.2,0.1-0.5,0.2-0.6c0.1-0.2,0.4-0.4,0.6-0.5s0.6-0.1,1-0.1
			s0.6,0.1,0.9,0.2c0.2,0.1,0.4,0.2,0.6,0.5c0.1,0.2,0.2,0.5,0.1,0.9l-0.1,1.9c0,0.2,0,0.4,0,0.5s0,0.2,0.1,0.4v0.1h-1
			c0-0.1-0.1-0.2-0.1-0.4C338.1,135.8,338.1,135.6,338.1,135.4z"/>
		<path class="st13" d="M341.1,133.1l-0.1,3.3h-1l0.2-4.3h0.9V133.1z M341,134.2h-0.2c0-0.4,0.1-0.7,0.2-1.1
			c0.1-0.2,0.4-0.5,0.6-0.7c0.2-0.1,0.6-0.2,0.9-0.2s0.5,0.1,0.7,0.2s0.4,0.2,0.5,0.5c0.1,0.2,0.1,0.5,0.1,1l-0.1,2.7h-1l0.1-2.7
			c0-0.2,0-0.4-0.1-0.5c0-0.1-0.1-0.2-0.2-0.2s-0.2-0.1-0.4-0.1c-0.1,0-0.4,0-0.5,0.1s-0.2,0.1-0.4,0.2c-0.1,0.1-0.1,0.2-0.2,0.4
			C341,133.8,341,134,341,134.2z"/>
		<path class="st13" d="M348,131l-0.2,5.8h-1l0.2-5.8H348z M350.3,136.2v0.7l-2.8-0.1v-0.7L350.3,136.2z"/>
		<path class="st13" d="M351.2,131.6c0-0.1,0-0.2,0.1-0.4c0.1-0.1,0.2-0.1,0.4-0.1c0.1,0,0.2,0.1,0.4,0.1c0.1,0.1,0.1,0.2,0.1,0.4
			c0,0.1-0.1,0.2-0.1,0.4c-0.1,0.1-0.2,0.1-0.4,0.1c-0.1,0-0.2-0.1-0.4-0.1C351.3,131.9,351.2,131.7,351.2,131.6z M352.2,132.7
			L352,137h-1l0.2-4.3H352.2z"/>
		<path class="st13" d="M355.4,133v0.7l-2.5-0.1v-0.7L355.4,133z M354.3,137.2h-1l0.2-4.7c0-0.5,0.1-0.9,0.5-1.1
			c0.2-0.2,0.6-0.4,1.1-0.4c0.1,0,0.2,0,0.2,0c0.1,0,0.1,0,0.2,0.1v0.7h-0.1c0,0-0.1,0-0.2,0c-0.2,0-0.4,0-0.5,0.1s-0.2,0.2-0.2,0.5
			L354.3,137.2z"/>
		<path class="st13" d="M357.6,137.4c-0.4,0-0.7-0.1-1.1-0.4c-0.4-0.2-0.5-0.5-0.6-0.7c-0.1-0.4-0.2-0.6-0.2-1.1v-0.1
			c0-0.5,0.1-0.9,0.4-1.1c0.2-0.4,0.4-0.6,0.7-0.7c0.2-0.1,0.6-0.2,1-0.2s0.7,0.1,1,0.4c0.2,0.2,0.5,0.5,0.6,0.7
			c0.1,0.4,0.1,0.7,0.1,1.1v0.4l-3.3-0.1v-0.7l2.3,0.1v-0.1c0-0.1,0-0.4-0.1-0.5s-0.1-0.2-0.2-0.4c-0.1-0.1-0.2-0.1-0.5-0.1
			c-0.2,0-0.4,0-0.5,0.1s-0.2,0.2-0.4,0.5c-0.1,0.2-0.1,0.5-0.1,0.7v0.1c0,0.2,0,0.5,0.1,0.6c0.1,0.2,0.2,0.4,0.4,0.5
			c0.1,0.1,0.4,0.2,0.6,0.2s0.5,0,0.6-0.1s0.4-0.2,0.5-0.4l0.5,0.5c-0.1,0.2-0.4,0.4-0.6,0.5S358.1,137.4,357.6,137.4z"/>
		<path class="st13" d="M363.7,131.9l-0.2,5.8h-1l0.2-5.8H363.7z M366.3,132v0.7l-3-0.1v-0.7L366.3,132z M365.9,134.4v0.7l-2.6-0.1
			v-0.7L365.9,134.4z"/>
		<path class="st13" d="M367.8,134.3l-0.1,3.5h-1l0.2-4.3h0.9V134.3z M369.1,133.6v0.9c0,0-0.1,0-0.2,0s-0.1,0-0.2,0
			c-0.2,0-0.4,0-0.5,0.1s-0.2,0.1-0.4,0.4c-0.1,0.1-0.1,0.4-0.1,0.5h-0.2c0-0.4,0.1-0.6,0.2-1c0.1-0.2,0.2-0.5,0.5-0.6
			c0.2-0.1,0.5-0.2,0.7-0.2C368.9,133.6,369,133.6,369.1,133.6C369,133.6,369.1,133.6,369.1,133.6z"/>
		<path class="st13" d="M371.2,138.2c-0.4,0-0.7-0.1-1.1-0.4c-0.4-0.2-0.5-0.5-0.6-0.7c-0.1-0.4-0.2-0.6-0.2-1.1v-0.1
			c0-0.5,0.1-0.9,0.4-1.1c0.2-0.4,0.4-0.6,0.7-0.7c0.2-0.1,0.6-0.2,1-0.2s0.7,0.1,1,0.4c0.2,0.2,0.5,0.5,0.6,0.7
			c0.1,0.4,0.1,0.7,0.1,1.1v0.4l-3.3-0.1v-0.7l2.3,0.1v-0.1c0-0.1,0-0.4-0.1-0.5s-0.1-0.2-0.2-0.4s-0.2-0.1-0.5-0.1
			c-0.2,0-0.4,0-0.5,0.1s-0.2,0.2-0.4,0.5c-0.1,0.2-0.1,0.5-0.1,0.7v0.1c0,0.2,0,0.5,0.1,0.6c0.1,0.2,0.2,0.4,0.4,0.5
			c0.1,0.1,0.4,0.2,0.6,0.2s0.5,0,0.6-0.1s0.4-0.2,0.5-0.4l0.5,0.5c-0.1,0.2-0.4,0.4-0.6,0.5C372.1,137.9,371.7,138.2,371.2,138.2z"
			/>
		<path class="st13" d="M375.7,138.3c-0.4,0-0.7-0.1-1.1-0.4s-0.5-0.5-0.6-0.7c-0.1-0.4-0.2-0.6-0.2-1.1V136c0-0.5,0.1-0.9,0.4-1.1
			c0.2-0.4,0.4-0.6,0.7-0.7c0.2-0.1,0.6-0.2,1-0.2s0.7,0.1,1,0.4c0.2,0.2,0.5,0.5,0.6,0.7c0.1,0.4,0.1,0.7,0.1,1.1v0.4l-3.3-0.1
			v-0.7l2.3,0.1v-0.1c0-0.1,0-0.4-0.1-0.5s-0.1-0.2-0.2-0.4s-0.2-0.1-0.5-0.1c-0.2,0-0.4,0-0.5,0.1s-0.2,0.2-0.4,0.5
			c-0.1,0.2-0.1,0.5-0.1,0.7v0.1c0,0.2,0,0.5,0.1,0.6c0.1,0.2,0.2,0.4,0.4,0.5s0.4,0.2,0.6,0.2s0.5,0,0.6-0.1s0.4-0.2,0.5-0.4
			l0.5,0.5c-0.1,0.2-0.4,0.4-0.6,0.5C376.4,138.3,376,138.4,375.7,138.3z"/>
		<path class="st13" d="M378,136.3L378,136.3c0-0.5,0.1-0.9,0.2-1.2s0.4-0.6,0.6-0.7c0.2-0.1,0.6-0.2,0.9-0.2c0.4,0,0.6,0.1,0.9,0.2
			c0.2,0.2,0.4,0.5,0.5,0.7c0.1,0.4,0.2,0.7,0.2,1.1v0.2c-0.1,0.4-0.1,0.7-0.4,1.1c-0.1,0.2-0.4,0.5-0.6,0.7
			c-0.2,0.1-0.5,0.2-0.9,0.2s-0.6-0.1-0.9-0.4c-0.2-0.2-0.4-0.5-0.5-0.7C378,137,378,136.7,378,136.3z M379,136.2L379,136.2
			c0,0.4,0,0.6,0,0.7c0,0.2,0.1,0.4,0.2,0.5s0.4,0.2,0.5,0.2c0.2,0,0.4,0,0.5-0.1s0.2-0.2,0.4-0.4c0.1-0.1,0.1-0.4,0.2-0.5v-0.7
			c0-0.1,0-0.2-0.1-0.5c0-0.1-0.1-0.2-0.1-0.4c-0.1-0.1-0.1-0.2-0.2-0.2c-0.1-0.1-0.2-0.1-0.4-0.1c-0.2,0-0.4,0-0.6,0.1
			c-0.1,0.1-0.2,0.2-0.4,0.5S379,135.9,379,136.2z M380.7,137.7l0.2-5.2h1l-0.4,6.1h-0.9L380.7,137.7L380.7,137.7z"/>
		<path class="st13" d="M382.6,136.5L382.6,136.5c0-0.5,0.1-0.9,0.2-1.2s0.4-0.6,0.7-0.7c0.2-0.1,0.6-0.2,1.1-0.2
			c0.4,0,0.7,0.1,1.1,0.4c0.2,0.2,0.5,0.5,0.6,0.9s0.2,0.7,0.1,1.1v0.1c0,0.4-0.1,0.7-0.2,1.1c-0.1,0.4-0.4,0.6-0.7,0.7
			c-0.2,0.1-0.6,0.2-1.1,0.2c-0.4,0-0.7-0.1-1.1-0.4c-0.2-0.2-0.5-0.5-0.6-0.9C382.6,137.3,382.6,136.9,382.6,136.5z M383.4,136.4
			L383.4,136.4c0,0.4,0,0.6,0.1,0.7c0,0.2,0.1,0.4,0.4,0.5c0.1,0.1,0.4,0.2,0.6,0.2s0.5,0,0.6-0.1s0.2-0.2,0.4-0.5
			c0.1-0.2,0.1-0.5,0.1-0.7v-0.1c0-0.2,0-0.5-0.1-0.7s-0.1-0.4-0.4-0.5c-0.1-0.1-0.4-0.2-0.6-0.2s-0.5,0-0.6,0.1s-0.2,0.2-0.4,0.5
			C383.6,135.9,383.6,136.2,383.4,136.4z"/>
		<path class="st13" d="M388.4,135.4l-0.1,3.5h-1l0.2-4.3h0.9V135.4z M388.1,136.5h-0.4c0-0.4,0.1-0.7,0.2-1
			c0.1-0.2,0.4-0.5,0.6-0.7c0.2-0.1,0.6-0.2,1-0.2s0.7,0.1,1,0.4c0.2,0.2,0.4,0.6,0.4,1.1l-0.1,2.8h-1l0.1-2.7c0-0.2,0-0.4-0.1-0.5
			s-0.1-0.2-0.2-0.2s-0.2-0.1-0.4-0.1s-0.4,0-0.5,0.1s-0.2,0.1-0.4,0.2c-0.1,0.1-0.1,0.2-0.2,0.4
			C388.1,136.3,388.1,136.4,388.1,136.5z M390.7,136.4l-0.5,0.1c0-0.4,0.1-0.6,0.2-1c0.1-0.2,0.4-0.5,0.6-0.6s0.6-0.2,0.9-0.2
			c0.2,0,0.5,0.1,0.7,0.2s0.4,0.2,0.5,0.5c0.1,0.2,0.1,0.5,0.1,1l-0.1,2.7h-1l0.1-2.7c0-0.2,0-0.4-0.1-0.5c0-0.1-0.1-0.2-0.2-0.2
			s-0.2-0.1-0.4-0.1c-0.1,0-0.2,0-0.4,0c-0.1,0-0.2,0.1-0.2,0.2c-0.1,0.1-0.1,0.2-0.2,0.4C390.9,136.2,390.9,136.3,390.7,136.4z"/>
	</g>
	<g>
		
			<ellipse transform="matrix(0.9968 -8.035709e-02 8.035709e-02 0.9968 -2.649 13.5805)" class="st13" cx="167.4" cy="39.7" rx="14.3" ry="14"/>
		<path class="st7" d="M159.9,40.1c0.7-0.7,1.5-1.5,2.1-2.1c0.2,0.2,0.6,0.5,0.9,0.9c1.1-1.2,2.3-2.5,3.3-3.8c0.1-0.2,0.4,0.2,0.9,0
			c0.9,1,1.2,1.5,2.1,2.3c0.6-0.5,1.1-1,1.7-1.5c0.7,0.7,3.2,2.7,3.2,2.7s1.5-0.6,2-1c1,1.1,3.2,3.3,4.3,4.6c0.1-1,0.2-2,0.1-3.1
			c-0.6-7.3-6.9-12.6-14.2-12s-12.7,6.9-12.1,14.2c0.1,1.1,0.4,2.1,0.6,3.1c1-1.4,3.1-3.8,4.2-5.2C159.3,39.3,159.6,39.7,159.9,40.1
			z"/>
		
			<rect x="155.6" y="42.7" transform="matrix(0.9968 -8.036020e-02 8.036020e-02 0.9968 -3.1131 13.6404)" class="st21" width="24.6" height="5.6"/>
		<text transform="matrix(0.9968 -8.036020e-02 8.036020e-02 0.9968 160.1301 45.9608)" class="st24 st25">ALBORZ</text>
		<path d="M176.1,37.4c-0.5,0.2-1.6,0.9-1.9,1h-0.1c-0.4-0.2-2.3-1.9-3.1-2.6h-0.1c-0.5,0.5-1,0.9-1.6,1.4h-0.1
			c-0.7-0.9-1.2-1.4-2-2.2H167c-0.5,0.2-0.6-0.2-0.7,0c-1,1.4-2.2,2.5-3.2,3.7H163l-0.7-0.7h-0.1c-0.6,0.6-1.2,1.2-2,2H160
			c-0.2-0.2-0.5-0.6-0.6-0.9h-0.1c-1.1,1.4-3.1,4-4.1,5.2c0,0.1,0,0.1,0.1,0.1c0.6,0,1.9-1.2,2.2-1.9c0.4-0.7,1.2-2,1.9-2.6h0.1
			c0.1,0.1,0.4,0.4,0.5,0.5v0.1c-0.1,0.6-0.9,1.1-0.9,1.7h0.1l0,0c0.9-0.9,2.1-2.5,2.8-3.3h0.1c0.4,0.6,0.6,1.5,1,2s0.7,1.1,1.4,1.4
			c0.1,0,0.1-0.1,0.1-0.1c-0.5-0.9-1.2-1.7-1.6-2.5v-0.1c1-1.2,2.2-2.3,3.2-3.6l0,0c0.1,0,0.2,0,0.4,0c0.1,0,0.1-0.1,0.2-0.1
			c0.1-0.1,0.2,0,0.2,0.1c0,0.2,0,0.7-0.1,1v0c0.4,0.4,1,0.6,1.6,0.7l0.1,0.1c-0.2,0.6-0.7,1.7-1,2.3c0,0.1,0.1,0.2,0.1,0.1
			c0.7-0.6,1.2-1,1.9-1.1c0.1,0,0.1-0.1,0-0.1c-0.5-0.9,0-2.1,1-2.8h0.1c1,1.1,1,2.3,1.1,3.7c0,0.1,0.1,0.1,0.2,0
			c0.4-1,0.6-1.5,0.9-1.7h0.1c0.9,0.9,2.1,1.7,3,2c0.1,0,0.1-0.1,0.1-0.1c-0.5-0.4-1.1-0.9-1.4-1.1c-0.1,0,0-0.1,0-0.1
			c0.5-0.1,0.9-0.4,1.1-0.5h0.1c2.1,2,3.2,3.8,4.3,3.8c0.1,0,0.1-0.1,0.1-0.1c-1.1-1.2-3.2-3.5-4.2-4.6
			C176.2,37.2,176.2,37.2,176.1,37.4z"/>
		<path id="SVGID_x5F_00000016043019860057531020000001779785247723414406_x5F_" class="st21" d="M180.4,38.6
			c-0.6-6.9-6.9-12.1-14.1-11.5c-7.2,0.6-12.6,6.7-12,13.6s6.9,12.1,14.1,11.5C175.6,51.7,181,45.5,180.4,38.6z"/>
		<text transform="matrix(1 0 0 1 11.5209 0.9211)" class="st24 st26"> </text>
		<path d="M164.3,40l0.6,0.7h0.1c0.1-0.4,0.6-1.5,0.7-2.5c0,0,0-0.1-0.1-0.1C165.1,38.5,164.4,39.7,164.3,40L164.3,40z"/>
		<path d="M166.4,34.5c0-0.2,0-0.5,0-0.9c0.1-0.4,0.4-0.7,0.6-1.1c0.2-0.2,0.5-0.6,0.7-0.9c0.9-0.9,1.5-1.5,2-2.6
			c0.4-0.7,0.4-1.7,0.4-2.1c0,0,0.1-0.4,0.2-0.4c0,0.4,0.1,0.7,0.1,1c0.1,0.7,0.1,1.6-0.4,2.3c-0.2,0.4-1.4,1.9-2.5,2.7
			c-0.4,0.4-0.7,0.6-1,1C166.4,33.7,166.3,34.1,166.4,34.5C166.4,34.6,166.4,34.6,166.4,34.5z"/>
		<path d="M171,29.5c0,0.1,0,0.5-0.1,0.6c-0.5,1.2-1.4,2.2-2.6,2.8c-0.2,0.1-0.4,0.2-0.6,0.4c-0.5,0.4-1,0.6-1.1,1.4c0,0,0,0,0-0.1
			s0-0.1,0-0.2c0.1-0.5,0.4-0.9,0.7-1.1c0.4-0.2,0.7-0.5,1.1-0.7c1-0.7,1.7-1.6,2.3-2.7C170.9,29.6,170.9,29.6,171,29.5L171,29.5z"
			/>
		<path d="M166.8,34.6C166.7,34.6,166.7,34.5,166.8,34.6c0-0.4,0.1-0.6,0.4-0.9c0.4-0.2,0.7-0.5,1.1-0.6c0.4-0.2,0.7-0.4,1.1-0.6
			c0.7-0.4,1.2-1,1.5-1.7l0.1-0.1c0,0.2-0.1,0.6-0.1,0.9c-0.4,0.7-1.1,1.4-1.9,1.7c-0.5,0.2-1,0.5-1.5,0.7
			C167.2,34,166.9,34.3,166.8,34.6z"/>
		<path d="M166.9,34.6c0-0.1,0.1-0.2,0.1-0.4c0.2-0.2,0.5-0.4,0.9-0.5s0.9-0.2,1.2-0.4c0.5-0.2,0.7-0.4,1-0.5c0.1,0,0.2-0.2,0.2-0.2
			c-0.1,0.2-0.1,0.5-0.9,0.9c-0.6,0.2-1.5,0.5-1.9,0.5C167.2,34.3,167,34.4,166.9,34.6z"/>
		<path d="M169.4,34.3c-0.1,0.1-0.2,0.2-0.5,0.2c-0.2,0.1-0.6,0.1-1,0c-0.4,0-0.6-0.1-1,0c0.1-0.2,0.2-0.4,0.5-0.4
			c0.1,0,0.4,0,0.5,0C168.4,34.4,168.9,34.3,169.4,34.3c0-0.1,0.1-0.1,0.1-0.1S169.4,34.1,169.4,34.3z"/>
	</g>
</g>
</svg>
