<?xml version="1.0" encoding="utf-8"?>
<!-- Generator: Adobe Illustrator 27.2.0, SVG Export Plug-In . SVG Version: 6.00 Build 0)  -->
<svg version="1.1" id="Layer_1" xmlns="http://www.w3.org/2000/svg" xmlns:xlink="http://www.w3.org/1999/xlink" x="0px" y="0px"
	 viewBox="0 0 1232.5 807" style="enable-background:new 0 0 1232.5 807;" xml:space="preserve">
<style type="text/css">
	.st0{opacity:0.4;}
	.st1{opacity:0.4;fill:#F4D7C9;enable-background:new    ;}
	.st2{fill:#ADCCC7;}
	.st3{fill:#6EAB9C;}
	.st4{fill:#AECBC7;}
	.st5{fill:#1B5175;}
	.st6{fill:#E9928B;}
	.st7{fill:#EB908B;}
	.st8{fill:#C46116;}
	.st9{fill:#AF0022;}
	.st10{opacity:0.52;enable-background:new    ;}
	.st11{opacity:0.52;fill:#A04A10;enable-background:new    ;}
	.st12{fill:#FFAC95;}
	.st13{fill:#6A5E84;}
	.st14{fill:#5F537F;}
	.st15{fill:#9B0428;}
	.st16{fill:#3FB8A9;}
	.st17{fill:#FFFFFF;}
	.st18{fill:#F2D6C8;}
	.st19{fill:#F5B89B;}
	.st20{fill:#B2E5E0;}
	.st21{fill:#EDF6F5;}
	.st22{fill:#FFAB40;}
</style>
<g class="st0">
	<path class="st1" d="M789.4,385.6l-3.5-2c-2.3-1.3-3.6-3.6-3.6-6.2c0-0.3,0-0.6,0-0.9s0-0.6,0-0.9c0-2.6,1.3-4.9,3.6-6.2l3.5-2
		c2.8-1.6,4.2-4.8,3.4-7.9v-0.1c-0.8-3.1-3.7-5.2-6.9-5.2l-4.1,0.1c-2.6,0-5-1.4-6.3-3.6c-0.3-0.4-0.5-0.9-0.8-1.3
		c-1.3-2.2-1.4-5,0-7.3l2.1-3.5c1.7-2.7,1.2-6.3-1-8.5l-0.1-0.1c-2.3-2.3-5.8-2.7-8.5-1l-3.5,2.1c-2.2,1.3-5,1.3-7.3,0
		c-0.4-0.3-0.9-0.5-1.3-0.8c-2.3-1.3-3.7-3.6-3.6-6.2l0.1-4.1c0-3.2-2.1-6-5.2-6.9h-0.1c-3.1-0.8-6.4,0.6-7.9,3.4l-2,3.5
		c-1.3,2.3-3.6,3.6-6.2,3.6c-0.3,0-0.6,0-0.9,0c-0.3,0-0.6,0-0.9,0c-2.6,0-4.9-1.3-6.2-3.6l-2-3.5c-1.6-2.8-4.8-4.2-7.9-3.4h-0.1
		c-3.1,0.8-5.2,3.7-5.2,6.9l0.1,4.1c0,2.6-1.4,5-3.6,6.2c-0.4,0.3-0.9,0.5-1.3,0.8c-2.2,1.3-5,1.4-7.3,0l-3.5-2.1
		c-2.7-1.7-6.3-1.2-8.5,1l-0.1,0.1c-2.3,2.3-2.7,5.8-1,8.5l2.1,3.5c1.3,2.2,1.3,5,0,7.3c-0.3,0.4-0.5,0.9-0.8,1.3
		c-1.3,2.3-3.6,3.7-6.3,3.6l-4.1-0.1c-3.2,0-6,2.1-6.9,5.2v0.1c-0.8,3.1,0.6,6.4,3.4,7.9l3.5,2c2.3,1.3,3.6,3.6,3.6,6.2
		c0,0.3,0,0.6,0,0.9s0,0.6,0,0.9c0,2.6-1.3,4.9-3.6,6.2l-3.5,2c-2.8,1.6-4.2,4.8-3.4,7.9v0.1c0.8,3.1,3.7,5.2,6.9,5.2l4.1-0.1
		c2.6,0,5,1.4,6.3,3.6c0.3,0.4,0.5,0.9,0.8,1.3c1.3,2.2,1.4,5,0,7.3l-2.1,3.5c-1.7,2.7-1.2,6.3,1,8.5l0.1,0.1c2.3,2.3,5.8,2.7,8.5,1
		l3.5-2.1c2.2-1.3,5-1.3,7.3,0c0.4,0.3,0.9,0.5,1.3,0.8c2.3,1.3,3.7,3.6,3.6,6.2L707,433c0,3.2,2.1,6,5.2,6.9h0.1
		c3.1,0.8,6.4-0.6,7.9-3.4l2-3.5c1.2-2.3,3.6-3.6,6.2-3.6c0.3,0,0.6,0,0.9,0c0.3,0,0.6,0,0.9,0c2.6,0,4.9,1.3,6.2,3.6l2,3.5
		c1.6,2.8,4.8,4.2,7.9,3.4h0.1c3.1-0.8,5.2-3.7,5.2-6.9l-0.1-4.1c0-2.6,1.4-5,3.6-6.2c0.4-0.3,0.9-0.5,1.3-0.8c2.2-1.3,5-1.4,7.3,0
		l3.5,2.1c2.7,1.7,6.3,1.2,8.5-1l0.1-0.1c2.3-2.3,2.7-5.8,1-8.5l-2.1-3.5c-1.3-2.2-1.3-5,0-7.3c0.3-0.4,0.5-0.9,0.8-1.3
		c1.3-2.3,3.6-3.7,6.3-3.6l4.1,0.1c3.2,0,6-2.1,6.9-5.2v-0.1C793.6,390.4,792.2,387.2,789.4,385.6z M729.3,416
		c-21.8,0-39.4-17.6-39.4-39.4s17.6-39.4,39.4-39.4c21.8,0,39.4,17.6,39.4,39.4C768.7,398.3,751.1,416,729.3,416z"/>
</g>
<g id="Layer_2_00000041999559371277330950000009057528216574199203_">
</g>
<g>
	<path class="st2" d="M1209.4,788.7c0,0,0.1-72.7-79.5-37.3c0,0-17.5-62.6-63.3-59.6c-45.8,3-50.3,62.2-50.3,62.2
		s-62.8-31.9-96.5,32.8L1209.4,788.7z"/>
	<path class="st3" d="M1075.3,786.1l-1.9-0.3c5.3-37.9-15.1-65-15.3-65.3l1.6-1.2C1059.8,719.6,1080.7,747.4,1075.3,786.1z"/>
	<path class="st3" d="M1076,762.9l-1.6-1.2c0.2-0.3,18.8-25.9,22-42l1.9,0.4C1095,736.7,1076.8,761.8,1076,762.9z"/>
	<path class="st3" d="M1075.1,776.3c-14.5-0.9-27.4-18.1-27.9-18.8l1.6-1.2c0.1,0.2,12.8,17.2,26.5,18L1075.1,776.3z"/>
	<path class="st3" d="M1121.7,785.9l2.7-1.9c0.2-0.2,25.5-18,52.4-19.3l0.1,2c-21.1,1-41.2,12.4-48.5,17l26.2-0.9l0.1,2
		L1121.7,785.9z"/>
	<path class="st3" d="M1142.5,775.6l-1.9-0.6c4.1-12.1,12.9-23.5,13.2-24l1.6,1.2C1155.3,752.3,1146.5,763.9,1142.5,775.6z"/>
	<path class="st3" d="M1015.8,785.5c-0.2-0.2-19.7-16.6-41.6-24.2l0.7-1.9c22.2,7.8,42,24.4,42.2,24.6L1015.8,785.5z"/>
	<path class="st3" d="M965,779.8l-0.9-1.8c0.6-0.3,14.3-7.2,39.7-3.7l-0.3,2C978.8,772.9,965.1,779.7,965,779.8z"/>
</g>
<path class="st4" d="M1246.3,776.2H-10.8v56.5h1257.3L1246.3,776.2L1246.3,776.2z"/>
<g>
	<path class="st5" d="M944.3,702.4c6.7,7.2,19.3,31.8,19.3,31.8l-16.1,11.7c0,0-1.4-5.5-3.9-4.4s-1.1,7.9-4.5,10.3
		c-3.3,2.4-36,26.2-36,26.2s-10.2-9.6-5.9-18.2c3.8-7.6,21.5-26.2,11.5-49.8c-1.3-3.1-2.8-6.3-4.6-9.6l23-21.4c0,0,2.8,6.4,6.6,12.9
		C936,695.3,941.9,699.8,944.3,702.4z"/>
	<path class="st6" d="M904.3,700.3l23-21.4c0,0,2.8,6.4,6.6,12.9l-25,18.2C907.6,706.9,906.1,703.7,904.3,700.3z"/>
</g>
<path class="st7" d="M345.7,171.7h197.9v45h-23.3l12.2,28.6l-43.4-28.6H345.7V171.7z"/>
<path class="st8" d="M996.4,359.5c-1,1.3-2.2,2.3-3.5,3c-10.7,5.9-29.8-6.9-38.5-6.5c-9.8,0.5-14.5,13.3-37.6,4.2
	c-23.1-9.1-17.7-45-16.3-58.6c1.4-13.5-7-20.3-21.5-19.8s-29.7-7.5-23.1-30.3c6.6-22.9-12-34.8-23-30.8c-11.1,4.1-5.1-15.4-5.1-15.4
	s9.5-13.5,28.2-11.5c5.9,0.6,10.1,2.5,13.3,5.2l0,0c0.7,0.6,1.4,1.3,2.1,2c0,0,0,0,0,0.1c5.4,5.9,7.5,14.1,10.9,20.3
	c5.6,10.3,14.9,9.6,29.4,5.1c14.5-4.4,43.6-2.4,49.9,21.8s-10.5,52.4,19.6,59.4C1011.3,314.7,1005.7,347.4,996.4,359.5z"/>
<path class="st9" d="M828.8,203.4c0,0,8.7,5.8,7.7,17.4c0,0,0,3.4-3.8,1.6c-3.8-1.7-7-14.4-6.6-17.1
	C826.5,202.7,827.9,203.1,828.8,203.4z"/>
<path class="st8" d="M825.2,255.5c-13.4,11.7-19.9,10.8-23.8,5.1c-1.5-2.1-5.5-7.4-10-13.2c-7.6-9.7-16.4-20.9-16.4-20.9
	s-14-0.9-14.3-11.7c-0.1-2.1,0.3-4.1,1.2-6.2c3.5-8.5,14.4-15.9,29.6-17.1c18.8-1.6,35.9,7.8,40.9,20.8
	C837.3,225.5,838.5,243.8,825.2,255.5z"/>
<g class="st10">
	<path class="st11" d="M791.3,247.4c-7.6-9.7-16.4-20.9-16.4-20.9s-14-0.9-14.3-11.7c-0.1-2.1,0.3-4.1,1.2-6.2
		c2.8-4.4,8-8.1,17.8-6.9c21,2.6,11.2,37.7,16.4,41.4C797.9,244.6,795.4,246.1,791.3,247.4z"/>
</g>
<path class="st12" d="M716.9,463.3c0,0-7.4,2.2-11.1,4.9c-3.7,2.8-12.5,7-12.7,8.5c-0.2,1.4,7.5-0.8,10.5-2s2.5,1.7-1.2,5.2
	s-5.2,5.1-9.5,8.4s-4.8,4.8-3.2,5.3c1.7,0.6,3.2-0.5,3.2-0.5s-3.9,2.9-2.3,4.6s6.3-1.8,6.3-1.8s-1.3,2.4,1.9,2.3
	c3.3-0.1,4.4-1.5,8.2-2.7c3.8-1.1,15.5-13.4,18.2-17.6c2.7-4.3,4.1-8,4.1-8L716.9,463.3z"/>
<path class="st9" d="M797,362.5c0,0,7.1,35.5-10.3,55.4c-17.4,19.9-57,56.3-57,56.3l-14.6-11.4c0,0,35.7-47.2,40.6-65.4
	c1.1-3.9,2-11.3,2-11.3L797,362.5z"/>
<path class="st12" d="M746.6,458.1c0,0-1.1-4.1,0.5-7.7s9.4,7.2,9.4,7.2l2.1,9L746.6,458.1z"/>
<path class="st13" d="M944.3,674.4l-51,34.8c0,0-26.7-32.8-50.3-63c-15.8-20.1-30.2-39.1-34.5-46.3c-8.5-14.6-20.7-72.2-25.1-93.8
	c-1-5.1-1.6-8.2-1.6-8.2l6.2-17.5l12.1-34.1l0.9-2.5c0,0,8.8-4.5,18.5-6.9c2.6-0.6,5.3-1.1,7.8-1.4c8-0.7,15.2,1.2,17.5,9.3
	c0.1,0.5,0.2,1,0.3,1.5c0.4,2.4,0.9,5.5,1.5,9.1c4.4,30.6,10.6,98.1,12.5,105.7C861.4,569.6,944.3,674.4,944.3,674.4z"/>
<path class="st14" d="M843,646.2c-15.8-20.1-30.2-39.1-34.5-46.3c-8.5-14.6-20.7-72.2-25.1-93.8c1.2-4.8,2.1-8,2.6-8.7
	c2.6-3.9,60.7-42,60.7-42s2.4,34.1-9.1,55.8s-21.4,37.7-12.2,61.1c9.2,23.4-10.5,36.9,5.3,50C839.8,629.9,842.4,639.5,843,646.2z"/>
<g>
	<path class="st5" d="M746.6,738.3c1.2,9.7-3,37.1-3,37.1h-19.9c0,0,2.1-5.3-0.5-5.8c-2.6-0.6-5.6,5.8-9.7,5.8c-4.1,0-44.5,0-44.5,0
		s-2.6-13.7,5.9-18.1c7.5-3.9,32.8-8.5,38.6-33.5c0.8-3.2,1.4-6.7,1.9-10.5l31.2-3.8c0,0-1.5,6.8-2.2,14.3
		C744,727.7,746.2,734.8,746.6,738.3z"/>
	<path class="st6" d="M715.4,713.1l31.2-3.8c0,0-1.5,6.8-2.2,14.3h-30.9C714.3,720.3,714.9,716.8,715.4,713.1z"/>
</g>
<path class="st13" d="M773.7,429.5c0,0-44.8,105.1-57.8,148.7c-13.1,43.5-33,137.5-33,137.5h68.4c0,0,26.7-127.5,38.6-148.1
	c11.8-20.5,56-95.2,49.1-121.9C832.2,418.9,773.7,429.5,773.7,429.5z"/>
<path class="st14" d="M846.7,455.4l-20.8,53.9l-67.3-42.7l41.5-20.2l19.4-9.5l5.4-2.7l2.4,1.3l17.5,9.3c0.1,0.5,0.2,1,0.3,1.5
	C845.7,448.7,846.2,451.8,846.7,455.4z"/>
<path class="st9" d="M811.6,287.7c0,0-16.2,6.8-29.9,25.5s-29.9,53.4-31.1,60c-1.2,6.6,10.7,59,10.6,72.5c0,13.5,63.7,8.5,81.7-0.2
	c0,0-7.1-49.6-7.1-56.4s0.6-52.9-3.1-74C829.1,293.9,811.6,287.7,811.6,287.7z"/>
<path class="st15" d="M807.8,336.5c0,0-2.6,17,0,29.8s-17.4,5-24.4,31.1c-6.9,26.1,52.4,13.4,52.4,13.4s16.3-25.1,16.5-29.4
	C852.4,377.2,807.8,336.5,807.8,336.5z"/>
<path class="st12" d="M811.6,287.7c0,0-31.3,32.1-28.5,23.7c1.5-4.7-1.1-15.8-3.8-24.9c-2.2-7.4-4.4-13.4-4.4-13.4s6-6.1,12.3-11.3
	c6.7-5.5,13.6-10,14.1-5.2C802.2,266.1,811.6,287.7,811.6,287.7z"/>
<path class="st16" d="M730.7,352.4l-35.2,75.9l130.9,60.8l35.2-75.9L730.7,352.4z"/>
<path class="st17" d="M735,364l-27.9,60l115.1,53.4l27.9-60L735,364z"/>
<path class="st16" d="M718.9,430.6l47.2-33.2l5.1,57.5L718.9,430.6z"/>
<path class="st16" d="M768.8,453.9l36.5-25.7l4,44.5L768.8,453.9z"/>
<path class="st16" d="M797.2,411.2c2.1-4.2,0.5-9.4-3.8-11.5c-4.2-2.1-9.4-0.5-11.5,3.8c-2.1,4.2-0.5,9.4,3.8,11.5
	C789.9,417.2,795,415.5,797.2,411.2z"/>
<path class="st12" d="M771,441.6c0,0-6.1,0.9-10.4,2c-4.3,1.1-12.8,0.5-13.8,2.5s9.5,3.7,12.1,3.9c2.6,0.2-4,3.8-7.7,4.9
	c-3.7,1-6.6,2.5-2.8,5.9s9.7,8.6,12.2,9s14.5-8.7,21.1-15.5S771,441.6,771,441.6z"/>
<path class="st9" d="M812.3,299.2c-11.7,9-7.2,32-1.2,47c5.9,14.9,22.7,42.3,21.5,44.8s-63.5,49.7-63.5,49.7l12.8,16.1
	c0,0,59.1-29.7,73.7-40.3c14.6-10.6,15.8-22.1,11.5-37C862.6,364.5,837.5,279.9,812.3,299.2z"/>
<g>
	<path class="st11" d="M996.4,359.5c-1,1.3-2.2,2.3-3.5,3c10.4-12.3,2.8-28.7-23.9-28.4c-26.6,0.3-33.8-22.7-18.1-60.8
		s-24-41.1-40.8-32.5c-16.8,8.5-33.9,0.7-33.2-17.8c0.5-12.4-3.2-18.9-5.7-21.9c5.4,5.9,7.5,14.1,10.9,20.3
		c5.6,10.3,14.9,9.6,29.4,5.1c14.5-4.4,43.6-2.4,49.9,21.8s-10.5,52.4,19.6,59.4C1011.3,314.7,1005.7,347.4,996.4,359.5z"/>
</g>
<path class="st6" d="M796.1,260.3c0,0-4.7,17.2-16.8,26.2c-2.2-7.4-4.4-13.5-4.4-13.5s6-6.1,12.3-11.3L796.1,260.3z"/>
<path class="st12" d="M775.9,215.8c0,0-8.4,20.8-16.3,24.9c-7.9,4-2.6,5,0,9.5c2.7,4.5-7.5,18.5,1.2,24.9s28.9-4,35.3-14.8
	c0,0,11,0.5,13.7-7.9c2.6-8.4-5.9-13.7-10.9-10s-5.6-4-7.8-15.7C788.9,215.1,776.9,213.4,775.9,215.8z"/>
<g>
	<path class="st18" d="M302.4,713.9c-11-21-24.3-36.1-46-53.1c-21.6-17-50-17.1-61.5-22.5c-11.6-5.5-11.9,9.7-8.3,23.9
		c3.6,14.2-7.3,79.9,58.4,100.7C310.8,783.8,310.6,729.4,302.4,713.9z"/>
	<path class="st19" d="M260.9,728.1c-0.5,0-0.9-0.4-1-0.9c-3.2-23.2,8.4-46.2,8.5-46.4c0.2-0.5,0.8-0.7,1.3-0.4
		c0.5,0.2,0.7,0.8,0.4,1.3c-0.1,0.2-11.3,22.6-8.3,45.2c0.1,0.5-0.3,1-0.8,1.1C261,728.1,261,728.1,260.9,728.1z"/>
	<path class="st19" d="M261.1,730.7c-0.2,0-0.3,0-0.5-0.1c-19.6-10.3-53.6-6.6-54-6.6c-0.5,0.1-1-0.3-1.1-0.9
		c-0.1-0.5,0.3-1,0.9-1.1c1.4-0.2,35-3.8,55.1,6.8c0.5,0.2,0.7,0.9,0.4,1.3C261.8,730.5,261.4,730.7,261.1,730.7z"/>
	<path class="st19" d="M267.2,749.6c-0.4,0-0.9-0.3-1-0.8c-14.1-58.3-70-99.5-70.6-99.9c-0.4-0.3-0.5-0.9-0.2-1.4s0.9-0.5,1.4-0.2
		c0.6,0.4,57.1,42,71.4,101c0.1,0.5-0.2,1.1-0.7,1.2C267.4,749.5,267.3,749.6,267.2,749.6z"/>
	<path class="st19" d="M240.8,694.9c-0.2,0-0.4-0.1-0.6-0.2c-12.8-10.2-43.6-7.6-43.9-7.5c-0.6,0.1-1-0.4-1.1-0.9s0.3-1,0.9-1.1
		c1.3-0.1,32-2.8,45.3,7.9c0.4,0.3,0.5,1,0.2,1.4C241.4,694.8,241.1,694.9,240.8,694.9z"/>
	<path class="st19" d="M230.6,681.9c-0.4,0-0.7-0.2-0.9-0.6c-4-9.5-1.9-25.6-1.8-26.3c0.1-0.5,0.6-0.9,1.1-0.8
		c0.5,0.1,0.9,0.6,0.8,1.1c0,0.2-2.1,16.2,1.7,25.3c0.2,0.5,0,1.1-0.5,1.3C230.8,681.9,230.7,681.9,230.6,681.9z"/>
	<path class="st2" d="M130.6,774.8c-1.9-19.7,16-49.3,73.2-30.1c0,0,14.5-45.2,54.2-43.7c39.8,1.5,52.4,38.7,52.4,38.7
		s53.4-6.5,61.1,38.7C371.5,778.5,133.3,803.2,130.6,774.8z"/>
	<path class="st3" d="M249.3,778.2l-1.9-0.3c5.2-32-14.7-55-14.9-55.2l1.5-1.3C234.2,721.6,254.6,745.3,249.3,778.2z"/>
	<path class="st3" d="M250,758.6l-1.5-1.3c0.2-0.2,18.3-21.9,21.4-35.5l1.9,0.4C268.6,736.3,250.7,757.7,250,758.6z"/>
	<path class="st3" d="M249.7,769.7c-14.2-0.8-26.7-15.4-27.2-16l1.5-1.3c0.1,0.2,12.5,14.6,25.8,15.3L249.7,769.7z"/>
	<path class="st3" d="M294.4,779l-1.3-1.5c1-0.9,25.2-21.7,37.8-22l0.1,2C319.1,757.8,294.6,778.8,294.4,779z"/>
	<path class="st3" d="M341.7,774.9c-0.2,0-19.5-1.2-35.1-5.2l0.5-1.9c15.4,4,34.5,5.1,34.7,5.2L341.7,774.9z"/>
	<path class="st3" d="M198,777.8c-12.7-10.6-39.6-19.1-39.9-19.2l0.6-1.9c1.1,0.3,27.5,8.7,40.6,19.5L198,777.8z"/>
	<path class="st3" d="M188.1,769.6l-2-0.1c0.3-10.8-4.4-19.2-4.4-19.3l1.7-1C183.6,749.7,188.4,758.3,188.1,769.6z"/>
</g>
<path class="st15" d="M810.3,283.7c0,0-10.7,12.1-27.4,18.8l-2.2,12.4c0,0,15.6-4.8,31-27.1L810.3,283.7z"/>
<g>
	<g>
		<path class="st17" d="M370.7,195.7c0-0.4-0.1-0.7-0.2-1c-0.2-0.3-0.5-0.5-0.9-0.8c-0.4-0.2-1.1-0.5-1.9-0.8
			c-1-0.3-1.8-0.7-2.6-1.1c-0.8-0.4-1.4-0.9-1.9-1.5s-0.7-1.4-0.7-2.3c0-0.9,0.2-1.6,0.7-2.3s1.2-1.2,2.1-1.5c0.9-0.4,1.9-0.5,3-0.5
			c1.2,0,2.2,0.2,3,0.6c0.9,0.4,1.5,1,2,1.7s0.7,1.6,0.7,2.5h-3.2c0-0.5-0.1-0.9-0.3-1.2c-0.2-0.3-0.5-0.6-0.9-0.8s-0.9-0.3-1.4-0.3
			c-0.6,0-1,0.1-1.4,0.3s-0.7,0.4-0.8,0.7c-0.2,0.3-0.3,0.6-0.3,1s0.1,0.7,0.4,0.9c0.2,0.3,0.6,0.5,1,0.7s1,0.4,1.7,0.6
			c1.1,0.3,2.1,0.7,2.9,1.2c0.8,0.5,1.4,1,1.7,1.6c0.4,0.6,0.6,1.4,0.6,2.2c0,0.9-0.2,1.7-0.7,2.3s-1.1,1.1-2,1.5s-1.8,0.5-3,0.5
			c-0.8,0-1.5-0.1-2.3-0.3c-0.8-0.2-1.4-0.5-2-0.9s-1.1-0.9-1.5-1.6s-0.5-1.4-0.5-2.3h3.2c0,0.5,0.1,0.9,0.2,1.2
			c0.2,0.3,0.4,0.6,0.6,0.8c0.3,0.2,0.6,0.4,1,0.5s0.8,0.1,1.3,0.1c0.6,0,1-0.1,1.4-0.2c0.4-0.2,0.6-0.4,0.8-0.7
			C370.6,196.4,370.7,196.1,370.7,195.7z"/>
		<path class="st17" d="M375.4,194.1v-0.2c0-1.1,0.2-2.1,0.6-3c0.4-0.9,1.1-1.6,1.9-2.1s1.8-0.8,3-0.8c1.2,0,2.2,0.3,3,0.8
			c0.8,0.5,1.5,1.2,1.9,2.1s0.6,1.9,0.6,3v0.2c0,1.1-0.2,2.1-0.6,3c-0.4,0.9-1.1,1.6-1.9,2.1s-1.8,0.8-3,0.8c-1.2,0-2.2-0.3-3-0.8
			c-0.8-0.5-1.4-1.2-1.9-2.1S375.4,195.2,375.4,194.1z M378.5,193.9v0.2c0,0.6,0.1,1.2,0.2,1.8c0.2,0.5,0.4,1,0.8,1.3
			c0.4,0.3,0.8,0.5,1.4,0.5s1-0.2,1.4-0.5s0.6-0.7,0.8-1.3c0.2-0.5,0.2-1.1,0.2-1.8v-0.2c0-0.6-0.1-1.2-0.2-1.7
			c-0.2-0.5-0.4-1-0.8-1.3s-0.8-0.5-1.4-0.5c-0.6,0-1,0.2-1.4,0.5s-0.6,0.7-0.8,1.3C378.6,192.7,378.5,193.2,378.5,193.9z"/>
		<path class="st17" d="M391.6,183.3v16.5h-3.1v-16.5H391.6z"/>
		<path class="st17" d="M394.1,185.1c0-0.5,0.2-0.8,0.5-1.1s0.7-0.4,1.3-0.4c0.5,0,0.9,0.1,1.3,0.4c0.3,0.3,0.5,0.7,0.5,1.1
			s-0.2,0.8-0.5,1.1s-0.7,0.4-1.3,0.4c-0.5,0-1-0.1-1.3-0.4C394.3,186,394.1,185.6,394.1,185.1z M397.4,188.2v11.6h-3.1v-11.6H397.4
			z"/>
		<path class="st17" d="M399.5,194.1v-0.2c0-1.2,0.2-2.2,0.5-3.1c0.4-0.9,0.9-1.6,1.5-2.1c0.7-0.5,1.5-0.7,2.5-0.7
			c0.9,0,1.7,0.3,2.3,0.8s1.1,1.2,1.4,2.1c0.4,0.9,0.6,1.9,0.7,3v0.5c-0.1,1.1-0.4,2-0.7,2.9c-0.4,0.9-0.8,1.5-1.5,2.1
			s-1.4,0.8-2.3,0.8c-1,0-1.8-0.3-2.5-0.8s-1.2-1.2-1.5-2.1C399.7,196.3,399.5,195.2,399.5,194.1z M402.6,193.9v0.2
			c0,0.6,0.1,1.2,0.2,1.7s0.4,0.9,0.7,1.2s0.8,0.5,1.3,0.5s1-0.1,1.3-0.4c0.3-0.2,0.6-0.6,0.8-1s0.3-0.9,0.3-1.5v-1.4
			c0-0.5-0.1-0.9-0.2-1.2c-0.1-0.4-0.3-0.7-0.5-0.9c-0.2-0.3-0.4-0.5-0.7-0.6s-0.6-0.2-1-0.2c-0.5,0-1,0.2-1.3,0.5s-0.6,0.7-0.7,1.3
			C402.7,192.6,402.6,193.2,402.6,193.9z M406.9,197.3v-14h3.1v16.5h-2.8L406.9,197.3z"/>
		<path class="st17" d="M421.3,184.2v15.6h-3.2v-15.6H421.3z M428.3,184.2v2.5h-7.9v-2.5H428.3z M427.6,190.8v2.5h-7.1v-2.5H427.6z"
			/>
		<path class="st17" d="M429.5,194.1v-0.2c0-1.1,0.2-2.1,0.6-3s1.1-1.6,1.9-2.1s1.8-0.8,3-0.8s2.2,0.3,3,0.8s1.5,1.2,1.9,2.1
			s0.6,1.9,0.6,3v0.2c0,1.1-0.2,2.1-0.6,3s-1.1,1.6-1.9,2.1s-1.8,0.8-3,0.8s-2.2-0.3-3-0.8s-1.4-1.2-1.9-2.1
			S429.5,195.2,429.5,194.1z M432.6,193.9v0.2c0,0.6,0.1,1.2,0.2,1.8c0.2,0.5,0.4,1,0.8,1.3s0.8,0.5,1.4,0.5s1-0.2,1.4-0.5
			s0.6-0.7,0.8-1.3c0.2-0.5,0.2-1.1,0.2-1.8v-0.2c0-0.6-0.1-1.2-0.2-1.7c-0.2-0.5-0.4-1-0.8-1.3s-0.8-0.5-1.4-0.5s-1,0.2-1.4,0.5
			s-0.6,0.7-0.8,1.3C432.7,192.7,432.6,193.2,432.6,193.9z"/>
		<path class="st17" d="M449.6,194.6h0.9c0,1-0.2,2-0.5,2.8s-0.8,1.5-1.4,1.9c-0.6,0.5-1.5,0.7-2.4,0.7c-1.1,0-2.1-0.3-2.8-1
			s-1.1-1.8-1.1-3.3v-7.5h3.1v7.5c0,0.5,0.1,0.8,0.2,1.1s0.3,0.5,0.6,0.6s0.5,0.2,0.9,0.2c0.6,0,1.1-0.1,1.5-0.4
			c0.4-0.3,0.6-0.6,0.8-1.1C449.6,195.7,449.6,195.2,449.6,194.6z M449.3,197v-8.8h3.1v11.6h-2.9L449.3,197z"/>
		<path class="st17" d="M457.8,190.7v9.1h-3.1v-11.6h2.9L457.8,190.7z M457.3,193.6h-0.8c0-1.1,0.2-2.1,0.6-3
			c0.4-0.8,0.9-1.5,1.6-1.9c0.7-0.5,1.5-0.7,2.4-0.7c0.7,0,1.4,0.1,1.9,0.4c0.6,0.3,1,0.7,1.3,1.4c0.3,0.6,0.5,1.5,0.5,2.6v7.4h-3.1
			v-7.4c0-0.5-0.1-0.9-0.2-1.2s-0.4-0.5-0.6-0.6c-0.3-0.1-0.6-0.2-1-0.2s-0.8,0.1-1.1,0.2c-0.3,0.2-0.6,0.4-0.8,0.7s-0.3,0.6-0.4,1
			C457.4,192.7,457.3,193.1,457.3,193.6z"/>
		<path class="st17" d="M466.6,194.1v-0.2c0-1.2,0.2-2.2,0.5-3.1c0.4-0.9,0.9-1.6,1.5-2.1c0.7-0.5,1.5-0.7,2.5-0.7
			c0.9,0,1.7,0.3,2.3,0.8s1.1,1.2,1.4,2.1c0.4,0.9,0.6,1.9,0.7,3v0.5c-0.1,1.1-0.4,2-0.7,2.9c-0.4,0.9-0.8,1.5-1.5,2.1
			s-1.4,0.8-2.3,0.8c-1,0-1.8-0.3-2.5-0.8s-1.2-1.2-1.5-2.1C466.8,196.3,466.6,195.2,466.6,194.1z M469.7,193.9v0.2
			c0,0.6,0.1,1.2,0.2,1.7s0.4,0.9,0.7,1.2s0.8,0.5,1.3,0.5s1-0.1,1.3-0.4c0.3-0.2,0.6-0.6,0.8-1s0.3-0.9,0.3-1.5v-1.4
			c0-0.5-0.1-0.9-0.2-1.2c-0.1-0.4-0.3-0.7-0.5-0.9c-0.2-0.3-0.4-0.5-0.7-0.6s-0.6-0.2-1-0.2c-0.5,0-1,0.2-1.3,0.5s-0.6,0.7-0.7,1.3
			C469.7,192.6,469.7,193.2,469.7,193.9z M473.9,197.3v-14h3.1v16.5h-2.8L473.9,197.3z"/>
		<path class="st17" d="M486.1,192.7v1.8h-1.7c-0.8,0-1.4,0.2-1.8,0.5s-0.6,0.8-0.6,1.3c0,0.4,0.1,0.7,0.4,1s0.6,0.4,1.1,0.4
			s0.9-0.1,1.2-0.3s0.6-0.4,0.8-0.7s0.3-0.5,0.3-0.8l0.8,1.3c-0.1,0.3-0.3,0.6-0.5,0.9c-0.2,0.3-0.4,0.6-0.7,0.9
			c-0.3,0.3-0.7,0.5-1.1,0.7s-0.9,0.3-1.5,0.3c-0.7,0-1.4-0.1-2-0.4c-0.6-0.3-1.1-0.7-1.4-1.2s-0.5-1.1-0.5-1.8
			c0-1.2,0.5-2.1,1.4-2.8s2.2-1,4-1L486.1,192.7L486.1,192.7z M485.7,197.2V192c0-0.6-0.1-1-0.4-1.3s-0.7-0.5-1.3-0.5
			c-0.3,0-0.6,0.1-0.9,0.2c-0.3,0.1-0.4,0.3-0.6,0.5c-0.1,0.2-0.2,0.5-0.2,0.8h-3.1c0-0.7,0.2-1.3,0.6-1.8c0.4-0.6,1-1,1.7-1.3
			s1.6-0.5,2.6-0.5c0.9,0,1.7,0.2,2.4,0.5s1.3,0.8,1.7,1.4c0.4,0.6,0.6,1.4,0.6,2.3v5c0,0.6,0,1.2,0.1,1.6c0.1,0.4,0.2,0.8,0.3,1.1
			v0.2h-3.1c-0.2-0.3-0.3-0.7-0.3-1.2C485.8,198.1,485.7,197.7,485.7,197.2z"/>
		<path class="st17" d="M496.9,188.2v2.2h-6.8v-2.2H496.9z M491.8,185.3h3.1v11c0,0.3,0,0.6,0.1,0.8s0.2,0.3,0.4,0.4
			c0.2,0.1,0.4,0.1,0.7,0.1c0.2,0,0.4,0,0.5,0c0.2,0,0.3,0,0.4-0.1v2.3c-0.3,0.1-0.6,0.2-0.9,0.2s-0.6,0.1-1,0.1
			c-0.7,0-1.3-0.1-1.8-0.3s-0.9-0.6-1.2-1.1s-0.4-1.2-0.4-2L491.8,185.3L491.8,185.3z"/>
		<path class="st17" d="M498.6,185.1c0-0.5,0.2-0.8,0.5-1.1s0.7-0.4,1.3-0.4c0.5,0,0.9,0.1,1.3,0.4c0.3,0.3,0.5,0.7,0.5,1.1
			s-0.2,0.8-0.5,1.1s-0.7,0.4-1.3,0.4c-0.5,0-1-0.1-1.3-0.4C498.8,186,498.6,185.6,498.6,185.1z M501.9,188.2v11.6h-3.1v-11.6H501.9
			z"/>
		<path class="st17" d="M504,194.1v-0.2c0-1.1,0.2-2.1,0.6-3s1.1-1.6,1.9-2.1s1.8-0.8,3-0.8s2.2,0.3,3,0.8c0.8,0.5,1.5,1.2,1.9,2.1
			c0.4,0.9,0.6,1.9,0.6,3v0.2c0,1.1-0.2,2.1-0.6,3c-0.4,0.9-1.1,1.6-1.9,2.1c-0.8,0.5-1.8,0.8-3,0.8s-2.2-0.3-3-0.8
			s-1.4-1.2-1.9-2.1S504,195.2,504,194.1z M507.1,193.9v0.2c0,0.6,0.1,1.2,0.2,1.8c0.2,0.5,0.4,1,0.8,1.3s0.8,0.5,1.4,0.5
			s1-0.2,1.4-0.5s0.6-0.7,0.8-1.3c0.2-0.5,0.2-1.1,0.2-1.8v-0.2c0-0.6-0.1-1.2-0.2-1.7c-0.2-0.5-0.4-1-0.8-1.3s-0.8-0.5-1.4-0.5
			s-1,0.2-1.4,0.5s-0.6,0.7-0.8,1.3C507.2,192.7,507.1,193.2,507.1,193.9z"/>
		<path class="st17" d="M519.9,190.7v9.1h-3.1v-11.6h2.9L519.9,190.7z M519.5,193.6h-0.8c0-1.1,0.2-2.1,0.6-3
			c0.4-0.8,0.9-1.5,1.6-1.9c0.7-0.5,1.5-0.7,2.4-0.7c0.7,0,1.4,0.1,1.9,0.4c0.6,0.3,1,0.7,1.3,1.4c0.3,0.6,0.5,1.5,0.5,2.6v7.4h-3.1
			v-7.4c0-0.5-0.1-0.9-0.2-1.2c-0.1-0.3-0.4-0.5-0.6-0.6c-0.3-0.1-0.6-0.2-1-0.2c-0.4,0-0.8,0.1-1.1,0.2c-0.3,0.2-0.6,0.4-0.8,0.7
			c-0.2,0.3-0.3,0.6-0.4,1C519.5,192.7,519.5,193.1,519.5,193.6z"/>
	</g>
</g>
<path class="st7" d="M407.1,390.8h143.3l43.4-28.6l-12.2,28.6h23.3v45H407.1V390.8z"/>
<path class="st7" d="M397.4,85.4h333.9v45H708l12.2,28.6l-43.4-28.6H397.4V85.4z"/>
<path class="st7" d="M272.9,328.3h93.4l43.4-28.6l-12.2,28.6h23.3v45h-148v-45H272.9z"/>
<g>
	<g>
		<path class="st17" d="M445.4,402.9v15.6h-3.2v-15.6H445.4z M447,418.5h-3.4V416h3.4c0.8,0,1.6-0.2,2.1-0.6c0.6-0.4,1-0.9,1.3-1.7
			c0.3-0.7,0.4-1.6,0.4-2.7v-0.8c0-1.1-0.2-2-0.5-2.7s-0.7-1.3-1.3-1.7c-0.6-0.4-1.3-0.6-2.1-0.6h-3.5v-2.5h3.5
			c1.4,0,2.6,0.3,3.7,0.9s1.9,1.5,2.5,2.6s0.9,2.4,0.9,3.9v0.7c0,1.5-0.3,2.8-0.9,3.9s-1.4,2-2.5,2.6
			C449.6,418.2,448.4,418.5,447,418.5z"/>
		<path class="st17" d="M461.6,418.7c-1.2,0-2.2-0.3-3.1-0.8s-1.5-1.2-2-2s-0.7-1.8-0.7-2.8v-0.4c0-1.2,0.2-2.2,0.7-3.1
			c0.4-0.9,1.1-1.6,1.9-2.1s1.8-0.8,2.9-0.8s2,0.2,2.8,0.7s1.3,1.1,1.7,2s0.6,1.8,0.6,3v1.3h-9.2v-2.1h6.2v-0.2
			c0-0.4-0.1-0.8-0.2-1.2c-0.2-0.3-0.4-0.6-0.7-0.8c-0.3-0.2-0.7-0.3-1.2-0.3s-1,0.2-1.3,0.5s-0.6,0.7-0.7,1.3
			c-0.2,0.5-0.2,1.2-0.2,1.8v0.4c0,0.6,0.1,1.2,0.3,1.7s0.6,0.9,1,1.1c0.4,0.3,0.9,0.4,1.5,0.4s1.1-0.1,1.6-0.3
			c0.5-0.2,0.9-0.5,1.3-1l1.5,1.6c-0.4,0.5-0.9,1-1.7,1.5C463.7,418.5,462.8,418.7,461.6,418.7z"/>
		<path class="st17" d="M470.3,406.9l2.6,9.4l0.1,2.2h-2l-3.9-11.6H470.3z M472.1,416.3l2.6-9.4h3.2l-3.9,11.6h-2L472.1,416.3z"/>
		<path class="st17" d="M484.7,418.7c-1.2,0-2.2-0.3-3.1-0.8s-1.5-1.2-2-2s-0.7-1.8-0.7-2.8v-0.4c0-1.2,0.2-2.2,0.7-3.1
			c0.4-0.9,1.1-1.6,1.9-2.1s1.8-0.8,2.9-0.8s2,0.2,2.8,0.7s1.3,1.1,1.7,2s0.6,1.8,0.6,3v1.3h-9.2v-2.1h6.2v-0.2
			c0-0.4-0.1-0.8-0.2-1.2c-0.2-0.3-0.4-0.6-0.7-0.8c-0.3-0.2-0.7-0.3-1.2-0.3s-1,0.2-1.3,0.5s-0.6,0.7-0.7,1.3
			c-0.2,0.5-0.2,1.2-0.2,1.8v0.4c0,0.6,0.1,1.2,0.3,1.7s0.6,0.9,1,1.1c0.4,0.3,0.9,0.4,1.5,0.4s1.1-0.1,1.6-0.3
			c0.5-0.2,0.9-0.5,1.3-1l1.5,1.6c-0.4,0.5-0.9,1-1.7,1.5C486.7,418.5,485.8,418.7,484.7,418.7z"/>
		<path class="st17" d="M494.5,402v16.5h-3.2V402H494.5z"/>
		<path class="st17" d="M496.5,412.8v-0.2c0-1.1,0.2-2.1,0.6-3s1.1-1.6,1.9-2.1s1.8-0.8,3-0.8s2.2,0.3,3,0.8s1.5,1.2,1.9,2.1
			s0.6,1.9,0.6,3v0.2c0,1.1-0.2,2.1-0.6,3s-1.1,1.6-1.9,2.1s-1.8,0.8-3,0.8s-2.2-0.3-3-0.8s-1.4-1.2-1.9-2.1S496.5,414,496.5,412.8z
			 M499.6,412.6v0.2c0,0.6,0.1,1.2,0.2,1.8c0.2,0.5,0.4,1,0.8,1.3s0.8,0.5,1.4,0.5s1-0.2,1.4-0.5s0.6-0.7,0.8-1.3
			c0.2-0.5,0.2-1.1,0.2-1.8v-0.2c0-0.6-0.1-1.2-0.2-1.7c-0.2-0.5-0.4-1-0.8-1.3s-0.8-0.5-1.4-0.5s-1,0.2-1.4,0.5s-0.6,0.7-0.8,1.3
			C499.7,411.4,499.6,412,499.6,412.6z"/>
		<path class="st17" d="M512.5,409.1V423h-3.1v-16.1h2.9L512.5,409.1z M519.9,412.6v0.2c0,1.1-0.2,2.1-0.5,3s-0.9,1.6-1.5,2.1
			c-0.7,0.5-1.5,0.8-2.5,0.8s-1.7-0.3-2.3-0.8s-1.1-1.2-1.4-2c-0.3-0.9-0.6-1.8-0.7-2.9v-0.6c0.1-1.1,0.4-2.1,0.7-3s0.8-1.6,1.4-2.1
			c0.6-0.5,1.4-0.7,2.3-0.7c1,0,1.8,0.2,2.5,0.7s1.2,1.2,1.5,2.1C519.7,410.4,519.9,411.4,519.9,412.6z M516.8,412.8v-0.2
			c0-0.7-0.1-1.2-0.2-1.8c-0.1-0.5-0.4-0.9-0.7-1.2c-0.3-0.3-0.8-0.5-1.3-0.5c-0.4,0-0.8,0.1-1.1,0.2c-0.3,0.1-0.5,0.3-0.7,0.6
			c-0.2,0.3-0.3,0.6-0.4,0.9c-0.1,0.4-0.2,0.8-0.2,1.2v1.5c0,0.5,0.1,1,0.3,1.4c0.2,0.4,0.4,0.8,0.8,1c0.4,0.2,0.8,0.4,1.4,0.4
			c0.5,0,1-0.2,1.3-0.5s0.6-0.7,0.7-1.3C516.8,413.9,516.8,413.5,516.8,412.8z"/>
		<path class="st17" d="M524.9,409.3v9.2h-3.1v-11.6h2.9L524.9,409.3z M524.5,412.3h-0.9c0-1.1,0.2-2,0.5-2.9c0.3-0.8,0.9-1.5,1.5-2
			c0.7-0.5,1.5-0.7,2.5-0.7s1.9,0.3,2.5,1c0.7,0.6,1,1.7,1,3.1v7.8h-3.1v-7.4c0-0.5-0.1-0.9-0.2-1.2c-0.1-0.3-0.3-0.5-0.6-0.6
			c-0.3-0.1-0.6-0.2-0.9-0.2c-0.4,0-0.8,0.1-1,0.2c-0.3,0.2-0.5,0.4-0.7,0.7s-0.3,0.6-0.4,1C524.5,411.4,524.5,411.9,524.5,412.3z
			 M531.4,412l-1.1,0.1c0-1,0.2-1.9,0.5-2.7c0.3-0.8,0.8-1.5,1.5-1.9s1.5-0.7,2.5-0.7c0.8,0,1.4,0.1,2,0.4c0.6,0.3,1,0.8,1.3,1.4
			s0.5,1.5,0.5,2.6v7.4h-3.1v-7.4c0-0.5-0.1-0.9-0.2-1.2c-0.1-0.3-0.3-0.5-0.6-0.6c-0.3-0.1-0.6-0.2-0.9-0.2c-0.4,0-0.7,0.1-1,0.2
			s-0.5,0.3-0.7,0.6c-0.2,0.3-0.3,0.6-0.4,0.9C531.4,411.2,531.4,411.6,531.4,412z"/>
		<path class="st17" d="M546.2,418.7c-1.2,0-2.2-0.3-3.1-0.8c-0.9-0.5-1.5-1.2-2-2s-0.7-1.8-0.7-2.8v-0.4c0-1.2,0.2-2.2,0.7-3.1
			c0.4-0.9,1.1-1.6,1.9-2.1s1.8-0.8,2.9-0.8c1.1,0,2,0.2,2.8,0.7s1.3,1.1,1.7,2s0.6,1.8,0.6,3v1.3h-9.2v-2.1h6.2v-0.2
			c0-0.4-0.1-0.8-0.2-1.2c-0.2-0.3-0.4-0.6-0.7-0.8c-0.3-0.2-0.7-0.3-1.2-0.3s-1,0.2-1.3,0.5s-0.6,0.7-0.7,1.3
			c-0.2,0.5-0.2,1.2-0.2,1.8v0.4c0,0.6,0.1,1.2,0.3,1.7c0.2,0.5,0.6,0.9,1,1.1c0.4,0.3,0.9,0.4,1.5,0.4c0.6,0,1.1-0.1,1.6-0.3
			c0.5-0.2,0.9-0.5,1.3-1l1.5,1.6c-0.4,0.5-0.9,1-1.7,1.5C548.3,418.5,547.3,418.7,546.2,418.7z"/>
		<path class="st17" d="M555.8,409.4v9.1h-3.1v-11.6h2.9L555.8,409.4z M555.3,412.3h-0.8c0-1.1,0.2-2.1,0.6-3
			c0.4-0.8,0.9-1.5,1.6-1.9s1.5-0.7,2.4-0.7c0.7,0,1.4,0.1,1.9,0.4c0.6,0.3,1,0.7,1.3,1.4c0.3,0.6,0.5,1.5,0.5,2.6v7.4h-3.1v-7.4
			c0-0.5-0.1-0.9-0.2-1.2c-0.1-0.3-0.4-0.5-0.6-0.6s-0.6-0.2-1-0.2c-0.4,0-0.8,0.1-1.1,0.2c-0.3,0.1-0.6,0.4-0.8,0.7
			c-0.2,0.3-0.3,0.6-0.4,1C555.4,411.4,555.3,411.9,555.3,412.3z"/>
		<path class="st17" d="M570.8,406.9v2.2H564v-2.2H570.8z M565.7,404h3.1v11c0,0.3,0,0.6,0.1,0.8c0.1,0.2,0.2,0.3,0.4,0.4
			c0.2,0.1,0.4,0.1,0.7,0.1c0.2,0,0.4,0,0.5,0c0.2,0,0.3,0,0.4-0.1v2.3c-0.3,0.1-0.6,0.2-0.9,0.2s-0.6,0.1-1,0.1
			c-0.7,0-1.3-0.1-1.8-0.3s-0.9-0.6-1.2-1.1c-0.3-0.5-0.4-1.2-0.4-2L565.7,404L565.7,404z"/>
	</g>
</g>
<g>
	<g>
		<path class="st17" d="M298.6,340.2h2.7l0.5,11.2v4.4h-3.2V340.2z M300.1,340.2h2.7l4,11.5l4-11.5h2.7l-5.7,15.6h-2.2L300.1,340.2z
			 M312.3,340.2h2.7v15.6h-3.2v-4.4L312.3,340.2z"/>
		<path class="st17" d="M323,356.1c-1.2,0-2.2-0.3-3.1-0.8s-1.5-1.2-2-2c-0.5-0.9-0.7-1.8-0.7-2.8V350c0-1.2,0.2-2.2,0.7-3.1
			c0.4-0.9,1.1-1.6,1.9-2.1s1.8-0.8,2.9-0.8s2,0.2,2.8,0.7c0.8,0.5,1.3,1.1,1.7,2s0.6,1.8,0.6,3v1.3h-9.2v-2.1h6.2v-0.2
			c0-0.4-0.1-0.8-0.2-1.2c-0.2-0.3-0.4-0.6-0.7-0.8c-0.3-0.2-0.7-0.3-1.2-0.3s-1,0.2-1.3,0.5c-0.3,0.3-0.6,0.7-0.7,1.3
			c-0.2,0.5-0.2,1.2-0.2,1.8v0.4c0,0.6,0.1,1.2,0.3,1.7c0.2,0.5,0.6,0.9,1,1.1c0.4,0.3,0.9,0.4,1.5,0.4s1.1-0.1,1.6-0.3
			c0.5-0.2,0.9-0.5,1.3-1l1.5,1.6c-0.4,0.5-0.9,1-1.7,1.5C325.1,355.9,324.1,356.1,323,356.1z"/>
		<path class="st17" d="M332.6,346.7v9.1h-3.1v-11.6h2.9L332.6,346.7z M332.1,349.6h-0.8c0-1.1,0.2-2.1,0.6-3
			c0.4-0.8,0.9-1.5,1.6-1.9c0.7-0.5,1.5-0.7,2.4-0.7c0.7,0,1.4,0.1,1.9,0.4c0.6,0.3,1,0.7,1.3,1.4c0.3,0.6,0.5,1.5,0.5,2.6v7.4h-3.1
			v-7.4c0-0.5-0.1-0.9-0.2-1.2c-0.1-0.3-0.4-0.5-0.6-0.6c-0.3-0.1-0.6-0.2-1-0.2s-0.8,0.1-1.1,0.2c-0.3,0.2-0.6,0.4-0.8,0.7
			c-0.2,0.3-0.3,0.6-0.4,1C332.2,348.8,332.1,349.2,332.1,349.6z"/>
		<path class="st17" d="M347.6,344.2v2.2h-6.8v-2.2H347.6z M342.5,341.4h3.1v11c0,0.3,0,0.6,0.1,0.8c0.1,0.2,0.2,0.3,0.4,0.4
			c0.2,0.1,0.4,0.1,0.7,0.1c0.2,0,0.4,0,0.5,0c0.2,0,0.3,0,0.4-0.1v2.3c-0.3,0.1-0.6,0.2-0.9,0.2s-0.6,0.1-1,0.1
			c-0.7,0-1.3-0.1-1.8-0.3s-0.9-0.6-1.2-1.1c-0.3-0.5-0.4-1.2-0.4-2v-11.4H342.5z"/>
		<path class="st17" d="M348.8,350.2V350c0-1.1,0.2-2.1,0.6-3c0.4-0.9,1.1-1.6,1.9-2.1s1.8-0.8,3-0.8c1.2,0,2.2,0.3,3,0.8
			c0.8,0.5,1.5,1.2,1.9,2.1s0.6,1.9,0.6,3v0.2c0,1.1-0.2,2.1-0.6,3c-0.4,0.9-1.1,1.6-1.9,2.1s-1.8,0.8-3,0.8c-1.2,0-2.2-0.3-3-0.8
			c-0.8-0.5-1.4-1.2-1.9-2.1S348.8,351.3,348.8,350.2z M351.9,349.9v0.2c0,0.6,0.1,1.2,0.2,1.8c0.2,0.5,0.4,1,0.8,1.3
			s0.8,0.5,1.4,0.5c0.6,0,1-0.2,1.4-0.5s0.6-0.7,0.8-1.3c0.2-0.5,0.2-1.1,0.2-1.8v-0.2c0-0.6-0.1-1.2-0.2-1.7
			c-0.2-0.5-0.4-1-0.8-1.3c-0.4-0.3-0.8-0.5-1.4-0.5s-1,0.2-1.4,0.5s-0.6,0.7-0.8,1.3C352,348.7,351.9,349.3,351.9,349.9z"/>
		<path class="st17" d="M364.8,346.8v9.1h-3.1v-11.6h2.9L364.8,346.8z M368.3,344.2v2.8c-0.2,0-0.3,0-0.5-0.1c-0.2,0-0.4,0-0.6,0
			c-0.6,0-1.1,0.1-1.4,0.3c-0.4,0.2-0.7,0.5-0.8,0.8c-0.2,0.4-0.3,0.8-0.3,1.3l-0.6-0.2c0-1,0.1-1.9,0.4-2.7
			c0.3-0.8,0.6-1.4,1.2-1.9c0.6-0.5,1.1-0.7,1.9-0.7c0.2,0,0.3,0,0.5,0C368.1,344.1,368.2,344.1,368.3,344.2z"/>
		<path class="st17" d="M369.7,341.2c0-0.5,0.2-0.8,0.5-1.1c0.3-0.3,0.7-0.4,1.3-0.4c0.5,0,0.9,0.1,1.3,0.4c0.3,0.3,0.5,0.7,0.5,1.1
			s-0.2,0.8-0.5,1.1c-0.3,0.3-0.7,0.4-1.3,0.4c-0.5,0-1-0.1-1.3-0.4C369.9,342,369.7,341.7,369.7,341.2z M373,344.2v11.6h-3.1v-11.6
			H373z"/>
		<path class="st17" d="M378.6,346.7v9.1h-3.1v-11.6h2.9L378.6,346.7z M378.2,349.6h-0.9c0-1.1,0.2-2.1,0.6-3
			c0.4-0.8,0.9-1.5,1.6-1.9c0.7-0.5,1.5-0.7,2.4-0.7c0.7,0,1.4,0.1,1.9,0.4c0.6,0.3,1,0.7,1.3,1.4c0.3,0.6,0.5,1.5,0.5,2.6v7.4h-3.1
			v-7.4c0-0.5-0.1-0.9-0.2-1.2c-0.1-0.3-0.4-0.5-0.6-0.6c-0.3-0.1-0.6-0.2-1-0.2s-0.8,0.1-1.1,0.2c-0.3,0.2-0.6,0.4-0.8,0.7
			c-0.2,0.3-0.3,0.6-0.4,1C378.2,348.8,378.2,349.2,378.2,349.6z"/>
		<path class="st17" d="M387.5,350.2V350c0-1.2,0.2-2.2,0.6-3.1c0.4-0.9,0.9-1.6,1.6-2.1s1.5-0.7,2.5-0.7c0.8,0,1.4,0.1,1.9,0.4
			s1,0.7,1.3,1.2s0.6,1.1,0.8,1.9c0.2,0.7,0.3,1.5,0.4,2.3v0.5c-0.1,1.1-0.4,2-0.7,2.9s-0.8,1.5-1.4,2.1c-0.6,0.5-1.4,0.8-2.3,0.8
			c-1,0-1.8-0.3-2.5-0.8s-1.2-1.2-1.6-2.1C387.7,352.3,387.5,351.3,387.5,350.2z M395.3,344.2h2.8v11.2c0,1.1-0.2,2-0.7,2.7
			s-1.1,1.3-2,1.7c-0.8,0.4-1.8,0.6-2.9,0.6c-0.5,0-1-0.1-1.5-0.2s-1.1-0.3-1.5-0.6c-0.5-0.3-0.9-0.6-1.2-1l1.4-1.8
			c0.4,0.4,0.8,0.7,1.2,1c0.5,0.2,1,0.3,1.6,0.3c0.8,0,1.5-0.2,1.9-0.7c0.5-0.5,0.7-1.1,0.7-1.9v-8.6L395.3,344.2z M390.6,350v0.2
			c0,0.6,0.1,1.2,0.3,1.7s0.4,0.9,0.8,1.2c0.3,0.3,0.8,0.5,1.3,0.5c0.6,0,1-0.1,1.4-0.4c0.4-0.2,0.6-0.6,0.8-1s0.3-0.9,0.3-1.5v-1.4
			c0-0.5-0.1-0.9-0.2-1.2c-0.1-0.4-0.3-0.7-0.5-0.9s-0.4-0.5-0.8-0.6c-0.3-0.1-0.7-0.2-1.1-0.2c-0.5,0-1,0.2-1.3,0.5
			s-0.6,0.7-0.8,1.3C390.7,348.7,390.6,349.3,390.6,350z"/>
	</g>
</g>
<g>
	<g>
		<path class="st17" d="M423.3,109.5c0-0.4-0.1-0.7-0.2-1c-0.2-0.3-0.5-0.5-0.9-0.8c-0.4-0.2-1.1-0.5-1.9-0.8
			c-1-0.3-1.8-0.7-2.6-1.1s-1.4-0.9-1.9-1.5s-0.7-1.4-0.7-2.3s0.2-1.6,0.7-2.3s1.2-1.2,2.1-1.5c0.9-0.4,1.9-0.5,3-0.5
			c1.2,0,2.2,0.2,3,0.6c0.9,0.4,1.5,1,2,1.7s0.7,1.6,0.7,2.5h-3.2c0-0.5-0.1-0.9-0.3-1.2c-0.2-0.3-0.5-0.6-0.9-0.8
			c-0.4-0.2-0.9-0.3-1.4-0.3c-0.6,0-1,0.1-1.4,0.3c-0.4,0.2-0.7,0.4-0.8,0.7c-0.2,0.3-0.3,0.6-0.3,1s0.1,0.7,0.4,0.9
			c0.2,0.3,0.6,0.5,1,0.7s1,0.4,1.7,0.6c1.1,0.3,2.1,0.7,2.9,1.2s1.4,1,1.7,1.6c0.4,0.6,0.6,1.4,0.6,2.2c0,0.9-0.2,1.7-0.7,2.3
			c-0.5,0.6-1.1,1.1-2,1.5s-1.8,0.5-3,0.5c-0.8,0-1.5-0.1-2.3-0.3s-1.4-0.5-2-0.9s-1.1-0.9-1.5-1.6s-0.5-1.4-0.5-2.3h3.2
			c0,0.5,0.1,0.9,0.2,1.2c0.2,0.3,0.4,0.6,0.6,0.8c0.3,0.2,0.6,0.4,1,0.5s0.8,0.1,1.3,0.1c0.6,0,1-0.1,1.4-0.2
			c0.4-0.2,0.6-0.4,0.8-0.7S423.3,109.8,423.3,109.5z"/>
		<path class="st17" d="M434.3,101.9v2.2h-6.8v-2.2H434.3z M429.2,99.1h3.1v11c0,0.3,0,0.6,0.1,0.8c0.1,0.2,0.2,0.3,0.4,0.4
			s0.4,0.1,0.7,0.1c0.2,0,0.4,0,0.5,0c0.2,0,0.3,0,0.4-0.1v2.3c-0.3,0.1-0.6,0.2-0.9,0.2s-0.6,0.1-1,0.1c-0.7,0-1.3-0.1-1.8-0.3
			s-0.9-0.6-1.2-1.1s-0.4-1.2-0.4-2L429.2,99.1L429.2,99.1z"/>
		<path class="st17" d="M439.1,104.5v9.1H436V102h2.9L439.1,104.5z M442.6,101.8l-0.1,2.9c-0.2,0-0.3,0-0.5-0.1c-0.2,0-0.4,0-0.6,0
			c-0.6,0-1.1,0.1-1.4,0.3c-0.4,0.2-0.7,0.5-0.8,0.8c-0.2,0.4-0.3,0.8-0.3,1.3l-0.6-0.2c0-1,0.1-1.9,0.4-2.7
			c0.3-0.8,0.6-1.4,1.2-1.9s1.1-0.7,1.9-0.7c0.2,0,0.3,0,0.5,0C442.3,101.8,442.5,101.8,442.6,101.8z"/>
		<path class="st17" d="M449.4,113.8c-1.2,0-2.2-0.3-3.1-0.8s-1.5-1.2-2-2c-0.5-0.9-0.7-1.8-0.7-2.8v-0.4c0-1.2,0.2-2.2,0.7-3.1
			c0.4-0.9,1.1-1.6,1.9-2.1s1.8-0.8,2.9-0.8s2,0.2,2.8,0.7s1.3,1.1,1.7,2s0.6,1.8,0.6,3v1.3H445v-2.1h6.2v-0.2
			c0-0.4-0.1-0.8-0.2-1.2c-0.2-0.3-0.4-0.6-0.7-0.8c-0.3-0.2-0.7-0.3-1.2-0.3s-1,0.2-1.3,0.5s-0.6,0.7-0.7,1.3
			c-0.2,0.5-0.2,1.2-0.2,1.8v0.4c0,0.6,0.1,1.2,0.3,1.7s0.6,0.9,1,1.1c0.4,0.3,0.9,0.4,1.5,0.4s1.1-0.1,1.6-0.3
			c0.5-0.2,0.9-0.5,1.3-1l1.5,1.6c-0.4,0.5-0.9,1-1.7,1.5C451.5,113.5,450.5,113.8,449.4,113.8z"/>
		<path class="st17" d="M459,104.4v9.1h-3.1v-11.6h2.9L459,104.4z M458.5,107.3h-0.8c0-1.1,0.2-2.1,0.6-3c0.4-0.8,0.9-1.5,1.6-1.9
			c0.7-0.5,1.5-0.7,2.4-0.7c0.7,0,1.4,0.1,1.9,0.4c0.6,0.3,1,0.7,1.3,1.4c0.3,0.6,0.5,1.5,0.5,2.6v7.4h-3.1v-7.4
			c0-0.5-0.1-0.9-0.2-1.2c-0.1-0.3-0.4-0.5-0.6-0.6s-0.6-0.2-1-0.2s-0.8,0.1-1.1,0.2c-0.3,0.2-0.6,0.4-0.8,0.7s-0.3,0.6-0.4,1
			C458.6,106.5,458.5,106.9,458.5,107.3z"/>
		<path class="st17" d="M467.8,107.9v-0.2c0-1.2,0.2-2.2,0.6-3.1s0.9-1.6,1.6-2.1s1.5-0.7,2.5-0.7c0.8,0,1.4,0.1,1.9,0.4
			s1,0.7,1.3,1.2s0.6,1.1,0.8,1.9c0.2,0.7,0.3,1.5,0.4,2.3v0.5c-0.1,1.1-0.4,2-0.7,2.9s-0.8,1.5-1.4,2.1c-0.6,0.5-1.4,0.8-2.3,0.8
			c-1,0-1.8-0.3-2.5-0.8s-1.2-1.2-1.6-2.1C468,110,467.8,109,467.8,107.9z M475.6,101.9h2.8v11.2c0,1.1-0.2,2-0.7,2.7
			s-1.1,1.3-2,1.7c-0.8,0.4-1.8,0.6-2.9,0.6c-0.5,0-1-0.1-1.5-0.2s-1.1-0.3-1.5-0.6c-0.5-0.3-0.9-0.6-1.2-1l1.4-1.8
			c0.4,0.4,0.8,0.7,1.2,1c0.5,0.2,1,0.3,1.6,0.3c0.8,0,1.5-0.2,1.9-0.7c0.5-0.5,0.7-1.1,0.7-1.9v-8.6L475.6,101.9z M470.9,107.6v0.2
			c0,0.6,0.1,1.2,0.3,1.7s0.4,0.9,0.8,1.2c0.3,0.3,0.8,0.5,1.3,0.5c0.6,0,1-0.1,1.4-0.4c0.4-0.2,0.6-0.6,0.8-1s0.3-0.9,0.3-1.5v-1.4
			c0-0.5-0.1-0.9-0.2-1.2c-0.1-0.4-0.3-0.7-0.5-0.9s-0.4-0.5-0.8-0.6c-0.3-0.1-0.7-0.2-1.1-0.2c-0.5,0-1,0.2-1.3,0.5
			s-0.6,0.7-0.8,1.3C471,106.4,470.9,107,470.9,107.6z"/>
		<path class="st17" d="M486.5,101.9v2.2h-6.8v-2.2H486.5z M481.4,99.1h3.1v11c0,0.3,0,0.6,0.1,0.8c0.1,0.2,0.2,0.3,0.4,0.4
			s0.4,0.1,0.7,0.1c0.2,0,0.4,0,0.5,0c0.2,0,0.3,0,0.4-0.1v2.3c-0.3,0.1-0.6,0.2-0.9,0.2s-0.6,0.1-1,0.1c-0.7,0-1.3-0.1-1.8-0.3
			s-0.9-0.6-1.2-1.1s-0.4-1.2-0.4-2L481.4,99.1L481.4,99.1z"/>
		<path class="st17" d="M491.3,97v16.5h-3.1V97H491.3z M490.9,107.3h-0.8c0-1.1,0.2-2,0.6-2.9c0.4-0.8,0.9-1.5,1.5-2
			c0.7-0.5,1.4-0.7,2.3-0.7c0.8,0,1.4,0.1,2,0.4s1,0.8,1.3,1.4c0.3,0.7,0.5,1.5,0.5,2.6v7.3h-3.1V106c0-0.5-0.1-0.9-0.2-1.2
			c-0.1-0.3-0.4-0.5-0.6-0.6c-0.3-0.1-0.6-0.2-1-0.2s-0.8,0.1-1.1,0.2c-0.3,0.2-0.6,0.4-0.7,0.7c-0.2,0.3-0.3,0.6-0.4,1
			S490.9,106.9,490.9,107.3z"/>
		<path class="st17" d="M506,113.8c-1.2,0-2.2-0.3-3.1-0.8s-1.5-1.2-2-2c-0.5-0.9-0.7-1.8-0.7-2.8v-0.4c0-1.2,0.2-2.2,0.7-3.1
			c0.4-0.9,1.1-1.6,1.9-2.1s1.8-0.8,2.9-0.8s2,0.2,2.8,0.7s1.3,1.1,1.7,2s0.6,1.8,0.6,3v1.3h-9.2v-2.1h6.2v-0.2
			c0-0.4-0.1-0.8-0.2-1.2c-0.2-0.3-0.4-0.6-0.7-0.8c-0.3-0.2-0.7-0.3-1.2-0.3s-1,0.2-1.3,0.5s-0.6,0.7-0.7,1.3
			c-0.2,0.5-0.2,1.2-0.2,1.8v0.4c0,0.6,0.1,1.2,0.3,1.7s0.6,0.9,1,1.1c0.4,0.3,0.9,0.4,1.5,0.4s1.1-0.1,1.6-0.3
			c0.5-0.2,0.9-0.5,1.3-1l1.5,1.6c-0.4,0.5-0.9,1-1.7,1.5C508,113.5,507.1,113.8,506,113.8z"/>
		<path class="st17" d="M515.5,104.4v9.1h-3.1v-11.6h2.9L515.5,104.4z M515.1,107.3h-0.8c0-1.1,0.2-2.1,0.6-3
			c0.4-0.8,0.9-1.5,1.6-1.9c0.7-0.5,1.5-0.7,2.4-0.7c0.7,0,1.4,0.1,1.9,0.4c0.6,0.3,1,0.7,1.3,1.4c0.3,0.6,0.5,1.5,0.5,2.6v7.4h-3.3
			v-7.4c0-0.5-0.1-0.9-0.2-1.2c-0.1-0.3-0.4-0.5-0.6-0.6s-0.6-0.2-1-0.2c-0.4,0-0.8,0.1-1.1,0.2c-0.3,0.2-0.6,0.4-0.8,0.7
			c-0.2,0.3-0.3,0.6-0.4,1C515.1,106.5,515.1,106.9,515.1,107.3z"/>
		<path class="st17" d="M524.8,98.9c0-0.5,0.2-0.8,0.5-1.1c0.3-0.3,0.7-0.4,1.3-0.4c0.5,0,0.9,0.1,1.3,0.4c0.3,0.3,0.5,0.7,0.5,1.1
			s-0.2,0.8-0.5,1.1c-0.3,0.3-0.7,0.4-1.3,0.4c-0.5,0-1-0.1-1.3-0.4C524.9,99.7,524.8,99.3,524.8,98.9z M528.1,101.9v11.6H525v-11.6
			H528.1z"/>
		<path class="st17" d="M533.7,104.4v9.1h-3.1v-11.6h2.9L533.7,104.4z M533.2,107.3h-0.8c0-1.1,0.2-2.1,0.6-3
			c0.4-0.8,0.9-1.5,1.6-1.9c0.7-0.5,1.5-0.7,2.4-0.7c0.7,0,1.4,0.1,1.9,0.4c0.6,0.3,1,0.7,1.3,1.4c0.3,0.6,0.5,1.5,0.5,2.6v7.4h-3.1
			v-7.4c0-0.5-0.1-0.9-0.2-1.2c-0.1-0.3-0.4-0.5-0.6-0.6s-0.6-0.2-1-0.2c-0.4,0-0.8,0.1-1.1,0.2c-0.3,0.2-0.6,0.4-0.8,0.7
			c-0.2,0.3-0.3,0.6-0.4,1C533.3,106.5,533.2,106.9,533.2,107.3z"/>
		<path class="st17" d="M542.5,107.9v-0.2c0-1.2,0.2-2.2,0.6-3.1c0.4-0.9,0.9-1.6,1.6-2.1s1.5-0.7,2.5-0.7c0.8,0,1.4,0.1,1.9,0.4
			s1,0.7,1.3,1.2s0.6,1.1,0.8,1.9c0.2,0.7,0.3,1.5,0.4,2.3v0.5c-0.1,1.1-0.4,2-0.7,2.9c-0.3,0.9-0.8,1.5-1.4,2.1
			c-0.6,0.5-1.4,0.8-2.3,0.8c-1,0-1.8-0.3-2.5-0.8s-1.2-1.2-1.6-2.1C542.7,110,542.5,109,542.5,107.9z M550.3,101.9h2.8v11.2
			c0,1.1-0.2,2-0.7,2.7s-1.1,1.3-2,1.7c-0.8,0.4-1.8,0.6-2.9,0.6c-0.5,0-1-0.1-1.5-0.2s-1.1-0.3-1.5-0.6c-0.5-0.3-0.9-0.6-1.2-1
			l1.4-1.8c0.4,0.4,0.8,0.7,1.2,1c0.5,0.2,1,0.3,1.6,0.3c0.8,0,1.5-0.2,1.9-0.7c0.5-0.5,0.7-1.1,0.7-1.9v-8.6L550.3,101.9z
			 M545.6,107.6v0.2c0,0.6,0.1,1.2,0.3,1.7c0.2,0.5,0.4,0.9,0.8,1.2c0.3,0.3,0.8,0.5,1.3,0.5c0.6,0,1-0.1,1.4-0.4
			c0.4-0.2,0.6-0.6,0.8-1c0.2-0.4,0.3-0.9,0.3-1.5v-1.4c0-0.5-0.1-0.9-0.2-1.2c-0.1-0.4-0.3-0.7-0.5-0.9s-0.4-0.5-0.8-0.6
			c-0.3-0.1-0.7-0.2-1.1-0.2c-0.5,0-1,0.2-1.3,0.5s-0.6,0.7-0.8,1.3C545.7,106.4,545.6,107,545.6,107.6z"/>
		<path class="st17" d="M566.8,101.9v2.2H560v-2.2H566.8z M561.7,99.1h3.1v11c0,0.3,0,0.6,0.1,0.8c0.1,0.2,0.2,0.3,0.4,0.4
			c0.2,0.1,0.4,0.1,0.7,0.1c0.2,0,0.4,0,0.5,0c0.2,0,0.3,0,0.4-0.1v2.3c-0.3,0.1-0.6,0.2-0.9,0.2s-0.6,0.1-1,0.1
			c-0.7,0-1.3-0.1-1.8-0.3s-0.9-0.6-1.2-1.1c-0.3-0.5-0.4-1.2-0.4-2L561.7,99.1L561.7,99.1z"/>
		<path class="st17" d="M571.5,97v16.5h-3.1V97H571.5z M571.1,107.3h-0.8c0-1.1,0.2-2,0.6-2.9c0.4-0.8,0.9-1.5,1.5-2
			c0.7-0.5,1.4-0.7,2.3-0.7c0.8,0,1.4,0.1,2,0.4c0.6,0.3,1,0.8,1.3,1.4c0.3,0.7,0.5,1.5,0.5,2.6v7.3h-3.1V106c0-0.5-0.1-0.9-0.2-1.2
			c-0.1-0.3-0.4-0.5-0.6-0.6c-0.3-0.1-0.6-0.2-1-0.2c-0.4,0-0.8,0.1-1.1,0.2c-0.3,0.2-0.6,0.4-0.7,0.7c-0.2,0.3-0.3,0.6-0.4,1
			C571.3,106.3,571.1,106.9,571.1,107.3z"/>
		<path class="st17" d="M586.2,113.8c-1.2,0-2.2-0.3-3.1-0.8c-0.9-0.5-1.5-1.2-2-2c-0.5-0.9-0.7-1.8-0.7-2.8v-0.4
			c0-1.2,0.2-2.2,0.7-3.1c0.4-0.9,1.1-1.6,1.9-2.1s1.8-0.8,2.9-0.8c1.1,0,2,0.2,2.8,0.7s1.3,1.1,1.7,2s0.6,1.8,0.6,3v1.3h-9.2v-2.1
			h6.2v-0.2c0-0.4-0.1-0.8-0.2-1.2c-0.2-0.3-0.4-0.6-0.7-0.8c-0.3-0.2-0.7-0.3-1.2-0.3s-1,0.2-1.3,0.5s-0.6,0.7-0.7,1.3
			c-0.2,0.5-0.2,1.2-0.2,1.8v0.4c0,0.6,0.1,1.2,0.3,1.7c0.2,0.5,0.6,0.9,1,1.1c0.4,0.3,0.9,0.4,1.5,0.4c0.6,0,1.1-0.1,1.6-0.3
			c0.5-0.2,0.9-0.5,1.3-1l1.5,1.6c-0.4,0.5-0.9,1-1.7,1.5C588.3,113.5,587.3,113.8,586.2,113.8z"/>
		<path class="st17" d="M607.5,108.4h3.2c-0.1,1.1-0.4,2-0.9,2.8s-1.2,1.5-2.1,1.9c-0.9,0.5-2,0.7-3.3,0.7s-2.5-0.3-3.4-0.9
			c-1-0.6-1.7-1.5-2.2-2.6s-0.8-2.4-0.8-4v-1.1c0-1.5,0.3-2.9,0.8-4s1.3-2,2.3-2.6s2.1-0.9,3.4-0.9s2.4,0.2,3.3,0.7
			c0.9,0.5,1.6,1.1,2.1,2c0.5,0.8,0.8,1.8,0.9,2.8h-3.2c-0.1-0.9-0.3-1.7-0.8-2.2s-1.2-0.8-2.3-0.8c-0.7,0-1.3,0.2-1.8,0.5
			c-0.5,0.4-0.8,0.9-1.1,1.6c-0.3,0.7-0.4,1.7-0.4,2.8v1.1c0,1.1,0.1,2,0.3,2.7c0.2,0.7,0.6,1.3,1,1.7c0.4,0.4,1.1,0.6,1.8,0.6
			c0.7,0,1.2-0.1,1.7-0.3c0.4-0.2,0.8-0.5,1-1C607.4,109.5,607.5,109,607.5,108.4z"/>
		<path class="st17" d="M612.2,107.9v-0.2c0-1.1,0.2-2.1,0.6-3c0.4-0.9,1.1-1.6,1.9-2.1s1.8-0.8,3-0.8s2.2,0.3,3,0.8
			s1.5,1.2,1.9,2.1c0.4,0.9,0.6,1.9,0.6,3v0.2c0,1.1-0.2,2.1-0.6,3c-0.4,0.9-1.1,1.6-1.9,2.1s-1.8,0.8-3,0.8s-2.2-0.3-3-0.8
			s-1.4-1.2-1.9-2.1S612.2,109,612.2,107.9z M615.3,107.6v0.2c0,0.6,0.1,1.2,0.2,1.8c0.2,0.5,0.4,1,0.8,1.3c0.4,0.3,0.8,0.5,1.4,0.5
			c0.6,0,1-0.2,1.4-0.5c0.4-0.3,0.6-0.7,0.8-1.3c0.2-0.5,0.2-1.1,0.2-1.8v-0.2c0-0.6-0.1-1.2-0.2-1.7c-0.2-0.5-0.4-1-0.8-1.3
			c-0.4-0.3-0.8-0.5-1.4-0.5c-0.6,0-1,0.2-1.4,0.5c-0.4,0.3-0.6,0.7-0.8,1.3C615.3,106.4,615.3,107,615.3,107.6z"/>
		<path class="st17" d="M628.2,104.3v9.2h-3.1v-11.6h2.9L628.2,104.3z M627.7,107.3h-0.9c0-1.1,0.2-2,0.5-2.9c0.3-0.8,0.9-1.5,1.5-2
			c0.7-0.5,1.5-0.7,2.5-0.7s1.9,0.3,2.5,1c0.7,0.6,1,1.7,1,3.1v7.8h-3.1v-7.4c0-0.5-0.1-0.9-0.2-1.2c-0.1-0.3-0.3-0.5-0.6-0.6
			c-0.3-0.1-0.6-0.2-0.9-0.2c-0.4,0-0.8,0.1-1,0.2c-0.3,0.2-0.5,0.4-0.7,0.7s-0.3,0.6-0.4,1C627.8,106.5,627.7,106.9,627.7,107.3z
			 M634.7,107l-1.1,0.1c0-1,0.2-1.9,0.5-2.7c0.3-0.8,0.8-1.5,1.5-1.9c0.7-0.5,1.5-0.7,2.5-0.7c0.8,0,1.4,0.1,2,0.4
			c0.6,0.3,1,0.8,1.3,1.4s0.5,1.5,0.5,2.6v7.4h-3.1v-7.4c0-0.5-0.1-0.9-0.2-1.2c-0.1-0.3-0.3-0.5-0.6-0.6c-0.3-0.1-0.6-0.2-0.9-0.2
			c-0.4,0-0.7,0.1-1,0.2s-0.5,0.3-0.7,0.6c-0.2,0.3-0.3,0.6-0.4,0.9C634.7,106.2,634.7,106.6,634.7,107z"/>
		<path class="st17" d="M647.2,104.3v9.2h-3.1v-11.6h2.9L647.2,104.3z M646.8,107.3h-0.9c0-1.1,0.2-2,0.5-2.9c0.3-0.8,0.9-1.5,1.5-2
			c0.7-0.5,1.5-0.7,2.5-0.7s1.9,0.3,2.5,1c0.7,0.6,1,1.7,1,3.1v7.8h-3.1v-7.4c0-0.5-0.1-0.9-0.2-1.2c-0.1-0.3-0.3-0.5-0.6-0.6
			s-0.6-0.2-0.9-0.2c-0.4,0-0.8,0.1-1,0.2c-0.3,0.2-0.5,0.4-0.7,0.7s-0.3,0.6-0.4,1C646.9,106.5,646.8,106.9,646.8,107.3z
			 M653.7,107l-1.1,0.1c0-1,0.2-1.9,0.5-2.7c0.3-0.8,0.8-1.5,1.5-1.9c0.7-0.5,1.5-0.7,2.5-0.7c0.8,0,1.4,0.1,2,0.4s1,0.8,1.3,1.4
			s0.5,1.5,0.5,2.6v7.4h-3.1v-7.4c0-0.5-0.1-0.9-0.2-1.2c-0.1-0.3-0.3-0.5-0.6-0.6s-0.6-0.2-0.9-0.2c-0.4,0-0.7,0.1-1,0.2
			s-0.5,0.3-0.7,0.6c-0.2,0.3-0.3,0.6-0.4,0.9C653.8,106.2,653.7,106.6,653.7,107z"/>
		<path class="st17" d="M670.4,108.4h0.9c0,1-0.2,2-0.5,2.8s-0.8,1.5-1.4,1.9c-0.6,0.5-1.5,0.7-2.4,0.7c-1.1,0-2.1-0.3-2.8-1
			s-1.1-1.8-1.1-3.3V102h3.1v7.5c0,0.5,0.1,0.8,0.2,1.1c0.1,0.3,0.3,0.5,0.6,0.6s0.5,0.2,0.9,0.2c0.6,0,1.1-0.1,1.5-0.4
			s0.6-0.6,0.8-1.1C670.3,109.4,670.4,108.9,670.4,108.4z M670.1,110.8V102h3.1v11.6h-2.9L670.1,110.8z"/>
		<path class="st17" d="M678.5,104.4v9.1h-3.1v-11.6h2.9L678.5,104.4z M678.1,107.3h-0.8c0-1.1,0.2-2.1,0.6-3
			c0.4-0.8,0.9-1.5,1.6-1.9c0.7-0.5,1.5-0.7,2.4-0.7c0.7,0,1.4,0.1,1.9,0.4c0.6,0.3,1,0.7,1.3,1.4c0.3,0.6,0.5,1.5,0.5,2.6v7.4h-3.1
			v-7.4c0-0.5-0.1-0.9-0.2-1.2c-0.1-0.3-0.4-0.5-0.6-0.6s-0.6-0.2-1-0.2s-0.8,0.1-1.1,0.2c-0.3,0.2-0.6,0.4-0.8,0.7s-0.3,0.6-0.4,1
			C678.1,106.5,678.1,106.9,678.1,107.3z"/>
		<path class="st17" d="M687.8,98.9c0-0.5,0.2-0.8,0.5-1.1c0.3-0.3,0.7-0.4,1.3-0.4c0.5,0,0.9,0.1,1.3,0.4c0.3,0.3,0.5,0.7,0.5,1.1
			s-0.2,0.8-0.5,1.1c-0.3,0.3-0.7,0.4-1.3,0.4c-0.5,0-1-0.1-1.3-0.4S687.8,99.3,687.8,98.9z M691.1,101.9v11.6H688v-11.6H691.1z"/>
		<path class="st17" d="M699.4,101.9v2.2h-6.8v-2.2H699.4z M694.3,99.1h3.1v11c0,0.3,0,0.6,0.1,0.8c0.1,0.2,0.2,0.3,0.4,0.4
			s0.4,0.1,0.7,0.1c0.2,0,0.4,0,0.5,0c0.2,0,0.3,0,0.4-0.1v2.3c-0.3,0.1-0.6,0.2-0.9,0.2c-0.3,0-0.6,0.1-1,0.1
			c-0.7,0-1.3-0.1-1.8-0.3s-0.9-0.6-1.2-1.1s-0.4-1.2-0.4-2V99.1H694.3z"/>
		<path class="st17" d="M703.3,101.9l2.5,8.4l0.4,3.3l-2.1,0.2l-4.2-11.9H703.3z M704.6,112.2l3.1-10.3h3.3l-4.7,13.4
			c-0.1,0.3-0.2,0.6-0.4,0.9s-0.4,0.7-0.7,1s-0.6,0.6-1.1,0.7s-0.9,0.3-1.6,0.3c-0.3,0-0.5,0-0.7-0.1c-0.2,0-0.4-0.1-0.7-0.2v-2.3
			c0.1,0,0.2,0,0.2,0c0.1,0,0.2,0,0.2,0c0.6,0,1.1-0.1,1.3-0.3c0.3-0.2,0.5-0.5,0.7-1L704.6,112.2z"/>
	</g>
</g>
<path class="st7" d="M427.8,263.3h241.3v45h-23.3l12.2,28.6l-43.4-28.6H427.8V263.3z"/>
<g>
	<g>
		<path class="st17" d="M452.5,275.9v15.6h-3.2v-15.6H452.5z M454.1,291.6h-3.4v-2.5h3.4c0.8,0,1.6-0.2,2.1-0.6
			c0.6-0.4,1-0.9,1.3-1.7c0.3-0.7,0.4-1.6,0.4-2.7v-0.8c0-1.1-0.2-2-0.5-2.7s-0.7-1.3-1.3-1.7c-0.6-0.4-1.3-0.6-2.1-0.6h-3.5v-2.5
			h3.5c1.4,0,2.6,0.3,3.7,0.9s1.9,1.5,2.5,2.6s0.9,2.4,0.9,3.9v0.7c0,1.5-0.3,2.8-0.9,3.9s-1.4,2-2.5,2.6
			C456.8,291.3,455.5,291.6,454.1,291.6z"/>
		<path class="st17" d="M463.4,276.9c0-0.5,0.2-0.8,0.5-1.1c0.3-0.3,0.7-0.4,1.3-0.4c0.5,0,0.9,0.1,1.3,0.4c0.3,0.3,0.5,0.7,0.5,1.1
			s-0.2,0.8-0.5,1.1c-0.3,0.3-0.7,0.4-1.3,0.4c-0.5,0-1-0.1-1.3-0.4S463.4,277.4,463.4,276.9z M466.7,279.9v11.6h-3.1v-11.6H466.7z"
			/>
		<path class="st17" d="M471.4,279.9l2.6,9.4l0.1,2.2h-2l-3.9-11.6H471.4z M473.2,289.3l2.6-9.4h3.2l-3.9,11.6h-2L473.2,289.3z"/>
		<path class="st17" d="M485.7,291.8c-1.2,0-2.2-0.3-3.1-0.8s-1.5-1.2-2-2c-0.5-0.9-0.7-1.8-0.7-2.8v-0.4c0-1.2,0.2-2.2,0.7-3.1
			c0.4-0.9,1.1-1.6,1.9-2.1s1.8-0.8,2.9-0.8s2,0.2,2.8,0.7s1.3,1.1,1.7,2s0.6,1.8,0.6,3v1.3h-9.2v-2.1h6.2v-0.2
			c0-0.4-0.1-0.8-0.2-1.2c-0.2-0.3-0.4-0.6-0.7-0.8c-0.3-0.2-0.7-0.3-1.2-0.3s-1,0.2-1.3,0.5s-0.6,0.7-0.7,1.3
			c-0.2,0.5-0.2,1.2-0.2,1.8v0.4c0,0.6,0.1,1.2,0.3,1.7s0.6,0.9,1,1.1c0.4,0.3,0.9,0.4,1.5,0.4s1.1-0.1,1.6-0.3
			c0.5-0.2,0.9-0.5,1.3-1l1.5,1.6c-0.4,0.5-0.9,1-1.7,1.5C487.8,291.6,486.9,291.8,485.7,291.8z"/>
		<path class="st17" d="M495.4,282.5v9.1h-3.1V280h2.9L495.4,282.5z M498.9,279.9l-0.1,2.9c-0.2,0-0.3,0-0.5-0.1c-0.2,0-0.4,0-0.6,0
			c-0.6,0-1.1,0.1-1.4,0.3c-0.4,0.2-0.7,0.5-0.8,0.8c-0.2,0.4-0.3,0.8-0.3,1.3l-0.6-0.2c0-1,0.1-1.9,0.4-2.7
			c0.3-0.8,0.6-1.4,1.2-1.9s1.1-0.7,1.9-0.7c0.2,0,0.3,0,0.5,0C498.6,279.8,498.7,279.8,498.9,279.9z"/>
		<path class="st17" d="M506.6,288.4c0-0.2-0.1-0.4-0.2-0.6s-0.4-0.3-0.7-0.5s-0.8-0.3-1.5-0.4c-0.8-0.2-1.5-0.4-2.1-0.7
			c-0.6-0.3-1.1-0.7-1.5-1.1c-0.4-0.5-0.5-1-0.5-1.7c0-0.6,0.2-1.2,0.6-1.8c0.4-0.5,0.9-1,1.6-1.3s1.5-0.5,2.5-0.5s1.9,0.2,2.6,0.5
			s1.3,0.8,1.7,1.3c0.4,0.6,0.6,1.2,0.6,1.9h-3.1c0-0.5-0.1-0.8-0.4-1.1c-0.3-0.3-0.7-0.5-1.4-0.5c-0.3,0-0.6,0.1-0.9,0.2
			s-0.4,0.3-0.6,0.5c-0.1,0.2-0.2,0.4-0.2,0.6s0.1,0.4,0.2,0.6s0.4,0.3,0.7,0.5c0.3,0.1,0.7,0.3,1.3,0.4c0.8,0.2,1.6,0.4,2.2,0.7
			c0.7,0.3,1.2,0.6,1.6,1.1s0.6,1.1,0.6,1.8c0,0.7-0.2,1.3-0.6,1.8s-1,1-1.7,1.3s-1.6,0.5-2.6,0.5c-1.1,0-2-0.2-2.7-0.6
			s-1.3-0.9-1.7-1.5s-0.6-1.2-0.6-1.8h2.9c0,0.4,0.1,0.8,0.3,1s0.5,0.4,0.8,0.6c0.3,0.1,0.7,0.2,1,0.2c0.4,0,0.7-0.1,1-0.2
			s0.5-0.3,0.6-0.5C506.5,288.8,506.6,288.6,506.6,288.4z"/>
		<path class="st17" d="M511.6,276.9c0-0.5,0.2-0.8,0.5-1.1c0.3-0.3,0.7-0.4,1.3-0.4c0.5,0,0.9,0.1,1.3,0.4c0.3,0.3,0.5,0.7,0.5,1.1
			s-0.2,0.8-0.5,1.1c-0.3,0.3-0.7,0.4-1.3,0.4c-0.5,0-1-0.1-1.3-0.4S511.6,277.4,511.6,276.9z M514.9,279.9v11.6h-3.1v-11.6H514.9z"
			/>
		<path class="st17" d="M523.1,279.9v2.2h-6.8v-2.2H523.1z M518,277.1h3.1v11c0,0.3,0,0.6,0.1,0.8c0.1,0.2,0.2,0.3,0.4,0.4
			c0.2,0.1,0.4,0.1,0.7,0.1c0.2,0,0.4,0,0.5,0c0.2,0,0.3,0,0.4-0.1v2.3c-0.3,0.1-0.6,0.2-0.9,0.2s-0.6,0.1-1,0.1
			c-0.7,0-1.3-0.1-1.8-0.3s-0.9-0.6-1.2-1.1c-0.3-0.5-0.4-1.2-0.4-2L518,277.1L518,277.1z"/>
		<path class="st17" d="M527.1,279.9l2.5,8.4l0.4,3.3l-2.1,0.2l-4.2-11.9H527.1z M528.3,290.3l3.1-10.3h3.3l-4.7,13.4
			c-0.1,0.3-0.2,0.6-0.4,0.9c-0.2,0.3-0.4,0.7-0.7,1c-0.3,0.3-0.6,0.6-1.1,0.7c-0.4,0.2-0.9,0.3-1.6,0.3c-0.3,0-0.5,0-0.7-0.1
			c-0.2,0-0.4-0.1-0.7-0.2v-2.3c0.1,0,0.2,0,0.2,0c0.1,0,0.2,0,0.2,0c0.6,0,1.1-0.1,1.3-0.3c0.3-0.2,0.5-0.5,0.7-1L528.3,290.3z"/>
		<path class="st17" d="M544,283.2l3-1.9c0.4-0.3,0.7-0.6,0.9-0.8c0.2-0.3,0.2-0.6,0.2-0.9s-0.1-0.6-0.4-0.9s-0.6-0.4-1.1-0.4
			s-0.9,0.2-1.1,0.5c-0.3,0.3-0.4,0.7-0.4,1.1c0,0.5,0.2,1,0.6,1.5c0.4,0.5,0.8,1.1,1.4,1.7l7.4,8.6H551l-6-7
			c-0.8-0.9-1.4-1.8-1.8-2.5c-0.5-0.7-0.7-1.5-0.7-2.3s0.2-1.5,0.5-2.1s0.8-1.1,1.5-1.4c0.6-0.3,1.4-0.5,2.2-0.5
			c0.8,0,1.5,0.2,2.1,0.5c0.6,0.3,1.1,0.8,1.4,1.3s0.5,1.1,0.5,1.8c0,0.5-0.1,0.9-0.3,1.3c-0.2,0.4-0.4,0.8-0.7,1.1
			c-0.3,0.3-0.7,0.7-1.1,1l-3.4,2.4c-0.3,0.2-0.5,0.5-0.6,0.7c-0.1,0.2-0.2,0.5-0.3,0.7c0,0.2-0.1,0.4-0.1,0.6
			c0,0.4,0.1,0.8,0.3,1.1c0.2,0.3,0.4,0.6,0.8,0.8c0.3,0.2,0.7,0.3,1.1,0.3c0.6,0,1.2-0.1,1.7-0.4s1-0.6,1.5-1.1s0.8-1.1,1-1.7
			s0.4-1.4,0.4-2.2h2.6c0,1.2-0.2,2.3-0.5,3.3c-0.4,1-1,1.9-1.9,2.6c0,0-0.1,0.1-0.2,0.2c-0.1,0.1-0.1,0.1-0.2,0.2
			c-0.7,0.6-1.4,1-2.1,1.2s-1.6,0.4-2.5,0.4c-1,0-1.9-0.2-2.7-0.6c-0.8-0.4-1.4-0.9-1.8-1.6c-0.4-0.7-0.6-1.4-0.6-2.3
			c0-0.6,0.1-1.2,0.4-1.6c0.2-0.5,0.6-0.9,1-1.3C542.9,284,543.4,283.6,544,283.2z"/>
		<path class="st17" d="M565.1,275.9v15.6h-3.2v-15.6H565.1z"/>
		<path class="st17" d="M571,282.4v9.1h-3.1v-11.6h2.9L571,282.4z M570.5,285.3h-0.8c0-1.1,0.2-2.1,0.6-3c0.4-0.8,0.9-1.5,1.6-1.9
			c0.7-0.5,1.5-0.7,2.4-0.7c0.7,0,1.4,0.1,1.9,0.4c0.6,0.3,1,0.7,1.3,1.4c0.3,0.6,0.5,1.5,0.5,2.6v7.4h-3.1v-7.4
			c0-0.5-0.1-0.9-0.2-1.2c-0.1-0.3-0.4-0.5-0.6-0.6c-0.3-0.1-0.6-0.2-1-0.2c-0.4,0-0.8,0.1-1.1,0.2c-0.3,0.2-0.6,0.4-0.8,0.7
			c-0.2,0.3-0.3,0.6-0.4,1C570.7,284.4,570.5,284.9,570.5,285.3z"/>
		<path class="st17" d="M585.1,289.4c0.4,0,0.7-0.1,1-0.2s0.5-0.4,0.7-0.6c0.2-0.3,0.3-0.6,0.3-1h2.9c0,0.8-0.2,1.5-0.7,2.2
			s-1,1.1-1.7,1.5s-1.5,0.5-2.4,0.5c-1.2,0-2.2-0.3-3-0.8s-1.4-1.2-1.8-2.1c-0.4-0.9-0.6-1.9-0.6-3v-0.3c0-1.1,0.2-2.1,0.6-3
			c0.4-0.9,1-1.6,1.8-2.1s1.8-0.8,3-0.8c1,0,1.8,0.2,2.5,0.5s1.3,0.9,1.7,1.6s0.6,1.5,0.6,2.4h-2.9c0-0.4-0.1-0.7-0.2-1.1
			c-0.2-0.3-0.4-0.6-0.7-0.8c-0.3-0.2-0.6-0.3-1.1-0.3c-0.6,0-1.1,0.2-1.4,0.5s-0.5,0.8-0.6,1.3c-0.1,0.5-0.2,1.1-0.2,1.7v0.3
			c0,0.6,0.1,1.2,0.2,1.7c0.1,0.5,0.3,0.9,0.7,1.3C584,289.2,584.5,289.4,585.1,289.4z"/>
		<path class="st17" d="M595,275.1v16.5h-3.1v-16.5H595z"/>
		<path class="st17" d="M604.8,286.4h0.9c0,1-0.2,2-0.5,2.8s-0.8,1.5-1.4,1.9c-0.6,0.5-1.5,0.7-2.4,0.7c-1.1,0-2.1-0.3-2.8-1
			c-0.7-0.7-1.1-1.8-1.1-3.3V280h3.1v7.5c0,0.5,0.1,0.8,0.2,1.1c0.1,0.3,0.3,0.5,0.6,0.6c0.3,0.1,0.5,0.2,0.9,0.2
			c0.6,0,1.1-0.1,1.5-0.4c0.4-0.3,0.6-0.6,0.8-1.1C604.7,287.5,604.8,287,604.8,286.4z M604.4,288.8V280h3.1v11.6h-2.9L604.4,288.8z
			"/>
		<path class="st17" d="M616.2,288.4c0-0.2-0.1-0.4-0.2-0.6c-0.1-0.2-0.4-0.3-0.7-0.5c-0.3-0.2-0.8-0.3-1.5-0.4
			c-0.8-0.2-1.5-0.4-2.1-0.7c-0.6-0.3-1.1-0.7-1.5-1.1c-0.4-0.5-0.5-1-0.5-1.7c0-0.6,0.2-1.2,0.6-1.8c0.4-0.5,0.9-1,1.6-1.3
			s1.5-0.5,2.5-0.5s1.9,0.2,2.6,0.5s1.3,0.8,1.7,1.3c0.4,0.6,0.6,1.2,0.6,1.9h-3.1c0-0.5-0.1-0.8-0.4-1.1c-0.3-0.3-0.7-0.5-1.4-0.5
			c-0.3,0-0.6,0.1-0.9,0.2s-0.4,0.3-0.6,0.5c-0.1,0.2-0.2,0.4-0.2,0.6s0.1,0.4,0.2,0.6c0.1,0.2,0.4,0.3,0.7,0.5
			c0.3,0.1,0.7,0.3,1.3,0.4c0.8,0.2,1.6,0.4,2.2,0.7c0.7,0.3,1.2,0.6,1.6,1.1c0.4,0.5,0.6,1.1,0.6,1.8c0,0.7-0.2,1.3-0.6,1.8
			c-0.4,0.5-1,1-1.7,1.3s-1.6,0.5-2.6,0.5c-1.1,0-2-0.2-2.7-0.6s-1.3-0.9-1.7-1.5s-0.6-1.2-0.6-1.8h2.9c0,0.4,0.1,0.8,0.3,1
			c0.2,0.2,0.5,0.4,0.8,0.6c0.3,0.1,0.7,0.2,1,0.2c0.4,0,0.7-0.1,1-0.2s0.5-0.3,0.6-0.5C616.1,288.8,616.2,288.6,616.2,288.4z"/>
		<path class="st17" d="M621.2,276.9c0-0.5,0.2-0.8,0.5-1.1c0.3-0.3,0.7-0.4,1.3-0.4c0.5,0,0.9,0.1,1.3,0.4c0.3,0.3,0.5,0.7,0.5,1.1
			s-0.2,0.8-0.5,1.1c-0.3,0.3-0.7,0.4-1.3,0.4c-0.5,0-1-0.1-1.3-0.4C621.3,277.7,621.2,277.4,621.2,276.9z M624.5,279.9v11.6h-3.1
			v-11.6H624.5z"/>
		<path class="st17" d="M626.5,285.9v-0.2c0-1.1,0.2-2.1,0.6-3c0.4-0.9,1.1-1.6,1.9-2.1s1.8-0.8,3-0.8s2.2,0.3,3,0.8
			s1.5,1.2,1.9,2.1c0.4,0.9,0.6,1.9,0.6,3v0.2c0,1.1-0.2,2.1-0.6,3c-0.4,0.9-1.1,1.6-1.9,2.1s-1.8,0.8-3,0.8s-2.2-0.3-3-0.8
			s-1.4-1.2-1.9-2.1S626.5,287,626.5,285.9z M629.6,285.7v0.2c0,0.6,0.1,1.2,0.2,1.8c0.2,0.5,0.4,1,0.8,1.3c0.4,0.3,0.8,0.5,1.4,0.5
			c0.6,0,1-0.2,1.4-0.5c0.4-0.3,0.6-0.7,0.8-1.3c0.2-0.5,0.2-1.1,0.2-1.8v-0.2c0-0.6-0.1-1.2-0.2-1.7c-0.2-0.5-0.4-1-0.8-1.3
			c-0.4-0.3-0.8-0.5-1.4-0.5c-0.6,0-1,0.2-1.4,0.5c-0.4,0.3-0.6,0.7-0.8,1.3C629.7,284.4,629.6,285,629.6,285.7z"/>
		<path class="st17" d="M642.5,282.4v9.1h-3.1v-11.6h2.9L642.5,282.4z M642,285.3h-0.8c0-1.1,0.2-2.1,0.6-3c0.4-0.8,0.9-1.5,1.6-1.9
			c0.7-0.5,1.5-0.7,2.4-0.7c0.7,0,1.4,0.1,1.9,0.4c0.6,0.3,1,0.7,1.3,1.4c0.3,0.6,0.5,1.5,0.5,2.6v7.4h-3.2v-7.4
			c0-0.5-0.1-0.9-0.2-1.2c-0.1-0.3-0.4-0.5-0.6-0.6c-0.3-0.1-0.6-0.2-1-0.2c-0.4,0-0.8,0.1-1.1,0.2c-0.3,0.2-0.6,0.4-0.8,0.7
			c-0.2,0.3-0.3,0.6-0.4,1C642.1,284.4,642,284.9,642,285.3z"/>
	</g>
</g>
<path class="st20" d="M599.7,209.5c12.3-0.2,22.1-10.3,22-22.6c-0.2-12.3-10.3-22.1-22.6-22c-12.3,0.2-22.1,10.3-22,22.6
	C577.3,199.9,587.4,209.7,599.7,209.5z"/>
<path class="st20" d="M608.3,179.6c-5.8-3.1-9,4.9-9,4.9s-3.2-8-9-4.8c-6.5,3.6-0.7,15.1,9,20.1
	C609.1,194.7,614.8,183.1,608.3,179.6z"/>
<path class="st17" d="M604.7,213.1c12.3,0,22.3-10,22.3-22.3s-10-22.3-22.3-22.3s-22.3,10-22.3,22.3
	C582.5,203.1,592.4,213.1,604.7,213.1z"/>
<path class="st7" d="M613.7,183.1c-5.8-3.1-9,4.9-9,4.9s-3.2-8-9-4.8c-6.5,3.6-0.7,15.1,9,20.1C614.5,198.2,620.2,186.6,613.7,183.1
	z"/>
<path class="st21" d="M1105.3,181.9H892.9c0,0,14.6-30.3,48.3-17.8c0,0,12.4-31.3,41.5-27.7c29.2,3.7,34.8,22.6,34.8,22.6
	s31.5-11.6,61.8,11.9C1079.4,170.9,1104.1,168.3,1105.3,181.9z"/>
<path class="st21" d="M699.1,600.2h-195c0,0,13.4-30.5,44.4-17.9c0,0,11.4-31.6,38.2-27.9c26.8,3.7,32,22.7,32,22.7
	s28.9-11.7,56.8,12C675.4,589.2,698.1,586.5,699.1,600.2z"/>
<path class="st20" d="M937.5,436.7c13.4,0,24.2-10.8,24.2-24.2c0-13.4-10.8-24.2-24.2-24.2s-24.2,10.8-24.2,24.2
	C913.3,425.9,924.1,436.7,937.5,436.7z"/>
<path class="st21" d="M944,441.6c13.4,0,24.2-10.8,24.2-24.2c0-13.4-10.8-24.2-24.2-24.2s-24.2,10.8-24.2,24.2
	C919.8,430.8,930.6,441.6,944,441.6z"/>
<path class="st22" d="M944,409l8.3-4.4l-1.6,9.2l6.7,6.5l-9.3,1.4l-4.1,8.4l-4.1-8.4l-9.3-1.4l6.7-6.5l-1.6-9.2L944,409z"/>
<path class="st20" d="M366,128c7.9,0,14.3-6.4,14.3-14.3s-6.4-14.3-14.3-14.3s-14.3,6.4-14.3,14.3C351.7,121.6,358.1,128,366,128z"
	/>
<path class="st21" d="M369.9,130.9c7.9,0,14.3-6.4,14.3-14.3s-6.4-14.3-14.3-14.3c-7.9,0-14.3,6.4-14.3,14.3
	C355.5,124.5,361.9,130.9,369.9,130.9z"/>
<path class="st22" d="M369.9,111.6l4.9-2.6l-0.9,5.5l4,3.9l-5.5,0.8l-2.5,5l-2.5-5l-5.5-0.8l4-3.9L365,109L369.9,111.6z"/>
<g class="st0">
	<path class="st1" d="M421.1,494.2l-2.4-1.3c-1.5-0.8-2.4-2.4-2.4-4.1c0-0.2,0-0.4,0-0.6s0-0.4,0-0.6c0-1.7,0.9-3.3,2.4-4.1l2.4-1.3
		c1.9-1,2.8-3.2,2.2-5.3v-0.1c-0.6-2.1-2.5-3.5-4.6-3.5H416c-1.7,0-3.3-0.9-4.2-2.4c-0.2-0.3-0.3-0.6-0.5-0.9
		c-0.9-1.5-0.9-3.4,0-4.9l1.4-2.3c1.1-1.8,0.8-4.2-0.7-5.7c0,0,0,0-0.1-0.1c-1.5-1.5-3.9-1.8-5.7-0.7l-2.3,1.4
		c-1.5,0.9-3.4,0.9-4.9,0c-0.3-0.2-0.6-0.3-0.9-0.5c-1.5-0.8-2.5-2.4-2.4-4.2v-2.7c0-2.1-1.4-4-3.5-4.6h-0.1
		c-2.1-0.5-4.3,0.4-5.3,2.3l-1.3,2.4c-0.8,1.5-2.4,2.4-4.1,2.4c-0.2,0-0.4,0-0.6,0s-0.4,0-0.6,0c-1.7,0-3.3-0.9-4.1-2.4l-1.3-2.4
		c-1-1.9-3.2-2.8-5.3-2.3h-0.1c-2.1,0.6-3.5,2.4-3.5,4.6v2.7c0,1.7-0.9,3.3-2.4,4.2c-0.3,0.2-0.6,0.3-0.9,0.5
		c-1.5,0.9-3.4,0.9-4.9,0l-2.3-1.4c-1.8-1.1-4.2-0.8-5.7,0.7c0,0,0,0-0.1,0.1c-1.5,1.5-1.8,3.9-0.7,5.7l1.4,2.3
		c0.9,1.5,0.9,3.4,0,4.9c-0.2,0.3-0.3,0.6-0.5,0.9c-0.8,1.5-2.4,2.5-4.2,2.4h-2.7c-2.1,0-4,1.4-4.6,3.5v0.1
		c-0.5,2.1,0.4,4.3,2.3,5.3l2.4,1.3c1.5,0.8,2.4,2.4,2.4,4.1c0,0.2,0,0.4,0,0.6s0,0.4,0,0.6c0,1.7-0.9,3.3-2.4,4.1l-2.4,1.3
		c-1.9,1-2.8,3.2-2.3,5.3v0.1c0.6,2.1,2.4,3.5,4.6,3.5h2.7c1.7,0,3.3,0.9,4.2,2.4c0.2,0.3,0.3,0.6,0.5,0.9c0.9,1.5,0.9,3.4,0,4.9
		l-1.4,2.3c-1.1,1.8-0.8,4.2,0.7,5.7c0,0,0,0,0.1,0.1c1.5,1.5,3.9,1.8,5.7,0.7l2.3-1.4c1.5-0.9,3.4-0.9,4.9,0
		c0.3,0.2,0.6,0.3,0.9,0.5c1.5,0.8,2.5,2.4,2.4,4.2v2.7c0,2.1,1.4,4,3.5,4.6h0.1c2.1,0.5,4.3-0.4,5.3-2.3l1.3-2.4
		c0.8-1.5,2.4-2.4,4.1-2.4c0.2,0,0.4,0,0.6,0s0.4,0,0.6,0c1.7,0,3.3,0.9,4.1,2.4l1.3,2.4c1,1.9,3.2,2.8,5.3,2.3h0.1
		c2.1-0.6,3.5-2.4,3.5-4.6v-2.7c0-1.7,0.9-3.3,2.4-4.2c0.3-0.2,0.6-0.3,0.9-0.5c1.5-0.9,3.4-0.9,4.9,0l2.3,1.4
		c1.8,1.1,4.2,0.8,5.7-0.7c0,0,0,0,0.1-0.1c1.5-1.5,1.8-3.9,0.7-5.7l-1.4-2.3c-0.9-1.5-0.9-3.4,0-4.9c0.2-0.3,0.3-0.6,0.5-0.9
		c0.8-1.5,2.4-2.5,4.2-2.4h2.7c2.1,0,4-1.4,4.6-3.5v-0.1C423.9,497.5,423,495.3,421.1,494.2z M380.9,514.6
		c-14.6,0-26.4-11.8-26.4-26.4s11.8-26.4,26.4-26.4c14.6,0,26.4,11.8,26.4,26.4S395.5,514.6,380.9,514.6z"/>
</g>
</svg>
