<?xml version="1.0" encoding="utf-8"?>
<!-- Generator: Adobe Illustrator 27.2.0, SVG Export Plug-In . SVG Version: 6.00 Build 0)  -->
<svg version="1.1" id="Layer_1" xmlns="http://www.w3.org/2000/svg" xmlns:xlink="http://www.w3.org/1999/xlink" x="0px" y="0px"
	 viewBox="0 0 987.7 807" style="enable-background:new 0 0 987.7 807;" xml:space="preserve">
<style type="text/css">
	.st0{opacity:0.4;}
	.st1{opacity:0.4;fill:#F4D7C9;enable-background:new    ;}
	.st2{fill:#ADCCC7;}
	.st3{fill:#6EAB9C;}
	.st4{fill:#AECBC7;}
	.st5{fill:#1B5175;}
	.st6{fill:#E9928B;}
	.st7{fill:#EB908B;}
	.st8{fill:#C46116;}
	.st9{fill:#AF0022;}
	.st10{opacity:0.52;enable-background:new    ;}
	.st11{opacity:0.52;fill:#A04A10;enable-background:new    ;}
	.st12{fill:#FFAC95;}
	.st13{fill:#6A5E84;}
	.st14{fill:#5F537F;}
	.st15{fill:#9B0428;}
	.st16{fill:#3FB8A9;}
	.st17{fill:#FFFFFF;}
	.st18{fill:#F2D6C8;}
	.st19{fill:#F5B89B;}
	.st20{fill:#B2E5E0;}
	.st21{fill:#EDF6F5;}
	.st22{fill:#FFAB40;}
</style>
<g class="st0">
	<path class="st1" d="M655.3,385.6l-3.5-2c-2.3-1.3-3.6-3.6-3.6-6.2c0-0.3,0-0.6,0-0.9c0-0.3,0-0.6,0-0.9c0-2.6,1.3-4.9,3.6-6.2
		l3.5-2c2.8-1.6,4.2-4.8,3.4-7.9c0,0,0-0.1,0-0.1c-0.8-3.1-3.7-5.2-6.9-5.2l-4.1,0.1c-2.6,0-5-1.4-6.3-3.6c-0.3-0.4-0.5-0.9-0.8-1.3
		c-1.3-2.2-1.4-5,0-7.3l2.1-3.5c1.7-2.7,1.2-6.3-1-8.5c0,0-0.1-0.1-0.1-0.1c-2.3-2.3-5.8-2.7-8.5-1l-3.5,2.1c-2.2,1.3-5,1.3-7.3,0
		c-0.4-0.3-0.9-0.5-1.3-0.8c-2.3-1.3-3.7-3.6-3.6-6.2l0.1-4.1c0-3.2-2.1-6-5.2-6.9c0,0-0.1,0-0.1,0c-3.1-0.8-6.4,0.6-7.9,3.4l-2,3.5
		c-1.3,2.3-3.6,3.6-6.2,3.6c-0.3,0-0.6,0-0.9,0c-0.3,0-0.6,0-0.9,0c-2.6,0-4.9-1.3-6.2-3.6l-2-3.5c-1.6-2.8-4.8-4.2-7.9-3.4
		c0,0-0.1,0-0.1,0c-3.1,0.8-5.2,3.7-5.2,6.9l0.1,4.1c0,2.6-1.4,5-3.6,6.2c-0.4,0.3-0.9,0.5-1.3,0.8c-2.2,1.3-5,1.4-7.3,0l-3.5-2.1
		c-2.7-1.7-6.3-1.2-8.5,1c0,0-0.1,0.1-0.1,0.1c-2.3,2.3-2.7,5.8-1,8.5l2.1,3.5c1.3,2.2,1.3,5,0,7.3c-0.3,0.4-0.5,0.9-0.8,1.3
		c-1.3,2.3-3.6,3.7-6.3,3.6l-4.1-0.1c-3.2,0-6,2.1-6.9,5.2c0,0,0,0.1,0,0.1c-0.8,3.1,0.6,6.4,3.4,7.9l3.5,2c2.3,1.3,3.6,3.6,3.6,6.2
		c0,0.3,0,0.6,0,0.9c0,0.3,0,0.6,0,0.9c0,2.6-1.3,4.9-3.6,6.2l-3.5,2c-2.8,1.6-4.2,4.8-3.4,7.9c0,0,0,0.1,0,0.1
		c0.8,3.1,3.7,5.2,6.9,5.2l4.1-0.1c2.6,0,5,1.4,6.3,3.6c0.3,0.4,0.5,0.9,0.8,1.3c1.3,2.2,1.4,5,0,7.3l-2.1,3.5
		c-1.7,2.7-1.2,6.3,1,8.5c0,0,0.1,0.1,0.1,0.1c2.3,2.3,5.8,2.7,8.5,1l3.5-2.1c2.2-1.3,5-1.3,7.3,0c0.4,0.3,0.9,0.5,1.3,0.8
		c2.3,1.3,3.7,3.6,3.6,6.2l-0.1,4.1c0,3.2,2.1,6,5.2,6.9c0,0,0.1,0,0.1,0c3.1,0.8,6.4-0.6,7.9-3.4l2-3.5c1.2-2.3,3.6-3.6,6.2-3.6
		c0.3,0,0.6,0,0.9,0c0.3,0,0.6,0,0.9,0c2.6,0,4.9,1.3,6.2,3.6l2,3.5c1.6,2.8,4.8,4.2,7.9,3.4c0,0,0.1,0,0.1,0
		c3.1-0.8,5.2-3.7,5.2-6.9l-0.1-4.1c0-2.6,1.4-5,3.6-6.2c0.4-0.3,0.9-0.5,1.3-0.8c2.2-1.3,5-1.4,7.3,0l3.5,2.1
		c2.7,1.7,6.3,1.2,8.5-1c0,0,0.1-0.1,0.1-0.1c2.3-2.3,2.7-5.8,1-8.5l-2.1-3.5c-1.3-2.2-1.3-5,0-7.3c0.3-0.4,0.5-0.9,0.8-1.3
		c1.3-2.3,3.6-3.7,6.3-3.6l4.1,0.1c3.2,0,6-2.1,6.9-5.2c0,0,0-0.1,0-0.1C659.5,390.4,658.1,387.2,655.3,385.6z M595.2,416
		c-21.8,0-39.4-17.6-39.4-39.4c0-21.8,17.6-39.4,39.4-39.4c21.8,0,39.4,17.6,39.4,39.4C634.6,398.3,617,416,595.2,416z"/>
</g>
<g id="Layer_2_00000041999559371277330950000009057528216574199203_">
</g>
<path class="st2" d="M925.1,779.5c0,0,0.1-72.7-79.5-37.3c0,0-17.5-62.6-63.3-59.6S732,744.8,732,744.8s-62.8-31.9-96.5,32.8
	L925.1,779.5z"/>
<path class="st3" d="M791,776.9l-1.9-0.3c5.3-37.9-15.1-65-15.3-65.3l1.6-1.2C775.5,710.4,796.4,738.2,791,776.9z"/>
<path class="st3" d="M791.7,753.7l-1.6-1.2c0.2-0.3,18.8-25.9,22-42l1.9,0.4C810.7,727.5,792.5,752.6,791.7,753.7z"/>
<path class="st3" d="M790.8,767.1c-14.5-0.9-27.4-18.1-27.9-18.8l1.6-1.2c0.1,0.2,12.8,17.2,26.5,18L790.8,767.1z"/>
<path class="st3" d="M837.4,776.7l2.7-1.9c0.2-0.2,25.5-18,52.4-19.3l0.1,2c-21.1,1-41.2,12.4-48.5,17l26.2-0.9l0.1,2L837.4,776.7z"
	/>
<path class="st3" d="M858.2,766.4l-1.9-0.6c4.1-12.1,12.9-23.5,13.2-24l1.6,1.2C871,743.1,862.2,754.7,858.2,766.4z"/>
<path class="st3" d="M731.5,776.3c-0.2-0.2-19.7-16.6-41.6-24.2l0.7-1.9c22.2,7.8,42,24.4,42.2,24.6L731.5,776.3z"/>
<path class="st3" d="M680.7,770.6l-0.9-1.8c0.6-0.3,14.3-7.2,39.7-3.7l-0.3,2C694.5,763.7,680.8,770.5,680.7,770.6z"/>
<path class="st4" d="M987.6,776.2H0v36.2h987.7L987.6,776.2L987.6,776.2z"/>
<g>
	<path class="st5" d="M810.2,702.4c6.7,7.2,19.3,31.8,19.3,31.8l-16.1,11.7c0,0-1.4-5.5-3.9-4.4s-1.1,7.9-4.5,10.3
		c-3.3,2.4-36,26.2-36,26.2s-10.2-9.6-5.9-18.2c3.8-7.6,21.5-26.2,11.5-49.8c-1.3-3.1-2.8-6.3-4.6-9.6l23-21.4c0,0,2.8,6.4,6.6,12.9
		C801.9,695.3,807.8,699.8,810.2,702.4z"/>
	<path class="st6" d="M770.2,700.3l23-21.4c0,0,2.8,6.4,6.6,12.9l-25,18.2C773.5,706.9,772,703.7,770.2,700.3z"/>
</g>
<path class="st7" d="M211.6,171.7h197.9v45h-23.3l12.2,28.6L355,216.7H211.6V171.7z"/>
<path class="st8" d="M862.3,359.5c-1,1.3-2.2,2.3-3.5,3c-10.7,5.9-29.8-6.9-38.5-6.5c-9.8,0.5-14.5,13.3-37.6,4.2
	c-23.1-9.1-17.7-45-16.3-58.6c1.4-13.5-7-20.3-21.5-19.8s-29.7-7.5-23.1-30.3c6.6-22.9-12-34.8-23-30.8c-11.1,4.1-5.1-15.4-5.1-15.4
	s9.5-13.5,28.2-11.5c5.9,0.6,10.1,2.5,13.3,5.2l0,0c0.7,0.6,1.4,1.3,2.1,2c0,0,0,0,0,0.1c5.4,5.9,7.5,14.1,10.9,20.3
	c5.6,10.3,14.9,9.6,29.4,5.1c14.5-4.4,43.6-2.4,49.9,21.8s-10.5,52.4,19.6,59.4C877.2,314.7,871.6,347.4,862.3,359.5z"/>
<path class="st9" d="M694.7,203.4c0,0,8.7,5.8,7.7,17.4c0,0,0,3.4-3.8,1.6c-3.8-1.7-7-14.4-6.6-17.1
	C692.4,202.7,693.8,203.1,694.7,203.4z"/>
<path class="st8" d="M691.1,255.5c-13.4,11.7-19.9,10.8-23.8,5.1c-1.5-2.1-5.5-7.4-10-13.2c-7.6-9.7-16.4-20.9-16.4-20.9
	s-14-0.9-14.3-11.7c-0.1-2.1,0.3-4.1,1.2-6.2c3.5-8.5,14.4-15.9,29.6-17.1c18.8-1.6,35.9,7.8,40.9,20.8
	C703.2,225.5,704.4,243.8,691.1,255.5z"/>
<g class="st10">
	<path class="st11" d="M657.2,247.4c-7.6-9.7-16.4-20.9-16.4-20.9s-14-0.9-14.3-11.7c-0.1-2.1,0.3-4.1,1.2-6.2
		c2.8-4.4,8-8.1,17.8-6.9c21,2.6,11.2,37.7,16.4,41.4C663.8,244.6,661.3,246.1,657.2,247.4z"/>
</g>
<path class="st12" d="M582.8,463.3c0,0-7.4,2.2-11.1,4.9c-3.7,2.8-12.5,7-12.7,8.5c-0.2,1.4,7.5-0.8,10.5-2s2.5,1.7-1.2,5.2
	s-5.2,5.1-9.5,8.4s-4.8,4.8-3.2,5.3c1.7,0.6,3.2-0.5,3.2-0.5s-3.9,2.9-2.3,4.6s6.3-1.8,6.3-1.8s-1.3,2.4,1.9,2.3
	c3.3-0.1,4.4-1.5,8.2-2.7c3.8-1.1,15.5-13.4,18.2-17.6c2.7-4.3,4.1-8,4.1-8L582.8,463.3z"/>
<path class="st9" d="M662.9,362.5c0,0,7.1,35.5-10.3,55.4c-17.4,19.9-57,56.3-57,56.3L581,462.8c0,0,35.7-47.2,40.6-65.4
	c1.1-3.9,2-11.3,2-11.3L662.9,362.5z"/>
<path class="st12" d="M612.5,458.1c0,0-1.1-4.1,0.5-7.7s9.4,7.2,9.4,7.2l2.1,9L612.5,458.1z"/>
<path class="st13" d="M810.2,674.4l-51,34.8c0,0-26.7-32.8-50.3-63c-15.8-20.1-30.2-39.1-34.5-46.3c-8.5-14.6-20.7-72.2-25.1-93.8
	c-1-5.1-1.6-8.2-1.6-8.2l6.2-17.5l12.1-34.1l0.9-2.5c0,0,8.8-4.5,18.5-6.9c2.6-0.6,5.3-1.1,7.8-1.4c8-0.7,15.2,1.2,17.5,9.3
	c0.1,0.5,0.2,1,0.3,1.5c0.4,2.4,0.9,5.5,1.5,9.1c4.4,30.6,10.6,98.1,12.5,105.7C727.3,569.6,810.2,674.4,810.2,674.4z"/>
<path class="st14" d="M708.9,646.2c-15.8-20.1-30.2-39.1-34.5-46.3c-8.5-14.6-20.7-72.2-25.1-93.8c1.2-4.8,2.1-8,2.6-8.7
	c2.6-3.9,60.7-42,60.7-42s2.4,34.1-9.1,55.8s-21.4,37.7-12.2,61.1c9.2,23.4-10.5,36.9,5.3,50C705.7,629.9,708.3,639.5,708.9,646.2z"
	/>
<g>
	<path class="st5" d="M612.5,738.3c1.2,9.7-3,37.1-3,37.1h-19.9c0,0,2.1-5.3-0.5-5.8c-2.6-0.6-5.6,5.8-9.7,5.8c-4.1,0-44.5,0-44.5,0
		s-2.6-13.7,5.9-18.1c7.5-3.9,32.8-8.5,38.6-33.5c0.8-3.2,1.4-6.7,1.9-10.5l31.2-3.8c0,0-1.5,6.8-2.2,14.3
		C609.9,727.7,612.1,734.8,612.5,738.3z"/>
	<path class="st6" d="M581.3,713.1l31.2-3.8c0,0-1.5,6.8-2.2,14.3h-30.9C580.2,720.3,580.8,716.8,581.3,713.1z"/>
</g>
<path class="st13" d="M639.6,429.5c0,0-44.8,105.1-57.8,148.7c-13.1,43.5-33,137.5-33,137.5h68.4c0,0,26.7-127.5,38.6-148.1
	c11.8-20.5,56-95.2,49.1-121.9C698.1,418.9,639.6,429.5,639.6,429.5z"/>
<path class="st14" d="M712.6,455.4l-20.8,53.9l-67.3-42.7l41.5-20.2l19.4-9.5l5.4-2.7l2.4,1.3l17.5,9.3c0.1,0.5,0.2,1,0.3,1.5
	C711.6,448.7,712.1,451.8,712.6,455.4z"/>
<path class="st9" d="M677.5,287.7c0,0-16.2,6.8-29.9,25.5s-29.9,53.4-31.1,60c-1.2,6.6,10.7,59,10.6,72.5c0,13.5,63.7,8.5,81.7-0.2
	c0,0-7.1-49.6-7.1-56.4s0.6-52.9-3.1-74C695,293.9,677.5,287.7,677.5,287.7z"/>
<path class="st15" d="M673.7,336.5c0,0-2.6,17,0,29.8s-17.4,5-24.4,31.1c-6.9,26.1,52.4,13.4,52.4,13.4s16.3-25.1,16.5-29.4
	C718.3,377.2,673.7,336.5,673.7,336.5z"/>
<path class="st12" d="M677.5,287.7c0,0-31.3,32.1-28.5,23.7c1.5-4.7-1.1-15.8-3.8-24.9c-2.2-7.4-4.4-13.4-4.4-13.4s6-6.1,12.3-11.3
	c6.7-5.5,13.6-10,14.1-5.2C668.1,266.1,677.5,287.7,677.5,287.7z"/>
<path class="st16" d="M596.6,352.4l-35.2,75.9l130.9,60.8l35.2-75.9L596.6,352.4z"/>
<path class="st17" d="M600.9,364L573,424l115.1,53.4l27.9-60L600.9,364z"/>
<path class="st16" d="M584.8,430.6l47.2-33.2l5.1,57.5L584.8,430.6z"/>
<path class="st16" d="M634.7,453.9l36.5-25.7l4,44.5L634.7,453.9z"/>
<path class="st16" d="M663.1,411.2c2.1-4.2,0.5-9.4-3.8-11.5c-4.2-2.1-9.4-0.5-11.5,3.8c-2.1,4.2-0.5,9.4,3.8,11.5
	C655.8,417.2,660.9,415.5,663.1,411.2z"/>
<path class="st12" d="M636.9,441.6c0,0-6.1,0.9-10.4,2c-4.3,1.1-12.8,0.5-13.8,2.5s9.5,3.7,12.1,3.9c2.6,0.2-4,3.8-7.7,4.9
	c-3.7,1-6.6,2.5-2.8,5.9s9.7,8.6,12.2,9s14.5-8.7,21.1-15.5S636.9,441.6,636.9,441.6z"/>
<path class="st9" d="M678.2,299.2c-11.7,9-7.2,32-1.2,47c5.9,14.9,22.7,42.3,21.5,44.8S635,440.7,635,440.7l12.8,16.1
	c0,0,59.1-29.7,73.7-40.3c14.6-10.6,15.8-22.1,11.5-37C728.5,364.5,703.4,279.9,678.2,299.2z"/>
<g>
	<path class="st11" d="M862.3,359.5c-1,1.3-2.2,2.3-3.5,3c10.4-12.3,2.8-28.7-23.9-28.4c-26.6,0.3-33.8-22.7-18.1-60.8
		s-24-41.1-40.8-32.5c-16.8,8.5-33.9,0.7-33.2-17.8c0.5-12.4-3.2-18.9-5.7-21.9c5.4,5.9,7.5,14.1,10.9,20.3
		c5.6,10.3,14.9,9.6,29.4,5.1c14.5-4.4,43.6-2.4,49.9,21.8s-10.5,52.4,19.6,59.4C877.2,314.7,871.6,347.4,862.3,359.5z"/>
</g>
<path class="st6" d="M662,260.3c0,0-4.7,17.2-16.8,26.2c-2.2-7.4-4.4-13.5-4.4-13.5s6-6.1,12.3-11.3L662,260.3z"/>
<path class="st12" d="M641.8,215.8c0,0-8.4,20.8-16.3,24.9c-7.9,4-2.6,5,0,9.5c2.7,4.5-7.5,18.5,1.2,24.9s28.9-4,35.3-14.8
	c0,0,11,0.5,13.7-7.9c2.6-8.4-5.9-13.7-10.9-10s-5.6-4-7.8-15.7C654.8,215.1,642.8,213.4,641.8,215.8z"/>
<g>
	<path class="st18" d="M302.5,713.9c-11-21-24.3-36.1-46-53.1c-21.6-17-50-17.1-61.5-22.5c-11.6-5.5-11.9,9.7-8.3,23.9
		c3.6,14.2-7.3,79.9,58.4,100.7C310.9,783.8,310.7,729.4,302.5,713.9z"/>
	<path class="st19" d="M261,728.1c-0.5,0-0.9-0.4-1-0.9c-3.2-23.2,8.4-46.2,8.5-46.4c0.2-0.5,0.8-0.7,1.3-0.4
		c0.5,0.2,0.7,0.8,0.4,1.3c-0.1,0.2-11.3,22.6-8.3,45.2c0.1,0.5-0.3,1-0.8,1.1C261.1,728.1,261.1,728.1,261,728.1z"/>
	<path class="st19" d="M261.2,730.7c-0.2,0-0.3,0-0.5-0.1c-19.6-10.3-53.6-6.6-54-6.6c-0.5,0.1-1-0.3-1.1-0.9
		c-0.1-0.5,0.3-1,0.9-1.1c1.4-0.2,35-3.8,55.1,6.8c0.5,0.2,0.7,0.9,0.4,1.3C261.9,730.5,261.5,730.7,261.2,730.7z"/>
	<path class="st19" d="M267.3,749.6c-0.4,0-0.9-0.3-1-0.8c-14.1-58.3-70-99.5-70.6-99.9c-0.4-0.3-0.5-0.9-0.2-1.4s0.9-0.5,1.4-0.2
		c0.6,0.4,57.1,42,71.4,101c0.1,0.5-0.2,1.1-0.7,1.2C267.5,749.5,267.4,749.6,267.3,749.6z"/>
	<path class="st19" d="M240.9,694.9c-0.2,0-0.4-0.1-0.6-0.2c-12.8-10.2-43.6-7.6-43.9-7.5c-0.6,0.1-1-0.4-1.1-0.9s0.3-1,0.9-1.1
		c1.3-0.1,32-2.8,45.3,7.9c0.4,0.3,0.5,1,0.2,1.4C241.5,694.8,241.2,694.9,240.9,694.9z"/>
	<path class="st19" d="M230.7,681.9c-0.4,0-0.7-0.2-0.9-0.6c-4-9.5-1.9-25.6-1.8-26.3c0.1-0.5,0.6-0.9,1.1-0.8
		c0.5,0.1,0.9,0.6,0.8,1.1c0,0.2-2.1,16.2,1.7,25.3c0.2,0.5,0,1.1-0.5,1.3C230.9,681.9,230.8,681.9,230.7,681.9z"/>
	<path class="st2" d="M130.7,774.8c-1.9-19.7,16-49.3,73.2-30.1c0,0,14.5-45.2,54.2-43.7c39.8,1.5,52.4,38.7,52.4,38.7
		s53.4-6.5,61.1,38.7C371.6,778.5,133.4,803.2,130.7,774.8z"/>
	<path class="st3" d="M249.4,778.2l-1.9-0.3c5.2-32-14.7-55-14.9-55.2l1.5-1.3C234.3,721.6,254.7,745.3,249.4,778.2z"/>
	<path class="st3" d="M250.1,758.6l-1.5-1.3c0.2-0.2,18.3-21.9,21.4-35.5l1.9,0.4C268.7,736.3,250.8,757.7,250.1,758.6z"/>
	<path class="st3" d="M249.8,769.7c-14.2-0.8-26.7-15.4-27.2-16l1.5-1.3c0.1,0.2,12.5,14.6,25.8,15.3L249.8,769.7z"/>
	<path class="st3" d="M294.5,779l-1.3-1.5c1-0.9,25.2-21.7,37.8-22l0.1,2C319.2,757.8,294.7,778.8,294.5,779z"/>
	<path class="st3" d="M341.8,774.9c-0.2,0-19.5-1.2-35.1-5.2l0.5-1.9c15.4,4,34.5,5.1,34.7,5.2L341.8,774.9z"/>
	<path class="st3" d="M198.1,777.8c-12.7-10.6-39.6-19.1-39.9-19.2l0.6-1.9c1.1,0.3,27.5,8.7,40.6,19.5L198.1,777.8z"/>
	<path class="st3" d="M188.2,769.6l-2-0.1c0.3-10.8-4.4-19.2-4.4-19.3l1.7-1C183.7,749.7,188.5,758.3,188.2,769.6z"/>
</g>
<path class="st15" d="M676.2,283.7c0,0-10.7,12.1-27.4,18.8l-2.2,12.4c0,0,15.6-4.8,31-27.1L676.2,283.7z"/>
<g>
	<g>
		<path class="st17" d="M236.6,195.7c0-0.4-0.1-0.7-0.2-1c-0.2-0.3-0.5-0.5-0.9-0.8c-0.4-0.2-1.1-0.5-1.9-0.8
			c-1-0.3-1.8-0.7-2.6-1.1c-0.8-0.4-1.4-0.9-1.9-1.5s-0.7-1.4-0.7-2.3c0-0.9,0.2-1.6,0.7-2.3s1.2-1.2,2.1-1.5c0.9-0.4,1.9-0.5,3-0.5
			c1.2,0,2.2,0.2,3,0.6c0.9,0.4,1.5,1,2,1.7s0.7,1.6,0.7,2.5h-3.2c0-0.5-0.1-0.9-0.3-1.2s-0.5-0.6-0.9-0.8s-0.9-0.3-1.4-0.3
			c-0.6,0-1,0.1-1.4,0.3s-0.7,0.4-0.8,0.7c-0.2,0.3-0.3,0.6-0.3,1s0.1,0.7,0.4,0.9c0.2,0.3,0.6,0.5,1,0.7s1,0.4,1.7,0.6
			c1.1,0.3,2.1,0.7,2.9,1.2c0.8,0.5,1.4,1,1.7,1.6c0.4,0.6,0.6,1.4,0.6,2.2c0,0.9-0.2,1.7-0.7,2.3s-1.1,1.1-2,1.5s-1.8,0.5-3,0.5
			c-0.8,0-1.5-0.1-2.3-0.3s-1.4-0.5-2-0.9s-1.1-0.9-1.5-1.6s-0.5-1.4-0.5-2.3h3.2c0,0.5,0.1,0.9,0.2,1.2c0.2,0.3,0.4,0.6,0.6,0.8
			c0.3,0.2,0.6,0.4,1,0.5s0.8,0.1,1.3,0.1c0.6,0,1-0.1,1.4-0.2c0.4-0.2,0.6-0.4,0.8-0.7C236.5,196.4,236.6,196.1,236.6,195.7z"/>
		<path class="st17" d="M241.3,194.1v-0.2c0-1.1,0.2-2.1,0.6-3s1.1-1.6,1.9-2.1s1.8-0.8,3-0.8s2.2,0.3,3,0.8s1.5,1.2,1.9,2.1
			s0.6,1.9,0.6,3v0.2c0,1.1-0.2,2.1-0.6,3s-1.1,1.6-1.9,2.1c-0.8,0.5-1.8,0.8-3,0.8s-2.2-0.3-3-0.8s-1.4-1.2-1.9-2.1
			S241.3,195.2,241.3,194.1z M244.4,193.9v0.2c0,0.6,0.1,1.2,0.2,1.8c0.2,0.5,0.4,1,0.8,1.3c0.4,0.3,0.8,0.5,1.4,0.5
			c0.6,0,1-0.2,1.4-0.5s0.6-0.7,0.8-1.3c0.2-0.5,0.2-1.1,0.2-1.8v-0.2c0-0.6-0.1-1.2-0.2-1.7c-0.2-0.5-0.4-1-0.8-1.3
			c-0.4-0.3-0.8-0.5-1.4-0.5c-0.6,0-1,0.2-1.4,0.5s-0.6,0.7-0.8,1.3C244.5,192.7,244.4,193.2,244.4,193.9z"/>
		<path class="st17" d="M257.5,183.3v16.5h-3.1v-16.5H257.5z"/>
		<path class="st17" d="M260,185.1c0-0.5,0.2-0.8,0.5-1.1s0.7-0.4,1.3-0.4c0.5,0,0.9,0.1,1.3,0.4c0.3,0.3,0.5,0.7,0.5,1.1
			s-0.2,0.8-0.5,1.1s-0.7,0.4-1.3,0.4c-0.5,0-1-0.1-1.3-0.4C260.2,186,260,185.6,260,185.1z M263.3,188.2v11.6h-3.1v-11.6H263.3z"/>
		<path class="st17" d="M265.4,194.1v-0.2c0-1.2,0.2-2.2,0.5-3.1c0.4-0.9,0.9-1.6,1.5-2.1c0.7-0.5,1.5-0.7,2.5-0.7
			c0.9,0,1.7,0.3,2.3,0.8s1.1,1.2,1.4,2.1c0.4,0.9,0.6,1.9,0.7,3v0.5c-0.1,1.1-0.4,2-0.7,2.9c-0.4,0.9-0.8,1.5-1.5,2.1
			s-1.4,0.8-2.3,0.8c-1,0-1.8-0.3-2.5-0.8s-1.2-1.2-1.5-2.1C265.6,196.3,265.4,195.2,265.4,194.1z M268.5,193.9v0.2
			c0,0.6,0.1,1.2,0.2,1.7c0.1,0.5,0.4,0.9,0.7,1.2s0.8,0.5,1.3,0.5s1-0.1,1.3-0.4c0.3-0.2,0.6-0.6,0.8-1s0.3-0.9,0.3-1.5v-1.4
			c0-0.5-0.1-0.9-0.2-1.2c-0.1-0.4-0.3-0.7-0.5-0.9c-0.2-0.3-0.4-0.5-0.7-0.6s-0.6-0.2-1-0.2c-0.5,0-1,0.2-1.3,0.5s-0.6,0.7-0.7,1.3
			C268.6,192.6,268.5,193.2,268.5,193.9z M272.8,197.3v-14h3.1v16.5h-2.8L272.8,197.3z"/>
		<path class="st17" d="M287.2,184.2v15.6H284v-15.6H287.2z M294.2,184.2v2.5h-7.9v-2.5H294.2z M293.5,190.8v2.5h-7.1v-2.5H293.5z"
			/>
		<path class="st17" d="M295.4,194.1v-0.2c0-1.1,0.2-2.1,0.6-3s1.1-1.6,1.9-2.1s1.8-0.8,3-0.8s2.2,0.3,3,0.8s1.5,1.2,1.9,2.1
			s0.6,1.9,0.6,3v0.2c0,1.1-0.2,2.1-0.6,3s-1.1,1.6-1.9,2.1c-0.8,0.5-1.8,0.8-3,0.8s-2.2-0.3-3-0.8s-1.4-1.2-1.9-2.1
			S295.4,195.2,295.4,194.1z M298.5,193.9v0.2c0,0.6,0.1,1.2,0.2,1.8c0.2,0.5,0.4,1,0.8,1.3c0.4,0.3,0.8,0.5,1.4,0.5
			c0.6,0,1-0.2,1.4-0.5s0.6-0.7,0.8-1.3c0.2-0.5,0.2-1.1,0.2-1.8v-0.2c0-0.6-0.1-1.2-0.2-1.7c-0.2-0.5-0.4-1-0.8-1.3
			c-0.4-0.3-0.8-0.5-1.4-0.5c-0.6,0-1,0.2-1.4,0.5s-0.6,0.7-0.8,1.3C298.6,192.7,298.5,193.2,298.5,193.9z"/>
		<path class="st17" d="M315.5,194.6h0.9c0,1-0.2,2-0.5,2.8s-0.8,1.5-1.4,1.9c-0.6,0.5-1.5,0.7-2.4,0.7c-1.1,0-2.1-0.3-2.8-1
			s-1.1-1.8-1.1-3.3v-7.5h3.1v7.5c0,0.5,0.1,0.8,0.2,1.1c0.1,0.3,0.3,0.5,0.6,0.6s0.5,0.2,0.9,0.2c0.6,0,1.1-0.1,1.5-0.4
			c0.4-0.3,0.6-0.6,0.8-1.1C315.5,195.7,315.5,195.2,315.5,194.6z M315.2,197v-8.8h3.1v11.6h-2.9L315.2,197z"/>
		<path class="st17" d="M323.7,190.7v9.1h-3.1v-11.6h2.9L323.7,190.7z M323.2,193.6h-0.8c0-1.1,0.2-2.1,0.6-3
			c0.4-0.8,0.9-1.5,1.6-1.9c0.7-0.5,1.5-0.7,2.4-0.7c0.7,0,1.4,0.1,1.9,0.4c0.6,0.3,1,0.7,1.3,1.4c0.3,0.6,0.5,1.5,0.5,2.6v7.4h-3.1
			v-7.4c0-0.5-0.1-0.9-0.2-1.2c-0.1-0.3-0.4-0.5-0.6-0.6c-0.3-0.1-0.6-0.2-1-0.2s-0.8,0.1-1.1,0.2c-0.3,0.2-0.6,0.4-0.8,0.7
			s-0.3,0.6-0.4,1C323.3,192.7,323.2,193.1,323.2,193.6z"/>
		<path class="st17" d="M332.5,194.1v-0.2c0-1.2,0.2-2.2,0.5-3.1c0.4-0.9,0.9-1.6,1.5-2.1c0.7-0.5,1.5-0.7,2.5-0.7
			c0.9,0,1.7,0.3,2.3,0.8s1.1,1.2,1.4,2.1c0.4,0.9,0.6,1.9,0.7,3v0.5c-0.1,1.1-0.4,2-0.7,2.9c-0.4,0.9-0.8,1.5-1.5,2.1
			s-1.4,0.8-2.3,0.8c-1,0-1.8-0.3-2.5-0.8s-1.2-1.2-1.5-2.1C332.7,196.3,332.5,195.2,332.5,194.1z M335.6,193.9v0.2
			c0,0.6,0.1,1.2,0.2,1.7c0.1,0.5,0.4,0.9,0.7,1.2s0.8,0.5,1.3,0.5s1-0.1,1.3-0.4c0.3-0.2,0.6-0.6,0.8-1s0.3-0.9,0.3-1.5v-1.4
			c0-0.5-0.1-0.9-0.2-1.2c-0.1-0.4-0.3-0.7-0.5-0.9c-0.2-0.3-0.4-0.5-0.7-0.6s-0.6-0.2-1-0.2c-0.5,0-1,0.2-1.3,0.5s-0.6,0.7-0.7,1.3
			C335.6,192.6,335.6,193.2,335.6,193.9z M339.8,197.3v-14h3.1v16.5h-2.8L339.8,197.3z"/>
		<path class="st17" d="M352,192.7v1.8h-1.7c-0.8,0-1.4,0.2-1.8,0.5c-0.4,0.3-0.6,0.8-0.6,1.3c0,0.4,0.1,0.7,0.4,1
			c0.3,0.3,0.6,0.4,1.1,0.4s0.9-0.1,1.2-0.3s0.6-0.4,0.8-0.7s0.3-0.5,0.3-0.8l0.8,1.3c-0.1,0.3-0.3,0.6-0.5,0.9
			c-0.2,0.3-0.4,0.6-0.7,0.9c-0.3,0.3-0.7,0.5-1.1,0.7c-0.4,0.2-0.9,0.3-1.5,0.3c-0.7,0-1.4-0.1-2-0.4c-0.6-0.3-1.1-0.7-1.4-1.2
			c-0.3-0.5-0.5-1.1-0.5-1.8c0-1.2,0.5-2.1,1.4-2.8s2.2-1,4-1L352,192.7L352,192.7z M351.6,197.2V192c0-0.6-0.1-1-0.4-1.3
			c-0.3-0.3-0.7-0.5-1.3-0.5c-0.3,0-0.6,0.1-0.9,0.2c-0.3,0.1-0.4,0.3-0.6,0.5c-0.1,0.2-0.2,0.5-0.2,0.8h-3.1c0-0.7,0.2-1.3,0.6-1.8
			c0.4-0.6,1-1,1.7-1.3s1.6-0.5,2.6-0.5c0.9,0,1.7,0.2,2.4,0.5s1.3,0.8,1.7,1.4c0.4,0.6,0.6,1.4,0.6,2.3v5c0,0.6,0,1.2,0.1,1.6
			c0.1,0.4,0.2,0.8,0.3,1.1v0.2H352c-0.2-0.3-0.3-0.7-0.3-1.2C351.7,198.1,351.6,197.7,351.6,197.2z"/>
		<path class="st17" d="M362.8,188.2v2.2H356v-2.2H362.8z M357.7,185.3h3.1v11c0,0.3,0,0.6,0.1,0.8s0.2,0.3,0.4,0.4
			c0.2,0.1,0.4,0.1,0.7,0.1c0.2,0,0.4,0,0.5,0c0.2,0,0.3,0,0.4-0.1v2.3c-0.3,0.1-0.6,0.2-0.9,0.2c-0.3,0-0.6,0.1-1,0.1
			c-0.7,0-1.3-0.1-1.8-0.3s-0.9-0.6-1.2-1.1s-0.4-1.2-0.4-2v-11.4H357.7z"/>
		<path class="st17" d="M364.5,185.1c0-0.5,0.2-0.8,0.5-1.1s0.7-0.4,1.3-0.4c0.5,0,0.9,0.1,1.3,0.4c0.3,0.3,0.5,0.7,0.5,1.1
			s-0.2,0.8-0.5,1.1s-0.7,0.4-1.3,0.4c-0.5,0-1-0.1-1.3-0.4C364.7,186,364.5,185.6,364.5,185.1z M367.8,188.2v11.6h-3.1v-11.6H367.8
			z"/>
		<path class="st17" d="M369.9,194.1v-0.2c0-1.1,0.2-2.1,0.6-3s1.1-1.6,1.9-2.1s1.8-0.8,3-0.8s2.2,0.3,3,0.8s1.5,1.2,1.9,2.1
			s0.6,1.9,0.6,3v0.2c0,1.1-0.2,2.1-0.6,3s-1.1,1.6-1.9,2.1c-0.8,0.5-1.8,0.8-3,0.8s-2.2-0.3-3-0.8s-1.4-1.2-1.9-2.1
			S369.9,195.2,369.9,194.1z M373,193.9v0.2c0,0.6,0.1,1.2,0.2,1.8c0.2,0.5,0.4,1,0.8,1.3c0.4,0.3,0.8,0.5,1.4,0.5
			c0.6,0,1-0.2,1.4-0.5s0.6-0.7,0.8-1.3c0.2-0.5,0.2-1.1,0.2-1.8v-0.2c0-0.6-0.1-1.2-0.2-1.7c-0.2-0.5-0.4-1-0.8-1.3
			c-0.4-0.3-0.8-0.5-1.4-0.5c-0.6,0-1,0.2-1.4,0.5s-0.6,0.7-0.8,1.3C373.1,192.7,373,193.2,373,193.9z"/>
		<path class="st17" d="M385.8,190.7v9.1h-3.1v-11.6h2.9L385.8,190.7z M385.4,193.6h-0.8c0-1.1,0.2-2.1,0.6-3
			c0.4-0.8,0.9-1.5,1.6-1.9c0.7-0.5,1.5-0.7,2.4-0.7c0.7,0,1.4,0.1,1.9,0.4c0.6,0.3,1,0.7,1.3,1.4c0.3,0.6,0.5,1.5,0.5,2.6v7.4h-3.1
			v-7.4c0-0.5-0.1-0.9-0.2-1.2c-0.1-0.3-0.4-0.5-0.6-0.6c-0.3-0.1-0.6-0.2-1-0.2s-0.8,0.1-1.1,0.2c-0.3,0.2-0.6,0.4-0.8,0.7
			s-0.3,0.6-0.4,1C385.4,192.7,385.4,193.1,385.4,193.6z"/>
	</g>
</g>
<path class="st7" d="M273,390.8h143.3l43.4-28.6l-12.2,28.6h23.3v45H273V390.8z"/>
<path class="st7" d="M263.3,85.4h333.9v45h-23.3l12.2,28.6l-43.4-28.6H263.3V85.4z"/>
<path class="st7" d="M138.8,328.3h93.4l43.4-28.6l-12.2,28.6h23.3v45h-148v-45H138.8z"/>
<g>
	<g>
		<path class="st17" d="M311.3,402.9v15.6h-3.2v-15.6H311.3z M312.9,418.5h-3.4V416h3.4c0.8,0,1.6-0.2,2.1-0.6
			c0.6-0.4,1-0.9,1.3-1.7c0.3-0.7,0.4-1.6,0.4-2.7v-0.8c0-1.1-0.2-2-0.5-2.7s-0.7-1.3-1.3-1.7c-0.6-0.4-1.3-0.6-2.1-0.6h-3.5v-2.5
			h3.5c1.4,0,2.6,0.3,3.7,0.9s1.9,1.5,2.5,2.6s0.9,2.4,0.9,3.9v0.7c0,1.5-0.3,2.8-0.9,3.9c-0.6,1.1-1.4,2-2.5,2.6
			C315.5,418.2,314.3,418.5,312.9,418.5z"/>
		<path class="st17" d="M327.5,418.7c-1.2,0-2.2-0.3-3.1-0.8c-0.9-0.5-1.5-1.2-2-2s-0.7-1.8-0.7-2.8v-0.4c0-1.2,0.2-2.2,0.7-3.1
			c0.4-0.9,1.1-1.6,1.9-2.1c0.8-0.5,1.8-0.8,2.9-0.8c1.1,0,2,0.2,2.8,0.7s1.3,1.1,1.7,2s0.6,1.8,0.6,3v1.3h-9.2v-2.1h6.2v-0.2
			c0-0.4-0.1-0.8-0.2-1.2c-0.2-0.3-0.4-0.6-0.7-0.8c-0.3-0.2-0.7-0.3-1.2-0.3s-1,0.2-1.3,0.5s-0.6,0.7-0.7,1.3
			c-0.2,0.5-0.2,1.2-0.2,1.8v0.4c0,0.6,0.1,1.2,0.3,1.7s0.6,0.9,1,1.1c0.4,0.3,0.9,0.4,1.5,0.4s1.1-0.1,1.6-0.3
			c0.5-0.2,0.9-0.5,1.3-1l1.5,1.6c-0.4,0.5-0.9,1-1.7,1.5C329.6,418.5,328.7,418.7,327.5,418.7z"/>
		<path class="st17" d="M336.2,406.9l2.6,9.4l0.1,2.2h-2l-3.9-11.6H336.2z M338,416.3l2.6-9.4h3.2l-3.9,11.6h-2L338,416.3z"/>
		<path class="st17" d="M350.6,418.7c-1.2,0-2.2-0.3-3.1-0.8c-0.9-0.5-1.5-1.2-2-2s-0.7-1.8-0.7-2.8v-0.4c0-1.2,0.2-2.2,0.7-3.1
			c0.4-0.9,1.1-1.6,1.9-2.1c0.8-0.5,1.8-0.8,2.9-0.8c1.1,0,2,0.2,2.8,0.7s1.3,1.1,1.7,2s0.6,1.8,0.6,3v1.3h-9.2v-2.1h6.2v-0.2
			c0-0.4-0.1-0.8-0.2-1.2c-0.2-0.3-0.4-0.6-0.7-0.8c-0.3-0.2-0.7-0.3-1.2-0.3s-1,0.2-1.3,0.5s-0.6,0.7-0.7,1.3
			c-0.2,0.5-0.2,1.2-0.2,1.8v0.4c0,0.6,0.1,1.2,0.3,1.7s0.6,0.9,1,1.1c0.4,0.3,0.9,0.4,1.5,0.4s1.1-0.1,1.6-0.3
			c0.5-0.2,0.9-0.5,1.3-1l1.5,1.6c-0.4,0.5-0.9,1-1.7,1.5C352.6,418.5,351.7,418.7,350.6,418.7z"/>
		<path class="st17" d="M360.4,402v16.5h-3.2V402H360.4z"/>
		<path class="st17" d="M362.4,412.8v-0.2c0-1.1,0.2-2.1,0.6-3s1.1-1.6,1.9-2.1s1.8-0.8,3-0.8s2.2,0.3,3,0.8s1.5,1.2,1.9,2.1
			s0.6,1.9,0.6,3v0.2c0,1.1-0.2,2.1-0.6,3s-1.1,1.6-1.9,2.1c-0.8,0.5-1.8,0.8-3,0.8s-2.2-0.3-3-0.8s-1.4-1.2-1.9-2.1
			S362.4,414,362.4,412.8z M365.5,412.6v0.2c0,0.6,0.1,1.2,0.2,1.8c0.2,0.5,0.4,1,0.8,1.3c0.4,0.3,0.8,0.5,1.4,0.5
			c0.6,0,1-0.2,1.4-0.5s0.6-0.7,0.8-1.3c0.2-0.5,0.2-1.1,0.2-1.8v-0.2c0-0.6-0.1-1.2-0.2-1.7c-0.2-0.5-0.4-1-0.8-1.3
			c-0.4-0.3-0.8-0.5-1.4-0.5c-0.6,0-1,0.2-1.4,0.5s-0.6,0.7-0.8,1.3C365.6,411.4,365.5,412,365.5,412.6z"/>
		<path class="st17" d="M378.4,409.1V423h-3.1v-16.1h2.9L378.4,409.1z M385.8,412.6v0.2c0,1.1-0.2,2.1-0.5,3s-0.9,1.6-1.5,2.1
			c-0.7,0.5-1.5,0.8-2.5,0.8s-1.7-0.3-2.3-0.8s-1.1-1.2-1.4-2c-0.3-0.9-0.6-1.8-0.7-2.9v-0.6c0.1-1.1,0.4-2.1,0.7-3s0.8-1.6,1.4-2.1
			c0.6-0.5,1.4-0.7,2.3-0.7c1,0,1.8,0.2,2.5,0.7s1.2,1.2,1.5,2.1C385.6,410.4,385.8,411.4,385.8,412.6z M382.7,412.8v-0.2
			c0-0.7-0.1-1.2-0.2-1.8c-0.1-0.5-0.4-0.9-0.7-1.2c-0.3-0.3-0.8-0.5-1.3-0.5c-0.4,0-0.8,0.1-1.1,0.2s-0.5,0.3-0.7,0.6
			c-0.2,0.3-0.3,0.6-0.4,0.9c-0.1,0.4-0.2,0.8-0.2,1.2v1.5c0,0.5,0.1,1,0.3,1.4s0.4,0.8,0.8,1s0.8,0.4,1.4,0.4c0.5,0,1-0.2,1.3-0.5
			s0.6-0.7,0.7-1.3S382.7,413.5,382.7,412.8z"/>
		<path class="st17" d="M390.8,409.3v9.2h-3.1v-11.6h2.9L390.8,409.3z M390.4,412.3h-0.9c0-1.1,0.2-2,0.5-2.9c0.3-0.8,0.9-1.5,1.5-2
			c0.7-0.5,1.5-0.7,2.5-0.7s1.9,0.3,2.5,1c0.7,0.6,1,1.7,1,3.1v7.8h-3.1v-7.4c0-0.5-0.1-0.9-0.2-1.2c-0.1-0.3-0.3-0.5-0.6-0.6
			s-0.6-0.2-0.9-0.2c-0.4,0-0.8,0.1-1,0.2c-0.3,0.2-0.5,0.4-0.7,0.7s-0.3,0.6-0.4,1C390.4,411.4,390.4,411.9,390.4,412.3z
			 M397.3,412l-1.1,0.1c0-1,0.2-1.9,0.5-2.7c0.3-0.8,0.8-1.5,1.5-1.9s1.5-0.7,2.5-0.7c0.8,0,1.4,0.1,2,0.4s1,0.8,1.3,1.4
			s0.5,1.5,0.5,2.6v7.4h-3.1v-7.4c0-0.5-0.1-0.9-0.2-1.2c-0.1-0.3-0.3-0.5-0.6-0.6s-0.6-0.2-0.9-0.2c-0.4,0-0.7,0.1-1,0.2
			s-0.5,0.3-0.7,0.6c-0.2,0.3-0.3,0.6-0.4,0.9C397.3,411.2,397.3,411.6,397.3,412z"/>
		<path class="st17" d="M412.1,418.7c-1.2,0-2.2-0.3-3.1-0.8c-0.9-0.5-1.5-1.2-2-2s-0.7-1.8-0.7-2.8v-0.4c0-1.2,0.2-2.2,0.7-3.1
			c0.4-0.9,1.1-1.6,1.9-2.1c0.8-0.5,1.8-0.8,2.9-0.8c1.1,0,2,0.2,2.8,0.7s1.3,1.1,1.7,2s0.6,1.8,0.6,3v1.3h-9.2v-2.1h6.2v-0.2
			c0-0.4-0.1-0.8-0.2-1.2c-0.2-0.3-0.4-0.6-0.7-0.8c-0.3-0.2-0.7-0.3-1.2-0.3s-1,0.2-1.3,0.5s-0.6,0.7-0.7,1.3
			c-0.2,0.5-0.2,1.2-0.2,1.8v0.4c0,0.6,0.1,1.2,0.3,1.7s0.6,0.9,1,1.1c0.4,0.3,0.9,0.4,1.5,0.4s1.1-0.1,1.6-0.3
			c0.5-0.2,0.9-0.5,1.3-1l1.5,1.6c-0.4,0.5-0.9,1-1.7,1.5C414.2,418.5,413.2,418.7,412.1,418.7z"/>
		<path class="st17" d="M421.7,409.4v9.1h-3.1v-11.6h2.9L421.7,409.4z M421.2,412.3h-0.8c0-1.1,0.2-2.1,0.6-3
			c0.4-0.8,0.9-1.5,1.6-1.9s1.5-0.7,2.4-0.7c0.7,0,1.4,0.1,1.9,0.4c0.6,0.3,1,0.7,1.3,1.4c0.3,0.6,0.5,1.5,0.5,2.6v7.4h-3.1v-7.4
			c0-0.5-0.1-0.9-0.2-1.2c-0.1-0.3-0.4-0.5-0.6-0.6s-0.6-0.2-1-0.2s-0.8,0.1-1.1,0.2s-0.6,0.4-0.8,0.7s-0.3,0.6-0.4,1
			C421.3,411.4,421.2,411.9,421.2,412.3z"/>
		<path class="st17" d="M436.7,406.9v2.2h-6.8v-2.2H436.7z M431.6,404h3.1v11c0,0.3,0,0.6,0.1,0.8s0.2,0.3,0.4,0.4s0.4,0.1,0.7,0.1
			c0.2,0,0.4,0,0.5,0c0.2,0,0.3,0,0.4-0.1v2.3c-0.3,0.1-0.6,0.2-0.9,0.2c-0.3,0-0.6,0.1-1,0.1c-0.7,0-1.3-0.1-1.8-0.3
			s-0.9-0.6-1.2-1.1s-0.4-1.2-0.4-2V404H431.6z"/>
	</g>
</g>
<g>
	<g>
		<path class="st17" d="M164.5,340.2h2.7l0.5,11.2v4.4h-3.2V340.2z M166,340.2h2.7l4,11.5l4-11.5h2.7l-5.7,15.6h-2.2L166,340.2z
			 M178.2,340.2h2.7v15.6h-3.2v-4.4L178.2,340.2z"/>
		<path class="st17" d="M188.9,356.1c-1.2,0-2.2-0.3-3.1-0.8c-0.9-0.5-1.5-1.2-2-2c-0.5-0.9-0.7-1.8-0.7-2.8V350
			c0-1.2,0.2-2.2,0.7-3.1c0.4-0.9,1.1-1.6,1.9-2.1c0.8-0.5,1.8-0.8,2.9-0.8c1.1,0,2,0.2,2.8,0.7s1.3,1.1,1.7,2s0.6,1.8,0.6,3v1.3
			h-9.2v-2.1h6.2v-0.2c0-0.4-0.1-0.8-0.2-1.2c-0.2-0.3-0.4-0.6-0.7-0.8c-0.3-0.2-0.7-0.3-1.2-0.3s-1,0.2-1.3,0.5s-0.6,0.7-0.7,1.3
			c-0.2,0.5-0.2,1.2-0.2,1.8v0.4c0,0.6,0.1,1.2,0.3,1.7s0.6,0.9,1,1.1c0.4,0.3,0.9,0.4,1.5,0.4s1.1-0.1,1.6-0.3
			c0.5-0.2,0.9-0.5,1.3-1l1.5,1.6c-0.4,0.5-0.9,1-1.7,1.5C191,355.9,190,356.1,188.9,356.1z"/>
		<path class="st17" d="M198.5,346.7v9.1h-3.1v-11.6h2.9L198.5,346.7z M198,349.6h-0.8c0-1.1,0.2-2.1,0.6-3c0.4-0.8,0.9-1.5,1.6-1.9
			c0.7-0.5,1.5-0.7,2.4-0.7c0.7,0,1.4,0.1,1.9,0.4c0.6,0.3,1,0.7,1.3,1.4c0.3,0.6,0.5,1.5,0.5,2.6v7.4h-3.1v-7.4
			c0-0.5-0.1-0.9-0.2-1.2c-0.1-0.3-0.4-0.5-0.6-0.6c-0.3-0.1-0.6-0.2-1-0.2s-0.8,0.1-1.1,0.2c-0.3,0.2-0.6,0.4-0.8,0.7
			c-0.2,0.3-0.3,0.6-0.4,1C198.1,348.8,198,349.2,198,349.6z"/>
		<path class="st17" d="M213.5,344.2v2.2h-6.8v-2.2H213.5z M208.4,341.4h3.1v11c0,0.3,0,0.6,0.1,0.8c0.1,0.2,0.2,0.3,0.4,0.4
			s0.4,0.1,0.7,0.1c0.2,0,0.4,0,0.5,0c0.2,0,0.3,0,0.4-0.1v2.3c-0.3,0.1-0.6,0.2-0.9,0.2c-0.3,0-0.6,0.1-1,0.1
			c-0.7,0-1.3-0.1-1.8-0.3s-0.9-0.6-1.2-1.1s-0.4-1.2-0.4-2v-11.4H208.4z"/>
		<path class="st17" d="M214.7,350.2V350c0-1.1,0.2-2.1,0.6-3s1.1-1.6,1.9-2.1s1.8-0.8,3-0.8s2.2,0.3,3,0.8s1.5,1.2,1.9,2.1
			s0.6,1.9,0.6,3v0.2c0,1.1-0.2,2.1-0.6,3s-1.1,1.6-1.9,2.1c-0.8,0.5-1.8,0.8-3,0.8s-2.2-0.3-3-0.8s-1.4-1.2-1.9-2.1
			S214.7,351.3,214.7,350.2z M217.8,349.9v0.2c0,0.6,0.1,1.2,0.2,1.8c0.2,0.5,0.4,1,0.8,1.3c0.4,0.3,0.8,0.5,1.4,0.5
			c0.6,0,1-0.2,1.4-0.5s0.6-0.7,0.8-1.3c0.2-0.5,0.2-1.1,0.2-1.8v-0.2c0-0.6-0.1-1.2-0.2-1.7c-0.2-0.5-0.4-1-0.8-1.3
			c-0.4-0.3-0.8-0.5-1.4-0.5c-0.6,0-1,0.2-1.4,0.5s-0.6,0.7-0.8,1.3C217.9,348.7,217.8,349.3,217.8,349.9z"/>
		<path class="st17" d="M230.7,346.8v9.1h-3.1v-11.6h2.9L230.7,346.8z M234.2,344.2v2.8c-0.2,0-0.3,0-0.5-0.1c-0.2,0-0.4,0-0.6,0
			c-0.6,0-1.1,0.1-1.4,0.3c-0.4,0.2-0.7,0.5-0.8,0.8c-0.2,0.4-0.3,0.8-0.3,1.3l-0.6-0.2c0-1,0.1-1.9,0.4-2.7
			c0.3-0.8,0.6-1.4,1.2-1.9s1.1-0.7,1.9-0.7c0.2,0,0.3,0,0.5,0C234,344.1,234.1,344.1,234.2,344.2z"/>
		<path class="st17" d="M235.6,341.2c0-0.5,0.2-0.8,0.5-1.1c0.3-0.3,0.7-0.4,1.3-0.4c0.5,0,0.9,0.1,1.3,0.4c0.3,0.3,0.5,0.7,0.5,1.1
			s-0.2,0.8-0.5,1.1c-0.3,0.3-0.7,0.4-1.3,0.4c-0.5,0-1-0.1-1.3-0.4C235.8,342,235.6,341.7,235.6,341.2z M238.9,344.2v11.6h-3.1
			v-11.6H238.9z"/>
		<path class="st17" d="M244.5,346.7v9.1h-3.1v-11.6h2.9L244.5,346.7z M244.1,349.6h-0.9c0-1.1,0.2-2.1,0.6-3
			c0.4-0.8,0.9-1.5,1.6-1.9c0.7-0.5,1.5-0.7,2.4-0.7c0.7,0,1.4,0.1,1.9,0.4c0.6,0.3,1,0.7,1.3,1.4c0.3,0.6,0.5,1.5,0.5,2.6v7.4h-3.1
			v-7.4c0-0.5-0.1-0.9-0.2-1.2c-0.1-0.3-0.4-0.5-0.6-0.6c-0.3-0.1-0.6-0.2-1-0.2s-0.8,0.1-1.1,0.2c-0.3,0.2-0.6,0.4-0.8,0.7
			c-0.2,0.3-0.3,0.6-0.4,1C244.1,348.8,244.1,349.2,244.1,349.6z"/>
		<path class="st17" d="M253.4,350.2V350c0-1.2,0.2-2.2,0.6-3.1c0.4-0.9,0.9-1.6,1.6-2.1c0.7-0.5,1.5-0.7,2.5-0.7
			c0.8,0,1.4,0.1,1.9,0.4s1,0.7,1.3,1.2s0.6,1.1,0.8,1.9c0.2,0.7,0.3,1.5,0.4,2.3v0.5c-0.1,1.1-0.4,2-0.7,2.9s-0.8,1.5-1.4,2.1
			c-0.6,0.5-1.4,0.8-2.3,0.8c-1,0-1.8-0.3-2.5-0.8s-1.2-1.2-1.6-2.1C253.6,352.3,253.4,351.3,253.4,350.2z M261.2,344.2h2.8v11.2
			c0,1.1-0.2,2-0.7,2.7s-1.1,1.3-2,1.7c-0.8,0.4-1.8,0.6-2.9,0.6c-0.5,0-1-0.1-1.5-0.2s-1.1-0.3-1.5-0.6c-0.5-0.3-0.9-0.6-1.2-1
			l1.4-1.8c0.4,0.4,0.8,0.7,1.2,1c0.5,0.2,1,0.3,1.6,0.3c0.8,0,1.5-0.2,1.9-0.7c0.5-0.5,0.7-1.1,0.7-1.9v-8.6L261.2,344.2z
			 M256.5,350v0.2c0,0.6,0.1,1.2,0.3,1.7s0.4,0.9,0.8,1.2c0.3,0.3,0.8,0.5,1.3,0.5c0.6,0,1-0.1,1.4-0.4c0.4-0.2,0.6-0.6,0.8-1
			s0.3-0.9,0.3-1.5v-1.4c0-0.5-0.1-0.9-0.2-1.2c-0.1-0.4-0.3-0.7-0.5-0.9s-0.4-0.5-0.8-0.6c-0.3-0.1-0.7-0.2-1.1-0.2
			c-0.5,0-1,0.2-1.3,0.5s-0.6,0.7-0.8,1.3C256.6,348.7,256.5,349.3,256.5,350z"/>
	</g>
</g>
<g>
	<g>
		<path class="st17" d="M289.2,109.5c0-0.4-0.1-0.7-0.2-1c-0.2-0.3-0.5-0.5-0.9-0.8c-0.4-0.2-1.1-0.5-1.9-0.8
			c-1-0.3-1.8-0.7-2.6-1.1s-1.4-0.9-1.9-1.5s-0.7-1.4-0.7-2.3s0.2-1.6,0.7-2.3s1.2-1.2,2.1-1.5c0.9-0.4,1.9-0.5,3-0.5
			c1.2,0,2.2,0.2,3,0.6c0.9,0.4,1.5,1,2,1.7s0.7,1.6,0.7,2.5h-3.2c0-0.5-0.1-0.9-0.3-1.2c-0.2-0.3-0.5-0.6-0.9-0.8
			c-0.4-0.2-0.9-0.3-1.4-0.3c-0.6,0-1,0.1-1.4,0.3c-0.4,0.2-0.7,0.4-0.8,0.7c-0.2,0.3-0.3,0.6-0.3,1s0.1,0.7,0.4,0.9
			c0.2,0.3,0.6,0.5,1,0.7s1,0.4,1.7,0.6c1.1,0.3,2.1,0.7,2.9,1.2c0.8,0.5,1.4,1,1.7,1.6c0.4,0.6,0.6,1.4,0.6,2.2
			c0,0.9-0.2,1.7-0.7,2.3c-0.5,0.6-1.1,1.1-2,1.5s-1.8,0.5-3,0.5c-0.8,0-1.5-0.1-2.3-0.3s-1.4-0.5-2-0.9s-1.1-0.9-1.5-1.6
			s-0.5-1.4-0.5-2.3h3.2c0,0.5,0.1,0.9,0.2,1.2c0.2,0.3,0.4,0.6,0.6,0.8c0.3,0.2,0.6,0.4,1,0.5s0.8,0.1,1.3,0.1c0.6,0,1-0.1,1.4-0.2
			c0.4-0.2,0.6-0.4,0.8-0.7S289.2,109.8,289.2,109.5z"/>
		<path class="st17" d="M300.2,101.9v2.2h-6.8v-2.2H300.2z M295.1,99.1h3.1v11c0,0.3,0,0.6,0.1,0.8c0.1,0.2,0.2,0.3,0.4,0.4
			s0.4,0.1,0.7,0.1c0.2,0,0.4,0,0.5,0c0.2,0,0.3,0,0.4-0.1v2.3c-0.3,0.1-0.6,0.2-0.9,0.2c-0.3,0-0.6,0.1-1,0.1
			c-0.7,0-1.3-0.1-1.8-0.3s-0.9-0.6-1.2-1.1s-0.4-1.2-0.4-2V99.1H295.1z"/>
		<path class="st17" d="M305,104.5v9.1h-3.1V102h2.9L305,104.5z M308.5,101.8l-0.1,2.9c-0.2,0-0.3,0-0.5-0.1c-0.2,0-0.4,0-0.6,0
			c-0.6,0-1.1,0.1-1.4,0.3c-0.4,0.2-0.7,0.5-0.8,0.8c-0.2,0.4-0.3,0.8-0.3,1.3l-0.6-0.2c0-1,0.1-1.9,0.4-2.7
			c0.3-0.8,0.6-1.4,1.2-1.9s1.1-0.7,1.9-0.7c0.2,0,0.3,0,0.5,0C308.2,101.8,308.4,101.8,308.5,101.8z"/>
		<path class="st17" d="M315.3,113.8c-1.2,0-2.2-0.3-3.1-0.8c-0.9-0.5-1.5-1.2-2-2c-0.5-0.9-0.7-1.8-0.7-2.8v-0.4
			c0-1.2,0.2-2.2,0.7-3.1c0.4-0.9,1.1-1.6,1.9-2.1c0.8-0.5,1.8-0.8,2.9-0.8c1.1,0,2,0.2,2.8,0.7s1.3,1.1,1.7,2s0.6,1.8,0.6,3v1.3
			h-9.2v-2.1h6.2v-0.2c0-0.4-0.1-0.8-0.2-1.2c-0.2-0.3-0.4-0.6-0.7-0.8c-0.3-0.2-0.7-0.3-1.2-0.3s-1,0.2-1.3,0.5s-0.6,0.7-0.7,1.3
			c-0.2,0.5-0.2,1.2-0.2,1.8v0.4c0,0.6,0.1,1.2,0.3,1.7s0.6,0.9,1,1.1c0.4,0.3,0.9,0.4,1.5,0.4s1.1-0.1,1.6-0.3
			c0.5-0.2,0.9-0.5,1.3-1l1.5,1.6c-0.4,0.5-0.9,1-1.7,1.5C317.4,113.5,316.4,113.8,315.3,113.8z"/>
		<path class="st17" d="M324.9,104.4v9.1h-3.1v-11.6h2.9L324.9,104.4z M324.4,107.3h-0.8c0-1.1,0.2-2.1,0.6-3
			c0.4-0.8,0.9-1.5,1.6-1.9c0.7-0.5,1.5-0.7,2.4-0.7c0.7,0,1.4,0.1,1.9,0.4c0.6,0.3,1,0.7,1.3,1.4c0.3,0.6,0.5,1.5,0.5,2.6v7.4h-3.1
			v-7.4c0-0.5-0.1-0.9-0.2-1.2c-0.1-0.3-0.4-0.5-0.6-0.6s-0.6-0.2-1-0.2s-0.8,0.1-1.1,0.2c-0.3,0.2-0.6,0.4-0.8,0.7s-0.3,0.6-0.4,1
			C324.5,106.5,324.4,106.9,324.4,107.3z"/>
		<path class="st17" d="M333.7,107.9v-0.2c0-1.2,0.2-2.2,0.6-3.1c0.4-0.9,0.9-1.6,1.6-2.1c0.7-0.5,1.5-0.7,2.5-0.7
			c0.8,0,1.4,0.1,1.9,0.4s1,0.7,1.3,1.2s0.6,1.1,0.8,1.9c0.2,0.7,0.3,1.5,0.4,2.3v0.5c-0.1,1.1-0.4,2-0.7,2.9s-0.8,1.5-1.4,2.1
			c-0.6,0.5-1.4,0.8-2.3,0.8c-1,0-1.8-0.3-2.5-0.8s-1.2-1.2-1.6-2.1C333.9,110,333.7,109,333.7,107.9z M341.5,101.9h2.8v11.2
			c0,1.1-0.2,2-0.7,2.7s-1.1,1.3-2,1.7c-0.8,0.4-1.8,0.6-2.9,0.6c-0.5,0-1-0.1-1.5-0.2s-1.1-0.3-1.5-0.6c-0.5-0.3-0.9-0.6-1.2-1
			l1.4-1.8c0.4,0.4,0.8,0.7,1.2,1c0.5,0.2,1,0.3,1.6,0.3c0.8,0,1.5-0.2,1.9-0.7c0.5-0.5,0.7-1.1,0.7-1.9v-8.6L341.5,101.9z
			 M336.8,107.6v0.2c0,0.6,0.1,1.2,0.3,1.7s0.4,0.9,0.8,1.2c0.3,0.3,0.8,0.5,1.3,0.5c0.6,0,1-0.1,1.4-0.4c0.4-0.2,0.6-0.6,0.8-1
			s0.3-0.9,0.3-1.5v-1.4c0-0.5-0.1-0.9-0.2-1.2c-0.1-0.4-0.3-0.7-0.5-0.9s-0.4-0.5-0.8-0.6c-0.3-0.1-0.7-0.2-1.1-0.2
			c-0.5,0-1,0.2-1.3,0.5s-0.6,0.7-0.8,1.3C336.9,106.4,336.8,107,336.8,107.6z"/>
		<path class="st17" d="M352.4,101.9v2.2h-6.8v-2.2H352.4z M347.3,99.1h3.1v11c0,0.3,0,0.6,0.1,0.8c0.1,0.2,0.2,0.3,0.4,0.4
			s0.4,0.1,0.7,0.1c0.2,0,0.4,0,0.5,0c0.2,0,0.3,0,0.4-0.1v2.3c-0.3,0.1-0.6,0.2-0.9,0.2c-0.3,0-0.6,0.1-1,0.1
			c-0.7,0-1.3-0.1-1.8-0.3s-0.9-0.6-1.2-1.1s-0.4-1.2-0.4-2V99.1H347.3z"/>
		<path class="st17" d="M357.2,97v16.5h-3.1V97H357.2z M356.8,107.3H356c0-1.1,0.2-2,0.6-2.9c0.4-0.8,0.9-1.5,1.5-2
			c0.7-0.5,1.4-0.7,2.3-0.7c0.8,0,1.4,0.1,2,0.4s1,0.8,1.3,1.4c0.3,0.7,0.5,1.5,0.5,2.6v7.3h-3.1V106c0-0.5-0.1-0.9-0.2-1.2
			c-0.1-0.3-0.4-0.5-0.6-0.6c-0.3-0.1-0.6-0.2-1-0.2s-0.8,0.1-1.1,0.2c-0.3,0.2-0.6,0.4-0.7,0.7c-0.2,0.3-0.3,0.6-0.4,1
			S356.8,106.9,356.8,107.3z"/>
		<path class="st17" d="M371.9,113.8c-1.2,0-2.2-0.3-3.1-0.8c-0.9-0.5-1.5-1.2-2-2c-0.5-0.9-0.7-1.8-0.7-2.8v-0.4
			c0-1.2,0.2-2.2,0.7-3.1c0.4-0.9,1.1-1.6,1.9-2.1c0.8-0.5,1.8-0.8,2.9-0.8c1.1,0,2,0.2,2.8,0.7s1.3,1.1,1.7,2s0.6,1.8,0.6,3v1.3
			h-9.2v-2.1h6.2v-0.2c0-0.4-0.1-0.8-0.2-1.2c-0.2-0.3-0.4-0.6-0.7-0.8c-0.3-0.2-0.7-0.3-1.2-0.3s-1,0.2-1.3,0.5s-0.6,0.7-0.7,1.3
			c-0.2,0.5-0.2,1.2-0.2,1.8v0.4c0,0.6,0.1,1.2,0.3,1.7s0.6,0.9,1,1.1c0.4,0.3,0.9,0.4,1.5,0.4s1.1-0.1,1.6-0.3
			c0.5-0.2,0.9-0.5,1.3-1l1.5,1.6c-0.4,0.5-0.9,1-1.7,1.5C373.9,113.5,373,113.8,371.9,113.8z"/>
		<path class="st17" d="M381.4,104.4v9.1h-3.1v-11.6h2.9L381.4,104.4z M381,107.3h-0.8c0-1.1,0.2-2.1,0.6-3c0.4-0.8,0.9-1.5,1.6-1.9
			c0.7-0.5,1.5-0.7,2.4-0.7c0.7,0,1.4,0.1,1.9,0.4c0.6,0.3,1,0.7,1.3,1.4c0.3,0.6,0.5,1.5,0.5,2.6v7.4h-3.3v-7.4
			c0-0.5-0.1-0.9-0.2-1.2c-0.1-0.3-0.4-0.5-0.6-0.6s-0.6-0.2-1-0.2s-0.8,0.1-1.1,0.2c-0.3,0.2-0.6,0.4-0.8,0.7s-0.3,0.6-0.4,1
			C381,106.5,381,106.9,381,107.3z"/>
		<path class="st17" d="M390.7,98.9c0-0.5,0.2-0.8,0.5-1.1c0.3-0.3,0.7-0.4,1.3-0.4c0.5,0,0.9,0.1,1.3,0.4c0.3,0.3,0.5,0.7,0.5,1.1
			s-0.2,0.8-0.5,1.1c-0.3,0.3-0.7,0.4-1.3,0.4c-0.5,0-1-0.1-1.3-0.4C390.8,99.7,390.7,99.3,390.7,98.9z M394,101.9v11.6h-3.1v-11.6
			H394z"/>
		<path class="st17" d="M399.6,104.4v9.1h-3.1v-11.6h2.9L399.6,104.4z M399.1,107.3h-0.8c0-1.1,0.2-2.1,0.6-3
			c0.4-0.8,0.9-1.5,1.6-1.9c0.7-0.5,1.5-0.7,2.4-0.7c0.7,0,1.4,0.1,1.9,0.4c0.6,0.3,1,0.7,1.3,1.4c0.3,0.6,0.5,1.5,0.5,2.6v7.4h-3.1
			v-7.4c0-0.5-0.1-0.9-0.2-1.2c-0.1-0.3-0.4-0.5-0.6-0.6s-0.6-0.2-1-0.2s-0.8,0.1-1.1,0.2c-0.3,0.2-0.6,0.4-0.8,0.7s-0.3,0.6-0.4,1
			C399.2,106.5,399.1,106.9,399.1,107.3z"/>
		<path class="st17" d="M408.4,107.9v-0.2c0-1.2,0.2-2.2,0.6-3.1c0.4-0.9,0.9-1.6,1.6-2.1c0.7-0.5,1.5-0.7,2.5-0.7
			c0.8,0,1.4,0.1,1.9,0.4s1,0.7,1.3,1.2s0.6,1.1,0.8,1.9c0.2,0.7,0.3,1.5,0.4,2.3v0.5c-0.1,1.1-0.4,2-0.7,2.9s-0.8,1.5-1.4,2.1
			c-0.6,0.5-1.4,0.8-2.3,0.8c-1,0-1.8-0.3-2.5-0.8s-1.2-1.2-1.6-2.1C408.6,110,408.4,109,408.4,107.9z M416.2,101.9h2.8v11.2
			c0,1.1-0.2,2-0.7,2.7s-1.1,1.3-2,1.7c-0.8,0.4-1.8,0.6-2.9,0.6c-0.5,0-1-0.1-1.5-0.2s-1.1-0.3-1.5-0.6c-0.5-0.3-0.9-0.6-1.2-1
			l1.4-1.8c0.4,0.4,0.8,0.7,1.2,1c0.5,0.2,1,0.3,1.6,0.3c0.8,0,1.5-0.2,1.9-0.7c0.5-0.5,0.7-1.1,0.7-1.9v-8.6L416.2,101.9z
			 M411.5,107.6v0.2c0,0.6,0.1,1.2,0.3,1.7s0.4,0.9,0.8,1.2c0.3,0.3,0.8,0.5,1.3,0.5c0.6,0,1-0.1,1.4-0.4c0.4-0.2,0.6-0.6,0.8-1
			s0.3-0.9,0.3-1.5v-1.4c0-0.5-0.1-0.9-0.2-1.2c-0.1-0.4-0.3-0.7-0.5-0.9s-0.4-0.5-0.8-0.6c-0.3-0.1-0.7-0.2-1.1-0.2
			c-0.5,0-1,0.2-1.3,0.5s-0.6,0.7-0.8,1.3C411.6,106.4,411.5,107,411.5,107.6z"/>
		<path class="st17" d="M432.7,101.9v2.2h-6.8v-2.2H432.7z M427.6,99.1h3.1v11c0,0.3,0,0.6,0.1,0.8c0.1,0.2,0.2,0.3,0.4,0.4
			s0.4,0.1,0.7,0.1c0.2,0,0.4,0,0.5,0c0.2,0,0.3,0,0.4-0.1v2.3c-0.3,0.1-0.6,0.2-0.9,0.2c-0.3,0-0.6,0.1-1,0.1
			c-0.7,0-1.3-0.1-1.8-0.3s-0.9-0.6-1.2-1.1s-0.4-1.2-0.4-2V99.1H427.6z"/>
		<path class="st17" d="M437.4,97v16.5h-3.1V97H437.4z M437,107.3h-0.8c0-1.1,0.2-2,0.6-2.9c0.4-0.8,0.9-1.5,1.5-2
			c0.7-0.5,1.4-0.7,2.3-0.7c0.8,0,1.4,0.1,2,0.4s1,0.8,1.3,1.4c0.3,0.7,0.5,1.5,0.5,2.6v7.3h-3.1V106c0-0.5-0.1-0.9-0.2-1.2
			c-0.1-0.3-0.4-0.5-0.6-0.6c-0.3-0.1-0.6-0.2-1-0.2s-0.8,0.1-1.1,0.2c-0.3,0.2-0.6,0.4-0.7,0.7c-0.2,0.3-0.3,0.6-0.4,1
			S437,106.9,437,107.3z"/>
		<path class="st17" d="M452.1,113.8c-1.2,0-2.2-0.3-3.1-0.8c-0.9-0.5-1.5-1.2-2-2c-0.5-0.9-0.7-1.8-0.7-2.8v-0.4
			c0-1.2,0.2-2.2,0.7-3.1c0.4-0.9,1.1-1.6,1.9-2.1c0.8-0.5,1.8-0.8,2.9-0.8c1.1,0,2,0.2,2.8,0.7s1.3,1.1,1.7,2s0.6,1.8,0.6,3v1.3
			h-9.2v-2.1h6.2v-0.2c0-0.4-0.1-0.8-0.2-1.2c-0.2-0.3-0.4-0.6-0.7-0.8c-0.3-0.2-0.7-0.3-1.2-0.3s-1,0.2-1.3,0.5s-0.6,0.7-0.7,1.3
			c-0.2,0.5-0.2,1.2-0.2,1.8v0.4c0,0.6,0.1,1.2,0.3,1.7s0.6,0.9,1,1.1c0.4,0.3,0.9,0.4,1.5,0.4s1.1-0.1,1.6-0.3
			c0.5-0.2,0.9-0.5,1.3-1l1.5,1.6c-0.4,0.5-0.9,1-1.7,1.5C454.2,113.5,453.2,113.8,452.1,113.8z"/>
		<path class="st17" d="M473.4,108.4h3.2c-0.1,1.1-0.4,2-0.9,2.8s-1.2,1.5-2.1,1.9c-0.9,0.5-2,0.7-3.3,0.7s-2.5-0.3-3.4-0.9
			c-1-0.6-1.7-1.5-2.2-2.6s-0.8-2.4-0.8-4v-1.1c0-1.5,0.3-2.9,0.8-4s1.3-2,2.3-2.6s2.1-0.9,3.4-0.9c1.3,0,2.4,0.2,3.3,0.7
			s1.6,1.1,2.1,2c0.5,0.8,0.8,1.8,0.9,2.8h-3.2c-0.1-0.9-0.3-1.7-0.8-2.2s-1.2-0.8-2.3-0.8c-0.7,0-1.3,0.2-1.8,0.5
			c-0.5,0.4-0.8,0.9-1.1,1.6s-0.4,1.7-0.4,2.8v1.1c0,1.1,0.1,2,0.3,2.7s0.6,1.3,1,1.7s1.1,0.6,1.8,0.6s1.2-0.1,1.7-0.3
			c0.4-0.2,0.8-0.5,1-1C473.3,109.5,473.4,109,473.4,108.4z"/>
		<path class="st17" d="M478.1,107.9v-0.2c0-1.1,0.2-2.1,0.6-3s1.1-1.6,1.9-2.1s1.8-0.8,3-0.8s2.2,0.3,3,0.8s1.5,1.2,1.9,2.1
			s0.6,1.9,0.6,3v0.2c0,1.1-0.2,2.1-0.6,3s-1.1,1.6-1.9,2.1c-0.8,0.5-1.8,0.8-3,0.8s-2.2-0.3-3-0.8s-1.4-1.2-1.9-2.1
			S478.1,109,478.1,107.9z M481.2,107.6v0.2c0,0.6,0.1,1.2,0.2,1.8c0.2,0.5,0.4,1,0.8,1.3c0.4,0.3,0.8,0.5,1.4,0.5
			c0.6,0,1-0.2,1.4-0.5s0.6-0.7,0.8-1.3c0.2-0.5,0.2-1.1,0.2-1.8v-0.2c0-0.6-0.1-1.2-0.2-1.7c-0.2-0.5-0.4-1-0.8-1.3
			c-0.4-0.3-0.8-0.5-1.4-0.5c-0.6,0-1,0.2-1.4,0.5s-0.6,0.7-0.8,1.3C481.2,106.4,481.2,107,481.2,107.6z"/>
		<path class="st17" d="M494.1,104.3v9.2H491v-11.6h2.9L494.1,104.3z M493.6,107.3h-0.9c0-1.1,0.2-2,0.5-2.9c0.3-0.8,0.9-1.5,1.5-2
			c0.7-0.5,1.5-0.7,2.5-0.7s1.9,0.3,2.5,1c0.7,0.6,1,1.7,1,3.1v7.8h-3.1v-7.4c0-0.5-0.1-0.9-0.2-1.2c-0.1-0.3-0.3-0.5-0.6-0.6
			s-0.6-0.2-0.9-0.2c-0.4,0-0.8,0.1-1,0.2c-0.3,0.2-0.5,0.4-0.7,0.7s-0.3,0.6-0.4,1C493.7,106.5,493.6,106.9,493.6,107.3z
			 M500.6,107l-1.1,0.1c0-1,0.2-1.9,0.5-2.7c0.3-0.8,0.8-1.5,1.5-1.9c0.7-0.5,1.5-0.7,2.5-0.7c0.8,0,1.4,0.1,2,0.4s1,0.8,1.3,1.4
			s0.5,1.5,0.5,2.6v7.4h-3.1v-7.4c0-0.5-0.1-0.9-0.2-1.2c-0.1-0.3-0.3-0.5-0.6-0.6s-0.6-0.2-0.9-0.2c-0.4,0-0.7,0.1-1,0.2
			s-0.5,0.3-0.7,0.6c-0.2,0.3-0.3,0.6-0.4,0.9C500.6,106.2,500.6,106.6,500.6,107z"/>
		<path class="st17" d="M513.1,104.3v9.2H510v-11.6h2.9L513.1,104.3z M512.7,107.3h-0.9c0-1.1,0.2-2,0.5-2.9c0.3-0.8,0.9-1.5,1.5-2
			c0.7-0.5,1.5-0.7,2.5-0.7s1.9,0.3,2.5,1c0.7,0.6,1,1.7,1,3.1v7.8h-3.1v-7.4c0-0.5-0.1-0.9-0.2-1.2c-0.1-0.3-0.3-0.5-0.6-0.6
			s-0.6-0.2-0.9-0.2c-0.4,0-0.8,0.1-1,0.2c-0.3,0.2-0.5,0.4-0.7,0.7s-0.3,0.6-0.4,1C512.8,106.5,512.7,106.9,512.7,107.3z
			 M519.6,107l-1.1,0.1c0-1,0.2-1.9,0.5-2.7c0.3-0.8,0.8-1.5,1.5-1.9c0.7-0.5,1.5-0.7,2.5-0.7c0.8,0,1.4,0.1,2,0.4s1,0.8,1.3,1.4
			s0.5,1.5,0.5,2.6v7.4h-3.1v-7.4c0-0.5-0.1-0.9-0.2-1.2c-0.1-0.3-0.3-0.5-0.6-0.6s-0.6-0.2-0.9-0.2c-0.4,0-0.7,0.1-1,0.2
			s-0.5,0.3-0.7,0.6c-0.2,0.3-0.3,0.6-0.4,0.9C519.7,106.2,519.6,106.6,519.6,107z"/>
		<path class="st17" d="M536.3,108.4h0.9c0,1-0.2,2-0.5,2.8s-0.8,1.5-1.4,1.9c-0.6,0.5-1.5,0.7-2.4,0.7c-1.1,0-2.1-0.3-2.8-1
			s-1.1-1.8-1.1-3.3V102h3.1v7.5c0,0.5,0.1,0.8,0.2,1.1c0.1,0.3,0.3,0.5,0.6,0.6s0.5,0.2,0.9,0.2c0.6,0,1.1-0.1,1.5-0.4
			s0.6-0.6,0.8-1.1C536.2,109.4,536.3,108.9,536.3,108.4z M536,110.8V102h3.1v11.6h-2.9L536,110.8z"/>
		<path class="st17" d="M544.4,104.4v9.1h-3.1v-11.6h2.9L544.4,104.4z M544,107.3h-0.8c0-1.1,0.2-2.1,0.6-3c0.4-0.8,0.9-1.5,1.6-1.9
			c0.7-0.5,1.5-0.7,2.4-0.7c0.7,0,1.4,0.1,1.9,0.4c0.6,0.3,1,0.7,1.3,1.4c0.3,0.6,0.5,1.5,0.5,2.6v7.4h-3.1v-7.4
			c0-0.5-0.1-0.9-0.2-1.2c-0.1-0.3-0.4-0.5-0.6-0.6s-0.6-0.2-1-0.2s-0.8,0.1-1.1,0.2c-0.3,0.2-0.6,0.4-0.8,0.7s-0.3,0.6-0.4,1
			C544,106.5,544,106.9,544,107.3z"/>
		<path class="st17" d="M553.7,98.9c0-0.5,0.2-0.8,0.5-1.1c0.3-0.3,0.7-0.4,1.3-0.4c0.5,0,0.9,0.1,1.3,0.4c0.3,0.3,0.5,0.7,0.5,1.1
			s-0.2,0.8-0.5,1.1c-0.3,0.3-0.7,0.4-1.3,0.4c-0.5,0-1-0.1-1.3-0.4S553.7,99.3,553.7,98.9z M557,101.9v11.6h-3.1v-11.6H557z"/>
		<path class="st17" d="M565.3,101.9v2.2h-6.8v-2.2H565.3z M560.2,99.1h3.1v11c0,0.3,0,0.6,0.1,0.8c0.1,0.2,0.2,0.3,0.4,0.4
			s0.4,0.1,0.7,0.1c0.2,0,0.4,0,0.5,0c0.2,0,0.3,0,0.4-0.1v2.3c-0.3,0.1-0.6,0.2-0.9,0.2c-0.3,0-0.6,0.1-1,0.1
			c-0.7,0-1.3-0.1-1.8-0.3s-0.9-0.6-1.2-1.1s-0.4-1.2-0.4-2V99.1H560.2z"/>
		<path class="st17" d="M569.2,101.9l2.5,8.4l0.4,3.3l-2.1,0.2l-4.2-11.9H569.2z M570.5,112.2l3.1-10.3h3.3l-4.7,13.4
			c-0.1,0.3-0.2,0.6-0.4,0.9s-0.4,0.7-0.7,1s-0.6,0.6-1.1,0.7s-0.9,0.3-1.6,0.3c-0.3,0-0.5,0-0.7-0.1c-0.2,0-0.4-0.1-0.7-0.2v-2.3
			c0.1,0,0.2,0,0.2,0c0.1,0,0.2,0,0.2,0c0.6,0,1.1-0.1,1.3-0.3c0.3-0.2,0.5-0.5,0.7-1L570.5,112.2z"/>
	</g>
</g>
<path class="st7" d="M293.7,263.3H535v45h-23.3l12.2,28.6l-43.4-28.6H293.7V263.3z"/>
<g>
	<g>
		<path class="st17" d="M318.4,275.9v15.6h-3.2v-15.6H318.4z M320,291.6h-3.4v-2.5h3.4c0.8,0,1.6-0.2,2.1-0.6c0.6-0.4,1-0.9,1.3-1.7
			c0.3-0.7,0.4-1.6,0.4-2.7v-0.8c0-1.1-0.2-2-0.5-2.7s-0.7-1.3-1.3-1.7c-0.6-0.4-1.3-0.6-2.1-0.6h-3.5v-2.5h3.5
			c1.4,0,2.6,0.3,3.7,0.9s1.9,1.5,2.5,2.6s0.9,2.4,0.9,3.9v0.7c0,1.5-0.3,2.8-0.9,3.9c-0.6,1.1-1.4,2-2.5,2.6
			C322.7,291.3,321.4,291.6,320,291.6z"/>
		<path class="st17" d="M329.3,276.9c0-0.5,0.2-0.8,0.5-1.1c0.3-0.3,0.7-0.4,1.3-0.4c0.5,0,0.9,0.1,1.3,0.4c0.3,0.3,0.5,0.7,0.5,1.1
			s-0.2,0.8-0.5,1.1c-0.3,0.3-0.7,0.4-1.3,0.4c-0.5,0-1-0.1-1.3-0.4S329.3,277.4,329.3,276.9z M332.6,279.9v11.6h-3.1v-11.6H332.6z"
			/>
		<path class="st17" d="M337.3,279.9l2.6,9.4l0.1,2.2h-2l-3.9-11.6H337.3z M339.1,289.3l2.6-9.4h3.2l-3.9,11.6h-2L339.1,289.3z"/>
		<path class="st17" d="M351.6,291.8c-1.2,0-2.2-0.3-3.1-0.8c-0.9-0.5-1.5-1.2-2-2c-0.5-0.9-0.7-1.8-0.7-2.8v-0.4
			c0-1.2,0.2-2.2,0.7-3.1c0.4-0.9,1.1-1.6,1.9-2.1c0.8-0.5,1.8-0.8,2.9-0.8c1.1,0,2,0.2,2.8,0.7s1.3,1.1,1.7,2s0.6,1.8,0.6,3v1.3
			h-9.2v-2.1h6.2v-0.2c0-0.4-0.1-0.8-0.2-1.2c-0.2-0.3-0.4-0.6-0.7-0.8c-0.3-0.2-0.7-0.3-1.2-0.3s-1,0.2-1.3,0.5s-0.6,0.7-0.7,1.3
			c-0.2,0.5-0.2,1.2-0.2,1.8v0.4c0,0.6,0.1,1.2,0.3,1.7s0.6,0.9,1,1.1c0.4,0.3,0.9,0.4,1.5,0.4s1.1-0.1,1.6-0.3
			c0.5-0.2,0.9-0.5,1.3-1l1.5,1.6c-0.4,0.5-0.9,1-1.7,1.5C353.7,291.6,352.8,291.8,351.6,291.8z"/>
		<path class="st17" d="M361.3,282.5v9.1h-3.1V280h2.9L361.3,282.5z M364.8,279.9l-0.1,2.9c-0.2,0-0.3,0-0.5-0.1c-0.2,0-0.4,0-0.6,0
			c-0.6,0-1.1,0.1-1.4,0.3c-0.4,0.2-0.7,0.5-0.8,0.8c-0.2,0.4-0.3,0.8-0.3,1.3l-0.6-0.2c0-1,0.1-1.9,0.4-2.7
			c0.3-0.8,0.6-1.4,1.2-1.9s1.1-0.7,1.9-0.7c0.2,0,0.3,0,0.5,0C364.5,279.8,364.6,279.8,364.8,279.9z"/>
		<path class="st17" d="M372.5,288.4c0-0.2-0.1-0.4-0.2-0.6c-0.1-0.2-0.4-0.3-0.7-0.5s-0.8-0.3-1.5-0.4c-0.8-0.2-1.5-0.4-2.1-0.7
			c-0.6-0.3-1.1-0.7-1.5-1.1c-0.4-0.5-0.5-1-0.5-1.7c0-0.6,0.2-1.2,0.6-1.8c0.4-0.5,0.9-1,1.6-1.3c0.7-0.3,1.5-0.5,2.5-0.5
			s1.9,0.2,2.6,0.5c0.7,0.3,1.3,0.8,1.7,1.3c0.4,0.6,0.6,1.2,0.6,1.9h-3.1c0-0.5-0.1-0.8-0.4-1.1c-0.3-0.3-0.7-0.5-1.4-0.5
			c-0.3,0-0.6,0.1-0.9,0.2c-0.3,0.1-0.4,0.3-0.6,0.5c-0.1,0.2-0.2,0.4-0.2,0.6s0.1,0.4,0.2,0.6c0.1,0.2,0.4,0.3,0.7,0.5
			c0.3,0.1,0.7,0.3,1.3,0.4c0.8,0.2,1.6,0.4,2.2,0.7c0.7,0.3,1.2,0.6,1.6,1.1c0.4,0.5,0.6,1.1,0.6,1.8c0,0.7-0.2,1.3-0.6,1.8
			c-0.4,0.5-1,1-1.7,1.3s-1.6,0.5-2.6,0.5c-1.1,0-2-0.2-2.7-0.6s-1.3-0.9-1.7-1.5s-0.6-1.2-0.6-1.8h2.9c0,0.4,0.1,0.8,0.3,1
			s0.5,0.4,0.8,0.6c0.3,0.1,0.7,0.2,1,0.2c0.4,0,0.7-0.1,1-0.2s0.5-0.3,0.6-0.5C372.4,288.8,372.5,288.6,372.5,288.4z"/>
		<path class="st17" d="M377.5,276.9c0-0.5,0.2-0.8,0.5-1.1c0.3-0.3,0.7-0.4,1.3-0.4c0.5,0,0.9,0.1,1.3,0.4c0.3,0.3,0.5,0.7,0.5,1.1
			s-0.2,0.8-0.5,1.1c-0.3,0.3-0.7,0.4-1.3,0.4c-0.5,0-1-0.1-1.3-0.4S377.5,277.4,377.5,276.9z M380.8,279.9v11.6h-3.1v-11.6H380.8z"
			/>
		<path class="st17" d="M389,279.9v2.2h-6.8v-2.2H389z M383.9,277.1h3.1v11c0,0.3,0,0.6,0.1,0.8c0.1,0.2,0.2,0.3,0.4,0.4
			s0.4,0.1,0.7,0.1c0.2,0,0.4,0,0.5,0c0.2,0,0.3,0,0.4-0.1v2.3c-0.3,0.1-0.6,0.2-0.9,0.2c-0.3,0-0.6,0.1-1,0.1
			c-0.7,0-1.3-0.1-1.8-0.3s-0.9-0.6-1.2-1.1s-0.4-1.2-0.4-2v-11.4H383.9z"/>
		<path class="st17" d="M393,279.9l2.5,8.4l0.4,3.3l-2.1,0.2l-4.2-11.9H393z M394.2,290.3l3.1-10.3h3.3l-4.7,13.4
			c-0.1,0.3-0.2,0.6-0.4,0.9s-0.4,0.7-0.7,1s-0.6,0.6-1.1,0.7c-0.4,0.2-0.9,0.3-1.6,0.3c-0.3,0-0.5,0-0.7-0.1
			c-0.2,0-0.4-0.1-0.7-0.2v-2.3c0.1,0,0.2,0,0.2,0c0.1,0,0.2,0,0.2,0c0.6,0,1.1-0.1,1.3-0.3c0.3-0.2,0.5-0.5,0.7-1L394.2,290.3z"/>
		<path class="st17" d="M409.9,283.2l3-1.9c0.4-0.3,0.7-0.6,0.9-0.8c0.2-0.3,0.2-0.6,0.2-0.9s-0.1-0.6-0.4-0.9s-0.6-0.4-1.1-0.4
			s-0.9,0.2-1.1,0.5c-0.3,0.3-0.4,0.7-0.4,1.1c0,0.5,0.2,1,0.6,1.5s0.8,1.1,1.4,1.7l7.4,8.6h-3.5l-6-7c-0.8-0.9-1.4-1.8-1.8-2.5
			c-0.5-0.7-0.7-1.5-0.7-2.3s0.2-1.5,0.5-2.1s0.8-1.1,1.5-1.4c0.6-0.3,1.4-0.5,2.2-0.5s1.5,0.2,2.1,0.5s1.1,0.8,1.4,1.3
			c0.3,0.5,0.5,1.1,0.5,1.8c0,0.5-0.1,0.9-0.3,1.3s-0.4,0.8-0.7,1.1c-0.3,0.3-0.7,0.7-1.1,1l-3.4,2.4c-0.3,0.2-0.5,0.5-0.6,0.7
			s-0.2,0.5-0.3,0.7c0,0.2-0.1,0.4-0.1,0.6c0,0.4,0.1,0.8,0.3,1.1c0.2,0.3,0.4,0.6,0.8,0.8c0.3,0.2,0.7,0.3,1.1,0.3
			c0.6,0,1.2-0.1,1.7-0.4s1-0.6,1.5-1.1s0.8-1.1,1-1.7s0.4-1.4,0.4-2.2h2.6c0,1.2-0.2,2.3-0.5,3.3c-0.4,1-1,1.9-1.9,2.6
			c0,0-0.1,0.1-0.2,0.2c-0.1,0.1-0.1,0.1-0.2,0.2c-0.7,0.6-1.4,1-2.1,1.2s-1.6,0.4-2.5,0.4c-1,0-1.9-0.2-2.7-0.6s-1.4-0.9-1.8-1.6
			c-0.4-0.7-0.6-1.4-0.6-2.3c0-0.6,0.1-1.2,0.4-1.6c0.2-0.5,0.6-0.9,1-1.3C408.8,284,409.3,283.6,409.9,283.2z"/>
		<path class="st17" d="M431,275.9v15.6h-3.2v-15.6H431z"/>
		<path class="st17" d="M436.9,282.4v9.1h-3.1v-11.6h2.9L436.9,282.4z M436.4,285.3h-0.8c0-1.1,0.2-2.1,0.6-3
			c0.4-0.8,0.9-1.5,1.6-1.9c0.7-0.5,1.5-0.7,2.4-0.7c0.7,0,1.4,0.1,1.9,0.4c0.6,0.3,1,0.7,1.3,1.4c0.3,0.6,0.5,1.5,0.5,2.6v7.4h-3.1
			v-7.4c0-0.5-0.1-0.9-0.2-1.2c-0.1-0.3-0.4-0.5-0.6-0.6c-0.3-0.1-0.6-0.2-1-0.2s-0.8,0.1-1.1,0.2c-0.3,0.2-0.6,0.4-0.8,0.7
			c-0.2,0.3-0.3,0.6-0.4,1S436.4,284.9,436.4,285.3z"/>
		<path class="st17" d="M451,289.4c0.4,0,0.7-0.1,1-0.2s0.5-0.4,0.7-0.6c0.2-0.3,0.3-0.6,0.3-1h2.9c0,0.8-0.2,1.5-0.7,2.2
			s-1,1.1-1.7,1.5s-1.5,0.5-2.4,0.5c-1.2,0-2.2-0.3-3-0.8s-1.4-1.2-1.8-2.1c-0.4-0.9-0.6-1.9-0.6-3v-0.3c0-1.1,0.2-2.1,0.6-3
			c0.4-0.9,1-1.6,1.8-2.1s1.8-0.8,3-0.8c1,0,1.8,0.2,2.5,0.5s1.3,0.9,1.7,1.6s0.6,1.5,0.6,2.4H453c0-0.4-0.1-0.7-0.2-1.1
			c-0.2-0.3-0.4-0.6-0.7-0.8c-0.3-0.2-0.6-0.3-1.1-0.3c-0.6,0-1.1,0.2-1.4,0.5c-0.3,0.3-0.5,0.8-0.6,1.3s-0.2,1.1-0.2,1.7v0.3
			c0,0.6,0.1,1.2,0.2,1.7c0.1,0.5,0.3,0.9,0.7,1.3C449.9,289.2,450.4,289.4,451,289.4z"/>
		<path class="st17" d="M460.9,275.1v16.5h-3.1v-16.5H460.9z"/>
		<path class="st17" d="M470.7,286.4h0.9c0,1-0.2,2-0.5,2.8s-0.8,1.5-1.4,1.9c-0.6,0.5-1.5,0.7-2.4,0.7c-1.1,0-2.1-0.3-2.8-1
			s-1.1-1.8-1.1-3.3V280h3.1v7.5c0,0.5,0.1,0.8,0.2,1.1s0.3,0.5,0.6,0.6s0.5,0.2,0.9,0.2c0.6,0,1.1-0.1,1.5-0.4s0.6-0.6,0.8-1.1
			C470.6,287.5,470.7,287,470.7,286.4z M470.3,288.8V280h3.1v11.6h-2.9L470.3,288.8z"/>
		<path class="st17" d="M482.1,288.4c0-0.2-0.1-0.4-0.2-0.6c-0.1-0.2-0.4-0.3-0.7-0.5s-0.8-0.3-1.5-0.4c-0.8-0.2-1.5-0.4-2.1-0.7
			c-0.6-0.3-1.1-0.7-1.5-1.1c-0.4-0.5-0.5-1-0.5-1.7c0-0.6,0.2-1.2,0.6-1.8c0.4-0.5,0.9-1,1.6-1.3c0.7-0.3,1.5-0.5,2.5-0.5
			s1.9,0.2,2.6,0.5c0.7,0.3,1.3,0.8,1.7,1.3c0.4,0.6,0.6,1.2,0.6,1.9h-3.1c0-0.5-0.1-0.8-0.4-1.1c-0.3-0.3-0.7-0.5-1.4-0.5
			c-0.3,0-0.6,0.1-0.9,0.2s-0.4,0.3-0.6,0.5c-0.1,0.2-0.2,0.4-0.2,0.6s0.1,0.4,0.2,0.6c0.1,0.2,0.4,0.3,0.7,0.5
			c0.3,0.1,0.7,0.3,1.3,0.4c0.8,0.2,1.6,0.4,2.2,0.7c0.7,0.3,1.2,0.6,1.6,1.1c0.4,0.5,0.6,1.1,0.6,1.8c0,0.7-0.2,1.3-0.6,1.8
			s-1,1-1.7,1.3s-1.6,0.5-2.6,0.5c-1.1,0-2-0.2-2.7-0.6s-1.3-0.9-1.7-1.5s-0.6-1.2-0.6-1.8h2.9c0,0.4,0.1,0.8,0.3,1s0.5,0.4,0.8,0.6
			c0.3,0.1,0.7,0.2,1,0.2c0.4,0,0.7-0.1,1-0.2s0.5-0.3,0.6-0.5C482,288.8,482.1,288.6,482.1,288.4z"/>
		<path class="st17" d="M487.1,276.9c0-0.5,0.2-0.8,0.5-1.1c0.3-0.3,0.7-0.4,1.3-0.4c0.5,0,0.9,0.1,1.3,0.4c0.3,0.3,0.5,0.7,0.5,1.1
			s-0.2,0.8-0.5,1.1c-0.3,0.3-0.7,0.4-1.3,0.4c-0.5,0-1-0.1-1.3-0.4C487.2,277.7,487.1,277.4,487.1,276.9z M490.4,279.9v11.6h-3.1
			v-11.6H490.4z"/>
		<path class="st17" d="M492.4,285.9v-0.2c0-1.1,0.2-2.1,0.6-3s1.1-1.6,1.9-2.1s1.8-0.8,3-0.8s2.2,0.3,3,0.8s1.5,1.2,1.9,2.1
			s0.6,1.9,0.6,3v0.2c0,1.1-0.2,2.1-0.6,3s-1.1,1.6-1.9,2.1c-0.8,0.5-1.8,0.8-3,0.8s-2.2-0.3-3-0.8s-1.4-1.2-1.9-2.1
			S492.4,287,492.4,285.9z M495.5,285.7v0.2c0,0.6,0.1,1.2,0.2,1.8c0.2,0.5,0.4,1,0.8,1.3s0.8,0.5,1.4,0.5c0.6,0,1-0.2,1.4-0.5
			s0.6-0.7,0.8-1.3c0.2-0.5,0.2-1.1,0.2-1.8v-0.2c0-0.6-0.1-1.2-0.2-1.7c-0.2-0.5-0.4-1-0.8-1.3s-0.8-0.5-1.4-0.5
			c-0.6,0-1,0.2-1.4,0.5s-0.6,0.7-0.8,1.3C495.6,284.4,495.5,285,495.5,285.7z"/>
		<path class="st17" d="M508.4,282.4v9.1h-3.1v-11.6h2.9L508.4,282.4z M507.9,285.3h-0.8c0-1.1,0.2-2.1,0.6-3
			c0.4-0.8,0.9-1.5,1.6-1.9c0.7-0.5,1.5-0.7,2.4-0.7c0.7,0,1.4,0.1,1.9,0.4c0.6,0.3,1,0.7,1.3,1.4c0.3,0.6,0.5,1.5,0.5,2.6v7.4h-3.2
			v-7.4c0-0.5-0.1-0.9-0.2-1.2c-0.1-0.3-0.4-0.5-0.6-0.6c-0.3-0.1-0.6-0.2-1-0.2s-0.8,0.1-1.1,0.2c-0.3,0.2-0.6,0.4-0.8,0.7
			c-0.2,0.3-0.3,0.6-0.4,1S507.9,284.9,507.9,285.3z"/>
	</g>
</g>
<path class="st20" d="M465.6,209.5c12.3-0.2,22.1-10.3,22-22.6c-0.2-12.3-10.3-22.1-22.6-22c-12.3,0.2-22.1,10.3-22,22.6
	C443.2,199.9,453.3,209.7,465.6,209.5z"/>
<path class="st20" d="M474.2,179.6c-5.8-3.1-9,4.9-9,4.9s-3.2-8-9-4.8c-6.5,3.6-0.7,15.1,9,20.1C475,194.7,480.7,183.1,474.2,179.6z
	"/>
<path class="st17" d="M470.6,213.1c12.3,0,22.3-10,22.3-22.3c0-12.3-10-22.3-22.3-22.3c-12.3,0-22.3,10-22.3,22.3
	C448.4,203.1,458.3,213.1,470.6,213.1z"/>
<path class="st7" d="M479.6,183.1c-5.8-3.1-9,4.9-9,4.9s-3.2-8-9-4.8c-6.5,3.6-0.7,15.1,9,20.1C480.4,198.2,486.1,186.6,479.6,183.1
	z"/>
<path class="st21" d="M971.2,181.9H758.8c0,0,14.6-30.3,48.3-17.8c0,0,12.4-31.3,41.5-27.7c29.2,3.7,34.8,22.6,34.8,22.6
	s31.5-11.6,61.8,11.9C945.3,170.9,970,168.3,971.2,181.9z"/>
<path class="st21" d="M565,600.2H370c0,0,13.4-30.5,44.4-17.9c0,0,11.4-31.6,38.2-27.9s32,22.7,32,22.7s28.9-11.7,56.8,12
	C541.3,589.2,564,586.5,565,600.2z"/>
<path class="st20" d="M803.4,436.7c13.4,0,24.2-10.8,24.2-24.2c0-13.4-10.8-24.2-24.2-24.2c-13.4,0-24.2,10.8-24.2,24.2
	C779.2,425.9,790,436.7,803.4,436.7z"/>
<path class="st21" d="M809.9,441.6c13.4,0,24.2-10.8,24.2-24.2c0-13.4-10.8-24.2-24.2-24.2c-13.4,0-24.2,10.8-24.2,24.2
	C785.7,430.8,796.5,441.6,809.9,441.6z"/>
<path class="st22" d="M809.9,409l8.3-4.4l-1.6,9.2l6.7,6.5l-9.3,1.4l-4.1,8.4l-4.1-8.4l-9.3-1.4l6.7-6.5l-1.6-9.2L809.9,409z"/>
<path class="st20" d="M231.9,128c7.9,0,14.3-6.4,14.3-14.3c0-7.9-6.4-14.3-14.3-14.3c-7.9,0-14.3,6.4-14.3,14.3
	C217.6,121.6,224,128,231.9,128z"/>
<path class="st21" d="M235.8,130.9c7.9,0,14.3-6.4,14.3-14.3c0-7.9-6.4-14.3-14.3-14.3c-7.9,0-14.3,6.4-14.3,14.3
	C221.4,124.5,227.8,130.9,235.8,130.9z"/>
<path class="st22" d="M235.8,111.6l4.9-2.6l-0.9,5.5l4,3.9l-5.5,0.8l-2.5,5l-2.5-5l-5.5-0.8l4-3.9l-0.9-5.5L235.8,111.6z"/>
<g class="st0">
	<path class="st1" d="M287,494.2l-2.4-1.3c-1.5-0.8-2.4-2.4-2.4-4.1c0-0.2,0-0.4,0-0.6c0-0.2,0-0.4,0-0.6c0-1.7,0.9-3.3,2.4-4.1
		l2.4-1.3c1.9-1,2.8-3.2,2.2-5.3c0,0,0-0.1,0-0.1c-0.6-2.1-2.5-3.5-4.6-3.5l-2.7,0c-1.7,0-3.3-0.9-4.2-2.4c-0.2-0.3-0.3-0.6-0.5-0.9
		c-0.9-1.5-0.9-3.4,0-4.9l1.4-2.3c1.1-1.8,0.8-4.2-0.7-5.7c0,0,0,0-0.1-0.1c-1.5-1.5-3.9-1.8-5.7-0.7l-2.3,1.4
		c-1.5,0.9-3.4,0.9-4.9,0c-0.3-0.2-0.6-0.3-0.9-0.5c-1.5-0.8-2.5-2.4-2.4-4.2l0-2.7c0-2.1-1.4-4-3.5-4.6c0,0-0.1,0-0.1,0
		c-2.1-0.5-4.3,0.4-5.3,2.3l-1.3,2.4c-0.8,1.5-2.4,2.4-4.1,2.4c-0.2,0-0.4,0-0.6,0s-0.4,0-0.6,0c-1.7,0-3.3-0.9-4.1-2.4l-1.3-2.4
		c-1-1.9-3.2-2.8-5.3-2.3c0,0-0.1,0-0.1,0c-2.1,0.6-3.5,2.4-3.5,4.6l0,2.7c0,1.7-0.9,3.3-2.4,4.2c-0.3,0.2-0.6,0.3-0.9,0.5
		c-1.5,0.9-3.4,0.9-4.9,0l-2.3-1.4c-1.8-1.1-4.2-0.8-5.7,0.7c0,0,0,0-0.1,0.1c-1.5,1.5-1.8,3.9-0.7,5.7l1.4,2.3
		c0.9,1.5,0.9,3.4,0,4.9c-0.2,0.3-0.3,0.6-0.5,0.9c-0.8,1.5-2.4,2.5-4.2,2.4l-2.7,0c-2.1,0-4,1.4-4.6,3.5c0,0,0,0.1,0,0.1
		c-0.5,2.1,0.4,4.3,2.3,5.3l2.4,1.3c1.5,0.8,2.4,2.4,2.4,4.1c0,0.2,0,0.4,0,0.6c0,0.2,0,0.4,0,0.6c0,1.7-0.9,3.3-2.4,4.1l-2.4,1.3
		c-1.9,1-2.8,3.2-2.3,5.3c0,0,0,0.1,0,0.1c0.6,2.1,2.4,3.5,4.6,3.5l2.7,0c1.7,0,3.3,0.9,4.2,2.4c0.2,0.3,0.3,0.6,0.5,0.9
		c0.9,1.5,0.9,3.4,0,4.9l-1.4,2.3c-1.1,1.8-0.8,4.2,0.7,5.7c0,0,0,0,0.1,0.1c1.5,1.5,3.9,1.8,5.7,0.7l2.3-1.4c1.5-0.9,3.4-0.9,4.9,0
		c0.3,0.2,0.6,0.3,0.9,0.5c1.5,0.8,2.5,2.4,2.4,4.2l0,2.7c0,2.1,1.4,4,3.5,4.6c0,0,0.1,0,0.1,0c2.1,0.5,4.3-0.4,5.3-2.3l1.3-2.4
		c0.8-1.5,2.4-2.4,4.1-2.4c0.2,0,0.4,0,0.6,0s0.4,0,0.6,0c1.7,0,3.3,0.9,4.1,2.4l1.3,2.4c1,1.9,3.2,2.8,5.3,2.3c0,0,0.1,0,0.1,0
		c2.1-0.6,3.5-2.4,3.5-4.6l0-2.7c0-1.7,0.9-3.3,2.4-4.2c0.3-0.2,0.6-0.3,0.9-0.5c1.5-0.9,3.4-0.9,4.9,0l2.3,1.4
		c1.8,1.1,4.2,0.8,5.7-0.7c0,0,0,0,0.1-0.1c1.5-1.5,1.8-3.9,0.7-5.7l-1.4-2.3c-0.9-1.5-0.9-3.4,0-4.9c0.2-0.3,0.3-0.6,0.5-0.9
		c0.8-1.5,2.4-2.5,4.2-2.4l2.7,0c2.1,0,4-1.4,4.6-3.5c0,0,0-0.1,0-0.1C289.8,497.5,288.9,495.3,287,494.2z M246.8,514.6
		c-14.6,0-26.4-11.8-26.4-26.4c0-14.6,11.8-26.4,26.4-26.4c14.6,0,26.4,11.8,26.4,26.4C273.2,502.8,261.4,514.6,246.8,514.6z"/>
</g>
</svg>
