<?xml version="1.0" encoding="utf-8"?>
<!-- Generator: Adobe Illustrator 27.2.0, SVG Export Plug-In . SVG Version: 6.00 Build 0)  -->
<svg version="1.1" xmlns="http://www.w3.org/2000/svg" xmlns:xlink="http://www.w3.org/1999/xlink" x="0px" y="0px"
	 viewBox="0 0 325 206" style="enable-background:new 0 0 325 206;" xml:space="preserve">
<style type="text/css">
	.st0{fill:#EDF6F5;}
	.st1{fill:#B2E5E0;}
	.st2{fill:#3FB8A9;}
	.st3{fill:#AECBC7;}
	.st4{fill:#F2D6C8;}
	.st5{fill:#F5B89B;}
	.st6{fill:#ADCCC7;}
	.st7{fill:#6EAB9C;}
	.st8{fill:#FFB500;}
	.st9{opacity:0.4;}
	.st10{opacity:0.4;fill:#F4D7C9;enable-background:new    ;}
	.st11{fill:#91415C;}
	.st12{fill:#75354A;}
	.st13{fill:#FDAB3F;}
	.st14{fill:#FFFFFF;}
	.st15{fill:#DCECEB;}
	.st16{fill:#489DA2;}
	.st17{fill:#408C91;}
	.st18{fill:#F5911F;}
	.st19{fill:#040707;}
	.st20{fill:#FFAB40;}
	.st21{fill:#0C1B3C;}
	.st22{fill:none;}
	.st23{fill:#EB908B;}
	.st24{fill:url(#SVGID_1_);}
	.st25{opacity:0.67;enable-background:new    ;}
	.st26{font-family:'Muli-ExtraBold';}
	.st27{font-size:2.9881px;}
	.st28{font-family:'OpenSans-Regular';}
	.st29{font-size:1.5678px;}
</style>
<g id="Layer_1">
	<path class="st0" d="M190.6,172.3h-75.8c0,0,5.2-11.6,17.2-6.8c0,0,4.4-12,14.8-10.6c10.4,1.4,12.4,8.7,12.4,8.7s11.2-4.5,22.1,4.6
		C181.4,168.1,190.2,167.1,190.6,172.3z"/>
	<path class="st0" d="M320.2,47.2h-57c0,0,3.9-9.6,13-5.6c0,0,3.3-9.9,11.2-8.7c7.8,1.2,9.4,7.1,9.4,7.1s8.4-3.7,16.6,3.8
		C313.3,43.7,319.9,42.9,320.2,47.2z"/>
	<g>
		<polygon class="st1" points="8.3,110.5 8.3,110.5 16.8,118 8.3,118.9 8.3,201.6 24.1,202.2 25,117.1 18,117.9 9.5,110.3 25,108.2 
			25,102.9 8.3,105.2 		"/>
		<polygon class="st1" points="26,161.2 65.2,173.1 65.2,167.5 26,147.6 		"/>
		<polygon class="st1" points="26,147 65.2,167 65.2,160.2 26,131.7 		"/>
		<polygon class="st1" points="26,192 65.2,193.4 65.2,187.1 26,183.5 		"/>
		<polygon class="st1" points="26,183 65.2,186.7 65.2,180.1 26,173.4 		"/>
		<polygon class="st1" points="26,202.2 65.2,202.2 65.2,193.9 26,192.5 		"/>
		<polygon class="st1" points="26,172.9 65.2,179.6 65.2,173.6 26,161.6 		"/>
		<polygon class="st1" points="65.2,144.2 25.5,102.9 25.5,108.2 61.2,145.3 61.2,150.9 26,117.1 26,131.1 65.2,159.7 65.2,154.8 
			62.2,151.8 62.1,146.3 65.2,149.5 		"/>
	</g>
	<path class="st2" d="M291.2,198.4L291.2,198.4c-23.5-9.7-63-21.4-77.2-28.5c-17.7-8.8-45.2-0.9-59.5,4.7
		c-8.1,3.2-13.9,4.4-13.3,5.8c0.1,0.4,0.8,0.4,1.9,0.2l1.5,19.1c0.1,0.7,0.6,1.2,1.2,1.2h145.5c0.6,0,1.2-0.6,1.2-1.3
		C292.4,199,291.9,198.4,291.2,198.4z M145.4,180.2c4.2-1.1,10.7-3.3,15.5-4.3c7.4-1.5,60.6,17.2,77.3,22.5h-91.3L145.4,180.2z"/>
	<path class="st1" d="M208.6,162.3C208.6,162.3,208.6,162.3,208.6,162.3l-9.1-27.6c0,0,0,0,0,0c0,0,0,0,0-0.1c0,0,0,0,0,0
		c0,0,0,0,0,0c0,0,0,0-0.1,0c0,0,0,0,0,0c0,0,0,0,0,0c0,0,0,0,0,0h0c0,0,0,0,0,0c0,0,0,0,0,0c0,0,0,0,0,0c0,0,0,0,0,0c0,0,0,0,0,0
		c0,0,0,0,0,0c0,0,0,0,0,0.1c0,0,0,0,0,0l-9.5,27.6c0,0,0,0,0,0l-4.3,12.6c9.5,6.3,28.8,3.9,28.8,3.9L208.6,162.3z M198.5,139
		l-2.9,23.3l-3,0L198.5,139z M192,162.3l-1.9,0l7.3-21.3L192,162.3z M199.2,137.6l1.7,24.7l-4.8,0L199.2,137.6z M199.8,138.3l5.3,24
		l-3.7,0L199.8,138.3z M200.7,140l7.3,22.3l-2.4,0L200.7,140z"/>
	<path class="st3" d="M325,199.5H-9.9v16.6H325V199.5z"/>
	<g>
		<path class="st2" d="M13.6,125.1c0.1,0.1,0.2,0.2,0.3,0.2c0.1,0,0.1,0,0.2,0c0.2-0.1,0.2-0.3,0.1-0.5l-1-1.8
			c-0.1-0.2-0.3-0.2-0.5-0.1c-0.2,0.1-0.2,0.3-0.1,0.5L13.6,125.1z"/>
		<path class="st2" d="M10.3,125.9l1.8,1c0.1,0,0.1,0,0.2,0c0.1,0,0.3-0.1,0.3-0.2c0.1-0.2,0-0.4-0.1-0.5l-1.8-1
			c-0.2-0.1-0.4,0-0.5,0.1S10.1,125.8,10.3,125.9z"/>
		<path class="st2" d="M12.1,129c0-0.2-0.2-0.4-0.4-0.4H9.6c-0.2,0-0.4,0.2-0.4,0.4s0.2,0.4,0.4,0.4h2.1
			C11.9,129.4,12.1,129.2,12.1,129z"/>
		<path class="st2" d="M12.8,131.1c-0.1-0.2-0.3-0.2-0.5-0.1l-1.8,1c-0.2,0.1-0.2,0.3-0.1,0.5c0.1,0.1,0.2,0.2,0.3,0.2
			c0.1,0,0.1,0,0.2,0l1.8-1C12.8,131.5,12.9,131.3,12.8,131.1z"/>
		<path class="st2" d="M14.4,132.6c-0.2-0.1-0.4,0-0.5,0.1l-1,1.8c-0.1,0.2,0,0.4,0.1,0.5c0.1,0,0.1,0,0.2,0c0.1,0,0.3-0.1,0.3-0.2
			l1-1.8C14.6,133,14.6,132.7,14.4,132.6z"/>
		<path class="st2" d="M16.5,133.2c-0.2,0-0.4,0.2-0.4,0.4v2.1c0,0.2,0.2,0.4,0.4,0.4s0.4-0.2,0.4-0.4v-2.1
			C16.9,133.3,16.8,133.2,16.5,133.2z"/>
		<path class="st2" d="M19.2,132.6c-0.1-0.2-0.3-0.2-0.5-0.1c-0.2,0.1-0.2,0.3-0.1,0.5l1,1.8c0.1,0.1,0.2,0.2,0.3,0.2
			c0.1,0,0.1,0,0.2,0c0.2-0.1,0.2-0.3,0.1-0.5L19.2,132.6z"/>
		<path class="st2" d="M22.5,131.8l-1.8-1c-0.2-0.1-0.4,0-0.5,0.1c-0.1,0.2,0,0.4,0.1,0.5l1.8,1c0.1,0,0.1,0,0.2,0
			c0.1,0,0.3-0.1,0.3-0.2C22.8,132.1,22.7,131.9,22.5,131.8z"/>
		<path class="st2" d="M23.2,128.3h-2.1c-0.2,0-0.4,0.2-0.4,0.4s0.2,0.4,0.4,0.4h2.1c0.2,0,0.4-0.2,0.4-0.4S23.4,128.3,23.2,128.3z"
			/>
		<path class="st2" d="M20.1,126.6c0.1,0.1,0.2,0.2,0.3,0.2c0.1,0,0.1,0,0.2,0l1.8-1c0.2-0.1,0.2-0.3,0.1-0.5
			c-0.1-0.2-0.3-0.2-0.5-0.1l-1.8,1C20,126.2,20,126.4,20.1,126.6z"/>
		<path class="st2" d="M18.9,124.9l1-1.8c0.1-0.2,0-0.4-0.1-0.5c-0.2-0.1-0.4,0-0.5,0.1l-1,1.8c-0.1,0.2,0,0.4,0.1,0.5
			c0.1,0,0.1,0,0.2,0C18.7,125.1,18.9,125,18.9,124.9z"/>
		<path class="st2" d="M12.5,128.6c-0.2,0-0.4,0.2-0.4,0.4s0.2,0.4,0.4,0.4h3.7c0.2,0,0.4-0.2,0.4-0.4v-4.8v-0.8v-1.3
			c0-0.2-0.2-0.4-0.4-0.4s-0.4,0.2-0.4,0.4v1.3v0.8v4.4H12.5z"/>
	</g>
	<g>
		<path class="st4" d="M126.2,189c-1.8-3.5-4-5.9-7.6-8.7c-3.6-2.8-8.2-2.8-10.1-3.7c-1.9-0.9-2,1.6-1.4,3.9
			c0.6,2.3-1.2,13.2,9.6,16.6C127.5,200.5,127.5,191.5,126.2,189z"/>
		<path class="st5" d="M119.3,191.3c-0.1,0-0.1-0.1-0.2-0.1c-0.5-3.8,1.4-7.6,1.4-7.6c0-0.1,0.1-0.1,0.2-0.1c0.1,0,0.1,0.1,0.1,0.2
			c0,0-1.9,3.7-1.4,7.5C119.5,191.2,119.4,191.3,119.3,191.3C119.3,191.3,119.3,191.3,119.3,191.3z"/>
		<path class="st5" d="M119.3,191.7C119.3,191.7,119.3,191.7,119.3,191.7c-3.3-1.7-8.9-1.1-9-1.1c-0.1,0-0.2-0.1-0.2-0.1
			c0-0.1,0.1-0.2,0.1-0.2c0.2,0,5.8-0.6,9.1,1.1c0.1,0,0.1,0.1,0.1,0.2C119.5,191.7,119.4,191.7,119.3,191.7z"/>
		<path class="st5" d="M120.4,194.8c-0.1,0-0.1,0-0.2-0.1c-2.3-9.6-11.5-16.4-11.6-16.5c-0.1-0.1-0.1-0.2,0-0.2
			c0.1-0.1,0.2-0.1,0.2,0c0.1,0.1,9.4,6.9,11.8,16.6C120.5,194.7,120.5,194.8,120.4,194.8C120.4,194.8,120.4,194.8,120.4,194.8z"/>
		<path class="st5" d="M116,185.8c0,0-0.1,0-0.1,0c-2.1-1.7-7.2-1.2-7.2-1.2c-0.1,0-0.2-0.1-0.2-0.1c0-0.1,0.1-0.2,0.1-0.2
			c0.2,0,5.3-0.5,7.5,1.3c0.1,0.1,0.1,0.2,0,0.2C116.1,185.8,116.1,185.8,116,185.8z"/>
		<path class="st5" d="M114.3,183.7c-0.1,0-0.1,0-0.1-0.1c-0.7-1.6-0.3-4.2-0.3-4.3c0-0.1,0.1-0.2,0.2-0.1c0.1,0,0.2,0.1,0.1,0.2
			c0,0-0.4,2.7,0.3,4.2C114.5,183.5,114.5,183.6,114.3,183.7C114.4,183.7,114.3,183.7,114.3,183.7z"/>
		<path class="st6" d="M97.8,199c-0.3-3.2,2.6-8.1,12.1-5c0,0,2.4-7.4,8.9-7.2c6.6,0.2,8.6,6.4,8.6,6.4s8.8-1.1,10.1,6.4
			C137.5,199.6,98.3,203.7,97.8,199z"/>
		<path class="st7" d="M117.4,199.6l-0.3-0.1c0.9-5.3-2.4-9.1-2.5-9.1l0.2-0.2C114.9,190.2,118.3,194.1,117.4,199.6z"/>
		<path class="st7" d="M117.5,196.3l-0.2-0.2c0,0,3-3.6,3.5-5.9l0.3,0.1C120.6,192.7,117.6,196.2,117.5,196.3z"/>
		<path class="st7" d="M117.4,198.2c-2.3-0.1-4.4-2.5-4.5-2.6l0.2-0.2c0,0,2.1,2.4,4.3,2.5L117.4,198.2z"/>
		<path class="st7" d="M124.7,199.7l-0.2-0.2c0.2-0.1,4.2-3.6,6.2-3.6l0,0.3C128.8,196.2,124.8,199.7,124.7,199.7z"/>
		<path class="st7" d="M132.5,199.1c0,0-3.2-0.2-5.8-0.9l0.1-0.3c2.5,0.7,5.7,0.8,5.7,0.9L132.5,199.1z"/>
		<path class="st7" d="M108.9,199.5c-2.1-1.7-6.5-3.1-6.6-3.2l0.1-0.3c0.2,0.1,4.5,1.4,6.7,3.2L108.9,199.5z"/>
		<path class="st7" d="M107.2,198.2l-0.3,0c0.1-1.8-0.7-3.2-0.7-3.2l0.3-0.2C106.5,194.9,107.3,196.3,107.2,198.2z"/>
	</g>
	<g>
		<path class="st8" d="M201.2,93c-0.5-2.3-0.9-6.1-0.2-9.4c1-4.7,3.3-8.8,6.1-12.6c2.4-3.4,4.9-6.8,7.6-10
			c8.5-10.6,14.7-18.6,19.5-31.2c3.1-7.9,2.3-19.2,1.8-24.1c0-0.4,1.2-3.7,1.7-4c0.8,3.4,2.2,7.5,2.8,10.3
			c1.9,8.7,2.4,17.4-2.3,26.1c-2.5,4.6-13.5,21.5-24.2,32c-4,3.9-8,7.3-10.1,12.5c-1.2,2.9-1.9,6.6-2,12
			C202,94.5,201.4,94.1,201.2,93z"/>
		<path class="st8" d="M246.7,32.2c0.4,2,0.5,5.4,0,7.3c-4.2,14.7-13.3,25.7-26.1,34c-2.1,1.4-4.1,2.8-6.1,4.3
			c-5.4,4.1-10.2,8.4-10.4,16.7c-0.4,0-0.5-0.5-0.6-1.2c-0.3-1.2-0.3-1.9-0.2-3c0.4-5.3,2.7-9.8,6.6-13.3c3.8-3.5,7.9-6.6,11.8-9.9
			C232,58.3,239.4,47.5,245,35c0.3-0.7,0.5-1.3,0.9-2C246.2,32.2,246.5,32.1,246.7,32.2z"/>
		<path class="st8" d="M205.2,94.2c-0.4-0.1-0.5-0.6-0.5-1.1c-0.1-2.4,1.8-6.3,3.9-8.3c3.9-3.7,7.4-5.5,11.3-8.3
			c4-2.9,8.4-5.2,12.3-8.1c7.3-5.3,12.5-11.7,15.1-20.5c0.1-0.6,1.5-2.2,1.7-2.1c0.2,2.9-0.1,6.7-0.9,9.2c-3,9.1-11.1,15.9-19,20.8
			c-5.3,3.2-10.8,5.9-16.1,9.1C209.4,87.1,206.4,89.9,205.2,94.2z"/>
		<path class="st8" d="M206.5,94.2c-0.5-1.3,0.9-3.1,1.4-3.7c2.7-3.4,5.7-4.6,9.5-6.5c3.4-1.7,9.6-3.3,13.6-5.4
			c4.9-2.5,7.6-4.3,9.9-5.9c1.2-0.8,2.8-2.5,2.8-2.5c-1,2.6-0.3,5.6-8.6,10.8c-6,3.8-15.4,6.3-19.9,7.5C209.5,90,208,92,206.5,94.2z
			"/>
		<path class="st8" d="M233.5,87.8c-0.9,0.9-3.1,2.7-4.9,3.6c-3,1.6-7.1,2-10.5,1.6c-3.6-0.3-7.2-0.8-10.5,1.4c1-2.4,2.7-3.7,5-4.1
			c1.9-0.3,3.8-0.4,5.7-0.5c4.8-0.2,9.7-1,13.8-3c1.3-0.6,2.1-1,2.1-1S234.4,86.9,233.5,87.8z"/>
	</g>
	<g class="st9">
		<path class="st10" d="M298.1,192.8l-1-0.6c-0.6-0.4-1.1-1.1-1-1.8c0-0.1,0-0.2,0-0.3c0-0.1,0-0.2,0-0.3c0-0.7,0.4-1.4,1-1.8l1-0.6
			c0.8-0.5,1.2-1.4,1-2.3c0,0,0,0,0,0c-0.2-0.9-1.1-1.5-2-1.5l-1.2,0c-0.8,0-1.5-0.4-1.8-1.1c-0.1-0.1-0.1-0.3-0.2-0.4
			c-0.4-0.6-0.4-1.5,0-2.1l0.6-1c0.5-0.8,0.4-1.8-0.3-2.5c0,0,0,0,0,0c-0.7-0.7-1.7-0.8-2.5-0.3l-1,0.6c-0.6,0.4-1.5,0.4-2.1,0
			c-0.1-0.1-0.3-0.2-0.4-0.2c-0.7-0.4-1.1-1.1-1.1-1.8l0-1.2c0-0.9-0.6-1.8-1.5-2c0,0,0,0,0,0c-0.9-0.2-1.9,0.2-2.3,1l-0.6,1
			c-0.4,0.7-1.1,1.1-1.8,1c-0.1,0-0.2,0-0.3,0c-0.1,0-0.2,0-0.3,0c-0.7,0-1.4-0.4-1.8-1l-0.6-1c-0.5-0.8-1.4-1.2-2.3-1c0,0,0,0,0,0
			c-0.9,0.2-1.5,1.1-1.5,2l0,1.2c0,0.8-0.4,1.4-1.1,1.8c-0.1,0.1-0.3,0.2-0.4,0.2c-0.6,0.4-1.5,0.4-2.1,0l-1-0.6
			c-0.8-0.5-1.8-0.4-2.5,0.3c0,0,0,0,0,0c-0.7,0.7-0.8,1.7-0.3,2.5l0.6,1c0.4,0.7,0.4,1.5,0,2.1c-0.1,0.1-0.2,0.3-0.2,0.4
			c-0.4,0.7-1.1,1.1-1.8,1.1l-1.2,0c-0.9,0-1.8,0.6-2,1.5c0,0,0,0,0,0c-0.2,0.9,0.2,1.9,1,2.3l1,0.6c0.7,0.4,1.1,1.1,1,1.8
			c0,0.1,0,0.2,0,0.3c0,0.1,0,0.2,0,0.3c0,0.7-0.4,1.4-1,1.8l-1,0.6c-0.8,0.5-1.2,1.4-1,2.3c0,0,0,0,0,0c0.2,0.9,1.1,1.5,2,1.5
			l1.2,0c0.8,0,1.4,0.4,1.8,1.1c0.1,0.1,0.2,0.3,0.2,0.4c0.4,0.6,0.4,1.5,0,2.1l-0.6,1c-0.5,0.8-0.4,1.8,0.3,2.5c0,0,0,0,0,0
			c0.7,0.7,1.7,0.8,2.5,0.3l1-0.6c0.7-0.4,1.5-0.4,2.1,0c0.1,0.1,0.3,0.2,0.4,0.2c0.7,0.4,1.1,1.1,1.1,1.8l0,1.2
			c0,0.9,0.6,1.8,1.5,2c0,0,0,0,0,0c0.9,0.2,1.9-0.2,2.3-1l0.6-1c0.4-0.7,1-1.1,1.8-1c0.1,0,0.2,0,0.3,0c0.1,0,0.2,0,0.3,0
			c0.7,0,1.4,0.4,1.8,1l0.6,1c0.5,0.8,1.4,1.2,2.3,1c0,0,0,0,0,0c0.9-0.2,1.5-1.1,1.5-2l0-1.2c0-0.8,0.4-1.5,1.1-1.8
			c0.1-0.1,0.3-0.2,0.4-0.2c0.6-0.4,1.5-0.4,2.1,0l1,0.6c0.8,0.5,1.8,0.4,2.5-0.3c0,0,0,0,0,0c0.7-0.7,0.8-1.7,0.3-2.5l-0.6-1
			c-0.4-0.7-0.4-1.5,0-2.1c0.1-0.1,0.1-0.3,0.2-0.4c0.4-0.7,1.1-1.1,1.8-1.1l1.2,0c0.9,0,1.8-0.6,2-1.5c0,0,0,0,0,0
			C299.3,194.2,298.9,193.3,298.1,192.8z M280.6,201.7c-6.3,0-11.5-5.1-11.5-11.5c0-6.3,5.1-11.5,11.5-11.5
			c6.3,0,11.5,5.1,11.5,11.5C292.1,196.5,287,201.7,280.6,201.7z"/>
	</g>
</g>
<g id="Layer_2">
	<path class="st0" d="M76.3,79.4h-62c0,0,4.3-9.5,14.1-5.6c0,0,3.6-9.8,12.1-8.7c8.5,1.1,10.2,7.1,10.2,7.1s9.2-3.6,18,3.7
		C68.8,75.9,76,75.1,76.3,79.4z"/>
	<rect x="808.8" y="7.9" class="st2" width="13.7" height="100.8"/>
	<polygon class="st2" points="851.2,138.4 823.9,109.9 823.9,9.1 851.2,37.5 	"/>
	<polygon class="st2" points="797.9,99.5 780,101.4 780,0.6 797.9,-1.4 	"/>
	<polygon class="st2" points="808,109 798.7,101.4 798.7,-1 808,8.1 	"/>
	<polygon class="st2" points="797.5,-12 780.4,-10.2 780.4,-15.8 797.5,-17.6 	"/>
	<polygon class="st2" points="808,-1.9 798.7,-12 798.7,-17.6 808,-7.5 	"/>
	<path class="st11" d="M99.8,49c0,0-1.5-5-1.5-6.6c0-1.6,1.5-6.1,2.3-6.2c0.8-0.1,2.4,8.7,3.1,9.9c0.7,1.2-0.6,2.9-0.6,2.9H99.8z"/>
	<path class="st11" d="M25.2,159.7l-5.3-5.9l2-2.1l4.1-4.2l5.1,5.6l-4,4.4L25.2,159.7z"/>
	<path class="st12" d="M27.2,157.5l-5.2-5.8l4.1-4.2l5.1,5.6L27.2,157.5z"/>
	<path class="st13" d="M19.9,153.9l5.3,5.9c0,0-0.3,5.1,2,8.2c2.3,3.1,2.9,5.3,1.8,7.6L13.2,158L19.9,153.9z"/>
	<path class="st14" d="M25.1,161.8c-1.2-0.9-4.1-1.7-4.1-1.7l0.1-0.3c0.1,0,3,0.8,4.2,1.7L25.1,161.8z"/>
	<path class="st14" d="M25.4,163.5c-1.5-0.6-3.7-0.4-3.8-0.4l0-0.3c0.1,0,2.4-0.3,3.9,0.4L25.4,163.5z"/>
	<path class="st14" d="M22.9,165.8l-0.1-0.3c0.1,0,1.6-0.6,3-0.7l0,0.3C24.4,165.2,22.9,165.8,22.9,165.8z"/>
	<path class="st15" d="M13.2,158l-1.3,1.1l15.8,17.4l1.3-1.1L13.2,158z"/>
	<path class="st16" d="M65.5,107.6c0,0-0.1,0.5-0.3,1.5c-0.4,2-1.2,5.8-2.1,9.8c-1.3,5.2-2.9,10.8-4.6,13.7
		c-1.9,3.3-9.9,10.4-16.9,16.2c-5.9,4.9-11,8.9-11,8.9l-10.7-11c0,0,22.2-20,22.8-20.8c0.6-0.8,3.2-12.4,4.2-21.6
		c0.4-4,1.7-8.2,2.9-11.8c1.6-4.6,3.3-8,3.3-8l10.4,3.8l0.1,1l1,9.8L65.5,107.6z"/>
	<path class="st17" d="M65.2,109.1c-0.4,2-1.2,5.8-2.1,9.8c-1.3,5.2-2.9,10.8-4.6,13.7c-1.9,3.3-9.9,10.4-16.9,16.2
		c1.7-9,12.4-8.2,10.8-14.9c-1.6-6.9,5.2-9.6,2.5-18.6c-2.7-9,1.7-15,1.7-15S60.7,104.4,65.2,109.1z"/>
	<path class="st11" d="M87.1,37.3c0,0-1.8,1.4-3.1,4.3c-0.5,1.1-0.9,2.5-1.1,4.1c-0.8,5.7-10.6-0.4-10.6-0.4l4.8-10l3.9-2.1l3.1,2.1
		L87.1,37.3z"/>
	<path class="st18" d="M72.2,43.8c0,0,0.8-2.4,1.9-2.5c1.1-0.1,9.2,1.1,9.6,3c0.4,1.9,0,3.1,0,3.1L72.2,43.8z"/>
	<path class="st18" d="M102.9,52.5l0.8-3.7c0,0-3.7-1-5.1-0.8c-1.4,0.2-2.7,4.5-2.7,4.5H102.9z"/>
	<path class="st18" d="M82.1,71.7c0,0,5.2,1.4,16.1-8.4c10.9-9.8-9.1-5.9-9.1-5.9L82.1,71.7z"/>
	<path class="st19" d="M101,162.4H67.6v1H101V162.4z"/>
	<path class="st19" d="M80.6,199l-10.2-46.7L60.3,199l-0.9-0.2L70,149.9c0-0.2,0.2-0.4,0.5-0.4c0.2,0,0.4,0.2,0.5,0.4l10.6,48.9
		L80.6,199z"/>
	<path class="st11" d="M80.9,171.4h-7.9l-0.2-2.9l-0.4-5.9H80l0.6,5.9L80.9,171.4z"/>
	<path class="st12" d="M80.6,168.4h-7.8l-0.4-5.9H80L80.6,168.4z"/>
	<path class="st13" d="M72.9,171.4h7.9c0,0,3.5,3.6,7.4,4c3.8,0.4,5.8,1.4,6.8,3.7H71.5L72.9,171.4z"/>
	<path class="st14" d="M78.3,174.7l-0.2-0.3c0.1-0.1,2.6-1.6,4.1-2l0.1,0.3C80.9,173.1,78.3,174.7,78.3,174.7z"/>
	<path class="st14" d="M81,176.3l-0.3-0.2c0.1-0.1,1.4-1.9,2.9-2.6l0.1,0.3C82.3,174.4,81,176.3,81,176.3z"/>
	<path class="st14" d="M83.9,177.1l-0.3-0.1c0-0.1,0.6-1.6,1.5-2.7l0.2,0.2C84.4,175.6,83.9,177.1,83.9,177.1z"/>
	<path class="st15" d="M95,179.1H71.5v1.7H95V179.1z"/>
	<path class="st19" d="M114.1,199l-10.2-46.7L93.7,199l-0.9-0.2l10.6-48.9c0-0.2,0.2-0.4,0.5-0.4c0.2,0,0.4,0.2,0.5,0.4l10.6,48.9
		L114.1,199z"/>
	<path class="st19" d="M97.2,180.3H63.7v1h33.5V180.3z"/>
	<path class="st16" d="M85.6,167.2H69.4c0,0,0.3-27,0.3-31.8c0-3.4-3.2-9-6.6-16.5c-1.4-3-2.8-6.4-4-10c-1.7-5-2.7-9.4-3.3-12.8
		c-0.9-5-0.9-7.9-0.9-7.9l8.7,1l12.7,1.4c0,0,1.4,4.9,3.1,11.3c2.8,10.1,6.4,23.9,6.5,27.1C86.1,134.2,85.6,167.2,85.6,167.2z"/>
	<path class="st17" d="M79.4,101.9c-3.5-1.5-7.1-2.9-10.7-2.7c-1.4,0.1-2.8,0-4.1-0.2c-3.3-0.5-6.3-1.6-8.8-2.8
		c-2.6-1.3-4.7-2.7-6-3.7c1.6-4.6,3.3-8,3.3-8l10.4,3.8l0.1,1l12.7,1.4C76.3,90.6,77.7,95.6,79.4,101.9z"/>
	<path class="st20" d="M129.8,51.5c0,0-13.5,13.2-17.4,14.1c-3.9,0.9-18.3-3.7-20.7-3.6c-1.1,0.1-3.4,7.7-5.5,16
		c-2.6,10.1-5.1,21.2-5.1,21.2s-6.7-2.7-17.7-3.4c-1.6-0.1-3.1-0.3-4.4-0.7c-7.6-1.9-10.5-6.8-10.5-6.8
		c10.8-15.4,10.9-28.9,13.2-37.3c2.2-8.4,11.2-9,18-6.9c3,0.9,9.4,2.1,12.4,3.1c3,1,18.4,7,19.5,7c1,0,13.8-7.2,13.8-7.2
		C129.5,47,129.8,51.5,129.8,51.5z"/>
	<path class="st11" d="M125.7,48c0,0,2.6-2.3,4.8-3.2c2.2-0.9,5.2-2.7,5.2-1.8c0,1-2.7,2.3-2.7,2.3l8.2-0.7c0,0-3.6,3.7-6.5,4.4
		c-2.9,0.7-6.6,2-6.6,2L125.7,48z"/>
	<path class="st2" d="M149.4,15L100,19.1l2.4,28.7l49.5-4.1L149.4,15z"/>
	<path class="st14" d="M146.7,18.2l-43.5,3.6l1.9,22.7l43.5-3.6L146.7,18.2z"/>
	<path class="st17" d="M81.5,167.3h-1c0-0.3,0-29-0.1-35.9c-0.2-6.8-12.1-34.5-12.2-34.8l0.9-0.4c0.5,1.1,12.1,28.1,12.3,35.1
		C81.6,138.3,81.5,167,81.5,167.3z"/>
	<path class="st18" d="M86.2,78c-2.6,10.1-5.1,21.2-5.1,21.2s-6.7-2.7-17.7-3.4c-1.6-0.1-3.1-0.3-4.4-0.7c0.3-0.3,0.5-0.6,0.8-0.8
		c9-8.1,12.4-2.7,16.8-8.5C79.9,81.3,83.1,81.1,86.2,78z"/>
	<path class="st21" d="M91.1,23.5l1.6-1.7c0,0,0.2-3.1-2.9-7.1c-3.1-4-4.9-2.5-3.5,0c1.4,2.5-2.8,1.2-6.5,0.7c-3.7-0.5-6.8,0-5,2.5
		c1.9,2.4,0.3,2.5-4.3,4.4c-4.6,1.9-3.9,4.7,0,5c3.9,0.3,1.3,2.6-1.7,5.8c-3,3.2-0.7,5,2.6,3.2c3.3-1.8,4,0.2,2.9,3
		c-1.1,2.8,2.8,0.4,4.6-1.6c1.8-2,1.3,1.5,4-2.9C85.6,30.4,91.1,23.5,91.1,23.5z"/>
	<path class="st12" d="M87.1,37.3c0,0-1.8,1.4-3.1,4.3c-2.2-2.3-0.9-6.3-0.9-6.3l0.9-0.1L87.1,37.3z"/>
	<path class="st11" d="M92.7,21.8c0,0-0.5,5.1,0.4,7.7c0.9,2.6,1.9,2.7,0.8,3.7s-1.9,0.8-2.1,2c-0.2,1.1,0.3,5.1-2.6,5
		c-2.9-0.1-6-4.2-6.3-5.3c0,0-3-1-3.1-3.5c-0.1-2.5,2.4-3.4,3.4-2.2c1,1.2,2.1-0.3,2.1-2.2c0.1-1.9,1.3-4.6,3.3-4.4
		C90.7,22.5,91.6,20.4,92.7,21.8z"/>
	<g>
		<rect x="238.1" y="181.8" class="st22" width="42.5" height="26.2"/>
		<path class="st14" d="M251.2,197c0.9,0,1.3-0.6,1.3-1.4v-4h1.8v4.1c0,1.8-1.5,2.5-3.1,2.5c-1.6,0-3.1-0.7-3.1-2.5v-4.1h1.8v4
			C249.9,196.4,250.4,197,251.2,197z"/>
		<polygon class="st14" points="243.4,198.1 245.2,198.1 245.2,192.8 247.3,192.8 247.3,191.6 241.4,191.6 241.4,192.8 243.4,192.8 
					"/>
		<path class="st14" d="M247.8,188.4c-0.4,0.1-0.9,0-0.9-0.6c0-0.9,2.1-1.7,2.4-2.4c0.1-0.2,0.1-0.4,0-0.4c-0.1,0,0,0.1-0.2,0.3
			c-0.9,0.9-2.3,0.9-3.5,1.4c-0.7,0.3-2.9,1.4-2.4,3.6c0,0.1,0.1,0.5,0.2,0.5c0.1,0,0.1-0.2,0.1-0.5c0-1.4,1.6-1.7,2.1-2.6
			c0.1-0.1,0.2-0.3,0.2-0.2c0,0,0,0.1,0,0.2c-0.2,0.7-0.9,1.2-0.7,1.7c0.3,0.7,1.1,0.2,1.3-0.3c0.1-0.1,0.1-0.2,0.1-0.2
			c0,0,0,0.1,0,0.3c-0.1,0.8-0.3,1.2-0.9,1.7c-0.2,0.1-0.5,0.2-0.4,0.3c0,0,0.1,0,0.2,0c1.5-0.1,2.8-1.9,3.1-3.1c0-0.1,0-0.2,0-0.2
			c0,0-0.1,0-0.2,0.1C248.2,188.2,248,188.3,247.8,188.4z"/>
		<path class="st14" d="M263.2,195.4c0-0.7,0.4-1.3,1.2-1.3c0.8,0,1.2,0.6,1.2,1.3H263.2z M266.5,196v-0.4c0-1.3-0.7-2.1-2-2.1
			c-1.4,0-2.1,1.1-2.1,2.4c0,1.3,0.6,2.4,2,2.4c1.1,0,1.9-0.5,2-1.5h-0.9c-0.1,0.7-0.4,0.9-1.1,0.9c-0.9,0-1.2-0.8-1.2-1.6H266.5z"
			/>
		<rect x="267.5" y="191.6" class="st14" width="0.9" height="6.5"/>
		<path class="st14" d="M271.1,198.1v-3.9h1v-0.6h-1v-0.7c0-0.5,0.3-0.6,0.7-0.6c0.1,0,0.3,0,0.4,0v-0.7c-0.2,0-0.4-0.1-0.6-0.1
			c-0.8,0-1.4,0.4-1.4,1.3v0.8h-0.9v0.6h0.9v3.9H271.1z"/>
		<path class="st14" d="M272.6,193.6v0.6h0.8v2.9c0,0.6,0,1.2,1.3,1.2c0.2,0,0.4,0,0.6-0.1v-0.7c-0.1,0-0.3,0.1-0.5,0.1
			c-0.3,0-0.6-0.2-0.6-0.5v-2.9h1.1v-0.6h-1.1v-1.2l-0.9,0.3v1L272.6,193.6z"/>
		<path class="st14" d="M256.2,198.1h2.2c2.8,0,3.1-2.4,3.1-3.3c0-0.9-0.3-3.3-3.1-3.3h-2.2V198.1z M257.1,192.3h1.3
			c1.5,0,2.1,1.1,2.1,2.5c0,1.4-0.6,2.5-2.1,2.5h-1.3V192.3z"/>
	</g>
	<path class="st23" d="M242.6,98.4l70.9,4l-0.5,15.7l-9.8-0.6l4.4,12.4L290,116.7l-47.9-2.6L242.6,98.4z"/>
	<g id="Iran">
		<linearGradient id="SVGID_1_" gradientUnits="userSpaceOnUse" x1="428.2423" y1="215.9471" x2="373.3325" y2="120.8406">
			<stop  offset="2.543367e-02" style="stop-color:#CC0000"/>
			<stop  offset="0.1061" style="stop-color:#CF2A2A"/>
			<stop  offset="0.2632" style="stop-color:#D67676"/>
			<stop  offset="0.3932" style="stop-color:#DAAEAE"/>
			<stop  offset="0.4894" style="stop-color:#DDD1D1"/>
			<stop  offset="0.5413" style="stop-color:#DEDEDE"/>
			<stop  offset="0.9992" style="stop-color:#00A700"/>
		</linearGradient>
		<path class="st24" d="M351.4,126.4L351.4,126.4L351.4,126.4L351.4,126.4l0.2,0.1l0.1,0l0,0l0,0l0.1,0.1l0.1,0.1l0.1,0.6l0.1,0.1
			l0.1,0.1l0,0.1l0,0l0.1,0.1l0,0l0.1,0l0,0l0,0l0,0l0,0l0.2,0.1l0,0l0,0l0,0.1l0,0.1l0,0l0,0.1l0.1,0.2l0,0.1l0,0.1l0,0.1l0,0.3
			l0,0.1l0.1,0l0.5,0.2l0,0l0,0l0,0l0,0l0,0l0,0.1l0,0.1l0,0l0.1,0l0.1,0l0,0.1l0,0.1l0,0.1l0,0l0,0l0,0l0,0l0,0.1l0,0.1l0,0
			l0.1,0.1l0,0l0,0.1l0,0.1l0,0.1l0,0.1l0.1,0.1l0.1,0.1l0.1,0.1l0.1,0l0.1,0l0.1,0.1l0,0l0,0l0.1,0l0.3,0.1l0.4,0l0.2,0.1l0.1,0
			l1,0.2l0.3,0.1l0.3,0.1l0,0l0.3,0l0.1,0l0.2-0.2l0.1,0l0.1,0l0.2,0l0.1,0l0.1,0l0.1,0l0.5,0.2l0.1,0l0.1,0l0.1,0l0.1,0l0.1-0.1
			l0.1-0.1l0.1-0.1l0.1-0.3l0.1-0.1l0.1-0.1l0.3-0.1l0.1-0.1l0.1-0.2l0.1-0.1l0,0l0.1,0l0,0l0,0l0.1-0.2l0.1-0.1l0.1-0.1l0,0l0.1,0
			l0.1,0l0.1,0.1l0.1,0l0.1,0l0.3-0.2l0,0l0-0.1l0,0l0.1-0.2l0.2-0.3l0-0.1l0-0.1l0.2-0.1l0.5-0.2l0.1,0l0.1-0.1l0.2-0.2l0,0
			l0.2-0.3l0.2-0.1l0.2-0.1l0.3-0.1l0.1,0l0.1,0l0.3-0.3l0.1,0l0.6-0.3l0.2-0.2l0.1-0.1l0.1-0.1l0.1,0l0.4,0l0.1,0l0,0l0.1-0.1l0,0
			l0.1,0l0.1,0.1l0.3,0.3l0.8,1l0.3,0.3l0.1,0.2l0.1,0.2l0,0l-0.1,0l-0.2,0.2l-0.3,0.1l-0.2,0.1l-0.1,0.1l-0.1,0.2l0,0.2l0.1,0.2
			l0.1,0.2l0.3,0.3l0.3,0.1l0.1,0.1l0.1,0.3l0,0.1l0,0.1l0,0.1l0,0l0,0.1l0,0.1h0l0,0l-0.2,0.1l-0.9,0.2l0,0l0,0l0,0l-0.2,0.2l0,0.1
			l0,0.2l0.1,0.2l0.3,0.2l0.6,0.3l0.1,0.1l0,0.1l0,0.1l0,0.1l0,0.1l0.2,0.2l0.1,0.1l0.1,0.1l0.1,0l0.2-0.1h0.1l0.1,0.1l0,0.2
			l0.1,0.1l0.1,0.1l0.1,0.1l0.1,0.1l0.1,0.1l0.1,0.1l0.1,0.1l0.1,0.2l0.2,0.1l0,0l0.2,0l0.1,0l0.1-0.1l0.1-0.1l0.1-0.1l0.1-0.1
			l0.2,0l0.3,0.1l0,0.5l-0.1,0.2l0,0.1l0,0.3l0.1,0.2l0.1,0.7l0.2,0.7l0,0.1l0,0.1l0,0.1l0,0.1l0.2,0.3l0,0.1l0,0.1l0,0l0,0.2
			l0.1,0.2l0.2,0.4l0.3,0.3l0.3,0.2l0.8,0.4l0.4,0.1l1.8,0.2l0.2,0l0.2-0.1l0.2,0l0.2,0.1l0,0l-0.1,0l0,0l0,0l0.4,0.2l0.6,0.1
			l0.2,0.1l0.1,0.1l0,0.2l0,0.1l0.1,0.2l0,0.1l0.1,0.1l0.1,0.3l0.1,0.2l0.2,0.2l0.3,0.3l0.2,0.3l0.1,0l0.1,0l0.5,0.4l0.1,0l0.1,0
			l0.1,0.2l0.1,0.1l0.7,0.4l0.7,0.5l0.4,0.2l1.3,0.3l0.8,0.2l0.9,0.2l0.8,0.2l0.9-0.1l0.8-0.3l0.8-0.2l0.8-0.2l0.8-0.2l0.8-0.2
			l0.8-0.2l1.6-0.4l0.2,0l1.9-0.1l0.3-0.1l0.2-0.2l0,0.2l-0.3,0.1l-0.3,0L394,143l-0.1,0l-0.1,0l-0.1,0l-0.1,0l-0.1,0.1l-0.1,0
			l-0.3,0H393l0,0.1l0.1,0l0.2,0l-0.1,0l0,0l0.1,0.2l0.2,0.1l0.7,0.1l0.1,0l0.1,0l0.6-0.2l0.1,0l0-0.1l0-0.6l0-0.1l-0.1,0l-0.1,0
			l0-0.1l0.1-0.2l-0.1-0.2l-0.1-0.2l-0.1-0.5l-0.1-0.4l0-0.1l0-0.5l1.3,0.1l0.1,0l0.1,0l0.1-0.1l0.1-0.1l0.1,0l0.1,0l0.1,0l0.2-0.1
			l0.8-0.5l0.1,0l0.3,0.1l0.1,0l0.1,0l0.1-0.1l0.1,0l0.1-0.1l0.2-0.1l0.1-0.1l0,0l0-0.1l0.1-0.1l0-0.1l0-0.1l0,0l0,0l-0.1-0.1l0,0
			l0-0.1l0.1-0.2l0-0.1l0-0.1l0.1-0.1l0.1-0.2l0.7-0.5l0.2-0.2l0-0.1l0-0.1l0.1,0l0.1,0l0.1,0l0,0l0.1-0.1l0,0l0.1,0l0.3-0.1l0.1,0
			l0-0.1l0.1-0.1l0.2-0.1l0.1,0l0.1-0.1l0.1-0.1l0.4-0.3l0.1,0l0.3,0l0.9-0.2l0.1,0l0.3,0.1l0.2,0.1l0.1,0l0.2,0l0.1,0l0.1,0.1
			l0.1,0l0.1,0l0.7-0.1l0.2,0l0,0l0.1,0.1l0.1,0l0.4-0.1l0.1-0.1l0-0.1l0-0.1l0-0.1l-0.1-0.1l0-0.1l0.3-0.3l0.2-0.1l0.2-0.1l0.4,0
			l0.1,0l0.1,0l0.1,0l0.1,0l0.1,0l0.4-0.2l0.2,0l0,0l0.2,0.2l0.2,0.1l0.1,0l0.7,0.1l0.2,0.1l0.1,0l0.1,0l0.1-0.1l0.2-0.1l0.1-0.1
			l0.1-0.2l0,0l0,0l0.1,0l0.1,0l0.1,0l0.1,0l0.1,0l0,0l0,0l0,0.1l0.1,0.2l0.1,0.2l0.1,0.1l0.2,0.2l0.1,0.2l0.1,0.1l0,0.1l0,0.1
			l-0.1,0.3l0.1,0.2l0.7,0.3l0.1,0l0.1,0l0.1,0l0.1,0l0.2,0.1l0.2,0l0.1,0l0.1,0l0.1,0l0.1,0.1l0.1,0l0,0l0,0l0.1,0l0,0l0,0l0,0.1
			l0,0l0.1,0l0.1,0l0.1,0l0.1,0l0.2,0l0.7,0.4l0.3,0.1l0.2,0l0.1,0l0.1,0l0,0l0,0l0,0l0,0l0.1,0.1l0,0l0,0.1l0,0.1l0,0.1l0.1,0.1
			l0.1,0l0.4,0.1l0.1,0l0.1,0.1l0.1,0l0.4,0l0.1,0l0.1-0.1l0-0.1l0.1-0.1l0.1-0.1l0.1,0l0.1,0l0.2,0.2l0.2,0.1l0.1,0l0.1,0l0,0l0,0
			l0,0l0.1,0l0.1,0l0,0l0,0l0.1-0.1l0-0.1l0,0l0.3,0.2l0.4,0.1l0.2,0.1l0.1,0l0.1,0l0.1,0l0.1,0l0.2,0.2l0.6,0.5l0.1,0l0.3-0.1
			l0.1,0l0.1,0.1l0.1,0.1l0,0.1l0,0.1l0,0.1l0,0l0,0.1l0,0.1l0,0.1l0,0.1l0.1,0.4l0.1,0.1l0.3,0.2l0.1,0.1l0,0l0,0l0,0l0,0l0,0l0,0
			l0,0l0.1,0l0,0l0,0l0,0l0,0l0.1-0.1l0.1,0l0.1,0.1l0,0.1l0,0.1l0,0.1l0.1,0.1l0,0l0,0l0.1-0.1l0,0l0.1,0l0.7,0.2l0.3,0.3l0.2,0.1
			l0.4,0.1l0.2,0.1l0.1,0.2l0.2,0.4l0.2,0.3l0.5,0.6l0.1,0.2l0.1,0.4l0.1,0.2l0.2,0.1l0.8,0l0.7,0l1,0l0.6,0l0.5,0l0.2,0l0.2,0
			l0,0.2l0,0.1l0,0.1l0,0.1l0,0.1l0,0.1l0,0.1l0,0l0,0.1l0,0.1l0,0.1l-0.1,0.5l0,0.3l0.1,0.2l0,0l0,0l0,0l0,0l0,0l0,0l0,0l0,0.1
			l0,0.1l0,0.1l0,0.1l0.1,0.1l0.1,0.4l0,0.2l0,0l0,0l0,0.1l0,0l0,0.1l0,0.1l0,0.1l0,0.1l0,0l0,0l0,0l0,0.1l0,0.1l0,0.1l-0.1,0.1
			l-0.1,0.1l-0.1,0.1l0.1,0l0.1,0l0.1,0.1l0.1,0.1l0.1,0.1l0,0.1l0,0.1l0,0.1l0,0.2l0,0.1l0,0.1l0,0.1l0,0l0,0.1l0,0.1l0,0l0,0.1
			l0,0l-0.1,0.1l0,0l0,0.2l0.1,0.1l0.1,0.2l0,0.1l0,0.2l0,0.1l0,0.1l-0.1,0.1l-0.1,0.1l-0.1,0.1l0,0.2l0,0.1l-0.1,0.1l0,0.1l0,0.1
			l0,0.3l0,0.1l-0.1,0.1l-0.1,0l-0.1,0l-0.1,0.1l0,0.1l0,0.1l0,0.1l0,0l0,0.1l0,0.1l0,0l0,0l0,0.1l0.2,0.2l0,0l0,0.1l0,0.1l0,0
			l0,0.1l-0.1,0.2l0,0.1l0,0.2l-0.1,0.2l0,0.1l0,0.1l-0.1,0.1l0,0.1l0,0.1l0,0.1l0,0l0,0.2l0,0.2l-0.1,0l0,0.1l-0.1,0.2l-0.1,0.1
			l-0.1,0.1l0,0.1l0,0.1l0,0.1l0,0.1l-0.1,0l-0.1,0l-0.1,0l-0.1,0l0,0l0,0l-0.2,0.2l-0.1,0.1l-0.1,0l-0.3,0l-0.1,0.1l-0.1,0.1l0.1,0
			l0,0l0,0l0,0.1l0,0l0.1,0.1l0.1,0.1l0,0.1l0.1,0.1l0.4,0.5l0.1,0.1l-0.4,0l-0.5,0l-0.3,0l0,0.1l-0.1,0.1l-0.2,0.1l-0.2,0.2
			l-0.1,0.2l-0.1,0.3l0,0.3l0,0.1l0.1,0.5l0.1,0.9l0,0.2l-0.1,0.3l0,0.2l0.1,0.4l0.3,0.3l0.4,0.2l0.4,0l0.3,0l0.2,0l0.2,0l0.1,0
			l0.1,0.1l0,0.1l0,0l0,0.1l-0.1,0l-0.2,0l-0.1,0.1l0,0.1l0,0.1l0,0.1l0,0.1l0,0.1l-0.2,0.1l-0.1,0.1l-0.2,0.2l-0.2,0.3l-0.3,0.3
			l-0.2,0.3l0,0.1l0,0.4l0.1,0.4l0.1,0.5l0.2,0.5l0.2,0.6l0.2,0.6l0.2,0.6l0.2,0.8l0.2,0.6l0,0.5l-0.1,0.4l0,0.1l-0.1,0.2l0,0.1l0,0
			l0,0l0,0l0,0.1l0,0.1l0,0.1l0,0.1l0,0.1l0,0.3l0,0.3l0.1,0.5l-0.1,0.4l0,0.1l0.1,0.3l0.1,0.5l0.2,0.1l0.5,0.1l0.8,0.1l0,0l0.8,0.1
			l0.9,0.1l0.5,0.1l0.3,0l0.1,0l0.1,0.1l0.2,0.2l0,0.1l0,0.2l0,0.1l0,0.1l0.1,0.2l0,0.1l0,0.2l0,0.1l0.1,0.2l0.1,0.2l0,0.1l0,0.1
			l0,0.1l-0.1,0.2l0,0.1l0,0.4l0,0l0,0l0,0.1l0,0l0,0l-0.1,0.1l-0.4,0.5l-0.6,0.7l-0.5,0.7l-0.4,0.5l-0.5,0.6l-0.3,0.3l-0.4,0.5
			l-0.7,0.9l0,0l-0.4,0.4l-0.3,0.3l0.4,0.5l0.3,0.3l0.3,0.4l0.4,0.4l0.4,0.4l0.4,0.5l0.1,0.1l0.1,0l0.1,0.1l0,0.1l0,0.1l-0.1,0.2
			v0.1l0,0.1l0.2,0.2l0.1,0.1l0,0.1l0,0.1l0,0.1l0.1,0.1l0,0l0,0l0.1,0l0,0.1l0,0.1l0,0.1l0.1,0l0,0l0,0l0,0l0,0l0,0l0,0l0,0l0,0
			l0.1,0l0.1,0l0,0.1l0.2,0.5l0,0.1l0,0.1l0,0.1l0.1,0.2l0.1,0.3l0.1,0.2l0.5,0.4l0.2,0.3l0.3,0.3l0.1,0.2l0.1,0l0.3,0.1l0.2,0.1
			l0.1,0l0.3,0l0.2,0l0.4,0.2l0.6,0.1l0.1,0.1l0.1,0.1l0,0.1l0,0.1l0.1,0l0.1,0l0,0l0,0.1l0,0.1l0.1,0.1l0.3,0.3l0.1,0.1l0.8-0.2
			l0.1,0.1l0,0.2l-0.1,0.6l-0.1,0.6l0.1,0.4l0.1,0.5l0,0.3l0,0.4l0,0.3l0,0.5l0,0.3l0,0.2l-0.2,0.6l0.1,0.1l0,0.1l0,0.1l0,0.1l0,0.1
			l0,0l-0.1,0l0.2,0.2l0.1,0l0,0l0.1,0l0,0l0,0l0.1,0.1l0.1,0l0.1,0l0.3-0.1l0.1,0l0.2-0.1l0.1,0l0.1,0l0.1,0l0.3-0.1l0,0l0.1,0
			l0.1,0.1l0.1,0l0.1,0l0,0l0.1,0.1l0.1,0.1l0.2,0.4l-0.1,0l-0.1,0l-0.1,0l-0.1,0.1l0,0.1l-0.1,0.1l0,0.1l0,0.1l0,0.6l0,0.1l0.1,0.1
			l0,0.1l0,0.1l-0.1,0.1l-0.2,0l-0.1,0l0,0.1l0,0.8l0,0.2l-0.1,0.1l0,0l0,0l0,0l0,0l0,0l-0.1,0l-0.2,0l-0.2,0l-0.4,0l-0.4,0l-0.3,0
			l-0.1,0l0,0l0,0.1l0,0l0,0l0,0l-0.1,0l0,0l-0.1,0l-0.1,0l0,0l0,0l0,0l-0.1,0l-0.8,0.1l0,0l0,0l0,0.1l0,0l0,0l-0.1,0l0,0l0,0
			l-0.1,0l0,0l-0.1,0l0,0l0,0l0,0l0,0l0,0l0,0l0,0.1l-0.1,0.1l0,0.1l0,0.1l0,0.1l0,0.1l-0.1,0.1l-0.2,0l-0.2-0.1l-0.2,0l-0.1,0.1
			l0,0.1l0,0.1l-0.2,0l-0.1,0l-0.1,0l-0.2,0.1l-0.6,0.2l-0.1,0.1l-0.1,0.1l0,0.2l0,0.3l0,0.3l0,0.3l-0.1,0.4l0,0.4l0,0.1l-0.1,0.1
			l-0.1,0l-0.1,0l-0.1,0l-0.1,0.1l0,0.2l0.1,0.2l0,0.2l0,0l-0.1,0.1l0,0.1l0,0.1l0,0.3l0,0.4l0,0.5l0,0.4l-0.2,0.4l0-0.1l0-0.1
			l-0.1-0.1l0,0l0,0l0,0l0,0l0,0.1l0,0l0,0l0,0.1l0,0l-0.1,0l-0.1,0l-0.1,0l-0.1,0.1l0.1,0l0,0l0,0l0,0.1l-0.1,0.1l0,0.1v0l0,0l0,0
			l-0.1,0l-0.3,0.1l0.1,0l-0.1,0.1l-0.8-0.3l-0.3-0.1l0-0.1l-0.1-0.1l-0.7-0.2l-0.8-0.1l-0.7-0.2l-0.4-0.1l-0.1,0l0.1-0.1l-0.1-0.2
			l0-0.1l0-0.3l0,0l-0.2-0.2l-0.1,0l-0.1,0l-0.1,0l-0.3,0.1l-0.1,0l0,0.1l-0.1,0.1l0,0.1l0,0l0,0l0,0.1l0,0l0,0l0.1,0l0,0l0,0l0,0
			l0,0.1l-0.1,0l0,0l0.1,0.1l0,0.1l-0.1,0l-0.2-0.1L425,207l-0.1-0.1l-0.2,0l-0.1-0.1l0-0.1l0,0l-0.1,0l-0.1,0l-0.2,0l-0.1,0l0,0
			l0,0v0l0,0l0.1,0.1l0,0.1l-0.1,0l-0.1-0.1l-0.1,0l-0.2,0l0,0l-0.1-0.1l-0.1,0l-0.2,0l-0.2,0l-0.3,0l-0.2,0.1l-0.2-0.1l-0.2-0.2
			l-0.2-0.1l-0.5,0l-0.2,0l-0.4-0.1l-0.2-0.2l-0.2-0.1l-0.3,0.1l-0.6,0.1l-0.1,0l-0.3,0l-0.3,0.1l-0.1,0l0,0l0,0l0,0l0,0l0,0l0,0
			l-0.1,0l-0.1,0l-0.1,0l-0.1-0.1l-0.2-0.4l-0.1-0.1l-0.2-0.1l-0.2,0l0,0l0,0l0-0.1l0,0l-0.1,0h-0.4l-0.9-0.2l-0.3,0l-0.3,0l-0.1,0
			l0-0.1l-0.1,0l-0.2,0l-0.1,0l-0.1,0.1l-0.1,0l0,0l0,0l0,0l-0.1,0.1l0,0l0,0l0,0l0,0l0,0l-0.2,0.1l-0.2,0l-0.2,0l-0.1,0l-0.2,0
			l-0.1-0.1l-0.1-0.1l-0.1-0.3l-0.1-0.2l-0.2,0l-0.2,0.1l-0.2,0.1l-0.2,0.1l-0.1,0.1l-0.1,0l0-0.2l0-0.1l0,0l0,0l0,0l0-0.1l-0.1-0.1
			l-0.1,0l-0.1,0l-0.1,0l-0.3,0.1l-0.1,0l-0.1,0l-0.1,0l-0.1,0l-0.1,0l0,0l-0.1,0l-0.3-0.1l0,0l-0.6,0l-0.1,0l0-0.1l0-0.3l-0.1-0.3
			l-0.1-0.2l0-0.1l0,0l0,0l-0.1-0.1l0,0l-0.1,0l0,0l0,0l0-0.1l-0.1-0.2l0-0.1l0-0.1l0-0.1l0-0.1l0.1-0.2l0.1-0.1l-0.1-0.2l-0.3-0.3
			l0-0.1l0,0l0-0.2l0-0.1l-0.1-0.1l-0.1-0.1l0,0l0,0l0-0.1l0,0l0.1-0.7l0-0.2l-0.3-1.2l-0.1-0.1l-0.2-0.1l-0.1-0.1l0-0.1l-0.1-0.1
			l0-0.1l0.1,0l0.1,0l0,0l0.1,0l0,0l0,0l0-0.1l0,0l-0.1,0.1l0,0l0,0l0,0l0,0l0,0l0,0l0,0l0,0l-0.1,0l0,0l0,0l0-0.1l-0.1,0l0,0l0,0
			l0,0l0,0l0.1-0.1l0,0v0l-0.1,0l-0.1-0.1l-0.1-0.1l0-0.1l-0.1,0.1l-0.1,0l-0.1,0l-0.1,0l0-0.1l0-0.1l0,0l-0.5,0l-0.1,0l0,0
			l-0.1-0.1l-0.1,0l-0.3,0l-0.1,0l-0.2-0.1l-0.1,0l-0.3,0l-0.1,0l-0.1,0.1l-0.1,0l-0.3,0l-0.1,0l0,0l-0.1,0.1l0,0l0,0.1l0,0l0,0l0,0
			l-0.1,0.1l-0.3,0.2l-0.1,0.1l0,0l0,0L404,198l-0.1,0l-0.2,0l-0.2,0l-0.1,0l-0.2,0l-0.1,0l-0.1,0.1l0,0H403l-0.1,0l0,0l-0.1,0
			l-0.2,0.1l-0.1,0l-0.1,0l-0.3,0.3l0.1,0l0,0l0,0l0,0.1l0,0.2l-0.1,0.2l-0.1,0.1l-0.2,0.1l-0.2,0.1l-0.2,0l-0.2,0l-0.4-0.1l-0.2,0
			l-0.2,0.1l-0.1,0.1l0,0.1l0,0.1l-0.1,0l-0.1,0l-0.2,0.1l-0.1,0l-0.3,0.3l-0.1,0l-0.5,0.4l-0.5,0.3l0,0l0,0l0,0l0,0l-0.1,0l-0.1,0
			l-0.1,0l-0.4,0l-0.2,0l-0.1-0.1l-0.1-0.2l-0.1-0.1l-0.2,0l-0.4,0l-0.2-0.1l-0.1-0.1l-0.1-0.2l-0.1-0.2l-0.1-0.1l-0.1,0l-0.1,0
			l-0.1,0l-0.4,0l-0.1,0l-0.3-0.1l-0.1,0l-0.1,0l-0.1-0.1l0,0l0,0l-0.1,0l-0.3,0.1l-0.2,0l-0.2,0.1l-0.1,0l-0.2-0.1l-0.1,0l-0.1,0.1
			l-0.1,0l-0.2-0.2l-0.4-0.2l-0.5-0.3l-0.1-0.1l0-0.1l0-0.3l0-0.1l-0.1-0.1l-0.2-0.1l-1.6-0.5l-0.1,0l-0.1,0l-0.1-0.1l0-0.1
			l-0.1-0.1l-0.3-0.1l0-0.1l0-0.1l-0.1-0.1l-0.2-0.1l-0.4-0.3l-0.2-0.1l-0.3-0.1l-0.4-0.2l-0.1-0.1l0-0.1l0-0.1l0.1,0l0.1,0l0.1,0
			l0.1,0l0.1-0.1l0-0.1l-0.1-0.1l-0.2-0.1l-0.1-0.1l0-0.1l-0.1-0.2l0-0.1l-0.4-0.4l-0.2-0.1l-0.2-0.1l-0.8-0.2l-0.2-0.1l-0.6-0.5
			l-0.2-0.1l-0.2-0.1l-0.2,0l-0.3,0l-0.1,0l-0.1-0.1l-0.2,0l-0.2,0l-0.3,0.1l-0.2,0l-0.4-0.1l-0.1,0l0,0l0-0.1l0,0l0,0l-0.1,0
			l-0.2-0.1l-0.1-0.1l-0.1-0.2l-0.1-0.1l0,0.1l-0.1,0l-0.1-0.3l-0.1-0.1l-0.1-0.2l-0.2-0.3l-0.1-0.1l-0.1-0.1l0-0.1l0.1-0.3l0-0.1
			l-0.1-0.2l-0.2-0.2l-0.1-0.1l-0.2-0.3l-0.2-0.2l0-0.1l-0.3-0.7l0-0.2l0-0.7l-0.1-0.2l-0.1-0.2l-0.1-0.1l-0.2-0.1l-0.2,0l-0.2,0
			l-0.1,0l0-0.1l0-0.1l-0.2-0.3l0-0.1l0-0.1l0-0.1l0.1-0.1l0.1,0l0.1,0.1l0.1,0.1l0,0.1l0,0l0,0l0,0l0-0.1l0,0l0.1-0.1l0-0.1l0-0.1
			l0-0.1l0-0.1l-0.1,0l0-0.2l0-0.1l-0.1,0l0,0l0,0l0,0l0,0l0-0.1l0,0l0,0l-0.1,0l-0.4,0l-0.1,0l-0.1,0.1l-0.1,0l-0.1-0.1l0-0.2
			l0-0.1l0-0.1l0-0.1l0-0.1l0-0.1l0,0l0.1,0.1l0-0.2l0,0l0,0l0,0l-0.1-0.1l0-0.1l0-0.2l0-0.2l0-0.1l-0.1-0.1l-0.1-0.1l-0.1,0l0,0.2
			l0-0.1l-0.1-0.2l-0.2-0.2l0-0.1l0-0.1l-0.1-0.1l-0.2-0.2l-0.3-0.1l0-0.1l0-0.1l-0.1-0.1l-0.1-0.1l-0.1-0.2l-0.2-0.4l-0.1-0.2
			l-0.1-0.1l-0.2-0.1l-0.2-0.2l0,0l0-0.1l0-0.1l0-0.1l0.1,0l0,0l0,0l-0.1,0l0.1-0.2l-0.1-0.3l0-0.1l-0.1-0.1l-0.1-0.1l-0.1-0.1
			l0-0.1l0-0.1l-0.1,0l0,0l-0.1,0l-0.2,0l-0.2,0l-0.2,0.1l-1.5,0.9l-0.2,0.1l-0.2,0l-0.1-0.2l0-0.1l0-0.2l0-0.1l0,0l0,0l0,0l-0.1,0
			l0,0l0,0l-0.1,0l0,0l-0.1,0l-0.1,0l-0.1,0l-0.1-0.1l0,0l-0.1,0l-0.2,0.1l-0.1,0l-0.1,0l0,0l0-0.2l0,0l-0.1,0l0,0l0,0l0-0.1l0,0
			l0,0l0,0l-0.1,0l0,0.1l0,0.1l-0.1,0.1l-0.1,0l-0.1-0.1l0-0.1l-0.1-0.1l-0.1,0l-0.1,0l-0.3-0.2l-0.1-0.1l0-0.2l-0.1-0.1L371,180
			l-0.2,0l0.1-0.1l0.1,0l0.2,0l0.1,0l0.2-0.1l0.1,0l0.1,0l0.2,0.1l0.1,0l0.1,0l0.1,0l0.1,0.1l0.1,0.1l0-0.1l0.1-0.2l0.1-0.2l0-0.1
			l0-0.1l-0.1,0l-0.1,0l0-0.1l0-0.2l-0.1,0l-0.1,0.1l-0.1,0.1l0-0.1l0,0l0,0l0-0.1l0,0l0,0l-0.1,0l0,0l-0.1-0.1l0,0l0,0l0,0l0,0
			l-0.1,0l-0.1,0l-0.1,0l-0.1,0l-0.2,0l-0.1,0.1l0,0.1l0.1,0.1l0.1,0l0.1,0.1l0,0.1l-0.1,0.1l-0.1,0l-0.3,0l-0.1,0l-0.3,0.2l0,0
			l0,0.1l0,0.1l0.1,0l0,0l0,0l0,0l0,0.1l0.1,0.1l0.1,0.1l0.1,0.1l0,0.1l0,0.1l0,0.2l0,0.1l0,0.1l0,0.1l0,0.1l0,0.1l0,0.1l0,0.1
			l-0.1,0.1l-0.1,0.1l-0.1,0l-0.3,0l-0.1,0l-0.1,0l-0.3,0l-0.2-0.1l-0.1,0l0,0.1l0,0.1l0.1,0.1l0,0.1l0,0.1l0,0l0,0l0,0l-0.1,0
			l-0.3,0v0l0,0l0,0l0,0l-0.1,0l-0.1,0l-0.1-0.1l0,0l0,0l0-0.1l0-0.1l-0.1-0.3l0,0l0-0.1l-0.1-0.1l-0.1-0.1l0,0l0-0.1l0,0l0,0l0,0
			l0-0.1l0-0.1l0-0.1l0,0l-0.2-0.2l-0.2-0.2l-0.1-0.2l0,0l-0.1,0l-0.1,0l-0.2,0l-0.1,0l-0.1,0l-0.1,0l0,0l0-0.1l0-0.2l0-0.1
			l-0.1-0.1l-0.1-0.1l0,0l-0.1,0l-0.5-0.1l0-0.2l0-2.6l0-0.1l-0.1,0l-1.6,0l0-1.3l0-0.9l0.7-2l0-0.1l0-0.1l-0.1-0.1l-0.2-0.1
			l-0.1-0.1l0,0l0-0.1l0-0.1l0,0l-0.1-0.1l0,0l-0.2-0.3l0-0.1v0l0-0.1l-0.2-0.1l-0.1-0.1l-0.1-0.2l-0.1-0.1l0,0l-0.1,0l-0.1,0l0,0
			l0-0.1l-0.1,0l-0.1,0l0,0l0,0l0-0.1l0-0.1l0,0l0-0.1l0-0.1l0-0.1l-0.1-0.1l0-0.1l0,0l0,0l-0.1-0.1l0,0l0,0l-0.1-0.1l0,0l0-0.1l0,0
			l0,0l0-0.1l0,0l0,0l0-0.1l0,0l-0.1-0.1l-0.1-0.1l-0.1-0.1l-0.1-0.1l-0.1-0.1l-0.3-0.1l-0.1,0l-0.2,0.1l-0.1,0l-0.2,0l-0.1,0
			l-0.1-0.1l-0.2-0.1l0,0h0l-1.4-1.2l-0.2-0.2l-0.3-0.2l-0.2-0.2l0,0l-0.4-0.3l-0.1-0.1l-0.5-0.2l-0.5-0.2l-0.6,0.1l-0.3,0l-0.1-0.2
			v0l0.1-0.1l0.1-0.1l0.1-0.1l0-0.1l0-0.1l-0.1-0.1l-0.1,0l-0.2,0l-0.1-0.1l0-0.1l0.1-0.1l0.1,0l0.1,0l0.1,0l0.1-0.1l0.1-0.1
			l0.1-0.1l0-0.1l0-0.1l-0.1,0l0-0.1l0,0l0-0.1l0-0.1l0-0.1l-0.1-0.1l-0.2-0.1l-0.2-0.3l-0.2-0.2l0-0.1l0-0.1l0-0.1l0-0.1l-0.1-0.1
			l-0.2-0.2l0,0l0,0l0,0l0,0l0,0l0,0l0,0l-0.1,0.1l-0.1,0l-0.1,0l-0.1-0.1l0.1-0.1l0.2-0.1l0.1-0.1l0-0.1l-0.1-0.1l-0.1-0.1l0-0.2
			l-0.1,0l-0.2,0l-0.1,0l-0.1,0.1l-0.1,0.1l-0.1,0l0,0l0-0.2l0,0l0,0l-0.2-0.2l-0.1-0.1l-0.1-0.1l0-0.1l0-0.1l0-0.1l0-0.1l-0.1-0.1
			l-0.1-0.1l-0.1-0.1l-0.4-0.8l0,0l0,0l0,0l-0.1,0l-0.1,0l-0.1-0.1l-0.1-0.1l0.1,0l0,0l0,0h0v0l0.1-0.2l0-0.1l0.1-0.1l0.1-0.1
			l0.1-0.1l0.2-0.2l0-0.1v-0.1l0,0l0,0l0-0.1l0-0.1l0.1-0.1l0-0.1l0.1-0.3l0-0.1l0-0.1l-0.1-0.1l-0.1-0.1l-0.1,0l-0.1,0.1l-0.1-0.1
			l-0.1-0.1l-0.1-0.5l0-0.1l0.2-0.1l0,0l0,0l0,0l0,0l0-0.2l0-0.2l0-0.2l0.2,0.1l0.2,0.1l0.1,0l0.3,0l0.1,0l0,0l0,0l0-0.1l0-0.1l0,0
			l-0.1-0.1l0-0.1l0-0.1l0-0.1l0,0l0,0l0,0l0-0.1l0,0l0,0l0,0l0,0l-0.1-0.1l0-0.1l0.1-0.2l0-0.1l0-0.1l0-0.1l0-0.1l0.1,0l0.1,0
			l0.1-0.1l0-0.1l0-0.1l0-0.1l0.1,0l0.1,0l0.1,0l0.1,0l0.1-0.1l0-0.1l0-0.1l0-0.1l0-0.1v0l0-0.1l0-0.1l0-0.1l0.1,0l0,0l0.1,0l0,0
			l0,0l0-0.1l0,0l0.1-0.1l0,0l0.1,0l0.1,0.1l0,0l0.1,0l0.1,0.1l0.1,0l0.1-0.1l0.1-0.1l0,0l0.1,0l0.1,0l0.1,0l0.1,0l0-0.1l-0.1-0.1
			l0.1-0.2l0.1-0.2l0-0.2l-0.1-0.1l-0.2,0l-0.1,0l0-0.1l0-0.1l0.1-0.1l0-0.1l0,0l0-0.2l-0.1-0.1l-0.3-0.2l-0.3-0.5l-0.1-0.2l0-0.1
			l0,0l0,0l0,0l0,0l0,0l0,0l0,0l-0.1-0.1l0-0.1l0,0h0l0.1,0l0-0.1l0-0.2l0-0.1l0-0.1l0-0.1l0.1-0.1l0.1,0l0.3,0l0.1,0l0.2-0.1l0.2,0
			l0.1,0l0.1-0.1l0.1-0.1l0.1-0.1l0.1-0.1l0.1-0.1l0-0.1l0-0.1l-0.1-0.1l-0.1,0l-0.1,0l-0.1,0.1l-0.1,0l-0.2,0l-0.1,0l-0.1,0l0,0
			l0,0l0,0l0-0.1l0,0l0,0l-0.1-0.1l-0.1,0l-0.1,0l-0.1,0.1l-0.1,0l-0.3,0l-0.2,0.1l0,0l0,0l0,0l-0.1,0.1l-0.1,0l-0.1,0l-0.1-0.1
			l-0.1,0l-0.2,0.1l-0.1,0l-0.1-0.1l-0.1-0.3l-0.2-0.3l-0.1-0.1l-0.1,0l-0.1,0l-0.2-0.2l-0.2-0.1l-0.1,0l-0.1,0l-0.2,0.1l-0.1,0l0,0
			l0,0l0,0l-0.1,0.1l-0.1,0l-0.1,0l-0.1-0.1l0,0l0,0v0l0-0.1l0-0.1l0.1-0.1l0.1-0.1l0-0.1l-0.1-0.1l-0.1-0.2l0-0.1l0-0.3l0-0.1
			l-0.1-0.1l-0.1-0.1l0-0.1l0.1-0.1l-0.1-0.1l0-0.1l0-0.3l0-0.1l-0.1-0.1l-0.1-0.1l-0.1,0l-0.3,0.1l-0.1,0l-0.1-0.1l-0.1-0.1l0-0.1
			l0-0.1l0-0.1l0-0.1l0,0l0,0l0-0.1l-0.1-0.1l-0.1-0.1l0,0l-0.1-0.1l0-0.1l0,0l0.1,0l0,0l0-0.1l0.1-0.2l0.1-0.2l0-0.1l-0.1-0.1
			l-0.1-0.2l-0.1-0.1l-0.1,0l-0.1,0l-0.1,0l0,0l0-0.1l-0.1-0.1l-0.1,0l-0.1,0l-0.1,0l-0.1-0.1l0-0.1l0.1-0.1l0.2-0.2l0.1-0.1l0-0.1
			l0-0.1l0-0.1l0-0.1l0-0.2l0.1-0.1l0-0.1l0-0.1l-0.1-0.1l-0.1-0.1l0,0l0,0l-0.1,0l0,0l0,0l0-0.1l0,0l0,0l0,0l0,0l0,0l0-0.1l0-0.1
			l0.1-0.2l0-0.1l0-0.1l0-0.1l0-0.1l0-0.1l0.1-0.1l0.1,0l0.1-0.1l0-0.2l-0.1-0.1l-0.3-0.2l0-0.1l0-0.1l0-0.1l-0.2,0l0,0l-0.1-0.2
			l-0.1-0.1l-0.2,0l-0.1,0l0-0.1l0.1-0.2l0-0.1v0l0-0.1l0-0.1l0-0.1l0-0.1l0-0.1l-0.1-0.1l-0.1-0.1l0-0.2l0-0.1l0.2-0.1l0-0.1l0-0.1
			l-0.2-0.2l-0.1-0.1l-0.1-0.1l-0.1,0l-0.1,0l-0.1,0l-0.1,0l0-0.1l0,0l0-0.1l0,0l0,0l0,0l0,0l0,0l-0.1-0.1l0-0.1l0-0.1l0-0.1l-0.1,0
			l-0.2-0.1l-0.1,0l-0.3,0l-0.2,0l-0.1-0.1l0,0l0,0l0-0.1l0-0.1l0-0.1l0-0.1l0-0.1l0-0.1l0-0.1l0,0l0-0.1l0.1-0.1l0-0.1l0-0.1l0-0.1
			l0.1,0l0.1,0l0,0l0-0.1l0-0.1l0,0l0.1,0l0,0l0-0.1l0-0.1l0-0.1l0-0.3l0.1-0.2l0.2-0.1l0.1-0.2l0-0.1l0-0.1l-0.1-0.1l-0.1-0.1
			l-0.1,0l-0.1,0l-0.2,0.1l-0.2,0l-0.1,0l0,0l0-0.1l0-0.1l0-0.1l0-0.2l0-0.1l0.1-0.2l0-0.1l0-0.3l0-0.2l0-0.1l0-0.1l0,0l0,0l-0.1,0
			l-0.1,0l0,0l0,0l0,0l0-0.1l0-0.1l0-0.1l0-0.1l0.1-0.4l0-0.2l-0.3-0.1l-0.1-0.1l-0.1-0.1l0-0.1l0,0l0,0l0-0.1l0-0.1l0,0l0,0l0,0
			l0-0.1l0,0l0,0v0l0.1-0.1l0.1-0.1l0-0.1l0-0.2l0-0.1l0.1-0.2l0-0.1l-0.2-0.1l-0.2-0.1l-0.1-0.1l0-0.1l0-0.1l0-0.1l-0.1-0.1l0-0.1
			l0-0.1l0,0l0,0l-0.1-0.1l0-0.1l0-0.1l0,0l-0.1-0.1l0-0.1l0.1-0.1l0.1-0.1l0.1,0l0.1,0l0.1,0l0.1,0l0.3-0.1l0.1,0l0.3,0.2l0.1,0
			l0.1,0l0.2-0.1l0.1-0.1l0.1-0.1l0-0.1l0-0.1l0-0.1l0,0l0-0.1l0-0.1l0-0.1l0-0.1l0-0.1l0-0.1l0.2-0.3l0-0.1l0,0l0-0.1l0-0.2l0-0.1
			l0.5-0.4l0.1,0l0.1,0.1l0.1,0.2l0.1,0.1l0.3,0.1l0.1,0.1L351.4,126.4z M397.3,201.8L397.3,201.8L397.3,201.8L397.3,201.8l0.1,0.1
			l-0.1,0.2l0,0l-0.1,0l-0.1,0l0,0l0-0.1l0-0.1l0,0l0-0.1l0,0L397.3,201.8L397.3,201.8L397.3,201.8z M395,200.8l-0.3,0l0,0l-0.2-0.1
			l-0.1-0.2l0-0.1l0.1-0.1l0.1,0l0.1,0l0.1,0l0.2,0l0.1,0l0,0l0,0v0l0,0l0,0l0,0l0,0l0,0l0,0l0,0l0,0L395,200.8L395,200.8L395,200.8
			L395,200.8z M391.6,199.2L391.6,199.2l-0.2,0l-0.3,0l-0.1,0l0,0l-0.1,0l-0.1-0.1l0,0l0,0l0,0l0,0l0,0l0.4,0.1l0.4,0l0.1,0l0.1,0.1
			l0,0l-0.1,0L391.6,199.2L391.6,199.2z M405.8,199l0-0.1l0.1-0.1l0.1-0.1l0.2,0l0,0.2l-0.1,0.1L405.8,199L405.8,199z M405.3,198.1
			L405.3,198.1l0.2,0.1l0.1,0.1l0,0l0,0.1l-0.1,0l-0.1,0l-0.3,0.1l-0.1,0.1l-0.1,0.2l-0.1,0.1l-0.2,0.2l0,0.1l0,0l-0.2,0.1l0,0l0,0
			l-0.2,0.2l-0.1,0.1l-0.1,0l-0.1-0.1l-0.1-0.1l-0.3,0.2l-0.1,0.1l-0.1,0.1l-0.1,0l-0.2,0l-0.1,0l-0.1,0l-0.3,0.2l-0.3,0.1l-0.2,0.1
			l-0.1,0l-0.3,0l-0.2,0.1l-0.1,0.1l0,0h0l0,0l0,0l-0.1,0h0l0,0l0,0l-0.1,0l-0.1,0l0,0h0l0,0l0,0l0-0.1l0-0.1l0-0.1l0-0.1l0,0l0-0.2
			l0.1-0.1l0.2,0.1l0.1,0l0,0l0,0l0,0l0.2-0.1l0.6-0.2l0.1,0l0.1,0l0,0l0,0l0.2-0.1l0.1-0.1l0.3-0.1l0,0l0.1,0l0,0l0,0l0,0l0,0l0,0
			l0,0l0.1-0.1l0-0.1l0-0.2l0-0.1l-0.1-0.1l-0.1-0.1l0,0l0.1-0.1l0.7,0.3l0.2,0l0.5-0.3l0.6-0.1L405.3,198.1z M406.5,197.6
			L406.5,197.6l0.1,0.1l0,0l0,0l0,0.1l0,0.1l0,0l0,0l0,0l-0.1,0l-0.1-0.1l0-0.1L406.5,197.6L406.5,197.6z M377.4,186L377.4,186
			l0.1,0.1l0,0.1l0,0.1l0,0.1l0,0l0,0l0-0.1L377.4,186l-0.1,0L377.4,186L377.4,186z M397.4,203.8L397.4,203.8l0,0.1l0,0l-0.1,0
			l-0.1,0l0-0.1l0.1,0L397.4,203.8z M403.8,199.8L403.8,199.8l0,0.2l-0.1,0.1l-0.1,0.1l-0.1,0l0-0.1l0.1-0.1L403.8,199.8
			L403.8,199.8z M393.1,199.8L393.1,199.8l0.1,0.1l-0.1,0.1l-0.1,0l-0.1,0l0-0.1l0-0.1L393.1,199.8L393.1,199.8z M399.8,204
			L399.8,204l0,0.1l0,0l0,0l0,0l0,0l0,0l0,0l0,0l0-0.1l0.1,0L399.8,204L399.8,204z"/>
	</g>
	<path class="st1" d="M210.6,126.5l-99.3,16.9c-1.6,0.3-3-0.8-3.3-2.3l-8.3-48.8c-0.3-1.6,0.8-3,2.3-3.3l99.3-16.9
		c1.6-0.3,3,0.8,3.3,2.3l8.3,48.8C213.2,124.8,212.2,126.3,210.6,126.5z"/>
	<path class="st2" d="M214.6,129.4l-99.3,16.9c-1.6,0.3-3-0.8-3.3-2.3l-8.3-48.8c-0.3-1.6,0.8-3,2.3-3.3L205.4,75
		c1.6-0.3,3,0.8,3.3,2.3l8.3,48.8C217.2,127.6,216.2,129.1,214.6,129.4z"/>
	<g class="st25">
		<path class="st14" d="M116.4,107.6l1.3,7.5l-1.3,0.2l-1.3-7.5L116.4,107.6z"/>
		<path class="st14" d="M119.7,110.1l0.8,4.5l-1.2,0.2l-0.9-5.6l1.2-0.2L119.7,110.1z M121.2,108.7l0.2,1.2c-0.1,0-0.2,0-0.3,0
			s-0.2,0-0.3,0c-0.3,0-0.5,0.1-0.7,0.3c-0.2,0.1-0.3,0.3-0.4,0.5c-0.1,0.2-0.1,0.4-0.1,0.7l-0.3,0.1c-0.1-0.5-0.1-0.9,0-1.3
			c0.1-0.4,0.2-0.7,0.4-1c0.2-0.3,0.5-0.4,0.9-0.5c0.1,0,0.2,0,0.2,0C121.1,108.7,121.2,108.7,121.2,108.7z"/>
		<path class="st14" d="M125.5,110.3l0.1,0.8l-0.9,0.1c-0.5,0.1-0.8,0.2-1,0.4c-0.2,0.2-0.3,0.5-0.2,0.8c0,0.2,0.1,0.4,0.3,0.5
			c0.2,0.1,0.4,0.2,0.7,0.1c0.3,0,0.5-0.1,0.6-0.3c0.2-0.1,0.3-0.3,0.4-0.5c0.1-0.2,0.1-0.3,0.1-0.5l0.5,0.5c0,0.1-0.1,0.3-0.1,0.5
			c-0.1,0.2-0.2,0.4-0.3,0.5c-0.1,0.2-0.3,0.3-0.5,0.5c-0.2,0.1-0.5,0.2-0.7,0.3c-0.4,0.1-0.7,0-1-0.1s-0.6-0.3-0.8-0.5
			c-0.2-0.2-0.3-0.5-0.4-0.8c-0.1-0.6,0-1.1,0.4-1.5c0.4-0.4,1-0.7,1.8-0.8L125.5,110.3z M125.7,112.6l-0.4-2.7
			c0-0.3-0.2-0.5-0.4-0.7c-0.2-0.1-0.5-0.2-0.8-0.1c-0.2,0-0.4,0.1-0.5,0.2c-0.1,0.1-0.2,0.2-0.3,0.3s-0.1,0.3-0.1,0.4l-1.2,0.2
			c0-0.3,0-0.6,0.1-0.9c0.1-0.3,0.4-0.6,0.7-0.8s0.7-0.4,1.2-0.4c0.4-0.1,0.8-0.1,1.2,0s0.6,0.3,0.9,0.5c0.2,0.3,0.4,0.6,0.5,1
			l0.4,2.5c0,0.3,0.1,0.5,0.2,0.7s0.2,0.4,0.2,0.5l0,0.1l-1.3,0.2c-0.1-0.1-0.2-0.3-0.2-0.5C125.8,113,125.7,112.8,125.7,112.6z"/>
		<path class="st14" d="M128.9,108.7l0.7,4.4l-1.2,0.2l-0.9-5.6l1.2-0.2L128.9,108.7z M128.9,110.2l-0.4,0.1c-0.1-0.5-0.1-1,0.1-1.5
			c0.1-0.4,0.3-0.8,0.6-1.1c0.3-0.3,0.7-0.5,1.1-0.5c0.4-0.1,0.7,0,1,0c0.3,0.1,0.5,0.3,0.7,0.6c0.2,0.3,0.3,0.7,0.4,1.2l0.6,3.6
			l-1.3,0.2l-0.6-3.6c0-0.3-0.1-0.5-0.2-0.6s-0.2-0.2-0.4-0.3c-0.2,0-0.3,0-0.6,0c-0.2,0-0.4,0.1-0.6,0.2c-0.2,0.1-0.3,0.3-0.4,0.4
			c-0.1,0.2-0.1,0.4-0.2,0.6C128.9,109.7,128.9,109.9,128.9,110.2z"/>
		<path class="st14" d="M133.2,105.3c0-0.2,0-0.4,0.1-0.5c0.1-0.1,0.3-0.2,0.5-0.3c0.2,0,0.4,0,0.6,0.1c0.1,0.1,0.2,0.3,0.3,0.4
			c0,0.2,0,0.4-0.1,0.5c-0.1,0.1-0.3,0.2-0.5,0.3c-0.2,0-0.4,0-0.6-0.1S133.2,105.5,133.2,105.3z M134.7,106.5l0.9,5.6l-1.3,0.2
			l-0.9-5.6L134.7,106.5z"/>
		<path class="st14" d="M139.8,107.9l0.1,0.8l-0.9,0.1c-0.5,0.1-0.8,0.2-1,0.4c-0.2,0.2-0.3,0.5-0.2,0.8c0,0.2,0.1,0.4,0.3,0.5
			c0.2,0.1,0.4,0.2,0.7,0.1c0.3,0,0.5-0.1,0.6-0.3c0.2-0.1,0.3-0.3,0.4-0.5c0.1-0.2,0.1-0.3,0.1-0.5l0.5,0.5c0,0.1-0.1,0.3-0.1,0.5
			c-0.1,0.2-0.2,0.4-0.3,0.5s-0.3,0.3-0.5,0.5c-0.2,0.1-0.5,0.2-0.7,0.3c-0.4,0.1-0.7,0-1-0.1s-0.6-0.3-0.8-0.5
			c-0.2-0.2-0.3-0.5-0.4-0.8c-0.1-0.6,0-1.1,0.4-1.5c0.4-0.4,1-0.7,1.8-0.8L139.8,107.9z M140,110.2l-0.4-2.7c0-0.3-0.2-0.5-0.4-0.7
			c-0.2-0.1-0.5-0.2-0.8-0.1c-0.2,0-0.4,0.1-0.5,0.2c-0.1,0.1-0.2,0.2-0.3,0.3c-0.1,0.1-0.1,0.3-0.1,0.4l-1.2,0.2
			c0-0.3,0-0.6,0.1-0.9c0.1-0.3,0.4-0.6,0.7-0.8c0.3-0.2,0.7-0.4,1.2-0.4c0.4-0.1,0.8-0.1,1.2,0c0.3,0.1,0.6,0.3,0.9,0.5
			c0.2,0.3,0.4,0.6,0.5,1l0.4,2.5c0,0.3,0.1,0.5,0.2,0.7c0.1,0.2,0.2,0.4,0.2,0.5l0,0.1l-1.3,0.2c-0.1-0.1-0.2-0.3-0.2-0.5
			C140.1,110.6,140,110.4,140,110.2z"/>
		<path class="st14" d="M143.3,106.3l0.7,4.4l-1.2,0.2l-0.9-5.6l1.2-0.2L143.3,106.3z M143.3,107.8l-0.4,0.1c-0.1-0.5-0.1-1,0.1-1.5
			s0.3-0.8,0.6-1.1c0.3-0.3,0.7-0.5,1.1-0.5c0.4-0.1,0.7,0,1,0c0.3,0.1,0.5,0.3,0.7,0.6c0.2,0.3,0.3,0.7,0.4,1.2l0.6,3.6l-1.3,0.2
			l-0.6-3.6c0-0.3-0.1-0.5-0.2-0.6s-0.2-0.2-0.4-0.3c-0.2,0-0.3,0-0.6,0c-0.2,0-0.4,0.1-0.6,0.2c-0.2,0.1-0.3,0.3-0.4,0.4
			c-0.1,0.2-0.1,0.4-0.2,0.6C143.2,107.3,143.2,107.5,143.3,107.8z"/>
		<path class="st14" d="M153.6,108.2c0.2,0,0.4-0.1,0.5-0.2c0.2-0.1,0.3-0.2,0.3-0.4c0.1-0.2,0.1-0.3,0.1-0.5l1.2-0.2
			c0.1,0.4,0,0.7-0.2,1c-0.2,0.3-0.4,0.6-0.7,0.8s-0.7,0.4-1.1,0.5c-0.6,0.1-1.1,0-1.5-0.1c-0.4-0.2-0.8-0.5-1-0.9
			c-0.3-0.4-0.4-0.9-0.5-1.4l0-0.2c-0.1-0.5-0.1-1,0-1.5c0.1-0.5,0.3-0.8,0.7-1.2c0.3-0.3,0.8-0.5,1.4-0.6c0.4-0.1,0.9-0.1,1.2,0.1
			s0.7,0.3,0.9,0.6s0.4,0.6,0.5,1.1l-1.2,0.2c0-0.2-0.1-0.4-0.2-0.5c-0.1-0.2-0.3-0.3-0.5-0.3c-0.2-0.1-0.4-0.1-0.6-0.1
			c-0.3,0.1-0.6,0.2-0.7,0.4s-0.2,0.5-0.3,0.7s0,0.6,0,0.9l0,0.2c0.1,0.3,0.1,0.6,0.3,0.9c0.1,0.3,0.3,0.5,0.5,0.6
			S153.2,108.3,153.6,108.2z"/>
		<path class="st14" d="M156.3,105.9l0-0.1c-0.1-0.5-0.1-1,0.1-1.5c0.1-0.5,0.4-0.9,0.7-1.2c0.3-0.3,0.8-0.5,1.3-0.6
			c0.5-0.1,1,0,1.5,0.1c0.4,0.2,0.8,0.5,1.1,0.9c0.3,0.4,0.5,0.9,0.6,1.4l0,0.1c0.1,0.5,0.1,1-0.1,1.5s-0.4,0.9-0.7,1.2
			c-0.3,0.3-0.8,0.5-1.3,0.6c-0.5,0.1-1,0-1.5-0.1c-0.4-0.2-0.8-0.5-1.1-0.9C156.5,106.9,156.4,106.4,156.3,105.9z M157.5,105.5
			l0,0.1c0.1,0.3,0.2,0.6,0.3,0.9c0.1,0.3,0.3,0.5,0.6,0.6s0.5,0.2,0.8,0.1c0.3-0.1,0.6-0.2,0.7-0.4c0.2-0.2,0.3-0.5,0.3-0.7
			c0-0.3,0-0.6,0-0.9l0-0.1c-0.1-0.3-0.2-0.6-0.3-0.9c-0.1-0.3-0.3-0.5-0.6-0.6c-0.2-0.1-0.5-0.2-0.8-0.1c-0.3,0.1-0.6,0.2-0.7,0.4
			c-0.2,0.2-0.3,0.5-0.3,0.8C157.4,104.9,157.4,105.2,157.5,105.5z"/>
		<path class="st14" d="M163.5,102.9l0.7,4.5l-1.2,0.2L162,102l1.2-0.2L163.5,102.9z M163.5,104.4l-0.4,0.1c-0.1-0.5-0.1-1,0-1.4
			s0.3-0.8,0.6-1.1c0.3-0.3,0.7-0.5,1.2-0.6c0.5-0.1,1,0,1.3,0.3c0.4,0.3,0.6,0.7,0.7,1.4l0.6,3.7l-1.2,0.2l-0.6-3.6
			c0-0.3-0.1-0.5-0.2-0.6c-0.1-0.1-0.2-0.2-0.4-0.3s-0.3,0-0.6,0c-0.2,0-0.4,0.1-0.6,0.2s-0.3,0.3-0.3,0.4s-0.1,0.4-0.1,0.6
			C163.5,103.9,163.5,104.2,163.5,104.4z M166.9,103.5l-0.6,0.2c-0.1-0.5-0.1-0.9,0-1.3s0.3-0.7,0.6-1c0.3-0.3,0.7-0.5,1.1-0.5
			c0.4-0.1,0.7,0,1,0c0.3,0.1,0.5,0.3,0.7,0.6c0.2,0.3,0.3,0.7,0.4,1.2l0.6,3.6l-1.3,0.2l-0.6-3.6c0-0.3-0.1-0.5-0.2-0.6
			c-0.1-0.1-0.2-0.2-0.4-0.3c-0.2,0-0.3,0-0.5,0c-0.2,0-0.4,0.1-0.5,0.2s-0.2,0.2-0.3,0.4s-0.1,0.3-0.2,0.5
			C166.9,103.1,166.9,103.3,166.9,103.5z"/>
		<path class="st14" d="M172.7,101.4l0.7,4.5l-1.2,0.2l-0.9-5.6l1.2-0.2L172.7,101.4z M172.8,102.8l-0.4,0.1c-0.1-0.5-0.1-1,0-1.4
			s0.3-0.8,0.6-1.1c0.3-0.3,0.7-0.5,1.2-0.6c0.5-0.1,1,0,1.3,0.3c0.4,0.3,0.6,0.7,0.7,1.4l0.6,3.7l-1.2,0.2l-0.6-3.6
			c0-0.3-0.1-0.5-0.2-0.6c-0.1-0.1-0.2-0.2-0.4-0.3s-0.3,0-0.6,0c-0.2,0-0.4,0.1-0.6,0.2s-0.3,0.3-0.3,0.4s-0.1,0.4-0.1,0.6
			C172.7,102.4,172.7,102.6,172.8,102.8z M176.2,101.9l-0.6,0.2c-0.1-0.5-0.1-0.9,0-1.3s0.3-0.7,0.6-1c0.3-0.3,0.7-0.5,1.1-0.5
			c0.4-0.1,0.7,0,1,0c0.3,0.1,0.5,0.3,0.7,0.6c0.2,0.3,0.3,0.7,0.4,1.2l0.6,3.6l-1.3,0.2l-0.6-3.6c0-0.3-0.1-0.5-0.2-0.6
			s-0.2-0.2-0.4-0.3c-0.2,0-0.3,0-0.5,0c-0.2,0-0.4,0.1-0.5,0.2s-0.2,0.2-0.3,0.4c-0.1,0.1-0.1,0.3-0.2,0.5
			C176.1,101.6,176.2,101.7,176.2,101.9z"/>
		<path class="st14" d="M184.6,101.4l0.4-0.1c0.1,0.5,0.1,1,0,1.4c-0.1,0.4-0.3,0.8-0.5,1c-0.3,0.3-0.7,0.5-1.2,0.5
			c-0.5,0.1-1,0-1.4-0.3s-0.7-0.8-0.8-1.5l-0.6-3.6l1.2-0.2l0.6,3.6c0,0.3,0.1,0.5,0.2,0.6c0.1,0.1,0.2,0.2,0.4,0.3
			c0.1,0,0.3,0,0.5,0c0.4-0.1,0.6-0.2,0.8-0.4c0.2-0.2,0.3-0.4,0.3-0.6C184.6,102,184.6,101.7,184.6,101.4z M184.6,102.6l-0.7-4.3
			l1.3-0.2l0.9,5.6l-1.2,0.2L184.6,102.6z"/>
		<path class="st14" d="M187.9,98.9l0.7,4.4l-1.2,0.2l-0.9-5.6l1.2-0.2L187.9,98.9z M187.9,100.3l-0.4,0.1c-0.1-0.5-0.1-1,0.1-1.5
			c0.1-0.4,0.3-0.8,0.6-1.1c0.3-0.3,0.7-0.5,1.1-0.5c0.4-0.1,0.7,0,1,0c0.3,0.1,0.5,0.3,0.7,0.6c0.2,0.3,0.3,0.7,0.4,1.2l0.6,3.6
			l-1.3,0.2l-0.6-3.6c0-0.3-0.1-0.5-0.2-0.6c-0.1-0.1-0.2-0.2-0.4-0.3s-0.3,0-0.6,0c-0.2,0-0.4,0.1-0.6,0.2
			c-0.2,0.1-0.3,0.3-0.4,0.4c-0.1,0.2-0.1,0.4-0.2,0.6C187.8,99.9,187.8,100.1,187.9,100.3z"/>
		<path class="st14" d="M192.1,95.4c0-0.2,0-0.4,0.1-0.5c0.1-0.1,0.3-0.2,0.5-0.3c0.2,0,0.4,0,0.6,0.1c0.1,0.1,0.2,0.3,0.3,0.4
			c0,0.2,0,0.4-0.1,0.5s-0.3,0.2-0.5,0.3c-0.2,0-0.4,0-0.6-0.1C192.2,95.8,192.1,95.6,192.1,95.4z M193.7,96.7l0.9,5.6l-1.3,0.2
			l-0.9-5.6L193.7,96.7z"/>
		<path class="st14" d="M197.6,96l0.2,0.9l-3.2,0.5l-0.2-0.9L197.6,96z M195.1,95l1.2-0.2l0.9,5.4c0,0.2,0.1,0.3,0.1,0.4
			c0.1,0.1,0.1,0.1,0.2,0.1s0.2,0,0.3,0c0.1,0,0.2,0,0.2-0.1s0.1,0,0.2-0.1l0.2,1c-0.1,0-0.2,0.1-0.3,0.1c-0.1,0-0.3,0.1-0.5,0.1
			c-0.3,0-0.5,0-0.8,0c-0.2-0.1-0.4-0.2-0.6-0.4c-0.2-0.2-0.3-0.5-0.3-0.9L195.1,95z"/>
		<path class="st14" d="M199.3,95.7l2,4l0.4,1.3l-0.8,0.4l-3-5.4L199.3,95.7z M201,100.6l0.7-5.2l1.3-0.2l-1.2,6.8
			c0,0.1-0.1,0.3-0.1,0.5s-0.1,0.3-0.2,0.5c-0.1,0.2-0.3,0.3-0.4,0.4c-0.2,0.1-0.4,0.2-0.7,0.3c-0.1,0-0.2,0-0.3,0
			c-0.1,0-0.2,0-0.3,0l-0.2-1c0,0,0.1,0,0.1,0c0.1,0,0.1,0,0.1,0c0.3-0.1,0.5-0.1,0.7-0.3c0.1-0.1,0.2-0.4,0.3-0.7L201,100.6z"/>
		<path class="st14" d="M136.4,117.8c0-0.2,0-0.4,0.1-0.5s0.3-0.2,0.5-0.3c0.2,0,0.4,0,0.6,0.1c0.1,0.1,0.2,0.3,0.3,0.4
			c0,0.2,0,0.4-0.1,0.5s-0.3,0.2-0.5,0.3c-0.2,0-0.4,0-0.6-0.1S136.5,118,136.4,117.8z M138,119.1l0.9,5.6l-1.3,0.2l-0.9-5.6
			L138,119.1z"/>
		<path class="st14" d="M140.8,119.8l0.7,4.4l-1.2,0.2l-0.9-5.6l1.2-0.2L140.8,119.8z M140.8,121.3l-0.4,0.1c-0.1-0.5-0.1-1,0.1-1.5
			c0.1-0.4,0.3-0.8,0.6-1.1c0.3-0.3,0.7-0.5,1.1-0.5c0.4-0.1,0.7,0,1,0s0.5,0.3,0.7,0.6c0.2,0.3,0.3,0.7,0.4,1.2l0.6,3.6l-1.3,0.2
			l-0.6-3.6c0-0.3-0.1-0.5-0.2-0.6c-0.1-0.1-0.2-0.2-0.4-0.3c-0.2,0-0.3,0-0.6,0c-0.2,0-0.4,0.1-0.6,0.2c-0.2,0.1-0.3,0.3-0.4,0.4
			c-0.1,0.2-0.1,0.4-0.2,0.6C140.8,120.8,140.8,121,140.8,121.3z"/>
		<path class="st14" d="M153.1,114.6l0.2,1l-6,1l-0.2-1L153.1,114.6z M150.7,114.9l1.3,7.5l-1.3,0.2l-1.3-7.5L150.7,114.9z"/>
		<path class="st14" d="M158.3,113.7l1.3-0.2l0.8,5c0.1,0.6,0.1,1.1-0.1,1.5s-0.5,0.8-0.9,1s-0.9,0.4-1.4,0.5
			c-0.5,0.1-1,0.1-1.5-0.1c-0.5-0.1-0.8-0.4-1.1-0.7c-0.3-0.3-0.5-0.8-0.6-1.4l-0.8-5l1.3-0.2l0.8,5c0.1,0.4,0.2,0.7,0.3,0.9
			c0.2,0.2,0.4,0.4,0.6,0.4s0.5,0.1,0.8,0c0.3-0.1,0.6-0.2,0.8-0.3c0.2-0.1,0.4-0.3,0.4-0.6c0.1-0.3,0.1-0.6,0-0.9L158.3,113.7z"/>
		<path class="st14" d="M165.1,112.6l1.3,7.5l-1.3,0.2l-1.3-7.5L165.1,112.6z M167.2,119.9l-1.6,0.3l-0.2-1l1.6-0.3
			c0.5-0.1,0.8-0.2,1.1-0.5c0.3-0.3,0.5-0.6,0.6-1c0.1-0.4,0.1-0.9,0-1.4l-0.1-0.4c-0.1-0.5-0.2-1-0.5-1.3c-0.2-0.3-0.5-0.6-0.9-0.7
			s-0.7-0.2-1.2-0.1l-1.7,0.3l-0.2-1l1.7-0.3c0.7-0.1,1.3-0.1,1.8,0.1c0.6,0.2,1,0.6,1.4,1c0.4,0.5,0.6,1.1,0.7,1.8l0.1,0.4
			c0.1,0.7,0.1,1.4-0.1,2c-0.2,0.6-0.5,1.1-1,1.4C168.5,119.6,167.9,119.8,167.2,119.9z"/>
		<path class="st14" d="M174.3,118.9c-0.6,0.1-1.1,0.1-1.5-0.1s-0.8-0.4-1.1-0.8c-0.3-0.4-0.5-0.8-0.6-1.3l0-0.2
			c-0.1-0.6-0.1-1.1,0.1-1.6c0.1-0.5,0.4-0.9,0.7-1.2s0.8-0.5,1.2-0.6c0.5-0.1,1,0,1.4,0.1s0.7,0.5,1,0.8c0.2,0.4,0.4,0.8,0.5,1.4
			l0.1,0.5l-4.3,0.7l-0.1-0.9l3.1-0.5l0-0.1c0-0.2-0.1-0.4-0.2-0.6s-0.3-0.3-0.4-0.4c-0.2-0.1-0.4-0.1-0.7-0.1
			c-0.3,0-0.5,0.2-0.7,0.3s-0.3,0.4-0.3,0.7c-0.1,0.3,0,0.6,0,1l0,0.2c0.1,0.3,0.2,0.6,0.3,0.8c0.2,0.2,0.4,0.4,0.6,0.5
			s0.5,0.1,0.9,0.1c0.3-0.1,0.6-0.2,0.8-0.3s0.4-0.4,0.5-0.6l0.8,0.5c-0.1,0.3-0.4,0.6-0.7,0.9C175.3,118.6,174.9,118.8,174.3,118.9
			z"/>
		<path class="st14" d="M177.5,110.1l1.3,8l-1.3,0.2l-1.3-8L177.5,110.1z"/>
		<path class="st14" d="M182.1,111.7l0.2,0.9l-3.3,0.5l-0.2-0.9L182.1,111.7z M181.9,117.5l-1.2,0.2l-1-6.1c-0.1-0.6,0-1.1,0.3-1.5
			c0.3-0.4,0.7-0.6,1.3-0.7c0.1,0,0.2,0,0.4,0c0.1,0,0.2,0,0.4,0l0.1,1c-0.1,0-0.1,0-0.2,0s-0.2,0-0.3,0c-0.3,0-0.5,0.2-0.6,0.3
			s-0.2,0.4-0.1,0.7L181.9,117.5z"/>
		<path class="st14" d="M185.6,111.1l0.2,0.9l-3.2,0.5l-0.2-0.9L185.6,111.1z M183.1,110.1l1.2-0.2l0.9,5.4c0,0.2,0.1,0.3,0.1,0.4
			c0.1,0.1,0.1,0.1,0.2,0.1s0.2,0,0.3,0c0.1,0,0.2,0,0.2-0.1s0.1,0,0.2-0.1l0.2,1c-0.1,0-0.2,0.1-0.3,0.1c-0.1,0-0.3,0.1-0.5,0.1
			c-0.3,0-0.5,0-0.8,0c-0.2-0.1-0.4-0.2-0.6-0.4c-0.2-0.2-0.3-0.5-0.3-0.9L183.1,110.1z"/>
	</g>
	<g class="st9">
		<path class="st10" d="M56.8,42.5l-0.7-0.4c-0.5-0.3-0.8-0.8-0.8-1.3c0-0.1,0-0.1,0-0.2c0-0.1,0-0.1,0-0.2c0-0.5,0.3-1,0.8-1.3
			l0.7-0.4c0.6-0.3,0.9-1,0.7-1.7c0,0,0,0,0,0c-0.2-0.7-0.8-1.1-1.5-1.1l-0.9,0c-0.5,0-1.1-0.3-1.3-0.8c0-0.1-0.1-0.2-0.2-0.3
			c-0.3-0.5-0.3-1.1,0-1.5l0.4-0.7c0.3-0.6,0.3-1.3-0.2-1.8c0,0,0,0,0,0c-0.5-0.5-1.2-0.6-1.8-0.2L51.4,31c-0.5,0.3-1.1,0.3-1.5,0
			c-0.1-0.1-0.2-0.1-0.3-0.2c-0.5-0.3-0.8-0.8-0.8-1.3l0-0.9c0-0.7-0.4-1.3-1.1-1.5c0,0,0,0,0,0c-0.7-0.2-1.3,0.1-1.7,0.7l-0.4,0.7
			c-0.3,0.5-0.8,0.8-1.3,0.8c-0.1,0-0.1,0-0.2,0c-0.1,0-0.1,0-0.2,0c-0.5,0-1-0.3-1.3-0.8l-0.4-0.7c-0.3-0.6-1-0.9-1.7-0.7
			c0,0,0,0,0,0c-0.7,0.2-1.1,0.8-1.1,1.5l0,0.9c0,0.5-0.3,1.1-0.8,1.3c-0.1,0.1-0.2,0.1-0.3,0.2c-0.5,0.3-1.1,0.3-1.5,0l-0.7-0.4
			c-0.6-0.3-1.3-0.3-1.8,0.2c0,0,0,0,0,0c-0.5,0.5-0.6,1.2-0.2,1.8l0.4,0.7c0.3,0.5,0.3,1.1,0,1.5c-0.1,0.1-0.1,0.2-0.2,0.3
			c-0.3,0.5-0.8,0.8-1.3,0.8l-0.9,0c-0.7,0-1.3,0.4-1.4,1.1c0,0,0,0,0,0c-0.2,0.7,0.1,1.3,0.7,1.7l0.7,0.4c0.5,0.3,0.8,0.8,0.8,1.3
			c0,0.1,0,0.1,0,0.2c0,0.1,0,0.1,0,0.2c0,0.5-0.3,1-0.8,1.3l-0.7,0.4c-0.6,0.3-0.9,1-0.7,1.7c0,0,0,0,0,0c0.2,0.7,0.8,1.1,1.4,1.1
			l0.9,0c0.5,0,1.1,0.3,1.3,0.8c0.1,0.1,0.1,0.2,0.2,0.3c0.3,0.5,0.3,1.1,0,1.5l-0.4,0.7c-0.3,0.6-0.3,1.3,0.2,1.8c0,0,0,0,0,0
			c0.5,0.5,1.2,0.6,1.8,0.2l0.7-0.4c0.5-0.3,1.1-0.3,1.5,0c0.1,0.1,0.2,0.1,0.3,0.2c0.5,0.3,0.8,0.8,0.8,1.3l0,0.9
			c0,0.7,0.4,1.3,1.1,1.5c0,0,0,0,0,0c0.7,0.2,1.3-0.1,1.7-0.7l0.4-0.7c0.3-0.5,0.8-0.8,1.3-0.8c0.1,0,0.1,0,0.2,0
			c0.1,0,0.1,0,0.2,0c0.5,0,1,0.3,1.3,0.8l0.4,0.7c0.3,0.6,1,0.9,1.7,0.7c0,0,0,0,0,0c0.7-0.2,1.1-0.8,1.1-1.5l0-0.9
			c0-0.5,0.3-1.1,0.8-1.3c0.1-0.1,0.2-0.1,0.3-0.2c0.5-0.3,1.1-0.3,1.5,0l0.7,0.4c0.6,0.3,1.3,0.3,1.8-0.2c0,0,0,0,0,0
			c0.5-0.5,0.6-1.2,0.2-1.8l-0.4-0.7c-0.3-0.5-0.3-1.1,0-1.5c0-0.1,0.1-0.2,0.2-0.3c0.3-0.5,0.8-0.8,1.3-0.8l0.9,0
			c0.7,0,1.3-0.4,1.5-1.1c0,0,0,0,0,0C57.7,43.5,57.4,42.8,56.8,42.5z M44.1,48.9c-4.6,0-8.3-3.7-8.3-8.3s3.7-8.3,8.3-8.3
			c4.6,0,8.3,3.7,8.3,8.3S48.7,48.9,44.1,48.9z"/>
	</g>
	<path class="st1" d="M183.6,60.8c8.4-0.1,15-7,15-15.4c-0.1-8.4-7-15-15.4-15c-8.4,0.1-15,7-15,15.4
		C168.4,54.3,175.3,60.9,183.6,60.8z"/>
	<path class="st1" d="M189.5,40.4c-3.9-2.1-6.1,3.3-6.1,3.3s-2.2-5.4-6.1-3.3c-4.4,2.5-0.5,10.3,6.1,13.7
		C190,50.7,193.9,42.8,189.5,40.4z"/>
	<path class="st14" d="M187,63.2c8.4,0,15.2-6.8,15.2-15.2s-6.8-15.2-15.2-15.2s-15.2,6.8-15.2,15.2C171.9,56.4,178.7,63.2,187,63.2
		z"/>
	<path class="st23" d="M193.2,42.8c-3.9-2.1-6.1,3.3-6.1,3.3s-2.2-5.4-6.1-3.3c-4.4,2.5-0.5,10.3,6.1,13.7
		C193.7,53.1,197.6,45.2,193.2,42.8z"/>
	<path class="st1" d="M262.4,155.9c7.5,0,13.5-6,13.5-13.5c0-7.5-6-13.5-13.5-13.5c-7.5,0-13.5,6-13.5,13.5
		C248.8,149.8,254.9,155.9,262.4,155.9z"/>
	<path class="st0" d="M266,158.6c7.5,0,13.5-6,13.5-13.5c0-7.5-6-13.5-13.5-13.5s-13.5,6-13.5,13.5
		C252.5,152.6,258.5,158.6,266,158.6z"/>
	<path class="st20" d="M266,140.4l4.6-2.5l-0.9,5.1l3.7,3.6l-5.2,0.8l-2.3,4.7l-2.3-4.7l-5.2-0.8l3.7-3.6l-0.9-5.1L266,140.4z"/>
	<g>
		<path class="st14" d="M248.1,104.1l0.6,3.6l0,1.1l-0.5,0l-0.8-4.7L248.1,104.1z M248.6,107.7l1.1-3.6l0.5,0l-0.1,0.9l-1.2,3.7
			l-0.5,0L248.6,107.7z M250.4,104.2l0.7,3.7l0.1,1l-0.5,0l-0.8-3.8l0-0.9L250.4,104.2z M251.1,107.8l0.9-3.5l0.8,0l-1.3,4.6l-0.5,0
			L251.1,107.8z"/>
		<path class="st14" d="M252.9,107.3L252.9,107.3c0-0.4,0.1-0.7,0.2-1c0.1-0.3,0.3-0.5,0.6-0.6c0.2-0.1,0.5-0.2,0.9-0.2
			c0.3,0,0.6,0.1,0.9,0.3c0.2,0.2,0.4,0.4,0.5,0.7c0.1,0.3,0.2,0.6,0.1,0.9l0,0.1c0,0.3-0.1,0.6-0.2,0.9c-0.1,0.3-0.3,0.5-0.6,0.6
			c-0.2,0.1-0.5,0.2-0.9,0.2c-0.3,0-0.6-0.1-0.9-0.3c-0.2-0.2-0.4-0.4-0.5-0.7C253,107.9,252.9,107.6,252.9,107.3z M253.7,107.3
			L253.7,107.3c0,0.3,0,0.5,0.1,0.6c0,0.2,0.1,0.3,0.3,0.4c0.1,0.1,0.3,0.2,0.5,0.2c0.2,0,0.4,0,0.5-0.1c0.1-0.1,0.2-0.2,0.3-0.4
			s0.1-0.4,0.1-0.6l0-0.1c0-0.2,0-0.4-0.1-0.6c-0.1-0.2-0.1-0.3-0.3-0.4c-0.1-0.1-0.3-0.2-0.5-0.2c-0.2,0-0.4,0-0.5,0.1
			c-0.1,0.1-0.2,0.2-0.3,0.4C253.7,106.9,253.7,107.1,253.7,107.3z"/>
		<path class="st14" d="M257.6,106.5l-0.1,2.8l-0.8,0l0.2-3.5l0.7,0L257.6,106.5z M257.4,107.4l-0.3,0c0-0.3,0.1-0.6,0.2-0.8
			c0.1-0.2,0.3-0.4,0.5-0.6c0.2-0.1,0.5-0.2,0.8-0.2c0.3,0,0.6,0.1,0.8,0.3c0.2,0.2,0.3,0.5,0.3,0.9l-0.1,2.3l-0.8,0l0.1-2.2
			c0-0.2,0-0.3-0.1-0.4c0-0.1-0.1-0.2-0.2-0.2c-0.1,0-0.2-0.1-0.3-0.1c-0.1,0-0.3,0-0.4,0.1c-0.1,0.1-0.2,0.1-0.3,0.2
			c-0.1,0.1-0.1,0.2-0.2,0.3C257.5,107.1,257.4,107.2,257.4,107.4z M259.6,107.3l-0.4,0.1c0-0.3,0.1-0.5,0.2-0.8
			c0.1-0.2,0.3-0.4,0.5-0.5c0.2-0.1,0.5-0.2,0.7-0.2c0.2,0,0.4,0.1,0.6,0.2c0.2,0.1,0.3,0.2,0.4,0.4c0.1,0.2,0.1,0.4,0.1,0.8
			l-0.1,2.2l-0.8,0l0.1-2.2c0-0.2,0-0.3-0.1-0.4c0-0.1-0.1-0.2-0.2-0.2s-0.2-0.1-0.3-0.1c-0.1,0-0.2,0-0.3,0c-0.1,0-0.2,0.1-0.2,0.2
			c-0.1,0.1-0.1,0.2-0.2,0.3C259.6,107.1,259.6,107.2,259.6,107.3z"/>
		<path class="st14" d="M264.6,107.5l0,0.5l-0.6,0c-0.3,0-0.5,0-0.7,0.1c-0.2,0.1-0.2,0.2-0.2,0.4c0,0.1,0,0.3,0.1,0.4
			c0.1,0.1,0.2,0.2,0.4,0.2c0.2,0,0.3,0,0.4-0.1c0.1-0.1,0.2-0.1,0.3-0.2c0.1-0.1,0.1-0.2,0.1-0.3l0.2,0.4c0,0.1-0.1,0.2-0.1,0.3
			c-0.1,0.1-0.2,0.2-0.3,0.3c-0.1,0.1-0.2,0.2-0.4,0.2c-0.1,0.1-0.3,0.1-0.5,0.1c-0.2,0-0.4-0.1-0.6-0.2c-0.2-0.1-0.3-0.2-0.4-0.4
			c-0.1-0.2-0.1-0.3-0.1-0.5c0-0.4,0.2-0.6,0.5-0.8c0.3-0.2,0.7-0.3,1.2-0.2L264.6,107.5z M264.4,108.9l0.1-1.7c0-0.2,0-0.3-0.1-0.4
			c-0.1-0.1-0.2-0.2-0.5-0.2c-0.1,0-0.2,0-0.3,0c-0.1,0-0.2,0.1-0.2,0.2c-0.1,0.1-0.1,0.2-0.1,0.2l-0.8,0c0-0.2,0.1-0.4,0.2-0.5
			c0.1-0.2,0.3-0.3,0.5-0.4c0.2-0.1,0.5-0.1,0.8-0.1c0.3,0,0.5,0.1,0.7,0.2c0.2,0.1,0.3,0.2,0.5,0.4c0.1,0.2,0.2,0.4,0.1,0.7
			l-0.1,1.5c0,0.2,0,0.3,0,0.4c0,0.1,0,0.2,0.1,0.3l0,0.1l-0.8,0c0-0.1-0.1-0.2-0.1-0.3C264.4,109.2,264.4,109,264.4,108.9z"/>
		<path class="st14" d="M266.8,107l-0.1,2.7l-0.8,0l0.2-3.5l0.7,0L266.8,107z M266.7,107.9l-0.2,0c0-0.3,0.1-0.6,0.2-0.9
			c0.1-0.2,0.3-0.4,0.5-0.6c0.2-0.1,0.5-0.2,0.7-0.2c0.2,0,0.4,0.1,0.6,0.2c0.2,0.1,0.3,0.2,0.4,0.4c0.1,0.2,0.1,0.4,0.1,0.8
			l-0.1,2.2l-0.8,0l0.1-2.2c0-0.2,0-0.3-0.1-0.4c0-0.1-0.1-0.2-0.2-0.2c-0.1,0-0.2-0.1-0.3-0.1c-0.1,0-0.3,0-0.4,0.1
			c-0.1,0.1-0.2,0.1-0.3,0.2c-0.1,0.1-0.1,0.2-0.2,0.3C266.7,107.6,266.7,107.7,266.7,107.9z"/>
		<path class="st14" d="M272.4,105.3l-0.2,4.7l-0.8,0l0.2-4.7L272.4,105.3z M274.3,109.5l0,0.6l-2.3-0.1l0-0.6L274.3,109.5z"/>
		<path class="st14" d="M275,105.8c0-0.1,0-0.2,0.1-0.3c0.1-0.1,0.2-0.1,0.3-0.1c0.1,0,0.2,0.1,0.3,0.1c0.1,0.1,0.1,0.2,0.1,0.3
			c0,0.1-0.1,0.2-0.1,0.3c-0.1,0.1-0.2,0.1-0.3,0.1c-0.1,0-0.2-0.1-0.3-0.1C275.1,106,275,105.9,275,105.8z M275.8,106.7l-0.2,3.5
			l-0.8,0l0.2-3.5L275.8,106.7z"/>
		<path class="st14" d="M278.4,106.9l0,0.6l-2-0.1l0-0.6L278.4,106.9z M277.5,110.3l-0.8,0l0.2-3.8c0-0.4,0.1-0.7,0.4-0.9
			c0.2-0.2,0.5-0.3,0.9-0.3c0.1,0,0.2,0,0.2,0c0.1,0,0.1,0,0.2,0.1l0,0.6c0,0-0.1,0-0.1,0c0,0-0.1,0-0.2,0c-0.2,0-0.3,0-0.4,0.1
			c-0.1,0.1-0.2,0.2-0.2,0.4L277.5,110.3z"/>
		<path class="st14" d="M280.2,110.5c-0.3,0-0.6-0.1-0.9-0.3s-0.4-0.4-0.5-0.6c-0.1-0.3-0.2-0.5-0.2-0.9l0-0.1
			c0-0.4,0.1-0.7,0.3-0.9c0.2-0.3,0.3-0.5,0.6-0.6c0.2-0.1,0.5-0.2,0.8-0.2c0.3,0,0.6,0.1,0.8,0.3c0.2,0.2,0.4,0.4,0.5,0.6
			c0.1,0.3,0.1,0.6,0.1,0.9l0,0.3l-2.7-0.1l0-0.6l1.9,0.1l0-0.1c0-0.1,0-0.3-0.1-0.4s-0.1-0.2-0.2-0.3c-0.1-0.1-0.2-0.1-0.4-0.1
			c-0.2,0-0.3,0-0.4,0.1c-0.1,0.1-0.2,0.2-0.3,0.4c-0.1,0.2-0.1,0.4-0.1,0.6l0,0.1c0,0.2,0,0.4,0.1,0.5c0.1,0.2,0.2,0.3,0.3,0.4
			c0.1,0.1,0.3,0.2,0.5,0.2c0.2,0,0.4,0,0.5-0.1c0.1-0.1,0.3-0.2,0.4-0.3l0.4,0.4c-0.1,0.2-0.3,0.3-0.5,0.4S280.6,110.5,280.2,110.5
			z"/>
		<path class="st14" d="M285.1,106l-0.2,4.7l-0.8,0l0.2-4.7L285.1,106z M287.2,106.1l0,0.6l-2.4-0.1l0-0.6L287.2,106.1z
			 M286.9,108.1l0,0.6l-2.1-0.1l0-0.6L286.9,108.1z"/>
		<path class="st14" d="M288.4,108l-0.1,2.8l-0.8,0l0.2-3.5l0.7,0L288.4,108z M289.5,107.4l0,0.7c0,0-0.1,0-0.2,0
			c-0.1,0-0.1,0-0.2,0c-0.2,0-0.3,0-0.4,0.1c-0.1,0.1-0.2,0.1-0.3,0.3c-0.1,0.1-0.1,0.3-0.1,0.4l-0.2,0c0-0.3,0.1-0.5,0.2-0.8
			c0.1-0.2,0.2-0.4,0.4-0.5c0.2-0.1,0.4-0.2,0.6-0.2c0,0,0.1,0,0.2,0C289.4,107.4,289.5,107.4,289.5,107.4z"/>
		<path class="st14" d="M291.2,111.1c-0.3,0-0.6-0.1-0.9-0.3s-0.4-0.4-0.5-0.6c-0.1-0.3-0.2-0.5-0.2-0.9l0-0.1
			c0-0.4,0.1-0.7,0.3-0.9c0.2-0.3,0.3-0.5,0.6-0.6c0.2-0.1,0.5-0.2,0.8-0.2c0.3,0,0.6,0.1,0.8,0.3c0.2,0.2,0.4,0.4,0.5,0.6
			c0.1,0.3,0.1,0.6,0.1,0.9l0,0.3l-2.7-0.1l0-0.6l1.9,0.1l0-0.1c0-0.1,0-0.3-0.1-0.4s-0.1-0.2-0.2-0.3c-0.1-0.1-0.2-0.1-0.4-0.1
			c-0.2,0-0.3,0-0.4,0.1c-0.1,0.1-0.2,0.2-0.3,0.4c-0.1,0.2-0.1,0.4-0.1,0.6l0,0.1c0,0.2,0,0.4,0.1,0.5c0.1,0.2,0.2,0.3,0.3,0.4
			c0.1,0.1,0.3,0.2,0.5,0.2c0.2,0,0.4,0,0.5-0.1c0.1-0.1,0.3-0.2,0.4-0.3l0.4,0.4c-0.1,0.2-0.3,0.3-0.5,0.4S291.6,111.1,291.2,111.1
			z"/>
		<path class="st14" d="M294.8,111.2c-0.3,0-0.6-0.1-0.9-0.3s-0.4-0.4-0.5-0.6c-0.1-0.3-0.2-0.5-0.2-0.9l0-0.1
			c0-0.4,0.1-0.7,0.3-0.9c0.2-0.3,0.3-0.5,0.6-0.6c0.2-0.1,0.5-0.2,0.8-0.2c0.3,0,0.6,0.1,0.8,0.3c0.2,0.2,0.4,0.4,0.5,0.6
			c0.1,0.3,0.1,0.6,0.1,0.9l0,0.3l-2.7-0.1l0-0.6l1.9,0.1l0-0.1c0-0.1,0-0.3-0.1-0.4s-0.1-0.2-0.2-0.3c-0.1-0.1-0.2-0.1-0.4-0.1
			c-0.2,0-0.3,0-0.4,0.1c-0.1,0.1-0.2,0.2-0.3,0.4c-0.1,0.2-0.1,0.4-0.1,0.6l0,0.1c0,0.2,0,0.4,0.1,0.5c0.1,0.2,0.2,0.3,0.3,0.4
			c0.1,0.1,0.3,0.2,0.5,0.2c0.2,0,0.4,0,0.5-0.1c0.1-0.1,0.3-0.2,0.4-0.3l0.4,0.4c-0.1,0.2-0.3,0.3-0.5,0.4
			C295.4,111.2,295.1,111.3,294.8,111.2z"/>
		<path class="st14" d="M296.7,109.6L296.7,109.6c0-0.4,0.1-0.7,0.2-1c0.1-0.3,0.3-0.5,0.5-0.6c0.2-0.1,0.5-0.2,0.7-0.2
			c0.3,0,0.5,0.1,0.7,0.2c0.2,0.2,0.3,0.4,0.4,0.6c0.1,0.3,0.2,0.6,0.2,0.9l0,0.2c-0.1,0.3-0.1,0.6-0.3,0.9
			c-0.1,0.2-0.3,0.4-0.5,0.6c-0.2,0.1-0.4,0.2-0.7,0.2c-0.3,0-0.5-0.1-0.7-0.3c-0.2-0.2-0.3-0.4-0.4-0.6
			C296.7,110.2,296.7,109.9,296.7,109.6z M297.5,109.5L297.5,109.5c0,0.3,0,0.5,0,0.6c0,0.2,0.1,0.3,0.2,0.4
			c0.1,0.1,0.3,0.2,0.4,0.2c0.2,0,0.3,0,0.4-0.1c0.1-0.1,0.2-0.2,0.3-0.3c0.1-0.1,0.1-0.3,0.2-0.4l0-0.6c0-0.1,0-0.2-0.1-0.4
			c0-0.1-0.1-0.2-0.1-0.3c-0.1-0.1-0.1-0.2-0.2-0.2c-0.1-0.1-0.2-0.1-0.3-0.1c-0.2,0-0.3,0-0.5,0.1c-0.1,0.1-0.2,0.2-0.3,0.4
			S297.5,109.3,297.5,109.5z M298.9,110.7l0.2-4.2l0.8,0l-0.3,4.9l-0.7,0L298.9,110.7z"/>
		<path class="st14" d="M300.4,109.8L300.4,109.8c0-0.4,0.1-0.7,0.2-1c0.1-0.3,0.3-0.5,0.6-0.6c0.2-0.1,0.5-0.2,0.9-0.2
			c0.3,0,0.6,0.1,0.9,0.3c0.2,0.2,0.4,0.4,0.5,0.7c0.1,0.3,0.2,0.6,0.1,0.9l0,0.1c0,0.3-0.1,0.6-0.2,0.9c-0.1,0.3-0.3,0.5-0.6,0.6
			c-0.2,0.1-0.5,0.2-0.9,0.2c-0.3,0-0.6-0.1-0.9-0.3c-0.2-0.2-0.4-0.4-0.5-0.7C300.4,110.4,300.4,110.1,300.4,109.8z M301.1,109.7
			L301.1,109.7c0,0.3,0,0.5,0.1,0.6c0,0.2,0.1,0.3,0.3,0.4c0.1,0.1,0.3,0.2,0.5,0.2c0.2,0,0.4,0,0.5-0.1c0.1-0.1,0.2-0.2,0.3-0.4
			c0.1-0.2,0.1-0.4,0.1-0.6l0-0.1c0-0.2,0-0.4-0.1-0.6c-0.1-0.2-0.1-0.3-0.3-0.4c-0.1-0.1-0.3-0.2-0.5-0.2c-0.2,0-0.4,0-0.5,0.1
			c-0.1,0.1-0.2,0.2-0.3,0.4C301.2,109.3,301.2,109.5,301.1,109.7z"/>
		<path class="st14" d="M305.1,108.9l-0.1,2.8l-0.8,0l0.2-3.5l0.7,0L305.1,108.9z M304.9,109.8l-0.3,0c0-0.3,0.1-0.6,0.2-0.8
			c0.1-0.2,0.3-0.4,0.5-0.6c0.2-0.1,0.5-0.2,0.8-0.2c0.3,0,0.6,0.1,0.8,0.3c0.2,0.2,0.3,0.5,0.3,0.9l-0.1,2.3l-0.8,0l0.1-2.2
			c0-0.2,0-0.3-0.1-0.4s-0.1-0.2-0.2-0.2c-0.1,0-0.2-0.1-0.3-0.1c-0.1,0-0.3,0-0.4,0.1c-0.1,0.1-0.2,0.1-0.3,0.2
			c-0.1,0.1-0.1,0.2-0.2,0.3C304.9,109.6,304.9,109.7,304.9,109.8z M307,109.7l-0.4,0.1c0-0.3,0.1-0.5,0.2-0.8
			c0.1-0.2,0.3-0.4,0.5-0.5c0.2-0.1,0.5-0.2,0.7-0.2c0.2,0,0.4,0.1,0.6,0.2c0.2,0.1,0.3,0.2,0.4,0.4c0.1,0.2,0.1,0.4,0.1,0.8
			l-0.1,2.2l-0.8,0l0.1-2.2c0-0.2,0-0.3-0.1-0.4c0-0.1-0.1-0.2-0.2-0.2c-0.1,0-0.2-0.1-0.3-0.1c-0.1,0-0.2,0-0.3,0
			c-0.1,0-0.2,0.1-0.2,0.2c-0.1,0.1-0.1,0.2-0.2,0.3C307.1,109.5,307.1,109.6,307,109.7z"/>
	</g>
	<g>
		
			<ellipse transform="matrix(0.9968 -8.036572e-02 8.036572e-02 0.9968 -2.1161 10.2471)" class="st14" cx="126.2" cy="31.4" rx="11.6" ry="11.3"/>
		<path class="st8" d="M120.1,31.7c0.6-0.6,1.2-1.2,1.7-1.7c0.2,0.2,0.5,0.4,0.7,0.7c0.9-1,1.9-2,2.7-3.1c0.1-0.2,0.3,0.2,0.7,0
			c0.7,0.8,1,1.2,1.7,1.9c0.5-0.4,0.9-0.8,1.4-1.2c0.6,0.6,2.6,2.2,2.6,2.2s1.2-0.5,1.6-0.8c0.8,0.9,2.6,2.7,3.5,3.7
			c0.1-0.8,0.2-1.6,0.1-2.5c-0.5-5.9-5.6-10.2-11.5-9.7c-5.9,0.5-10.3,5.6-9.8,11.5c0.1,0.9,0.3,1.7,0.5,2.5
			c0.8-1.1,2.5-3.1,3.4-4.2C119.6,31.1,119.9,31.4,120.1,31.7z"/>
		
			<rect x="116.6" y="33.8" transform="matrix(0.9968 -8.036572e-02 8.036572e-02 0.9968 -2.4857 10.2874)" class="st22" width="19.9" height="4.5"/>
		<text transform="matrix(0.9968 -8.036572e-02 8.036572e-02 0.9968 120.309 36.4634)" class="st26 st27">ALBORZ</text>
		<path d="M133.2,29.5c-0.4,0.2-1.3,0.7-1.5,0.8c0,0-0.1,0-0.1,0c-0.3-0.2-1.9-1.5-2.5-2.1c0,0-0.1,0-0.1,0
			c-0.4,0.4-0.8,0.7-1.3,1.1c0,0-0.1,0-0.1,0c-0.6-0.7-1-1.1-1.6-1.8c0,0-0.1,0-0.1,0c-0.4,0.2-0.5-0.2-0.6,0c-0.8,1.1-1.8,2-2.6,3
			c0,0-0.1,0-0.1,0l-0.6-0.6c0,0-0.1,0-0.1,0c-0.5,0.5-1,1-1.6,1.6c0,0-0.1,0-0.1,0c-0.2-0.2-0.4-0.5-0.5-0.7c0,0-0.1,0-0.1,0
			c-0.9,1.1-2.5,3.2-3.3,4.2c0,0.1,0,0.1,0.1,0.1c0.5,0,1.5-1,1.8-1.5c0.3-0.6,1-1.6,1.5-2.1c0,0,0.1,0,0.1,0
			c0.1,0.1,0.3,0.3,0.4,0.4c0,0,0,0.1,0,0.1c-0.1,0.5-0.7,0.9-0.7,1.4c0,0,0.1,0,0.1,0c0,0,0,0,0,0c0.7-0.7,1.7-2,2.3-2.7
			c0,0,0.1,0,0.1,0c0.3,0.5,0.5,1.2,0.8,1.6c0.3,0.4,0.6,0.9,1.1,1.1c0.1,0,0.1-0.1,0.1-0.1c-0.4-0.7-1-1.4-1.3-2c0,0,0-0.1,0-0.1
			c0.8-1,1.8-1.9,2.6-2.9c0,0,0,0,0,0c0.1,0,0.2,0,0.3,0c0.1,0,0.1-0.1,0.2-0.1c0.1-0.1,0.2,0,0.2,0.1c0,0.2,0,0.6-0.1,0.8
			c0,0,0,0.1,0,0.1c0.3,0.3,0.8,0.5,1.3,0.6c0,0,0.1,0.1,0.1,0.1c-0.2,0.5-0.6,1.4-0.8,1.9c0,0.1,0.1,0.2,0.1,0.1
			c0.6-0.5,1-0.8,1.5-0.9c0.1,0,0.1-0.1,0-0.1c-0.4-0.7,0-1.7,0.8-2.3c0,0,0.1,0,0.1,0c0.8,0.9,0.8,1.9,0.9,3c0,0.1,0.1,0.1,0.2,0
			c0.3-0.8,0.5-1.2,0.7-1.4c0,0,0.1,0,0.1,0c0.7,0.7,1.7,1.4,2.4,1.6c0.1,0,0.1-0.1,0.1-0.1c-0.4-0.3-0.9-0.7-1.1-0.9
			c-0.1,0,0-0.1,0-0.1c0.4-0.1,0.7-0.3,0.9-0.4c0,0,0.1,0,0.1,0c1.7,1.6,2.6,3.1,3.5,3.1c0.1,0,0.1-0.1,0.1-0.1
			c-0.9-1-2.6-2.8-3.4-3.7C133.3,29.4,133.3,29.4,133.2,29.5z"/>
		<path id="SVGID_x5F_00000016043019860057531020000001779785247723414406_x5F_" class="st22" d="M136.7,30.5
			c-0.5-5.6-5.6-9.8-11.4-9.3c-5.8,0.5-10.2,5.4-9.7,11s5.6,9.8,11.4,9.3C132.8,41.1,137.2,36.1,136.7,30.5z"/>
		<text class="st28 st29">		<textPath  xlink:href="#SVGID_x5F_00000016043019860057531020000001779785247723414406_x5F_" startOffset="8606.3887%">
Delft Iranian Student Association		</textPath>
</text>
		<path d="M123.7,31.6l0.5,0.6c0,0,0.1,0,0.1,0c0.1-0.3,0.5-1.2,0.6-2c0,0,0-0.1-0.1-0.1C124.3,30.4,123.8,31.4,123.7,31.6
			C123.7,31.6,123.7,31.6,123.7,31.6z"/>
		<path d="M125.4,27.2c0-0.2,0-0.4,0-0.7c0.1-0.3,0.3-0.6,0.5-0.9c0.2-0.2,0.4-0.5,0.6-0.7c0.7-0.7,1.2-1.2,1.6-2.1
			c0.3-0.6,0.3-1.4,0.3-1.7c0,0,0.1-0.3,0.2-0.3c0,0.3,0.1,0.6,0.1,0.8c0.1,0.6,0.1,1.3-0.3,1.9c-0.2,0.3-1.1,1.5-2,2.2
			c-0.3,0.3-0.6,0.5-0.8,0.8c-0.1,0.2-0.2,0.5-0.2,0.9C125.4,27.3,125.4,27.3,125.4,27.2z"/>
		<path d="M129.1,23.1c0,0.1,0,0.4-0.1,0.5c-0.4,1-1.1,1.8-2.1,2.3c-0.2,0.1-0.3,0.2-0.5,0.3c-0.4,0.3-0.8,0.5-0.9,1.1
			c0,0,0,0,0-0.1c0-0.1,0-0.1,0-0.2c0.1-0.4,0.3-0.7,0.6-0.9c0.3-0.2,0.6-0.4,0.9-0.6c0.8-0.6,1.4-1.3,1.9-2.2
			C129,23.2,129,23.2,129.1,23.1C129.1,23.1,129.1,23.1,129.1,23.1z"/>
		<path d="M125.7,27.3C125.6,27.3,125.6,27.2,125.7,27.3c0-0.3,0.1-0.5,0.3-0.7c0.3-0.2,0.6-0.4,0.9-0.5c0.3-0.2,0.6-0.3,0.9-0.5
			c0.6-0.3,1-0.8,1.2-1.4c0,0,0.1-0.1,0.1-0.1c0,0.2-0.1,0.5-0.1,0.7c-0.3,0.6-0.9,1.1-1.5,1.4c-0.4,0.2-0.8,0.4-1.2,0.6
			C126,26.8,125.8,27,125.7,27.3z"/>
		<path d="M125.8,27.3c0-0.1,0.1-0.2,0.1-0.3c0.2-0.2,0.4-0.3,0.7-0.4c0.3-0.1,0.7-0.2,1-0.3c0.4-0.2,0.6-0.3,0.8-0.4
			c0.1,0,0.2-0.2,0.2-0.2c-0.1,0.2-0.1,0.4-0.7,0.7c-0.5,0.2-1.2,0.4-1.5,0.4C126,27,125.9,27.1,125.8,27.3z"/>
		<path d="M127.8,27c-0.1,0.1-0.2,0.2-0.4,0.2c-0.2,0.1-0.5,0.1-0.8,0c-0.3,0-0.5-0.1-0.8,0c0.1-0.2,0.2-0.3,0.4-0.3
			c0.1,0,0.3,0,0.4,0C127,27.1,127.4,27,127.8,27c0-0.1,0.1-0.1,0.1-0.1S127.8,26.9,127.8,27z"/>
	</g>
</g>
</svg>
