<?xml version="1.0" encoding="utf-8"?>
<!-- Generator: Adobe Illustrator 27.2.0, SVG Export Plug-In . SVG Version: 6.00 Build 0)  -->
<svg version="1.1" id="Layer_1" xmlns="http://www.w3.org/2000/svg" xmlns:xlink="http://www.w3.org/1999/xlink" x="0px" y="0px"
	 viewBox="0 0 325 206" style="enable-background:new 0 0 325 206;" xml:space="preserve">
<style type="text/css">
	.st0{fill:#FFB500;}
	.st1{opacity:0.4;}
	.st2{opacity:0.4;fill:#F4D7C9;enable-background:new    ;}
	.st3{fill:#ADCCC7;}
	.st4{fill:#6EAB9C;}
	.st5{fill:#EDF6F5;}
	.st6{fill:#B6D5D0;}
	.st7{fill:#DCECEB;}
	.st8{fill:#B2E5E0;}
	.st9{fill:#FFFFFF;}
	.st10{fill:#C6E0DD;}
	.st11{fill:#67B4D2;}
	.st12{fill:#EB908B;}
	.st13{fill:#FFAA3F;}
	.st14{fill:#3FB8A9;}
	.st15{fill:#AECBC7;}
	.st16{fill:#0C1B3C;}
	.st17{fill:#E9928B;}
	.st18{fill:#FFAB40;}
	.st19{fill:#DE6667;}
	.st20{fill:#5F6386;}
	.st21{fill:#4A4E73;}
	.st22{fill:#7DC4BE;}
	.st23{opacity:0.65;}
	.st24{opacity:0.65;fill:#379690;enable-background:new    ;}
	.st25{fill:#91415C;}
	.st26{fill:#75354A;}
	.st27{fill:#FDAB3F;}
	.st28{fill:#489DA2;}
	.st29{fill:#408C91;}
	.st30{fill:#F5911F;}
	.st31{fill:#040707;}
	.st32{fill:#F2BAAB;}
	.st33{fill:#F2D6C8;}
	.st34{fill:#F5B89B;}
	.st35{opacity:0.38;}
	.st36{opacity:0.38;fill:#3FB8A9;enable-background:new    ;}
	.st37{opacity:0.38;enable-background:new    ;}
	.st38{fill:none;stroke:#3FB8A9;stroke-linecap:round;stroke-linejoin:round;stroke-miterlimit:10;}
</style>
<g>
	<path class="st0" d="M281.7,93.9c-0.2-1.4-0.3-3.8,0.2-5.8c0.8-2.8,2.4-5.2,4.2-7.5c1.6-2,3.3-4,5-5.9c5.6-6.2,9.8-10.8,13.2-18.4
		c2.2-4.7,2.2-11.7,2.1-14.7c0-0.3,0.9-2.2,1.2-2.4c0.4,2.1,1,4.7,1.3,6.4c0.8,5.4,0.8,10.8-2.4,15.9c-1.7,2.7-9.1,12.6-16.1,18.6
		c-2.6,2.2-5.2,4.1-6.7,7.2c-0.8,1.7-1.5,4-1.7,7.3C282.1,94.9,281.8,94.6,281.7,93.9z"/>
	<path class="st0" d="M312,58.5c0.2,1.2,0.1,3.4-0.3,4.5c-3.1,8.8-9.2,15.2-17.4,19.8c-1.3,0.8-2.6,1.6-3.9,2.4
		c-3.5,2.3-6.6,4.8-7,9.8c-0.2,0-0.3-0.3-0.3-0.7c-0.1-0.8-0.1-1.2,0-1.9c0.5-3.2,2.1-5.9,4.6-7.9c2.5-2,5.1-3.7,7.6-5.6
		c6.8-5,11.7-11.3,15.7-18.7c0.2-0.4,0.4-0.8,0.6-1.2C311.7,58.5,311.9,58.4,312,58.5z"/>
	<path class="st0" d="M284.2,94.9c-0.3-0.1-0.3-0.4-0.2-0.7c0.1-1.5,1.4-3.8,2.7-4.9c2.5-2.1,4.8-3.1,7.2-4.6
		c2.6-1.6,5.3-2.9,7.9-4.5c4.7-3,8.1-6.7,10.1-12c0.1-0.4,1-1.3,1.1-1.2c0,1.8-0.3,4.1-0.9,5.6c-2.2,5.5-7.4,9.3-12.5,12
		c-3.4,1.8-6.9,3.2-10.2,4.9C287,90.6,285.1,92.3,284.2,94.9z"/>
	<path class="st0" d="M284.9,94.9c-0.3-0.8,0.7-1.9,1-2.2c1.8-2,3.7-2.6,6.1-3.6c2.2-0.9,6-1.6,8.6-2.7c3.1-1.4,4.9-2.3,6.3-3.2
		c0.8-0.4,1.8-1.4,1.8-1.4c-0.7,1.6-0.4,3.5-5.7,6.3c-3.8,2.1-9.7,3.3-12.5,3.8C286.9,92.4,285.9,93.6,284.9,94.9z"/>
	<path class="st0" d="M301.8,92c-0.6,0.5-2,1.5-3.1,2c-1.9,0.9-4.4,0.9-6.5,0.6c-2.2-0.3-4.4-0.8-6.5,0.4c0.7-1.4,1.8-2.2,3.3-2.3
		c1.2-0.1,2.3-0.1,3.5-0.1c2.9,0.1,6-0.3,8.6-1.3c0.8-0.3,1.3-0.5,1.3-0.5S302.4,91.5,301.8,92z"/>
</g>
<g class="st1">
	<path class="st2" d="M292.3,158.5l-1.3-0.7c-0.8-0.4-1.3-1.3-1.3-2.2c0-0.1,0-0.2,0-0.3c0-0.1,0-0.2,0-0.3c0-0.9,0.5-1.8,1.3-2.2
		l1.3-0.7c1-0.6,1.5-1.7,1.2-2.8c0,0,0,0,0,0c-0.3-1.1-1.3-1.9-2.4-1.8l-1.4,0c-0.9,0-1.8-0.5-2.2-1.3c-0.1-0.2-0.2-0.3-0.3-0.5
		c-0.5-0.8-0.5-1.8,0-2.6l0.7-1.2c0.6-1,0.4-2.2-0.4-3c0,0,0,0,0,0c-0.8-0.8-2.1-1-3-0.4l-1.2,0.7c-0.8,0.5-1.8,0.5-2.6,0
		c-0.2-0.1-0.3-0.2-0.5-0.3c-0.8-0.5-1.3-1.3-1.3-2.2l0-1.4c0-1.1-0.7-2.1-1.8-2.4c0,0,0,0,0,0c-1.1-0.3-2.3,0.2-2.8,1.2l-0.7,1.3
		c-0.4,0.8-1.3,1.3-2.2,1.3c-0.1,0-0.2,0-0.3,0c-0.1,0-0.2,0-0.3,0c-0.9,0-1.8-0.5-2.2-1.3l-0.7-1.3c-0.6-1-1.7-1.5-2.8-1.2
		c0,0,0,0,0,0c-1.1,0.3-1.9,1.3-1.8,2.4l0,1.4c0,0.9-0.5,1.8-1.3,2.2c-0.2,0.1-0.3,0.2-0.5,0.3c-0.8,0.5-1.8,0.5-2.6,0l-1.2-0.7
		c-1-0.6-2.2-0.4-3,0.4c0,0,0,0,0,0c-0.8,0.8-1,2.1-0.4,3l0.7,1.2c0.5,0.8,0.5,1.8,0,2.6c-0.1,0.2-0.2,0.3-0.3,0.5
		c-0.5,0.8-1.3,1.3-2.2,1.3l-1.4,0c-1.1,0-2.1,0.7-2.4,1.8c0,0,0,0,0,0c-0.3,1.1,0.2,2.3,1.2,2.8l1.3,0.7c0.8,0.4,1.3,1.3,1.3,2.2
		c0,0.1,0,0.2,0,0.3c0,0.1,0,0.2,0,0.3c0,0.9-0.5,1.8-1.3,2.2l-1.3,0.7c-1,0.6-1.5,1.7-1.2,2.8c0,0,0,0,0,0c0.3,1.1,1.3,1.9,2.4,1.8
		l1.4,0c0.9,0,1.8,0.5,2.2,1.3c0.1,0.2,0.2,0.3,0.3,0.5c0.5,0.8,0.5,1.8,0,2.6l-0.7,1.2c-0.6,1-0.4,2.2,0.4,3c0,0,0,0,0,0
		c0.8,0.8,2.1,1,3,0.4l1.2-0.7c0.8-0.5,1.8-0.5,2.6,0c0.2,0.1,0.3,0.2,0.5,0.3c0.8,0.5,1.3,1.3,1.3,2.2l0,1.4c0,1.1,0.7,2.1,1.8,2.4
		c0,0,0,0,0,0c1.1,0.3,2.3-0.2,2.8-1.2l0.7-1.3c0.4-0.8,1.3-1.3,2.2-1.3c0.1,0,0.2,0,0.3,0c0.1,0,0.2,0,0.3,0c0.9,0,1.8,0.5,2.2,1.3
		l0.7,1.3c0.6,1,1.7,1.5,2.8,1.2c0,0,0,0,0,0c1.1-0.3,1.9-1.3,1.8-2.4l0-1.4c0-0.9,0.5-1.8,1.3-2.2c0.2-0.1,0.3-0.2,0.5-0.3
		c0.8-0.5,1.8-0.5,2.6,0l1.2,0.7c1,0.6,2.2,0.4,3-0.4c0,0,0,0,0,0c0.8-0.8,1-2.1,0.4-3l-0.7-1.2c-0.5-0.8-0.5-1.8,0-2.6
		c0.1-0.2,0.2-0.3,0.3-0.5c0.5-0.8,1.3-1.3,2.2-1.3l1.4,0c1.1,0,2.1-0.7,2.4-1.8c0,0,0,0,0,0C293.8,160.2,293.3,159.1,292.3,158.5z
		 M270.9,169.3c-7.7,0-14-6.3-14-14c0-7.7,6.3-14,14-14c7.7,0,14,6.3,14,14C285,163.1,278.7,169.3,270.9,169.3z"/>
	<path class="st2" d="M270.9,161.8c3.5,0,6.3-2.8,6.3-6.3c0-3.5-2.8-6.3-6.3-6.3c-3.5,0-6.3,2.8-6.3,6.3
		C264.6,158.9,267.5,161.8,270.9,161.8z"/>
</g>
<path class="st3" d="M205,201.2c0,0,4.4-12.9,18.4-8.2c0,0,3.5-11,13.2-10.7c9.7,0.4,12.8,9.4,12.8,9.4s13-1.6,14.9,9.5H205z"/>
<path class="st4" d="M234.5,201.1L234,201c1.3-7.8-3.6-13.4-3.6-13.4l0.4-0.4C230.8,187.3,235.8,193.1,234.5,201.1z"/>
<path class="st4" d="M234.7,196.3l-0.4-0.4c0-0.1,4.5-5.3,5.2-8.7l0.5,0.1C239.2,190.9,234.9,196.1,234.7,196.3z"/>
<path class="st4" d="M234.4,199.1c-3.5-0.2-6.6-3.8-6.7-3.9l0.4-0.4c0,0,3.1,3.5,6.3,3.7L234.4,199.1z"/>
<path class="st4" d="M245.4,201.4L245,201c0.2-0.2,6.2-5.3,9.3-5.4l0,0.6C251.4,196.2,245.4,201.3,245.4,201.4z"/>
<path class="st4" d="M256.9,200.4c0,0-4.8-0.3-8.6-1.3l0.1-0.5c3.8,1,8.4,1.3,8.5,1.3L256.9,200.4z"/>
<path class="st4" d="M221.8,201.1c-3.1-2.6-9.7-4.6-9.7-4.7l0.2-0.5c0.3,0.1,6.7,2.1,9.9,4.8L221.8,201.1z"/>
<path class="st4" d="M219.4,199.1l-0.6,0c0.1-2.6-1.1-4.7-1.1-4.7l0.5-0.3C218.3,194.2,219.5,196.3,219.4,199.1z"/>
<g class="st1">
	<path class="st2" d="M195,148.9l-0.7-0.4c-0.5-0.3-0.8-0.8-0.7-1.3c0-0.1,0-0.1,0-0.2c0-0.1,0-0.1,0-0.2c0-0.5,0.3-1,0.7-1.3
		l0.7-0.4c0.6-0.3,0.9-1,0.7-1.6c0,0,0,0,0,0c-0.2-0.6-0.8-1.1-1.4-1.1l-0.8,0c-0.5,0-1-0.3-1.3-0.8c-0.1-0.1-0.1-0.2-0.2-0.3
		c-0.3-0.5-0.3-1,0-1.5l0.4-0.7c0.3-0.6,0.3-1.3-0.2-1.8c0,0,0,0,0,0c-0.5-0.5-1.2-0.6-1.8-0.2l-0.7,0.4c-0.5,0.3-1,0.3-1.5,0
		c-0.1-0.1-0.2-0.1-0.3-0.2c-0.5-0.3-0.8-0.8-0.8-1.3l0-0.8c0-0.7-0.4-1.3-1.1-1.4c0,0,0,0,0,0c-0.6-0.2-1.3,0.1-1.6,0.7l-0.4,0.7
		c-0.3,0.5-0.8,0.8-1.3,0.7c-0.1,0-0.1,0-0.2,0s-0.1,0-0.2,0c-0.5,0-1-0.3-1.3-0.7l-0.4-0.7c-0.3-0.6-1-0.9-1.6-0.7c0,0,0,0,0,0
		c-0.6,0.2-1.1,0.8-1.1,1.4l0,0.8c0,0.5-0.3,1-0.8,1.3c-0.1,0.1-0.2,0.1-0.3,0.2c-0.5,0.3-1,0.3-1.5,0l-0.7-0.4
		c-0.6-0.3-1.3-0.3-1.8,0.2c0,0,0,0,0,0c-0.5,0.5-0.6,1.2-0.2,1.8l0.4,0.7c0.3,0.5,0.3,1,0,1.5c-0.1,0.1-0.1,0.2-0.2,0.3
		c-0.3,0.5-0.8,0.8-1.3,0.8l-0.8,0c-0.7,0-1.3,0.4-1.4,1.1c0,0,0,0,0,0c-0.2,0.6,0.1,1.3,0.7,1.6l0.7,0.4c0.5,0.3,0.8,0.8,0.7,1.3
		c0,0.1,0,0.1,0,0.2c0,0.1,0,0.1,0,0.2c0,0.5-0.3,1-0.7,1.3l-0.7,0.4c-0.6,0.3-0.9,1-0.7,1.6c0,0,0,0,0,0c0.2,0.6,0.8,1.1,1.4,1.1
		l0.8,0c0.5,0,1,0.3,1.3,0.8c0.1,0.1,0.1,0.2,0.2,0.3c0.3,0.5,0.3,1,0,1.5l-0.4,0.7c-0.3,0.6-0.3,1.3,0.2,1.8c0,0,0,0,0,0
		c0.5,0.5,1.2,0.6,1.8,0.2l0.7-0.4c0.5-0.3,1-0.3,1.5,0c0.1,0.1,0.2,0.1,0.3,0.2c0.5,0.3,0.8,0.8,0.8,1.3l0,0.8
		c0,0.7,0.4,1.3,1.1,1.4c0,0,0,0,0,0c0.6,0.2,1.3-0.1,1.6-0.7l0.4-0.7c0.3-0.5,0.8-0.8,1.3-0.7c0.1,0,0.1,0,0.2,0s0.1,0,0.2,0
		c0.5,0,1,0.3,1.3,0.7l0.4,0.7c0.3,0.6,1,0.9,1.6,0.7c0,0,0,0,0,0c0.6-0.2,1.1-0.8,1.1-1.4l0-0.8c0-0.5,0.3-1,0.8-1.3
		c0.1-0.1,0.2-0.1,0.3-0.2c0.5-0.3,1-0.3,1.5,0l0.7,0.4c0.6,0.3,1.3,0.3,1.8-0.2c0,0,0,0,0,0c0.5-0.5,0.6-1.2,0.2-1.8l-0.4-0.7
		c-0.3-0.5-0.3-1,0-1.5c0.1-0.1,0.1-0.2,0.2-0.3c0.3-0.5,0.8-0.8,1.3-0.8l0.8,0c0.7,0,1.3-0.4,1.4-1.1c0,0,0,0,0,0
		C195.9,149.9,195.6,149.3,195,148.9z M182.5,155.3c-4.5,0-8.2-3.7-8.2-8.2c0-4.5,3.7-8.2,8.2-8.2c4.5,0,8.2,3.7,8.2,8.2
		C190.7,151.6,187.1,155.3,182.5,155.3z"/>
</g>
<path class="st5" d="M61.1,88.2H1.4c0,0,4.1-9.2,13.6-5.4c0,0,3.5-9.5,11.7-8.4c8.2,1.1,9.8,6.8,9.8,6.8s8.8-3.5,17.4,3.6
	C53.9,84.9,60.8,84.1,61.1,88.2z"/>
<path class="st5" d="M262,32.2h49.8c0,0-4.1-7.8-14.8-4.9c0,0-2.7-8.2-12.3-8.2c-9.6,0-13.1,8.2-13.1,8.2S262.9,26.9,262,32.2z"/>
<path class="st6" d="M263.6,143.6l-190.2,3.5l-4.5-3.5V32.5h194.7l4.5,3.5L263.6,143.6z"/>
<path class="st6" d="M263.6,24.5L73.4,28L69,24.5v-14h194.7l4.5,3.5L263.6,24.5z"/>
<path class="st7" d="M267.2,35.8H72.6v111.1h194.7V35.8z"/>
<path class="st8" d="M133.5,47.3H80.7v27.2h52.8V47.3z"/>
<path class="st9" d="M194.7,117.8h-0.1c-1,0-1.8-0.8-1.8-1.8c0-1,0.8-1.8,1.8-1.8h0.1c1,0,1.8,0.8,1.8,1.8
	C196.5,117,195.7,117.8,194.7,117.8z"/>
<path class="st9" d="M194.7,126.6h-0.1c-1,0-1.8-0.8-1.8-1.8c0-1,0.8-1.8,1.8-1.8h0.1c1,0,1.8,0.8,1.8,1.8
	C196.5,125.8,195.7,126.6,194.7,126.6z"/>
<path class="st9" d="M194.7,135.5h-0.1c-1,0-1.8-0.8-1.8-1.8c0-1,0.8-1.8,1.8-1.8h0.1c1,0,1.8,0.8,1.8,1.8
	C196.5,134.7,195.7,135.5,194.7,135.5z"/>
<path class="st9" d="M82.5,85.5h-0.1c-1,0-1.8-0.8-1.8-1.8s0.8-1.8,1.8-1.8h0.1c1,0,1.8,0.8,1.8,1.8S83.5,85.5,82.5,85.5z"/>
<path class="st9" d="M82.5,94.2h-0.1c-1,0-1.8-0.8-1.8-1.8s0.8-1.8,1.8-1.8h0.1c1,0,1.8,0.8,1.8,1.8S83.5,94.2,82.5,94.2z"/>
<path class="st10" d="M268.1,14H73.4v14h194.7V14z"/>
<path class="st11" d="M101.8,21c0,1.1-0.9,2-2,2c-1.1,0-2-0.9-2-2c0-1.1,0.9-2,2-2C100.9,19,101.8,19.9,101.8,21z"/>
<path class="st12" d="M91.5,23c1.1,0,2-0.9,2-2c0-1.1-0.9-2-2-2s-2,0.9-2,2C89.5,22.1,90.4,23,91.5,23z"/>
<path class="st13" d="M83.2,23c1.1,0,2-0.9,2-2c0-1.1-0.9-2-2-2c-1.1,0-2,0.9-2,2C81.2,22.1,82.1,23,83.2,23z"/>
<path class="st8" d="M273.2,102.6H187c-1.9,0-3.4-1.5-3.4-3.4V50.8c0-1.9,1.5-3.4,3.4-3.4h86.2c1.9,0,3.4,1.5,3.4,3.4v48.5
	C276.5,101.1,275,102.6,273.2,102.6z"/>
<path class="st14" d="M276,105.2h-86.2c-1.9,0-3.4-1.5-3.4-3.4V53.4c0-1.9,1.5-3.4,3.4-3.4H276c1.9,0,3.4,1.5,3.4,3.4v48.5
	C279.4,103.7,277.9,105.2,276,105.2z"/>
<path class="st9" d="M224.7,58h-2.6v39.5h2.6V58z"/>
<path class="st9" d="M219,58h-2.6v39.5h2.6V58z"/>
<path class="st9" d="M213.3,58h-2.6v39.5h2.6V58z"/>
<path class="st9" d="M207.6,58h-2.6v39.5h2.6V58z"/>
<path class="st9" d="M202,58h-2.6v39.5h2.6V58z"/>
<path class="st9" d="M196.3,58h-2.6v39.5h2.6V58z"/>
<path class="st10" d="M224.7,85.1h-2.6v12.4h2.6V85.1z"/>
<path class="st10" d="M219,71.8h-2.6v25.7h2.6V71.8z"/>
<path class="st10" d="M213.3,65.2h-2.6v32.3h2.6V65.2z"/>
<path class="st10" d="M207.6,75h-2.6v22.5h2.6V75z"/>
<path class="st10" d="M202,81.4h-2.6v16.1h2.6V81.4z"/>
<path class="st10" d="M196.3,86.5h-2.6v11h2.6V86.5z"/>
<path class="st9" d="M244.7,64.1c0.6-2.7-1-5.3-3.7-6c-2.7-0.6-5.3,1-6,3.7c-0.6,2.7,1,5.3,3.7,6C241.4,68.4,244.1,66.8,244.7,64.1z
	"/>
<path class="st9" d="M271.7,58.1h-22v1.4h22V58.1z"/>
<path class="st9" d="M271.7,62.3h-22v1.4h22V62.3z"/>
<path class="st9" d="M261.9,66.5h-12.2v1.4h12.2V66.5z"/>
<path class="st9" d="M244.7,82.2c0.6-2.7-1-5.3-3.7-6c-2.7-0.6-5.3,1-6,3.7c-0.6,2.7,1,5.3,3.7,6C241.4,86.5,244.1,84.8,244.7,82.2z
	"/>
<path class="st9" d="M271.7,76.2h-22v1.4h22V76.2z"/>
<path class="st9" d="M271.7,80.4h-22v1.4h22V80.4z"/>
<path class="st9" d="M261.9,84.5h-12.2V86h12.2V84.5z"/>
<path class="st15" d="M324.3,200.8H0v4.5h324.3V200.8z"/>
<path class="st16" d="M270.4,73l-1.8-4.4c0,0-3.4-3.6-1.5-6.5c1.9-2.9,10.1-3.6,11.9,7c0,0,2.9,0.1,3.4,2.9c0.5,2.8-2,4.6-2.8,6.7
	c-0.8,2.1-2.5,2.8-2.5,2.8l-3.3,0.5L270.4,73z"/>
<path class="st17" d="M290.2,131.8c0,0-1.9,3.1-2.4,4.7c-0.5,1.7-0.9,2.2-0.5,2.5c0.4,0.3,1.3-1.3,1.9-2.2c0.6-0.8,0.7,2.2,0.7,3.3
	c0,1.1-0.5,3.1,0.1,3.1c0.6,0,2.1-2.5,2.7-3.6c0.6-1.1,0.3-7.9,0.3-7.9H290.2L290.2,131.8z"/>
<path class="st18" d="M285.2,193.5l-1.4,1c0,0-1,4-0.6,5.6h16.4c0,0-1.6-2.3-4.8-3.3c-3.2-1-4.2-1.4-4.7-2.3
	C289.6,193.6,285.2,193.5,285.2,193.5z"/>
<path class="st18" d="M259.2,192.9l1.2,1.6c0,0,1.4,3.5,0.8,5.6h-13.7c0,0,0.2-2.3,2.5-3.3c2.3-1,4.3-2.3,4.3-2.3L259.2,192.9z"/>
<path class="st9" d="M299.6,200.1h-16.4v1.6h16.4V200.1z"/>
<path class="st9" d="M261.2,200.1h-13.7v1.6h13.7V200.1z"/>
<path class="st17" d="M290.1,194.5h-6.3l-0.4-2.9l-0.5-3.1l6.7-1l0.3,4L290.1,194.5z"/>
<path class="st17" d="M261.2,188.7l-0.4,2.9l-0.4,2.9h-6.1l0.4-2.9l0.4-2.9H261.2z"/>
<path class="st19" d="M255.1,188.7h6.1l-0.4,2.9h-6.1L255.1,188.7z"/>
<path class="st19" d="M289.9,191.6h-6.5l-0.5-3.1l6.7-1L289.9,191.6z"/>
<path class="st20" d="M291.6,190.1h-9.8c0,0-7.6-27.1-8.4-30.9c-0.8-3.9-3.7-12.4-3.7-12.4l-7.4,43.3h-8.6c0,0-0.4-20.8,0-27.7
	c0.3-5.5,1.8-23.1,3.2-31.8c0.4-2.2,0.8-3.9,1.1-4.6c1.8-3.7,23.7,4.3,23.7,4.3s0.2,0.8,0.4,2.3c0.8,4.7,2.8,16,4.7,26
	C289.3,171.6,291.6,190.1,291.6,190.1z"/>
<path class="st21" d="M269.7,146.8l-3.3-11.6c0,0-3.4,6.4-2.4,11.6c1,5.2-3,7.1-0.2,12.7c2.8,5.5-1.2,9.8,1.5,13.2L269.7,146.8z"/>
<path class="st21" d="M282.2,132.5c-2.6,0.6-5.8,0.6-9.6-0.5c-8.8-2.4-13.4-2.1-15.6-1.5c0.4-2.2,0.8-3.9,1.1-4.6
	c1.8-3.7,23.7,4.3,23.7,4.3S282,131.1,282.2,132.5z"/>
<path class="st17" d="M248.2,78.7c0,0-0.6-2.9,0.7-4.3c1.2-1.5,4.2,0.8,4.2,0.8s1.9,2.1,0.9,4C253.1,81.1,248.2,78.7,248.2,78.7z"/>
<path class="st22" d="M286,102.5c-1.2,7-3.2,14.7-2.9,18.2c0.5,6.4,0.7,8.8,1.1,10c0.4,1.2-5.4,2.2-11.7,0c-3-1.1-6.8-1.7-10-2.1
	c-3.4-0.4-6-0.5-6-0.5s1.7-9.3,2.3-14.2c0.6-4.9,0-10.5,0-10.5s0,0,0,0c-0.3,0.2-7.1,5.4-10.6,2.1c-0.5-0.5-0.9-1.2-1.2-2
	c-2.3-6.7,2.1-22.9,2.1-22.9l5.2,0.7c0,0-0.7,12.6-0.3,12.7c0.5,0.1,5.4-4.4,7.8-6.2c1.3-1,3.6-1.6,6-1.8c1.9-0.2,3.8-0.2,5.4,0
	c0,0,2.4,0.1,5.3,0.7c2.3,0.5,4.9,1.3,6.9,2.8C287.5,91,287,96.5,286,102.5z"/>
<g class="st23">
	<path class="st24" d="M284.2,130.7c0.4,1.2-5.4,2.2-11.7,0c-3-1.1-6.8-1.7-10-2.1c1.2-1.4,3.1-2.9,7.2-4.1c10.1-3,0.5-8.1,6.2-11.5
		c5.8-3.4,6.3-13.6,6.3-13.6l3.8,3.1c-1.2,7-3.2,14.7-2.9,18.2C283.5,127.1,283.8,129.5,284.2,130.7z"/>
</g>
<path class="st9" d="M278.6,86.7c-2.6,4.8-9.8,8.9-9.8,8.9c-1.2-3.6-1.1-7.9-1-9.6c1.9-0.2,3.8-0.2,5.4,0
	C273.2,86,275.6,86.1,278.6,86.7z"/>
<path class="st22" d="M282,89.1c1.3-1.4,3.9-0.2,7.1,4.5c3.2,4.7,6,15.1,6.5,18.7c0.6,3.6-0.3,15.9-2,21.3l-4.7-0.4
	c0,0-1.2-17.7-1.4-18.9c-0.2-1.2-4-10.7-5.5-15.8C280.4,93.4,280.3,91,282,89.1z"/>
<path class="st17" d="M277,86.7c0,0.7-1,1.9-3.5,2.3c-2.5,0.5-5.5-1.3-4.6-2.5c0.3-0.4,0.6-1.3,0.7-2.3c0.2-1.6,0.2-3.3,0.2-3.3
	s5.4-5,5.3-2.4c0,2.6,1.9,3,1.9,3C276.4,84.4,277,86,277,86.7z"/>
<path class="st19" d="M275.2,78.5c-1.4,3.6-3.7,5.1-5.5,5.7c0.2-1.6,0.2-3.3,0.2-3.3S275.2,75.9,275.2,78.5z"/>
<path class="st17" d="M254.3,81.3c0,0-0.2-3.9-1.3-5.2c-1.1-1.3-2.1-1.1-1.9,0c0.2,1.1,1.1,3,0.2,4.8L254.3,81.3z"/>
<path class="st21" d="M252.9,186.7v3.8h9.6l0.9-3.8H252.9z"/>
<path class="st21" d="M281.4,190.5h10.9l-0.3-3.8h-11.7L281.4,190.5z"/>
<path class="st9" d="M288.5,196.6l-0.3-0.1c0,0,0.3-0.9,2.2-1.6l0.1,0.3C288.8,195.8,288.5,196.6,288.5,196.6z"/>
<path class="st9" d="M290.6,197.6l-0.3-0.1c0-0.1,0.4-1.4,1.9-1.8l0.1,0.3C291,196.4,290.6,197.6,290.6,197.6z"/>
<path class="st9" d="M293.2,197.6l-0.3,0c0,0,0.1-0.8,0.6-1.3l0.2,0.2C293.2,196.9,293.2,197.6,293.2,197.6z"/>
<path class="st9" d="M256.4,195.6c-1.4-0.5-2.8-0.5-2.8-0.5l0-0.3c0.1,0,1.5,0,3,0.5L256.4,195.6z"/>
<path class="st9" d="M254.8,196.6c-1.5-0.7-2.7-0.7-2.7-0.8l0-0.3c0,0,1.2,0.1,2.8,0.8L254.8,196.6z"/>
<path class="st9" d="M252.4,197.1c-0.4-0.4-1.6-0.6-1.6-0.6l0-0.3c0.1,0,1.3,0.2,1.7,0.6L252.4,197.1z"/>
<g class="st23">
	<path class="st24" d="M260,96.2c-1,2.5-1.3,7.2-1.3,7.2s0,0,0,0c-0.3,0.2-7.1,5.4-10.6,2.1c-0.5-0.5-0.9-1.2-1.2-2
		c1.9,0.3,3.6,2.3,5.9-0.1C256.4,99.7,260,96.2,260,96.2z"/>
</g>
<path class="st17" d="M268.5,68.6c0,0-3.8,10.5-0.9,12.6c2.9,2.1,7.5-2.7,7.5-2.7s2,0.1,3-1.5c1.1-1.6-0.8-2.3-1.6-1.8
	c-0.8,0.5-1.8-0.3-1.2-2.2c0.6-2,0.3-2.1-1-1.8C273.2,71.4,268.7,69.2,268.5,68.6z"/>
<path class="st21" d="M289.7,186.7c-4.1-30.4-10.8-53.5-10.9-53.7l0.8-0.2c0.1,0.2,6.8,23.4,10.9,53.8L289.7,186.7z"/>
<path class="st25" d="M81,70.2c0,0-1.3-4.4-1.3-5.7c0-1.4,1.3-5.3,2-5.4c0.7-0.1,2.1,7.6,2.7,8.6c0.6,1-0.5,2.5-0.5,2.5H81z"/>
<path class="st25" d="M16,166.7l-4.6-5.1l1.8-1.8l3.6-3.7l4.4,4.9l-3.5,3.8L16,166.7z"/>
<path class="st26" d="M17.7,164.8l-4.6-5l3.6-3.7l4.4,4.9L17.7,164.8z"/>
<path class="st27" d="M11.4,161.6l4.6,5.1c0,0-0.3,4.4,1.7,7.1c2,2.7,2.5,4.6,1.6,6.6L5.6,165.2L11.4,161.6z"/>
<path class="st9" d="M16,168.5c-1.1-0.8-3.6-1.5-3.6-1.5l0.1-0.3c0.1,0,2.6,0.7,3.7,1.5L16,168.5z"/>
<path class="st9" d="M16.2,170c-1.3-0.5-3.3-0.3-3.3-0.3l0-0.3c0.1,0,2.1-0.2,3.4,0.3L16.2,170z"/>
<path class="st9" d="M14.1,172l-0.1-0.3c0.1,0,1.4-0.5,2.6-0.6l0,0.3C15.4,171.5,14.1,172,14.1,172z"/>
<path class="st7" d="M5.6,165.2l-1.1,1l13.8,15.2l1.1-1L5.6,165.2z"/>
<path class="st28" d="M51.2,121.3c0,0-0.1,0.5-0.2,1.3c-0.3,1.7-1,5-1.9,8.5c-1.1,4.5-2.5,9.4-4,11.9c-1.7,2.9-8.7,9.1-14.7,14.1
	c-5.1,4.3-9.6,7.8-9.6,7.8l-9.4-9.6c0,0,19.4-17.5,19.9-18.1c0.5-0.7,2.8-10.8,3.7-18.8c0.4-3.5,1.4-7.2,2.5-10.2c1.4-4,2.9-7,2.9-7
	l9.1,3.3l0.1,0.8l0.9,8.5L51.2,121.3z"/>
<path class="st29" d="M50.9,122.6c-0.3,1.7-1,5-1.9,8.5c-1.1,4.5-2.5,9.4-4,11.9c-1.7,2.9-8.7,9.1-14.7,14.1
	c1.4-7.9,10.8-7.2,9.4-12.9c-1.4-6,4.6-8.4,2.2-16.2c-2.4-7.8,1.5-13.1,1.5-13.1S46.9,118.5,50.9,122.6z"/>
<path class="st25" d="M70,60c0,0-1.6,1.2-2.7,3.7c-0.4,1-0.8,2.2-1,3.6C65.6,72.3,57,67,57,67l4.2-8.7l3.4-1.8l2.7,1.8L70,60z"/>
<path class="st30" d="M57,65.7c0,0,0.7-2.1,1.6-2.2c1-0.1,8,1,8.3,2.6c0.3,1.6,0,2.7,0,2.7L57,65.7z"/>
<path class="st30" d="M83.7,73.3l0.7-3.2c0,0-3.2-0.8-4.4-0.7c-1.2,0.2-2.3,3.9-2.3,3.9H83.7z"/>
<path class="st30" d="M65.6,90.1c0,0,4.5,1.2,14-7.4c9.5-8.6-7.9-5.2-7.9-5.2L65.6,90.1z"/>
<path class="st31" d="M82.1,169.1H53v0.8h29.1V169.1z"/>
<path class="st31" d="M64.3,200.9l-8.8-40.7l-8.8,40.7l-0.8-0.2l9.3-42.6c0-0.2,0.2-0.3,0.4-0.3s0.4,0.1,0.4,0.3l9.3,42.6
	L64.3,200.9z"/>
<path class="st25" d="M64.5,176.8h-6.9l-0.2-2.5l-0.3-5.1h6.6l0.5,5.1L64.5,176.8z"/>
<path class="st26" d="M64.3,174.3h-6.8l-0.3-5.1h6.6L64.3,174.3z"/>
<path class="st27" d="M57.6,176.8h6.9c0,0,3.1,3.2,6.4,3.5s5.1,1.2,6,3.2H56.4L57.6,176.8z"/>
<path class="st9" d="M62.3,179.8l-0.2-0.2c0.1-0.1,2.3-1.4,3.6-1.7l0.1,0.3C64.6,178.3,62.3,179.7,62.3,179.8z"/>
<path class="st9" d="M64.6,181.1l-0.2-0.2c0-0.1,1.2-1.7,2.5-2.3l0.1,0.3C65.8,179.5,64.7,181.1,64.6,181.1z"/>
<path class="st9" d="M67.2,181.9l-0.3-0.1c0-0.1,0.5-1.4,1.3-2.3l0.2,0.2C67.7,180.5,67.2,181.8,67.2,181.9z"/>
<path class="st7" d="M76.9,183.6H56.4v1.5h20.5V183.6z"/>
<path class="st31" d="M93.5,200.9l-8.9-40.7l-8.9,40.7l-0.8-0.2l9.3-42.6c0-0.2,0.2-0.3,0.4-0.3c0.2,0,0.4,0.1,0.4,0.3l9.3,42.6
	L93.5,200.9z"/>
<path class="st31" d="M78.8,184.6H49.6v0.8h29.1V184.6z"/>
<path class="st28" d="M68.7,173.2H54.6c0,0,0.3-23.5,0.3-27.7c0-3-2.8-7.9-5.8-14.4c-1.2-2.6-2.4-5.5-3.5-8.7
	c-1.5-4.4-2.4-8.2-2.9-11.1c-0.8-4.4-0.8-6.9-0.8-6.9l7.6,0.8l11.1,1.2c0,0,1.2,4.3,2.7,9.8c2.4,8.8,5.5,20.8,5.6,23.6
	C69.1,144.5,68.7,173.2,68.7,173.2z"/>
<path class="st29" d="M63.3,116.3c-3.1-1.3-6.2-2.5-9.3-2.4c-1.2,0.1-2.4,0-3.6-0.2c-2.8-0.4-5.5-1.4-7.7-2.5
	c-2.3-1.1-4.1-2.4-5.2-3.2c1.4-4,2.9-7,2.9-7l9.1,3.3l0.1,0.8l11.1,1.2C60.6,106.5,61.8,110.8,63.3,116.3z"/>
<path class="st25" d="M103.6,69.3c0,0,2.3-2,4.2-2.8c1.9-0.8,4.5-2.4,4.5-1.5s-2.3,2-2.3,2l7.2-0.7c0,0-3.2,3.2-5.7,3.8
	c-2.5,0.6-5.7,1.7-5.7,1.7L103.6,69.3z"/>
<path class="st14" d="M124.3,40.6l-43.1,3.6l2.1,25l43.1-3.6L124.3,40.6z"/>
<path class="st9" d="M121.9,43.5L84,46.6l1.6,19.8l37.9-3.2L121.9,43.5z"/>
<path class="st14" d="M89.7,66.4l7.4-15.6l9.9,14.2L89.7,66.4z"/>
<path class="st14" d="M106.1,65l5.7-12.1l7.6,11L106.1,65z"/>
<path class="st14" d="M104.8,52.4c1.4-0.1,2.5-1.3,2.4-2.7c-0.1-1.4-1.3-2.5-2.7-2.4c-1.4,0.1-2.5,1.3-2.4,2.7
	C102.1,51.4,103.3,52.4,104.8,52.4z"/>
<path class="st29" d="M65.1,173.3h-0.8c0-0.3,0-25.2-0.1-31.2c-0.1-5.9-10.5-30-10.6-30.3l0.8-0.3c0.4,1,10.5,24.5,10.7,30.6
	C65.2,148.1,65.1,173,65.1,173.3z"/>
<path class="st16" d="M73.5,48l1.4-1.5c0,0,0.1-2.7-2.6-6.2c-2.7-3.5-4.3-2.2-3,0s-2.4,1-5.7,0.6c-3.3-0.4-6,0-4.4,2.1
	c1.6,2.1,0.2,2.2-3.8,3.9c-4,1.7-3.4,4.1,0,4.4c3.4,0.3,1.1,2.3-1.5,5c-2.6,2.8-0.6,4.4,2.3,2.8c2.9-1.6,3.5,0.2,2.5,2.6
	c-1,2.4,2.4,0.3,4-1.4c1.6-1.7,1.1,1.3,3.5-2.5C68.7,54,73.5,48,73.5,48z"/>
<path class="st26" d="M70,60c0,0-1.6,1.2-2.7,3.7c-1.9-2-0.8-5.5-0.8-5.5l0.8-0.1L70,60z"/>
<path class="st25" d="M74.9,46.5c0,0-0.4,4.4,0.4,6.7c0.8,2.3,1.7,2.3,0.7,3.2c-1,0.9-1.7,0.7-1.9,1.7c-0.2,1,0.2,4.4-2.3,4.4
	c-2.5-0.1-5.2-3.7-5.5-4.6c0,0-2.7-0.9-2.7-3.1c0-2.2,2.1-3,3-1.9c0.9,1,1.8-0.3,1.9-2c0-1.7,1.1-4,2.9-3.9
	C73.1,47.2,73.9,45.4,74.9,46.5z"/>
<path class="st32" d="M179.1,204.6l0.4-1.5c2.3-8.2-2.3-14-2.5-14.3l-0.7,0.5c0,0.1,4,5.1,2.6,12.3c-1.1-2.2-4.5-6.7-13-7.2l0,0.8
	c10.8,0.5,12.7,7.7,12.8,7.8L179.1,204.6z"/>
<path class="st32" d="M161.8,195c0,1.1,0.9,2,2,2s2-0.9,2-2c0-1.1-0.9-2-2-2S161.8,193.9,161.8,195z"/>
<path class="st32" d="M184.4,195c0,1.1,0.9,2,2,2s2-0.9,2-2c0-1.1-0.9-2-2-2S184.4,193.9,184.4,195z"/>
<path class="st32" d="M174.1,187.5c0,1.1,0.9,2,2,2s2-0.9,2-2c0-1.1-0.9-2-2-2S174.1,186.4,174.1,187.5z"/>
<path class="st32" d="M179.6,203.1c1-3.7,5.5-6.9,5.5-6.9l-0.5-0.7c-0.2,0.1-4.8,3.4-5.9,7.4L179.6,203.1z"/>
<path class="st33" d="M125.5,182.3c3.8-5.6,8-9.4,14.7-13.5c6.6-4.1,14.6-3.2,18.1-4.4c3.4-1.2,3,3.1,1.6,7
	c-1.5,3.9-0.5,22.7-19.7,26.5C120.9,201.7,122.7,186.4,125.5,182.3z"/>
<path class="st34" d="M136.8,187.6C136.8,187.6,136.7,187.6,136.8,187.6c-0.2,0-0.3-0.2-0.3-0.3c1.6-6.3-0.9-13-0.9-13
	c-0.1-0.1,0-0.3,0.2-0.4c0.1-0.1,0.3,0,0.4,0.2c0,0.1,2.5,6.9,0.9,13.4C137,187.5,136.9,187.6,136.8,187.6z"/>
<path class="st34" d="M136.6,188.3c-0.1,0-0.2-0.1-0.3-0.2c-0.1-0.1,0-0.3,0.2-0.4c6-2.3,15.4-0.2,15.8-0.1c0.2,0,0.2,0.2,0.2,0.3
	c0,0.2-0.2,0.2-0.3,0.2c-0.1,0-9.6-2.2-15.4,0.1C136.7,188.3,136.7,188.3,136.6,188.3z"/>
<path class="st34" d="M134.3,193.4C134.3,193.4,134.2,193.4,134.3,193.4c-0.2-0.1-0.3-0.2-0.3-0.4c5.9-16.2,23.2-26.1,23.4-26.2
	c0.1-0.1,0.3,0,0.4,0.1c0.1,0.1,0,0.3-0.1,0.4c-0.2,0.1-17.3,9.9-23.1,25.9C134.5,193.4,134.4,193.4,134.3,193.4z"/>
<path class="st34" d="M143.5,178.9c-0.1,0-0.2,0-0.2-0.1c-0.1-0.1,0-0.3,0.1-0.4c4.1-2.6,12.7-0.9,13-0.8c0.2,0,0.2,0.2,0.2,0.3
	c0,0.2-0.2,0.2-0.3,0.2c-0.1,0-8.7-1.8-12.6,0.7C143.6,178.9,143.6,178.9,143.5,178.9z"/>
<path class="st34" d="M146.8,175.5c0,0-0.1,0-0.1,0c-0.1-0.1-0.2-0.2-0.1-0.4c1.4-2.4,1.3-7,1.3-7.1c0-0.2,0.1-0.3,0.3-0.3
	c0,0,0,0,0,0c0.2,0,0.3,0.1,0.3,0.3c0,0.2,0.1,4.8-1.3,7.4C147,175.5,146.9,175.5,146.8,175.5z"/>
<path class="st3" d="M69.8,202.4c0,0,0.4-10.8,9.2-15.5c8.8-4.7,15.1,1.5,15.1,1.5s4.7-13.5,17.9-13c13.2,0.4,14.1,11.5,14.1,11.5
	s15-4.2,23.4,3.9c8.6,8.3,6.8,12.1,6.8,12.1L69.8,202.4z"/>
<path class="st4" d="M92.1,201.1c-0.1,0-5.6-4.7-11.8-6.9l0.2-0.5c6.3,2.2,11.9,6.9,12,7L92.1,201.1z"/>
<path class="st4" d="M77.7,199.5l-0.3-0.5c0.2-0.1,4.1-2,11.3-1l-0.1,0.6C81.6,197.6,77.7,199.5,77.7,199.5z"/>
<path class="st4" d="M108.4,200.9l-0.5-0.3c0,0,0.7-1.1,1.5-3.1c1.5-3.6,3.4-9.7,3.1-20.6l0.6,0c0.3,11-1.7,17.2-3.2,20.8
	C109.1,199.7,108.4,200.8,108.4,200.9z"/>
<path class="st4" d="M109.2,199.2l-0.3-0.4c5.7-4.4,13.7-4.8,13.8-4.8l0,0.6C122.6,194.5,114.8,194.9,109.2,199.2z"/>
<path class="st4" d="M112.1,190.9l-0.5-0.1c0.5-1.9,6.3-9,6.5-9.3l0.4,0.3C118.5,181.8,112.6,189.1,112.1,190.9z"/>
<path class="st4" d="M110.3,194.4c-1.8-2.8-4.5-9.8-4.7-10.1l0.5-0.2c0,0.1,2.9,7.3,4.6,10L110.3,194.4z"/>
<path class="st4" d="M130,200.5l0.8-0.5c0.1-0.1,7.2-5.1,14.9-5.5l0,0.6c-6,0.3-11.7,3.5-13.8,4.8l7.4-0.3l0,0.6L130,200.5z"/>
<path class="st4" d="M135.9,197.6l-0.5-0.2c1.2-3.4,3.7-6.7,3.8-6.8l0.4,0.3C139.6,191,137.1,194.3,135.9,197.6z"/>
<path class="st8" d="M249.8,18c4.9-0.1,8.9-4.1,8.8-9.1c-0.1-4.9-4.1-8.9-9.1-8.8c-4.9,0.1-8.9,4.1-8.8,9.1
	C240.8,14.1,244.8,18.1,249.8,18z"/>
<path class="st8" d="M253.2,6c-2.3-1.3-3.6,1.9-3.6,1.9S248.3,4.7,246,6c-2.6,1.4-0.3,6.1,3.6,8.1C253.5,12.1,255.8,7.4,253.2,6z"/>
<path class="st9" d="M251.8,19.4c4.9,0,8.9-4,8.9-8.9c0-4.9-4-8.9-8.9-8.9c-4.9,0-8.9,4-8.9,8.9C242.9,15.4,246.9,19.4,251.8,19.4z"
	/>
<path class="st12" d="M255.4,7.4c-2.3-1.3-3.6,1.9-3.6,1.9s-1.3-3.2-3.6-1.9c-2.6,1.4-0.3,6.1,3.6,8.1C255.7,13.5,258,8.8,255.4,7.4
	z"/>
<path class="st8" d="M293,59.5c3.9,0,7-3.1,7-7c0-3.9-3.1-7-7-7c-3.9,0-7,3.1-7,7C286,56.3,289.1,59.5,293,59.5z"/>
<path class="st5" d="M294.9,60.9c3.9,0,7-3.1,7-7c0-3.9-3.1-7-7-7c-3.9,0-7,3.1-7,7C287.9,57.7,291,60.9,294.9,60.9z"/>
<path class="st18" d="M294.9,51.4l2.4-1.3l-0.5,2.7l1.9,1.9l-2.7,0.4l-1.2,2.4l-1.2-2.4l-2.7-0.4l1.9-1.9l-0.5-2.7L294.9,51.4z"/>
<path class="st8" d="M80.7,125.7v-22.2c0,0,7.7,2,9.8,8.9c2.1,7,9.3,9.9,13,7.7c3.7-2.2,3.5-8.3,8.5-10.4c4.9-2.1,8,3.1,13.8,8.8
	c5.8,5.7,13.6,6.9,19.6,1.7c6.1-5.2,12-6.6,16.6-1.8c4.6,4.8,6.7,5.2,11.9,4.2c5.3-1,8.7,3.1,8.7,3.1H80.7L80.7,125.7z"/>
<g class="st35">
	<path class="st36" d="M80.7,125.7h101.8c0,0-2.2-12.3-10-12.3c-7.9,0-5.9,10.9-16.1,8.1c-10.2-2.8-11.3-19.4-22.2-20.2
		c-10.9-0.8-13.6,14.7-19.2,14.7c-5.7,0-6.8-6.5-14-6.9c-7.2-0.4-6.8,10.2-12,10.8C83.7,120.4,80.6,123.7,80.7,125.7z"/>
</g>
<path class="st8" d="M169.1,74.4h-22.3c-1.3,0-2.4-1.1-2.4-2.4V49.7c0-1.3,1.1-2.4,2.4-2.4h22.3c1.3,0,2.4,1.1,2.4,2.4V72
	C171.6,73.3,170.5,74.4,169.1,74.4z"/>
<path class="st9" d="M171.9,77.2h-22.3c-1.3,0-2.4-1.1-2.4-2.4V52.5c0-1.3,1.1-2.4,2.4-2.4h22.3c1.3,0,2.4,1.1,2.4,2.4v22.3
	C174.4,76.1,173.3,77.2,171.9,77.2z"/>
<g id="Iran_00000102545084299084275110000011305911089207167141_" class="st37">
	<path class="st38" d="M150,54.3L150,54.3L150,54.3L150,54.3L150,54.3L150,54.3L150,54.3L150,54.3L150,54.3l0.1,0.1l0,0.2l0,0l0,0
		l0,0l0,0l0,0l0,0l0,0l0,0l0,0l0,0l0,0l0,0l0,0l0,0l0,0l0,0l0,0l0,0l0,0.1l0,0l0,0l0,0l0,0.1l0,0l0,0l0.1,0l0,0l0,0l0,0l0,0l0,0l0,0
		l0,0l0,0l0,0l0,0l0,0l0,0l0,0l0,0l0,0l0,0l0,0l0,0l0,0l0,0l0,0l0,0l0,0l0,0l0,0l0,0l0,0l0,0l0,0l0,0l0,0l0,0l0,0l0,0l0,0l0.1,0
		l0.1,0l0.1,0l0,0l0.3,0.1l0.1,0l0.1,0l0,0l0.1,0l0,0l0.1,0l0,0l0,0l0,0l0,0l0,0l0,0l0.1,0.1l0,0l0,0l0,0l0,0l0,0l0,0l0,0l0-0.1l0,0
		l0,0l0.1,0l0,0l0,0l0,0l0,0l0,0l0,0l0,0l0-0.1l0,0l0,0l0,0l0,0l0,0l0,0l0,0l0,0l0.1,0l0,0l0,0l0,0l0-0.1l0-0.1l0,0l0,0l0.1,0l0.1,0
		l0,0l0,0l0,0l0,0l0.1-0.1l0,0l0.1,0l0.1,0l0,0l0,0l0.1-0.1l0,0l0.1-0.1l0.1-0.1l0,0l0,0l0,0l0.1,0l0,0l0,0l0,0l0,0l0,0l0,0l0.1,0.1
		l0.2,0.2l0.1,0.1l0,0l0,0.1l0,0l0,0l-0.1,0l-0.1,0l0,0l0,0l0,0l0,0.1l0,0l0,0l0.1,0.1l0.1,0l0,0l0,0.1l0,0l0,0l0,0l0,0l0,0l0,0h0
		l0,0l-0.1,0l-0.2,0l0,0l0,0l0,0l-0.1,0l0,0l0,0.1l0,0l0.1,0.1l0.2,0.1l0,0l0,0l0,0l0,0l0,0l0.1,0l0,0l0,0l0,0l0.1,0h0l0,0l0,0l0,0
		l0,0l0,0l0,0l0,0l0,0l0,0l0,0.1l0,0l0,0l0.1,0l0,0l0,0l0,0l0,0l0,0l0,0l0.1,0l0,0.1l0,0l0,0l0,0.1l0,0.1l0,0.2l0.1,0.2l0,0l0,0l0,0
		l0,0l0,0.1l0,0l0,0l0,0l0,0.1l0,0.1l0.1,0.1l0.1,0.1l0.1,0.1l0.2,0.1l0.1,0l0.5,0.1l0.1,0l0,0l0,0l0,0l0,0l0,0l0,0l0,0l0.1,0l0.2,0
		l0.1,0l0,0l0,0.1l0,0l0,0.1l0,0l0,0l0,0.1l0,0.1l0,0l0.1,0.1l0.1,0.1l0,0l0,0l0.1,0.1l0,0l0,0l0,0l0,0l0.2,0.1l0.2,0.1l0.1,0
		l0.3,0.1l0.2,0.1l0.2,0l0.2,0.1l0.2,0l0.2-0.1l0.2-0.1l0.2,0l0.2,0l0.2-0.1l0.2-0.1l0.4-0.1l0.1,0l0.5,0l0.1,0l0.1-0.1l0,0.1
		l-0.1,0l-0.1,0l-0.1,0l0,0l0,0l0,0l0,0l0,0l0,0l-0.1,0h-0.1l0,0l0,0l0,0l0,0l0,0l0,0l0,0l0.2,0l0,0l0,0l0.2,0l0,0l0,0l0-0.2l0,0
		l0,0l0,0l0,0l0-0.1l0,0l0-0.1l0-0.1l0-0.1l0,0l0-0.1l0.3,0l0,0l0,0l0,0l0,0l0,0l0,0l0,0l0,0l0.2-0.1l0,0l0.1,0l0,0l0,0l0,0l0,0l0,0
		l0.1,0l0,0l0,0l0,0l0,0l0,0l0,0l0,0l0,0l0,0l0,0l0,0l0,0l0,0l0,0l0,0l0,0l0.2-0.1l0.1-0.1l0,0l0,0l0,0l0,0l0,0l0,0l0,0l0,0l0,0
		l0.1,0l0,0l0,0l0,0l0.1,0l0,0l0,0l0,0l0.1-0.1l0,0l0.1,0l0.2-0.1l0,0l0.1,0l0,0l0,0l0.1,0l0,0l0,0l0,0l0,0l0.2,0l0,0l0,0l0,0l0,0
		l0.1,0l0,0l0,0l0,0l0,0l0,0l0,0l0.1-0.1l0,0l0,0l0.1,0l0,0l0,0l0,0l0,0l0,0l0.1,0l0.1,0l0,0l0,0l0,0l0,0l0.2,0l0,0l0,0l0,0l0,0l0,0
		l0,0l0,0l0,0l0,0l0,0l0,0l0,0l0,0l0,0l0,0l0,0l0,0l0,0l0,0.1l0,0l0,0l0,0l0,0l0,0l0,0l0,0.1l0,0l0.2,0.1l0,0l0,0l0,0l0,0l0.1,0
		l0.1,0l0,0l0,0l0,0l0,0l0,0l0,0l0,0l0,0l0,0l0,0l0,0l0,0l0,0l0,0l0,0l0,0l0,0l0.2,0.1l0.1,0l0,0l0,0l0,0l0,0l0,0l0,0l0,0l0,0l0,0
		l0,0l0,0l0,0l0,0l0,0l0.1,0l0,0l0,0l0,0l0.1,0l0,0l0,0l0,0l0,0l0,0l0,0l0,0l0.1,0.1l0.1,0l0,0l0,0l0,0l0,0l0,0l0,0l0,0l0,0l0,0l0,0
		l0,0l0,0l0.1,0l0.1,0l0,0l0,0l0,0l0,0l0,0l0,0l0.2,0.1l0,0l0.1,0l0,0l0,0l0,0l0,0l0,0l0,0l0,0l0,0l0,0l0,0l0,0l0,0.1l0,0l0.1,0.1
		l0,0l0,0l0,0l0,0l0,0l0,0l0,0l0,0l0,0l0,0l0,0l0,0l0,0l0,0l0,0l0,0l0,0l0,0l0,0l0,0l0,0l0,0l0,0l0,0l0,0l0.2,0.1l0.1,0.1l0,0l0.1,0
		l0,0l0,0l0,0.1l0.1,0.1l0.1,0.2l0,0l0,0.1l0,0l0,0l0.2,0l0.2,0l0.3,0l0.1,0l0.1,0l0.1,0l0,0l0,0.1l0,0l0,0l0,0l0,0l0,0l0,0l0,0l0,0
		l0,0l0,0l0,0.1l0,0.1l0,0l0,0l0,0l0,0l0,0l0,0l0,0l0,0l0,0l0,0l0,0l0,0l0,0l0,0.1l0,0l0,0l0,0l0,0l0,0l0,0l0,0l0,0l0,0l0,0l0,0l0,0
		l0,0l0,0l0,0l0,0l0,0l0,0l0,0l0,0l0,0l0,0l0,0l0,0l0,0l0,0l0,0.1l0,0l0,0l0,0l0,0l0,0l0,0l0,0l0,0l0,0l0,0l0,0l0,0l0,0l0,0l0,0
		l0,0.1l0,0l0,0l0,0l0,0l0,0l0,0l0,0l0,0l0,0l0,0l0,0.1l0,0l0,0l0,0l0,0l0,0l0,0l0,0l0,0l0,0l0,0l0,0l0,0l0,0l0,0l0,0.1l0,0l0,0l0,0
		l0,0l0,0l0,0l0,0l0,0.1l0,0.1l0,0l0,0l0,0l0,0l0,0l0,0l0,0l0,0.1l0,0l0,0l0,0l0,0l0,0l0,0l0,0l0,0l0,0l0,0l0,0l0,0l0,0l0,0l0,0l0,0
		l-0.1,0.1l0,0l0,0l-0.1,0l0,0l0,0l0,0l0,0l0,0l0,0l0,0l0,0l0,0l0,0l0,0l0.1,0.1l0,0l-0.1,0l-0.1,0l-0.1,0l0,0l0,0l-0.1,0l0,0l0,0.1
		l0,0.1l0,0.1l0,0l0,0.1l0,0.2l0,0.1l0,0.1l0,0l0,0.1l0.1,0.1l0.1,0l0.1,0l0.1,0l0,0l0,0l0,0l0,0l0,0l0,0l0,0l0,0l-0.1,0l0,0l0,0
		l0,0l0,0l0,0l0,0l0,0l0,0l0,0.1l-0.1,0.1l-0.1,0.1l-0.1,0.1l0,0l0,0.1l0,0.1l0,0.1l0,0.1l0,0.1l0,0.2l0,0.2l0.1,0.2l0,0.2l0,0.1
		l0,0.1l0,0l0,0l0,0l0,0l0,0l0,0l0,0l0,0l0,0l0,0l0,0l0,0.1l0,0.1l0,0.1l0,0.1l0,0l0,0.1l0,0.1l0,0l0.1,0l0.2,0l0,0l0.2,0l0.2,0
		l0.1,0l0.1,0l0,0l0,0l0,0.1l0,0l0,0.1l0,0l0,0l0,0.1l0,0l0,0l0,0l0,0l0,0l0,0l0,0l0,0l0,0l0,0l0,0.1l0,0l0,0l0,0l0,0l0,0l0,0
		l-0.1,0.1l-0.2,0.2l-0.1,0.2l-0.1,0.1l-0.1,0.2l-0.1,0.1l-0.1,0.1l-0.2,0.2l0,0l-0.1,0.1l-0.1,0.1l0.1,0.1l0.1,0.1l0.1,0.1l0.1,0.1
		l0.1,0.1l0.1,0.1l0,0l0,0l0,0l0,0l0,0l0,0v0l0,0l0,0l0,0l0,0l0,0l0,0l0,0l0,0l0,0l0,0l0,0l0,0l0,0l0,0l0,0l0,0l0,0l0,0l0,0l0,0l0,0
		l0,0l0,0l0,0l0,0l0.1,0.1l0,0l0,0l0,0l0,0l0,0.1l0,0l0.1,0.1l0.1,0.1l0.1,0.1l0,0l0,0l0.1,0l0.1,0l0,0l0.1,0l0,0l0.1,0l0.2,0l0,0
		l0,0l0,0l0,0l0,0l0,0l0,0l0,0l0,0l0,0l0.1,0.1l0,0l0.2,0l0,0l0,0l0,0.1l0,0.2l0,0.1l0,0.1l0,0.1l0,0.1l0,0.1l0,0.1l0,0.1l0,0.1
		l-0.1,0.1l0,0l0,0l0,0l0,0l0,0l0,0l0,0l0.1,0l0,0l0,0l0,0l0,0l0,0l0,0l0,0l0,0l0.1,0l0,0l0.1,0l0,0l0,0l0,0l0.1,0l0,0l0,0l0,0l0,0
		l0,0l0,0l0,0l0,0l0,0.1l0,0l0,0l0,0l0,0l0,0l0,0l0,0l0,0l0,0.2l0,0l0,0l0,0l0,0l0,0l0,0l0,0l0,0l0,0.2l0,0.1l0,0l0,0l0,0l0,0l0,0
		l0,0l0,0l0,0l0,0l-0.1,0l-0.1,0l-0.1,0l0,0l0,0l0,0l0,0l0,0l0,0l0,0l0,0l0,0l0,0l0,0l0,0l0,0l0,0l-0.2,0l0,0l0,0l0,0l0,0l0,0l0,0
		l0,0l0,0l0,0l0,0l0,0l0,0l0,0l0,0l0,0l0,0l0,0l0,0l0,0l0,0l0,0l0,0l0,0l0,0l0,0l-0.1,0l0,0l0,0l0,0l0,0l-0.1,0l0,0l0,0l0,0l-0.1,0
		l0,0l0,0l0,0l0,0.1l0,0.1l0,0.1l0,0.1l0,0.1l0,0l0,0l0,0l0,0l0,0l0,0l0,0l0,0.1l0,0l0,0l0,0l0,0l0,0l0,0.1l0,0.1l0,0.1l0,0.1l0,0.1
		l0,0l0,0l0,0l0,0l0,0l0,0l0,0l0,0l0,0l0,0l0,0l0,0l0,0l0,0l0,0l0,0l0,0l0,0l0,0l0,0l0,0l0,0v0l0,0l0,0l0,0l-0.1,0l0,0l0,0l-0.2-0.1
		l-0.1,0l0,0l0,0l-0.2-0.1l-0.2,0l-0.2,0l-0.1,0l0,0l0,0l0,0l0,0l0-0.1l0,0l0,0l0,0l0,0l0,0l-0.1,0l0,0l0,0l0,0l0,0l0,0l0,0l0,0l0,0
		l0,0l0,0l0,0l0,0l0,0l0,0l0,0l0,0l0,0l0,0l0,0l0,0l0,0l0,0l-0.1,0l0,0l0,0l0,0l0,0l0,0l0,0l0,0l0,0l0,0v0l0,0l0,0l0,0l0,0l0,0l0,0
		l0,0l0,0l0,0l0,0l0,0l-0.1,0l-0.1,0l0,0l-0.1,0l-0.1,0l-0.1,0l-0.1,0l-0.1,0l-0.1,0l-0.1-0.1l0,0l-0.1,0l-0.1,0l0,0l-0.1,0l-0.1,0
		l0,0l0,0l0,0l0,0l0,0l0,0l0,0l0,0l0,0l0,0l0,0l-0.1-0.1l0,0l0,0l0,0l0,0l0,0l0,0l0,0l0,0H167l-0.2,0l-0.1,0l-0.1,0l0,0l0,0l0,0l0,0
		l0,0l0,0l0,0l0,0l0,0l0,0l0,0l0,0l0,0l0,0l0,0l0,0l0,0l0,0l0,0l0,0l0,0l0,0l0,0l0-0.1l0,0l0,0l-0.1,0l0,0l0,0l0,0l0,0l0-0.1l0,0
		l0,0l0,0l0,0l0,0l0,0l0,0l0,0l0,0l-0.1,0l0,0l0,0l0,0l0,0l0,0l0,0l0,0l-0.1,0l0,0l-0.2,0l0,0l0,0l0-0.1l0-0.1l0-0.1l0,0l0,0l0,0
		l0,0l0,0l0,0l0,0l0,0l0,0l0,0l0,0l0,0l0,0l0,0l0,0l0,0l0,0l-0.1-0.1l0,0l0,0l0-0.1l0,0l0,0l0,0l0,0l0,0l0,0l0,0l0-0.2l0-0.1
		l-0.1-0.3l0,0l0,0l0,0l0,0l0,0l0,0l0,0l0,0l0,0l0,0l0,0l0,0l0,0l0,0l0,0l0,0l0,0l0,0l0,0l0,0l0,0l0,0l0,0l0,0l0,0l0,0l0,0l0,0l0,0
		l0,0l0,0l0,0l0,0l0,0v0l0,0l0,0l0,0l0,0l0,0l0,0l0,0l0,0l0,0l0,0l0,0l-0.1,0l0,0l0,0l0,0l0,0l-0.1,0l0,0l-0.1,0l0,0l-0.1,0l0,0l0,0
		l0,0l-0.1,0l0,0l0,0l0,0l0,0l0,0l0,0l0,0l0,0l0,0l-0.1,0l0,0l0,0l0,0l0,0l0,0l-0.1,0l-0.1,0l0,0l0,0l0,0l0,0l0,0h0l0,0l0,0l0,0l0,0
		l0,0l0,0l-0.1,0.1l0,0l0,0l0,0l0,0l0,0l0,0l0,0l0,0l0,0l-0.1,0l-0.1,0l-0.1,0l-0.1,0l0,0l0,0l0,0l0,0l0,0l0,0l-0.1,0l0,0l-0.1,0.1
		l0,0l-0.1,0.1l-0.1,0.1l0,0l0,0l0,0l0,0l0,0l0,0l0,0l-0.1,0l-0.1,0l0,0l0,0l0,0l-0.1,0l-0.1,0l0,0l0,0l0,0l0,0l0,0l0,0l0,0l0,0
		l-0.1,0l0,0l-0.1,0l0,0l0,0l0,0l0,0l0,0l0,0l-0.1,0l-0.1,0l0,0l0,0l-0.1,0l0,0l0,0l0,0l-0.1-0.1l-0.1-0.1l-0.1-0.1l0,0l0,0l0-0.1
		l0,0l0,0l0,0l-0.4-0.1l0,0l0,0l0,0l0,0l0,0l-0.1,0l0,0l0,0l0,0l-0.1,0l-0.1-0.1l0,0l-0.1,0l-0.1,0l0,0l0,0l0,0l0,0l0,0l0,0l0,0l0,0
		l0,0l0,0l0,0l0,0l0,0l0,0l0,0l-0.1-0.1l0,0l0,0l-0.2,0l0,0l-0.1-0.1l0,0l-0.1,0l-0.1,0l-0.1,0l0,0l0,0l0,0l0,0l-0.1,0l0,0l-0.1,0
		l0,0l0,0l0,0l0,0l0,0l0,0l-0.1,0l0,0l0,0l0,0l0,0l0,0l0-0.1l0,0l0-0.1l0-0.1l0,0l0,0l0,0l0-0.1l0,0l0,0l0,0l0,0l0-0.1l0,0l0,0
		l-0.1-0.2l0,0l0-0.2l0-0.1l0-0.1l0,0l0,0l-0.1,0l0,0l0,0l0,0l0,0l-0.1-0.1l0,0l0,0l0,0l0,0l0,0l0,0l0,0l0,0l0,0l0,0l0,0l0,0l0,0
		l0,0l0,0l0,0l0,0l0,0l0,0l0,0l0,0l0,0l0,0l0,0l0,0l0,0l0,0l0,0l0,0l0,0l-0.1,0l0,0l0,0l0,0l0,0l0,0l0,0l0,0l0,0l0,0l0,0l0,0l0,0
		l0-0.1l0,0l0,0l0,0l0,0l0,0l0-0.1l0-0.1l0,0l0,0l0,0l0,0l0,0l0,0l0-0.1l-0.1-0.1l0,0l0,0l0,0l0,0l-0.1,0l0,0l0,0l0,0l0,0l0,0
		l-0.1-0.1l0,0l0,0l-0.1,0l0,0l0,0l0,0l0,0l0,0l0,0l0,0l0,0l0,0l0,0l0-0.1l0,0l0,0l0,0l0,0l0,0l0,0l0,0l0,0l0,0l0,0l0,0l0,0
		l-0.4,0.2l0,0l0,0l0-0.1l0,0l0-0.1l0,0l0,0l0,0l0,0l0,0l0,0l0,0l0,0l0,0l0,0l0,0l0,0l0,0l0,0l0,0l0,0l0,0l0,0l0,0l0-0.1l0,0l0,0
		l0,0l0,0l0,0l0,0l0,0l0,0l0,0l0,0l0,0l0,0l0,0l0,0l0,0l0,0l0,0l0,0l-0.1,0l0,0l0,0l0,0l0,0l0,0l0,0l0,0l0,0l0,0l0,0l0,0l0,0l0.1,0
		l0,0l0,0l0,0l0,0l0,0l0,0l0,0l0,0l0,0l0,0l0,0l0,0l0,0l0-0.1l0,0l0,0l0,0l0,0l0,0l0,0l0,0l0,0l0,0l0,0l0,0l0,0l0,0l0,0l0,0l0,0l0,0
		l0,0l0,0l0,0l0,0l0,0l0,0l0,0l0,0l0,0l0,0l0,0l0,0l-0.1,0l0,0l-0.1,0.1l0,0l0,0l0,0l0,0l0,0l0,0l0,0l0,0l0,0l0,0l0,0l0,0l0,0l0,0.1
		l0,0l0,0l0,0l0,0l0,0l0,0l0,0l0,0l0,0l0,0l-0.1,0l0,0l0,0l-0.1,0l-0.1,0l0,0l0,0l0,0l0,0l0,0l0,0l0,0l0,0l0,0l0,0l-0.1,0v0l0,0l0,0
		l0,0l0,0l0,0l0,0l0,0l0,0l0,0l0,0l0-0.1l0,0l0,0l0,0l0,0l0,0l0,0l0,0l0,0l0,0l0,0l0,0l0,0l0,0l0,0l0,0l0,0l0,0l0,0l0,0l0,0l0,0l0,0
		l0,0l0,0l0,0l0-0.1l0,0l0,0l0,0l0,0l0,0l-0.1,0l0,0l0-0.7l0,0l0,0l-0.4,0l0-0.3l0-0.2l0.2-0.5l0,0l0,0l0,0l0,0l0,0l0,0l0,0l0,0l0,0
		l0,0l0,0l0-0.1l0,0v0l0,0l0,0l0,0l0-0.1l0,0l0,0l0,0l0,0l0,0l0,0l0,0l0,0l0,0l0,0l0,0l0,0l0,0l0,0l0,0l0,0l0,0l0,0l0,0l0,0l0,0l0,0
		l0,0l0,0l0,0l0,0l0,0l0,0l0,0l0,0l0,0l0,0l0,0l0,0l0,0l0,0l0,0l0,0l-0.1,0l0,0l-0.1,0l0,0l0,0l0,0l0,0l0,0l0,0h0l-0.4-0.3l-0.1-0.1
		l-0.1,0l-0.1,0l0,0l-0.1-0.1l0,0l-0.1-0.1l-0.1,0l-0.1,0l-0.1,0l0-0.1v0l0,0l0,0l0,0l0,0l0,0l0,0l0,0l-0.1,0l0,0l0,0l0,0l0,0l0,0
		l0,0l0,0l0,0l0,0l0,0l0,0l0,0l0,0l0,0l0,0l0,0l0,0l0,0l0,0l0-0.1l0,0l0,0l0,0l0,0l0,0l0,0l0-0.1l0,0l0,0l0,0l0,0l0,0l0,0l0,0l0,0
		l0,0l0,0l0,0l0,0l0.1,0l0,0l0,0l0,0l0,0l0,0l0,0l-0.1,0l0,0l0,0l0,0l0,0l0,0l0-0.1l0,0l0,0l-0.1,0l0,0l0,0l0,0l0,0l0,0l0,0l0,0l0,0
		l0,0l-0.1-0.2l0,0l0,0l0,0l0,0l0,0l0,0l0,0l0,0l0,0l0,0h0v0l0,0l0,0l0,0l0,0l0,0l0,0l0,0v0l0,0l0,0l0,0l0,0l0,0l0,0l0-0.1l0,0l0,0
		l0,0l0,0l0,0l0,0l0,0l0,0l0-0.1l0,0l0.1,0l0,0l0,0l0,0l0,0l0,0l0-0.1l0,0l0,0l0,0l0,0l0.1,0l0,0l0,0l0,0l0,0l0,0l0,0l0,0l0,0l0,0
		l0,0l0,0l0,0l0,0l0,0l0,0l0,0l0,0l0,0l0,0l0,0l0,0l0,0l0,0l0,0l0,0l0,0l0,0l0,0l0,0l0,0l0,0l0,0l0,0l0,0l0,0l0,0l0,0l0,0l0,0l0,0v0
		l0,0l0,0l0,0l0,0l0,0l0,0l0,0l0,0l0,0l0,0l0,0l0,0l0,0l0,0l0,0l0,0l0,0l0,0l0,0l0,0l0,0l0,0l0,0l0,0l0,0l0,0l0,0l0,0l0,0l0,0l0,0
		l0,0l0,0l0,0l0,0l0,0l0,0l0,0l0,0l0,0l-0.1-0.1l-0.1-0.1l0,0l0,0l0,0l0,0l0,0l0,0l0,0l0,0l0,0l0,0l0,0l0,0h0l0,0l0,0l0-0.1l0,0l0,0
		l0,0l0,0l0,0l0.1,0l0,0l0.1,0l0,0l0,0l0,0l0,0l0,0l0,0l0,0l0,0l0,0l0,0l0,0l0,0l0,0l0,0l-0.1,0l0,0l0,0l0,0l0,0l0,0l0,0l0,0l0,0
		l0,0l0,0l0,0l0,0l0,0l-0.1,0l0,0l0,0l0,0l0,0l0,0l0,0l0,0l0,0l0,0l0,0l0,0l0,0l0-0.1L151,60l0,0l0,0l0,0l0,0l0,0l0,0l0,0l0,0l0,0
		l0,0l0,0l0,0l0,0l0,0l0,0l0,0l0,0l0,0v0l0,0l0,0l0,0l0,0l0,0l0,0l0,0l0,0l0-0.1l0,0l0,0l0,0l0,0l0,0l0,0l0,0l0-0.1l0,0l0,0l0,0l0,0
		l-0.1,0l0,0l0,0l0,0l0,0l0,0l0,0l0,0l0,0l0,0l0,0l0,0l0,0l0,0l0,0l0,0l0,0l0,0l0,0l0,0l0-0.1l0-0.1l0,0l0,0l0-0.1l0,0l0,0l0,0l0,0
		l0,0l0,0l0,0l0,0l0,0l0,0l0,0l0,0l0,0l0-0.1l0,0l0,0l0,0l0,0l0,0l0,0l0,0l0,0l0,0l0,0l0,0l0,0l0,0l0,0l0,0l0,0l0,0l0,0l0,0l0,0l0,0
		l0,0l0,0l0,0l0,0l0,0l0,0l0,0l0,0l0,0l0,0l0,0l0,0l0,0l0,0l-0.1,0l0,0l0,0l0,0l0,0l0,0l0,0l0,0l0,0l0,0l0,0l0,0l0,0v0l0,0l0,0l0,0
		l0,0l0,0l0,0l0,0l0,0l0,0l0,0l0,0l0,0l0-0.1l0,0l0,0l0,0l0,0l0,0l0,0l0,0l0,0l0,0l0,0l0,0l0,0l0,0l0,0l0,0l0,0l0,0l0,0l0,0l0,0l0,0
		l-0.1,0l0,0l0,0l0,0l0,0l0,0l0,0l0,0l0,0l0,0l0,0l0,0l0,0l0,0l0,0l0,0l0,0l0,0l0,0l0,0l0,0l0,0l0,0l0,0l0,0l0,0l0,0l0,0l0,0l0-0.1
		l0,0l0,0l0,0l0,0l0,0l0,0l0,0l0,0l0,0l0,0l-0.1,0l0,0l0,0l0,0l0,0l0,0l0,0l0,0l0-0.1l0,0l0-0.1l0-0.1l0,0l0,0l0,0l0,0l0,0l0,0l0,0
		l0,0l0,0l0,0l0,0l0,0l0,0l0-0.1l0,0l-0.1,0l0,0l0,0l0,0l0,0l0,0l0,0l0,0l0,0l0,0l0,0l0,0l0,0l0,0v0l0,0l0,0l0,0l0-0.1l0,0l0,0l0,0
		l0,0l-0.1,0l0,0l0,0l0,0l0,0l0,0l0,0l0,0l0,0l0,0l0,0l0,0l0,0l0,0l0,0l0,0l0,0l0,0l0,0l0,0l0,0l0,0l0.1,0l0,0l0.1,0l0,0l0,0l0.1,0
		l0,0l0,0l0,0l0,0l0,0l0,0l0,0l0,0l0,0l0,0l0,0l0,0l0-0.1l0,0l0,0l0,0l0-0.1l0,0l0.1-0.1l0,0l0,0l0,0.1l0,0l0.1,0L150,54.3L150,54.3
		z M161.8,73.8L161.8,73.8L161.8,73.8L161.8,73.8L161.8,73.8L161.8,73.8L161.8,73.8L161.8,73.8L161.8,73.8L161.8,73.8L161.8,73.8
		L161.8,73.8L161.8,73.8L161.8,73.8L161.8,73.8L161.8,73.8L161.8,73.8L161.8,73.8z M161.2,73.5L161.2,73.5L161.2,73.5l-0.1,0l0,0
		l0,0l0,0l0,0l0,0L161.2,73.5L161.2,73.5L161.2,73.5L161.2,73.5L161.2,73.5L161.2,73.5L161.2,73.5L161.2,73.5L161.2,73.5L161.2,73.5
		L161.2,73.5L161.2,73.5L161.2,73.5L161.2,73.5L161.2,73.5L161.2,73.5L161.2,73.5L161.2,73.5z M160.4,73.1L160.4,73.1L160.4,73.1
		l-0.1,0l0,0l0,0l0,0l0,0l0,0l0,0l0,0l0,0l0,0L160.4,73.1L160.4,73.1L160.4,73.1L160.4,73.1L160.4,73.1L160.4,73.1L160.4,73.1
		L160.4,73.1z M164,73.1L164,73.1L164,73.1L164,73.1L164,73.1l0.1,0L164,73.1L164,73.1L164,73.1z M163.9,72.8L163.9,72.8L163.9,72.8
		L163.9,72.8L163.9,72.8L163.9,72.8L163.9,72.8L163.9,72.8l0,0.1l0,0l0,0.1l0,0l-0.1,0.1l0,0l0,0l0,0l0,0l0,0l-0.1,0.1l0,0l0,0l0,0
		l0,0l-0.1,0l0,0l0,0l0,0l-0.1,0l0,0l0,0l-0.1,0l-0.1,0l0,0l0,0l-0.1,0l-0.1,0l0,0l0,0h0l0,0l0,0l0,0h0l0,0l0,0l0,0l0,0l0,0h0l0,0
		l0,0l0,0l0,0l0,0l0,0l0,0l0,0l0,0l0.1,0l0,0l0,0l0,0l0,0l0.1,0l0.2-0.1l0,0l0,0l0,0l0,0l0.1,0l0,0l0.1,0l0,0l0,0l0,0l0,0l0,0l0,0
		l0,0l0,0l0,0l0,0l0-0.1l0,0l0,0l0,0l0,0l0,0l0.2,0.1l0,0l0.1-0.1L163.9,72.8L163.9,72.8z M164.2,72.7L164.2,72.7L164.2,72.7
		L164.2,72.7L164.2,72.7L164.2,72.7L164.2,72.7L164.2,72.7L164.2,72.7L164.2,72.7L164.2,72.7L164.2,72.7L164.2,72.7L164.2,72.7
		L164.2,72.7z M156.7,69.7L156.7,69.7L156.7,69.7L156.7,69.7L156.7,69.7L156.7,69.7L156.7,69.7L156.7,69.7L156.7,69.7L156.7,69.7
		L156.7,69.7L156.7,69.7L156.7,69.7z M161.9,74.3L161.9,74.3L161.9,74.3L161.9,74.3L161.9,74.3L161.9,74.3L161.9,74.3L161.9,74.3
		L161.9,74.3z M163.5,73.3L163.5,73.3L163.5,73.3L163.5,73.3L163.5,73.3L163.5,73.3L163.5,73.3L163.5,73.3L163.5,73.3L163.5,73.3z
		 M160.8,73.3L160.8,73.3L160.8,73.3L160.8,73.3L160.8,73.3L160.8,73.3L160.8,73.3L160.8,73.3L160.8,73.3L160.8,73.3z M162.5,74.4
		L162.5,74.4L162.5,74.4L162.5,74.4L162.5,74.4L162.5,74.4L162.5,74.4L162.5,74.4L162.5,74.4L162.5,74.4L162.5,74.4L162.5,74.4
		L162.5,74.4L162.5,74.4z"/>
</g>
<g>
	<g>
		<path class="st14" d="M155.1,61.7v4.3h-0.9v-4.3H155.1z"/>
		<path class="st14" d="M155.9,61.7h1.6c0.3,0,0.6,0,0.8,0.1s0.4,0.2,0.5,0.4s0.2,0.4,0.2,0.7c0,0.2,0,0.4-0.1,0.6s-0.2,0.3-0.3,0.4
			s-0.3,0.2-0.5,0.3l-0.3,0.1h-1.4l0-0.7h1c0.2,0,0.3,0,0.4-0.1s0.2-0.1,0.2-0.2s0.1-0.2,0.1-0.3c0-0.2-0.1-0.4-0.2-0.5
			s-0.3-0.2-0.5-0.2h-0.7v3.6h-0.9V61.7z M158.3,65.9l-1-1.9l0.9,0l1,1.9v0H158.3z"/>
		<path class="st14" d="M161.5,62.4l-1.2,3.5h-0.9l1.6-4.3h0.6L161.5,62.4z M162.4,64.3V65h-2.3v-0.7H162.4z M162.4,65.9l-1.2-3.5
			l-0.1-0.7h0.6l1.6,4.3H162.4z"/>
		<path class="st14" d="M167.2,61.7v4.3h-0.9l-1.7-2.9v2.9h-0.9v-4.3h0.9l1.7,2.9v-2.9H167.2z"/>
	</g>
</g>
<g>
	<g>
		<path class="st9" d="M90,80.6v4.3h-0.9v-4.3H90z M90.4,84.8h-0.9l0-0.7h0.9c0.2,0,0.4-0.1,0.6-0.2s0.3-0.3,0.4-0.5
			s0.1-0.4,0.1-0.7v-0.2c0-0.3,0-0.5-0.1-0.7s-0.2-0.3-0.4-0.5s-0.3-0.2-0.6-0.2h-1v-0.7h1c0.4,0,0.7,0.1,1,0.3s0.5,0.4,0.7,0.7
			s0.2,0.7,0.2,1.1v0.2c0,0.4-0.1,0.8-0.2,1.1s-0.4,0.5-0.7,0.7S90.8,84.8,90.4,84.8z"/>
		<path class="st9" d="M94.8,82.9l0,0.5h-0.5c-0.2,0-0.4,0-0.5,0.1s-0.2,0.2-0.2,0.4c0,0.1,0,0.2,0.1,0.3s0.2,0.1,0.3,0.1
			s0.2,0,0.3-0.1s0.2-0.1,0.2-0.2s0.1-0.1,0.1-0.2l0.2,0.4c0,0.1-0.1,0.2-0.1,0.2s-0.1,0.2-0.2,0.2s-0.2,0.1-0.3,0.2
			s-0.3,0.1-0.4,0.1c-0.2,0-0.4,0-0.5-0.1s-0.3-0.2-0.4-0.3s-0.1-0.3-0.1-0.5c0-0.3,0.1-0.6,0.4-0.8s0.6-0.3,1.1-0.3H94.8z
			 M94.7,84.1v-1.4c0-0.2,0-0.3-0.1-0.4s-0.2-0.1-0.4-0.1c-0.1,0-0.2,0-0.2,0s-0.1,0.1-0.2,0.1s-0.1,0.1-0.1,0.2h-0.8
			c0-0.2,0.1-0.3,0.2-0.5s0.3-0.3,0.5-0.4s0.4-0.1,0.7-0.1c0.2,0,0.5,0,0.7,0.1s0.3,0.2,0.5,0.4s0.2,0.4,0.2,0.6v1.4
			c0,0.2,0,0.3,0,0.4s0.1,0.2,0.1,0.3v0h-0.9c0-0.1-0.1-0.2-0.1-0.3S94.7,84.3,94.7,84.1z"/>
		<path class="st9" d="M97,82.3v2.5h-0.8v-3.2H97L97,82.3z M96.9,83.1h-0.2c0-0.3,0.1-0.6,0.2-0.8s0.2-0.4,0.4-0.5s0.4-0.2,0.7-0.2
			c0.2,0,0.4,0,0.5,0.1s0.3,0.2,0.4,0.4s0.1,0.4,0.1,0.7v2h-0.8v-2c0-0.1,0-0.2-0.1-0.3s-0.1-0.1-0.2-0.2s-0.2,0-0.3,0
			c-0.1,0-0.2,0-0.3,0.1s-0.2,0.1-0.2,0.2s-0.1,0.2-0.1,0.3S96.9,83,96.9,83.1z"/>
		<path class="st9" d="M100.9,84.2c0.1,0,0.2,0,0.3-0.1s0.1-0.1,0.2-0.2s0.1-0.2,0.1-0.3h0.8c0,0.2-0.1,0.4-0.2,0.6
			s-0.3,0.3-0.5,0.4s-0.4,0.1-0.7,0.1c-0.3,0-0.6-0.1-0.8-0.2s-0.4-0.3-0.5-0.6s-0.2-0.5-0.2-0.8v-0.1c0-0.3,0.1-0.6,0.2-0.8
			s0.3-0.4,0.5-0.6s0.5-0.2,0.8-0.2c0.3,0,0.5,0,0.7,0.1s0.4,0.2,0.5,0.4s0.2,0.4,0.2,0.7h-0.8c0-0.1,0-0.2-0.1-0.3
			s-0.1-0.2-0.2-0.2s-0.2-0.1-0.3-0.1c-0.2,0-0.3,0-0.4,0.1s-0.1,0.2-0.2,0.4s0,0.3,0,0.5v0.1c0,0.2,0,0.3,0,0.5s0.1,0.3,0.2,0.3
			S100.7,84.2,100.9,84.2z"/>
		<path class="st9" d="M104.1,84.9c-0.3,0-0.6-0.1-0.8-0.2s-0.4-0.3-0.5-0.6s-0.2-0.5-0.2-0.8v-0.1c0-0.3,0.1-0.6,0.2-0.8
			s0.3-0.4,0.5-0.6s0.5-0.2,0.8-0.2c0.3,0,0.6,0.1,0.8,0.2s0.4,0.3,0.5,0.5s0.2,0.5,0.2,0.8v0.4h-2.5V83h1.7v-0.1
			c0-0.1,0-0.2-0.1-0.3s-0.1-0.2-0.2-0.2s-0.2-0.1-0.3-0.1c-0.1,0-0.3,0-0.4,0.1s-0.2,0.2-0.2,0.3s-0.1,0.3-0.1,0.5v0.1
			c0,0.2,0,0.3,0.1,0.5s0.2,0.2,0.3,0.3s0.3,0.1,0.4,0.1c0.2,0,0.3,0,0.4-0.1s0.2-0.1,0.3-0.3l0.4,0.4c-0.1,0.1-0.3,0.3-0.5,0.4
			S104.4,84.9,104.1,84.9z"/>
		<path class="st9" d="M109.2,82.9l0,0.5h-0.5c-0.2,0-0.4,0-0.5,0.1s-0.2,0.2-0.2,0.4c0,0.1,0,0.2,0.1,0.3s0.2,0.1,0.3,0.1
			s0.2,0,0.3-0.1s0.2-0.1,0.2-0.2s0.1-0.1,0.1-0.2l0.2,0.4c0,0.1-0.1,0.2-0.1,0.2s-0.1,0.2-0.2,0.2s-0.2,0.1-0.3,0.2
			s-0.3,0.1-0.4,0.1c-0.2,0-0.4,0-0.5-0.1s-0.3-0.2-0.4-0.3s-0.1-0.3-0.1-0.5c0-0.3,0.1-0.6,0.4-0.8s0.6-0.3,1.1-0.3H109.2z
			 M109.1,84.1v-1.4c0-0.2,0-0.3-0.1-0.4s-0.2-0.1-0.4-0.1c-0.1,0-0.2,0-0.2,0s-0.1,0.1-0.2,0.1s-0.1,0.1-0.1,0.2h-0.8
			c0-0.2,0.1-0.3,0.2-0.5s0.3-0.3,0.5-0.4s0.4-0.1,0.7-0.1c0.2,0,0.5,0,0.7,0.1s0.3,0.2,0.5,0.4s0.2,0.4,0.2,0.6v1.4
			c0,0.2,0,0.3,0,0.4s0.1,0.2,0.1,0.3v0h-0.9c0-0.1-0.1-0.2-0.1-0.3S109.1,84.3,109.1,84.1z"/>
		<path class="st9" d="M111.5,82.3v2.5h-0.8v-3.2h0.8L111.5,82.3z M111.3,83.1h-0.2c0-0.3,0.1-0.6,0.2-0.8s0.2-0.4,0.4-0.5
			s0.4-0.2,0.7-0.2c0.2,0,0.4,0,0.5,0.1s0.3,0.2,0.4,0.4s0.1,0.4,0.1,0.7v2h-0.8v-2c0-0.1,0-0.2-0.1-0.3s-0.1-0.1-0.2-0.2
			s-0.2,0-0.3,0c-0.1,0-0.2,0-0.3,0.1s-0.2,0.1-0.2,0.2s-0.1,0.2-0.1,0.3S111.3,83,111.3,83.1z"/>
		<path class="st9" d="M113.9,83.3L113.9,83.3c0-0.4,0-0.7,0.1-0.9s0.2-0.4,0.4-0.6s0.4-0.2,0.7-0.2c0.2,0,0.5,0.1,0.6,0.2
			s0.3,0.3,0.4,0.6s0.2,0.5,0.2,0.8v0.1c0,0.3-0.1,0.6-0.2,0.8s-0.2,0.4-0.4,0.6s-0.4,0.2-0.6,0.2c-0.3,0-0.5-0.1-0.7-0.2
			s-0.3-0.3-0.4-0.6S113.9,83.6,113.9,83.3z M114.7,83.2L114.7,83.2c0,0.2,0,0.4,0.1,0.5s0.1,0.3,0.2,0.3s0.2,0.1,0.4,0.1
			c0.1,0,0.3,0,0.4-0.1s0.2-0.2,0.2-0.3s0.1-0.2,0.1-0.4v-0.4c0-0.1,0-0.2-0.1-0.3s-0.1-0.2-0.1-0.3s-0.1-0.1-0.2-0.2
			s-0.2-0.1-0.3-0.1c-0.1,0-0.3,0-0.4,0.1s-0.2,0.2-0.2,0.3S114.7,83.1,114.7,83.2z M115.9,84.2v-3.8h0.8v4.5H116L115.9,84.2z"/>
		<path class="st9" d="M120.2,84.2c0.1,0,0.2,0,0.3-0.1s0.1-0.1,0.2-0.2s0.1-0.2,0.1-0.3h0.8c0,0.2-0.1,0.4-0.2,0.6
			s-0.3,0.3-0.5,0.4s-0.4,0.1-0.7,0.1c-0.3,0-0.6-0.1-0.8-0.2s-0.4-0.3-0.5-0.6s-0.2-0.5-0.2-0.8v-0.1c0-0.3,0.1-0.6,0.2-0.8
			s0.3-0.4,0.5-0.6s0.5-0.2,0.8-0.2c0.3,0,0.5,0,0.7,0.1s0.4,0.2,0.5,0.4s0.2,0.4,0.2,0.7h-0.8c0-0.1,0-0.2-0.1-0.3
			s-0.1-0.2-0.2-0.2s-0.2-0.1-0.3-0.1c-0.2,0-0.3,0-0.4,0.1s-0.1,0.2-0.2,0.4s0,0.3,0,0.5v0.1c0,0.2,0,0.3,0,0.5s0.1,0.3,0.2,0.3
			S120,84.2,120.2,84.2z"/>
		<path class="st9" d="M124,83.4l0.2,0c0,0.3,0,0.5-0.1,0.8s-0.2,0.4-0.4,0.5s-0.4,0.2-0.7,0.2c-0.3,0-0.6-0.1-0.8-0.3
			s-0.3-0.5-0.3-0.9v-2h0.8v2.1c0,0.1,0,0.2,0.1,0.3s0.1,0.1,0.2,0.2s0.1,0,0.2,0c0.2,0,0.3,0,0.4-0.1s0.2-0.2,0.2-0.3
			S124,83.6,124,83.4z M123.9,84.1v-2.4h0.8v3.2h-0.8L123.9,84.1z"/>
		<path class="st9" d="M126.3,80.3v4.5h-0.8v-4.5H126.3z"/>
		<path class="st9" d="M128.5,81.7v0.6h-1.8v-0.6H128.5z M127.1,80.9h0.8v3c0,0.1,0,0.2,0,0.2s0.1,0.1,0.1,0.1s0.1,0,0.2,0
			c0.1,0,0.1,0,0.1,0s0.1,0,0.1,0l0,0.6c-0.1,0-0.2,0-0.2,0.1s-0.2,0-0.3,0c-0.2,0-0.3,0-0.5-0.1s-0.2-0.2-0.3-0.3s-0.1-0.3-0.1-0.5
			V80.9z"/>
		<path class="st9" d="M131,83.4l0.2,0c0,0.3,0,0.5-0.1,0.8s-0.2,0.4-0.4,0.5s-0.4,0.2-0.7,0.2c-0.3,0-0.6-0.1-0.8-0.3
			s-0.3-0.5-0.3-0.9v-2h0.8v2.1c0,0.1,0,0.2,0.1,0.3s0.1,0.1,0.2,0.2s0.1,0,0.2,0c0.2,0,0.3,0,0.4-0.1s0.2-0.2,0.2-0.3
			S131,83.6,131,83.4z M130.9,84.1v-2.4h0.8v3.2h-0.8L130.9,84.1z"/>
		<path class="st9" d="M133.2,82.4v2.5h-0.8v-3.2h0.8L133.2,82.4z M134.2,81.7l0,0.8c0,0-0.1,0-0.1,0s-0.1,0-0.2,0
			c-0.2,0-0.3,0-0.4,0.1s-0.2,0.1-0.2,0.2s-0.1,0.2-0.1,0.4L133,83c0-0.3,0-0.5,0.1-0.7s0.2-0.4,0.3-0.5s0.3-0.2,0.5-0.2
			c0,0,0.1,0,0.1,0S134.1,81.6,134.2,81.7z"/>
		<path class="st9" d="M136.4,82.9l0,0.5h-0.5c-0.2,0-0.4,0-0.5,0.1s-0.2,0.2-0.2,0.4c0,0.1,0,0.2,0.1,0.3s0.2,0.1,0.3,0.1
			s0.2,0,0.3-0.1s0.2-0.1,0.2-0.2s0.1-0.1,0.1-0.2l0.2,0.4c0,0.1-0.1,0.2-0.1,0.2s-0.1,0.2-0.2,0.2s-0.2,0.1-0.3,0.2
			s-0.3,0.1-0.4,0.1c-0.2,0-0.4,0-0.5-0.1s-0.3-0.2-0.4-0.3s-0.1-0.3-0.1-0.5c0-0.3,0.1-0.6,0.4-0.8s0.6-0.3,1.1-0.3H136.4z
			 M136.3,84.1v-1.4c0-0.2,0-0.3-0.1-0.4s-0.2-0.1-0.4-0.1c-0.1,0-0.2,0-0.2,0s-0.1,0.1-0.2,0.1s-0.1,0.1-0.1,0.2h-0.8
			c0-0.2,0.1-0.3,0.2-0.5s0.3-0.3,0.5-0.4s0.4-0.1,0.7-0.1c0.2,0,0.5,0,0.7,0.1s0.3,0.2,0.5,0.4s0.2,0.4,0.2,0.6v1.4
			c0,0.2,0,0.3,0,0.4s0.1,0.2,0.1,0.3v0h-0.9c0-0.1-0.1-0.2-0.1-0.3S136.3,84.3,136.3,84.1z"/>
		<path class="st9" d="M138.7,80.3v4.5h-0.8v-4.5H138.7z"/>
		<path class="st9" d="M142.3,84.9c-0.3,0-0.6-0.1-0.8-0.2s-0.4-0.3-0.5-0.6s-0.2-0.5-0.2-0.8v-0.1c0-0.3,0.1-0.6,0.2-0.8
			s0.3-0.4,0.5-0.6s0.5-0.2,0.8-0.2c0.3,0,0.6,0.1,0.8,0.2s0.4,0.3,0.5,0.5s0.2,0.5,0.2,0.8v0.4h-2.5V83h1.7v-0.1
			c0-0.1,0-0.2-0.1-0.3s-0.1-0.2-0.2-0.2s-0.2-0.1-0.3-0.1c-0.1,0-0.3,0-0.4,0.1s-0.2,0.2-0.2,0.3s-0.1,0.3-0.1,0.5v0.1
			c0,0.2,0,0.3,0.1,0.5s0.2,0.2,0.3,0.3s0.3,0.1,0.4,0.1c0.2,0,0.3,0,0.4-0.1s0.2-0.1,0.3-0.3l0.4,0.4c-0.1,0.1-0.3,0.3-0.5,0.4
			S142.6,84.9,142.3,84.9z"/>
		<path class="st9" d="M144.7,81.7l0.7,2.6l0,0.6h-0.5l-1.1-3.2H144.7z M145.2,84.2l0.7-2.6h0.9l-1.1,3.2h-0.5L145.2,84.2z"/>
		<path class="st9" d="M148.6,84.9c-0.3,0-0.6-0.1-0.8-0.2s-0.4-0.3-0.5-0.6s-0.2-0.5-0.2-0.8v-0.1c0-0.3,0.1-0.6,0.2-0.8
			s0.3-0.4,0.5-0.6s0.5-0.2,0.8-0.2c0.3,0,0.6,0.1,0.8,0.2s0.4,0.3,0.5,0.5s0.2,0.5,0.2,0.8v0.4h-2.5V83h1.7v-0.1
			c0-0.1,0-0.2-0.1-0.3s-0.1-0.2-0.2-0.2s-0.2-0.1-0.3-0.1c-0.1,0-0.3,0-0.4,0.1s-0.2,0.2-0.2,0.3s-0.1,0.3-0.1,0.5v0.1
			c0,0.2,0,0.3,0.1,0.5s0.2,0.2,0.3,0.3s0.3,0.1,0.4,0.1c0.2,0,0.3,0,0.4-0.1s0.2-0.1,0.3-0.3l0.4,0.4c-0.1,0.1-0.3,0.3-0.5,0.4
			S148.9,84.9,148.6,84.9z"/>
		<path class="st9" d="M151.2,82.3v2.5h-0.8v-3.2h0.8L151.2,82.3z M151.1,83.1h-0.2c0-0.3,0.1-0.6,0.2-0.8s0.2-0.4,0.4-0.5
			s0.4-0.2,0.7-0.2c0.2,0,0.4,0,0.5,0.1s0.3,0.2,0.4,0.4s0.1,0.4,0.1,0.7v2h-0.8v-2c0-0.1,0-0.2-0.1-0.3s-0.1-0.1-0.2-0.2
			s-0.2,0-0.3,0c-0.1,0-0.2,0-0.3,0.1s-0.2,0.1-0.2,0.2s-0.1,0.2-0.1,0.3S151.1,83,151.1,83.1z"/>
		<path class="st9" d="M155.3,81.7v0.6h-1.8v-0.6H155.3z M153.9,80.9h0.8v3c0,0.1,0,0.2,0,0.2s0.1,0.1,0.1,0.1s0.1,0,0.2,0
			c0.1,0,0.1,0,0.1,0s0.1,0,0.1,0l0,0.6c-0.1,0-0.2,0-0.2,0.1s-0.2,0-0.3,0c-0.2,0-0.3,0-0.5-0.1s-0.2-0.2-0.3-0.3s-0.1-0.3-0.1-0.5
			V80.9z"/>
		<path class="st9" d="M157.5,84c0-0.1,0-0.1-0.1-0.2s-0.1-0.1-0.2-0.1s-0.2-0.1-0.4-0.1c-0.2,0-0.4-0.1-0.6-0.2s-0.3-0.2-0.4-0.3
			s-0.1-0.3-0.1-0.5c0-0.2,0.1-0.3,0.2-0.5s0.2-0.3,0.4-0.4s0.4-0.1,0.7-0.1c0.3,0,0.5,0,0.7,0.1s0.4,0.2,0.5,0.4s0.2,0.3,0.2,0.5
			h-0.8c0-0.1,0-0.2-0.1-0.3s-0.2-0.1-0.4-0.1c-0.1,0-0.2,0-0.2,0s-0.1,0.1-0.2,0.1s-0.1,0.1-0.1,0.2s0,0.1,0.1,0.2s0.1,0.1,0.2,0.1
			s0.2,0.1,0.4,0.1c0.2,0,0.4,0.1,0.6,0.2s0.3,0.2,0.4,0.3s0.2,0.3,0.2,0.5c0,0.2-0.1,0.4-0.2,0.5s-0.3,0.3-0.5,0.3
			s-0.4,0.1-0.7,0.1c-0.3,0-0.5-0.1-0.7-0.2s-0.4-0.2-0.5-0.4s-0.2-0.3-0.2-0.5h0.8c0,0.1,0,0.2,0.1,0.3s0.1,0.1,0.2,0.2
			s0.2,0,0.3,0c0.1,0,0.2,0,0.3,0s0.1-0.1,0.2-0.1S157.5,84,157.5,84z"/>
	</g>
</g>
<g>
	<g>
		<path class="st9" d="M91.6,93.1h0.9c0,0.3-0.1,0.5-0.2,0.8s-0.3,0.4-0.6,0.5s-0.5,0.2-0.9,0.2c-0.4,0-0.7-0.1-0.9-0.2
			s-0.5-0.4-0.6-0.7S89,93,89,92.5v-0.3c0-0.4,0.1-0.8,0.2-1.1s0.4-0.5,0.6-0.7s0.6-0.3,0.9-0.3s0.7,0.1,0.9,0.2s0.4,0.3,0.6,0.5
			s0.2,0.5,0.2,0.8h-0.9c0-0.3-0.1-0.5-0.2-0.6s-0.3-0.2-0.6-0.2c-0.2,0-0.4,0-0.5,0.1S90,91.3,90,91.5s-0.1,0.5-0.1,0.8v0.3
			c0,0.3,0,0.5,0.1,0.7s0.2,0.4,0.3,0.5s0.3,0.2,0.5,0.2c0.2,0,0.3,0,0.5-0.1s0.2-0.1,0.3-0.3S91.6,93.3,91.6,93.1z"/>
		<path class="st9" d="M92.9,93L92.9,93c0-0.4,0.1-0.6,0.2-0.9s0.3-0.4,0.5-0.6s0.5-0.2,0.8-0.2c0.3,0,0.6,0.1,0.8,0.2
			s0.4,0.3,0.5,0.6s0.2,0.5,0.2,0.8V93c0,0.3-0.1,0.6-0.2,0.8s-0.3,0.4-0.5,0.6s-0.5,0.2-0.8,0.2c-0.3,0-0.6-0.1-0.8-0.2
			s-0.4-0.3-0.5-0.6S92.9,93.3,92.9,93z M93.7,92.9L93.7,92.9c0,0.2,0,0.4,0.1,0.5s0.1,0.3,0.2,0.3s0.2,0.1,0.4,0.1
			c0.2,0,0.3,0,0.4-0.1s0.2-0.2,0.2-0.3S95,93.2,95,93v-0.1c0-0.2,0-0.3-0.1-0.5s-0.1-0.3-0.2-0.3S94.5,92,94.4,92
			c-0.2,0-0.3,0-0.4,0.1s-0.2,0.2-0.2,0.3S93.7,92.7,93.7,92.9z"/>
		<path class="st9" d="M98.2,92.6l0,0.5h-0.5c-0.2,0-0.4,0-0.5,0.1s-0.2,0.2-0.2,0.4c0,0.1,0,0.2,0.1,0.3s0.2,0.1,0.3,0.1
			s0.2,0,0.3-0.1s0.2-0.1,0.2-0.2s0.1-0.1,0.1-0.2l0.2,0.4c0,0.1-0.1,0.2-0.1,0.2s-0.1,0.2-0.2,0.2s-0.2,0.1-0.3,0.2
			s-0.3,0.1-0.4,0.1c-0.2,0-0.4,0-0.5-0.1s-0.3-0.2-0.4-0.3s-0.1-0.3-0.1-0.5c0-0.3,0.1-0.6,0.4-0.8s0.6-0.3,1.1-0.3H98.2z
			 M98.1,93.8v-1.4c0-0.2,0-0.3-0.1-0.4s-0.2-0.1-0.4-0.1c-0.1,0-0.2,0-0.2,0s-0.1,0.1-0.2,0.1s-0.1,0.1-0.1,0.2h-0.8
			c0-0.2,0.1-0.3,0.2-0.5s0.3-0.3,0.5-0.4s0.4-0.1,0.7-0.1c0.2,0,0.5,0,0.7,0.1s0.3,0.2,0.5,0.4s0.2,0.4,0.2,0.6v1.4
			c0,0.2,0,0.3,0,0.4s0.1,0.2,0.1,0.3v0h-0.9c0-0.1-0.1-0.2-0.1-0.3S98.1,93.9,98.1,93.8z"/>
		<path class="st9" d="M100.9,93.9c0.1,0,0.2,0,0.3-0.1s0.1-0.1,0.2-0.2s0.1-0.2,0.1-0.3h0.8c0,0.2-0.1,0.4-0.2,0.6
			s-0.3,0.3-0.5,0.4s-0.4,0.1-0.7,0.1c-0.3,0-0.6-0.1-0.8-0.2s-0.4-0.3-0.5-0.6s-0.2-0.5-0.2-0.8v-0.1c0-0.3,0.1-0.6,0.2-0.8
			s0.3-0.4,0.5-0.6s0.5-0.2,0.8-0.2c0.3,0,0.5,0,0.7,0.1s0.4,0.2,0.5,0.4s0.2,0.4,0.2,0.7h-0.8c0-0.1,0-0.2-0.1-0.3
			s-0.1-0.2-0.2-0.2S101,92,100.9,92c-0.2,0-0.3,0-0.4,0.1s-0.1,0.2-0.2,0.4s0,0.3,0,0.5V93c0,0.2,0,0.3,0,0.5s0.1,0.3,0.2,0.3
			S100.7,93.9,100.9,93.9z"/>
		<path class="st9" d="M103.5,90v4.5h-0.8V90H103.5z M103.4,92.8h-0.2c0-0.3,0.1-0.6,0.2-0.8s0.2-0.4,0.4-0.5s0.4-0.2,0.6-0.2
			c0.2,0,0.4,0,0.5,0.1s0.3,0.2,0.4,0.4s0.1,0.4,0.1,0.7v2h-0.8v-2c0-0.1,0-0.3-0.1-0.3s-0.1-0.1-0.2-0.2s-0.2-0.1-0.3-0.1
			c-0.1,0-0.2,0-0.3,0.1s-0.2,0.1-0.2,0.2s-0.1,0.2-0.1,0.3S103.4,92.7,103.4,92.8z"/>
		<path class="st9" d="M106.1,90.5c0-0.1,0-0.2,0.1-0.3s0.2-0.1,0.3-0.1c0.1,0,0.3,0,0.3,0.1s0.1,0.2,0.1,0.3s0,0.2-0.1,0.3
			s-0.2,0.1-0.3,0.1c-0.1,0-0.3,0-0.3-0.1S106.1,90.7,106.1,90.5z M107,91.4v3.2h-0.8v-3.2H107z"/>
		<path class="st9" d="M108.5,92v2.5h-0.8v-3.2h0.8L108.5,92z M108.4,92.8h-0.2c0-0.3,0.1-0.6,0.2-0.8s0.2-0.4,0.4-0.5
			s0.4-0.2,0.7-0.2c0.2,0,0.4,0,0.5,0.1s0.3,0.2,0.4,0.4s0.1,0.4,0.1,0.7v2h-0.8v-2c0-0.1,0-0.2-0.1-0.3s-0.1-0.1-0.2-0.2
			s-0.2,0-0.3,0c-0.1,0-0.2,0-0.3,0.1s-0.2,0.1-0.2,0.2s-0.1,0.2-0.1,0.3S108.4,92.7,108.4,92.8z"/>
		<path class="st9" d="M110.9,93L110.9,93c0-0.4,0.1-0.7,0.2-0.9s0.3-0.4,0.4-0.6s0.4-0.2,0.7-0.2c0.2,0,0.4,0,0.5,0.1
			s0.3,0.2,0.4,0.3s0.2,0.3,0.2,0.5s0.1,0.4,0.1,0.6V93c0,0.3-0.1,0.6-0.2,0.8s-0.2,0.4-0.4,0.6s-0.4,0.2-0.6,0.2
			c-0.3,0-0.5-0.1-0.7-0.2s-0.3-0.3-0.4-0.6S110.9,93.3,110.9,93z M113,91.4h0.8v3.1c0,0.3-0.1,0.5-0.2,0.7s-0.3,0.4-0.5,0.5
			s-0.5,0.2-0.8,0.2c-0.1,0-0.3,0-0.4-0.1s-0.3-0.1-0.4-0.2s-0.2-0.2-0.3-0.3l0.4-0.5c0.1,0.1,0.2,0.2,0.3,0.3s0.3,0.1,0.4,0.1
			c0.2,0,0.4-0.1,0.5-0.2s0.2-0.3,0.2-0.5v-2.3L113,91.4z M111.8,92.9L111.8,92.9c0,0.2,0,0.4,0.1,0.5s0.1,0.3,0.2,0.3
			s0.2,0.1,0.4,0.1c0.2,0,0.3,0,0.4-0.1s0.2-0.2,0.2-0.3s0.1-0.2,0.1-0.4v-0.4c0-0.1,0-0.2,0-0.3s-0.1-0.2-0.1-0.3s-0.1-0.1-0.2-0.2
			s-0.2-0.1-0.3-0.1c-0.1,0-0.3,0-0.4,0.1s-0.2,0.2-0.2,0.3S111.8,92.7,111.8,92.9z"/>
		<path class="st9" d="M117.8,92.6l0,0.5h-0.5c-0.2,0-0.4,0-0.5,0.1s-0.2,0.2-0.2,0.4c0,0.1,0,0.2,0.1,0.3s0.2,0.1,0.3,0.1
			s0.2,0,0.3-0.1s0.2-0.1,0.2-0.2s0.1-0.1,0.1-0.2l0.2,0.4c0,0.1-0.1,0.2-0.1,0.2s-0.1,0.2-0.2,0.2s-0.2,0.1-0.3,0.2
			s-0.3,0.1-0.4,0.1c-0.2,0-0.4,0-0.5-0.1s-0.3-0.2-0.4-0.3s-0.1-0.3-0.1-0.5c0-0.3,0.1-0.6,0.4-0.8s0.6-0.3,1.1-0.3H117.8z
			 M117.7,93.8v-1.4c0-0.2,0-0.3-0.1-0.4s-0.2-0.1-0.4-0.1c-0.1,0-0.2,0-0.2,0s-0.1,0.1-0.2,0.1s-0.1,0.1-0.1,0.2h-0.8
			c0-0.2,0.1-0.3,0.2-0.5s0.3-0.3,0.5-0.4s0.4-0.1,0.7-0.1c0.2,0,0.5,0,0.7,0.1s0.3,0.2,0.5,0.4s0.2,0.4,0.2,0.6v1.4
			c0,0.2,0,0.3,0,0.4s0.1,0.2,0.1,0.3v0h-0.9c0-0.1-0.1-0.2-0.1-0.3S117.7,93.9,117.7,93.8z"/>
		<path class="st9" d="M120,92v2.5h-0.8v-3.2h0.8L120,92z M119.9,92.8h-0.2c0-0.3,0.1-0.6,0.2-0.8s0.2-0.4,0.4-0.5s0.4-0.2,0.7-0.2
			c0.2,0,0.4,0,0.5,0.1s0.3,0.2,0.4,0.4s0.1,0.4,0.1,0.7v2h-0.8v-2c0-0.1,0-0.2-0.1-0.3s-0.1-0.1-0.2-0.2s-0.2,0-0.3,0
			c-0.1,0-0.2,0-0.3,0.1s-0.2,0.1-0.2,0.2s-0.1,0.2-0.1,0.3S119.9,92.7,119.9,92.8z"/>
		<path class="st9" d="M122.4,93L122.4,93c0-0.4,0-0.7,0.1-0.9s0.2-0.4,0.4-0.6s0.4-0.2,0.7-0.2c0.2,0,0.5,0.1,0.6,0.2
			s0.3,0.3,0.4,0.6s0.2,0.5,0.2,0.8V93c0,0.3-0.1,0.6-0.2,0.8s-0.2,0.4-0.4,0.6s-0.4,0.2-0.6,0.2c-0.3,0-0.5-0.1-0.7-0.2
			s-0.3-0.3-0.4-0.6S122.4,93.3,122.4,93z M123.3,92.9L123.3,92.9c0,0.2,0,0.4,0.1,0.5s0.1,0.3,0.2,0.3s0.2,0.1,0.4,0.1
			c0.1,0,0.3,0,0.4-0.1s0.2-0.2,0.2-0.3s0.1-0.2,0.1-0.4v-0.4c0-0.1,0-0.2-0.1-0.3s-0.1-0.2-0.1-0.3s-0.1-0.1-0.2-0.2
			S124,92,123.9,92c-0.1,0-0.3,0-0.4,0.1s-0.2,0.2-0.2,0.3S123.3,92.7,123.3,92.9z M124.4,93.8V90h0.8v4.5h-0.8L124.4,93.8z"/>
		<path class="st9" d="M128.7,93.9c0.1,0,0.2,0,0.3-0.1s0.1-0.1,0.2-0.2s0.1-0.2,0.1-0.3h0.8c0,0.2-0.1,0.4-0.2,0.6
			s-0.3,0.3-0.5,0.4s-0.4,0.1-0.7,0.1c-0.3,0-0.6-0.1-0.8-0.2s-0.4-0.3-0.5-0.6s-0.2-0.5-0.2-0.8v-0.1c0-0.3,0.1-0.6,0.2-0.8
			s0.3-0.4,0.5-0.6s0.5-0.2,0.8-0.2c0.3,0,0.5,0,0.7,0.1s0.4,0.2,0.5,0.4s0.2,0.4,0.2,0.7h-0.8c0-0.1,0-0.2-0.1-0.3
			s-0.1-0.2-0.2-0.2s-0.2-0.1-0.3-0.1c-0.2,0-0.3,0-0.4,0.1s-0.1,0.2-0.2,0.4s0,0.3,0,0.5V93c0,0.2,0,0.3,0,0.5s0.1,0.3,0.2,0.3
			S128.6,93.9,128.7,93.9z"/>
		<path class="st9" d="M132.4,92.6l0,0.5h-0.5c-0.2,0-0.4,0-0.5,0.1s-0.2,0.2-0.2,0.4c0,0.1,0,0.2,0.1,0.3s0.2,0.1,0.3,0.1
			s0.2,0,0.3-0.1s0.2-0.1,0.2-0.2s0.1-0.1,0.1-0.2l0.2,0.4c0,0.1-0.1,0.2-0.1,0.2s-0.1,0.2-0.2,0.2s-0.2,0.1-0.3,0.2
			s-0.3,0.1-0.4,0.1c-0.2,0-0.4,0-0.5-0.1s-0.3-0.2-0.4-0.3s-0.1-0.3-0.1-0.5c0-0.3,0.1-0.6,0.4-0.8s0.6-0.3,1.1-0.3H132.4z
			 M132.3,93.8v-1.4c0-0.2,0-0.3-0.1-0.4s-0.2-0.1-0.4-0.1c-0.1,0-0.2,0-0.2,0s-0.1,0.1-0.2,0.1s-0.1,0.1-0.1,0.2h-0.8
			c0-0.2,0.1-0.3,0.2-0.5s0.3-0.3,0.5-0.4s0.4-0.1,0.7-0.1c0.2,0,0.5,0,0.7,0.1s0.3,0.2,0.5,0.4s0.2,0.4,0.2,0.6v1.4
			c0,0.2,0,0.3,0,0.4s0.1,0.2,0.1,0.3v0h-0.9c0-0.1-0.1-0.2-0.1-0.3S132.3,93.9,132.3,93.8z"/>
		<path class="st9" d="M134.6,92.1v2.5h-0.8v-3.2h0.8L134.6,92.1z M135.6,91.3l0,0.8c0,0-0.1,0-0.1,0s-0.1,0-0.2,0
			c-0.2,0-0.3,0-0.4,0.1s-0.2,0.1-0.2,0.2s-0.1,0.2-0.1,0.4l-0.2-0.1c0-0.3,0-0.5,0.1-0.7s0.2-0.4,0.3-0.5s0.3-0.2,0.5-0.2
			c0,0,0.1,0,0.1,0S135.5,91.3,135.6,91.3z"/>
		<path class="st9" d="M137.4,94.6c-0.3,0-0.6-0.1-0.8-0.2s-0.4-0.3-0.5-0.6s-0.2-0.5-0.2-0.8v-0.1c0-0.3,0.1-0.6,0.2-0.8
			s0.3-0.4,0.5-0.6s0.5-0.2,0.8-0.2c0.3,0,0.6,0.1,0.8,0.2s0.4,0.3,0.5,0.5s0.2,0.5,0.2,0.8v0.4h-2.5v-0.6h1.7v-0.1
			c0-0.1,0-0.2-0.1-0.3s-0.1-0.2-0.2-0.2s-0.2-0.1-0.3-0.1c-0.1,0-0.3,0-0.4,0.1s-0.2,0.2-0.2,0.3s-0.1,0.3-0.1,0.5v0.1
			c0,0.2,0,0.3,0.1,0.5s0.2,0.2,0.3,0.3s0.3,0.1,0.4,0.1c0.2,0,0.3,0,0.4-0.1s0.2-0.1,0.3-0.3l0.4,0.4c-0.1,0.1-0.3,0.3-0.5,0.4
			S137.7,94.6,137.4,94.6z"/>
		<path class="st9" d="M140.7,94.6c-0.3,0-0.6-0.1-0.8-0.2s-0.4-0.3-0.5-0.6s-0.2-0.5-0.2-0.8v-0.1c0-0.3,0.1-0.6,0.2-0.8
			s0.3-0.4,0.5-0.6s0.5-0.2,0.8-0.2c0.3,0,0.6,0.1,0.8,0.2s0.4,0.3,0.5,0.5s0.2,0.5,0.2,0.8v0.4h-2.5v-0.6h1.7v-0.1
			c0-0.1,0-0.2-0.1-0.3s-0.1-0.2-0.2-0.2s-0.2-0.1-0.3-0.1c-0.1,0-0.3,0-0.4,0.1s-0.2,0.2-0.2,0.3s-0.1,0.3-0.1,0.5v0.1
			c0,0.2,0,0.3,0.1,0.5s0.2,0.2,0.3,0.3s0.3,0.1,0.4,0.1c0.2,0,0.3,0,0.4-0.1s0.2-0.1,0.3-0.3l0.4,0.4c-0.1,0.1-0.3,0.3-0.5,0.4
			S141,94.6,140.7,94.6z"/>
		<path class="st9" d="M143.3,92.1v2.5h-0.8v-3.2h0.8L143.3,92.1z M144.3,91.3l0,0.8c0,0-0.1,0-0.1,0s-0.1,0-0.2,0
			c-0.2,0-0.3,0-0.4,0.1s-0.2,0.1-0.2,0.2s-0.1,0.2-0.1,0.4l-0.2-0.1c0-0.3,0-0.5,0.1-0.7s0.2-0.4,0.3-0.5s0.3-0.2,0.5-0.2
			c0,0,0.1,0,0.1,0S144.2,91.3,144.3,91.3z"/>
	</g>
</g>
<g>
	<g>
		<path class="st9" d="M203.2,134.3h-1.1v-0.7h1.1c0.2,0,0.3,0,0.4-0.1s0.2-0.1,0.2-0.2s0.1-0.2,0.1-0.3c0-0.1,0-0.2-0.1-0.4
			s-0.1-0.2-0.2-0.3s-0.2-0.1-0.4-0.1h-0.8v3.6h-0.9v-4.3h1.7c0.3,0,0.6,0.1,0.9,0.2s0.4,0.3,0.5,0.5s0.2,0.5,0.2,0.7
			c0,0.3-0.1,0.5-0.2,0.7s-0.3,0.4-0.5,0.5S203.6,134.3,203.2,134.3z"/>
		<path class="st9" d="M206.8,135.8c-0.3,0-0.6-0.1-0.8-0.2s-0.4-0.3-0.5-0.6s-0.2-0.5-0.2-0.8v-0.1c0-0.3,0.1-0.6,0.2-0.8
			s0.3-0.4,0.5-0.6s0.5-0.2,0.8-0.2c0.3,0,0.6,0.1,0.8,0.2s0.4,0.3,0.5,0.5s0.2,0.5,0.2,0.8v0.4h-2.5v-0.6h1.7v-0.1
			c0-0.1,0-0.2-0.1-0.3s-0.1-0.2-0.2-0.2s-0.2-0.1-0.3-0.1c-0.1,0-0.3,0-0.4,0.1s-0.2,0.2-0.2,0.3s-0.1,0.3-0.1,0.5v0.1
			c0,0.2,0,0.3,0.1,0.5s0.2,0.2,0.3,0.3s0.3,0.1,0.4,0.1c0.2,0,0.3,0,0.4-0.1s0.2-0.2,0.3-0.3l0.4,0.4c-0.1,0.1-0.3,0.3-0.5,0.4
			S207.2,135.8,206.8,135.8z"/>
		<path class="st9" d="M209.5,133.3v2.5h-0.8v-3.2h0.8L209.5,133.3z M210.4,132.6l0,0.8c0,0-0.1,0-0.1,0s-0.1,0-0.2,0
			c-0.2,0-0.3,0-0.4,0.1s-0.2,0.1-0.2,0.2s-0.1,0.2-0.1,0.4l-0.2-0.1c0-0.3,0-0.5,0.1-0.7s0.2-0.4,0.3-0.5s0.3-0.2,0.5-0.2
			c0,0,0.1,0,0.1,0S210.4,132.6,210.4,132.6z"/>
		<path class="st9" d="M212.5,134.9c0-0.1,0-0.1-0.1-0.2s-0.1-0.1-0.2-0.1s-0.2-0.1-0.4-0.1c-0.2,0-0.4-0.1-0.6-0.2
			s-0.3-0.2-0.4-0.3s-0.1-0.3-0.1-0.5c0-0.2,0.1-0.3,0.2-0.5s0.2-0.3,0.4-0.4s0.4-0.1,0.7-0.1c0.3,0,0.5,0,0.7,0.1s0.4,0.2,0.5,0.4
			s0.2,0.3,0.2,0.5h-0.8c0-0.1,0-0.2-0.1-0.3s-0.2-0.1-0.4-0.1c-0.1,0-0.2,0-0.2,0s-0.1,0.1-0.2,0.1s-0.1,0.1-0.1,0.2s0,0.1,0.1,0.2
			s0.1,0.1,0.2,0.1s0.2,0.1,0.4,0.1c0.2,0,0.4,0.1,0.6,0.2s0.3,0.2,0.4,0.3s0.2,0.3,0.2,0.5c0,0.2-0.1,0.4-0.2,0.5s-0.3,0.3-0.5,0.3
			s-0.4,0.1-0.7,0.1c-0.3,0-0.5-0.1-0.7-0.2s-0.4-0.2-0.5-0.4s-0.2-0.3-0.2-0.5h0.8c0,0.1,0,0.2,0.1,0.3s0.1,0.1,0.2,0.2
			s0.2,0,0.3,0c0.1,0,0.2,0,0.3,0s0.1-0.1,0.2-0.1S212.5,135,212.5,134.9z"/>
		<path class="st9" d="M213.9,131.8c0-0.1,0-0.2,0.1-0.3s0.2-0.1,0.3-0.1c0.1,0,0.3,0,0.3,0.1s0.1,0.2,0.1,0.3s0,0.2-0.1,0.3
			s-0.2,0.1-0.3,0.1c-0.1,0-0.3,0-0.3-0.1S213.9,131.9,213.9,131.8z M214.8,132.6v3.2H214v-3.2H214.8z"/>
		<path class="st9" d="M217.3,133.8l0,0.5h-0.5c-0.2,0-0.4,0-0.5,0.1s-0.2,0.2-0.2,0.4c0,0.1,0,0.2,0.1,0.3s0.2,0.1,0.3,0.1
			s0.2,0,0.3-0.1s0.2-0.1,0.2-0.2s0.1-0.1,0.1-0.2l0.2,0.4c0,0.1-0.1,0.2-0.1,0.2s-0.1,0.2-0.2,0.2s-0.2,0.1-0.3,0.2
			s-0.3,0.1-0.4,0.1c-0.2,0-0.4,0-0.5-0.1s-0.3-0.2-0.4-0.3s-0.1-0.3-0.1-0.5c0-0.3,0.1-0.6,0.4-0.8s0.6-0.3,1.1-0.3H217.3z
			 M217.2,135.1v-1.4c0-0.2,0-0.3-0.1-0.4s-0.2-0.1-0.4-0.1c-0.1,0-0.2,0-0.2,0s-0.1,0.1-0.2,0.1s-0.1,0.1-0.1,0.2h-0.8
			c0-0.2,0.1-0.3,0.2-0.5s0.3-0.3,0.5-0.4s0.4-0.1,0.7-0.1c0.2,0,0.5,0,0.7,0.1s0.3,0.2,0.5,0.4s0.2,0.4,0.2,0.6v1.4
			c0,0.2,0,0.3,0,0.4s0.1,0.2,0.1,0.3v0h-0.9c0-0.1-0.1-0.2-0.1-0.3S217.2,135.2,217.2,135.1z"/>
		<path class="st9" d="M219.5,133.3v2.5h-0.8v-3.2h0.8L219.5,133.3z M219.4,134.1h-0.2c0-0.3,0.1-0.6,0.2-0.8s0.2-0.4,0.4-0.5
			s0.4-0.2,0.7-0.2c0.2,0,0.4,0,0.5,0.1s0.3,0.2,0.4,0.4s0.1,0.4,0.1,0.7v2h-0.8v-2c0-0.1,0-0.2-0.1-0.3s-0.1-0.1-0.2-0.2
			s-0.2,0-0.3,0c-0.1,0-0.2,0-0.3,0.1s-0.2,0.1-0.2,0.2s-0.1,0.2-0.1,0.3S219.4,134,219.4,134.1z"/>
		<path class="st9" d="M224.4,133.3v2.5h-0.8v-3.2h0.8L224.4,133.3z M224.3,134.1h-0.2c0-0.3,0-0.6,0.1-0.8s0.2-0.4,0.4-0.5
			s0.4-0.2,0.7-0.2c0.3,0,0.5,0.1,0.7,0.3s0.3,0.5,0.3,0.9v2.1h-0.8v-2c0-0.1,0-0.3-0.1-0.3s-0.1-0.1-0.2-0.2s-0.2,0-0.3,0
			c-0.1,0-0.2,0-0.3,0.1s-0.1,0.1-0.2,0.2s-0.1,0.2-0.1,0.3S224.3,134,224.3,134.1z M226.2,134l-0.3,0c0-0.3,0-0.5,0.1-0.7
			s0.2-0.4,0.4-0.5s0.4-0.2,0.7-0.2c0.2,0,0.4,0,0.5,0.1s0.3,0.2,0.4,0.4s0.1,0.4,0.1,0.7v2h-0.8v-2c0-0.1,0-0.3-0.1-0.3
			s-0.1-0.1-0.2-0.2s-0.2,0-0.3,0c-0.1,0-0.2,0-0.3,0.1s-0.1,0.1-0.2,0.2s-0.1,0.2-0.1,0.2S226.2,133.9,226.2,134z"/>
		<path class="st9" d="M228.6,134.2L228.6,134.2c0-0.4,0.1-0.6,0.2-0.9s0.3-0.4,0.5-0.6s0.5-0.2,0.8-0.2c0.3,0,0.6,0.1,0.8,0.2
			s0.4,0.3,0.5,0.6s0.2,0.5,0.2,0.8v0.1c0,0.3-0.1,0.6-0.2,0.8s-0.3,0.4-0.5,0.6s-0.5,0.2-0.8,0.2c-0.3,0-0.6-0.1-0.8-0.2
			s-0.4-0.3-0.5-0.6S228.6,134.5,228.6,134.2z M229.5,134.2L229.5,134.2c0,0.2,0,0.4,0.1,0.5s0.1,0.3,0.2,0.3s0.2,0.1,0.4,0.1
			c0.2,0,0.3,0,0.4-0.1s0.2-0.2,0.2-0.3s0.1-0.3,0.1-0.5v-0.1c0-0.2,0-0.3-0.1-0.5s-0.1-0.3-0.2-0.3s-0.2-0.1-0.4-0.1
			c-0.2,0-0.3,0-0.4,0.1s-0.2,0.2-0.2,0.3S229.5,134,229.5,134.2z"/>
		<path class="st9" d="M232.8,132.6l0.7,2.6l0,0.6h-0.5l-1.1-3.2H232.8z M233.2,135.2l0.7-2.6h0.9l-1.1,3.2h-0.5L233.2,135.2z"/>
		<path class="st9" d="M235.2,131.8c0-0.1,0-0.2,0.1-0.3s0.2-0.1,0.3-0.1c0.1,0,0.3,0,0.3,0.1s0.1,0.2,0.1,0.3s0,0.2-0.1,0.3
			s-0.2,0.1-0.3,0.1c-0.1,0-0.3,0-0.3-0.1S235.2,131.9,235.2,131.8z M236.1,132.6v3.2h-0.8v-3.2H236.1z"/>
		<path class="st9" d="M238.2,135.8c-0.3,0-0.6-0.1-0.8-0.2s-0.4-0.3-0.5-0.6s-0.2-0.5-0.2-0.8v-0.1c0-0.3,0.1-0.6,0.2-0.8
			s0.3-0.4,0.5-0.6s0.5-0.2,0.8-0.2c0.3,0,0.6,0.1,0.8,0.2s0.4,0.3,0.5,0.5s0.2,0.5,0.2,0.8v0.4H237v-0.6h1.7v-0.1
			c0-0.1,0-0.2-0.1-0.3s-0.1-0.2-0.2-0.2s-0.2-0.1-0.3-0.1c-0.1,0-0.3,0-0.4,0.1s-0.2,0.2-0.2,0.3s-0.1,0.3-0.1,0.5v0.1
			c0,0.2,0,0.3,0.1,0.5s0.2,0.2,0.3,0.3s0.3,0.1,0.4,0.1c0.2,0,0.3,0,0.4-0.1s0.2-0.2,0.3-0.3l0.4,0.4c-0.1,0.1-0.3,0.3-0.5,0.4
			S238.6,135.8,238.2,135.8z"/>
		<path class="st9" d="M241.7,134.9c0-0.1,0-0.1-0.1-0.2s-0.1-0.1-0.2-0.1s-0.2-0.1-0.4-0.1c-0.2,0-0.4-0.1-0.6-0.2
			s-0.3-0.2-0.4-0.3s-0.1-0.3-0.1-0.5c0-0.2,0.1-0.3,0.2-0.5s0.2-0.3,0.4-0.4s0.4-0.1,0.7-0.1c0.3,0,0.5,0,0.7,0.1s0.4,0.2,0.5,0.4
			s0.2,0.3,0.2,0.5h-0.8c0-0.1,0-0.2-0.1-0.3s-0.2-0.1-0.4-0.1c-0.1,0-0.2,0-0.2,0s-0.1,0.1-0.2,0.1s-0.1,0.1-0.1,0.2s0,0.1,0.1,0.2
			s0.1,0.1,0.2,0.1s0.2,0.1,0.4,0.1c0.2,0,0.4,0.1,0.6,0.2s0.3,0.2,0.4,0.3s0.2,0.3,0.2,0.5c0,0.2-0.1,0.4-0.2,0.5s-0.3,0.3-0.5,0.3
			s-0.4,0.1-0.7,0.1c-0.3,0-0.5-0.1-0.7-0.2s-0.4-0.2-0.5-0.4s-0.2-0.3-0.2-0.5h0.8c0,0.1,0,0.2,0.1,0.3s0.1,0.1,0.2,0.2
			s0.2,0,0.3,0c0.1,0,0.2,0,0.3,0s0.1-0.1,0.2-0.1S241.7,135,241.7,134.9z"/>
	</g>
</g>
<g>
	<g>
		<path class="st9" d="M202.8,122.9v4.3H202v-4.3H202.8z M203.3,127.2h-0.9l0-0.7h0.9c0.2,0,0.4-0.1,0.6-0.2s0.3-0.3,0.4-0.5
			s0.1-0.4,0.1-0.7v-0.2c0-0.3,0-0.5-0.1-0.7s-0.2-0.3-0.4-0.5s-0.3-0.2-0.6-0.2h-1v-0.7h1c0.4,0,0.7,0.1,1,0.3s0.5,0.4,0.7,0.7
			s0.2,0.7,0.2,1.1v0.2c0,0.4-0.1,0.8-0.2,1.1s-0.4,0.5-0.7,0.7S203.7,127.2,203.3,127.2z"/>
		<path class="st9" d="M207.3,127.2c-0.3,0-0.6-0.1-0.8-0.2s-0.4-0.3-0.5-0.6s-0.2-0.5-0.2-0.8v-0.1c0-0.3,0.1-0.6,0.2-0.8
			s0.3-0.4,0.5-0.6s0.5-0.2,0.8-0.2c0.3,0,0.6,0.1,0.8,0.2s0.4,0.3,0.5,0.5s0.2,0.5,0.2,0.8v0.4h-2.5v-0.6h1.7v-0.1
			c0-0.1,0-0.2-0.1-0.3s-0.1-0.2-0.2-0.2s-0.2-0.1-0.3-0.1c-0.1,0-0.3,0-0.4,0.1s-0.2,0.2-0.2,0.3s-0.1,0.3-0.1,0.5v0.1
			c0,0.2,0,0.3,0.1,0.5s0.2,0.2,0.3,0.3s0.3,0.1,0.4,0.1c0.2,0,0.3,0,0.4-0.1s0.2-0.1,0.3-0.3l0.4,0.4c-0.1,0.1-0.3,0.3-0.5,0.4
			S207.6,127.2,207.3,127.2z"/>
		<path class="st9" d="M209.1,122.7h0.8v3.8l-0.1,0.7h-0.8V122.7z M211.9,125.6L211.9,125.6c0,0.4,0,0.7-0.1,0.9s-0.2,0.4-0.4,0.6
			s-0.4,0.2-0.7,0.2c-0.3,0-0.5-0.1-0.6-0.2s-0.3-0.3-0.4-0.6s-0.2-0.5-0.2-0.8v-0.1c0-0.3,0.1-0.6,0.2-0.8s0.2-0.4,0.4-0.6
			s0.4-0.2,0.6-0.2c0.3,0,0.5,0.1,0.7,0.2s0.3,0.3,0.4,0.6S211.9,125.2,211.9,125.6z M211.1,125.6L211.1,125.6c0-0.2,0-0.4-0.1-0.5
			s-0.1-0.3-0.2-0.3s-0.2-0.1-0.4-0.1c-0.1,0-0.2,0-0.3,0.1s-0.1,0.1-0.2,0.2s-0.1,0.2-0.1,0.2s0,0.2,0,0.3v0.4c0,0.2,0,0.3,0.1,0.4
			s0.1,0.2,0.2,0.3s0.2,0.1,0.4,0.1c0.2,0,0.3,0,0.4-0.1s0.1-0.2,0.2-0.3S211.1,125.8,211.1,125.6z"/>
		<path class="st9" d="M214.3,125.2l0,0.5h-0.5c-0.2,0-0.4,0-0.5,0.1s-0.2,0.2-0.2,0.4c0,0.1,0,0.2,0.1,0.3s0.2,0.1,0.3,0.1
			s0.2,0,0.3-0.1s0.2-0.1,0.2-0.2s0.1-0.1,0.1-0.2l0.2,0.4c0,0.1-0.1,0.2-0.1,0.2s-0.1,0.2-0.2,0.2s-0.2,0.1-0.3,0.2
			s-0.3,0.1-0.4,0.1c-0.2,0-0.4,0-0.5-0.1s-0.3-0.2-0.4-0.3s-0.1-0.3-0.1-0.5c0-0.3,0.1-0.6,0.4-0.8s0.6-0.3,1.1-0.3H214.3z
			 M214.1,126.5V125c0-0.2,0-0.3-0.1-0.4s-0.2-0.1-0.4-0.1c-0.1,0-0.2,0-0.2,0s-0.1,0.1-0.2,0.1s-0.1,0.1-0.1,0.2h-0.8
			c0-0.2,0.1-0.3,0.2-0.5s0.3-0.3,0.5-0.4s0.4-0.1,0.7-0.1c0.2,0,0.5,0,0.7,0.1s0.3,0.2,0.5,0.4s0.2,0.4,0.2,0.6v1.4
			c0,0.2,0,0.3,0,0.4s0.1,0.2,0.1,0.3v0h-0.9c0-0.1-0.1-0.2-0.1-0.3S214.1,126.6,214.1,126.5z"/>
		<path class="st9" d="M217.2,124v0.6h-1.8V124H217.2z M215.8,123.2h0.8v3c0,0.1,0,0.2,0,0.2s0.1,0.1,0.1,0.1s0.1,0,0.2,0
			c0.1,0,0.1,0,0.1,0s0.1,0,0.1,0l0,0.6c-0.1,0-0.2,0-0.2,0.1s-0.2,0-0.3,0c-0.2,0-0.3,0-0.5-0.1s-0.2-0.2-0.3-0.3s-0.1-0.3-0.1-0.5
			V123.2z"/>
		<path class="st9" d="M217.7,123.2c0-0.1,0-0.2,0.1-0.3s0.2-0.1,0.3-0.1c0.1,0,0.3,0,0.3,0.1s0.1,0.2,0.1,0.3s0,0.2-0.1,0.3
			s-0.2,0.1-0.3,0.1c-0.1,0-0.3,0-0.3-0.1S217.7,123.3,217.7,123.2z M218.6,124v3.2h-0.8V124H218.6z"/>
		<path class="st9" d="M220.1,124.7v2.5h-0.8V124h0.8L220.1,124.7z M220,125.5h-0.2c0-0.3,0.1-0.6,0.2-0.8s0.2-0.4,0.4-0.5
			s0.4-0.2,0.7-0.2c0.2,0,0.4,0,0.5,0.1s0.3,0.2,0.4,0.4s0.1,0.4,0.1,0.7v2h-0.8v-2c0-0.1,0-0.2-0.1-0.3s-0.1-0.1-0.2-0.2
			s-0.2,0-0.3,0c-0.1,0-0.2,0-0.3,0.1s-0.2,0.1-0.2,0.2s-0.1,0.2-0.1,0.3S220,125.4,220,125.5z"/>
		<path class="st9" d="M222.5,125.6L222.5,125.6c0-0.4,0.1-0.7,0.2-0.9s0.3-0.4,0.4-0.6s0.4-0.2,0.7-0.2c0.2,0,0.4,0,0.5,0.1
			s0.3,0.2,0.4,0.3s0.2,0.3,0.2,0.5s0.1,0.4,0.1,0.6v0.1c0,0.3-0.1,0.6-0.2,0.8s-0.2,0.4-0.4,0.6s-0.4,0.2-0.6,0.2
			c-0.3,0-0.5-0.1-0.7-0.2s-0.3-0.3-0.4-0.6S222.5,125.9,222.5,125.6z M224.6,124h0.8v3.1c0,0.3-0.1,0.5-0.2,0.7s-0.3,0.4-0.5,0.5
			s-0.5,0.2-0.8,0.2c-0.1,0-0.3,0-0.4-0.1s-0.3-0.1-0.4-0.2s-0.2-0.2-0.3-0.3l0.4-0.5c0.1,0.1,0.2,0.2,0.3,0.3s0.3,0.1,0.4,0.1
			c0.2,0,0.4-0.1,0.5-0.2s0.2-0.3,0.2-0.5v-2.3L224.6,124z M223.3,125.6L223.3,125.6c0,0.2,0,0.4,0.1,0.5s0.1,0.3,0.2,0.3
			s0.2,0.1,0.4,0.1c0.2,0,0.3,0,0.4-0.1s0.2-0.2,0.2-0.3s0.1-0.2,0.1-0.4v-0.4c0-0.1,0-0.2,0-0.3s-0.1-0.2-0.1-0.3s-0.1-0.1-0.2-0.2
			s-0.2-0.1-0.3-0.1c-0.1,0-0.3,0-0.4,0.1s-0.2,0.2-0.2,0.3S223.3,125.4,223.3,125.6z"/>
		<path class="st9" d="M228.9,126.6c0.1,0,0.2,0,0.3-0.1s0.1-0.1,0.2-0.2s0.1-0.2,0.1-0.3h0.8c0,0.2-0.1,0.4-0.2,0.6
			s-0.3,0.3-0.5,0.4s-0.4,0.1-0.7,0.1c-0.3,0-0.6-0.1-0.8-0.2s-0.4-0.3-0.5-0.6s-0.2-0.5-0.2-0.8v-0.1c0-0.3,0.1-0.6,0.2-0.8
			s0.3-0.4,0.5-0.6s0.5-0.2,0.8-0.2c0.3,0,0.5,0,0.7,0.1s0.4,0.2,0.5,0.4s0.2,0.4,0.2,0.7h-0.8c0-0.1,0-0.2-0.1-0.3
			s-0.1-0.2-0.2-0.2s-0.2-0.1-0.3-0.1c-0.2,0-0.3,0-0.4,0.1s-0.1,0.2-0.2,0.3s0,0.3,0,0.5v0.1c0,0.2,0,0.3,0,0.5s0.1,0.3,0.2,0.3
			S228.7,126.6,228.9,126.6z"/>
		<path class="st9" d="M231.6,122.7v4.5h-0.8v-4.5H231.6z"/>
		<path class="st9" d="M234.2,125.8l0.2,0c0,0.3,0,0.5-0.1,0.8s-0.2,0.4-0.4,0.5s-0.4,0.2-0.7,0.2c-0.3,0-0.6-0.1-0.8-0.3
			s-0.3-0.5-0.3-0.9v-2h0.8v2.1c0,0.1,0,0.2,0.1,0.3s0.1,0.1,0.2,0.2s0.1,0,0.2,0c0.2,0,0.3,0,0.4-0.1s0.2-0.2,0.2-0.3
			S234.2,125.9,234.2,125.8z M234.1,126.4V124h0.8v3.2h-0.8L234.1,126.4z"/>
		<path class="st9" d="M235.6,122.7h0.8v3.8l-0.1,0.7h-0.8V122.7z M238.5,125.6L238.5,125.6c0,0.4,0,0.7-0.1,0.9s-0.2,0.4-0.4,0.6
			s-0.4,0.2-0.7,0.2c-0.3,0-0.5-0.1-0.6-0.2s-0.3-0.3-0.4-0.6s-0.2-0.5-0.2-0.8v-0.1c0-0.3,0.1-0.6,0.2-0.8s0.2-0.4,0.4-0.6
			s0.4-0.2,0.6-0.2c0.3,0,0.5,0.1,0.7,0.2s0.3,0.3,0.4,0.6S238.5,125.2,238.5,125.6z M237.6,125.6L237.6,125.6c0-0.2,0-0.4-0.1-0.5
			s-0.1-0.3-0.2-0.3s-0.2-0.1-0.4-0.1c-0.1,0-0.2,0-0.3,0.1s-0.1,0.1-0.2,0.2s-0.1,0.2-0.1,0.2s0,0.2,0,0.3v0.4c0,0.2,0,0.3,0.1,0.4
			s0.1,0.2,0.2,0.3s0.2,0.1,0.4,0.1c0.2,0,0.3,0,0.4-0.1s0.1-0.2,0.2-0.3S237.6,125.8,237.6,125.6z"/>
	</g>
</g>
<g>
	<g>
		<path class="st9" d="M202.6,114l0.9,1.9l0.9-1.9h1l-1.4,2.7v1.6H203v-1.6l-1.4-2.7H202.6z"/>
		<path class="st9" d="M205.4,116.7L205.4,116.7c0-0.4,0.1-0.6,0.2-0.9s0.3-0.4,0.5-0.6s0.5-0.2,0.8-0.2c0.3,0,0.6,0.1,0.8,0.2
			s0.4,0.3,0.5,0.6s0.2,0.5,0.2,0.8v0.1c0,0.3-0.1,0.6-0.2,0.8s-0.3,0.4-0.5,0.6s-0.5,0.2-0.8,0.2c-0.3,0-0.6-0.1-0.8-0.2
			s-0.4-0.3-0.5-0.6S205.4,117,205.4,116.7z M206.3,116.7L206.3,116.7c0,0.2,0,0.4,0.1,0.5s0.1,0.3,0.2,0.3s0.2,0.1,0.4,0.1
			c0.2,0,0.3,0,0.4-0.1s0.2-0.2,0.2-0.3s0.1-0.3,0.1-0.5v-0.1c0-0.2,0-0.3-0.1-0.5s-0.1-0.3-0.2-0.3s-0.2-0.1-0.4-0.1
			c-0.2,0-0.3,0-0.4,0.1s-0.2,0.2-0.2,0.3S206.3,116.5,206.3,116.7z"/>
		<path class="st9" d="M208.8,116.7L208.8,116.7c0-0.4,0.1-0.7,0.2-0.9s0.3-0.4,0.4-0.6s0.4-0.2,0.7-0.2c0.2,0,0.4,0,0.5,0.1
			s0.3,0.2,0.4,0.3s0.2,0.3,0.2,0.5s0.1,0.4,0.1,0.6v0.1c0,0.3-0.1,0.6-0.2,0.8s-0.2,0.4-0.4,0.6s-0.4,0.2-0.6,0.2
			c-0.3,0-0.5-0.1-0.7-0.2s-0.3-0.3-0.4-0.6S208.8,117.1,208.8,116.7z M210.9,115.1h0.8v3.1c0,0.3-0.1,0.5-0.2,0.7s-0.3,0.4-0.5,0.5
			s-0.5,0.2-0.8,0.2c-0.1,0-0.3,0-0.4-0.1s-0.3-0.1-0.4-0.2s-0.2-0.2-0.3-0.3l0.4-0.5c0.1,0.1,0.2,0.2,0.3,0.3s0.3,0.1,0.4,0.1
			c0.2,0,0.4-0.1,0.5-0.2s0.2-0.3,0.2-0.5v-2.3L210.9,115.1z M209.6,116.7L209.6,116.7c0,0.2,0,0.4,0.1,0.5s0.1,0.3,0.2,0.3
			s0.2,0.1,0.4,0.1c0.2,0,0.3,0,0.4-0.1s0.2-0.2,0.2-0.3s0.1-0.2,0.1-0.4v-0.4c0-0.1,0-0.2,0-0.3s-0.1-0.2-0.1-0.3s-0.1-0.1-0.2-0.2
			s-0.2-0.1-0.3-0.1c-0.1,0-0.3,0-0.4,0.1s-0.2,0.2-0.2,0.3S209.6,116.5,209.6,116.7z"/>
		<path class="st9" d="M214.1,116.4l0,0.5h-0.5c-0.2,0-0.4,0-0.5,0.1s-0.2,0.2-0.2,0.4c0,0.1,0,0.2,0.1,0.3s0.2,0.1,0.3,0.1
			s0.2,0,0.3-0.1s0.2-0.1,0.2-0.2s0.1-0.1,0.1-0.2l0.2,0.4c0,0.1-0.1,0.2-0.1,0.2s-0.1,0.2-0.2,0.2s-0.2,0.1-0.3,0.2
			s-0.3,0.1-0.4,0.1c-0.2,0-0.4,0-0.5-0.1s-0.3-0.2-0.4-0.3s-0.1-0.3-0.1-0.5c0-0.3,0.1-0.6,0.4-0.8s0.6-0.3,1.1-0.3H214.1z
			 M214,117.6v-1.4c0-0.2,0-0.3-0.1-0.4s-0.2-0.1-0.4-0.1c-0.1,0-0.2,0-0.2,0s-0.1,0.1-0.2,0.1s-0.1,0.1-0.1,0.2h-0.8
			c0-0.2,0.1-0.3,0.2-0.5s0.3-0.3,0.5-0.4s0.4-0.1,0.7-0.1c0.2,0,0.5,0,0.7,0.1s0.3,0.2,0.5,0.4s0.2,0.4,0.2,0.6v1.4
			c0,0.2,0,0.3,0,0.4s0.1,0.2,0.1,0.3v0h-0.9c0-0.1-0.1-0.2-0.1-0.3S214,117.7,214,117.6z"/>
		<path class="st9" d="M217.5,116l0.8-0.5c0.1-0.1,0.2-0.2,0.2-0.2s0.1-0.2,0.1-0.2s0-0.2-0.1-0.3s-0.2-0.1-0.3-0.1
			c-0.1,0-0.2,0-0.3,0.1s-0.1,0.2-0.1,0.3c0,0.1,0.1,0.3,0.2,0.4s0.2,0.3,0.4,0.5l2,2.3h-1l-1.6-1.9c-0.2-0.3-0.4-0.5-0.5-0.7
			s-0.2-0.4-0.2-0.6c0-0.2,0-0.4,0.1-0.6s0.2-0.3,0.4-0.4s0.4-0.1,0.6-0.1c0.2,0,0.4,0,0.6,0.1s0.3,0.2,0.4,0.4s0.1,0.3,0.1,0.5
			c0,0.1,0,0.3-0.1,0.4s-0.1,0.2-0.2,0.3s-0.2,0.2-0.3,0.3l-0.9,0.7c-0.1,0.1-0.1,0.1-0.2,0.2s-0.1,0.1-0.1,0.2s0,0.1,0,0.2
			c0,0.1,0,0.2,0.1,0.3s0.1,0.2,0.2,0.2s0.2,0.1,0.3,0.1c0.2,0,0.3,0,0.5-0.1s0.3-0.2,0.4-0.3s0.2-0.3,0.3-0.5s0.1-0.4,0.1-0.6h0.7
			c0,0.3,0,0.6-0.1,0.9s-0.3,0.5-0.5,0.7c0,0,0,0,0,0s0,0-0.1,0c-0.2,0.2-0.4,0.3-0.6,0.3s-0.4,0.1-0.7,0.1c-0.3,0-0.5-0.1-0.7-0.2
			s-0.4-0.2-0.5-0.4s-0.2-0.4-0.2-0.6c0-0.2,0-0.3,0.1-0.5s0.2-0.2,0.3-0.4S217.4,116.1,217.5,116z"/>
		<path class="st9" d="M222.1,116.7L222.1,116.7c0-0.4,0.1-0.7,0.2-0.9s0.3-0.4,0.4-0.6s0.4-0.2,0.7-0.2c0.2,0,0.4,0,0.5,0.1
			s0.3,0.2,0.4,0.3s0.2,0.3,0.2,0.5s0.1,0.4,0.1,0.6v0.1c0,0.3-0.1,0.6-0.2,0.8s-0.2,0.4-0.4,0.6s-0.4,0.2-0.6,0.2
			c-0.3,0-0.5-0.1-0.7-0.2s-0.3-0.3-0.4-0.6S222.1,117.1,222.1,116.7z M224.2,115.1h0.8v3.1c0,0.3-0.1,0.5-0.2,0.7s-0.3,0.4-0.5,0.5
			s-0.5,0.2-0.8,0.2c-0.1,0-0.3,0-0.4-0.1s-0.3-0.1-0.4-0.2s-0.2-0.2-0.3-0.3l0.4-0.5c0.1,0.1,0.2,0.2,0.3,0.3s0.3,0.1,0.4,0.1
			c0.2,0,0.4-0.1,0.5-0.2s0.2-0.3,0.2-0.5v-2.3L224.2,115.1z M222.9,116.7L222.9,116.7c0,0.2,0,0.4,0.1,0.5s0.1,0.3,0.2,0.3
			s0.2,0.1,0.4,0.1c0.2,0,0.3,0,0.4-0.1s0.2-0.2,0.2-0.3s0.1-0.2,0.1-0.4v-0.4c0-0.1,0-0.2,0-0.3s-0.1-0.2-0.1-0.3s-0.1-0.1-0.2-0.2
			s-0.2-0.1-0.3-0.1c-0.1,0-0.3,0-0.4,0.1s-0.2,0.2-0.2,0.3S222.9,116.5,222.9,116.7z"/>
		<path class="st9" d="M226.4,115.8v2.5h-0.8v-3.2h0.8L226.4,115.8z M227.4,115.1l0,0.8c0,0-0.1,0-0.1,0s-0.1,0-0.2,0
			c-0.2,0-0.3,0-0.4,0.1s-0.2,0.1-0.2,0.2s-0.1,0.2-0.1,0.4l-0.2-0.1c0-0.3,0-0.5,0.1-0.7s0.2-0.4,0.3-0.5s0.3-0.2,0.5-0.2
			c0,0,0.1,0,0.1,0S227.3,115.1,227.4,115.1z"/>
		<path class="st9" d="M227.6,116.7L227.6,116.7c0-0.4,0.1-0.6,0.2-0.9s0.3-0.4,0.5-0.6s0.5-0.2,0.8-0.2c0.3,0,0.6,0.1,0.8,0.2
			s0.4,0.3,0.5,0.6s0.2,0.5,0.2,0.8v0.1c0,0.3-0.1,0.6-0.2,0.8s-0.3,0.4-0.5,0.6s-0.5,0.2-0.8,0.2c-0.3,0-0.6-0.1-0.8-0.2
			s-0.4-0.3-0.5-0.6S227.6,117,227.6,116.7z M228.4,116.7L228.4,116.7c0,0.2,0,0.4,0.1,0.5s0.1,0.3,0.2,0.3s0.2,0.1,0.4,0.1
			c0.2,0,0.3,0,0.4-0.1s0.2-0.2,0.2-0.3s0.1-0.3,0.1-0.5v-0.1c0-0.2,0-0.3-0.1-0.5s-0.1-0.3-0.2-0.3s-0.2-0.1-0.4-0.1
			c-0.2,0-0.3,0-0.4,0.1s-0.2,0.2-0.2,0.3S228.4,116.5,228.4,116.7z"/>
		<path class="st9" d="M233,116.9l0.2,0c0,0.3,0,0.5-0.1,0.8s-0.2,0.4-0.4,0.5s-0.4,0.2-0.7,0.2c-0.3,0-0.6-0.1-0.8-0.3
			s-0.3-0.5-0.3-0.9v-2h0.8v2.1c0,0.1,0,0.2,0.1,0.3s0.1,0.1,0.2,0.2s0.1,0,0.2,0c0.2,0,0.3,0,0.4-0.1s0.2-0.2,0.2-0.3
			S233,117,233,116.9z M232.9,117.5v-2.4h0.8v3.2H233L232.9,117.5z"/>
		<path class="st9" d="M235.2,115.7v3.8h-0.8v-4.4h0.8L235.2,115.7z M237.2,116.7L237.2,116.7c0,0.4,0,0.6-0.1,0.9s-0.2,0.4-0.4,0.6
			s-0.4,0.2-0.7,0.2c-0.3,0-0.5-0.1-0.6-0.2s-0.3-0.3-0.4-0.6s-0.2-0.5-0.2-0.8v-0.2c0-0.3,0.1-0.6,0.2-0.8s0.2-0.4,0.4-0.6
			s0.4-0.2,0.6-0.2c0.3,0,0.5,0.1,0.7,0.2s0.3,0.3,0.4,0.6S237.2,116.3,237.2,116.7z M236.3,116.7L236.3,116.7c0-0.2,0-0.4-0.1-0.5
			s-0.1-0.3-0.2-0.3s-0.2-0.1-0.4-0.1c-0.1,0-0.2,0-0.3,0.1s-0.1,0.1-0.2,0.2s-0.1,0.2-0.1,0.3s0,0.2,0,0.3v0.4c0,0.1,0,0.3,0.1,0.4
			s0.1,0.2,0.2,0.3s0.2,0.1,0.4,0.1c0.1,0,0.3,0,0.4-0.1s0.2-0.2,0.2-0.3S236.3,116.9,236.3,116.7z"/>
		<path class="st9" d="M240.7,115.1v0.6h-1.8v-0.6H240.7z M239.3,114.3h0.8v3c0,0.1,0,0.2,0,0.2s0.1,0.1,0.1,0.1s0.1,0,0.2,0
			c0.1,0,0.1,0,0.1,0s0.1,0,0.1,0l0,0.6c-0.1,0-0.2,0-0.2,0.1s-0.2,0-0.3,0c-0.2,0-0.3,0-0.5-0.1s-0.2-0.2-0.3-0.3s-0.1-0.3-0.1-0.5
			V114.3z"/>
		<path class="st9" d="M241.9,113.8v4.5h-0.8v-4.5H241.9z M241.8,116.6h-0.2c0-0.3,0.1-0.6,0.2-0.8s0.2-0.4,0.4-0.5s0.4-0.2,0.6-0.2
			c0.2,0,0.4,0,0.5,0.1s0.3,0.2,0.4,0.4s0.1,0.4,0.1,0.7v2h-0.8v-2c0-0.1,0-0.3-0.1-0.3s-0.1-0.1-0.2-0.2s-0.2-0.1-0.3-0.1
			c-0.1,0-0.2,0-0.3,0.1s-0.2,0.1-0.2,0.2s-0.1,0.2-0.1,0.3S241.8,116.5,241.8,116.6z"/>
		<path class="st9" d="M245.8,118.3c-0.3,0-0.6-0.1-0.8-0.2s-0.4-0.3-0.5-0.6s-0.2-0.5-0.2-0.8v-0.1c0-0.3,0.1-0.6,0.2-0.8
			s0.3-0.4,0.5-0.6s0.5-0.2,0.8-0.2c0.3,0,0.6,0.1,0.8,0.2s0.4,0.3,0.5,0.5s0.2,0.5,0.2,0.8v0.4h-2.5v-0.6h1.7v-0.1
			c0-0.1,0-0.2-0.1-0.3s-0.1-0.2-0.2-0.2s-0.2-0.1-0.3-0.1c-0.1,0-0.3,0-0.4,0.1s-0.2,0.2-0.2,0.3s-0.1,0.3-0.1,0.5v0.1
			c0,0.2,0,0.3,0.1,0.5s0.2,0.2,0.3,0.3s0.3,0.1,0.4,0.1c0.2,0,0.3,0,0.4-0.1s0.2-0.1,0.3-0.3l0.4,0.4c-0.1,0.1-0.3,0.3-0.5,0.4
			S246.1,118.3,245.8,118.3z"/>
		<path class="st9" d="M248.4,115.8v2.5h-0.8v-3.2h0.8L248.4,115.8z M249.4,115.1l0,0.8c0,0-0.1,0-0.1,0s-0.1,0-0.2,0
			c-0.2,0-0.3,0-0.4,0.1s-0.2,0.1-0.2,0.2s-0.1,0.2-0.1,0.4l-0.2-0.1c0-0.3,0-0.5,0.1-0.7s0.2-0.4,0.3-0.5s0.3-0.2,0.5-0.2
			c0,0,0.1,0,0.1,0S249.3,115.1,249.4,115.1z"/>
		<path class="st9" d="M251.5,116.4l0,0.5H251c-0.2,0-0.4,0-0.5,0.1s-0.2,0.2-0.2,0.4c0,0.1,0,0.2,0.1,0.3s0.2,0.1,0.3,0.1
			s0.2,0,0.3-0.1s0.2-0.1,0.2-0.2s0.1-0.1,0.1-0.2l0.2,0.4c0,0.1-0.1,0.2-0.1,0.2s-0.1,0.2-0.2,0.2s-0.2,0.1-0.3,0.2
			s-0.3,0.1-0.4,0.1c-0.2,0-0.4,0-0.5-0.1s-0.3-0.2-0.4-0.3s-0.1-0.3-0.1-0.5c0-0.3,0.1-0.6,0.4-0.8s0.6-0.3,1.1-0.3H251.5z
			 M251.4,117.6v-1.4c0-0.2,0-0.3-0.1-0.4s-0.2-0.1-0.4-0.1c-0.1,0-0.2,0-0.2,0s-0.1,0.1-0.2,0.1s-0.1,0.1-0.1,0.2h-0.8
			c0-0.2,0.1-0.3,0.2-0.5s0.3-0.3,0.5-0.4s0.4-0.1,0.7-0.1c0.2,0,0.5,0,0.7,0.1s0.3,0.2,0.5,0.4s0.2,0.4,0.2,0.6v1.4
			c0,0.2,0,0.3,0,0.4s0.1,0.2,0.1,0.3v0h-0.9c0-0.1-0.1-0.2-0.1-0.3S251.4,117.7,251.4,117.6z"/>
		<path class="st9" d="M253.7,115.7v3.8h-0.8v-4.4h0.8L253.7,115.7z M255.7,116.7L255.7,116.7c0,0.4,0,0.6-0.1,0.9s-0.2,0.4-0.4,0.6
			s-0.4,0.2-0.7,0.2c-0.3,0-0.5-0.1-0.6-0.2s-0.3-0.3-0.4-0.6s-0.2-0.5-0.2-0.8v-0.2c0-0.3,0.1-0.6,0.2-0.8s0.2-0.4,0.4-0.6
			s0.4-0.2,0.6-0.2c0.3,0,0.5,0.1,0.7,0.2s0.3,0.3,0.4,0.6S255.7,116.3,255.7,116.7z M254.8,116.7L254.8,116.7c0-0.2,0-0.4-0.1-0.5
			s-0.1-0.3-0.2-0.3s-0.2-0.1-0.4-0.1c-0.1,0-0.2,0-0.3,0.1s-0.1,0.1-0.2,0.2s-0.1,0.2-0.1,0.3s0,0.2,0,0.3v0.4c0,0.1,0,0.3,0.1,0.4
			s0.1,0.2,0.2,0.3s0.2,0.1,0.4,0.1c0.1,0,0.3,0,0.4-0.1s0.2-0.2,0.2-0.3S254.8,116.9,254.8,116.7z"/>
		<path class="st9" d="M256.7,115.1l0.7,2.3l0.1,0.9l-0.6,0.1l-1.1-3.3H256.7z M257.1,117.9l0.8-2.8h0.9l-1.3,3.6
			c0,0.1-0.1,0.2-0.1,0.3s-0.1,0.2-0.2,0.3s-0.2,0.2-0.3,0.2s-0.3,0.1-0.4,0.1c-0.1,0-0.1,0-0.2,0s-0.1,0-0.2,0v-0.6c0,0,0,0,0.1,0
			s0,0,0.1,0c0.2,0,0.3,0,0.4-0.1s0.1-0.1,0.2-0.3L257.1,117.9z"/>
	</g>
</g>
<path class="st18" d="M107.1,72.4c0,0-11.8,11.5-15.1,12.3c-3.4,0.8-15.9-3.3-18-3.1c-0.9,0.1-2.9,6.7-4.8,14
	c-2.3,8.8-4.4,18.4-4.4,18.4s-5.9-2.3-15.4-3c-1.4-0.1-2.7-0.3-3.8-0.6c-6.6-1.7-9.1-5.9-9.1-5.9c9.4-13.4,9.5-25.2,11.5-32.5
	c2-7.3,9.8-7.8,15.7-6c2.6,0.8,8.2,1.8,10.8,2.7c2.6,0.9,16.1,6.1,17,6.1s12-6.3,12-6.3C106.9,68.5,107.1,72.4,107.1,72.4z"/>
<path class="st30" d="M69.2,95.5c-2.3,8.8-4.4,18.4-4.4,18.4s-5.9-2.3-15.4-3c-1.4-0.1-2.7-0.3-3.8-0.6c0.2-0.2,0.5-0.5,0.7-0.7
	c7.9-7.1,10.8-2.3,14.7-7.4C63.7,98.4,66.5,98.2,69.2,95.5z"/>
</svg>
